<?xml version="1.0" encoding="UTF-8" standalone="no"?>
<svg
   version="1.1"
   width="29.700220cm"
   height="21.000720cm"
   viewBox="0 0 116930 82680"
   id="svg2296"
   sodipodi:docname="battery_can_monitor-F_Paste.svg"
   inkscape:version="1.1 (c68e22c387, 2021-05-23)"
   xmlns:inkscape="http://www.inkscape.org/namespaces/inkscape"
   xmlns:sodipodi="http://sodipodi.sourceforge.net/DTD/sodipodi-0.dtd"
   xmlns="http://www.w3.org/2000/svg"
   xmlns:svg="http://www.w3.org/2000/svg">
  <defs
     id="defs2300" />
  <sodipodi:namedview
     id="namedview2298"
     pagecolor="#ffffff"
     bordercolor="#666666"
     borderopacity="1.0"
     inkscape:pageshadow="2"
     inkscape:pageopacity="0.0"
     inkscape:pagecheckerboard="0"
     inkscape:document-units="cm"
     showgrid="false"
     inkscape:zoom="1.0973533"
     inkscape:cx="236.02244"
     inkscape:cy="324.87258"
     inkscape:window-width="1483"
     inkscape:window-height="746"
     inkscape:window-x="337"
     inkscape:window-y="246"
     inkscape:window-maximized="0"
     inkscape:current-layer="svg2296" />
  <title
     id="title2042">SVG Picture created as battery_can_monitor-F_Paste.svg date 2021/12/20 11:08:32 </title>
  <desc
     id="desc2044">Picture generated by PCBNEW </desc>
  <g
     style="fill:#000000;fill-opacity:1;stroke:#000000;stroke-opacity:1;stroke-linecap:round;stroke-linejoin:round"
     transform="translate(0 0) scale(1 1)"
     id="g2046" />
  <g
     style="fill:#000000;fill-opacity:1;stroke:#000000;stroke-width:-0.000393701;stroke-opacity:1;stroke-linecap:round;stroke-linejoin:round"
     id="g2048" />
  <g
     id="path2050"
     style="fill:none;fill-opacity:1;stroke:#ff0000;stroke-width:19.6850404;stroke-linecap:round;stroke-linejoin:round;stroke-opacity:1;stroke-miterlimit:4;stroke-dasharray:none">
    <path
       style="color:#000000;fill:none;fill-opacity:1;stroke:#ff0000;stroke-linecap:butt;stroke-linejoin:miter;stroke-opacity:1;stroke-width:19.6850404;stroke-miterlimit:4;stroke-dasharray:none"
       d="M 17322,57480 V 17322"
       id="path6209" />
    <path
       style="color:#000000;fill:none;fill-opacity:1;stroke:#ff0000;stroke-linecap:butt;stroke-linejoin:miter;stroke-opacity:1;stroke-width:19.6850404;stroke-miterlimit:4;stroke-dasharray:none"
       d="m 17322,17312.158 a 9.8424997,9.8424997 0 0 0 -9.842,9.842 v 40158 a 9.8424997,9.8424997 0 0 0 9.842,9.842 9.8424997,9.8424997 0 0 0 9.842,-9.842 V 17322 a 9.8424997,9.8424997 0 0 0 -9.842,-9.842 z"
       id="path6211" />
  </g>
  <g
     id="path2052"
     style="fill:none;fill-opacity:1;stroke:#ff0000;stroke-width:19.6850404;stroke-linecap:round;stroke-linejoin:round;stroke-opacity:1;stroke-miterlimit:4;stroke-dasharray:none">
    <path
       style="color:#000000;fill:none;fill-opacity:1;stroke:#ff0000;stroke-linecap:butt;stroke-linejoin:miter;stroke-opacity:1;stroke-width:19.6850404;stroke-miterlimit:4;stroke-dasharray:none"
       d="M 49606,57480 H 17322"
       id="path6217" />
    <path
       style="color:#000000;fill:none;fill-opacity:1;stroke:#ff0000;stroke-linecap:butt;stroke-linejoin:miter;stroke-opacity:1;stroke-width:19.6850404;stroke-miterlimit:4;stroke-dasharray:none"
       d="m 17322,57470.158 a 9.8424997,9.8424997 0 0 0 -9.842,9.842 9.8424997,9.8424997 0 0 0 9.842,9.842 h 32284 a 9.8424997,9.8424997 0 0 0 9.842,-9.842 9.8424997,9.8424997 0 0 0 -9.842,-9.842 z"
       id="path6219" />
  </g>
  <g
     id="path2054"
     style="fill:none;fill-opacity:1;stroke:#ff0000;stroke-width:19.6850404;stroke-linecap:round;stroke-linejoin:round;stroke-opacity:1;stroke-miterlimit:4;stroke-dasharray:none">
    <path
       style="color:#000000;fill:none;fill-opacity:1;stroke:#ff0000;stroke-linecap:butt;stroke-linejoin:miter;stroke-opacity:1;stroke-width:19.6850404;stroke-miterlimit:4;stroke-dasharray:none"
       d="M 49606,17322 V 57480"
       id="path6225" />
    <path
       style="color:#000000;fill:none;fill-opacity:1;stroke:#ff0000;stroke-linecap:butt;stroke-linejoin:miter;stroke-opacity:1;stroke-width:19.6850404;stroke-miterlimit:4;stroke-dasharray:none"
       d="m 49606,17312.158 a 9.8424997,9.8424997 0 0 0 -9.842,9.842 v 40158 a 9.8424997,9.8424997 0 0 0 9.842,9.842 9.8424997,9.8424997 0 0 0 9.842,-9.842 V 17322 a 9.8424997,9.8424997 0 0 0 -9.842,-9.842 z"
       id="path6227" />
  </g>
  <g
     id="path2056"
     style="fill:none;fill-opacity:1;stroke:#ff0000;stroke-width:19.6850404;stroke-linecap:round;stroke-linejoin:round;stroke-opacity:1;stroke-miterlimit:4;stroke-dasharray:none">
    <path
       style="color:#000000;fill:none;fill-opacity:1;stroke:#ff0000;stroke-linecap:butt;stroke-linejoin:miter;stroke-opacity:1;stroke-width:19.6850404;stroke-miterlimit:4;stroke-dasharray:none"
       d="M 17322,17322 H 49606"
       id="path6233" />
    <path
       style="color:#000000;fill:none;fill-opacity:1;stroke:#ff0000;stroke-linecap:butt;stroke-linejoin:miter;stroke-opacity:1;stroke-width:19.6850404;stroke-miterlimit:4;stroke-dasharray:none"
       d="m 17322,17312.158 a 9.8424997,9.8424997 0 0 0 -9.842,9.842 9.8424997,9.8424997 0 0 0 9.842,9.842 h 32284 a 9.8424997,9.8424997 0 0 0 9.842,-9.842 9.8424997,9.8424997 0 0 0 -9.842,-9.842 z"
       id="path6235" />
  </g>
  <g
     id="path2058"
     style="fill:none;fill-opacity:1;stroke:#00ffff;stroke-width:19.685;stroke-linecap:round;stroke-linejoin:round;stroke-opacity:1">
    <path
       style="color:#000000;fill:none;fill-opacity:1;stroke:#00ffff;stroke-linecap:butt;stroke-linejoin:miter;-inkscape-stroke:none;stroke-opacity:1"
       d="M 19685,55118 V 19685"
       id="path6241" />
    <path
       style="color:#000000;fill:none;fill-opacity:1;stroke:#00ffff;stroke-linecap:butt;stroke-linejoin:miter;-inkscape-stroke:none;stroke-opacity:1"
       d="m 19685,19675.158 a 9.8424997,9.8424997 0 0 0 -9.842,9.842 v 35433 a 9.8424997,9.8424997 0 0 0 9.842,9.842 9.8424997,9.8424997 0 0 0 9.842,-9.842 V 19685 a 9.8424997,9.8424997 0 0 0 -9.842,-9.842 z"
       id="path6243" />
  </g>
  <g
     id="path2060"
     style="fill:none;fill-opacity:1;stroke:#00ffff;stroke-width:19.685;stroke-linecap:round;stroke-linejoin:round;stroke-opacity:1">
    <path
       style="color:#000000;fill:none;fill-opacity:1;stroke:#00ffff;stroke-linecap:butt;stroke-linejoin:miter;-inkscape-stroke:none;stroke-opacity:1"
       d="M 47244,55118 H 19685"
       id="path6249" />
    <path
       style="color:#000000;fill:none;fill-opacity:1;stroke:#00ffff;stroke-linecap:butt;stroke-linejoin:miter;-inkscape-stroke:none;stroke-opacity:1"
       d="m 19685,55108.158 a 9.8424997,9.8424997 0 0 0 -9.842,9.842 9.8424997,9.8424997 0 0 0 9.842,9.842 h 27559 a 9.8424997,9.8424997 0 0 0 9.842,-9.842 9.8424997,9.8424997 0 0 0 -9.842,-9.842 z"
       id="path6251" />
  </g>
  <g
     id="path2062"
     style="fill:none;fill-opacity:1;stroke:#00ffff;stroke-width:19.685;stroke-linecap:round;stroke-linejoin:round;stroke-opacity:1">
    <path
       style="color:#000000;fill:none;fill-opacity:1;stroke:#00ffff;stroke-linecap:butt;stroke-linejoin:miter;-inkscape-stroke:none;stroke-opacity:1"
       d="M 47244,19685 V 55118"
       id="path6257" />
    <path
       style="color:#000000;fill:none;fill-opacity:1;stroke:#00ffff;stroke-linecap:butt;stroke-linejoin:miter;-inkscape-stroke:none;stroke-opacity:1"
       d="m 47244,19675.158 a 9.8424997,9.8424997 0 0 0 -9.842,9.842 v 35433 a 9.8424997,9.8424997 0 0 0 9.842,9.842 9.8424997,9.8424997 0 0 0 9.842,-9.842 V 19685 a 9.8424997,9.8424997 0 0 0 -9.842,-9.842 z"
       id="path6259" />
  </g>
  <g
     id="path2064"
     style="fill:none;fill-opacity:1;stroke:#00ffff;stroke-width:19.685;stroke-linecap:round;stroke-linejoin:round;stroke-opacity:1">
    <path
       style="color:#000000;fill:none;fill-opacity:1;stroke:#00ffff;stroke-linecap:butt;stroke-linejoin:miter;-inkscape-stroke:none;stroke-opacity:1"
       d="M 19685,19685 H 47244"
       id="path6265" />
    <path
       style="color:#000000;fill:none;fill-opacity:1;stroke:#00ffff;stroke-linecap:butt;stroke-linejoin:miter;-inkscape-stroke:none;stroke-opacity:1"
       d="m 19685,19675.158 a 9.8424997,9.8424997 0 0 0 -9.842,9.842 9.8424997,9.8424997 0 0 0 9.842,9.842 h 27559 a 9.8424997,9.8424997 0 0 0 9.842,-9.842 9.8424997,9.8424997 0 0 0 -9.842,-9.842 z"
       id="path6267" />
  </g>
  <g
     id="g2066"
     style="fill:#000000;fill-opacity:1;stroke:#000000;stroke-width:19.685;stroke-linecap:round;stroke-linejoin:round" />
  <g
     style="fill:#000000;fill-opacity:1;stroke:#000000;stroke-width:0;stroke-linecap:round;stroke-linejoin:round"
     id="g2068" />
  <g
     style="fill:#000000;fill-opacity:1;stroke:#000000;stroke-width:0;stroke-linecap:round;stroke-linejoin:round"
     id="g2110">
    <g
       id="path2070"
       style="fill:#000000;fill-opacity:1">
      <path
         style="color:#000000;fill:#000000;fill-opacity:1;fill-rule:evenodd;stroke:none;-inkscape-stroke:none"
         d="m 33865.7,32195.5 4.2,0.6 4.1,1 4,1.5 3.8,1.8 3.7,2.2 3.4,2.5 3.1,2.9 2.9,3.1 2.5,3.4 2.2,3.7 1.8,3.8 1.5,4 1,4.1 0.6,4.2 0.2,4.3 v 86.6 l -0.2,4.2 -0.6,4.2 -1,4.2 -1.5,4 -1.8,3.8 -2.2,3.7 -2.5,3.4 -2.9,3.1 -3.1,2.9 -3.4,2.5 -3.7,2.2 -3.8,1.8 -4,1.4 -4.1,1.1 -4.2,0.6 -4.3,0.2 h -86.6 l -4.2,-0.2 -4.2,-0.6 -4.2,-1.1 -4,-1.4 -3.8,-1.8 -3.7,-2.2 -3.4,-2.5 -3.1,-2.9 -2.9,-3.1 -2.5,-3.4 -2.2,-3.7 -1.8,-3.8 -1.4,-4 -1.1,-4.2 -0.6,-4.2 -0.2,-4.2 v -86.6 l 0.2,-4.3 0.6,-4.2 1.1,-4.1 1.4,-4 1.8,-3.8 2.2,-3.7 2.5,-3.4 2.9,-3.1 3.1,-2.9 3.4,-2.5 3.7,-2.2 3.8,-1.8 4,-1.5 4.2,-1 4.2,-0.6 4.2,-0.2 h 86.6 z"
         id="path6273" />
      <path
         style="color:#000000;fill:#000000;fill-opacity:1;fill-rule:evenodd;stroke:none;-inkscape-stroke:none"
         d="m 33865.7,32195.5 4.2,0.6 4.1,1 4,1.5 3.8,1.8 3.7,2.2 3.4,2.5 3.1,2.9 2.9,3.1 2.5,3.4 2.2,3.7 1.8,3.8 1.5,4 1,4.1 0.6,4.2 0.2,4.3 v 86.6 l -0.2,4.2 -0.6,4.2 -1,4.2 -1.5,4 -1.8,3.8 -2.2,3.7 -2.5,3.4 -2.9,3.1 -3.1,2.9 -3.4,2.5 -3.7,2.2 -3.8,1.8 -4,1.4 -4.1,1.1 -4.2,0.6 -4.3,0.2 h -86.6 l -4.2,-0.2 -4.2,-0.6 -4.2,-1.1 -4,-1.4 -3.8,-1.8 -3.7,-2.2 -3.4,-2.5 -3.1,-2.9 -2.9,-3.1 -2.5,-3.4 -2.2,-3.7 -1.8,-3.8 -1.4,-4 -1.1,-4.2 -0.6,-4.2 -0.2,-4.2 v -86.6 l 0.2,-4.3 0.6,-4.2 1.1,-4.1 1.4,-4 1.8,-3.8 2.2,-3.7 2.5,-3.4 2.9,-3.1 3.1,-2.9 3.4,-2.5 3.7,-2.2 3.8,-1.8 4,-1.5 4.2,-1 4.2,-0.6 4.2,-0.2 h 86.6 z"
         id="path6275" />
    </g>
    <g
       id="path2072"
       style="fill:#000000;fill-opacity:1">
      <path
         style="color:#000000;fill:#000000;fill-opacity:1;fill-rule:evenodd;stroke:none;-inkscape-stroke:none"
         d="m 33629.4,32195.5 4.2,0.6 4.2,1 4,1.5 3.8,1.8 3.7,2.2 3.4,2.5 3.1,2.9 2.9,3.1 2.5,3.4 2.2,3.7 1.8,3.8 1.4,4 1.1,4.1 0.6,4.2 0.2,4.3 v 86.6 l -0.2,4.2 -0.6,4.2 -1.1,4.2 -1.4,4 -1.8,3.8 -2.2,3.7 -2.5,3.4 -2.9,3.1 -3.1,2.9 -3.4,2.5 -3.7,2.2 -3.8,1.8 -4,1.4 -4.2,1.1 -4.2,0.6 -4.2,0.2 h -86.6 l -4.3,-0.2 -4.2,-0.6 -4.1,-1.1 -4,-1.4 -3.8,-1.8 -3.7,-2.2 -3.4,-2.5 -3.1,-2.9 -2.9,-3.1 -2.5,-3.4 -2.2,-3.7 -1.8,-3.8 -1.5,-4 -1,-4.2 -0.6,-4.2 -0.2,-4.2 v -86.6 l 0.2,-4.3 0.6,-4.2 1,-4.1 1.5,-4 1.8,-3.8 2.2,-3.7 2.5,-3.4 2.9,-3.1 3.1,-2.9 3.4,-2.5 3.7,-2.2 3.8,-1.8 4,-1.5 4.1,-1 4.2,-0.6 4.3,-0.2 h 86.6 z"
         id="path6281" />
      <path
         style="color:#000000;fill:#000000;fill-opacity:1;fill-rule:evenodd;stroke:none;-inkscape-stroke:none"
         d="m 33629.4,32195.5 4.2,0.6 4.2,1 4,1.5 3.8,1.8 3.7,2.2 3.4,2.5 3.1,2.9 2.9,3.1 2.5,3.4 2.2,3.7 1.8,3.8 1.4,4 1.1,4.1 0.6,4.2 0.2,4.3 v 86.6 l -0.2,4.2 -0.6,4.2 -1.1,4.2 -1.4,4 -1.8,3.8 -2.2,3.7 -2.5,3.4 -2.9,3.1 -3.1,2.9 -3.4,2.5 -3.7,2.2 -3.8,1.8 -4,1.4 -4.2,1.1 -4.2,0.6 -4.2,0.2 h -86.6 l -4.3,-0.2 -4.2,-0.6 -4.1,-1.1 -4,-1.4 -3.8,-1.8 -3.7,-2.2 -3.4,-2.5 -3.1,-2.9 -2.9,-3.1 -2.5,-3.4 -2.2,-3.7 -1.8,-3.8 -1.5,-4 -1,-4.2 -0.6,-4.2 -0.2,-4.2 v -86.6 l 0.2,-4.3 0.6,-4.2 1,-4.1 1.5,-4 1.8,-3.8 2.2,-3.7 2.5,-3.4 2.9,-3.1 3.1,-2.9 3.4,-2.5 3.7,-2.2 3.8,-1.8 4,-1.5 4.1,-1 4.2,-0.6 4.3,-0.2 h 86.6 z"
         id="path6283" />
    </g>
    <g
       id="path2074"
       style="fill:#000000;fill-opacity:1">
      <path
         style="color:#000000;fill:#000000;fill-opacity:1;fill-rule:evenodd;stroke:none;-inkscape-stroke:none"
         d="m 33865.7,32431.7 4.2,0.6 4.1,1.1 4,1.4 3.8,1.8 3.7,2.2 3.4,2.5 3.1,2.9 2.9,3.1 2.5,3.4 2.2,3.7 1.8,3.8 1.5,4 1,4.2 0.6,4.2 0.2,4.2 v 86.6 l -0.2,4.3 -0.6,4.2 -1,4.1 -1.5,4 -1.8,3.8 -2.2,3.7 -2.5,3.4 -2.9,3.1 -3.1,2.9 -3.4,2.5 -3.7,2.2 -3.8,1.8 -4,1.5 -4.1,1 -4.2,0.6 -4.3,0.2 h -86.6 l -4.2,-0.2 -4.2,-0.6 -4.2,-1 -4,-1.5 -3.8,-1.8 -3.7,-2.2 -3.4,-2.5 -3.1,-2.9 -2.9,-3.1 -2.5,-3.4 -2.2,-3.7 -1.8,-3.8 -1.4,-4 -1.1,-4.1 -0.6,-4.2 -0.2,-4.3 v -86.6 l 0.2,-4.2 0.6,-4.2 1.1,-4.2 1.4,-4 1.8,-3.8 2.2,-3.7 2.5,-3.4 2.9,-3.1 3.1,-2.9 3.4,-2.5 3.7,-2.2 3.8,-1.8 4,-1.4 4.2,-1.1 4.2,-0.6 4.2,-0.2 h 86.6 z"
         id="path6289" />
      <path
         style="color:#000000;fill:#000000;fill-opacity:1;fill-rule:evenodd;stroke:none;-inkscape-stroke:none"
         d="m 33865.7,32431.7 4.2,0.6 4.1,1.1 4,1.4 3.8,1.8 3.7,2.2 3.4,2.5 3.1,2.9 2.9,3.1 2.5,3.4 2.2,3.7 1.8,3.8 1.5,4 1,4.2 0.6,4.2 0.2,4.2 v 86.6 l -0.2,4.3 -0.6,4.2 -1,4.1 -1.5,4 -1.8,3.8 -2.2,3.7 -2.5,3.4 -2.9,3.1 -3.1,2.9 -3.4,2.5 -3.7,2.2 -3.8,1.8 -4,1.5 -4.1,1 -4.2,0.6 -4.3,0.2 h -86.6 l -4.2,-0.2 -4.2,-0.6 -4.2,-1 -4,-1.5 -3.8,-1.8 -3.7,-2.2 -3.4,-2.5 -3.1,-2.9 -2.9,-3.1 -2.5,-3.4 -2.2,-3.7 -1.8,-3.8 -1.4,-4 -1.1,-4.1 -0.6,-4.2 -0.2,-4.3 v -86.6 l 0.2,-4.2 0.6,-4.2 1.1,-4.2 1.4,-4 1.8,-3.8 2.2,-3.7 2.5,-3.4 2.9,-3.1 3.1,-2.9 3.4,-2.5 3.7,-2.2 3.8,-1.8 4,-1.4 4.2,-1.1 4.2,-0.6 4.2,-0.2 h 86.6 z"
         id="path6291" />
    </g>
    <g
       id="path2076"
       style="fill:#000000;fill-opacity:1">
      <path
         style="color:#000000;fill:#000000;fill-opacity:1;fill-rule:evenodd;stroke:none;-inkscape-stroke:none"
         d="m 33629.4,32431.7 4.2,0.6 4.2,1.1 4,1.4 3.8,1.8 3.7,2.2 3.4,2.5 3.1,2.9 2.9,3.1 2.5,3.4 2.2,3.7 1.8,3.8 1.4,4 1.1,4.2 0.6,4.2 0.2,4.2 v 86.6 l -0.2,4.3 -0.6,4.2 -1.1,4.1 -1.4,4 -1.8,3.8 -2.2,3.7 -2.5,3.4 -2.9,3.1 -3.1,2.9 -3.4,2.5 -3.7,2.2 -3.8,1.8 -4,1.5 -4.2,1 -4.2,0.6 -4.2,0.2 h -86.6 l -4.3,-0.2 -4.2,-0.6 -4.1,-1 -4,-1.5 -3.8,-1.8 -3.7,-2.2 -3.4,-2.5 -3.1,-2.9 -2.9,-3.1 -2.5,-3.4 -2.2,-3.7 -1.8,-3.8 -1.5,-4 -1,-4.1 -0.6,-4.2 -0.2,-4.3 v -86.6 l 0.2,-4.2 0.6,-4.2 1,-4.2 1.5,-4 1.8,-3.8 2.2,-3.7 2.5,-3.4 2.9,-3.1 3.1,-2.9 3.4,-2.5 3.7,-2.2 3.8,-1.8 4,-1.4 4.1,-1.1 4.2,-0.6 4.3,-0.2 h 86.6 z"
         id="path6297" />
      <path
         style="color:#000000;fill:#000000;fill-opacity:1;fill-rule:evenodd;stroke:none;-inkscape-stroke:none"
         d="m 33629.4,32431.7 4.2,0.6 4.2,1.1 4,1.4 3.8,1.8 3.7,2.2 3.4,2.5 3.1,2.9 2.9,3.1 2.5,3.4 2.2,3.7 1.8,3.8 1.4,4 1.1,4.2 0.6,4.2 0.2,4.2 v 86.6 l -0.2,4.3 -0.6,4.2 -1.1,4.1 -1.4,4 -1.8,3.8 -2.2,3.7 -2.5,3.4 -2.9,3.1 -3.1,2.9 -3.4,2.5 -3.7,2.2 -3.8,1.8 -4,1.5 -4.2,1 -4.2,0.6 -4.2,0.2 h -86.6 l -4.3,-0.2 -4.2,-0.6 -4.1,-1 -4,-1.5 -3.8,-1.8 -3.7,-2.2 -3.4,-2.5 -3.1,-2.9 -2.9,-3.1 -2.5,-3.4 -2.2,-3.7 -1.8,-3.8 -1.5,-4 -1,-4.1 -0.6,-4.2 -0.2,-4.3 v -86.6 l 0.2,-4.2 0.6,-4.2 1,-4.2 1.5,-4 1.8,-3.8 2.2,-3.7 2.5,-3.4 2.9,-3.1 3.1,-2.9 3.4,-2.5 3.7,-2.2 3.8,-1.8 4,-1.4 4.1,-1.1 4.2,-0.6 4.3,-0.2 h 86.6 z"
         id="path6299" />
    </g>
    <g
       id="path2078"
       style="fill:#000000;fill-opacity:1">
      <path
         style="color:#000000;fill:#000000;fill-opacity:1;fill-rule:evenodd;stroke:none;-inkscape-stroke:none"
         d="m 33284.1,32646.2 2.4,0.3 2.3,0.6 2.3,0.8 2.2,1.1 2.1,1.2 1.9,1.4 1.8,1.7 1.6,1.8 1.5,1.9 1.2,2.1 1,2.2 0.8,2.2 0.6,2.4 0.4,2.4 0.1,2.4 v 49.2 l -0.1,2.4 -0.4,2.4 -0.6,2.3 -0.8,2.3 -1,2.2 -1.2,2.1 -1.5,1.9 -1.6,1.8 -1.8,1.6 -1.9,1.4 -2.1,1.3 -2.2,1 -2.3,0.8 -2.3,0.6 -2.4,0.4 -2.4,0.1 h -295.3 l -2.4,-0.1 -2.4,-0.4 -2.3,-0.6 -2.3,-0.8 -2.2,-1 -2.1,-1.3 -1.9,-1.4 -1.8,-1.6 -1.6,-1.8 -1.4,-1.9 -1.3,-2.1 -1,-2.2 -0.8,-2.3 -0.6,-2.3 -0.4,-2.4 -0.1,-2.4 v -49.2 l 0.1,-2.4 0.4,-2.4 0.6,-2.4 0.8,-2.2 1,-2.2 1.3,-2.1 1.4,-1.9 1.6,-1.8 1.8,-1.7 1.9,-1.4 2.1,-1.2 2.2,-1.1 2.3,-0.8 2.3,-0.6 2.4,-0.3 2.4,-0.1 h 295.3 z"
         id="path6305" />
      <path
         style="color:#000000;fill:#000000;fill-opacity:1;fill-rule:evenodd;stroke:none;-inkscape-stroke:none"
         d="m 33284.1,32646.2 2.4,0.3 2.3,0.6 2.3,0.8 2.2,1.1 2.1,1.2 1.9,1.4 1.8,1.7 1.6,1.8 1.5,1.9 1.2,2.1 1,2.2 0.8,2.2 0.6,2.4 0.4,2.4 0.1,2.4 v 49.2 l -0.1,2.4 -0.4,2.4 -0.6,2.3 -0.8,2.3 -1,2.2 -1.2,2.1 -1.5,1.9 -1.6,1.8 -1.8,1.6 -1.9,1.4 -2.1,1.3 -2.2,1 -2.3,0.8 -2.3,0.6 -2.4,0.4 -2.4,0.1 h -295.3 l -2.4,-0.1 -2.4,-0.4 -2.3,-0.6 -2.3,-0.8 -2.2,-1 -2.1,-1.3 -1.9,-1.4 -1.8,-1.6 -1.6,-1.8 -1.4,-1.9 -1.3,-2.1 -1,-2.2 -0.8,-2.3 -0.6,-2.3 -0.4,-2.4 -0.1,-2.4 v -49.2 l 0.1,-2.4 0.4,-2.4 0.6,-2.4 0.8,-2.2 1,-2.2 1.3,-2.1 1.4,-1.9 1.6,-1.8 1.8,-1.7 1.9,-1.4 2.1,-1.2 2.2,-1.1 2.3,-0.8 2.3,-0.6 2.4,-0.3 2.4,-0.1 h 295.3 z"
         id="path6307" />
    </g>
    <g
       id="path2080"
       style="fill:#000000;fill-opacity:1">
      <path
         style="color:#000000;fill:#000000;fill-opacity:1;fill-rule:evenodd;stroke:none;-inkscape-stroke:none"
         d="m 33284.1,32449.3 2.4,0.4 2.3,0.6 2.3,0.8 2.2,1 2.1,1.3 1.9,1.4 1.8,1.6 1.6,1.8 1.5,1.9 1.2,2.1 1,2.2 0.8,2.3 0.6,2.3 0.4,2.4 0.1,2.4 v 49.2 l -0.1,2.4 -0.4,2.4 -0.6,2.4 -0.8,2.2 -1,2.2 -1.2,2.1 -1.5,1.9 -1.6,1.8 -1.8,1.7 -1.9,1.4 -2.1,1.2 -2.2,1.1 -2.3,0.8 -2.3,0.6 -2.4,0.3 -2.4,0.1 h -295.3 l -2.4,-0.1 -2.4,-0.3 -2.3,-0.6 -2.3,-0.8 -2.2,-1.1 -2.1,-1.2 -1.9,-1.4 -1.8,-1.7 -1.6,-1.8 -1.4,-1.9 -1.3,-2.1 -1,-2.2 -0.8,-2.2 -0.6,-2.4 -0.4,-2.4 -0.1,-2.4 v -49.2 l 0.1,-2.4 0.4,-2.4 0.6,-2.3 0.8,-2.3 1,-2.2 1.3,-2.1 1.4,-1.9 1.6,-1.8 1.8,-1.6 1.9,-1.4 2.1,-1.3 2.2,-1 2.3,-0.8 2.3,-0.6 2.4,-0.4 2.4,-0.1 h 295.3 z"
         id="path6313" />
      <path
         style="color:#000000;fill:#000000;fill-opacity:1;fill-rule:evenodd;stroke:none;-inkscape-stroke:none"
         d="m 33284.1,32449.3 2.4,0.4 2.3,0.6 2.3,0.8 2.2,1 2.1,1.3 1.9,1.4 1.8,1.6 1.6,1.8 1.5,1.9 1.2,2.1 1,2.2 0.8,2.3 0.6,2.3 0.4,2.4 0.1,2.4 v 49.2 l -0.1,2.4 -0.4,2.4 -0.6,2.4 -0.8,2.2 -1,2.2 -1.2,2.1 -1.5,1.9 -1.6,1.8 -1.8,1.7 -1.9,1.4 -2.1,1.2 -2.2,1.1 -2.3,0.8 -2.3,0.6 -2.4,0.3 -2.4,0.1 h -295.3 l -2.4,-0.1 -2.4,-0.3 -2.3,-0.6 -2.3,-0.8 -2.2,-1.1 -2.1,-1.2 -1.9,-1.4 -1.8,-1.7 -1.6,-1.8 -1.4,-1.9 -1.3,-2.1 -1,-2.2 -0.8,-2.2 -0.6,-2.4 -0.4,-2.4 -0.1,-2.4 v -49.2 l 0.1,-2.4 0.4,-2.4 0.6,-2.3 0.8,-2.3 1,-2.2 1.3,-2.1 1.4,-1.9 1.6,-1.8 1.8,-1.6 1.9,-1.4 2.1,-1.3 2.2,-1 2.3,-0.8 2.3,-0.6 2.4,-0.4 2.4,-0.1 h 295.3 z"
         id="path6315" />
    </g>
    <g
       id="path2082"
       style="fill:#000000;fill-opacity:1">
      <path
         style="color:#000000;fill:#000000;fill-opacity:1;fill-rule:evenodd;stroke:none;-inkscape-stroke:none"
         d="m 33284.1,32252.5 2.4,0.3 2.3,0.6 2.3,0.8 2.2,1.1 2.1,1.2 1.9,1.4 1.8,1.7 1.6,1.8 1.5,1.9 1.2,2.1 1,2.2 0.8,2.2 0.6,2.4 0.4,2.4 0.1,2.4 v 49.2 l -0.1,2.4 -0.4,2.4 -0.6,2.3 -0.8,2.3 -1,2.2 -1.2,2.1 -1.5,1.9 -1.6,1.8 -1.8,1.6 -1.9,1.4 -2.1,1.3 -2.2,1 -2.3,0.8 -2.3,0.6 -2.4,0.4 -2.4,0.1 h -295.3 l -2.4,-0.1 -2.4,-0.4 -2.3,-0.6 -2.3,-0.8 -2.2,-1 -2.1,-1.3 -1.9,-1.4 -1.8,-1.6 -1.6,-1.8 -1.4,-1.9 -1.3,-2.1 -1,-2.2 -0.8,-2.3 -0.6,-2.3 -0.4,-2.4 -0.1,-2.4 v -49.2 l 0.1,-2.4 0.4,-2.4 0.6,-2.4 0.8,-2.2 1,-2.2 1.3,-2.1 1.4,-1.9 1.6,-1.8 1.8,-1.7 1.9,-1.4 2.1,-1.2 2.2,-1.1 2.3,-0.8 2.3,-0.6 2.4,-0.3 2.4,-0.1 h 295.3 z"
         id="path6321" />
      <path
         style="color:#000000;fill:#000000;fill-opacity:1;fill-rule:evenodd;stroke:none;-inkscape-stroke:none"
         d="m 33284.1,32252.5 2.4,0.3 2.3,0.6 2.3,0.8 2.2,1.1 2.1,1.2 1.9,1.4 1.8,1.7 1.6,1.8 1.5,1.9 1.2,2.1 1,2.2 0.8,2.2 0.6,2.4 0.4,2.4 0.1,2.4 v 49.2 l -0.1,2.4 -0.4,2.4 -0.6,2.3 -0.8,2.3 -1,2.2 -1.2,2.1 -1.5,1.9 -1.6,1.8 -1.8,1.6 -1.9,1.4 -2.1,1.3 -2.2,1 -2.3,0.8 -2.3,0.6 -2.4,0.4 -2.4,0.1 h -295.3 l -2.4,-0.1 -2.4,-0.4 -2.3,-0.6 -2.3,-0.8 -2.2,-1 -2.1,-1.3 -1.9,-1.4 -1.8,-1.6 -1.6,-1.8 -1.4,-1.9 -1.3,-2.1 -1,-2.2 -0.8,-2.3 -0.6,-2.3 -0.4,-2.4 -0.1,-2.4 v -49.2 l 0.1,-2.4 0.4,-2.4 0.6,-2.4 0.8,-2.2 1,-2.2 1.3,-2.1 1.4,-1.9 1.6,-1.8 1.8,-1.7 1.9,-1.4 2.1,-1.2 2.2,-1.1 2.3,-0.8 2.3,-0.6 2.4,-0.3 2.4,-0.1 h 295.3 z"
         id="path6323" />
    </g>
    <g
       id="path2084"
       style="fill:#000000;fill-opacity:1">
      <path
         style="color:#000000;fill:#000000;fill-opacity:1;fill-rule:evenodd;stroke:none;-inkscape-stroke:none"
         d="m 33284.1,32055.6 2.4,0.4 2.3,0.6 2.3,0.8 2.2,1 2.1,1.3 1.9,1.4 1.8,1.6 1.6,1.8 1.5,1.9 1.2,2.1 1,2.2 0.8,2.3 0.6,2.3 0.4,2.4 0.1,2.4 v 49.2 l -0.1,2.4 -0.4,2.4 -0.6,2.4 -0.8,2.2 -1,2.2 -1.2,2.1 -1.5,1.9 -1.6,1.8 -1.8,1.7 -1.9,1.4 -2.1,1.2 -2.2,1.1 -2.3,0.8 -2.3,0.6 -2.4,0.3 -2.4,0.1 h -295.3 l -2.4,-0.1 -2.4,-0.3 -2.3,-0.6 -2.3,-0.8 -2.2,-1.1 -2.1,-1.2 -1.9,-1.4 -1.8,-1.7 -1.6,-1.8 -1.4,-1.9 -1.3,-2.1 -1,-2.2 -0.8,-2.2 -0.6,-2.4 -0.4,-2.4 -0.1,-2.4 v -49.2 l 0.1,-2.4 0.4,-2.4 0.6,-2.3 0.8,-2.3 1,-2.2 1.3,-2.1 1.4,-1.9 1.6,-1.8 1.8,-1.6 1.9,-1.4 2.1,-1.3 2.2,-1 2.3,-0.8 2.3,-0.6 2.4,-0.4 2.4,-0.1 h 295.3 z"
         id="path6329" />
      <path
         style="color:#000000;fill:#000000;fill-opacity:1;fill-rule:evenodd;stroke:none;-inkscape-stroke:none"
         d="m 33284.1,32055.6 2.4,0.4 2.3,0.6 2.3,0.8 2.2,1 2.1,1.3 1.9,1.4 1.8,1.6 1.6,1.8 1.5,1.9 1.2,2.1 1,2.2 0.8,2.3 0.6,2.3 0.4,2.4 0.1,2.4 v 49.2 l -0.1,2.4 -0.4,2.4 -0.6,2.4 -0.8,2.2 -1,2.2 -1.2,2.1 -1.5,1.9 -1.6,1.8 -1.8,1.7 -1.9,1.4 -2.1,1.2 -2.2,1.1 -2.3,0.8 -2.3,0.6 -2.4,0.3 -2.4,0.1 h -295.3 l -2.4,-0.1 -2.4,-0.3 -2.3,-0.6 -2.3,-0.8 -2.2,-1.1 -2.1,-1.2 -1.9,-1.4 -1.8,-1.7 -1.6,-1.8 -1.4,-1.9 -1.3,-2.1 -1,-2.2 -0.8,-2.2 -0.6,-2.4 -0.4,-2.4 -0.1,-2.4 v -49.2 l 0.1,-2.4 0.4,-2.4 0.6,-2.3 0.8,-2.3 1,-2.2 1.3,-2.1 1.4,-1.9 1.6,-1.8 1.8,-1.6 1.9,-1.4 2.1,-1.3 2.2,-1 2.3,-0.8 2.3,-0.6 2.4,-0.4 2.4,-0.1 h 295.3 z"
         id="path6331" />
    </g>
    <g
       id="path2086"
       style="fill:#000000;fill-opacity:1">
      <path
         style="color:#000000;fill:#000000;fill-opacity:1;fill-rule:evenodd;stroke:none;-inkscape-stroke:none"
         d="m 33431.7,31661.9 2.4,0.4 2.4,0.6 2.2,0.8 2.2,1 2.1,1.3 1.9,1.4 1.8,1.6 1.7,1.8 1.4,1.9 1.2,2.1 1.1,2.2 0.8,2.3 0.6,2.3 0.3,2.4 0.1,2.4 v 295.3 l -0.1,2.4 -0.3,2.4 -0.6,2.3 -0.8,2.3 -1.1,2.2 -1.2,2.1 -1.4,1.9 -1.7,1.8 -1.8,1.6 -1.9,1.5 -2.1,1.2 -2.2,1 -2.2,0.8 -2.4,0.6 -2.4,0.4 -2.4,0.1 h -49.2 l -2.4,-0.1 -2.4,-0.4 -2.3,-0.6 -2.3,-0.8 -2.2,-1 -2.1,-1.2 -1.9,-1.5 -1.8,-1.6 -1.6,-1.8 -1.4,-1.9 -1.3,-2.1 -1,-2.2 -0.8,-2.3 -0.6,-2.3 -0.4,-2.4 -0.1,-2.4 v -295.3 l 0.1,-2.4 0.4,-2.4 0.6,-2.3 0.8,-2.3 1,-2.2 1.3,-2.1 1.4,-1.9 1.6,-1.8 1.8,-1.6 1.9,-1.4 2.1,-1.3 2.2,-1 2.3,-0.8 2.3,-0.6 2.4,-0.4 2.4,-0.1 h 49.2 z"
         id="path6337" />
      <path
         style="color:#000000;fill:#000000;fill-opacity:1;fill-rule:evenodd;stroke:none;-inkscape-stroke:none"
         d="m 33431.7,31661.9 2.4,0.4 2.4,0.6 2.2,0.8 2.2,1 2.1,1.3 1.9,1.4 1.8,1.6 1.7,1.8 1.4,1.9 1.2,2.1 1.1,2.2 0.8,2.3 0.6,2.3 0.3,2.4 0.1,2.4 v 295.3 l -0.1,2.4 -0.3,2.4 -0.6,2.3 -0.8,2.3 -1.1,2.2 -1.2,2.1 -1.4,1.9 -1.7,1.8 -1.8,1.6 -1.9,1.5 -2.1,1.2 -2.2,1 -2.2,0.8 -2.4,0.6 -2.4,0.4 -2.4,0.1 h -49.2 l -2.4,-0.1 -2.4,-0.4 -2.3,-0.6 -2.3,-0.8 -2.2,-1 -2.1,-1.2 -1.9,-1.5 -1.8,-1.6 -1.6,-1.8 -1.4,-1.9 -1.3,-2.1 -1,-2.2 -0.8,-2.3 -0.6,-2.3 -0.4,-2.4 -0.1,-2.4 v -295.3 l 0.1,-2.4 0.4,-2.4 0.6,-2.3 0.8,-2.3 1,-2.2 1.3,-2.1 1.4,-1.9 1.6,-1.8 1.8,-1.6 1.9,-1.4 2.1,-1.3 2.2,-1 2.3,-0.8 2.3,-0.6 2.4,-0.4 2.4,-0.1 h 49.2 z"
         id="path6339" />
    </g>
    <g
       id="path2088"
       style="fill:#000000;fill-opacity:1">
      <path
         style="color:#000000;fill:#000000;fill-opacity:1;fill-rule:evenodd;stroke:none;-inkscape-stroke:none"
         d="m 33628.6,31661.9 2.4,0.4 2.3,0.6 2.3,0.8 2.2,1 2.1,1.3 1.9,1.4 1.8,1.6 1.6,1.8 1.4,1.9 1.3,2.1 1,2.2 0.8,2.3 0.6,2.3 0.4,2.4 0.1,2.4 v 295.3 l -0.1,2.4 -0.4,2.4 -0.6,2.3 -0.8,2.3 -1,2.2 -1.3,2.1 -1.4,1.9 -1.6,1.8 -1.8,1.6 -1.9,1.5 -2.1,1.2 -2.2,1 -2.3,0.8 -2.3,0.6 -2.4,0.4 -2.4,0.1 h -49.2 l -2.4,-0.1 -2.4,-0.4 -2.4,-0.6 -2.2,-0.8 -2.2,-1 -2.1,-1.2 -1.9,-1.5 -1.8,-1.6 -1.7,-1.8 -1.4,-1.9 -1.2,-2.1 -1.1,-2.2 -0.8,-2.3 -0.6,-2.3 -0.3,-2.4 -0.1,-2.4 v -295.3 l 0.1,-2.4 0.3,-2.4 0.6,-2.3 0.8,-2.3 1.1,-2.2 1.2,-2.1 1.4,-1.9 1.7,-1.8 1.8,-1.6 1.9,-1.4 2.1,-1.3 2.2,-1 2.2,-0.8 2.4,-0.6 2.4,-0.4 2.4,-0.1 h 49.2 z"
         id="path6345" />
      <path
         style="color:#000000;fill:#000000;fill-opacity:1;fill-rule:evenodd;stroke:none;-inkscape-stroke:none"
         d="m 33628.6,31661.9 2.4,0.4 2.3,0.6 2.3,0.8 2.2,1 2.1,1.3 1.9,1.4 1.8,1.6 1.6,1.8 1.4,1.9 1.3,2.1 1,2.2 0.8,2.3 0.6,2.3 0.4,2.4 0.1,2.4 v 295.3 l -0.1,2.4 -0.4,2.4 -0.6,2.3 -0.8,2.3 -1,2.2 -1.3,2.1 -1.4,1.9 -1.6,1.8 -1.8,1.6 -1.9,1.5 -2.1,1.2 -2.2,1 -2.3,0.8 -2.3,0.6 -2.4,0.4 -2.4,0.1 h -49.2 l -2.4,-0.1 -2.4,-0.4 -2.4,-0.6 -2.2,-0.8 -2.2,-1 -2.1,-1.2 -1.9,-1.5 -1.8,-1.6 -1.7,-1.8 -1.4,-1.9 -1.2,-2.1 -1.1,-2.2 -0.8,-2.3 -0.6,-2.3 -0.3,-2.4 -0.1,-2.4 v -295.3 l 0.1,-2.4 0.3,-2.4 0.6,-2.3 0.8,-2.3 1.1,-2.2 1.2,-2.1 1.4,-1.9 1.7,-1.8 1.8,-1.6 1.9,-1.4 2.1,-1.3 2.2,-1 2.2,-0.8 2.4,-0.6 2.4,-0.4 2.4,-0.1 h 49.2 z"
         id="path6347" />
    </g>
    <g
       id="path2090"
       style="fill:#000000;fill-opacity:1">
      <path
         style="color:#000000;fill:#000000;fill-opacity:1;fill-rule:evenodd;stroke:none;-inkscape-stroke:none"
         d="m 33825.4,31661.9 2.4,0.4 2.4,0.6 2.2,0.8 2.2,1 2.1,1.3 1.9,1.4 1.8,1.6 1.7,1.8 1.4,1.9 1.2,2.1 1.1,2.2 0.8,2.3 0.6,2.3 0.3,2.4 0.1,2.4 v 295.3 l -0.1,2.4 -0.3,2.4 -0.6,2.3 -0.8,2.3 -1.1,2.2 -1.2,2.1 -1.4,1.9 -1.7,1.8 -1.8,1.6 -1.9,1.5 -2.1,1.2 -2.2,1 -2.2,0.8 -2.4,0.6 -2.4,0.4 -2.4,0.1 h -49.2 l -2.4,-0.1 -2.4,-0.4 -2.3,-0.6 -2.3,-0.8 -2.2,-1 -2.1,-1.2 -1.9,-1.5 -1.8,-1.6 -1.6,-1.8 -1.4,-1.9 -1.3,-2.1 -1,-2.2 -0.8,-2.3 -0.6,-2.3 -0.4,-2.4 -0.1,-2.4 v -295.3 l 0.1,-2.4 0.4,-2.4 0.6,-2.3 0.8,-2.3 1,-2.2 1.3,-2.1 1.4,-1.9 1.6,-1.8 1.8,-1.6 1.9,-1.4 2.1,-1.3 2.2,-1 2.3,-0.8 2.3,-0.6 2.4,-0.4 2.4,-0.1 h 49.2 z"
         id="path6353" />
      <path
         style="color:#000000;fill:#000000;fill-opacity:1;fill-rule:evenodd;stroke:none;-inkscape-stroke:none"
         d="m 33825.4,31661.9 2.4,0.4 2.4,0.6 2.2,0.8 2.2,1 2.1,1.3 1.9,1.4 1.8,1.6 1.7,1.8 1.4,1.9 1.2,2.1 1.1,2.2 0.8,2.3 0.6,2.3 0.3,2.4 0.1,2.4 v 295.3 l -0.1,2.4 -0.3,2.4 -0.6,2.3 -0.8,2.3 -1.1,2.2 -1.2,2.1 -1.4,1.9 -1.7,1.8 -1.8,1.6 -1.9,1.5 -2.1,1.2 -2.2,1 -2.2,0.8 -2.4,0.6 -2.4,0.4 -2.4,0.1 h -49.2 l -2.4,-0.1 -2.4,-0.4 -2.3,-0.6 -2.3,-0.8 -2.2,-1 -2.1,-1.2 -1.9,-1.5 -1.8,-1.6 -1.6,-1.8 -1.4,-1.9 -1.3,-2.1 -1,-2.2 -0.8,-2.3 -0.6,-2.3 -0.4,-2.4 -0.1,-2.4 v -295.3 l 0.1,-2.4 0.4,-2.4 0.6,-2.3 0.8,-2.3 1,-2.2 1.3,-2.1 1.4,-1.9 1.6,-1.8 1.8,-1.6 1.9,-1.4 2.1,-1.3 2.2,-1 2.3,-0.8 2.3,-0.6 2.4,-0.4 2.4,-0.1 h 49.2 z"
         id="path6355" />
    </g>
    <g
       id="path2092"
       style="fill:#000000;fill-opacity:1">
      <path
         style="color:#000000;fill:#000000;fill-opacity:1;fill-rule:evenodd;stroke:none;-inkscape-stroke:none"
         d="m 34022.3,31661.9 2.4,0.4 2.3,0.6 2.3,0.8 2.2,1 2.1,1.3 1.9,1.4 1.8,1.6 1.6,1.8 1.4,1.9 1.3,2.1 1,2.2 0.8,2.3 0.6,2.3 0.4,2.4 0.1,2.4 v 295.3 l -0.1,2.4 -0.4,2.4 -0.6,2.3 -0.8,2.3 -1,2.2 -1.3,2.1 -1.4,1.9 -1.6,1.8 -1.8,1.6 -1.9,1.5 -2.1,1.2 -2.2,1 -2.3,0.8 -2.3,0.6 -2.4,0.4 -2.4,0.1 h -49.2 l -2.4,-0.1 -2.4,-0.4 -2.4,-0.6 -2.2,-0.8 -2.2,-1 -2.1,-1.2 -1.9,-1.5 -1.8,-1.6 -1.7,-1.8 -1.4,-1.9 -1.2,-2.1 -1.1,-2.2 -0.8,-2.3 -0.6,-2.3 -0.3,-2.4 -0.1,-2.4 v -295.3 l 0.1,-2.4 0.3,-2.4 0.6,-2.3 0.8,-2.3 1.1,-2.2 1.2,-2.1 1.4,-1.9 1.7,-1.8 1.8,-1.6 1.9,-1.4 2.1,-1.3 2.2,-1 2.2,-0.8 2.4,-0.6 2.4,-0.4 2.4,-0.1 h 49.2 z"
         id="path6361" />
      <path
         style="color:#000000;fill:#000000;fill-opacity:1;fill-rule:evenodd;stroke:none;-inkscape-stroke:none"
         d="m 34022.3,31661.9 2.4,0.4 2.3,0.6 2.3,0.8 2.2,1 2.1,1.3 1.9,1.4 1.8,1.6 1.6,1.8 1.4,1.9 1.3,2.1 1,2.2 0.8,2.3 0.6,2.3 0.4,2.4 0.1,2.4 v 295.3 l -0.1,2.4 -0.4,2.4 -0.6,2.3 -0.8,2.3 -1,2.2 -1.3,2.1 -1.4,1.9 -1.6,1.8 -1.8,1.6 -1.9,1.5 -2.1,1.2 -2.2,1 -2.3,0.8 -2.3,0.6 -2.4,0.4 -2.4,0.1 h -49.2 l -2.4,-0.1 -2.4,-0.4 -2.4,-0.6 -2.2,-0.8 -2.2,-1 -2.1,-1.2 -1.9,-1.5 -1.8,-1.6 -1.7,-1.8 -1.4,-1.9 -1.2,-2.1 -1.1,-2.2 -0.8,-2.3 -0.6,-2.3 -0.3,-2.4 -0.1,-2.4 v -295.3 l 0.1,-2.4 0.3,-2.4 0.6,-2.3 0.8,-2.3 1.1,-2.2 1.2,-2.1 1.4,-1.9 1.7,-1.8 1.8,-1.6 1.9,-1.4 2.1,-1.3 2.2,-1 2.2,-0.8 2.4,-0.6 2.4,-0.4 2.4,-0.1 h 49.2 z"
         id="path6363" />
    </g>
    <g
       id="path2094"
       style="fill:#000000;fill-opacity:1">
      <path
         style="color:#000000;fill:#000000;fill-opacity:1;fill-rule:evenodd;stroke:none;-inkscape-stroke:none"
         d="m 34416,32055.6 2.4,0.4 2.3,0.6 2.3,0.8 2.2,1 2.1,1.3 1.9,1.4 1.8,1.6 1.6,1.8 1.4,1.9 1.3,2.1 1,2.2 0.8,2.3 0.6,2.3 0.4,2.4 0.1,2.4 v 49.2 l -0.1,2.4 -0.4,2.4 -0.6,2.4 -0.8,2.2 -1,2.2 -1.3,2.1 -1.4,1.9 -1.6,1.8 -1.8,1.7 -1.9,1.4 -2.1,1.2 -2.2,1.1 -2.3,0.8 -2.3,0.6 -2.4,0.3 -2.4,0.1 h -295.3 l -2.4,-0.1 -2.4,-0.3 -2.3,-0.6 -2.3,-0.8 -2.2,-1.1 -2.1,-1.2 -1.9,-1.4 -1.8,-1.7 -1.6,-1.8 -1.5,-1.9 -1.2,-2.1 -1,-2.2 -0.8,-2.2 -0.6,-2.4 -0.4,-2.4 -0.1,-2.4 v -49.2 l 0.1,-2.4 0.4,-2.4 0.6,-2.3 0.8,-2.3 1,-2.2 1.2,-2.1 1.5,-1.9 1.6,-1.8 1.8,-1.6 1.9,-1.4 2.1,-1.3 2.2,-1 2.3,-0.8 2.3,-0.6 2.4,-0.4 2.4,-0.1 h 295.3 z"
         id="path6369" />
      <path
         style="color:#000000;fill:#000000;fill-opacity:1;fill-rule:evenodd;stroke:none;-inkscape-stroke:none"
         d="m 34416,32055.6 2.4,0.4 2.3,0.6 2.3,0.8 2.2,1 2.1,1.3 1.9,1.4 1.8,1.6 1.6,1.8 1.4,1.9 1.3,2.1 1,2.2 0.8,2.3 0.6,2.3 0.4,2.4 0.1,2.4 v 49.2 l -0.1,2.4 -0.4,2.4 -0.6,2.4 -0.8,2.2 -1,2.2 -1.3,2.1 -1.4,1.9 -1.6,1.8 -1.8,1.7 -1.9,1.4 -2.1,1.2 -2.2,1.1 -2.3,0.8 -2.3,0.6 -2.4,0.3 -2.4,0.1 h -295.3 l -2.4,-0.1 -2.4,-0.3 -2.3,-0.6 -2.3,-0.8 -2.2,-1.1 -2.1,-1.2 -1.9,-1.4 -1.8,-1.7 -1.6,-1.8 -1.5,-1.9 -1.2,-2.1 -1,-2.2 -0.8,-2.2 -0.6,-2.4 -0.4,-2.4 -0.1,-2.4 v -49.2 l 0.1,-2.4 0.4,-2.4 0.6,-2.3 0.8,-2.3 1,-2.2 1.2,-2.1 1.5,-1.9 1.6,-1.8 1.8,-1.6 1.9,-1.4 2.1,-1.3 2.2,-1 2.3,-0.8 2.3,-0.6 2.4,-0.4 2.4,-0.1 h 295.3 z"
         id="path6371" />
    </g>
    <g
       id="path2096"
       style="fill:#000000;fill-opacity:1">
      <path
         style="color:#000000;fill:#000000;fill-opacity:1;fill-rule:evenodd;stroke:none;-inkscape-stroke:none"
         d="m 34416,32252.5 2.4,0.3 2.3,0.6 2.3,0.8 2.2,1.1 2.1,1.2 1.9,1.4 1.8,1.7 1.6,1.8 1.4,1.9 1.3,2.1 1,2.2 0.8,2.2 0.6,2.4 0.4,2.4 0.1,2.4 v 49.2 l -0.1,2.4 -0.4,2.4 -0.6,2.3 -0.8,2.3 -1,2.2 -1.3,2.1 -1.4,1.9 -1.6,1.8 -1.8,1.6 -1.9,1.4 -2.1,1.3 -2.2,1 -2.3,0.8 -2.3,0.6 -2.4,0.4 -2.4,0.1 h -295.3 l -2.4,-0.1 -2.4,-0.4 -2.3,-0.6 -2.3,-0.8 -2.2,-1 -2.1,-1.3 -1.9,-1.4 -1.8,-1.6 -1.6,-1.8 -1.5,-1.9 -1.2,-2.1 -1,-2.2 -0.8,-2.3 -0.6,-2.3 -0.4,-2.4 -0.1,-2.4 v -49.2 l 0.1,-2.4 0.4,-2.4 0.6,-2.4 0.8,-2.2 1,-2.2 1.2,-2.1 1.5,-1.9 1.6,-1.8 1.8,-1.7 1.9,-1.4 2.1,-1.2 2.2,-1.1 2.3,-0.8 2.3,-0.6 2.4,-0.3 2.4,-0.1 h 295.3 z"
         id="path6377" />
      <path
         style="color:#000000;fill:#000000;fill-opacity:1;fill-rule:evenodd;stroke:none;-inkscape-stroke:none"
         d="m 34416,32252.5 2.4,0.3 2.3,0.6 2.3,0.8 2.2,1.1 2.1,1.2 1.9,1.4 1.8,1.7 1.6,1.8 1.4,1.9 1.3,2.1 1,2.2 0.8,2.2 0.6,2.4 0.4,2.4 0.1,2.4 v 49.2 l -0.1,2.4 -0.4,2.4 -0.6,2.3 -0.8,2.3 -1,2.2 -1.3,2.1 -1.4,1.9 -1.6,1.8 -1.8,1.6 -1.9,1.4 -2.1,1.3 -2.2,1 -2.3,0.8 -2.3,0.6 -2.4,0.4 -2.4,0.1 h -295.3 l -2.4,-0.1 -2.4,-0.4 -2.3,-0.6 -2.3,-0.8 -2.2,-1 -2.1,-1.3 -1.9,-1.4 -1.8,-1.6 -1.6,-1.8 -1.5,-1.9 -1.2,-2.1 -1,-2.2 -0.8,-2.3 -0.6,-2.3 -0.4,-2.4 -0.1,-2.4 v -49.2 l 0.1,-2.4 0.4,-2.4 0.6,-2.4 0.8,-2.2 1,-2.2 1.2,-2.1 1.5,-1.9 1.6,-1.8 1.8,-1.7 1.9,-1.4 2.1,-1.2 2.2,-1.1 2.3,-0.8 2.3,-0.6 2.4,-0.3 2.4,-0.1 h 295.3 z"
         id="path6379" />
    </g>
    <g
       id="path2098"
       style="fill:#000000;fill-opacity:1">
      <path
         style="color:#000000;fill:#000000;fill-opacity:1;fill-rule:evenodd;stroke:none;-inkscape-stroke:none"
         d="m 34416,32449.3 2.4,0.4 2.3,0.6 2.3,0.8 2.2,1 2.1,1.3 1.9,1.4 1.8,1.6 1.6,1.8 1.4,1.9 1.3,2.1 1,2.2 0.8,2.3 0.6,2.3 0.4,2.4 0.1,2.4 v 49.2 l -0.1,2.4 -0.4,2.4 -0.6,2.4 -0.8,2.2 -1,2.2 -1.3,2.1 -1.4,1.9 -1.6,1.8 -1.8,1.7 -1.9,1.4 -2.1,1.2 -2.2,1.1 -2.3,0.8 -2.3,0.6 -2.4,0.3 -2.4,0.1 h -295.3 l -2.4,-0.1 -2.4,-0.3 -2.3,-0.6 -2.3,-0.8 -2.2,-1.1 -2.1,-1.2 -1.9,-1.4 -1.8,-1.7 -1.6,-1.8 -1.5,-1.9 -1.2,-2.1 -1,-2.2 -0.8,-2.2 -0.6,-2.4 -0.4,-2.4 -0.1,-2.4 v -49.2 l 0.1,-2.4 0.4,-2.4 0.6,-2.3 0.8,-2.3 1,-2.2 1.2,-2.1 1.5,-1.9 1.6,-1.8 1.8,-1.6 1.9,-1.4 2.1,-1.3 2.2,-1 2.3,-0.8 2.3,-0.6 2.4,-0.4 2.4,-0.1 h 295.3 z"
         id="path6385" />
      <path
         style="color:#000000;fill:#000000;fill-opacity:1;fill-rule:evenodd;stroke:none;-inkscape-stroke:none"
         d="m 34416,32449.3 2.4,0.4 2.3,0.6 2.3,0.8 2.2,1 2.1,1.3 1.9,1.4 1.8,1.6 1.6,1.8 1.4,1.9 1.3,2.1 1,2.2 0.8,2.3 0.6,2.3 0.4,2.4 0.1,2.4 v 49.2 l -0.1,2.4 -0.4,2.4 -0.6,2.4 -0.8,2.2 -1,2.2 -1.3,2.1 -1.4,1.9 -1.6,1.8 -1.8,1.7 -1.9,1.4 -2.1,1.2 -2.2,1.1 -2.3,0.8 -2.3,0.6 -2.4,0.3 -2.4,0.1 h -295.3 l -2.4,-0.1 -2.4,-0.3 -2.3,-0.6 -2.3,-0.8 -2.2,-1.1 -2.1,-1.2 -1.9,-1.4 -1.8,-1.7 -1.6,-1.8 -1.5,-1.9 -1.2,-2.1 -1,-2.2 -0.8,-2.2 -0.6,-2.4 -0.4,-2.4 -0.1,-2.4 v -49.2 l 0.1,-2.4 0.4,-2.4 0.6,-2.3 0.8,-2.3 1,-2.2 1.2,-2.1 1.5,-1.9 1.6,-1.8 1.8,-1.6 1.9,-1.4 2.1,-1.3 2.2,-1 2.3,-0.8 2.3,-0.6 2.4,-0.4 2.4,-0.1 h 295.3 z"
         id="path6387" />
    </g>
    <g
       id="path2100"
       style="fill:#000000;fill-opacity:1">
      <path
         style="color:#000000;fill:#000000;fill-opacity:1;fill-rule:evenodd;stroke:none;-inkscape-stroke:none"
         d="m 34416,32646.2 2.4,0.3 2.3,0.6 2.3,0.8 2.2,1.1 2.1,1.2 1.9,1.4 1.8,1.7 1.6,1.8 1.4,1.9 1.3,2.1 1,2.2 0.8,2.2 0.6,2.4 0.4,2.4 0.1,2.4 v 49.2 l -0.1,2.4 -0.4,2.4 -0.6,2.3 -0.8,2.3 -1,2.2 -1.3,2.1 -1.4,1.9 -1.6,1.8 -1.8,1.6 -1.9,1.4 -2.1,1.3 -2.2,1 -2.3,0.8 -2.3,0.6 -2.4,0.4 -2.4,0.1 h -295.3 l -2.4,-0.1 -2.4,-0.4 -2.3,-0.6 -2.3,-0.8 -2.2,-1 -2.1,-1.3 -1.9,-1.4 -1.8,-1.6 -1.6,-1.8 -1.5,-1.9 -1.2,-2.1 -1,-2.2 -0.8,-2.3 -0.6,-2.3 -0.4,-2.4 -0.1,-2.4 v -49.2 l 0.1,-2.4 0.4,-2.4 0.6,-2.4 0.8,-2.2 1,-2.2 1.2,-2.1 1.5,-1.9 1.6,-1.8 1.8,-1.7 1.9,-1.4 2.1,-1.2 2.2,-1.1 2.3,-0.8 2.3,-0.6 2.4,-0.3 2.4,-0.1 h 295.3 z"
         id="path6393" />
      <path
         style="color:#000000;fill:#000000;fill-opacity:1;fill-rule:evenodd;stroke:none;-inkscape-stroke:none"
         d="m 34416,32646.2 2.4,0.3 2.3,0.6 2.3,0.8 2.2,1.1 2.1,1.2 1.9,1.4 1.8,1.7 1.6,1.8 1.4,1.9 1.3,2.1 1,2.2 0.8,2.2 0.6,2.4 0.4,2.4 0.1,2.4 v 49.2 l -0.1,2.4 -0.4,2.4 -0.6,2.3 -0.8,2.3 -1,2.2 -1.3,2.1 -1.4,1.9 -1.6,1.8 -1.8,1.6 -1.9,1.4 -2.1,1.3 -2.2,1 -2.3,0.8 -2.3,0.6 -2.4,0.4 -2.4,0.1 h -295.3 l -2.4,-0.1 -2.4,-0.4 -2.3,-0.6 -2.3,-0.8 -2.2,-1 -2.1,-1.3 -1.9,-1.4 -1.8,-1.6 -1.6,-1.8 -1.5,-1.9 -1.2,-2.1 -1,-2.2 -0.8,-2.3 -0.6,-2.3 -0.4,-2.4 -0.1,-2.4 v -49.2 l 0.1,-2.4 0.4,-2.4 0.6,-2.4 0.8,-2.2 1,-2.2 1.2,-2.1 1.5,-1.9 1.6,-1.8 1.8,-1.7 1.9,-1.4 2.1,-1.2 2.2,-1.1 2.3,-0.8 2.3,-0.6 2.4,-0.3 2.4,-0.1 h 295.3 z"
         id="path6395" />
    </g>
    <g
       id="path2102"
       style="fill:#000000;fill-opacity:1">
      <path
         style="color:#000000;fill:#000000;fill-opacity:1;fill-rule:evenodd;stroke:none;-inkscape-stroke:none"
         d="m 34022.3,32793.8 2.4,0.4 2.3,0.6 2.3,0.8 2.2,1 2.1,1.2 1.9,1.5 1.8,1.6 1.6,1.8 1.4,1.9 1.3,2.1 1,2.2 0.8,2.3 0.6,2.3 0.4,2.4 0.1,2.4 v 295.3 l -0.1,2.4 -0.4,2.4 -0.6,2.3 -0.8,2.3 -1,2.2 -1.3,2.1 -1.4,1.9 -1.6,1.8 -1.8,1.6 -1.9,1.4 -2.1,1.3 -2.2,1 -2.3,0.8 -2.3,0.6 -2.4,0.4 -2.4,0.1 h -49.2 l -2.4,-0.1 -2.4,-0.4 -2.4,-0.6 -2.2,-0.8 -2.2,-1 -2.1,-1.3 -1.9,-1.4 -1.8,-1.6 -1.7,-1.8 -1.4,-1.9 -1.2,-2.1 -1.1,-2.2 -0.8,-2.3 -0.6,-2.3 -0.3,-2.4 -0.1,-2.4 v -295.3 l 0.1,-2.4 0.3,-2.4 0.6,-2.3 0.8,-2.3 1.1,-2.2 1.2,-2.1 1.4,-1.9 1.7,-1.8 1.8,-1.6 1.9,-1.5 2.1,-1.2 2.2,-1 2.2,-0.8 2.4,-0.6 2.4,-0.4 2.4,-0.1 h 49.2 z"
         id="path6401" />
      <path
         style="color:#000000;fill:#000000;fill-opacity:1;fill-rule:evenodd;stroke:none;-inkscape-stroke:none"
         d="m 34022.3,32793.8 2.4,0.4 2.3,0.6 2.3,0.8 2.2,1 2.1,1.2 1.9,1.5 1.8,1.6 1.6,1.8 1.4,1.9 1.3,2.1 1,2.2 0.8,2.3 0.6,2.3 0.4,2.4 0.1,2.4 v 295.3 l -0.1,2.4 -0.4,2.4 -0.6,2.3 -0.8,2.3 -1,2.2 -1.3,2.1 -1.4,1.9 -1.6,1.8 -1.8,1.6 -1.9,1.4 -2.1,1.3 -2.2,1 -2.3,0.8 -2.3,0.6 -2.4,0.4 -2.4,0.1 h -49.2 l -2.4,-0.1 -2.4,-0.4 -2.4,-0.6 -2.2,-0.8 -2.2,-1 -2.1,-1.3 -1.9,-1.4 -1.8,-1.6 -1.7,-1.8 -1.4,-1.9 -1.2,-2.1 -1.1,-2.2 -0.8,-2.3 -0.6,-2.3 -0.3,-2.4 -0.1,-2.4 v -295.3 l 0.1,-2.4 0.3,-2.4 0.6,-2.3 0.8,-2.3 1.1,-2.2 1.2,-2.1 1.4,-1.9 1.7,-1.8 1.8,-1.6 1.9,-1.5 2.1,-1.2 2.2,-1 2.2,-0.8 2.4,-0.6 2.4,-0.4 2.4,-0.1 h 49.2 z"
         id="path6403" />
    </g>
    <g
       id="path2104"
       style="fill:#000000;fill-opacity:1">
      <path
         style="color:#000000;fill:#000000;fill-opacity:1;fill-rule:evenodd;stroke:none;-inkscape-stroke:none"
         d="m 33825.4,32793.8 2.4,0.4 2.4,0.6 2.2,0.8 2.2,1 2.1,1.2 1.9,1.5 1.8,1.6 1.7,1.8 1.4,1.9 1.2,2.1 1.1,2.2 0.8,2.3 0.6,2.3 0.3,2.4 0.1,2.4 v 295.3 l -0.1,2.4 -0.3,2.4 -0.6,2.3 -0.8,2.3 -1.1,2.2 -1.2,2.1 -1.4,1.9 -1.7,1.8 -1.8,1.6 -1.9,1.4 -2.1,1.3 -2.2,1 -2.2,0.8 -2.4,0.6 -2.4,0.4 -2.4,0.1 h -49.2 l -2.4,-0.1 -2.4,-0.4 -2.3,-0.6 -2.3,-0.8 -2.2,-1 -2.1,-1.3 -1.9,-1.4 -1.8,-1.6 -1.6,-1.8 -1.4,-1.9 -1.3,-2.1 -1,-2.2 -0.8,-2.3 -0.6,-2.3 -0.4,-2.4 -0.1,-2.4 v -295.3 l 0.1,-2.4 0.4,-2.4 0.6,-2.3 0.8,-2.3 1,-2.2 1.3,-2.1 1.4,-1.9 1.6,-1.8 1.8,-1.6 1.9,-1.5 2.1,-1.2 2.2,-1 2.3,-0.8 2.3,-0.6 2.4,-0.4 2.4,-0.1 h 49.2 z"
         id="path6409" />
      <path
         style="color:#000000;fill:#000000;fill-opacity:1;fill-rule:evenodd;stroke:none;-inkscape-stroke:none"
         d="m 33825.4,32793.8 2.4,0.4 2.4,0.6 2.2,0.8 2.2,1 2.1,1.2 1.9,1.5 1.8,1.6 1.7,1.8 1.4,1.9 1.2,2.1 1.1,2.2 0.8,2.3 0.6,2.3 0.3,2.4 0.1,2.4 v 295.3 l -0.1,2.4 -0.3,2.4 -0.6,2.3 -0.8,2.3 -1.1,2.2 -1.2,2.1 -1.4,1.9 -1.7,1.8 -1.8,1.6 -1.9,1.4 -2.1,1.3 -2.2,1 -2.2,0.8 -2.4,0.6 -2.4,0.4 -2.4,0.1 h -49.2 l -2.4,-0.1 -2.4,-0.4 -2.3,-0.6 -2.3,-0.8 -2.2,-1 -2.1,-1.3 -1.9,-1.4 -1.8,-1.6 -1.6,-1.8 -1.4,-1.9 -1.3,-2.1 -1,-2.2 -0.8,-2.3 -0.6,-2.3 -0.4,-2.4 -0.1,-2.4 v -295.3 l 0.1,-2.4 0.4,-2.4 0.6,-2.3 0.8,-2.3 1,-2.2 1.3,-2.1 1.4,-1.9 1.6,-1.8 1.8,-1.6 1.9,-1.5 2.1,-1.2 2.2,-1 2.3,-0.8 2.3,-0.6 2.4,-0.4 2.4,-0.1 h 49.2 z"
         id="path6411" />
    </g>
    <g
       id="path2106"
       style="fill:#000000;fill-opacity:1">
      <path
         style="color:#000000;fill:#000000;fill-opacity:1;fill-rule:evenodd;stroke:none;-inkscape-stroke:none"
         d="m 33628.6,32793.8 2.4,0.4 2.3,0.6 2.3,0.8 2.2,1 2.1,1.2 1.9,1.5 1.8,1.6 1.6,1.8 1.4,1.9 1.3,2.1 1,2.2 0.8,2.3 0.6,2.3 0.4,2.4 0.1,2.4 v 295.3 l -0.1,2.4 -0.4,2.4 -0.6,2.3 -0.8,2.3 -1,2.2 -1.3,2.1 -1.4,1.9 -1.6,1.8 -1.8,1.6 -1.9,1.4 -2.1,1.3 -2.2,1 -2.3,0.8 -2.3,0.6 -2.4,0.4 -2.4,0.1 h -49.2 l -2.4,-0.1 -2.4,-0.4 -2.4,-0.6 -2.2,-0.8 -2.2,-1 -2.1,-1.3 -1.9,-1.4 -1.8,-1.6 -1.7,-1.8 -1.4,-1.9 -1.2,-2.1 -1.1,-2.2 -0.8,-2.3 -0.6,-2.3 -0.3,-2.4 -0.1,-2.4 v -295.3 l 0.1,-2.4 0.3,-2.4 0.6,-2.3 0.8,-2.3 1.1,-2.2 1.2,-2.1 1.4,-1.9 1.7,-1.8 1.8,-1.6 1.9,-1.5 2.1,-1.2 2.2,-1 2.2,-0.8 2.4,-0.6 2.4,-0.4 2.4,-0.1 h 49.2 z"
         id="path6417" />
      <path
         style="color:#000000;fill:#000000;fill-opacity:1;fill-rule:evenodd;stroke:none;-inkscape-stroke:none"
         d="m 33628.6,32793.8 2.4,0.4 2.3,0.6 2.3,0.8 2.2,1 2.1,1.2 1.9,1.5 1.8,1.6 1.6,1.8 1.4,1.9 1.3,2.1 1,2.2 0.8,2.3 0.6,2.3 0.4,2.4 0.1,2.4 v 295.3 l -0.1,2.4 -0.4,2.4 -0.6,2.3 -0.8,2.3 -1,2.2 -1.3,2.1 -1.4,1.9 -1.6,1.8 -1.8,1.6 -1.9,1.4 -2.1,1.3 -2.2,1 -2.3,0.8 -2.3,0.6 -2.4,0.4 -2.4,0.1 h -49.2 l -2.4,-0.1 -2.4,-0.4 -2.4,-0.6 -2.2,-0.8 -2.2,-1 -2.1,-1.3 -1.9,-1.4 -1.8,-1.6 -1.7,-1.8 -1.4,-1.9 -1.2,-2.1 -1.1,-2.2 -0.8,-2.3 -0.6,-2.3 -0.3,-2.4 -0.1,-2.4 v -295.3 l 0.1,-2.4 0.3,-2.4 0.6,-2.3 0.8,-2.3 1.1,-2.2 1.2,-2.1 1.4,-1.9 1.7,-1.8 1.8,-1.6 1.9,-1.5 2.1,-1.2 2.2,-1 2.2,-0.8 2.4,-0.6 2.4,-0.4 2.4,-0.1 h 49.2 z"
         id="path6419" />
    </g>
    <g
       id="path2108"
       style="fill:#000000;fill-opacity:1">
      <path
         style="color:#000000;fill:#000000;fill-opacity:1;fill-rule:evenodd;stroke:none;-inkscape-stroke:none"
         d="m 33431.7,32793.8 2.4,0.4 2.4,0.6 2.2,0.8 2.2,1 2.1,1.2 1.9,1.5 1.8,1.6 1.7,1.8 1.4,1.9 1.2,2.1 1.1,2.2 0.8,2.3 0.6,2.3 0.3,2.4 0.1,2.4 v 295.3 l -0.1,2.4 -0.3,2.4 -0.6,2.3 -0.8,2.3 -1.1,2.2 -1.2,2.1 -1.4,1.9 -1.7,1.8 -1.8,1.6 -1.9,1.4 -2.1,1.3 -2.2,1 -2.2,0.8 -2.4,0.6 -2.4,0.4 -2.4,0.1 h -49.2 l -2.4,-0.1 -2.4,-0.4 -2.3,-0.6 -2.3,-0.8 -2.2,-1 -2.1,-1.3 -1.9,-1.4 -1.8,-1.6 -1.6,-1.8 -1.4,-1.9 -1.3,-2.1 -1,-2.2 -0.8,-2.3 -0.6,-2.3 -0.4,-2.4 -0.1,-2.4 v -295.3 l 0.1,-2.4 0.4,-2.4 0.6,-2.3 0.8,-2.3 1,-2.2 1.3,-2.1 1.4,-1.9 1.6,-1.8 1.8,-1.6 1.9,-1.5 2.1,-1.2 2.2,-1 2.3,-0.8 2.3,-0.6 2.4,-0.4 2.4,-0.1 h 49.2 z"
         id="path6425" />
      <path
         style="color:#000000;fill:#000000;fill-opacity:1;fill-rule:evenodd;stroke:none;-inkscape-stroke:none"
         d="m 33431.7,32793.8 2.4,0.4 2.4,0.6 2.2,0.8 2.2,1 2.1,1.2 1.9,1.5 1.8,1.6 1.7,1.8 1.4,1.9 1.2,2.1 1.1,2.2 0.8,2.3 0.6,2.3 0.3,2.4 0.1,2.4 v 295.3 l -0.1,2.4 -0.3,2.4 -0.6,2.3 -0.8,2.3 -1.1,2.2 -1.2,2.1 -1.4,1.9 -1.7,1.8 -1.8,1.6 -1.9,1.4 -2.1,1.3 -2.2,1 -2.2,0.8 -2.4,0.6 -2.4,0.4 -2.4,0.1 h -49.2 l -2.4,-0.1 -2.4,-0.4 -2.3,-0.6 -2.3,-0.8 -2.2,-1 -2.1,-1.3 -1.9,-1.4 -1.8,-1.6 -1.6,-1.8 -1.4,-1.9 -1.3,-2.1 -1,-2.2 -0.8,-2.3 -0.6,-2.3 -0.4,-2.4 -0.1,-2.4 v -295.3 l 0.1,-2.4 0.4,-2.4 0.6,-2.3 0.8,-2.3 1,-2.2 1.3,-2.1 1.4,-1.9 1.6,-1.8 1.8,-1.6 1.9,-1.5 2.1,-1.2 2.2,-1 2.3,-0.8 2.3,-0.6 2.4,-0.4 2.4,-0.1 h 49.2 z"
         id="path6427" />
    </g>
  </g>
  <g
     id="g2112"
     style="fill:#000000;fill-opacity:1;stroke:#000000;stroke-width:19.685;stroke-linecap:round;stroke-linejoin:round" />
  <g
     id="g2114"
     style="fill:#000000;fill-opacity:1;stroke:#000000;stroke-width:19.685;stroke-linecap:round;stroke-linejoin:round" />
  <g
     id="g2116"
     style="fill:#000000;fill-opacity:1;stroke:#000000;stroke-width:19.685;stroke-linecap:round;stroke-linejoin:round" />
  <g
     id="g2118"
     style="fill:#000000;fill-opacity:1;stroke:#000000;stroke-width:19.685;stroke-linecap:round;stroke-linejoin:round" />
  <g
     id="g2120"
     style="fill:#000000;fill-opacity:1;stroke:#000000;stroke-width:19.685;stroke-linecap:round;stroke-linejoin:round" />
  <g
     id="g2122"
     style="fill:#000000;fill-opacity:1;stroke:#000000;stroke-width:19.685;stroke-linecap:round;stroke-linejoin:round" />
  <g
     id="g2124"
     style="fill:#000000;fill-opacity:1;stroke:#000000;stroke-width:19.685;stroke-linecap:round;stroke-linejoin:round" />
  <g
     id="g2126"
     style="fill:#000000;fill-opacity:1;stroke:#000000;stroke-width:19.685;stroke-linecap:round;stroke-linejoin:round" />
  <g
     id="g2128"
     style="fill:#000000;fill-opacity:1;stroke:#000000;stroke-width:19.685;stroke-linecap:round;stroke-linejoin:round" />
  <g
     id="g2130"
     style="fill:#000000;fill-opacity:1;stroke:#000000;stroke-width:19.685;stroke-linecap:round;stroke-linejoin:round" />
  <g
     id="g2132"
     style="fill:#000000;fill-opacity:1;stroke:#000000;stroke-width:19.685;stroke-linecap:round;stroke-linejoin:round" />
  <g
     id="g2134"
     style="fill:#000000;fill-opacity:1;stroke:#000000;stroke-width:19.685;stroke-linecap:round;stroke-linejoin:round" />
  <g
     id="g2136"
     style="fill:#000000;fill-opacity:1;stroke:#000000;stroke-width:19.685;stroke-linecap:round;stroke-linejoin:round" />
  <g
     id="g2138"
     style="fill:#000000;fill-opacity:1;stroke:#000000;stroke-width:19.685;stroke-linecap:round;stroke-linejoin:round" />
  <g
     id="g2140"
     style="fill:#000000;fill-opacity:1;stroke:#000000;stroke-width:19.685;stroke-linecap:round;stroke-linejoin:round" />
  <g
     id="g2142"
     style="fill:#000000;fill-opacity:1;stroke:#000000;stroke-width:19.685;stroke-linecap:round;stroke-linejoin:round" />
  <g
     style="fill:#000000;fill-opacity:1;stroke:#000000;stroke-width:0;stroke-linecap:round;stroke-linejoin:round"
     id="g2152">
    <g
       id="path2144"
       style="fill:#000000;fill-opacity:1">
      <path
         style="color:#000000;fill:#000000;fill-opacity:1;fill-rule:evenodd;stroke:none;-inkscape-stroke:none"
         d="m 40133.9,42110.2 v 590.6 h -787.4 v -590.6 z"
         id="path6433" />
      <path
         style="color:#000000;fill:#000000;fill-opacity:1;fill-rule:evenodd;stroke:none;-inkscape-stroke:none"
         d="m 40133.9,42110.2 v 590.6 h -787.4 v -590.6 z"
         id="path6435" />
    </g>
    <g
       id="path2146"
       style="fill:#000000;fill-opacity:1">
      <path
         style="color:#000000;fill:#000000;fill-opacity:1;fill-rule:evenodd;stroke:none;-inkscape-stroke:none"
         d="m 40133.9,40299.2 v 590.6 h -787.4 v -590.6 z"
         id="path6441" />
      <path
         style="color:#000000;fill:#000000;fill-opacity:1;fill-rule:evenodd;stroke:none;-inkscape-stroke:none"
         d="m 40133.9,40299.2 v 590.6 h -787.4 v -590.6 z"
         id="path6443" />
    </g>
    <g
       id="path2148"
       style="fill:#000000;fill-opacity:1">
      <path
         style="color:#000000;fill:#000000;fill-opacity:1;fill-rule:evenodd;stroke:none;-inkscape-stroke:none"
         d="m 40133.9,41204.7 v 590.6 h -787.4 v -590.6 z"
         id="path6449" />
      <path
         style="color:#000000;fill:#000000;fill-opacity:1;fill-rule:evenodd;stroke:none;-inkscape-stroke:none"
         d="m 40133.9,41204.7 v 590.6 h -787.4 v -590.6 z"
         id="path6451" />
    </g>
    <g
       id="path2150"
       style="fill:#000000;fill-opacity:1">
      <path
         style="color:#000000;fill:#000000;fill-opacity:1;fill-rule:evenodd;stroke:none;-inkscape-stroke:none"
         d="m 37653.5,40752 v 1496 h -787.4 v -1496 z"
         id="path6457" />
      <path
         style="color:#000000;fill:#000000;fill-opacity:1;fill-rule:evenodd;stroke:none;-inkscape-stroke:none"
         d="m 37653.5,40752 v 1496 h -787.4 v -1496 z"
         id="path6459" />
    </g>
  </g>
  <g
     id="g2154"
     style="fill:#000000;fill-opacity:1;stroke:#000000;stroke-width:19.685;stroke-linecap:round;stroke-linejoin:round" />
  <g
     id="g2156"
     style="fill:#000000;fill-opacity:1;stroke:#000000;stroke-width:19.685;stroke-linecap:round;stroke-linejoin:round" />
  <g
     id="g2158"
     style="fill:#000000;fill-opacity:1;stroke:#000000;stroke-width:19.685;stroke-linecap:round;stroke-linejoin:round" />
  <g
     id="g2160"
     style="fill:#000000;fill-opacity:1;stroke:#000000;stroke-width:19.685;stroke-linecap:round;stroke-linejoin:round" />
  <g
     id="g2162"
     style="fill:#000000;fill-opacity:1;stroke:#000000;stroke-width:19.685;stroke-linecap:round;stroke-linejoin:round" />
  <g
     id="g2164"
     style="fill:#000000;fill-opacity:1;stroke:#000000;stroke-width:19.685;stroke-linecap:round;stroke-linejoin:round" />
  <g
     id="g2166"
     style="fill:#000000;fill-opacity:1;stroke:#000000;stroke-width:19.685;stroke-linecap:round;stroke-linejoin:round" />
  <g
     id="g2168"
     style="fill:#000000;fill-opacity:1;stroke:#000000;stroke-width:19.685;stroke-linecap:round;stroke-linejoin:round" />
  <g
     id="g2170"
     style="fill:#000000;fill-opacity:1;stroke:#000000;stroke-width:19.685;stroke-linecap:round;stroke-linejoin:round" />
  <g
     id="g2172"
     style="fill:#000000;fill-opacity:1;stroke:#000000;stroke-width:19.685;stroke-linecap:round;stroke-linejoin:round" />
  <g
     id="g2174"
     style="fill:#000000;fill-opacity:1;stroke:#000000;stroke-width:19.685;stroke-linecap:round;stroke-linejoin:round" />
  <g
     id="g2176"
     style="fill:#000000;fill-opacity:1;stroke:#000000;stroke-width:19.685;stroke-linecap:round;stroke-linejoin:round" />
  <g
     id="g2178"
     style="fill:#000000;fill-opacity:1;stroke:#000000;stroke-width:19.685;stroke-linecap:round;stroke-linejoin:round" />
  <g
     id="g2180"
     style="fill:#000000;fill-opacity:1;stroke:#000000;stroke-width:19.685;stroke-linecap:round;stroke-linejoin:round" />
  <g
     id="g2182"
     style="fill:#000000;fill-opacity:1;stroke:#000000;stroke-width:19.685;stroke-linecap:round;stroke-linejoin:round" />
  <g
     id="g2184"
     style="fill:#000000;fill-opacity:1;stroke:#000000;stroke-width:19.685;stroke-linecap:round;stroke-linejoin:round" />
  <g
     id="g2186"
     style="fill:#000000;fill-opacity:1;stroke:#000000;stroke-width:19.685;stroke-linecap:round;stroke-linejoin:round" />
  <g
     id="g2188"
     style="fill:#000000;fill-opacity:1;stroke:#000000;stroke-width:19.685;stroke-linecap:round;stroke-linejoin:round" />
  <g
     id="g2190"
     style="fill:#000000;fill-opacity:1;stroke:#000000;stroke-width:19.685;stroke-linecap:round;stroke-linejoin:round" />
  <g
     id="g2192"
     style="fill:#000000;fill-opacity:1;stroke:#000000;stroke-width:19.685;stroke-linecap:round;stroke-linejoin:round" />
  <g
     style="fill:#000000;fill-opacity:1;stroke:#000000;stroke-width:0;stroke-linecap:round;stroke-linejoin:round"
     id="g2200">
    <g
       id="path2194"
       style="fill:#000000;fill-opacity:1">
      <path
         style="color:#000000;fill:#000000;fill-opacity:1;fill-rule:evenodd;stroke:none;-inkscape-stroke:none"
         d="m 38242.5,47716.5 h 315 v 354.4 h -315 z"
         id="path6465" />
      <path
         style="color:#000000;fill:#000000;fill-opacity:1;fill-rule:evenodd;stroke:none;-inkscape-stroke:none"
         d="m 38242.5,47716.5 h 315 v 354.4 h -315 z"
         id="path6467" />
    </g>
    <g
       id="path2196"
       style="fill:#000000;fill-opacity:1">
      <path
         style="color:#000000;fill:#000000;fill-opacity:1;fill-rule:evenodd;stroke:none;-inkscape-stroke:none"
         d="m 37868.5,46929.1 h 315 v 354.4 h -315 z"
         id="path6473" />
      <path
         style="color:#000000;fill:#000000;fill-opacity:1;fill-rule:evenodd;stroke:none;-inkscape-stroke:none"
         d="m 37868.5,46929.1 h 315 v 354.4 h -315 z"
         id="path6475" />
    </g>
    <g
       id="path2198"
       style="fill:#000000;fill-opacity:1">
      <path
         style="color:#000000;fill:#000000;fill-opacity:1;fill-rule:evenodd;stroke:none;-inkscape-stroke:none"
         d="m 38616.5,46929.1 h 315 v 354.4 h -315 z"
         id="path6481" />
      <path
         style="color:#000000;fill:#000000;fill-opacity:1;fill-rule:evenodd;stroke:none;-inkscape-stroke:none"
         d="m 38616.5,46929.1 h 315 v 354.4 h -315 z"
         id="path6483" />
    </g>
  </g>
  <g
     id="g2202"
     style="fill:#000000;fill-opacity:1;stroke:#000000;stroke-width:19.685;stroke-linecap:round;stroke-linejoin:round" />
  <g
     id="g2204"
     style="fill:#000000;fill-opacity:1;stroke:#000000;stroke-width:19.685;stroke-linecap:round;stroke-linejoin:round" />
  <g
     id="g2206"
     style="fill:#000000;fill-opacity:1;stroke:#000000;stroke-width:19.685;stroke-linecap:round;stroke-linejoin:round" />
  <g
     id="g2208"
     style="fill:#000000;fill-opacity:1;stroke:#000000;stroke-width:19.685;stroke-linecap:round;stroke-linejoin:round" />
  <g
     id="g2210"
     style="fill:#000000;fill-opacity:1;stroke:#000000;stroke-width:19.685;stroke-linecap:round;stroke-linejoin:round" />
  <g
     id="g2212"
     style="fill:#000000;fill-opacity:1;stroke:#000000;stroke-width:19.685;stroke-linecap:round;stroke-linejoin:round" />
  <g
     id="g2214"
     style="fill:#000000;fill-opacity:1;stroke:#000000;stroke-width:19.685;stroke-linecap:round;stroke-linejoin:round" />
  <g
     id="g2216"
     style="fill:#000000;fill-opacity:1;stroke:#000000;stroke-width:19.685;stroke-linecap:round;stroke-linejoin:round" />
  <g
     id="g2218"
     style="fill:#000000;fill-opacity:1;stroke:#000000;stroke-width:19.685;stroke-linecap:round;stroke-linejoin:round" />
  <g
     id="g2220"
     style="fill:#000000;fill-opacity:1;stroke:#000000;stroke-width:19.685;stroke-linecap:round;stroke-linejoin:round" />
  <g
     id="g2222"
     style="fill:#000000;fill-opacity:1;stroke:#000000;stroke-width:19.685;stroke-linecap:round;stroke-linejoin:round" />
  <g
     id="g2224"
     style="fill:#000000;fill-opacity:1;stroke:#000000;stroke-width:19.685;stroke-linecap:round;stroke-linejoin:round" />
  <g
     id="g2226"
     style="fill:#000000;fill-opacity:1;stroke:#000000;stroke-width:19.685;stroke-linecap:round;stroke-linejoin:round" />
  <g
     id="g2228"
     style="fill:#000000;fill-opacity:1;stroke:#000000;stroke-width:19.685;stroke-linecap:round;stroke-linejoin:round" />
  <g
     id="g2230"
     style="fill:#000000;fill-opacity:1;stroke:#000000;stroke-width:19.685;stroke-linecap:round;stroke-linejoin:round" />
  <g
     id="g2232"
     style="fill:#000000;fill-opacity:1;stroke:#000000;stroke-width:19.685;stroke-linecap:round;stroke-linejoin:round" />
  <g
     id="g2234"
     style="fill:#000000;fill-opacity:1;stroke:#000000;stroke-width:19.685;stroke-linecap:round;stroke-linejoin:round" />
  <g
     id="g2236"
     style="fill:#000000;fill-opacity:1;stroke:#000000;stroke-width:19.685;stroke-linecap:round;stroke-linejoin:round" />
  <g
     id="g2238"
     style="fill:#000000;fill-opacity:1;stroke:#000000;stroke-width:19.685;stroke-linecap:round;stroke-linejoin:round" />
  <g
     id="g2240"
     style="fill:#000000;fill-opacity:1;stroke:#000000;stroke-width:19.685;stroke-linecap:round;stroke-linejoin:round" />
  <g
     id="g2242"
     style="fill:#000000;fill-opacity:1;stroke:#000000;stroke-width:19.685;stroke-linecap:round;stroke-linejoin:round" />
  <g
     id="g2244"
     style="fill:#000000;fill-opacity:1;stroke:#000000;stroke-width:19.685;stroke-linecap:round;stroke-linejoin:round" />
  <g
     id="g2246"
     style="fill:#000000;fill-opacity:1;stroke:#000000;stroke-width:19.685;stroke-linecap:round;stroke-linejoin:round" />
  <g
     id="g2248"
     style="fill:#000000;fill-opacity:1;stroke:#000000;stroke-width:19.685;stroke-linecap:round;stroke-linejoin:round" />
  <g
     id="g2250"
     style="fill:#000000;fill-opacity:1;stroke:#000000;stroke-width:19.685;stroke-linecap:round;stroke-linejoin:round" />
  <g
     id="g2252"
     style="fill:#000000;fill-opacity:1;stroke:#000000;stroke-width:19.685;stroke-linecap:round;stroke-linejoin:round" />
  <g
     id="g2254"
     style="fill:#000000;fill-opacity:1;stroke:#000000;stroke-width:19.685;stroke-linecap:round;stroke-linejoin:round" />
  <g
     style="fill:#000000;fill-opacity:1;stroke:#000000;stroke-width:0;stroke-linecap:round;stroke-linejoin:round"
     id="g2260">
    <g
       id="path2256"
       style="fill:#000000;fill-opacity:1">
      <path
         style="color:#000000;fill:#000000;fill-opacity:1;fill-rule:evenodd;stroke:none;-inkscape-stroke:none"
         d="m 36196.7,41677.6 9.5,1.5 9.4,2.3 9.1,3.3 8.7,4.1 8.3,5 7.7,5.7 7.2,6.5 6.5,7.2 5.7,7.7 5,8.3 4.1,8.7 3.3,9.1 2.3,9.4 1.5,9.5 0.4,9.7 v 265.7 l -0.4,9.7 -1.5,9.5 -2.3,9.4 -3.3,9.1 -4.1,8.7 -5,8.3 -5.7,7.8 -6.5,7.1 -7.2,6.5 -7.7,5.8 -8.3,4.9 -8.7,4.2 -9.1,3.2 -9.4,2.4 -9.5,1.4 -9.7,0.5 h -374 l -9.7,-0.5 -9.5,-1.4 -9.4,-2.4 -9.1,-3.2 -8.7,-4.2 -8.3,-4.9 -7.7,-5.8 -7.2,-6.5 -6.5,-7.1 -5.7,-7.8 -5,-8.3 -4.1,-8.7 -3.3,-9.1 -2.3,-9.4 -1.5,-9.5 -0.4,-9.7 v -265.7 l 0.4,-9.7 1.5,-9.5 2.3,-9.4 3.3,-9.1 4.1,-8.7 5,-8.3 5.7,-7.7 6.5,-7.2 7.2,-6.5 7.7,-5.7 8.3,-5 8.7,-4.1 9.1,-3.3 9.4,-2.3 9.5,-1.5 9.7,-0.4 h 374 z"
         id="path6489" />
      <path
         style="color:#000000;fill:#000000;fill-opacity:1;fill-rule:evenodd;stroke:none;-inkscape-stroke:none"
         d="m 36196.7,41677.6 9.5,1.5 9.4,2.3 9.1,3.3 8.7,4.1 8.3,5 7.7,5.7 7.2,6.5 6.5,7.2 5.7,7.7 5,8.3 4.1,8.7 3.3,9.1 2.3,9.4 1.5,9.5 0.4,9.7 v 265.7 l -0.4,9.7 -1.5,9.5 -2.3,9.4 -3.3,9.1 -4.1,8.7 -5,8.3 -5.7,7.8 -6.5,7.1 -7.2,6.5 -7.7,5.8 -8.3,4.9 -8.7,4.2 -9.1,3.2 -9.4,2.4 -9.5,1.4 -9.7,0.5 h -374 l -9.7,-0.5 -9.5,-1.4 -9.4,-2.4 -9.1,-3.2 -8.7,-4.2 -8.3,-4.9 -7.7,-5.8 -7.2,-6.5 -6.5,-7.1 -5.7,-7.8 -5,-8.3 -4.1,-8.7 -3.3,-9.1 -2.3,-9.4 -1.5,-9.5 -0.4,-9.7 v -265.7 l 0.4,-9.7 1.5,-9.5 2.3,-9.4 3.3,-9.1 4.1,-8.7 5,-8.3 5.7,-7.7 6.5,-7.2 7.2,-6.5 7.7,-5.7 8.3,-5 8.7,-4.1 9.1,-3.3 9.4,-2.3 9.5,-1.5 9.7,-0.4 h 374 z"
         id="path6491" />
    </g>
    <g
       id="path2258"
       style="fill:#000000;fill-opacity:1">
      <path
         style="color:#000000;fill:#000000;fill-opacity:1;fill-rule:evenodd;stroke:none;-inkscape-stroke:none"
         d="m 36196.7,40860.7 9.5,1.4 9.4,2.4 9.1,3.2 8.7,4.2 8.3,4.9 7.7,5.8 7.2,6.5 6.5,7.1 5.7,7.8 5,8.3 4.1,8.7 3.3,9.1 2.3,9.4 1.5,9.5 0.4,9.7 v 265.7 l -0.4,9.7 -1.5,9.5 -2.3,9.4 -3.3,9.1 -4.1,8.7 -5,8.3 -5.7,7.7 -6.5,7.2 -7.2,6.5 -7.7,5.7 -8.3,5 -8.7,4.1 -9.1,3.3 -9.4,2.3 -9.5,1.5 -9.7,0.4 h -374 l -9.7,-0.4 -9.5,-1.5 -9.4,-2.3 -9.1,-3.3 -8.7,-4.1 -8.3,-5 -7.7,-5.7 -7.2,-6.5 -6.5,-7.2 -5.7,-7.7 -5,-8.3 -4.1,-8.7 -3.3,-9.1 -2.3,-9.4 -1.5,-9.5 -0.4,-9.7 v -265.7 l 0.4,-9.7 1.5,-9.5 2.3,-9.4 3.3,-9.1 4.1,-8.7 5,-8.3 5.7,-7.8 6.5,-7.1 7.2,-6.5 7.7,-5.8 8.3,-4.9 8.7,-4.2 9.1,-3.2 9.4,-2.4 9.5,-1.4 9.7,-0.5 h 374 z"
         id="path6497" />
      <path
         style="color:#000000;fill:#000000;fill-opacity:1;fill-rule:evenodd;stroke:none;-inkscape-stroke:none"
         d="m 36196.7,40860.7 9.5,1.4 9.4,2.4 9.1,3.2 8.7,4.2 8.3,4.9 7.7,5.8 7.2,6.5 6.5,7.1 5.7,7.8 5,8.3 4.1,8.7 3.3,9.1 2.3,9.4 1.5,9.5 0.4,9.7 v 265.7 l -0.4,9.7 -1.5,9.5 -2.3,9.4 -3.3,9.1 -4.1,8.7 -5,8.3 -5.7,7.7 -6.5,7.2 -7.2,6.5 -7.7,5.7 -8.3,5 -8.7,4.1 -9.1,3.3 -9.4,2.3 -9.5,1.5 -9.7,0.4 h -374 l -9.7,-0.4 -9.5,-1.5 -9.4,-2.3 -9.1,-3.3 -8.7,-4.1 -8.3,-5 -7.7,-5.7 -7.2,-6.5 -6.5,-7.2 -5.7,-7.7 -5,-8.3 -4.1,-8.7 -3.3,-9.1 -2.3,-9.4 -1.5,-9.5 -0.4,-9.7 v -265.7 l 0.4,-9.7 1.5,-9.5 2.3,-9.4 3.3,-9.1 4.1,-8.7 5,-8.3 5.7,-7.8 6.5,-7.1 7.2,-6.5 7.7,-5.8 8.3,-4.9 8.7,-4.2 9.1,-3.2 9.4,-2.4 9.5,-1.4 9.7,-0.5 h 374 z"
         id="path6499" />
    </g>
  </g>
  <g
     id="g2262"
     style="fill:#000000;fill-opacity:1;stroke:#000000;stroke-width:19.685;stroke-linecap:round;stroke-linejoin:round" />
  <g
     style="fill:#000000;fill-opacity:1;stroke:#000000;stroke-width:0;stroke-linecap:round;stroke-linejoin:round"
     id="g2268">
    <g
       id="path2264"
       style="fill:#000000;fill-opacity:1">
      <path
         style="color:#000000;fill:#000000;fill-opacity:1;fill-rule:evenodd;stroke:none;-inkscape-stroke:none"
         d="m 41542.7,41954.8 9.6,1.4 9.3,2.4 9.1,3.2 8.8,4.2 8.3,4.9 7.7,5.8 7.2,6.5 6.5,7.1 5.7,7.8 5,8.3 4.1,8.7 3.3,9.1 2.3,9.4 1.4,9.5 0.5,9.7 v 324.8 l -0.5,9.6 -1.4,9.6 -2.3,9.3 -3.3,9.1 -4.1,8.8 -5,8.2 -5.7,7.8 -6.5,7.2 -7.2,6.4 -7.7,5.8 -8.3,5 -8.8,4.1 -9.1,3.2 -9.3,2.4 -9.6,1.4 -9.6,0.5 h -866.2 l -9.6,-0.5 -9.6,-1.4 -9.3,-2.4 -9.1,-3.2 -8.8,-4.1 -8.3,-5 -7.7,-5.8 -7.2,-6.4 -6.5,-7.2 -5.7,-7.8 -5,-8.2 -4.1,-8.8 -3.3,-9.1 -2.3,-9.3 -1.4,-9.6 -0.5,-9.6 v -324.8 l 0.5,-9.7 1.4,-9.5 2.3,-9.4 3.3,-9.1 4.1,-8.7 5,-8.3 5.7,-7.8 6.5,-7.1 7.2,-6.5 7.7,-5.8 8.3,-4.9 8.8,-4.2 9.1,-3.2 9.3,-2.4 9.6,-1.4 9.6,-0.5 h 866.2 z"
         id="path6505" />
      <path
         style="color:#000000;fill:#000000;fill-opacity:1;fill-rule:evenodd;stroke:none;-inkscape-stroke:none"
         d="m 41542.7,41954.8 9.6,1.4 9.3,2.4 9.1,3.2 8.8,4.2 8.3,4.9 7.7,5.8 7.2,6.5 6.5,7.1 5.7,7.8 5,8.3 4.1,8.7 3.3,9.1 2.3,9.4 1.4,9.5 0.5,9.7 v 324.8 l -0.5,9.6 -1.4,9.6 -2.3,9.3 -3.3,9.1 -4.1,8.8 -5,8.2 -5.7,7.8 -6.5,7.2 -7.2,6.4 -7.7,5.8 -8.3,5 -8.8,4.1 -9.1,3.2 -9.3,2.4 -9.6,1.4 -9.6,0.5 h -866.2 l -9.6,-0.5 -9.6,-1.4 -9.3,-2.4 -9.1,-3.2 -8.8,-4.1 -8.3,-5 -7.7,-5.8 -7.2,-6.4 -6.5,-7.2 -5.7,-7.8 -5,-8.2 -4.1,-8.8 -3.3,-9.1 -2.3,-9.3 -1.4,-9.6 -0.5,-9.6 v -324.8 l 0.5,-9.7 1.4,-9.5 2.3,-9.4 3.3,-9.1 4.1,-8.7 5,-8.3 5.7,-7.8 6.5,-7.1 7.2,-6.5 7.7,-5.8 8.3,-4.9 8.8,-4.2 9.1,-3.2 9.3,-2.4 9.6,-1.4 9.6,-0.5 h 866.2 z"
         id="path6507" />
    </g>
    <g
       id="path2266"
       style="fill:#000000;fill-opacity:1">
      <path
         style="color:#000000;fill:#000000;fill-opacity:1;fill-rule:evenodd;stroke:none;-inkscape-stroke:none"
         d="m 41542.7,40724.5 9.6,1.4 9.3,2.4 9.1,3.2 8.8,4.1 8.3,5 7.7,5.8 7.2,6.4 6.5,7.2 5.7,7.8 5,8.2 4.1,8.8 3.3,9.1 2.3,9.3 1.4,9.6 0.5,9.6 v 324.8 l -0.5,9.7 -1.4,9.5 -2.3,9.4 -3.3,9.1 -4.1,8.7 -5,8.3 -5.7,7.8 -6.5,7.1 -7.2,6.5 -7.7,5.8 -8.3,4.9 -8.8,4.2 -9.1,3.2 -9.3,2.4 -9.6,1.4 -9.6,0.5 h -866.2 l -9.6,-0.5 -9.6,-1.4 -9.3,-2.4 -9.1,-3.2 -8.8,-4.2 -8.3,-4.9 -7.7,-5.8 -7.2,-6.5 -6.5,-7.1 -5.7,-7.8 -5,-8.3 -4.1,-8.7 -3.3,-9.1 -2.3,-9.4 -1.4,-9.5 -0.5,-9.7 v -324.8 l 0.5,-9.6 1.4,-9.6 2.3,-9.3 3.3,-9.1 4.1,-8.8 5,-8.2 5.7,-7.8 6.5,-7.2 7.2,-6.4 7.7,-5.8 8.3,-5 8.8,-4.1 9.1,-3.2 9.3,-2.4 9.6,-1.4 9.6,-0.5 h 866.2 z"
         id="path6513" />
      <path
         style="color:#000000;fill:#000000;fill-opacity:1;fill-rule:evenodd;stroke:none;-inkscape-stroke:none"
         d="m 41542.7,40724.5 9.6,1.4 9.3,2.4 9.1,3.2 8.8,4.1 8.3,5 7.7,5.8 7.2,6.4 6.5,7.2 5.7,7.8 5,8.2 4.1,8.8 3.3,9.1 2.3,9.3 1.4,9.6 0.5,9.6 v 324.8 l -0.5,9.7 -1.4,9.5 -2.3,9.4 -3.3,9.1 -4.1,8.7 -5,8.3 -5.7,7.8 -6.5,7.1 -7.2,6.5 -7.7,5.8 -8.3,4.9 -8.8,4.2 -9.1,3.2 -9.3,2.4 -9.6,1.4 -9.6,0.5 h -866.2 l -9.6,-0.5 -9.6,-1.4 -9.3,-2.4 -9.1,-3.2 -8.8,-4.2 -8.3,-4.9 -7.7,-5.8 -7.2,-6.5 -6.5,-7.1 -5.7,-7.8 -5,-8.3 -4.1,-8.7 -3.3,-9.1 -2.3,-9.4 -1.4,-9.5 -0.5,-9.7 v -324.8 l 0.5,-9.6 1.4,-9.6 2.3,-9.3 3.3,-9.1 4.1,-8.8 5,-8.2 5.7,-7.8 6.5,-7.2 7.2,-6.4 7.7,-5.8 8.3,-5 8.8,-4.1 9.1,-3.2 9.3,-2.4 9.6,-1.4 9.6,-0.5 h 866.2 z"
         id="path6515" />
    </g>
  </g>
  <g
     id="g2270"
     style="fill:#000000;fill-opacity:1;stroke:#000000;stroke-width:19.685;stroke-linecap:round;stroke-linejoin:round" />
  <g
     id="g2272"
     style="fill:#000000;fill-opacity:1;stroke:#000000;stroke-width:19.685;stroke-linecap:round;stroke-linejoin:round" />
  <g
     id="g2274"
     style="fill:#000000;fill-opacity:1;stroke:#000000;stroke-width:19.685;stroke-linecap:round;stroke-linejoin:round" />
  <g
     id="g2276"
     style="fill:#000000;fill-opacity:1;stroke:#000000;stroke-width:19.685;stroke-linecap:round;stroke-linejoin:round" />
  <g
     id="g2278"
     style="fill:#000000;fill-opacity:1;stroke:#000000;stroke-width:19.685;stroke-linecap:round;stroke-linejoin:round" />
  <g
     id="g2280"
     style="fill:#000000;fill-opacity:1;stroke:#000000;stroke-width:19.685;stroke-linecap:round;stroke-linejoin:round" />
  <g
     style="fill:#000000;fill-opacity:1;stroke:#000000;stroke-width:0;stroke-linecap:round;stroke-linejoin:round"
     id="g2286">
    <g
       id="path2282"
       style="fill:#000000;fill-opacity:1">
      <path
         style="color:#000000;fill:#000000;fill-opacity:1;fill-rule:evenodd;stroke:none;-inkscape-stroke:none"
         d="m 33796.7,33569.2 9.5,1.4 9.4,2.3 9.1,3.3 8.7,4.1 8.3,5 7.7,5.7 7.2,6.5 6.5,7.2 5.7,7.7 5,8.3 4.1,8.8 3.3,9.1 2.3,9.3 1.5,9.6 0.4,9.6 v 265.8 l -0.4,9.6 -1.5,9.6 -2.3,9.3 -3.3,9.1 -4.1,8.8 -5,8.3 -5.7,7.7 -6.5,7.2 -7.2,6.5 -7.7,5.7 -8.3,5 -8.7,4.1 -9.1,3.3 -9.4,2.3 -9.5,1.4 -9.7,0.5 h -374 l -9.7,-0.5 -9.5,-1.4 -9.4,-2.3 -9.1,-3.3 -8.7,-4.1 -8.3,-5 -7.7,-5.7 -7.2,-6.5 -6.5,-7.2 -5.7,-7.7 -5,-8.3 -4.1,-8.8 -3.3,-9.1 -2.3,-9.3 -1.5,-9.6 -0.4,-9.6 v -265.8 l 0.4,-9.6 1.5,-9.6 2.3,-9.3 3.3,-9.1 4.1,-8.8 5,-8.3 5.7,-7.7 6.5,-7.2 7.2,-6.5 7.7,-5.7 8.3,-5 8.7,-4.1 9.1,-3.3 9.4,-2.3 9.5,-1.4 9.7,-0.5 h 374 z"
         id="path6521" />
      <path
         style="color:#000000;fill:#000000;fill-opacity:1;fill-rule:evenodd;stroke:none;-inkscape-stroke:none"
         d="m 33796.7,33569.2 9.5,1.4 9.4,2.3 9.1,3.3 8.7,4.1 8.3,5 7.7,5.7 7.2,6.5 6.5,7.2 5.7,7.7 5,8.3 4.1,8.8 3.3,9.1 2.3,9.3 1.5,9.6 0.4,9.6 v 265.8 l -0.4,9.6 -1.5,9.6 -2.3,9.3 -3.3,9.1 -4.1,8.8 -5,8.3 -5.7,7.7 -6.5,7.2 -7.2,6.5 -7.7,5.7 -8.3,5 -8.7,4.1 -9.1,3.3 -9.4,2.3 -9.5,1.4 -9.7,0.5 h -374 l -9.7,-0.5 -9.5,-1.4 -9.4,-2.3 -9.1,-3.3 -8.7,-4.1 -8.3,-5 -7.7,-5.7 -7.2,-6.5 -6.5,-7.2 -5.7,-7.7 -5,-8.3 -4.1,-8.8 -3.3,-9.1 -2.3,-9.3 -1.5,-9.6 -0.4,-9.6 v -265.8 l 0.4,-9.6 1.5,-9.6 2.3,-9.3 3.3,-9.1 4.1,-8.8 5,-8.3 5.7,-7.7 6.5,-7.2 7.2,-6.5 7.7,-5.7 8.3,-5 8.7,-4.1 9.1,-3.3 9.4,-2.3 9.5,-1.4 9.7,-0.5 h 374 z"
         id="path6523" />
    </g>
    <g
       id="path2284"
       style="fill:#000000;fill-opacity:1">
      <path
         style="color:#000000;fill:#000000;fill-opacity:1;fill-rule:evenodd;stroke:none;-inkscape-stroke:none"
         d="m 33796.7,34386.1 9.5,1.4 9.4,2.4 9.1,3.2 8.7,4.2 8.3,4.9 7.7,5.8 7.2,6.5 6.5,7.1 5.7,7.8 5,8.3 4.1,8.7 3.3,9.1 2.3,9.4 1.5,9.5 0.4,9.7 v 265.7 l -0.4,9.7 -1.5,9.5 -2.3,9.4 -3.3,9.1 -4.1,8.7 -5,8.3 -5.7,7.7 -6.5,7.2 -7.2,6.5 -7.7,5.7 -8.3,5 -8.7,4.1 -9.1,3.3 -9.4,2.3 -9.5,1.5 -9.7,0.4 h -374 l -9.7,-0.4 -9.5,-1.5 -9.4,-2.3 -9.1,-3.3 -8.7,-4.1 -8.3,-5 -7.7,-5.7 -7.2,-6.5 -6.5,-7.2 -5.7,-7.7 -5,-8.3 -4.1,-8.7 -3.3,-9.1 -2.3,-9.4 -1.5,-9.5 -0.4,-9.7 v -265.7 l 0.4,-9.7 1.5,-9.5 2.3,-9.4 3.3,-9.1 4.1,-8.7 5,-8.3 5.7,-7.8 6.5,-7.1 7.2,-6.5 7.7,-5.8 8.3,-4.9 8.7,-4.2 9.1,-3.2 9.4,-2.4 9.5,-1.4 9.7,-0.5 h 374 z"
         id="path6529" />
      <path
         style="color:#000000;fill:#000000;fill-opacity:1;fill-rule:evenodd;stroke:none;-inkscape-stroke:none"
         d="m 33796.7,34386.1 9.5,1.4 9.4,2.4 9.1,3.2 8.7,4.2 8.3,4.9 7.7,5.8 7.2,6.5 6.5,7.1 5.7,7.8 5,8.3 4.1,8.7 3.3,9.1 2.3,9.4 1.5,9.5 0.4,9.7 v 265.7 l -0.4,9.7 -1.5,9.5 -2.3,9.4 -3.3,9.1 -4.1,8.7 -5,8.3 -5.7,7.7 -6.5,7.2 -7.2,6.5 -7.7,5.7 -8.3,5 -8.7,4.1 -9.1,3.3 -9.4,2.3 -9.5,1.5 -9.7,0.4 h -374 l -9.7,-0.4 -9.5,-1.5 -9.4,-2.3 -9.1,-3.3 -8.7,-4.1 -8.3,-5 -7.7,-5.7 -7.2,-6.5 -6.5,-7.2 -5.7,-7.7 -5,-8.3 -4.1,-8.7 -3.3,-9.1 -2.3,-9.4 -1.5,-9.5 -0.4,-9.7 v -265.7 l 0.4,-9.7 1.5,-9.5 2.3,-9.4 3.3,-9.1 4.1,-8.7 5,-8.3 5.7,-7.8 6.5,-7.1 7.2,-6.5 7.7,-5.8 8.3,-4.9 8.7,-4.2 9.1,-3.2 9.4,-2.4 9.5,-1.4 9.7,-0.5 h 374 z"
         id="path6531" />
    </g>
  </g>
  <g
     id="g2288"
     style="fill:#000000;fill-opacity:1;stroke:#000000;stroke-width:19.685;stroke-linecap:round;stroke-linejoin:round" />
  <g
     id="g2290"
     style="fill:#000000;fill-opacity:1;stroke:#000000;stroke-width:19.685;stroke-linecap:round;stroke-linejoin:round" />
  <g
     id="g2292"
     style="fill:#000000;fill-opacity:1;stroke:#000000;stroke-width:19.685;stroke-linecap:round;stroke-linejoin:round" />
</svg>
