M48
; DRILL file {KiCad 5.1.10} date Mon Dec 13 10:43:02 2021
; FORMAT={-:-/ absolute / inch / decimal}
; #@! TF.CreationDate,2021-12-13T10:43:02+01:00
; #@! TF.GenerationSoftware,Kicad,Pcbnew,5.1.10
FMAT,2
INCH
T1C0.0236
T2C0.0315
T3C0.0354
T4C0.0512
T5C0.0591
T6C0.1260
%
G90
G05
T1
X2.35Y-4.86
X2.68Y-4.6
X2.75Y-4.5542
X2.92Y-2.76
X2.92Y-3.15
X2.92Y-3.56
X2.92Y-3.74
X3.3Y-2.9
X3.46Y-3.79
X3.46Y-4.05
X3.625Y-3.91
X3.7Y-2.9
X3.8144Y-4.5826
X3.85Y-3.5
X3.98Y-3.97
X4.03Y-3.5
X4.125Y-3.97
X4.15Y-4.46
T2
X2.03Y-4.35
X2.03Y-4.65
X2.09Y-5.05
X2.15Y-4.35
X2.15Y-4.65
X2.39Y-5.05
X2.5Y-5.11
X2.5Y-5.41
X3.0Y-4.04
X3.3Y-4.04
X3.45Y-3.46
X3.45Y-4.68
X3.45Y-4.8729
X3.45Y-5.11
X3.45Y-5.41
X3.63Y-4.87
X3.63Y-4.9684
X3.64Y-4.5816
X3.64Y-4.68
X3.73Y-4.36
X3.75Y-3.46
X3.91Y-5.13
X3.91Y-5.43
X4.02Y-5.02
X4.02Y-5.15
X4.03Y-4.36
X4.2343Y-2.53
X4.2343Y-2.63
X4.2343Y-2.73
X4.2343Y-2.83
X4.25Y-3.21
X4.25Y-3.31
X4.25Y-3.41
X4.25Y-3.51
X4.32Y-5.02
X4.32Y-5.15
X4.3343Y-2.58
X4.3343Y-2.68
X4.3343Y-2.78
X4.3343Y-2.88
X4.35Y-3.26
X4.35Y-3.36
X4.35Y-3.46
X4.35Y-3.56
T3
X2.13Y-4.8
X2.13Y-4.9
X2.36Y-4.25
X2.36Y-4.35
X2.36Y-4.53
X2.36Y-4.63
X2.65Y-5.31
X2.75Y-5.31
X2.9Y-4.25
X2.92Y-5.31
X3.0Y-4.25
X3.02Y-5.31
X3.1Y-4.25
X3.19Y-5.31
X3.2Y-4.25
X3.29Y-5.31
X3.3Y-4.25
X3.59Y-5.29
X3.69Y-5.29
X3.79Y-5.29
X3.965Y-3.75
X3.965Y-3.85
X3.98Y-2.6
X3.98Y-2.7
X3.98Y-2.8
X4.08Y-2.6
X4.08Y-2.7
X4.08Y-2.8
X4.11Y-3.75
X4.11Y-3.85
X4.53Y-4.52
X4.53Y-4.62
X4.53Y-4.79
X4.53Y-4.89
T4
X2.17Y-2.7652
X2.17Y-3.14
X2.17Y-3.5652
X2.17Y-3.94
X3.32Y-2.18
X3.6948Y-2.18
T5
X4.52Y-3.92
X4.52Y-4.12
X4.52Y-4.32
T6
X2.2047Y-2.2047
X2.2047Y-5.2756
X4.4882Y-2.2047
X4.4882Y-5.2756
X4.5843Y-2.48
X4.5843Y-2.93
X4.6Y-3.16
X4.6Y-3.61
T0
M30
