<?xml version="1.0" encoding="UTF-8" standalone="no"?>
<svg
   version="1.1"
   width="29.700220cm"
   height="21.000720cm"
   viewBox="0 0 116930 82680"
   id="svg256"
   sodipodi:docname="battery_can_monitor-F_Paste.svg"
   inkscape:version="1.1 (c68e22c387, 2021-05-23)"
   xmlns:inkscape="http://www.inkscape.org/namespaces/inkscape"
   xmlns:sodipodi="http://sodipodi.sourceforge.net/DTD/sodipodi-0.dtd"
   xmlns="http://www.w3.org/2000/svg"
   xmlns:svg="http://www.w3.org/2000/svg"
   xmlns:rdf="http://www.w3.org/1999/02/22-rdf-syntax-ns#"
   xmlns:cc="http://creativecommons.org/ns#"
   xmlns:dc="http://purl.org/dc/elements/1.1/">
  <defs
     id="defs260" />
  <sodipodi:namedview
     id="namedview258"
     pagecolor="#ffffff"
     bordercolor="#666666"
     borderopacity="1.0"
     inkscape:pageshadow="2"
     inkscape:pageopacity="0.0"
     inkscape:pagecheckerboard="0"
     inkscape:document-units="cm"
     showgrid="false"
     inkscape:zoom="0.94868775"
     inkscape:cx="493.84004"
     inkscape:cy="396.86398"
     inkscape:window-width="1920"
     inkscape:window-height="1137"
     inkscape:window-x="-8"
     inkscape:window-y="-8"
     inkscape:window-maximized="1"
     inkscape:current-layer="svg256" />
  <title
     id="title2">SVG Picture created as battery_can_monitor-F_Paste.svg date 2021/12/21 16:41:34 </title>
  <desc
     id="desc4">Picture generated by PCBNEW </desc>
  <g
     style="fill:#000000; fill-opacity:1;stroke:#000000; stroke-opacity:1; stroke-linecap:round; stroke-linejoin:round;"
     transform="translate(0 0) scale(1 1)"
     id="g6" />
  <g
     style="fill:#000000; fill-opacity:0.0;  stroke:#000000; stroke-width:-0.000393701; stroke-opacity:1;  stroke-linecap:round; stroke-linejoin:round;"
     id="g8" />
  <path
     d="M 17322,57480 V 17322"
     id="path10"
     style="fill:none;fill-opacity:0;stroke:#ff0000;stroke-width:19.6850404;stroke-linecap:round;stroke-linejoin:round;stroke-opacity:1;stroke-miterlimit:4;stroke-dasharray:none" />
  <path
     d="M 49606,57480 H 17322"
     id="path12"
     style="fill:none;fill-opacity:0;stroke:#ff0000;stroke-width:19.6850404;stroke-linecap:round;stroke-linejoin:round;stroke-opacity:1;stroke-miterlimit:4;stroke-dasharray:none" />
  <path
     d="M 49606,17322 V 57480"
     id="path14"
     style="fill:none;fill-opacity:0;stroke:#ff0000;stroke-width:19.6850404;stroke-linecap:round;stroke-linejoin:round;stroke-opacity:1;stroke-miterlimit:4;stroke-dasharray:none" />
  <path
     d="M 17322,17322 H 49606"
     id="path16"
     style="fill:none;fill-opacity:0;stroke:#ff0000;stroke-width:19.6850404;stroke-linecap:round;stroke-linejoin:round;stroke-opacity:1;stroke-miterlimit:4;stroke-dasharray:none" />
  <path
     d="M 19685,55118 V 19685"
     id="path18"
     style="fill:none;fill-opacity:0;stroke:#00ffff;stroke-width:19.68750082;stroke-linecap:round;stroke-linejoin:round;stroke-opacity:1;stroke-miterlimit:4;stroke-dasharray:none" />
  <path
     d="M 47244,55118 H 19685"
     id="path20"
     style="fill:none;fill-opacity:0;stroke:#00ffff;stroke-width:19.68750082;stroke-linecap:round;stroke-linejoin:round;stroke-opacity:1;stroke-miterlimit:4;stroke-dasharray:none" />
  <path
     d="M 47244,19685 V 55118"
     id="path22"
     style="fill:none;fill-opacity:0;stroke:#00ffff;stroke-width:19.68750082;stroke-linecap:round;stroke-linejoin:round;stroke-opacity:1;stroke-miterlimit:4;stroke-dasharray:none" />
  <path
     d="M 19685,19685 H 47244"
     id="path24"
     style="fill:none;fill-opacity:0;stroke:#00ffff;stroke-width:19.68750082;stroke-linecap:round;stroke-linejoin:round;stroke-opacity:1;stroke-miterlimit:4;stroke-dasharray:none" />
  <g
     id="g26"
     style="fill:#000000;fill-opacity:0;stroke:#000000;stroke-width:19.685;stroke-linecap:round;stroke-linejoin:round;stroke-opacity:1" />
  <g
     style="fill:#000000;fill-opacity:0;stroke:#000000;stroke-width:0;stroke-linecap:round;stroke-linejoin:round;stroke-opacity:1"
     id="g28" />
  <g
     style="fill:#000000;stroke:#000000;stroke-width:0;stroke-linecap:round;stroke-linejoin:round"
     id="g70">
    <g
       id="path30">
      <path
         style="color:#000000;fill-rule:evenodd;stroke:none;-inkscape-stroke:none"
         d="m 33865.7,32195.5 4.2,0.6 4.1,1 4,1.5 3.8,1.8 3.7,2.2 3.4,2.5 3.1,2.9 2.9,3.1 2.5,3.4 2.2,3.7 1.8,3.8 1.5,4 1,4.1 0.6,4.2 0.2,4.3 v 86.6 l -0.2,4.2 -0.6,4.2 -1,4.2 -1.5,4 -1.8,3.8 -2.2,3.7 -2.5,3.4 -2.9,3.1 -3.1,2.9 -3.4,2.5 -3.7,2.2 -3.8,1.8 -4,1.4 -4.1,1.1 -4.2,0.6 -4.3,0.2 h -86.6 l -4.2,-0.2 -4.2,-0.6 -4.2,-1.1 -4,-1.4 -3.8,-1.8 -3.7,-2.2 -3.4,-2.5 -3.1,-2.9 -2.9,-3.1 -2.5,-3.4 -2.2,-3.7 -1.8,-3.8 -1.4,-4 -1.1,-4.2 -0.6,-4.2 -0.2,-4.2 v -86.6 l 0.2,-4.3 0.6,-4.2 1.1,-4.1 1.4,-4 1.8,-3.8 2.2,-3.7 2.5,-3.4 2.9,-3.1 3.1,-2.9 3.4,-2.5 3.7,-2.2 3.8,-1.8 4,-1.5 4.2,-1 4.2,-0.6 4.2,-0.2 h 86.6 z"
         id="path1329" />
      <path
         style="color:#000000;fill-rule:evenodd;stroke:none;-inkscape-stroke:none"
         d="m 33865.7,32195.5 4.2,0.6 4.1,1 4,1.5 3.8,1.8 3.7,2.2 3.4,2.5 3.1,2.9 2.9,3.1 2.5,3.4 2.2,3.7 1.8,3.8 1.5,4 1,4.1 0.6,4.2 0.2,4.3 v 86.6 l -0.2,4.2 -0.6,4.2 -1,4.2 -1.5,4 -1.8,3.8 -2.2,3.7 -2.5,3.4 -2.9,3.1 -3.1,2.9 -3.4,2.5 -3.7,2.2 -3.8,1.8 -4,1.4 -4.1,1.1 -4.2,0.6 -4.3,0.2 h -86.6 l -4.2,-0.2 -4.2,-0.6 -4.2,-1.1 -4,-1.4 -3.8,-1.8 -3.7,-2.2 -3.4,-2.5 -3.1,-2.9 -2.9,-3.1 -2.5,-3.4 -2.2,-3.7 -1.8,-3.8 -1.4,-4 -1.1,-4.2 -0.6,-4.2 -0.2,-4.2 v -86.6 l 0.2,-4.3 0.6,-4.2 1.1,-4.1 1.4,-4 1.8,-3.8 2.2,-3.7 2.5,-3.4 2.9,-3.1 3.1,-2.9 3.4,-2.5 3.7,-2.2 3.8,-1.8 4,-1.5 4.2,-1 4.2,-0.6 4.2,-0.2 h 86.6 z"
         id="path1331" />
    </g>
    <g
       id="path32">
      <path
         style="color:#000000;fill-rule:evenodd;stroke:none;-inkscape-stroke:none"
         d="m 33629.4,32195.5 4.2,0.6 4.2,1 4,1.5 3.8,1.8 3.7,2.2 3.4,2.5 3.1,2.9 2.9,3.1 2.5,3.4 2.2,3.7 1.8,3.8 1.4,4 1.1,4.1 0.6,4.2 0.2,4.3 v 86.6 l -0.2,4.2 -0.6,4.2 -1.1,4.2 -1.4,4 -1.8,3.8 -2.2,3.7 -2.5,3.4 -2.9,3.1 -3.1,2.9 -3.4,2.5 -3.7,2.2 -3.8,1.8 -4,1.4 -4.2,1.1 -4.2,0.6 -4.2,0.2 h -86.6 l -4.3,-0.2 -4.2,-0.6 -4.1,-1.1 -4,-1.4 -3.8,-1.8 -3.7,-2.2 -3.4,-2.5 -3.1,-2.9 -2.9,-3.1 -2.5,-3.4 -2.2,-3.7 -1.8,-3.8 -1.5,-4 -1,-4.2 -0.6,-4.2 -0.2,-4.2 v -86.6 l 0.2,-4.3 0.6,-4.2 1,-4.1 1.5,-4 1.8,-3.8 2.2,-3.7 2.5,-3.4 2.9,-3.1 3.1,-2.9 3.4,-2.5 3.7,-2.2 3.8,-1.8 4,-1.5 4.1,-1 4.2,-0.6 4.3,-0.2 h 86.6 z"
         id="path1337" />
      <path
         style="color:#000000;fill-rule:evenodd;stroke:none;-inkscape-stroke:none"
         d="m 33629.4,32195.5 4.2,0.6 4.2,1 4,1.5 3.8,1.8 3.7,2.2 3.4,2.5 3.1,2.9 2.9,3.1 2.5,3.4 2.2,3.7 1.8,3.8 1.4,4 1.1,4.1 0.6,4.2 0.2,4.3 v 86.6 l -0.2,4.2 -0.6,4.2 -1.1,4.2 -1.4,4 -1.8,3.8 -2.2,3.7 -2.5,3.4 -2.9,3.1 -3.1,2.9 -3.4,2.5 -3.7,2.2 -3.8,1.8 -4,1.4 -4.2,1.1 -4.2,0.6 -4.2,0.2 h -86.6 l -4.3,-0.2 -4.2,-0.6 -4.1,-1.1 -4,-1.4 -3.8,-1.8 -3.7,-2.2 -3.4,-2.5 -3.1,-2.9 -2.9,-3.1 -2.5,-3.4 -2.2,-3.7 -1.8,-3.8 -1.5,-4 -1,-4.2 -0.6,-4.2 -0.2,-4.2 v -86.6 l 0.2,-4.3 0.6,-4.2 1,-4.1 1.5,-4 1.8,-3.8 2.2,-3.7 2.5,-3.4 2.9,-3.1 3.1,-2.9 3.4,-2.5 3.7,-2.2 3.8,-1.8 4,-1.5 4.1,-1 4.2,-0.6 4.3,-0.2 h 86.6 z"
         id="path1339" />
    </g>
    <g
       id="path34">
      <path
         style="color:#000000;fill-rule:evenodd;stroke:none;-inkscape-stroke:none"
         d="m 33865.7,32431.7 4.2,0.6 4.1,1.1 4,1.4 3.8,1.8 3.7,2.2 3.4,2.5 3.1,2.9 2.9,3.1 2.5,3.4 2.2,3.7 1.8,3.8 1.5,4 1,4.2 0.6,4.2 0.2,4.2 v 86.6 l -0.2,4.3 -0.6,4.2 -1,4.1 -1.5,4 -1.8,3.8 -2.2,3.7 -2.5,3.4 -2.9,3.1 -3.1,2.9 -3.4,2.5 -3.7,2.2 -3.8,1.8 -4,1.5 -4.1,1 -4.2,0.6 -4.3,0.2 h -86.6 l -4.2,-0.2 -4.2,-0.6 -4.2,-1 -4,-1.5 -3.8,-1.8 -3.7,-2.2 -3.4,-2.5 -3.1,-2.9 -2.9,-3.1 -2.5,-3.4 -2.2,-3.7 -1.8,-3.8 -1.4,-4 -1.1,-4.1 -0.6,-4.2 -0.2,-4.3 v -86.6 l 0.2,-4.2 0.6,-4.2 1.1,-4.2 1.4,-4 1.8,-3.8 2.2,-3.7 2.5,-3.4 2.9,-3.1 3.1,-2.9 3.4,-2.5 3.7,-2.2 3.8,-1.8 4,-1.4 4.2,-1.1 4.2,-0.6 4.2,-0.2 h 86.6 z"
         id="path1345" />
      <path
         style="color:#000000;fill-rule:evenodd;stroke:none;-inkscape-stroke:none"
         d="m 33865.7,32431.7 4.2,0.6 4.1,1.1 4,1.4 3.8,1.8 3.7,2.2 3.4,2.5 3.1,2.9 2.9,3.1 2.5,3.4 2.2,3.7 1.8,3.8 1.5,4 1,4.2 0.6,4.2 0.2,4.2 v 86.6 l -0.2,4.3 -0.6,4.2 -1,4.1 -1.5,4 -1.8,3.8 -2.2,3.7 -2.5,3.4 -2.9,3.1 -3.1,2.9 -3.4,2.5 -3.7,2.2 -3.8,1.8 -4,1.5 -4.1,1 -4.2,0.6 -4.3,0.2 h -86.6 l -4.2,-0.2 -4.2,-0.6 -4.2,-1 -4,-1.5 -3.8,-1.8 -3.7,-2.2 -3.4,-2.5 -3.1,-2.9 -2.9,-3.1 -2.5,-3.4 -2.2,-3.7 -1.8,-3.8 -1.4,-4 -1.1,-4.1 -0.6,-4.2 -0.2,-4.3 v -86.6 l 0.2,-4.2 0.6,-4.2 1.1,-4.2 1.4,-4 1.8,-3.8 2.2,-3.7 2.5,-3.4 2.9,-3.1 3.1,-2.9 3.4,-2.5 3.7,-2.2 3.8,-1.8 4,-1.4 4.2,-1.1 4.2,-0.6 4.2,-0.2 h 86.6 z"
         id="path1347" />
    </g>
    <g
       id="path36">
      <path
         style="color:#000000;fill-rule:evenodd;stroke:none;-inkscape-stroke:none"
         d="m 33629.4,32431.7 4.2,0.6 4.2,1.1 4,1.4 3.8,1.8 3.7,2.2 3.4,2.5 3.1,2.9 2.9,3.1 2.5,3.4 2.2,3.7 1.8,3.8 1.4,4 1.1,4.2 0.6,4.2 0.2,4.2 v 86.6 l -0.2,4.3 -0.6,4.2 -1.1,4.1 -1.4,4 -1.8,3.8 -2.2,3.7 -2.5,3.4 -2.9,3.1 -3.1,2.9 -3.4,2.5 -3.7,2.2 -3.8,1.8 -4,1.5 -4.2,1 -4.2,0.6 -4.2,0.2 h -86.6 l -4.3,-0.2 -4.2,-0.6 -4.1,-1 -4,-1.5 -3.8,-1.8 -3.7,-2.2 -3.4,-2.5 -3.1,-2.9 -2.9,-3.1 -2.5,-3.4 -2.2,-3.7 -1.8,-3.8 -1.5,-4 -1,-4.1 -0.6,-4.2 -0.2,-4.3 v -86.6 l 0.2,-4.2 0.6,-4.2 1,-4.2 1.5,-4 1.8,-3.8 2.2,-3.7 2.5,-3.4 2.9,-3.1 3.1,-2.9 3.4,-2.5 3.7,-2.2 3.8,-1.8 4,-1.4 4.1,-1.1 4.2,-0.6 4.3,-0.2 h 86.6 z"
         id="path1353" />
      <path
         style="color:#000000;fill-rule:evenodd;stroke:none;-inkscape-stroke:none"
         d="m 33629.4,32431.7 4.2,0.6 4.2,1.1 4,1.4 3.8,1.8 3.7,2.2 3.4,2.5 3.1,2.9 2.9,3.1 2.5,3.4 2.2,3.7 1.8,3.8 1.4,4 1.1,4.2 0.6,4.2 0.2,4.2 v 86.6 l -0.2,4.3 -0.6,4.2 -1.1,4.1 -1.4,4 -1.8,3.8 -2.2,3.7 -2.5,3.4 -2.9,3.1 -3.1,2.9 -3.4,2.5 -3.7,2.2 -3.8,1.8 -4,1.5 -4.2,1 -4.2,0.6 -4.2,0.2 h -86.6 l -4.3,-0.2 -4.2,-0.6 -4.1,-1 -4,-1.5 -3.8,-1.8 -3.7,-2.2 -3.4,-2.5 -3.1,-2.9 -2.9,-3.1 -2.5,-3.4 -2.2,-3.7 -1.8,-3.8 -1.5,-4 -1,-4.1 -0.6,-4.2 -0.2,-4.3 v -86.6 l 0.2,-4.2 0.6,-4.2 1,-4.2 1.5,-4 1.8,-3.8 2.2,-3.7 2.5,-3.4 2.9,-3.1 3.1,-2.9 3.4,-2.5 3.7,-2.2 3.8,-1.8 4,-1.4 4.1,-1.1 4.2,-0.6 4.3,-0.2 h 86.6 z"
         id="path1355" />
    </g>
    <g
       id="path38">
      <path
         style="color:#000000;fill-rule:evenodd;stroke:none;-inkscape-stroke:none"
         d="m 33271.2,32648.2 3.7,0.6 3.6,0.9 3.5,1.2 3.3,1.6 3.2,1.9 3,2.2 2.7,2.5 2.5,2.7 2.2,3 2,3.2 1.5,3.4 1.3,3.5 0.9,3.6 0.5,3.6 0.2,3.7 v 18.9 l -0.2,3.7 -0.5,3.7 -0.9,3.6 -1.3,3.5 -1.5,3.3 -2,3.2 -2.2,3 -2.5,2.7 -2.7,2.5 -3,2.2 -3.2,2 -3.3,1.5 -3.5,1.3 -3.6,0.9 -3.7,0.5 -3.7,0.2 h -266.9 l -3.7,-0.2 -3.7,-0.5 -3.6,-0.9 -3.5,-1.3 -3.3,-1.5 -3.2,-2 -3,-2.2 -2.7,-2.5 -2.5,-2.7 -2.2,-3 -1.9,-3.2 -1.6,-3.3 -1.3,-3.5 -0.9,-3.6 -0.5,-3.7 -0.2,-3.7 v -18.9 l 0.2,-3.7 0.5,-3.6 0.9,-3.6 1.3,-3.5 1.6,-3.4 1.9,-3.2 2.2,-3 2.5,-2.7 2.7,-2.5 3,-2.2 3.2,-1.9 3.3,-1.6 3.5,-1.2 3.6,-0.9 3.7,-0.6 3.7,-0.2 h 266.9 z"
         id="path1361" />
      <path
         style="color:#000000;fill-rule:evenodd;stroke:none;-inkscape-stroke:none"
         d="m 33271.2,32648.2 3.7,0.6 3.6,0.9 3.5,1.2 3.3,1.6 3.2,1.9 3,2.2 2.7,2.5 2.5,2.7 2.2,3 2,3.2 1.5,3.4 1.3,3.5 0.9,3.6 0.5,3.6 0.2,3.7 v 18.9 l -0.2,3.7 -0.5,3.7 -0.9,3.6 -1.3,3.5 -1.5,3.3 -2,3.2 -2.2,3 -2.5,2.7 -2.7,2.5 -3,2.2 -3.2,2 -3.3,1.5 -3.5,1.3 -3.6,0.9 -3.7,0.5 -3.7,0.2 h -266.9 l -3.7,-0.2 -3.7,-0.5 -3.6,-0.9 -3.5,-1.3 -3.3,-1.5 -3.2,-2 -3,-2.2 -2.7,-2.5 -2.5,-2.7 -2.2,-3 -1.9,-3.2 -1.6,-3.3 -1.3,-3.5 -0.9,-3.6 -0.5,-3.7 -0.2,-3.7 v -18.9 l 0.2,-3.7 0.5,-3.6 0.9,-3.6 1.3,-3.5 1.6,-3.4 1.9,-3.2 2.2,-3 2.5,-2.7 2.7,-2.5 3,-2.2 3.2,-1.9 3.3,-1.6 3.5,-1.2 3.6,-0.9 3.7,-0.6 3.7,-0.2 h 266.9 z"
         id="path1363" />
    </g>
    <g
       id="path40">
      <path
         style="color:#000000;fill-rule:evenodd;stroke:none;-inkscape-stroke:none"
         d="m 33271.2,32451.4 3.7,0.5 3.6,0.9 3.5,1.3 3.3,1.5 3.2,2 3,2.2 2.7,2.5 2.5,2.7 2.2,3 2,3.2 1.5,3.3 1.3,3.5 0.9,3.6 0.5,3.7 0.2,3.7 v 18.9 l -0.2,3.7 -0.5,3.6 -0.9,3.6 -1.3,3.5 -1.5,3.4 -2,3.2 -2.2,3 -2.5,2.7 -2.7,2.5 -3,2.2 -3.2,1.9 -3.3,1.6 -3.5,1.2 -3.6,0.9 -3.7,0.6 -3.7,0.2 h -266.9 l -3.7,-0.2 -3.7,-0.6 -3.6,-0.9 -3.5,-1.2 -3.3,-1.6 -3.2,-1.9 -3,-2.2 -2.7,-2.5 -2.5,-2.7 -2.2,-3 -1.9,-3.2 -1.6,-3.4 -1.3,-3.5 -0.9,-3.6 -0.5,-3.6 -0.2,-3.7 v -18.9 l 0.2,-3.7 0.5,-3.7 0.9,-3.6 1.3,-3.5 1.6,-3.3 1.9,-3.2 2.2,-3 2.5,-2.7 2.7,-2.5 3,-2.2 3.2,-2 3.3,-1.5 3.5,-1.3 3.6,-0.9 3.7,-0.5 3.7,-0.2 h 266.9 z"
         id="path1369" />
      <path
         style="color:#000000;fill-rule:evenodd;stroke:none;-inkscape-stroke:none"
         d="m 33271.2,32451.4 3.7,0.5 3.6,0.9 3.5,1.3 3.3,1.5 3.2,2 3,2.2 2.7,2.5 2.5,2.7 2.2,3 2,3.2 1.5,3.3 1.3,3.5 0.9,3.6 0.5,3.7 0.2,3.7 v 18.9 l -0.2,3.7 -0.5,3.6 -0.9,3.6 -1.3,3.5 -1.5,3.4 -2,3.2 -2.2,3 -2.5,2.7 -2.7,2.5 -3,2.2 -3.2,1.9 -3.3,1.6 -3.5,1.2 -3.6,0.9 -3.7,0.6 -3.7,0.2 h -266.9 l -3.7,-0.2 -3.7,-0.6 -3.6,-0.9 -3.5,-1.2 -3.3,-1.6 -3.2,-1.9 -3,-2.2 -2.7,-2.5 -2.5,-2.7 -2.2,-3 -1.9,-3.2 -1.6,-3.4 -1.3,-3.5 -0.9,-3.6 -0.5,-3.6 -0.2,-3.7 v -18.9 l 0.2,-3.7 0.5,-3.7 0.9,-3.6 1.3,-3.5 1.6,-3.3 1.9,-3.2 2.2,-3 2.5,-2.7 2.7,-2.5 3,-2.2 3.2,-2 3.3,-1.5 3.5,-1.3 3.6,-0.9 3.7,-0.5 3.7,-0.2 h 266.9 z"
         id="path1371" />
    </g>
    <g
       id="path42">
      <path
         style="color:#000000;fill-rule:evenodd;stroke:none;-inkscape-stroke:none"
         d="m 33271.2,32254.5 3.7,0.6 3.6,0.9 3.5,1.2 3.3,1.6 3.2,1.9 3,2.2 2.7,2.5 2.5,2.7 2.2,3 2,3.2 1.5,3.4 1.3,3.5 0.9,3.6 0.5,3.6 0.2,3.7 v 18.9 l -0.2,3.7 -0.5,3.7 -0.9,3.6 -1.3,3.5 -1.5,3.3 -2,3.2 -2.2,3 -2.5,2.7 -2.7,2.5 -3,2.2 -3.2,2 -3.3,1.5 -3.5,1.3 -3.6,0.9 -3.7,0.5 -3.7,0.2 h -266.9 l -3.7,-0.2 -3.7,-0.5 -3.6,-0.9 -3.5,-1.3 -3.3,-1.5 -3.2,-2 -3,-2.2 -2.7,-2.5 -2.5,-2.7 -2.2,-3 -1.9,-3.2 -1.6,-3.3 -1.3,-3.5 -0.9,-3.6 -0.5,-3.7 -0.2,-3.7 v -18.9 l 0.2,-3.7 0.5,-3.6 0.9,-3.6 1.3,-3.5 1.6,-3.4 1.9,-3.2 2.2,-3 2.5,-2.7 2.7,-2.5 3,-2.2 3.2,-1.9 3.3,-1.6 3.5,-1.2 3.6,-0.9 3.7,-0.6 3.7,-0.2 h 266.9 z"
         id="path1377" />
      <path
         style="color:#000000;fill-rule:evenodd;stroke:none;-inkscape-stroke:none"
         d="m 33271.2,32254.5 3.7,0.6 3.6,0.9 3.5,1.2 3.3,1.6 3.2,1.9 3,2.2 2.7,2.5 2.5,2.7 2.2,3 2,3.2 1.5,3.4 1.3,3.5 0.9,3.6 0.5,3.6 0.2,3.7 v 18.9 l -0.2,3.7 -0.5,3.7 -0.9,3.6 -1.3,3.5 -1.5,3.3 -2,3.2 -2.2,3 -2.5,2.7 -2.7,2.5 -3,2.2 -3.2,2 -3.3,1.5 -3.5,1.3 -3.6,0.9 -3.7,0.5 -3.7,0.2 h -266.9 l -3.7,-0.2 -3.7,-0.5 -3.6,-0.9 -3.5,-1.3 -3.3,-1.5 -3.2,-2 -3,-2.2 -2.7,-2.5 -2.5,-2.7 -2.2,-3 -1.9,-3.2 -1.6,-3.3 -1.3,-3.5 -0.9,-3.6 -0.5,-3.7 -0.2,-3.7 v -18.9 l 0.2,-3.7 0.5,-3.6 0.9,-3.6 1.3,-3.5 1.6,-3.4 1.9,-3.2 2.2,-3 2.5,-2.7 2.7,-2.5 3,-2.2 3.2,-1.9 3.3,-1.6 3.5,-1.2 3.6,-0.9 3.7,-0.6 3.7,-0.2 h 266.9 z"
         id="path1379" />
    </g>
    <g
       id="path44">
      <path
         style="color:#000000;fill-rule:evenodd;stroke:none;-inkscape-stroke:none"
         d="m 33271.2,32057.7 3.7,0.5 3.6,0.9 3.5,1.3 3.3,1.5 3.2,1.9 3,2.3 2.7,2.5 2.5,2.7 2.2,3 2,3.2 1.5,3.3 1.3,3.5 0.9,3.6 0.5,3.7 0.2,3.7 v 18.9 l -0.2,3.7 -0.5,3.6 -0.9,3.6 -1.3,3.5 -1.5,3.4 -2,3.2 -2.2,3 -2.5,2.7 -2.7,2.5 -3,2.2 -3.2,1.9 -3.3,1.6 -3.5,1.2 -3.6,0.9 -3.7,0.6 -3.7,0.2 h -266.9 l -3.7,-0.2 -3.7,-0.6 -3.6,-0.9 -3.5,-1.2 -3.3,-1.6 -3.2,-1.9 -3,-2.2 -2.7,-2.5 -2.5,-2.7 -2.2,-3 -1.9,-3.2 -1.6,-3.4 -1.3,-3.5 -0.9,-3.6 -0.5,-3.6 -0.2,-3.7 v -18.9 l 0.2,-3.7 0.5,-3.7 0.9,-3.6 1.3,-3.5 1.6,-3.3 1.9,-3.2 2.2,-3 2.5,-2.7 2.7,-2.5 3,-2.3 3.2,-1.9 3.3,-1.5 3.5,-1.3 3.6,-0.9 3.7,-0.5 3.7,-0.2 h 266.9 z"
         id="path1385" />
      <path
         style="color:#000000;fill-rule:evenodd;stroke:none;-inkscape-stroke:none"
         d="m 33271.2,32057.7 3.7,0.5 3.6,0.9 3.5,1.3 3.3,1.5 3.2,1.9 3,2.3 2.7,2.5 2.5,2.7 2.2,3 2,3.2 1.5,3.3 1.3,3.5 0.9,3.6 0.5,3.7 0.2,3.7 v 18.9 l -0.2,3.7 -0.5,3.6 -0.9,3.6 -1.3,3.5 -1.5,3.4 -2,3.2 -2.2,3 -2.5,2.7 -2.7,2.5 -3,2.2 -3.2,1.9 -3.3,1.6 -3.5,1.2 -3.6,0.9 -3.7,0.6 -3.7,0.2 h -266.9 l -3.7,-0.2 -3.7,-0.6 -3.6,-0.9 -3.5,-1.2 -3.3,-1.6 -3.2,-1.9 -3,-2.2 -2.7,-2.5 -2.5,-2.7 -2.2,-3 -1.9,-3.2 -1.6,-3.4 -1.3,-3.5 -0.9,-3.6 -0.5,-3.6 -0.2,-3.7 v -18.9 l 0.2,-3.7 0.5,-3.7 0.9,-3.6 1.3,-3.5 1.6,-3.3 1.9,-3.2 2.2,-3 2.5,-2.7 2.7,-2.5 3,-2.3 3.2,-1.9 3.3,-1.5 3.5,-1.3 3.6,-0.9 3.7,-0.5 3.7,-0.2 h 266.9 z"
         id="path1387" />
    </g>
    <g
       id="path46">
      <path
         style="color:#000000;fill-rule:evenodd;stroke:none;-inkscape-stroke:none"
         d="m 33417.9,31663 3.6,0.5 3.6,0.9 3.5,1.3 3.4,1.6 3.2,1.9 3,2.2 2.7,2.5 2.5,2.7 2.2,3 1.9,3.2 1.6,3.3 1.2,3.5 0.9,3.6 0.6,3.7 0.2,3.7 v 266.9 l -0.2,3.7 -0.6,3.7 -0.9,3.6 -1.2,3.5 -1.6,3.3 -1.9,3.2 -2.2,3 -2.5,2.7 -2.7,2.5 -3,2.2 -3.2,2 -3.4,1.5 -3.5,1.3 -3.6,0.9 -3.6,0.5 -3.7,0.2 h -18.9 l -3.7,-0.2 -3.7,-0.5 -3.6,-0.9 -3.5,-1.3 -3.3,-1.5 -3.2,-2 -3,-2.2 -2.7,-2.5 -2.5,-2.7 -2.3,-3 -1.9,-3.2 -1.5,-3.3 -1.3,-3.5 -0.9,-3.6 -0.5,-3.7 -0.2,-3.7 v -266.9 l 0.2,-3.7 0.5,-3.7 0.9,-3.6 1.3,-3.5 1.5,-3.3 1.9,-3.2 2.3,-3 2.5,-2.7 2.7,-2.5 3,-2.2 3.2,-1.9 3.3,-1.6 3.5,-1.3 3.6,-0.9 3.7,-0.5 3.7,-0.2 h 18.9 z"
         id="path1393" />
      <path
         style="color:#000000;fill-rule:evenodd;stroke:none;-inkscape-stroke:none"
         d="m 33417.9,31663 3.6,0.5 3.6,0.9 3.5,1.3 3.4,1.6 3.2,1.9 3,2.2 2.7,2.5 2.5,2.7 2.2,3 1.9,3.2 1.6,3.3 1.2,3.5 0.9,3.6 0.6,3.7 0.2,3.7 v 266.9 l -0.2,3.7 -0.6,3.7 -0.9,3.6 -1.2,3.5 -1.6,3.3 -1.9,3.2 -2.2,3 -2.5,2.7 -2.7,2.5 -3,2.2 -3.2,2 -3.4,1.5 -3.5,1.3 -3.6,0.9 -3.6,0.5 -3.7,0.2 h -18.9 l -3.7,-0.2 -3.7,-0.5 -3.6,-0.9 -3.5,-1.3 -3.3,-1.5 -3.2,-2 -3,-2.2 -2.7,-2.5 -2.5,-2.7 -2.3,-3 -1.9,-3.2 -1.5,-3.3 -1.3,-3.5 -0.9,-3.6 -0.5,-3.7 -0.2,-3.7 v -266.9 l 0.2,-3.7 0.5,-3.7 0.9,-3.6 1.3,-3.5 1.5,-3.3 1.9,-3.2 2.3,-3 2.5,-2.7 2.7,-2.5 3,-2.2 3.2,-1.9 3.3,-1.6 3.5,-1.3 3.6,-0.9 3.7,-0.5 3.7,-0.2 h 18.9 z"
         id="path1395" />
    </g>
    <g
       id="path48">
      <path
         style="color:#000000;fill-rule:evenodd;stroke:none;-inkscape-stroke:none"
         d="m 33614.7,31663 3.7,0.5 3.6,0.9 3.5,1.3 3.3,1.6 3.2,1.9 3,2.2 2.7,2.5 2.5,2.7 2.2,3 2,3.2 1.5,3.3 1.3,3.5 0.9,3.6 0.5,3.7 0.2,3.7 v 266.9 l -0.2,3.7 -0.5,3.7 -0.9,3.6 -1.3,3.5 -1.5,3.3 -2,3.2 -2.2,3 -2.5,2.7 -2.7,2.5 -3,2.2 -3.2,2 -3.3,1.5 -3.5,1.3 -3.6,0.9 -3.7,0.5 -3.7,0.2 h -18.9 l -3.7,-0.2 -3.6,-0.5 -3.6,-0.9 -3.5,-1.3 -3.4,-1.5 -3.2,-2 -3,-2.2 -2.7,-2.5 -2.5,-2.7 -2.2,-3 -1.9,-3.2 -1.6,-3.3 -1.2,-3.5 -0.9,-3.6 -0.6,-3.7 -0.2,-3.7 v -266.9 l 0.2,-3.7 0.6,-3.7 0.9,-3.6 1.2,-3.5 1.6,-3.3 1.9,-3.2 2.2,-3 2.5,-2.7 2.7,-2.5 3,-2.2 3.2,-1.9 3.4,-1.6 3.5,-1.3 3.6,-0.9 3.6,-0.5 3.7,-0.2 h 18.9 z"
         id="path1401" />
      <path
         style="color:#000000;fill-rule:evenodd;stroke:none;-inkscape-stroke:none"
         d="m 33614.7,31663 3.7,0.5 3.6,0.9 3.5,1.3 3.3,1.6 3.2,1.9 3,2.2 2.7,2.5 2.5,2.7 2.2,3 2,3.2 1.5,3.3 1.3,3.5 0.9,3.6 0.5,3.7 0.2,3.7 v 266.9 l -0.2,3.7 -0.5,3.7 -0.9,3.6 -1.3,3.5 -1.5,3.3 -2,3.2 -2.2,3 -2.5,2.7 -2.7,2.5 -3,2.2 -3.2,2 -3.3,1.5 -3.5,1.3 -3.6,0.9 -3.7,0.5 -3.7,0.2 h -18.9 l -3.7,-0.2 -3.6,-0.5 -3.6,-0.9 -3.5,-1.3 -3.4,-1.5 -3.2,-2 -3,-2.2 -2.7,-2.5 -2.5,-2.7 -2.2,-3 -1.9,-3.2 -1.6,-3.3 -1.2,-3.5 -0.9,-3.6 -0.6,-3.7 -0.2,-3.7 v -266.9 l 0.2,-3.7 0.6,-3.7 0.9,-3.6 1.2,-3.5 1.6,-3.3 1.9,-3.2 2.2,-3 2.5,-2.7 2.7,-2.5 3,-2.2 3.2,-1.9 3.4,-1.6 3.5,-1.3 3.6,-0.9 3.6,-0.5 3.7,-0.2 h 18.9 z"
         id="path1403" />
    </g>
    <g
       id="path50">
      <path
         style="color:#000000;fill-rule:evenodd;stroke:none;-inkscape-stroke:none"
         d="m 33811.6,31663 3.6,0.5 3.6,0.9 3.5,1.3 3.4,1.6 3.2,1.9 3,2.2 2.7,2.5 2.5,2.7 2.2,3 1.9,3.2 1.6,3.3 1.2,3.5 0.9,3.6 0.6,3.7 0.2,3.7 v 266.9 l -0.2,3.7 -0.6,3.7 -0.9,3.6 -1.2,3.5 -1.6,3.3 -1.9,3.2 -2.2,3 -2.5,2.7 -2.7,2.5 -3,2.2 -3.2,2 -3.4,1.5 -3.5,1.3 -3.6,0.9 -3.6,0.5 -3.7,0.2 h -18.9 l -3.7,-0.2 -3.7,-0.5 -3.6,-0.9 -3.5,-1.3 -3.3,-1.5 -3.2,-2 -3,-2.2 -2.7,-2.5 -2.5,-2.7 -2.2,-3 -2,-3.2 -1.5,-3.3 -1.3,-3.5 -0.9,-3.6 -0.5,-3.7 -0.2,-3.7 v -266.9 l 0.2,-3.7 0.5,-3.7 0.9,-3.6 1.3,-3.5 1.5,-3.3 2,-3.2 2.2,-3 2.5,-2.7 2.7,-2.5 3,-2.2 3.2,-1.9 3.3,-1.6 3.5,-1.3 3.6,-0.9 3.7,-0.5 3.7,-0.2 h 18.9 z"
         id="path1409" />
      <path
         style="color:#000000;fill-rule:evenodd;stroke:none;-inkscape-stroke:none"
         d="m 33811.6,31663 3.6,0.5 3.6,0.9 3.5,1.3 3.4,1.6 3.2,1.9 3,2.2 2.7,2.5 2.5,2.7 2.2,3 1.9,3.2 1.6,3.3 1.2,3.5 0.9,3.6 0.6,3.7 0.2,3.7 v 266.9 l -0.2,3.7 -0.6,3.7 -0.9,3.6 -1.2,3.5 -1.6,3.3 -1.9,3.2 -2.2,3 -2.5,2.7 -2.7,2.5 -3,2.2 -3.2,2 -3.4,1.5 -3.5,1.3 -3.6,0.9 -3.6,0.5 -3.7,0.2 h -18.9 l -3.7,-0.2 -3.7,-0.5 -3.6,-0.9 -3.5,-1.3 -3.3,-1.5 -3.2,-2 -3,-2.2 -2.7,-2.5 -2.5,-2.7 -2.2,-3 -2,-3.2 -1.5,-3.3 -1.3,-3.5 -0.9,-3.6 -0.5,-3.7 -0.2,-3.7 v -266.9 l 0.2,-3.7 0.5,-3.7 0.9,-3.6 1.3,-3.5 1.5,-3.3 2,-3.2 2.2,-3 2.5,-2.7 2.7,-2.5 3,-2.2 3.2,-1.9 3.3,-1.6 3.5,-1.3 3.6,-0.9 3.7,-0.5 3.7,-0.2 h 18.9 z"
         id="path1411" />
    </g>
    <g
       id="path52">
      <path
         style="color:#000000;fill-rule:evenodd;stroke:none;-inkscape-stroke:none"
         d="m 34008.4,31663 3.7,0.5 3.6,0.9 3.5,1.3 3.3,1.6 3.2,1.9 3,2.2 2.7,2.5 2.5,2.7 2.3,3 1.9,3.2 1.5,3.3 1.3,3.5 0.9,3.6 0.5,3.7 0.2,3.7 v 266.9 l -0.2,3.7 -0.5,3.7 -0.9,3.6 -1.3,3.5 -1.5,3.3 -1.9,3.2 -2.3,3 -2.5,2.7 -2.7,2.5 -3,2.2 -3.2,2 -3.3,1.5 -3.5,1.3 -3.6,0.9 -3.7,0.5 -3.7,0.2 h -18.9 l -3.7,-0.2 -3.6,-0.5 -3.6,-0.9 -3.5,-1.3 -3.4,-1.5 -3.2,-2 -3,-2.2 -2.7,-2.5 -2.5,-2.7 -2.2,-3 -1.9,-3.2 -1.6,-3.3 -1.2,-3.5 -0.9,-3.6 -0.6,-3.7 -0.2,-3.7 v -266.9 l 0.2,-3.7 0.6,-3.7 0.9,-3.6 1.2,-3.5 1.6,-3.3 1.9,-3.2 2.2,-3 2.5,-2.7 2.7,-2.5 3,-2.2 3.2,-1.9 3.4,-1.6 3.5,-1.3 3.6,-0.9 3.6,-0.5 3.7,-0.2 h 18.9 z"
         id="path1417" />
      <path
         style="color:#000000;fill-rule:evenodd;stroke:none;-inkscape-stroke:none"
         d="m 34008.4,31663 3.7,0.5 3.6,0.9 3.5,1.3 3.3,1.6 3.2,1.9 3,2.2 2.7,2.5 2.5,2.7 2.3,3 1.9,3.2 1.5,3.3 1.3,3.5 0.9,3.6 0.5,3.7 0.2,3.7 v 266.9 l -0.2,3.7 -0.5,3.7 -0.9,3.6 -1.3,3.5 -1.5,3.3 -1.9,3.2 -2.3,3 -2.5,2.7 -2.7,2.5 -3,2.2 -3.2,2 -3.3,1.5 -3.5,1.3 -3.6,0.9 -3.7,0.5 -3.7,0.2 h -18.9 l -3.7,-0.2 -3.6,-0.5 -3.6,-0.9 -3.5,-1.3 -3.4,-1.5 -3.2,-2 -3,-2.2 -2.7,-2.5 -2.5,-2.7 -2.2,-3 -1.9,-3.2 -1.6,-3.3 -1.2,-3.5 -0.9,-3.6 -0.6,-3.7 -0.2,-3.7 v -266.9 l 0.2,-3.7 0.6,-3.7 0.9,-3.6 1.2,-3.5 1.6,-3.3 1.9,-3.2 2.2,-3 2.5,-2.7 2.7,-2.5 3,-2.2 3.2,-1.9 3.4,-1.6 3.5,-1.3 3.6,-0.9 3.6,-0.5 3.7,-0.2 h 18.9 z"
         id="path1419" />
    </g>
    <g
       id="path54">
      <path
         style="color:#000000;fill-rule:evenodd;stroke:none;-inkscape-stroke:none"
         d="m 34403.1,32057.7 3.7,0.5 3.6,0.9 3.5,1.3 3.3,1.5 3.2,1.9 3,2.3 2.7,2.5 2.5,2.7 2.2,3 1.9,3.2 1.6,3.3 1.3,3.5 0.9,3.6 0.5,3.7 0.2,3.7 v 18.9 l -0.2,3.7 -0.5,3.6 -0.9,3.6 -1.3,3.5 -1.6,3.4 -1.9,3.2 -2.2,3 -2.5,2.7 -2.7,2.5 -3,2.2 -3.2,1.9 -3.3,1.6 -3.5,1.2 -3.6,0.9 -3.7,0.6 -3.7,0.2 h -266.9 l -3.7,-0.2 -3.7,-0.6 -3.6,-0.9 -3.5,-1.2 -3.3,-1.6 -3.2,-1.9 -3,-2.2 -2.7,-2.5 -2.5,-2.7 -2.2,-3 -2,-3.2 -1.5,-3.4 -1.3,-3.5 -0.9,-3.6 -0.5,-3.6 -0.2,-3.7 v -18.9 l 0.2,-3.7 0.5,-3.7 0.9,-3.6 1.3,-3.5 1.5,-3.3 2,-3.2 2.2,-3 2.5,-2.7 2.7,-2.5 3,-2.3 3.2,-1.9 3.3,-1.5 3.5,-1.3 3.6,-0.9 3.7,-0.5 3.7,-0.2 h 266.9 z"
         id="path1425" />
      <path
         style="color:#000000;fill-rule:evenodd;stroke:none;-inkscape-stroke:none"
         d="m 34403.1,32057.7 3.7,0.5 3.6,0.9 3.5,1.3 3.3,1.5 3.2,1.9 3,2.3 2.7,2.5 2.5,2.7 2.2,3 1.9,3.2 1.6,3.3 1.3,3.5 0.9,3.6 0.5,3.7 0.2,3.7 v 18.9 l -0.2,3.7 -0.5,3.6 -0.9,3.6 -1.3,3.5 -1.6,3.4 -1.9,3.2 -2.2,3 -2.5,2.7 -2.7,2.5 -3,2.2 -3.2,1.9 -3.3,1.6 -3.5,1.2 -3.6,0.9 -3.7,0.6 -3.7,0.2 h -266.9 l -3.7,-0.2 -3.7,-0.6 -3.6,-0.9 -3.5,-1.2 -3.3,-1.6 -3.2,-1.9 -3,-2.2 -2.7,-2.5 -2.5,-2.7 -2.2,-3 -2,-3.2 -1.5,-3.4 -1.3,-3.5 -0.9,-3.6 -0.5,-3.6 -0.2,-3.7 v -18.9 l 0.2,-3.7 0.5,-3.7 0.9,-3.6 1.3,-3.5 1.5,-3.3 2,-3.2 2.2,-3 2.5,-2.7 2.7,-2.5 3,-2.3 3.2,-1.9 3.3,-1.5 3.5,-1.3 3.6,-0.9 3.7,-0.5 3.7,-0.2 h 266.9 z"
         id="path1427" />
    </g>
    <g
       id="path56">
      <path
         style="color:#000000;fill-rule:evenodd;stroke:none;-inkscape-stroke:none"
         d="m 34403.1,32254.5 3.7,0.6 3.6,0.9 3.5,1.2 3.3,1.6 3.2,1.9 3,2.2 2.7,2.5 2.5,2.7 2.2,3 1.9,3.2 1.6,3.4 1.3,3.5 0.9,3.6 0.5,3.6 0.2,3.7 v 18.9 l -0.2,3.7 -0.5,3.7 -0.9,3.6 -1.3,3.5 -1.6,3.3 -1.9,3.2 -2.2,3 -2.5,2.7 -2.7,2.5 -3,2.2 -3.2,2 -3.3,1.5 -3.5,1.3 -3.6,0.9 -3.7,0.5 -3.7,0.2 h -266.9 l -3.7,-0.2 -3.7,-0.5 -3.6,-0.9 -3.5,-1.3 -3.3,-1.5 -3.2,-2 -3,-2.2 -2.7,-2.5 -2.5,-2.7 -2.2,-3 -2,-3.2 -1.5,-3.3 -1.3,-3.5 -0.9,-3.6 -0.5,-3.7 -0.2,-3.7 v -18.9 l 0.2,-3.7 0.5,-3.6 0.9,-3.6 1.3,-3.5 1.5,-3.4 2,-3.2 2.2,-3 2.5,-2.7 2.7,-2.5 3,-2.2 3.2,-1.9 3.3,-1.6 3.5,-1.2 3.6,-0.9 3.7,-0.6 3.7,-0.2 h 266.9 z"
         id="path1433" />
      <path
         style="color:#000000;fill-rule:evenodd;stroke:none;-inkscape-stroke:none"
         d="m 34403.1,32254.5 3.7,0.6 3.6,0.9 3.5,1.2 3.3,1.6 3.2,1.9 3,2.2 2.7,2.5 2.5,2.7 2.2,3 1.9,3.2 1.6,3.4 1.3,3.5 0.9,3.6 0.5,3.6 0.2,3.7 v 18.9 l -0.2,3.7 -0.5,3.7 -0.9,3.6 -1.3,3.5 -1.6,3.3 -1.9,3.2 -2.2,3 -2.5,2.7 -2.7,2.5 -3,2.2 -3.2,2 -3.3,1.5 -3.5,1.3 -3.6,0.9 -3.7,0.5 -3.7,0.2 h -266.9 l -3.7,-0.2 -3.7,-0.5 -3.6,-0.9 -3.5,-1.3 -3.3,-1.5 -3.2,-2 -3,-2.2 -2.7,-2.5 -2.5,-2.7 -2.2,-3 -2,-3.2 -1.5,-3.3 -1.3,-3.5 -0.9,-3.6 -0.5,-3.7 -0.2,-3.7 v -18.9 l 0.2,-3.7 0.5,-3.6 0.9,-3.6 1.3,-3.5 1.5,-3.4 2,-3.2 2.2,-3 2.5,-2.7 2.7,-2.5 3,-2.2 3.2,-1.9 3.3,-1.6 3.5,-1.2 3.6,-0.9 3.7,-0.6 3.7,-0.2 h 266.9 z"
         id="path1435" />
    </g>
    <g
       id="path58">
      <path
         style="color:#000000;fill-rule:evenodd;stroke:none;-inkscape-stroke:none"
         d="m 34403.1,32451.4 3.7,0.5 3.6,0.9 3.5,1.3 3.3,1.5 3.2,2 3,2.2 2.7,2.5 2.5,2.7 2.2,3 1.9,3.2 1.6,3.3 1.3,3.5 0.9,3.6 0.5,3.7 0.2,3.7 v 18.9 l -0.2,3.7 -0.5,3.6 -0.9,3.6 -1.3,3.5 -1.6,3.4 -1.9,3.2 -2.2,3 -2.5,2.7 -2.7,2.5 -3,2.2 -3.2,1.9 -3.3,1.6 -3.5,1.2 -3.6,0.9 -3.7,0.6 -3.7,0.2 h -266.9 l -3.7,-0.2 -3.7,-0.6 -3.6,-0.9 -3.5,-1.2 -3.3,-1.6 -3.2,-1.9 -3,-2.2 -2.7,-2.5 -2.5,-2.7 -2.2,-3 -2,-3.2 -1.5,-3.4 -1.3,-3.5 -0.9,-3.6 -0.5,-3.6 -0.2,-3.7 v -18.9 l 0.2,-3.7 0.5,-3.7 0.9,-3.6 1.3,-3.5 1.5,-3.3 2,-3.2 2.2,-3 2.5,-2.7 2.7,-2.5 3,-2.2 3.2,-2 3.3,-1.5 3.5,-1.3 3.6,-0.9 3.7,-0.5 3.7,-0.2 h 266.9 z"
         id="path1441" />
      <path
         style="color:#000000;fill-rule:evenodd;stroke:none;-inkscape-stroke:none"
         d="m 34403.1,32451.4 3.7,0.5 3.6,0.9 3.5,1.3 3.3,1.5 3.2,2 3,2.2 2.7,2.5 2.5,2.7 2.2,3 1.9,3.2 1.6,3.3 1.3,3.5 0.9,3.6 0.5,3.7 0.2,3.7 v 18.9 l -0.2,3.7 -0.5,3.6 -0.9,3.6 -1.3,3.5 -1.6,3.4 -1.9,3.2 -2.2,3 -2.5,2.7 -2.7,2.5 -3,2.2 -3.2,1.9 -3.3,1.6 -3.5,1.2 -3.6,0.9 -3.7,0.6 -3.7,0.2 h -266.9 l -3.7,-0.2 -3.7,-0.6 -3.6,-0.9 -3.5,-1.2 -3.3,-1.6 -3.2,-1.9 -3,-2.2 -2.7,-2.5 -2.5,-2.7 -2.2,-3 -2,-3.2 -1.5,-3.4 -1.3,-3.5 -0.9,-3.6 -0.5,-3.6 -0.2,-3.7 v -18.9 l 0.2,-3.7 0.5,-3.7 0.9,-3.6 1.3,-3.5 1.5,-3.3 2,-3.2 2.2,-3 2.5,-2.7 2.7,-2.5 3,-2.2 3.2,-2 3.3,-1.5 3.5,-1.3 3.6,-0.9 3.7,-0.5 3.7,-0.2 h 266.9 z"
         id="path1443" />
    </g>
    <g
       id="path60">
      <path
         style="color:#000000;fill-rule:evenodd;stroke:none;-inkscape-stroke:none"
         d="m 34403.1,32648.2 3.7,0.6 3.6,0.9 3.5,1.2 3.3,1.6 3.2,1.9 3,2.2 2.7,2.5 2.5,2.7 2.2,3 1.9,3.2 1.6,3.4 1.3,3.5 0.9,3.6 0.5,3.6 0.2,3.7 v 18.9 l -0.2,3.7 -0.5,3.7 -0.9,3.6 -1.3,3.5 -1.6,3.3 -1.9,3.2 -2.2,3 -2.5,2.7 -2.7,2.5 -3,2.2 -3.2,2 -3.3,1.5 -3.5,1.3 -3.6,0.9 -3.7,0.5 -3.7,0.2 h -266.9 l -3.7,-0.2 -3.7,-0.5 -3.6,-0.9 -3.5,-1.3 -3.3,-1.5 -3.2,-2 -3,-2.2 -2.7,-2.5 -2.5,-2.7 -2.2,-3 -2,-3.2 -1.5,-3.3 -1.3,-3.5 -0.9,-3.6 -0.5,-3.7 -0.2,-3.7 v -18.9 l 0.2,-3.7 0.5,-3.6 0.9,-3.6 1.3,-3.5 1.5,-3.4 2,-3.2 2.2,-3 2.5,-2.7 2.7,-2.5 3,-2.2 3.2,-1.9 3.3,-1.6 3.5,-1.2 3.6,-0.9 3.7,-0.6 3.7,-0.2 h 266.9 z"
         id="path1449" />
      <path
         style="color:#000000;fill-rule:evenodd;stroke:none;-inkscape-stroke:none"
         d="m 34403.1,32648.2 3.7,0.6 3.6,0.9 3.5,1.2 3.3,1.6 3.2,1.9 3,2.2 2.7,2.5 2.5,2.7 2.2,3 1.9,3.2 1.6,3.4 1.3,3.5 0.9,3.6 0.5,3.6 0.2,3.7 v 18.9 l -0.2,3.7 -0.5,3.7 -0.9,3.6 -1.3,3.5 -1.6,3.3 -1.9,3.2 -2.2,3 -2.5,2.7 -2.7,2.5 -3,2.2 -3.2,2 -3.3,1.5 -3.5,1.3 -3.6,0.9 -3.7,0.5 -3.7,0.2 h -266.9 l -3.7,-0.2 -3.7,-0.5 -3.6,-0.9 -3.5,-1.3 -3.3,-1.5 -3.2,-2 -3,-2.2 -2.7,-2.5 -2.5,-2.7 -2.2,-3 -2,-3.2 -1.5,-3.3 -1.3,-3.5 -0.9,-3.6 -0.5,-3.7 -0.2,-3.7 v -18.9 l 0.2,-3.7 0.5,-3.6 0.9,-3.6 1.3,-3.5 1.5,-3.4 2,-3.2 2.2,-3 2.5,-2.7 2.7,-2.5 3,-2.2 3.2,-1.9 3.3,-1.6 3.5,-1.2 3.6,-0.9 3.7,-0.6 3.7,-0.2 h 266.9 z"
         id="path1451" />
    </g>
    <g
       id="path62">
      <path
         style="color:#000000;fill-rule:evenodd;stroke:none;-inkscape-stroke:none"
         d="m 34008.4,32794.9 3.7,0.5 3.6,0.9 3.5,1.3 3.3,1.5 3.2,2 3,2.2 2.7,2.5 2.5,2.7 2.3,3 1.9,3.2 1.5,3.3 1.3,3.5 0.9,3.6 0.5,3.7 0.2,3.7 v 266.9 l -0.2,3.7 -0.5,3.7 -0.9,3.6 -1.3,3.5 -1.5,3.3 -1.9,3.2 -2.3,3 -2.5,2.7 -2.7,2.5 -3,2.2 -3.2,1.9 -3.3,1.6 -3.5,1.3 -3.6,0.9 -3.7,0.5 -3.7,0.2 h -18.9 l -3.7,-0.2 -3.6,-0.5 -3.6,-0.9 -3.5,-1.3 -3.4,-1.6 -3.2,-1.9 -3,-2.2 -2.7,-2.5 -2.5,-2.7 -2.2,-3 -1.9,-3.2 -1.6,-3.3 -1.2,-3.5 -0.9,-3.6 -0.6,-3.7 -0.2,-3.7 v -266.9 l 0.2,-3.7 0.6,-3.7 0.9,-3.6 1.2,-3.5 1.6,-3.3 1.9,-3.2 2.2,-3 2.5,-2.7 2.7,-2.5 3,-2.2 3.2,-2 3.4,-1.5 3.5,-1.3 3.6,-0.9 3.6,-0.5 3.7,-0.2 h 18.9 z"
         id="path1457" />
      <path
         style="color:#000000;fill-rule:evenodd;stroke:none;-inkscape-stroke:none"
         d="m 34008.4,32794.9 3.7,0.5 3.6,0.9 3.5,1.3 3.3,1.5 3.2,2 3,2.2 2.7,2.5 2.5,2.7 2.3,3 1.9,3.2 1.5,3.3 1.3,3.5 0.9,3.6 0.5,3.7 0.2,3.7 v 266.9 l -0.2,3.7 -0.5,3.7 -0.9,3.6 -1.3,3.5 -1.5,3.3 -1.9,3.2 -2.3,3 -2.5,2.7 -2.7,2.5 -3,2.2 -3.2,1.9 -3.3,1.6 -3.5,1.3 -3.6,0.9 -3.7,0.5 -3.7,0.2 h -18.9 l -3.7,-0.2 -3.6,-0.5 -3.6,-0.9 -3.5,-1.3 -3.4,-1.6 -3.2,-1.9 -3,-2.2 -2.7,-2.5 -2.5,-2.7 -2.2,-3 -1.9,-3.2 -1.6,-3.3 -1.2,-3.5 -0.9,-3.6 -0.6,-3.7 -0.2,-3.7 v -266.9 l 0.2,-3.7 0.6,-3.7 0.9,-3.6 1.2,-3.5 1.6,-3.3 1.9,-3.2 2.2,-3 2.5,-2.7 2.7,-2.5 3,-2.2 3.2,-2 3.4,-1.5 3.5,-1.3 3.6,-0.9 3.6,-0.5 3.7,-0.2 h 18.9 z"
         id="path1459" />
    </g>
    <g
       id="path64">
      <path
         style="color:#000000;fill-rule:evenodd;stroke:none;-inkscape-stroke:none"
         d="m 33811.6,32794.9 3.6,0.5 3.6,0.9 3.5,1.3 3.4,1.5 3.2,2 3,2.2 2.7,2.5 2.5,2.7 2.2,3 1.9,3.2 1.6,3.3 1.2,3.5 0.9,3.6 0.6,3.7 0.2,3.7 v 266.9 l -0.2,3.7 -0.6,3.7 -0.9,3.6 -1.2,3.5 -1.6,3.3 -1.9,3.2 -2.2,3 -2.5,2.7 -2.7,2.5 -3,2.2 -3.2,1.9 -3.4,1.6 -3.5,1.3 -3.6,0.9 -3.6,0.5 -3.7,0.2 h -18.9 l -3.7,-0.2 -3.7,-0.5 -3.6,-0.9 -3.5,-1.3 -3.3,-1.6 -3.2,-1.9 -3,-2.2 -2.7,-2.5 -2.5,-2.7 -2.2,-3 -2,-3.2 -1.5,-3.3 -1.3,-3.5 -0.9,-3.6 -0.5,-3.7 -0.2,-3.7 v -266.9 l 0.2,-3.7 0.5,-3.7 0.9,-3.6 1.3,-3.5 1.5,-3.3 2,-3.2 2.2,-3 2.5,-2.7 2.7,-2.5 3,-2.2 3.2,-2 3.3,-1.5 3.5,-1.3 3.6,-0.9 3.7,-0.5 3.7,-0.2 h 18.9 z"
         id="path1465" />
      <path
         style="color:#000000;fill-rule:evenodd;stroke:none;-inkscape-stroke:none"
         d="m 33811.6,32794.9 3.6,0.5 3.6,0.9 3.5,1.3 3.4,1.5 3.2,2 3,2.2 2.7,2.5 2.5,2.7 2.2,3 1.9,3.2 1.6,3.3 1.2,3.5 0.9,3.6 0.6,3.7 0.2,3.7 v 266.9 l -0.2,3.7 -0.6,3.7 -0.9,3.6 -1.2,3.5 -1.6,3.3 -1.9,3.2 -2.2,3 -2.5,2.7 -2.7,2.5 -3,2.2 -3.2,1.9 -3.4,1.6 -3.5,1.3 -3.6,0.9 -3.6,0.5 -3.7,0.2 h -18.9 l -3.7,-0.2 -3.7,-0.5 -3.6,-0.9 -3.5,-1.3 -3.3,-1.6 -3.2,-1.9 -3,-2.2 -2.7,-2.5 -2.5,-2.7 -2.2,-3 -2,-3.2 -1.5,-3.3 -1.3,-3.5 -0.9,-3.6 -0.5,-3.7 -0.2,-3.7 v -266.9 l 0.2,-3.7 0.5,-3.7 0.9,-3.6 1.3,-3.5 1.5,-3.3 2,-3.2 2.2,-3 2.5,-2.7 2.7,-2.5 3,-2.2 3.2,-2 3.3,-1.5 3.5,-1.3 3.6,-0.9 3.7,-0.5 3.7,-0.2 h 18.9 z"
         id="path1467" />
    </g>
    <g
       id="path66">
      <path
         style="color:#000000;fill-rule:evenodd;stroke:none;-inkscape-stroke:none"
         d="m 33614.7,32794.9 3.7,0.5 3.6,0.9 3.5,1.3 3.3,1.5 3.2,2 3,2.2 2.7,2.5 2.5,2.7 2.2,3 2,3.2 1.5,3.3 1.3,3.5 0.9,3.6 0.5,3.7 0.2,3.7 v 266.9 l -0.2,3.7 -0.5,3.7 -0.9,3.6 -1.3,3.5 -1.5,3.3 -2,3.2 -2.2,3 -2.5,2.7 -2.7,2.5 -3,2.2 -3.2,1.9 -3.3,1.6 -3.5,1.3 -3.6,0.9 -3.7,0.5 -3.7,0.2 h -18.9 l -3.7,-0.2 -3.6,-0.5 -3.6,-0.9 -3.5,-1.3 -3.4,-1.6 -3.2,-1.9 -3,-2.2 -2.7,-2.5 -2.5,-2.7 -2.2,-3 -1.9,-3.2 -1.6,-3.3 -1.2,-3.5 -0.9,-3.6 -0.6,-3.7 -0.2,-3.7 v -266.9 l 0.2,-3.7 0.6,-3.7 0.9,-3.6 1.2,-3.5 1.6,-3.3 1.9,-3.2 2.2,-3 2.5,-2.7 2.7,-2.5 3,-2.2 3.2,-2 3.4,-1.5 3.5,-1.3 3.6,-0.9 3.6,-0.5 3.7,-0.2 h 18.9 z"
         id="path1473" />
      <path
         style="color:#000000;fill-rule:evenodd;stroke:none;-inkscape-stroke:none"
         d="m 33614.7,32794.9 3.7,0.5 3.6,0.9 3.5,1.3 3.3,1.5 3.2,2 3,2.2 2.7,2.5 2.5,2.7 2.2,3 2,3.2 1.5,3.3 1.3,3.5 0.9,3.6 0.5,3.7 0.2,3.7 v 266.9 l -0.2,3.7 -0.5,3.7 -0.9,3.6 -1.3,3.5 -1.5,3.3 -2,3.2 -2.2,3 -2.5,2.7 -2.7,2.5 -3,2.2 -3.2,1.9 -3.3,1.6 -3.5,1.3 -3.6,0.9 -3.7,0.5 -3.7,0.2 h -18.9 l -3.7,-0.2 -3.6,-0.5 -3.6,-0.9 -3.5,-1.3 -3.4,-1.6 -3.2,-1.9 -3,-2.2 -2.7,-2.5 -2.5,-2.7 -2.2,-3 -1.9,-3.2 -1.6,-3.3 -1.2,-3.5 -0.9,-3.6 -0.6,-3.7 -0.2,-3.7 v -266.9 l 0.2,-3.7 0.6,-3.7 0.9,-3.6 1.2,-3.5 1.6,-3.3 1.9,-3.2 2.2,-3 2.5,-2.7 2.7,-2.5 3,-2.2 3.2,-2 3.4,-1.5 3.5,-1.3 3.6,-0.9 3.6,-0.5 3.7,-0.2 h 18.9 z"
         id="path1475" />
    </g>
    <g
       id="path68">
      <path
         style="color:#000000;fill-rule:evenodd;stroke:none;-inkscape-stroke:none"
         d="m 33417.9,32794.9 3.6,0.5 3.6,0.9 3.5,1.3 3.4,1.5 3.2,2 3,2.2 2.7,2.5 2.5,2.7 2.2,3 1.9,3.2 1.6,3.3 1.2,3.5 0.9,3.6 0.6,3.7 0.2,3.7 v 266.9 l -0.2,3.7 -0.6,3.7 -0.9,3.6 -1.2,3.5 -1.6,3.3 -1.9,3.2 -2.2,3 -2.5,2.7 -2.7,2.5 -3,2.2 -3.2,1.9 -3.4,1.6 -3.5,1.3 -3.6,0.9 -3.6,0.5 -3.7,0.2 h -18.9 l -3.7,-0.2 -3.7,-0.5 -3.6,-0.9 -3.5,-1.3 -3.3,-1.6 -3.2,-1.9 -3,-2.2 -2.7,-2.5 -2.5,-2.7 -2.3,-3 -1.9,-3.2 -1.5,-3.3 -1.3,-3.5 -0.9,-3.6 -0.5,-3.7 -0.2,-3.7 v -266.9 l 0.2,-3.7 0.5,-3.7 0.9,-3.6 1.3,-3.5 1.5,-3.3 1.9,-3.2 2.3,-3 2.5,-2.7 2.7,-2.5 3,-2.2 3.2,-2 3.3,-1.5 3.5,-1.3 3.6,-0.9 3.7,-0.5 3.7,-0.2 h 18.9 z"
         id="path1481" />
      <path
         style="color:#000000;fill-rule:evenodd;stroke:none;-inkscape-stroke:none"
         d="m 33417.9,32794.9 3.6,0.5 3.6,0.9 3.5,1.3 3.4,1.5 3.2,2 3,2.2 2.7,2.5 2.5,2.7 2.2,3 1.9,3.2 1.6,3.3 1.2,3.5 0.9,3.6 0.6,3.7 0.2,3.7 v 266.9 l -0.2,3.7 -0.6,3.7 -0.9,3.6 -1.2,3.5 -1.6,3.3 -1.9,3.2 -2.2,3 -2.5,2.7 -2.7,2.5 -3,2.2 -3.2,1.9 -3.4,1.6 -3.5,1.3 -3.6,0.9 -3.6,0.5 -3.7,0.2 h -18.9 l -3.7,-0.2 -3.7,-0.5 -3.6,-0.9 -3.5,-1.3 -3.3,-1.6 -3.2,-1.9 -3,-2.2 -2.7,-2.5 -2.5,-2.7 -2.3,-3 -1.9,-3.2 -1.5,-3.3 -1.3,-3.5 -0.9,-3.6 -0.5,-3.7 -0.2,-3.7 v -266.9 l 0.2,-3.7 0.5,-3.7 0.9,-3.6 1.3,-3.5 1.5,-3.3 1.9,-3.2 2.3,-3 2.5,-2.7 2.7,-2.5 3,-2.2 3.2,-2 3.3,-1.5 3.5,-1.3 3.6,-0.9 3.7,-0.5 3.7,-0.2 h 18.9 z"
         id="path1483" />
    </g>
  </g>
  <g
     id="g72"
     style="fill:#000000;fill-opacity:0;stroke:#000000;stroke-width:19.685;stroke-linecap:round;stroke-linejoin:round;stroke-opacity:1" />
  <g
     id="g74"
     style="fill:#000000;fill-opacity:0;stroke:#000000;stroke-width:19.685;stroke-linecap:round;stroke-linejoin:round;stroke-opacity:1" />
  <g
     id="g76"
     style="fill:#000000;fill-opacity:0;stroke:#000000;stroke-width:19.685;stroke-linecap:round;stroke-linejoin:round;stroke-opacity:1" />
  <g
     id="g78"
     style="fill:#000000;fill-opacity:0;stroke:#000000;stroke-width:19.685;stroke-linecap:round;stroke-linejoin:round;stroke-opacity:1" />
  <g
     id="g80"
     style="fill:#000000;fill-opacity:0;stroke:#000000;stroke-width:19.685;stroke-linecap:round;stroke-linejoin:round;stroke-opacity:1" />
  <g
     id="g82"
     style="fill:#000000;fill-opacity:0;stroke:#000000;stroke-width:19.685;stroke-linecap:round;stroke-linejoin:round;stroke-opacity:1" />
  <g
     id="g84"
     style="fill:#000000;fill-opacity:0;stroke:#000000;stroke-width:19.685;stroke-linecap:round;stroke-linejoin:round;stroke-opacity:1" />
  <g
     id="g86"
     style="fill:#000000;fill-opacity:0;stroke:#000000;stroke-width:19.685;stroke-linecap:round;stroke-linejoin:round;stroke-opacity:1" />
  <g
     id="g88"
     style="fill:#000000;fill-opacity:0;stroke:#000000;stroke-width:19.685;stroke-linecap:round;stroke-linejoin:round;stroke-opacity:1" />
  <g
     id="g90"
     style="fill:#000000;fill-opacity:0;stroke:#000000;stroke-width:19.685;stroke-linecap:round;stroke-linejoin:round;stroke-opacity:1" />
  <g
     id="g92"
     style="fill:#000000;fill-opacity:0;stroke:#000000;stroke-width:19.685;stroke-linecap:round;stroke-linejoin:round;stroke-opacity:1" />
  <g
     id="g94"
     style="fill:#000000;fill-opacity:0;stroke:#000000;stroke-width:19.685;stroke-linecap:round;stroke-linejoin:round;stroke-opacity:1" />
  <g
     id="g96"
     style="fill:#000000;fill-opacity:0;stroke:#000000;stroke-width:19.685;stroke-linecap:round;stroke-linejoin:round;stroke-opacity:1" />
  <g
     id="g98"
     style="fill:#000000;fill-opacity:0;stroke:#000000;stroke-width:19.685;stroke-linecap:round;stroke-linejoin:round;stroke-opacity:1" />
  <g
     id="g100"
     style="fill:#000000;fill-opacity:0;stroke:#000000;stroke-width:19.685;stroke-linecap:round;stroke-linejoin:round;stroke-opacity:1" />
  <g
     id="g102"
     style="fill:#000000;fill-opacity:0;stroke:#000000;stroke-width:19.685;stroke-linecap:round;stroke-linejoin:round;stroke-opacity:1" />
  <g
     style="fill:#000000;stroke:#000000;stroke-width:0;stroke-linecap:round;stroke-linejoin:round"
     id="g112">
    <g
       id="path104">
      <path
         style="color:#000000;fill-rule:evenodd;stroke:none;-inkscape-stroke:none"
         d="m 40133.9,42110.2 v 590.6 h -787.4 v -590.6 z"
         id="path1489" />
      <path
         style="color:#000000;fill-rule:evenodd;stroke:none;-inkscape-stroke:none"
         d="m 40133.9,42110.2 v 590.6 h -787.4 v -590.6 z"
         id="path1491" />
    </g>
    <g
       id="path106">
      <path
         style="color:#000000;fill-rule:evenodd;stroke:none;-inkscape-stroke:none"
         d="m 40133.9,40299.2 v 590.6 h -787.4 v -590.6 z"
         id="path1497" />
      <path
         style="color:#000000;fill-rule:evenodd;stroke:none;-inkscape-stroke:none"
         d="m 40133.9,40299.2 v 590.6 h -787.4 v -590.6 z"
         id="path1499" />
    </g>
    <g
       id="path108">
      <path
         style="color:#000000;fill-rule:evenodd;stroke:none;-inkscape-stroke:none"
         d="m 40133.9,41204.7 v 590.6 h -787.4 v -590.6 z"
         id="path1505" />
      <path
         style="color:#000000;fill-rule:evenodd;stroke:none;-inkscape-stroke:none"
         d="m 40133.9,41204.7 v 590.6 h -787.4 v -590.6 z"
         id="path1507" />
    </g>
    <g
       id="path110">
      <path
         style="color:#000000;fill-rule:evenodd;stroke:none;-inkscape-stroke:none"
         d="m 37653.5,40752 v 1496 h -787.4 v -1496 z"
         id="path1513" />
      <path
         style="color:#000000;fill-rule:evenodd;stroke:none;-inkscape-stroke:none"
         d="m 37653.5,40752 v 1496 h -787.4 v -1496 z"
         id="path1515" />
    </g>
  </g>
  <g
     id="g114"
     style="fill:#000000;fill-opacity:0;stroke:#000000;stroke-width:19.685;stroke-linecap:round;stroke-linejoin:round;stroke-opacity:1" />
  <g
     id="g116"
     style="fill:#000000;fill-opacity:0;stroke:#000000;stroke-width:19.685;stroke-linecap:round;stroke-linejoin:round;stroke-opacity:1" />
  <g
     id="g118"
     style="fill:#000000;fill-opacity:0;stroke:#000000;stroke-width:19.685;stroke-linecap:round;stroke-linejoin:round;stroke-opacity:1" />
  <g
     id="g120"
     style="fill:#000000;fill-opacity:0;stroke:#000000;stroke-width:19.685;stroke-linecap:round;stroke-linejoin:round;stroke-opacity:1" />
  <g
     id="g122"
     style="fill:#000000;fill-opacity:0;stroke:#000000;stroke-width:19.685;stroke-linecap:round;stroke-linejoin:round;stroke-opacity:1" />
  <g
     id="g124"
     style="fill:#000000;fill-opacity:0;stroke:#000000;stroke-width:19.685;stroke-linecap:round;stroke-linejoin:round;stroke-opacity:1" />
  <g
     id="g126"
     style="fill:#000000;fill-opacity:0;stroke:#000000;stroke-width:19.685;stroke-linecap:round;stroke-linejoin:round;stroke-opacity:1" />
  <g
     id="g128"
     style="fill:#000000;fill-opacity:0;stroke:#000000;stroke-width:19.685;stroke-linecap:round;stroke-linejoin:round;stroke-opacity:1" />
  <g
     id="g130"
     style="fill:#000000;fill-opacity:0;stroke:#000000;stroke-width:19.685;stroke-linecap:round;stroke-linejoin:round;stroke-opacity:1" />
  <g
     id="g132"
     style="fill:#000000;fill-opacity:0;stroke:#000000;stroke-width:19.685;stroke-linecap:round;stroke-linejoin:round;stroke-opacity:1" />
  <g
     id="g134"
     style="fill:#000000;fill-opacity:0;stroke:#000000;stroke-width:19.685;stroke-linecap:round;stroke-linejoin:round;stroke-opacity:1" />
  <g
     id="g136"
     style="fill:#000000;fill-opacity:0;stroke:#000000;stroke-width:19.685;stroke-linecap:round;stroke-linejoin:round;stroke-opacity:1" />
  <g
     id="g138"
     style="fill:#000000;fill-opacity:0;stroke:#000000;stroke-width:19.685;stroke-linecap:round;stroke-linejoin:round;stroke-opacity:1" />
  <g
     id="g140"
     style="fill:#000000;fill-opacity:0;stroke:#000000;stroke-width:19.685;stroke-linecap:round;stroke-linejoin:round;stroke-opacity:1" />
  <g
     id="g142"
     style="fill:#000000;fill-opacity:0;stroke:#000000;stroke-width:19.685;stroke-linecap:round;stroke-linejoin:round;stroke-opacity:1" />
  <g
     id="g144"
     style="fill:#000000;fill-opacity:0;stroke:#000000;stroke-width:19.685;stroke-linecap:round;stroke-linejoin:round;stroke-opacity:1" />
  <g
     id="g146"
     style="fill:#000000;fill-opacity:0;stroke:#000000;stroke-width:19.685;stroke-linecap:round;stroke-linejoin:round;stroke-opacity:1" />
  <g
     id="g148"
     style="fill:#000000;fill-opacity:0;stroke:#000000;stroke-width:19.685;stroke-linecap:round;stroke-linejoin:round;stroke-opacity:1" />
  <g
     id="g150"
     style="fill:#000000;fill-opacity:0;stroke:#000000;stroke-width:19.685;stroke-linecap:round;stroke-linejoin:round;stroke-opacity:1" />
  <g
     id="g152"
     style="fill:#000000;fill-opacity:0;stroke:#000000;stroke-width:19.685;stroke-linecap:round;stroke-linejoin:round;stroke-opacity:1" />
  <g
     style="fill:#000000;stroke:#000000;stroke-width:0;stroke-linecap:round;stroke-linejoin:round"
     id="g160">
    <g
       id="path154">
      <path
         style="color:#000000;fill-rule:evenodd;stroke:none;-inkscape-stroke:none"
         d="m 38242.5,47716.5 h 315 v 354.4 h -315 z"
         id="path1521" />
      <path
         style="color:#000000;fill-rule:evenodd;stroke:none;-inkscape-stroke:none"
         d="m 38242.5,47716.5 h 315 v 354.4 h -315 z"
         id="path1523" />
    </g>
    <g
       id="path156">
      <path
         style="color:#000000;fill-rule:evenodd;stroke:none;-inkscape-stroke:none"
         d="m 37868.5,46929.1 h 315 v 354.4 h -315 z"
         id="path1529" />
      <path
         style="color:#000000;fill-rule:evenodd;stroke:none;-inkscape-stroke:none"
         d="m 37868.5,46929.1 h 315 v 354.4 h -315 z"
         id="path1531" />
    </g>
    <g
       id="path158">
      <path
         style="color:#000000;fill-rule:evenodd;stroke:none;-inkscape-stroke:none"
         d="m 38616.5,46929.1 h 315 v 354.4 h -315 z"
         id="path1537" />
      <path
         style="color:#000000;fill-rule:evenodd;stroke:none;-inkscape-stroke:none"
         d="m 38616.5,46929.1 h 315 v 354.4 h -315 z"
         id="path1539" />
    </g>
  </g>
  <g
     id="g162"
     style="fill:#000000;fill-opacity:0;stroke:#000000;stroke-width:19.685;stroke-linecap:round;stroke-linejoin:round;stroke-opacity:1" />
  <g
     id="g164"
     style="fill:#000000;fill-opacity:0;stroke:#000000;stroke-width:19.685;stroke-linecap:round;stroke-linejoin:round;stroke-opacity:1" />
  <g
     id="g166"
     style="fill:#000000;fill-opacity:0;stroke:#000000;stroke-width:19.685;stroke-linecap:round;stroke-linejoin:round;stroke-opacity:1" />
  <g
     id="g168"
     style="fill:#000000;fill-opacity:0;stroke:#000000;stroke-width:19.685;stroke-linecap:round;stroke-linejoin:round;stroke-opacity:1" />
  <g
     id="g170"
     style="fill:#000000;fill-opacity:0;stroke:#000000;stroke-width:19.685;stroke-linecap:round;stroke-linejoin:round;stroke-opacity:1" />
  <g
     id="g172"
     style="fill:#000000;fill-opacity:0;stroke:#000000;stroke-width:19.685;stroke-linecap:round;stroke-linejoin:round;stroke-opacity:1" />
  <g
     id="g174"
     style="fill:#000000;fill-opacity:0;stroke:#000000;stroke-width:19.685;stroke-linecap:round;stroke-linejoin:round;stroke-opacity:1" />
  <g
     id="g176"
     style="fill:#000000;fill-opacity:0;stroke:#000000;stroke-width:19.685;stroke-linecap:round;stroke-linejoin:round;stroke-opacity:1" />
  <g
     id="g178"
     style="fill:#000000;fill-opacity:0;stroke:#000000;stroke-width:19.685;stroke-linecap:round;stroke-linejoin:round;stroke-opacity:1" />
  <g
     id="g180"
     style="fill:#000000;fill-opacity:0;stroke:#000000;stroke-width:19.685;stroke-linecap:round;stroke-linejoin:round;stroke-opacity:1" />
  <g
     id="g182"
     style="fill:#000000;fill-opacity:0;stroke:#000000;stroke-width:19.685;stroke-linecap:round;stroke-linejoin:round;stroke-opacity:1" />
  <g
     id="g184"
     style="fill:#000000;fill-opacity:0;stroke:#000000;stroke-width:19.685;stroke-linecap:round;stroke-linejoin:round;stroke-opacity:1" />
  <g
     id="g186"
     style="fill:#000000;fill-opacity:0;stroke:#000000;stroke-width:19.685;stroke-linecap:round;stroke-linejoin:round;stroke-opacity:1" />
  <g
     id="g188"
     style="fill:#000000;fill-opacity:0;stroke:#000000;stroke-width:19.685;stroke-linecap:round;stroke-linejoin:round;stroke-opacity:1" />
  <g
     id="g190"
     style="fill:#000000;fill-opacity:0;stroke:#000000;stroke-width:19.685;stroke-linecap:round;stroke-linejoin:round;stroke-opacity:1" />
  <g
     id="g192"
     style="fill:#000000;fill-opacity:0;stroke:#000000;stroke-width:19.685;stroke-linecap:round;stroke-linejoin:round;stroke-opacity:1" />
  <g
     id="g194"
     style="fill:#000000;fill-opacity:0;stroke:#000000;stroke-width:19.685;stroke-linecap:round;stroke-linejoin:round;stroke-opacity:1" />
  <g
     id="g196"
     style="fill:#000000;fill-opacity:0;stroke:#000000;stroke-width:19.685;stroke-linecap:round;stroke-linejoin:round;stroke-opacity:1" />
  <g
     id="g198"
     style="fill:#000000;fill-opacity:0;stroke:#000000;stroke-width:19.685;stroke-linecap:round;stroke-linejoin:round;stroke-opacity:1" />
  <g
     id="g200"
     style="fill:#000000;fill-opacity:0;stroke:#000000;stroke-width:19.685;stroke-linecap:round;stroke-linejoin:round;stroke-opacity:1" />
  <g
     id="g202"
     style="fill:#000000;fill-opacity:0;stroke:#000000;stroke-width:19.685;stroke-linecap:round;stroke-linejoin:round;stroke-opacity:1" />
  <g
     id="g204"
     style="fill:#000000;fill-opacity:0;stroke:#000000;stroke-width:19.685;stroke-linecap:round;stroke-linejoin:round;stroke-opacity:1" />
  <g
     id="g206"
     style="fill:#000000;fill-opacity:0;stroke:#000000;stroke-width:19.685;stroke-linecap:round;stroke-linejoin:round;stroke-opacity:1" />
  <g
     id="g208"
     style="fill:#000000;fill-opacity:0;stroke:#000000;stroke-width:19.685;stroke-linecap:round;stroke-linejoin:round;stroke-opacity:1" />
  <g
     id="g210"
     style="fill:#000000;fill-opacity:0;stroke:#000000;stroke-width:19.685;stroke-linecap:round;stroke-linejoin:round;stroke-opacity:1" />
  <g
     id="g212"
     style="fill:#000000;fill-opacity:0;stroke:#000000;stroke-width:19.685;stroke-linecap:round;stroke-linejoin:round;stroke-opacity:1" />
  <g
     id="g214"
     style="fill:#000000;fill-opacity:0;stroke:#000000;stroke-width:19.685;stroke-linecap:round;stroke-linejoin:round;stroke-opacity:1" />
  <g
     style="fill:#000000;stroke:#000000;stroke-width:0;stroke-linecap:round;stroke-linejoin:round"
     id="g220">
    <g
       id="path216">
      <path
         style="color:#000000;fill-rule:evenodd;stroke:none;-inkscape-stroke:none"
         d="m 36196.7,41677.6 9.5,1.5 9.4,2.3 9.1,3.3 8.7,4.1 8.3,5 7.7,5.7 7.2,6.5 6.5,7.2 5.7,7.7 5,8.3 4.1,8.7 3.3,9.1 2.3,9.4 1.5,9.5 0.4,9.7 v 265.7 l -0.4,9.7 -1.5,9.5 -2.3,9.4 -3.3,9.1 -4.1,8.7 -5,8.3 -5.7,7.8 -6.5,7.1 -7.2,6.5 -7.7,5.8 -8.3,4.9 -8.7,4.2 -9.1,3.2 -9.4,2.4 -9.5,1.4 -9.7,0.5 h -374 l -9.7,-0.5 -9.5,-1.4 -9.4,-2.4 -9.1,-3.2 -8.7,-4.2 -8.3,-4.9 -7.7,-5.8 -7.2,-6.5 -6.5,-7.1 -5.7,-7.8 -5,-8.3 -4.1,-8.7 -3.3,-9.1 -2.3,-9.4 -1.5,-9.5 -0.4,-9.7 v -265.7 l 0.4,-9.7 1.5,-9.5 2.3,-9.4 3.3,-9.1 4.1,-8.7 5,-8.3 5.7,-7.7 6.5,-7.2 7.2,-6.5 7.7,-5.7 8.3,-5 8.7,-4.1 9.1,-3.3 9.4,-2.3 9.5,-1.5 9.7,-0.4 h 374 z"
         id="path1545" />
      <path
         style="color:#000000;fill-rule:evenodd;stroke:none;-inkscape-stroke:none"
         d="m 36196.7,41677.6 9.5,1.5 9.4,2.3 9.1,3.3 8.7,4.1 8.3,5 7.7,5.7 7.2,6.5 6.5,7.2 5.7,7.7 5,8.3 4.1,8.7 3.3,9.1 2.3,9.4 1.5,9.5 0.4,9.7 v 265.7 l -0.4,9.7 -1.5,9.5 -2.3,9.4 -3.3,9.1 -4.1,8.7 -5,8.3 -5.7,7.8 -6.5,7.1 -7.2,6.5 -7.7,5.8 -8.3,4.9 -8.7,4.2 -9.1,3.2 -9.4,2.4 -9.5,1.4 -9.7,0.5 h -374 l -9.7,-0.5 -9.5,-1.4 -9.4,-2.4 -9.1,-3.2 -8.7,-4.2 -8.3,-4.9 -7.7,-5.8 -7.2,-6.5 -6.5,-7.1 -5.7,-7.8 -5,-8.3 -4.1,-8.7 -3.3,-9.1 -2.3,-9.4 -1.5,-9.5 -0.4,-9.7 v -265.7 l 0.4,-9.7 1.5,-9.5 2.3,-9.4 3.3,-9.1 4.1,-8.7 5,-8.3 5.7,-7.7 6.5,-7.2 7.2,-6.5 7.7,-5.7 8.3,-5 8.7,-4.1 9.1,-3.3 9.4,-2.3 9.5,-1.5 9.7,-0.4 h 374 z"
         id="path1547" />
    </g>
    <g
       id="path218">
      <path
         style="color:#000000;fill-rule:evenodd;stroke:none;-inkscape-stroke:none"
         d="m 36196.7,40860.7 9.5,1.4 9.4,2.4 9.1,3.2 8.7,4.2 8.3,4.9 7.7,5.8 7.2,6.5 6.5,7.1 5.7,7.8 5,8.3 4.1,8.7 3.3,9.1 2.3,9.4 1.5,9.5 0.4,9.7 v 265.7 l -0.4,9.7 -1.5,9.5 -2.3,9.4 -3.3,9.1 -4.1,8.7 -5,8.3 -5.7,7.7 -6.5,7.2 -7.2,6.5 -7.7,5.7 -8.3,5 -8.7,4.1 -9.1,3.3 -9.4,2.3 -9.5,1.5 -9.7,0.4 h -374 l -9.7,-0.4 -9.5,-1.5 -9.4,-2.3 -9.1,-3.3 -8.7,-4.1 -8.3,-5 -7.7,-5.7 -7.2,-6.5 -6.5,-7.2 -5.7,-7.7 -5,-8.3 -4.1,-8.7 -3.3,-9.1 -2.3,-9.4 -1.5,-9.5 -0.4,-9.7 v -265.7 l 0.4,-9.7 1.5,-9.5 2.3,-9.4 3.3,-9.1 4.1,-8.7 5,-8.3 5.7,-7.8 6.5,-7.1 7.2,-6.5 7.7,-5.8 8.3,-4.9 8.7,-4.2 9.1,-3.2 9.4,-2.4 9.5,-1.4 9.7,-0.5 h 374 z"
         id="path1553" />
      <path
         style="color:#000000;fill-rule:evenodd;stroke:none;-inkscape-stroke:none"
         d="m 36196.7,40860.7 9.5,1.4 9.4,2.4 9.1,3.2 8.7,4.2 8.3,4.9 7.7,5.8 7.2,6.5 6.5,7.1 5.7,7.8 5,8.3 4.1,8.7 3.3,9.1 2.3,9.4 1.5,9.5 0.4,9.7 v 265.7 l -0.4,9.7 -1.5,9.5 -2.3,9.4 -3.3,9.1 -4.1,8.7 -5,8.3 -5.7,7.7 -6.5,7.2 -7.2,6.5 -7.7,5.7 -8.3,5 -8.7,4.1 -9.1,3.3 -9.4,2.3 -9.5,1.5 -9.7,0.4 h -374 l -9.7,-0.4 -9.5,-1.5 -9.4,-2.3 -9.1,-3.3 -8.7,-4.1 -8.3,-5 -7.7,-5.7 -7.2,-6.5 -6.5,-7.2 -5.7,-7.7 -5,-8.3 -4.1,-8.7 -3.3,-9.1 -2.3,-9.4 -1.5,-9.5 -0.4,-9.7 v -265.7 l 0.4,-9.7 1.5,-9.5 2.3,-9.4 3.3,-9.1 4.1,-8.7 5,-8.3 5.7,-7.8 6.5,-7.1 7.2,-6.5 7.7,-5.8 8.3,-4.9 8.7,-4.2 9.1,-3.2 9.4,-2.4 9.5,-1.4 9.7,-0.5 h 374 z"
         id="path1555" />
    </g>
  </g>
  <g
     id="g222"
     style="fill:#000000;fill-opacity:0;stroke:#000000;stroke-width:19.685;stroke-linecap:round;stroke-linejoin:round;stroke-opacity:1" />
  <g
     style="fill:#000000;stroke:#000000;stroke-width:0;stroke-linecap:round;stroke-linejoin:round"
     id="g228">
    <g
       id="path224">
      <path
         style="color:#000000;fill-rule:evenodd;stroke:none;-inkscape-stroke:none"
         d="m 41542.7,41954.8 9.6,1.4 9.3,2.4 9.1,3.2 8.8,4.2 8.3,4.9 7.7,5.8 7.2,6.5 6.5,7.1 5.7,7.8 5,8.3 4.1,8.7 3.3,9.1 2.3,9.4 1.4,9.5 0.5,9.7 v 324.8 l -0.5,9.6 -1.4,9.6 -2.3,9.3 -3.3,9.1 -4.1,8.8 -5,8.2 -5.7,7.8 -6.5,7.2 -7.2,6.4 -7.7,5.8 -8.3,5 -8.8,4.1 -9.1,3.2 -9.3,2.4 -9.6,1.4 -9.6,0.5 h -866.2 l -9.6,-0.5 -9.6,-1.4 -9.3,-2.4 -9.1,-3.2 -8.8,-4.1 -8.3,-5 -7.7,-5.8 -7.2,-6.4 -6.5,-7.2 -5.7,-7.8 -5,-8.2 -4.1,-8.8 -3.3,-9.1 -2.3,-9.3 -1.4,-9.6 -0.5,-9.6 v -324.8 l 0.5,-9.7 1.4,-9.5 2.3,-9.4 3.3,-9.1 4.1,-8.7 5,-8.3 5.7,-7.8 6.5,-7.1 7.2,-6.5 7.7,-5.8 8.3,-4.9 8.8,-4.2 9.1,-3.2 9.3,-2.4 9.6,-1.4 9.6,-0.5 h 866.2 z"
         id="path1561" />
      <path
         style="color:#000000;fill-rule:evenodd;stroke:none;-inkscape-stroke:none"
         d="m 41542.7,41954.8 9.6,1.4 9.3,2.4 9.1,3.2 8.8,4.2 8.3,4.9 7.7,5.8 7.2,6.5 6.5,7.1 5.7,7.8 5,8.3 4.1,8.7 3.3,9.1 2.3,9.4 1.4,9.5 0.5,9.7 v 324.8 l -0.5,9.6 -1.4,9.6 -2.3,9.3 -3.3,9.1 -4.1,8.8 -5,8.2 -5.7,7.8 -6.5,7.2 -7.2,6.4 -7.7,5.8 -8.3,5 -8.8,4.1 -9.1,3.2 -9.3,2.4 -9.6,1.4 -9.6,0.5 h -866.2 l -9.6,-0.5 -9.6,-1.4 -9.3,-2.4 -9.1,-3.2 -8.8,-4.1 -8.3,-5 -7.7,-5.8 -7.2,-6.4 -6.5,-7.2 -5.7,-7.8 -5,-8.2 -4.1,-8.8 -3.3,-9.1 -2.3,-9.3 -1.4,-9.6 -0.5,-9.6 v -324.8 l 0.5,-9.7 1.4,-9.5 2.3,-9.4 3.3,-9.1 4.1,-8.7 5,-8.3 5.7,-7.8 6.5,-7.1 7.2,-6.5 7.7,-5.8 8.3,-4.9 8.8,-4.2 9.1,-3.2 9.3,-2.4 9.6,-1.4 9.6,-0.5 h 866.2 z"
         id="path1563" />
    </g>
    <g
       id="path226">
      <path
         style="color:#000000;fill-rule:evenodd;stroke:none;-inkscape-stroke:none"
         d="m 41542.7,40724.5 9.6,1.4 9.3,2.4 9.1,3.2 8.8,4.1 8.3,5 7.7,5.8 7.2,6.4 6.5,7.2 5.7,7.8 5,8.2 4.1,8.8 3.3,9.1 2.3,9.3 1.4,9.6 0.5,9.6 v 324.8 l -0.5,9.7 -1.4,9.5 -2.3,9.4 -3.3,9.1 -4.1,8.7 -5,8.3 -5.7,7.8 -6.5,7.1 -7.2,6.5 -7.7,5.8 -8.3,4.9 -8.8,4.2 -9.1,3.2 -9.3,2.4 -9.6,1.4 -9.6,0.5 h -866.2 l -9.6,-0.5 -9.6,-1.4 -9.3,-2.4 -9.1,-3.2 -8.8,-4.2 -8.3,-4.9 -7.7,-5.8 -7.2,-6.5 -6.5,-7.1 -5.7,-7.8 -5,-8.3 -4.1,-8.7 -3.3,-9.1 -2.3,-9.4 -1.4,-9.5 -0.5,-9.7 v -324.8 l 0.5,-9.6 1.4,-9.6 2.3,-9.3 3.3,-9.1 4.1,-8.8 5,-8.2 5.7,-7.8 6.5,-7.2 7.2,-6.4 7.7,-5.8 8.3,-5 8.8,-4.1 9.1,-3.2 9.3,-2.4 9.6,-1.4 9.6,-0.5 h 866.2 z"
         id="path1569" />
      <path
         style="color:#000000;fill-rule:evenodd;stroke:none;-inkscape-stroke:none"
         d="m 41542.7,40724.5 9.6,1.4 9.3,2.4 9.1,3.2 8.8,4.1 8.3,5 7.7,5.8 7.2,6.4 6.5,7.2 5.7,7.8 5,8.2 4.1,8.8 3.3,9.1 2.3,9.3 1.4,9.6 0.5,9.6 v 324.8 l -0.5,9.7 -1.4,9.5 -2.3,9.4 -3.3,9.1 -4.1,8.7 -5,8.3 -5.7,7.8 -6.5,7.1 -7.2,6.5 -7.7,5.8 -8.3,4.9 -8.8,4.2 -9.1,3.2 -9.3,2.4 -9.6,1.4 -9.6,0.5 h -866.2 l -9.6,-0.5 -9.6,-1.4 -9.3,-2.4 -9.1,-3.2 -8.8,-4.2 -8.3,-4.9 -7.7,-5.8 -7.2,-6.5 -6.5,-7.1 -5.7,-7.8 -5,-8.3 -4.1,-8.7 -3.3,-9.1 -2.3,-9.4 -1.4,-9.5 -0.5,-9.7 v -324.8 l 0.5,-9.6 1.4,-9.6 2.3,-9.3 3.3,-9.1 4.1,-8.8 5,-8.2 5.7,-7.8 6.5,-7.2 7.2,-6.4 7.7,-5.8 8.3,-5 8.8,-4.1 9.1,-3.2 9.3,-2.4 9.6,-1.4 9.6,-0.5 h 866.2 z"
         id="path1571" />
    </g>
  </g>
  <g
     id="g230"
     style="fill:#000000;fill-opacity:0;stroke:#000000;stroke-width:19.685;stroke-linecap:round;stroke-linejoin:round;stroke-opacity:1" />
  <g
     id="g232"
     style="fill:#000000;fill-opacity:0;stroke:#000000;stroke-width:19.685;stroke-linecap:round;stroke-linejoin:round;stroke-opacity:1" />
  <g
     id="g234"
     style="fill:#000000;fill-opacity:0;stroke:#000000;stroke-width:19.685;stroke-linecap:round;stroke-linejoin:round;stroke-opacity:1" />
  <g
     id="g236"
     style="fill:#000000;fill-opacity:0;stroke:#000000;stroke-width:19.685;stroke-linecap:round;stroke-linejoin:round;stroke-opacity:1" />
  <g
     id="g238"
     style="fill:#000000;fill-opacity:0;stroke:#000000;stroke-width:19.685;stroke-linecap:round;stroke-linejoin:round;stroke-opacity:1" />
  <g
     id="g240"
     style="fill:#000000;fill-opacity:0;stroke:#000000;stroke-width:19.685;stroke-linecap:round;stroke-linejoin:round;stroke-opacity:1" />
  <g
     style="fill:#000000;stroke:#000000;stroke-width:0;stroke-linecap:round;stroke-linejoin:round"
     id="g246">
    <g
       id="path242">
      <path
         style="color:#000000;fill-rule:evenodd;stroke:none;-inkscape-stroke:none"
         d="m 33796.7,33569.2 9.5,1.4 9.4,2.3 9.1,3.3 8.7,4.1 8.3,5 7.7,5.7 7.2,6.5 6.5,7.2 5.7,7.7 5,8.3 4.1,8.8 3.3,9.1 2.3,9.3 1.5,9.6 0.4,9.6 v 265.8 l -0.4,9.6 -1.5,9.6 -2.3,9.3 -3.3,9.1 -4.1,8.8 -5,8.3 -5.7,7.7 -6.5,7.2 -7.2,6.5 -7.7,5.7 -8.3,5 -8.7,4.1 -9.1,3.3 -9.4,2.3 -9.5,1.4 -9.7,0.5 h -374 l -9.7,-0.5 -9.5,-1.4 -9.4,-2.3 -9.1,-3.3 -8.7,-4.1 -8.3,-5 -7.7,-5.7 -7.2,-6.5 -6.5,-7.2 -5.7,-7.7 -5,-8.3 -4.1,-8.8 -3.3,-9.1 -2.3,-9.3 -1.5,-9.6 -0.4,-9.6 v -265.8 l 0.4,-9.6 1.5,-9.6 2.3,-9.3 3.3,-9.1 4.1,-8.8 5,-8.3 5.7,-7.7 6.5,-7.2 7.2,-6.5 7.7,-5.7 8.3,-5 8.7,-4.1 9.1,-3.3 9.4,-2.3 9.5,-1.4 9.7,-0.5 h 374 z"
         id="path1577" />
      <path
         style="color:#000000;fill-rule:evenodd;stroke:none;-inkscape-stroke:none"
         d="m 33796.7,33569.2 9.5,1.4 9.4,2.3 9.1,3.3 8.7,4.1 8.3,5 7.7,5.7 7.2,6.5 6.5,7.2 5.7,7.7 5,8.3 4.1,8.8 3.3,9.1 2.3,9.3 1.5,9.6 0.4,9.6 v 265.8 l -0.4,9.6 -1.5,9.6 -2.3,9.3 -3.3,9.1 -4.1,8.8 -5,8.3 -5.7,7.7 -6.5,7.2 -7.2,6.5 -7.7,5.7 -8.3,5 -8.7,4.1 -9.1,3.3 -9.4,2.3 -9.5,1.4 -9.7,0.5 h -374 l -9.7,-0.5 -9.5,-1.4 -9.4,-2.3 -9.1,-3.3 -8.7,-4.1 -8.3,-5 -7.7,-5.7 -7.2,-6.5 -6.5,-7.2 -5.7,-7.7 -5,-8.3 -4.1,-8.8 -3.3,-9.1 -2.3,-9.3 -1.5,-9.6 -0.4,-9.6 v -265.8 l 0.4,-9.6 1.5,-9.6 2.3,-9.3 3.3,-9.1 4.1,-8.8 5,-8.3 5.7,-7.7 6.5,-7.2 7.2,-6.5 7.7,-5.7 8.3,-5 8.7,-4.1 9.1,-3.3 9.4,-2.3 9.5,-1.4 9.7,-0.5 h 374 z"
         id="path1579" />
    </g>
    <g
       id="path244">
      <path
         style="color:#000000;fill-rule:evenodd;stroke:none;-inkscape-stroke:none"
         d="m 33796.7,34386.1 9.5,1.4 9.4,2.4 9.1,3.2 8.7,4.2 8.3,4.9 7.7,5.8 7.2,6.5 6.5,7.1 5.7,7.8 5,8.3 4.1,8.7 3.3,9.1 2.3,9.4 1.5,9.5 0.4,9.7 v 265.7 l -0.4,9.7 -1.5,9.5 -2.3,9.4 -3.3,9.1 -4.1,8.7 -5,8.3 -5.7,7.7 -6.5,7.2 -7.2,6.5 -7.7,5.7 -8.3,5 -8.7,4.1 -9.1,3.3 -9.4,2.3 -9.5,1.5 -9.7,0.4 h -374 l -9.7,-0.4 -9.5,-1.5 -9.4,-2.3 -9.1,-3.3 -8.7,-4.1 -8.3,-5 -7.7,-5.7 -7.2,-6.5 -6.5,-7.2 -5.7,-7.7 -5,-8.3 -4.1,-8.7 -3.3,-9.1 -2.3,-9.4 -1.5,-9.5 -0.4,-9.7 v -265.7 l 0.4,-9.7 1.5,-9.5 2.3,-9.4 3.3,-9.1 4.1,-8.7 5,-8.3 5.7,-7.8 6.5,-7.1 7.2,-6.5 7.7,-5.8 8.3,-4.9 8.7,-4.2 9.1,-3.2 9.4,-2.4 9.5,-1.4 9.7,-0.5 h 374 z"
         id="path1585" />
      <path
         style="color:#000000;fill-rule:evenodd;stroke:none;-inkscape-stroke:none"
         d="m 33796.7,34386.1 9.5,1.4 9.4,2.4 9.1,3.2 8.7,4.2 8.3,4.9 7.7,5.8 7.2,6.5 6.5,7.1 5.7,7.8 5,8.3 4.1,8.7 3.3,9.1 2.3,9.4 1.5,9.5 0.4,9.7 v 265.7 l -0.4,9.7 -1.5,9.5 -2.3,9.4 -3.3,9.1 -4.1,8.7 -5,8.3 -5.7,7.7 -6.5,7.2 -7.2,6.5 -7.7,5.7 -8.3,5 -8.7,4.1 -9.1,3.3 -9.4,2.3 -9.5,1.5 -9.7,0.4 h -374 l -9.7,-0.4 -9.5,-1.5 -9.4,-2.3 -9.1,-3.3 -8.7,-4.1 -8.3,-5 -7.7,-5.7 -7.2,-6.5 -6.5,-7.2 -5.7,-7.7 -5,-8.3 -4.1,-8.7 -3.3,-9.1 -2.3,-9.4 -1.5,-9.5 -0.4,-9.7 v -265.7 l 0.4,-9.7 1.5,-9.5 2.3,-9.4 3.3,-9.1 4.1,-8.7 5,-8.3 5.7,-7.8 6.5,-7.1 7.2,-6.5 7.7,-5.8 8.3,-4.9 8.7,-4.2 9.1,-3.2 9.4,-2.4 9.5,-1.4 9.7,-0.5 h 374 z"
         id="path1587" />
    </g>
  </g>
  <g
     id="g248"
     style="fill:#000000;fill-opacity:0;stroke:#000000;stroke-width:19.685;stroke-linecap:round;stroke-linejoin:round;stroke-opacity:1" />
  <g
     id="g250"
     style="fill:#000000;fill-opacity:0;stroke:#000000;stroke-width:19.685;stroke-linecap:round;stroke-linejoin:round;stroke-opacity:1" />
  <g
     id="g252"
     style="fill:#000000;fill-opacity:0;stroke:#000000;stroke-width:19.685;stroke-linecap:round;stroke-linejoin:round;stroke-opacity:1" />
  <metadata
     id="metadata1077">
    <rdf:RDF>
      <cc:Work
         rdf:about="">
        <dc:title>SVG Picture created as battery_can_monitor-F_Paste.svg date 2021/12/21 16:41:34 </dc:title>
      </cc:Work>
    </rdf:RDF>
  </metadata>
</svg>
