<?xml version="1.0" encoding="UTF-8" standalone="no"?>
<svg
   version="1.1"
   width="29.700220cm"
   height="21.000720cm"
   viewBox="0 0 116930 82680"
   id="svg3112"
   sodipodi:docname="battery_can_monitor-F_Paste.svg"
   inkscape:version="1.1 (c68e22c387, 2021-05-23)"
   xmlns:inkscape="http://www.inkscape.org/namespaces/inkscape"
   xmlns:sodipodi="http://sodipodi.sourceforge.net/DTD/sodipodi-0.dtd"
   xmlns="http://www.w3.org/2000/svg"
   xmlns:svg="http://www.w3.org/2000/svg">
  <defs
     id="defs3116" />
  <sodipodi:namedview
     id="namedview3114"
     pagecolor="#ffffff"
     bordercolor="#666666"
     borderopacity="1.0"
     inkscape:pageshadow="2"
     inkscape:pageopacity="0.0"
     inkscape:pagecheckerboard="0"
     inkscape:document-units="cm"
     showgrid="false"
     inkscape:zoom="1.0973533"
     inkscape:cx="381.37216"
     inkscape:cy="396.86398"
     inkscape:window-width="1462"
     inkscape:window-height="1080"
     inkscape:window-x="444"
     inkscape:window-y="0"
     inkscape:window-maximized="0"
     inkscape:current-layer="svg3112" />
  <title
     id="title2866">SVG Picture created as battery_can_monitor-F_Paste.svg date 2021/12/13 10:54:18 </title>
  <desc
     id="desc2868">Picture generated by PCBNEW </desc>
  <g
     style="fill:#000000; fill-opacity:1;stroke:#000000; stroke-opacity:1; stroke-linecap:round; stroke-linejoin:round;"
     transform="translate(0 0) scale(1 1)"
     id="g2870" />
  <g
     style="fill:#000000; fill-opacity:0.0;  stroke:#000000; stroke-width:-0.000393701; stroke-opacity:1;  stroke-linecap:round; stroke-linejoin:round;"
     id="g2872" />
  <g
     id="path2874"
     style="fill:#ff0000;fill-opacity:1;stroke:#ff0000;stroke-width:19.685;stroke-linecap:round;stroke-linejoin:round;stroke-miterlimit:4;stroke-dasharray:none;stroke-opacity:1">
    <path
       style="color:#000000;fill:#ff0000;fill-opacity:1;stroke:#ff0000;stroke-width:19.685;stroke-linecap:butt;stroke-linejoin:miter;stroke-miterlimit:4;stroke-dasharray:none;stroke-opacity:1"
       d="M 19685,55118 V 19685"
       id="path4916" />
    <path
       style="color:#000000;fill:#ff0000;fill-opacity:1;stroke:#ff0000;stroke-width:19.685;stroke-linecap:butt;stroke-linejoin:miter;stroke-miterlimit:4;stroke-dasharray:none;stroke-opacity:1"
       d="m 19685,19675.158 a 9.8424997,9.8424997 0 0 0 -9.842,9.842 v 35433 a 9.8424997,9.8424997 0 0 0 9.842,9.842 9.8424997,9.8424997 0 0 0 9.842,-9.842 V 19685 a 9.8424997,9.8424997 0 0 0 -9.842,-9.842 z"
       id="path4918" />
  </g>
  <g
     id="path2876"
     style="fill:#ff0000;fill-opacity:1;stroke:#ff0000;stroke-width:19.685;stroke-linecap:round;stroke-linejoin:round;stroke-miterlimit:4;stroke-dasharray:none;stroke-opacity:1">
    <path
       style="color:#000000;fill:#ff0000;fill-opacity:1;stroke:#ff0000;stroke-width:19.685;stroke-linecap:butt;stroke-linejoin:miter;stroke-miterlimit:4;stroke-dasharray:none;stroke-opacity:1"
       d="M 47244,55118 H 19685"
       id="path4924" />
    <path
       style="color:#000000;fill:#ff0000;fill-opacity:1;stroke:#ff0000;stroke-width:19.685;stroke-linecap:butt;stroke-linejoin:miter;stroke-miterlimit:4;stroke-dasharray:none;stroke-opacity:1"
       d="m 19685,55108.158 a 9.8424997,9.8424997 0 0 0 -9.842,9.842 9.8424997,9.8424997 0 0 0 9.842,9.842 h 27559 a 9.8424997,9.8424997 0 0 0 9.842,-9.842 9.8424997,9.8424997 0 0 0 -9.842,-9.842 z"
       id="path4926" />
  </g>
  <g
     id="path2878"
     style="fill:#ff0000;fill-opacity:1;stroke:#ff0000;stroke-width:19.685;stroke-linecap:round;stroke-linejoin:round;stroke-miterlimit:4;stroke-dasharray:none;stroke-opacity:1">
    <path
       style="color:#000000;fill:#ff0000;fill-opacity:1;stroke:#ff0000;stroke-width:19.685;stroke-linecap:butt;stroke-linejoin:miter;stroke-miterlimit:4;stroke-dasharray:none;stroke-opacity:1"
       d="M 47244,19685 V 55118"
       id="path4932" />
    <path
       style="color:#000000;fill:#ff0000;fill-opacity:1;stroke:#ff0000;stroke-width:19.685;stroke-linecap:butt;stroke-linejoin:miter;stroke-miterlimit:4;stroke-dasharray:none;stroke-opacity:1"
       d="m 47244,19675.158 a 9.8424997,9.8424997 0 0 0 -9.842,9.842 v 35433 a 9.8424997,9.8424997 0 0 0 9.842,9.842 9.8424997,9.8424997 0 0 0 9.842,-9.842 V 19685 a 9.8424997,9.8424997 0 0 0 -9.842,-9.842 z"
       id="path4934" />
  </g>
  <g
     id="path2880"
     style="fill:#ff0000;fill-opacity:1;stroke:#ff0000;stroke-width:19.685;stroke-linecap:round;stroke-linejoin:round;stroke-miterlimit:4;stroke-dasharray:none;stroke-opacity:1">
    <path
       style="color:#000000;fill:#ff0000;fill-opacity:1;stroke:#ff0000;stroke-width:19.685;stroke-linecap:butt;stroke-linejoin:miter;stroke-miterlimit:4;stroke-dasharray:none;stroke-opacity:1"
       d="M 19685,19685 H 47244"
       id="path4940" />
    <path
       style="color:#000000;fill:#ff0000;fill-opacity:1;stroke:#ff0000;stroke-width:19.685;stroke-linecap:butt;stroke-linejoin:miter;stroke-miterlimit:4;stroke-dasharray:none;stroke-opacity:1"
       d="m 19685,19675.158 a 9.8424997,9.8424997 0 0 0 -9.842,9.842 9.8424997,9.8424997 0 0 0 9.842,9.842 h 27559 a 9.8424997,9.8424997 0 0 0 9.842,-9.842 9.8424997,9.8424997 0 0 0 -9.842,-9.842 z"
       id="path4942" />
  </g>
  <g
     id="g2882"
     style="fill:#000000;fill-opacity:1;stroke:#000000;stroke-width:19.685;stroke-linecap:round;stroke-linejoin:round;stroke-miterlimit:4;stroke-dasharray:none" />
  <g
     style="fill:#000000;fill-opacity:1;stroke:#000000;stroke-width:19.685;stroke-linecap:round;stroke-linejoin:round;stroke-miterlimit:4;stroke-dasharray:none"
     id="g2884" />
  <g
     style="fill:#000000;fill-opacity:1;stroke:#000000;stroke-width:19.685;stroke-linecap:round;stroke-linejoin:round;stroke-miterlimit:4;stroke-dasharray:none"
     id="g2926">
    <g
       id="path2886"
       style="fill:#000000;fill-opacity:1;stroke-width:19.685;stroke-miterlimit:4;stroke-dasharray:none">
      <path
         style="color:#000000;fill:#000000;fill-opacity:1;fill-rule:evenodd;stroke:none;stroke-width:19.685;stroke-miterlimit:4;stroke-dasharray:none"
         d="m 33865.7,32195.5 4.2,0.6 4.1,1 4,1.5 3.8,1.8 3.7,2.2 3.4,2.5 3.1,2.9 2.9,3.1 2.5,3.4 2.2,3.7 1.8,3.8 1.5,4 1,4.1 0.6,4.2 0.2,4.3 v 86.6 l -0.2,4.2 -0.6,4.2 -1,4.2 -1.5,4 -1.8,3.8 -2.2,3.7 -2.5,3.4 -2.9,3.1 -3.1,2.9 -3.4,2.5 -3.7,2.2 -3.8,1.8 -4,1.4 -4.1,1.1 -4.2,0.6 -4.3,0.2 h -86.6 l -4.2,-0.2 -4.2,-0.6 -4.2,-1.1 -4,-1.4 -3.8,-1.8 -3.7,-2.2 -3.4,-2.5 -3.1,-2.9 -2.9,-3.1 -2.5,-3.4 -2.2,-3.7 -1.8,-3.8 -1.4,-4 -1.1,-4.2 -0.6,-4.2 -0.2,-4.2 v -86.6 l 0.2,-4.3 0.6,-4.2 1.1,-4.1 1.4,-4 1.8,-3.8 2.2,-3.7 2.5,-3.4 2.9,-3.1 3.1,-2.9 3.4,-2.5 3.7,-2.2 3.8,-1.8 4,-1.5 4.2,-1 4.2,-0.6 4.2,-0.2 h 86.6 z"
         id="path4948" />
      <path
         style="color:#000000;fill:#000000;fill-opacity:1;fill-rule:evenodd;stroke:none;stroke-width:19.685;stroke-miterlimit:4;stroke-dasharray:none"
         d="m 33865.7,32195.5 4.2,0.6 4.1,1 4,1.5 3.8,1.8 3.7,2.2 3.4,2.5 3.1,2.9 2.9,3.1 2.5,3.4 2.2,3.7 1.8,3.8 1.5,4 1,4.1 0.6,4.2 0.2,4.3 v 86.6 l -0.2,4.2 -0.6,4.2 -1,4.2 -1.5,4 -1.8,3.8 -2.2,3.7 -2.5,3.4 -2.9,3.1 -3.1,2.9 -3.4,2.5 -3.7,2.2 -3.8,1.8 -4,1.4 -4.1,1.1 -4.2,0.6 -4.3,0.2 h -86.6 l -4.2,-0.2 -4.2,-0.6 -4.2,-1.1 -4,-1.4 -3.8,-1.8 -3.7,-2.2 -3.4,-2.5 -3.1,-2.9 -2.9,-3.1 -2.5,-3.4 -2.2,-3.7 -1.8,-3.8 -1.4,-4 -1.1,-4.2 -0.6,-4.2 -0.2,-4.2 v -86.6 l 0.2,-4.3 0.6,-4.2 1.1,-4.1 1.4,-4 1.8,-3.8 2.2,-3.7 2.5,-3.4 2.9,-3.1 3.1,-2.9 3.4,-2.5 3.7,-2.2 3.8,-1.8 4,-1.5 4.2,-1 4.2,-0.6 4.2,-0.2 h 86.6 z"
         id="path4950" />
    </g>
    <g
       id="path2888"
       style="fill:#000000;fill-opacity:1;stroke-width:19.685;stroke-miterlimit:4;stroke-dasharray:none">
      <path
         style="color:#000000;fill:#000000;fill-opacity:1;fill-rule:evenodd;stroke:none;stroke-width:19.685;stroke-miterlimit:4;stroke-dasharray:none"
         d="m 33629.4,32195.5 4.2,0.6 4.2,1 4,1.5 3.8,1.8 3.7,2.2 3.4,2.5 3.1,2.9 2.9,3.1 2.5,3.4 2.2,3.7 1.8,3.8 1.4,4 1.1,4.1 0.6,4.2 0.2,4.3 v 86.6 l -0.2,4.2 -0.6,4.2 -1.1,4.2 -1.4,4 -1.8,3.8 -2.2,3.7 -2.5,3.4 -2.9,3.1 -3.1,2.9 -3.4,2.5 -3.7,2.2 -3.8,1.8 -4,1.4 -4.2,1.1 -4.2,0.6 -4.2,0.2 h -86.6 l -4.3,-0.2 -4.2,-0.6 -4.1,-1.1 -4,-1.4 -3.8,-1.8 -3.7,-2.2 -3.4,-2.5 -3.1,-2.9 -2.9,-3.1 -2.5,-3.4 -2.2,-3.7 -1.8,-3.8 -1.5,-4 -1,-4.2 -0.6,-4.2 -0.2,-4.2 v -86.6 l 0.2,-4.3 0.6,-4.2 1,-4.1 1.5,-4 1.8,-3.8 2.2,-3.7 2.5,-3.4 2.9,-3.1 3.1,-2.9 3.4,-2.5 3.7,-2.2 3.8,-1.8 4,-1.5 4.1,-1 4.2,-0.6 4.3,-0.2 h 86.6 z"
         id="path4956" />
      <path
         style="color:#000000;fill:#000000;fill-opacity:1;fill-rule:evenodd;stroke:none;stroke-width:19.685;stroke-miterlimit:4;stroke-dasharray:none"
         d="m 33629.4,32195.5 4.2,0.6 4.2,1 4,1.5 3.8,1.8 3.7,2.2 3.4,2.5 3.1,2.9 2.9,3.1 2.5,3.4 2.2,3.7 1.8,3.8 1.4,4 1.1,4.1 0.6,4.2 0.2,4.3 v 86.6 l -0.2,4.2 -0.6,4.2 -1.1,4.2 -1.4,4 -1.8,3.8 -2.2,3.7 -2.5,3.4 -2.9,3.1 -3.1,2.9 -3.4,2.5 -3.7,2.2 -3.8,1.8 -4,1.4 -4.2,1.1 -4.2,0.6 -4.2,0.2 h -86.6 l -4.3,-0.2 -4.2,-0.6 -4.1,-1.1 -4,-1.4 -3.8,-1.8 -3.7,-2.2 -3.4,-2.5 -3.1,-2.9 -2.9,-3.1 -2.5,-3.4 -2.2,-3.7 -1.8,-3.8 -1.5,-4 -1,-4.2 -0.6,-4.2 -0.2,-4.2 v -86.6 l 0.2,-4.3 0.6,-4.2 1,-4.1 1.5,-4 1.8,-3.8 2.2,-3.7 2.5,-3.4 2.9,-3.1 3.1,-2.9 3.4,-2.5 3.7,-2.2 3.8,-1.8 4,-1.5 4.1,-1 4.2,-0.6 4.3,-0.2 h 86.6 z"
         id="path4958" />
    </g>
    <g
       id="path2890"
       style="fill:#000000;fill-opacity:1;stroke-width:19.685;stroke-miterlimit:4;stroke-dasharray:none">
      <path
         style="color:#000000;fill:#000000;fill-opacity:1;fill-rule:evenodd;stroke:none;stroke-width:19.685;stroke-miterlimit:4;stroke-dasharray:none"
         d="m 33865.7,32431.7 4.2,0.6 4.1,1.1 4,1.4 3.8,1.8 3.7,2.2 3.4,2.5 3.1,2.9 2.9,3.1 2.5,3.4 2.2,3.7 1.8,3.8 1.5,4 1,4.2 0.6,4.2 0.2,4.2 v 86.6 l -0.2,4.3 -0.6,4.2 -1,4.1 -1.5,4 -1.8,3.8 -2.2,3.7 -2.5,3.4 -2.9,3.1 -3.1,2.9 -3.4,2.5 -3.7,2.2 -3.8,1.8 -4,1.5 -4.1,1 -4.2,0.6 -4.3,0.2 h -86.6 l -4.2,-0.2 -4.2,-0.6 -4.2,-1 -4,-1.5 -3.8,-1.8 -3.7,-2.2 -3.4,-2.5 -3.1,-2.9 -2.9,-3.1 -2.5,-3.4 -2.2,-3.7 -1.8,-3.8 -1.4,-4 -1.1,-4.1 -0.6,-4.2 -0.2,-4.3 v -86.6 l 0.2,-4.2 0.6,-4.2 1.1,-4.2 1.4,-4 1.8,-3.8 2.2,-3.7 2.5,-3.4 2.9,-3.1 3.1,-2.9 3.4,-2.5 3.7,-2.2 3.8,-1.8 4,-1.4 4.2,-1.1 4.2,-0.6 4.2,-0.2 h 86.6 z"
         id="path4964" />
      <path
         style="color:#000000;fill:#000000;fill-opacity:1;fill-rule:evenodd;stroke:none;stroke-width:19.685;stroke-miterlimit:4;stroke-dasharray:none"
         d="m 33865.7,32431.7 4.2,0.6 4.1,1.1 4,1.4 3.8,1.8 3.7,2.2 3.4,2.5 3.1,2.9 2.9,3.1 2.5,3.4 2.2,3.7 1.8,3.8 1.5,4 1,4.2 0.6,4.2 0.2,4.2 v 86.6 l -0.2,4.3 -0.6,4.2 -1,4.1 -1.5,4 -1.8,3.8 -2.2,3.7 -2.5,3.4 -2.9,3.1 -3.1,2.9 -3.4,2.5 -3.7,2.2 -3.8,1.8 -4,1.5 -4.1,1 -4.2,0.6 -4.3,0.2 h -86.6 l -4.2,-0.2 -4.2,-0.6 -4.2,-1 -4,-1.5 -3.8,-1.8 -3.7,-2.2 -3.4,-2.5 -3.1,-2.9 -2.9,-3.1 -2.5,-3.4 -2.2,-3.7 -1.8,-3.8 -1.4,-4 -1.1,-4.1 -0.6,-4.2 -0.2,-4.3 v -86.6 l 0.2,-4.2 0.6,-4.2 1.1,-4.2 1.4,-4 1.8,-3.8 2.2,-3.7 2.5,-3.4 2.9,-3.1 3.1,-2.9 3.4,-2.5 3.7,-2.2 3.8,-1.8 4,-1.4 4.2,-1.1 4.2,-0.6 4.2,-0.2 h 86.6 z"
         id="path4966" />
    </g>
    <g
       id="path2892"
       style="fill:#000000;fill-opacity:1;stroke-width:19.685;stroke-miterlimit:4;stroke-dasharray:none">
      <path
         style="color:#000000;fill:#000000;fill-opacity:1;fill-rule:evenodd;stroke:none;stroke-width:19.685;stroke-miterlimit:4;stroke-dasharray:none"
         d="m 33629.4,32431.7 4.2,0.6 4.2,1.1 4,1.4 3.8,1.8 3.7,2.2 3.4,2.5 3.1,2.9 2.9,3.1 2.5,3.4 2.2,3.7 1.8,3.8 1.4,4 1.1,4.2 0.6,4.2 0.2,4.2 v 86.6 l -0.2,4.3 -0.6,4.2 -1.1,4.1 -1.4,4 -1.8,3.8 -2.2,3.7 -2.5,3.4 -2.9,3.1 -3.1,2.9 -3.4,2.5 -3.7,2.2 -3.8,1.8 -4,1.5 -4.2,1 -4.2,0.6 -4.2,0.2 h -86.6 l -4.3,-0.2 -4.2,-0.6 -4.1,-1 -4,-1.5 -3.8,-1.8 -3.7,-2.2 -3.4,-2.5 -3.1,-2.9 -2.9,-3.1 -2.5,-3.4 -2.2,-3.7 -1.8,-3.8 -1.5,-4 -1,-4.1 -0.6,-4.2 -0.2,-4.3 v -86.6 l 0.2,-4.2 0.6,-4.2 1,-4.2 1.5,-4 1.8,-3.8 2.2,-3.7 2.5,-3.4 2.9,-3.1 3.1,-2.9 3.4,-2.5 3.7,-2.2 3.8,-1.8 4,-1.4 4.1,-1.1 4.2,-0.6 4.3,-0.2 h 86.6 z"
         id="path4972" />
      <path
         style="color:#000000;fill:#000000;fill-opacity:1;fill-rule:evenodd;stroke:none;stroke-width:19.685;stroke-miterlimit:4;stroke-dasharray:none"
         d="m 33629.4,32431.7 4.2,0.6 4.2,1.1 4,1.4 3.8,1.8 3.7,2.2 3.4,2.5 3.1,2.9 2.9,3.1 2.5,3.4 2.2,3.7 1.8,3.8 1.4,4 1.1,4.2 0.6,4.2 0.2,4.2 v 86.6 l -0.2,4.3 -0.6,4.2 -1.1,4.1 -1.4,4 -1.8,3.8 -2.2,3.7 -2.5,3.4 -2.9,3.1 -3.1,2.9 -3.4,2.5 -3.7,2.2 -3.8,1.8 -4,1.5 -4.2,1 -4.2,0.6 -4.2,0.2 h -86.6 l -4.3,-0.2 -4.2,-0.6 -4.1,-1 -4,-1.5 -3.8,-1.8 -3.7,-2.2 -3.4,-2.5 -3.1,-2.9 -2.9,-3.1 -2.5,-3.4 -2.2,-3.7 -1.8,-3.8 -1.5,-4 -1,-4.1 -0.6,-4.2 -0.2,-4.3 v -86.6 l 0.2,-4.2 0.6,-4.2 1,-4.2 1.5,-4 1.8,-3.8 2.2,-3.7 2.5,-3.4 2.9,-3.1 3.1,-2.9 3.4,-2.5 3.7,-2.2 3.8,-1.8 4,-1.4 4.1,-1.1 4.2,-0.6 4.3,-0.2 h 86.6 z"
         id="path4974" />
    </g>
    <g
       id="path2894"
       style="fill:#000000;fill-opacity:1;stroke-width:19.685;stroke-miterlimit:4;stroke-dasharray:none">
      <path
         style="color:#000000;fill:#000000;fill-opacity:1;fill-rule:evenodd;stroke:none;stroke-width:19.685;stroke-miterlimit:4;stroke-dasharray:none"
         d="m 33284.1,32646.2 2.4,0.3 2.3,0.6 2.3,0.8 2.2,1.1 2.1,1.2 1.9,1.4 1.8,1.7 1.6,1.8 1.5,1.9 1.2,2.1 1,2.2 0.8,2.2 0.6,2.4 0.4,2.4 0.1,2.4 v 49.2 l -0.1,2.4 -0.4,2.4 -0.6,2.3 -0.8,2.3 -1,2.2 -1.2,2.1 -1.5,1.9 -1.6,1.8 -1.8,1.6 -1.9,1.4 -2.1,1.3 -2.2,1 -2.3,0.8 -2.3,0.6 -2.4,0.4 -2.4,0.1 h -295.3 l -2.4,-0.1 -2.4,-0.4 -2.3,-0.6 -2.3,-0.8 -2.2,-1 -2.1,-1.3 -1.9,-1.4 -1.8,-1.6 -1.6,-1.8 -1.4,-1.9 -1.3,-2.1 -1,-2.2 -0.8,-2.3 -0.6,-2.3 -0.4,-2.4 -0.1,-2.4 v -49.2 l 0.1,-2.4 0.4,-2.4 0.6,-2.4 0.8,-2.2 1,-2.2 1.3,-2.1 1.4,-1.9 1.6,-1.8 1.8,-1.7 1.9,-1.4 2.1,-1.2 2.2,-1.1 2.3,-0.8 2.3,-0.6 2.4,-0.3 2.4,-0.1 h 295.3 z"
         id="path4980" />
      <path
         style="color:#000000;fill:#000000;fill-opacity:1;fill-rule:evenodd;stroke:none;stroke-width:19.685;stroke-miterlimit:4;stroke-dasharray:none"
         d="m 33284.1,32646.2 2.4,0.3 2.3,0.6 2.3,0.8 2.2,1.1 2.1,1.2 1.9,1.4 1.8,1.7 1.6,1.8 1.5,1.9 1.2,2.1 1,2.2 0.8,2.2 0.6,2.4 0.4,2.4 0.1,2.4 v 49.2 l -0.1,2.4 -0.4,2.4 -0.6,2.3 -0.8,2.3 -1,2.2 -1.2,2.1 -1.5,1.9 -1.6,1.8 -1.8,1.6 -1.9,1.4 -2.1,1.3 -2.2,1 -2.3,0.8 -2.3,0.6 -2.4,0.4 -2.4,0.1 h -295.3 l -2.4,-0.1 -2.4,-0.4 -2.3,-0.6 -2.3,-0.8 -2.2,-1 -2.1,-1.3 -1.9,-1.4 -1.8,-1.6 -1.6,-1.8 -1.4,-1.9 -1.3,-2.1 -1,-2.2 -0.8,-2.3 -0.6,-2.3 -0.4,-2.4 -0.1,-2.4 v -49.2 l 0.1,-2.4 0.4,-2.4 0.6,-2.4 0.8,-2.2 1,-2.2 1.3,-2.1 1.4,-1.9 1.6,-1.8 1.8,-1.7 1.9,-1.4 2.1,-1.2 2.2,-1.1 2.3,-0.8 2.3,-0.6 2.4,-0.3 2.4,-0.1 h 295.3 z"
         id="path4982" />
    </g>
    <g
       id="path2896"
       style="fill:#000000;fill-opacity:1;stroke-width:19.685;stroke-miterlimit:4;stroke-dasharray:none">
      <path
         style="color:#000000;fill:#000000;fill-opacity:1;fill-rule:evenodd;stroke:none;stroke-width:19.685;stroke-miterlimit:4;stroke-dasharray:none"
         d="m 33284.1,32449.3 2.4,0.4 2.3,0.6 2.3,0.8 2.2,1 2.1,1.3 1.9,1.4 1.8,1.6 1.6,1.8 1.5,1.9 1.2,2.1 1,2.2 0.8,2.3 0.6,2.3 0.4,2.4 0.1,2.4 v 49.2 l -0.1,2.4 -0.4,2.4 -0.6,2.4 -0.8,2.2 -1,2.2 -1.2,2.1 -1.5,1.9 -1.6,1.8 -1.8,1.7 -1.9,1.4 -2.1,1.2 -2.2,1.1 -2.3,0.8 -2.3,0.6 -2.4,0.3 -2.4,0.1 h -295.3 l -2.4,-0.1 -2.4,-0.3 -2.3,-0.6 -2.3,-0.8 -2.2,-1.1 -2.1,-1.2 -1.9,-1.4 -1.8,-1.7 -1.6,-1.8 -1.4,-1.9 -1.3,-2.1 -1,-2.2 -0.8,-2.2 -0.6,-2.4 -0.4,-2.4 -0.1,-2.4 v -49.2 l 0.1,-2.4 0.4,-2.4 0.6,-2.3 0.8,-2.3 1,-2.2 1.3,-2.1 1.4,-1.9 1.6,-1.8 1.8,-1.6 1.9,-1.4 2.1,-1.3 2.2,-1 2.3,-0.8 2.3,-0.6 2.4,-0.4 2.4,-0.1 h 295.3 z"
         id="path4988" />
      <path
         style="color:#000000;fill:#000000;fill-opacity:1;fill-rule:evenodd;stroke:none;stroke-width:19.685;stroke-miterlimit:4;stroke-dasharray:none"
         d="m 33284.1,32449.3 2.4,0.4 2.3,0.6 2.3,0.8 2.2,1 2.1,1.3 1.9,1.4 1.8,1.6 1.6,1.8 1.5,1.9 1.2,2.1 1,2.2 0.8,2.3 0.6,2.3 0.4,2.4 0.1,2.4 v 49.2 l -0.1,2.4 -0.4,2.4 -0.6,2.4 -0.8,2.2 -1,2.2 -1.2,2.1 -1.5,1.9 -1.6,1.8 -1.8,1.7 -1.9,1.4 -2.1,1.2 -2.2,1.1 -2.3,0.8 -2.3,0.6 -2.4,0.3 -2.4,0.1 h -295.3 l -2.4,-0.1 -2.4,-0.3 -2.3,-0.6 -2.3,-0.8 -2.2,-1.1 -2.1,-1.2 -1.9,-1.4 -1.8,-1.7 -1.6,-1.8 -1.4,-1.9 -1.3,-2.1 -1,-2.2 -0.8,-2.2 -0.6,-2.4 -0.4,-2.4 -0.1,-2.4 v -49.2 l 0.1,-2.4 0.4,-2.4 0.6,-2.3 0.8,-2.3 1,-2.2 1.3,-2.1 1.4,-1.9 1.6,-1.8 1.8,-1.6 1.9,-1.4 2.1,-1.3 2.2,-1 2.3,-0.8 2.3,-0.6 2.4,-0.4 2.4,-0.1 h 295.3 z"
         id="path4990" />
    </g>
    <g
       id="path2898"
       style="fill:#000000;fill-opacity:1;stroke-width:19.685;stroke-miterlimit:4;stroke-dasharray:none">
      <path
         style="color:#000000;fill:#000000;fill-opacity:1;fill-rule:evenodd;stroke:none;stroke-width:19.685;stroke-miterlimit:4;stroke-dasharray:none"
         d="m 33284.1,32252.5 2.4,0.3 2.3,0.6 2.3,0.8 2.2,1.1 2.1,1.2 1.9,1.4 1.8,1.7 1.6,1.8 1.5,1.9 1.2,2.1 1,2.2 0.8,2.2 0.6,2.4 0.4,2.4 0.1,2.4 v 49.2 l -0.1,2.4 -0.4,2.4 -0.6,2.3 -0.8,2.3 -1,2.2 -1.2,2.1 -1.5,1.9 -1.6,1.8 -1.8,1.6 -1.9,1.4 -2.1,1.3 -2.2,1 -2.3,0.8 -2.3,0.6 -2.4,0.4 -2.4,0.1 h -295.3 l -2.4,-0.1 -2.4,-0.4 -2.3,-0.6 -2.3,-0.8 -2.2,-1 -2.1,-1.3 -1.9,-1.4 -1.8,-1.6 -1.6,-1.8 -1.4,-1.9 -1.3,-2.1 -1,-2.2 -0.8,-2.3 -0.6,-2.3 -0.4,-2.4 -0.1,-2.4 v -49.2 l 0.1,-2.4 0.4,-2.4 0.6,-2.4 0.8,-2.2 1,-2.2 1.3,-2.1 1.4,-1.9 1.6,-1.8 1.8,-1.7 1.9,-1.4 2.1,-1.2 2.2,-1.1 2.3,-0.8 2.3,-0.6 2.4,-0.3 2.4,-0.1 h 295.3 z"
         id="path4996" />
      <path
         style="color:#000000;fill:#000000;fill-opacity:1;fill-rule:evenodd;stroke:none;stroke-width:19.685;stroke-miterlimit:4;stroke-dasharray:none"
         d="m 33284.1,32252.5 2.4,0.3 2.3,0.6 2.3,0.8 2.2,1.1 2.1,1.2 1.9,1.4 1.8,1.7 1.6,1.8 1.5,1.9 1.2,2.1 1,2.2 0.8,2.2 0.6,2.4 0.4,2.4 0.1,2.4 v 49.2 l -0.1,2.4 -0.4,2.4 -0.6,2.3 -0.8,2.3 -1,2.2 -1.2,2.1 -1.5,1.9 -1.6,1.8 -1.8,1.6 -1.9,1.4 -2.1,1.3 -2.2,1 -2.3,0.8 -2.3,0.6 -2.4,0.4 -2.4,0.1 h -295.3 l -2.4,-0.1 -2.4,-0.4 -2.3,-0.6 -2.3,-0.8 -2.2,-1 -2.1,-1.3 -1.9,-1.4 -1.8,-1.6 -1.6,-1.8 -1.4,-1.9 -1.3,-2.1 -1,-2.2 -0.8,-2.3 -0.6,-2.3 -0.4,-2.4 -0.1,-2.4 v -49.2 l 0.1,-2.4 0.4,-2.4 0.6,-2.4 0.8,-2.2 1,-2.2 1.3,-2.1 1.4,-1.9 1.6,-1.8 1.8,-1.7 1.9,-1.4 2.1,-1.2 2.2,-1.1 2.3,-0.8 2.3,-0.6 2.4,-0.3 2.4,-0.1 h 295.3 z"
         id="path4998" />
    </g>
    <g
       id="path2900"
       style="fill:#000000;fill-opacity:1;stroke-width:19.685;stroke-miterlimit:4;stroke-dasharray:none">
      <path
         style="color:#000000;fill:#000000;fill-opacity:1;fill-rule:evenodd;stroke:none;stroke-width:19.685;stroke-miterlimit:4;stroke-dasharray:none"
         d="m 33284.1,32055.6 2.4,0.4 2.3,0.6 2.3,0.8 2.2,1 2.1,1.3 1.9,1.4 1.8,1.6 1.6,1.8 1.5,1.9 1.2,2.1 1,2.2 0.8,2.3 0.6,2.3 0.4,2.4 0.1,2.4 v 49.2 l -0.1,2.4 -0.4,2.4 -0.6,2.4 -0.8,2.2 -1,2.2 -1.2,2.1 -1.5,1.9 -1.6,1.8 -1.8,1.7 -1.9,1.4 -2.1,1.2 -2.2,1.1 -2.3,0.8 -2.3,0.6 -2.4,0.3 -2.4,0.1 h -295.3 l -2.4,-0.1 -2.4,-0.3 -2.3,-0.6 -2.3,-0.8 -2.2,-1.1 -2.1,-1.2 -1.9,-1.4 -1.8,-1.7 -1.6,-1.8 -1.4,-1.9 -1.3,-2.1 -1,-2.2 -0.8,-2.2 -0.6,-2.4 -0.4,-2.4 -0.1,-2.4 v -49.2 l 0.1,-2.4 0.4,-2.4 0.6,-2.3 0.8,-2.3 1,-2.2 1.3,-2.1 1.4,-1.9 1.6,-1.8 1.8,-1.6 1.9,-1.4 2.1,-1.3 2.2,-1 2.3,-0.8 2.3,-0.6 2.4,-0.4 2.4,-0.1 h 295.3 z"
         id="path5004" />
      <path
         style="color:#000000;fill:#000000;fill-opacity:1;fill-rule:evenodd;stroke:none;stroke-width:19.685;stroke-miterlimit:4;stroke-dasharray:none"
         d="m 33284.1,32055.6 2.4,0.4 2.3,0.6 2.3,0.8 2.2,1 2.1,1.3 1.9,1.4 1.8,1.6 1.6,1.8 1.5,1.9 1.2,2.1 1,2.2 0.8,2.3 0.6,2.3 0.4,2.4 0.1,2.4 v 49.2 l -0.1,2.4 -0.4,2.4 -0.6,2.4 -0.8,2.2 -1,2.2 -1.2,2.1 -1.5,1.9 -1.6,1.8 -1.8,1.7 -1.9,1.4 -2.1,1.2 -2.2,1.1 -2.3,0.8 -2.3,0.6 -2.4,0.3 -2.4,0.1 h -295.3 l -2.4,-0.1 -2.4,-0.3 -2.3,-0.6 -2.3,-0.8 -2.2,-1.1 -2.1,-1.2 -1.9,-1.4 -1.8,-1.7 -1.6,-1.8 -1.4,-1.9 -1.3,-2.1 -1,-2.2 -0.8,-2.2 -0.6,-2.4 -0.4,-2.4 -0.1,-2.4 v -49.2 l 0.1,-2.4 0.4,-2.4 0.6,-2.3 0.8,-2.3 1,-2.2 1.3,-2.1 1.4,-1.9 1.6,-1.8 1.8,-1.6 1.9,-1.4 2.1,-1.3 2.2,-1 2.3,-0.8 2.3,-0.6 2.4,-0.4 2.4,-0.1 h 295.3 z"
         id="path5006" />
    </g>
    <g
       id="path2902"
       style="fill:#000000;fill-opacity:1;stroke-width:19.685;stroke-miterlimit:4;stroke-dasharray:none">
      <path
         style="color:#000000;fill:#000000;fill-opacity:1;fill-rule:evenodd;stroke:none;stroke-width:19.685;stroke-miterlimit:4;stroke-dasharray:none"
         d="m 33431.7,31661.9 2.4,0.4 2.4,0.6 2.2,0.8 2.2,1 2.1,1.3 1.9,1.4 1.8,1.6 1.7,1.8 1.4,1.9 1.2,2.1 1.1,2.2 0.8,2.3 0.6,2.3 0.3,2.4 0.1,2.4 v 295.3 l -0.1,2.4 -0.3,2.4 -0.6,2.3 -0.8,2.3 -1.1,2.2 -1.2,2.1 -1.4,1.9 -1.7,1.8 -1.8,1.6 -1.9,1.5 -2.1,1.2 -2.2,1 -2.2,0.8 -2.4,0.6 -2.4,0.4 -2.4,0.1 h -49.2 l -2.4,-0.1 -2.4,-0.4 -2.3,-0.6 -2.3,-0.8 -2.2,-1 -2.1,-1.2 -1.9,-1.5 -1.8,-1.6 -1.6,-1.8 -1.4,-1.9 -1.3,-2.1 -1,-2.2 -0.8,-2.3 -0.6,-2.3 -0.4,-2.4 -0.1,-2.4 v -295.3 l 0.1,-2.4 0.4,-2.4 0.6,-2.3 0.8,-2.3 1,-2.2 1.3,-2.1 1.4,-1.9 1.6,-1.8 1.8,-1.6 1.9,-1.4 2.1,-1.3 2.2,-1 2.3,-0.8 2.3,-0.6 2.4,-0.4 2.4,-0.1 h 49.2 z"
         id="path5012" />
      <path
         style="color:#000000;fill:#000000;fill-opacity:1;fill-rule:evenodd;stroke:none;stroke-width:19.685;stroke-miterlimit:4;stroke-dasharray:none"
         d="m 33431.7,31661.9 2.4,0.4 2.4,0.6 2.2,0.8 2.2,1 2.1,1.3 1.9,1.4 1.8,1.6 1.7,1.8 1.4,1.9 1.2,2.1 1.1,2.2 0.8,2.3 0.6,2.3 0.3,2.4 0.1,2.4 v 295.3 l -0.1,2.4 -0.3,2.4 -0.6,2.3 -0.8,2.3 -1.1,2.2 -1.2,2.1 -1.4,1.9 -1.7,1.8 -1.8,1.6 -1.9,1.5 -2.1,1.2 -2.2,1 -2.2,0.8 -2.4,0.6 -2.4,0.4 -2.4,0.1 h -49.2 l -2.4,-0.1 -2.4,-0.4 -2.3,-0.6 -2.3,-0.8 -2.2,-1 -2.1,-1.2 -1.9,-1.5 -1.8,-1.6 -1.6,-1.8 -1.4,-1.9 -1.3,-2.1 -1,-2.2 -0.8,-2.3 -0.6,-2.3 -0.4,-2.4 -0.1,-2.4 v -295.3 l 0.1,-2.4 0.4,-2.4 0.6,-2.3 0.8,-2.3 1,-2.2 1.3,-2.1 1.4,-1.9 1.6,-1.8 1.8,-1.6 1.9,-1.4 2.1,-1.3 2.2,-1 2.3,-0.8 2.3,-0.6 2.4,-0.4 2.4,-0.1 h 49.2 z"
         id="path5014" />
    </g>
    <g
       id="path2904"
       style="fill:#000000;fill-opacity:1;stroke-width:19.685;stroke-miterlimit:4;stroke-dasharray:none">
      <path
         style="color:#000000;fill:#000000;fill-opacity:1;fill-rule:evenodd;stroke:none;stroke-width:19.685;stroke-miterlimit:4;stroke-dasharray:none"
         d="m 33628.6,31661.9 2.4,0.4 2.3,0.6 2.3,0.8 2.2,1 2.1,1.3 1.9,1.4 1.8,1.6 1.6,1.8 1.4,1.9 1.3,2.1 1,2.2 0.8,2.3 0.6,2.3 0.4,2.4 0.1,2.4 v 295.3 l -0.1,2.4 -0.4,2.4 -0.6,2.3 -0.8,2.3 -1,2.2 -1.3,2.1 -1.4,1.9 -1.6,1.8 -1.8,1.6 -1.9,1.5 -2.1,1.2 -2.2,1 -2.3,0.8 -2.3,0.6 -2.4,0.4 -2.4,0.1 h -49.2 l -2.4,-0.1 -2.4,-0.4 -2.4,-0.6 -2.2,-0.8 -2.2,-1 -2.1,-1.2 -1.9,-1.5 -1.8,-1.6 -1.7,-1.8 -1.4,-1.9 -1.2,-2.1 -1.1,-2.2 -0.8,-2.3 -0.6,-2.3 -0.3,-2.4 -0.1,-2.4 v -295.3 l 0.1,-2.4 0.3,-2.4 0.6,-2.3 0.8,-2.3 1.1,-2.2 1.2,-2.1 1.4,-1.9 1.7,-1.8 1.8,-1.6 1.9,-1.4 2.1,-1.3 2.2,-1 2.2,-0.8 2.4,-0.6 2.4,-0.4 2.4,-0.1 h 49.2 z"
         id="path5020" />
      <path
         style="color:#000000;fill:#000000;fill-opacity:1;fill-rule:evenodd;stroke:none;stroke-width:19.685;stroke-miterlimit:4;stroke-dasharray:none"
         d="m 33628.6,31661.9 2.4,0.4 2.3,0.6 2.3,0.8 2.2,1 2.1,1.3 1.9,1.4 1.8,1.6 1.6,1.8 1.4,1.9 1.3,2.1 1,2.2 0.8,2.3 0.6,2.3 0.4,2.4 0.1,2.4 v 295.3 l -0.1,2.4 -0.4,2.4 -0.6,2.3 -0.8,2.3 -1,2.2 -1.3,2.1 -1.4,1.9 -1.6,1.8 -1.8,1.6 -1.9,1.5 -2.1,1.2 -2.2,1 -2.3,0.8 -2.3,0.6 -2.4,0.4 -2.4,0.1 h -49.2 l -2.4,-0.1 -2.4,-0.4 -2.4,-0.6 -2.2,-0.8 -2.2,-1 -2.1,-1.2 -1.9,-1.5 -1.8,-1.6 -1.7,-1.8 -1.4,-1.9 -1.2,-2.1 -1.1,-2.2 -0.8,-2.3 -0.6,-2.3 -0.3,-2.4 -0.1,-2.4 v -295.3 l 0.1,-2.4 0.3,-2.4 0.6,-2.3 0.8,-2.3 1.1,-2.2 1.2,-2.1 1.4,-1.9 1.7,-1.8 1.8,-1.6 1.9,-1.4 2.1,-1.3 2.2,-1 2.2,-0.8 2.4,-0.6 2.4,-0.4 2.4,-0.1 h 49.2 z"
         id="path5022" />
    </g>
    <g
       id="path2906"
       style="fill:#000000;fill-opacity:1;stroke-width:19.685;stroke-miterlimit:4;stroke-dasharray:none">
      <path
         style="color:#000000;fill:#000000;fill-opacity:1;fill-rule:evenodd;stroke:none;stroke-width:19.685;stroke-miterlimit:4;stroke-dasharray:none"
         d="m 33825.4,31661.9 2.4,0.4 2.4,0.6 2.2,0.8 2.2,1 2.1,1.3 1.9,1.4 1.8,1.6 1.7,1.8 1.4,1.9 1.2,2.1 1.1,2.2 0.8,2.3 0.6,2.3 0.3,2.4 0.1,2.4 v 295.3 l -0.1,2.4 -0.3,2.4 -0.6,2.3 -0.8,2.3 -1.1,2.2 -1.2,2.1 -1.4,1.9 -1.7,1.8 -1.8,1.6 -1.9,1.5 -2.1,1.2 -2.2,1 -2.2,0.8 -2.4,0.6 -2.4,0.4 -2.4,0.1 h -49.2 l -2.4,-0.1 -2.4,-0.4 -2.3,-0.6 -2.3,-0.8 -2.2,-1 -2.1,-1.2 -1.9,-1.5 -1.8,-1.6 -1.6,-1.8 -1.4,-1.9 -1.3,-2.1 -1,-2.2 -0.8,-2.3 -0.6,-2.3 -0.4,-2.4 -0.1,-2.4 v -295.3 l 0.1,-2.4 0.4,-2.4 0.6,-2.3 0.8,-2.3 1,-2.2 1.3,-2.1 1.4,-1.9 1.6,-1.8 1.8,-1.6 1.9,-1.4 2.1,-1.3 2.2,-1 2.3,-0.8 2.3,-0.6 2.4,-0.4 2.4,-0.1 h 49.2 z"
         id="path5028" />
      <path
         style="color:#000000;fill:#000000;fill-opacity:1;fill-rule:evenodd;stroke:none;stroke-width:19.685;stroke-miterlimit:4;stroke-dasharray:none"
         d="m 33825.4,31661.9 2.4,0.4 2.4,0.6 2.2,0.8 2.2,1 2.1,1.3 1.9,1.4 1.8,1.6 1.7,1.8 1.4,1.9 1.2,2.1 1.1,2.2 0.8,2.3 0.6,2.3 0.3,2.4 0.1,2.4 v 295.3 l -0.1,2.4 -0.3,2.4 -0.6,2.3 -0.8,2.3 -1.1,2.2 -1.2,2.1 -1.4,1.9 -1.7,1.8 -1.8,1.6 -1.9,1.5 -2.1,1.2 -2.2,1 -2.2,0.8 -2.4,0.6 -2.4,0.4 -2.4,0.1 h -49.2 l -2.4,-0.1 -2.4,-0.4 -2.3,-0.6 -2.3,-0.8 -2.2,-1 -2.1,-1.2 -1.9,-1.5 -1.8,-1.6 -1.6,-1.8 -1.4,-1.9 -1.3,-2.1 -1,-2.2 -0.8,-2.3 -0.6,-2.3 -0.4,-2.4 -0.1,-2.4 v -295.3 l 0.1,-2.4 0.4,-2.4 0.6,-2.3 0.8,-2.3 1,-2.2 1.3,-2.1 1.4,-1.9 1.6,-1.8 1.8,-1.6 1.9,-1.4 2.1,-1.3 2.2,-1 2.3,-0.8 2.3,-0.6 2.4,-0.4 2.4,-0.1 h 49.2 z"
         id="path5030" />
    </g>
    <g
       id="path2908"
       style="fill:#000000;fill-opacity:1;stroke-width:19.685;stroke-miterlimit:4;stroke-dasharray:none">
      <path
         style="color:#000000;fill:#000000;fill-opacity:1;fill-rule:evenodd;stroke:none;stroke-width:19.685;stroke-miterlimit:4;stroke-dasharray:none"
         d="m 34022.3,31661.9 2.4,0.4 2.3,0.6 2.3,0.8 2.2,1 2.1,1.3 1.9,1.4 1.8,1.6 1.6,1.8 1.4,1.9 1.3,2.1 1,2.2 0.8,2.3 0.6,2.3 0.4,2.4 0.1,2.4 v 295.3 l -0.1,2.4 -0.4,2.4 -0.6,2.3 -0.8,2.3 -1,2.2 -1.3,2.1 -1.4,1.9 -1.6,1.8 -1.8,1.6 -1.9,1.5 -2.1,1.2 -2.2,1 -2.3,0.8 -2.3,0.6 -2.4,0.4 -2.4,0.1 h -49.2 l -2.4,-0.1 -2.4,-0.4 -2.4,-0.6 -2.2,-0.8 -2.2,-1 -2.1,-1.2 -1.9,-1.5 -1.8,-1.6 -1.7,-1.8 -1.4,-1.9 -1.2,-2.1 -1.1,-2.2 -0.8,-2.3 -0.6,-2.3 -0.3,-2.4 -0.1,-2.4 v -295.3 l 0.1,-2.4 0.3,-2.4 0.6,-2.3 0.8,-2.3 1.1,-2.2 1.2,-2.1 1.4,-1.9 1.7,-1.8 1.8,-1.6 1.9,-1.4 2.1,-1.3 2.2,-1 2.2,-0.8 2.4,-0.6 2.4,-0.4 2.4,-0.1 h 49.2 z"
         id="path5036" />
      <path
         style="color:#000000;fill:#000000;fill-opacity:1;fill-rule:evenodd;stroke:none;stroke-width:19.685;stroke-miterlimit:4;stroke-dasharray:none"
         d="m 34022.3,31661.9 2.4,0.4 2.3,0.6 2.3,0.8 2.2,1 2.1,1.3 1.9,1.4 1.8,1.6 1.6,1.8 1.4,1.9 1.3,2.1 1,2.2 0.8,2.3 0.6,2.3 0.4,2.4 0.1,2.4 v 295.3 l -0.1,2.4 -0.4,2.4 -0.6,2.3 -0.8,2.3 -1,2.2 -1.3,2.1 -1.4,1.9 -1.6,1.8 -1.8,1.6 -1.9,1.5 -2.1,1.2 -2.2,1 -2.3,0.8 -2.3,0.6 -2.4,0.4 -2.4,0.1 h -49.2 l -2.4,-0.1 -2.4,-0.4 -2.4,-0.6 -2.2,-0.8 -2.2,-1 -2.1,-1.2 -1.9,-1.5 -1.8,-1.6 -1.7,-1.8 -1.4,-1.9 -1.2,-2.1 -1.1,-2.2 -0.8,-2.3 -0.6,-2.3 -0.3,-2.4 -0.1,-2.4 v -295.3 l 0.1,-2.4 0.3,-2.4 0.6,-2.3 0.8,-2.3 1.1,-2.2 1.2,-2.1 1.4,-1.9 1.7,-1.8 1.8,-1.6 1.9,-1.4 2.1,-1.3 2.2,-1 2.2,-0.8 2.4,-0.6 2.4,-0.4 2.4,-0.1 h 49.2 z"
         id="path5038" />
    </g>
    <g
       id="path2910"
       style="fill:#000000;fill-opacity:1;stroke-width:19.685;stroke-miterlimit:4;stroke-dasharray:none">
      <path
         style="color:#000000;fill:#000000;fill-opacity:1;fill-rule:evenodd;stroke:none;stroke-width:19.685;stroke-miterlimit:4;stroke-dasharray:none"
         d="m 34416,32055.6 2.4,0.4 2.3,0.6 2.3,0.8 2.2,1 2.1,1.3 1.9,1.4 1.8,1.6 1.6,1.8 1.4,1.9 1.3,2.1 1,2.2 0.8,2.3 0.6,2.3 0.4,2.4 0.1,2.4 v 49.2 l -0.1,2.4 -0.4,2.4 -0.6,2.4 -0.8,2.2 -1,2.2 -1.3,2.1 -1.4,1.9 -1.6,1.8 -1.8,1.7 -1.9,1.4 -2.1,1.2 -2.2,1.1 -2.3,0.8 -2.3,0.6 -2.4,0.3 -2.4,0.1 h -295.3 l -2.4,-0.1 -2.4,-0.3 -2.3,-0.6 -2.3,-0.8 -2.2,-1.1 -2.1,-1.2 -1.9,-1.4 -1.8,-1.7 -1.6,-1.8 -1.5,-1.9 -1.2,-2.1 -1,-2.2 -0.8,-2.2 -0.6,-2.4 -0.4,-2.4 -0.1,-2.4 v -49.2 l 0.1,-2.4 0.4,-2.4 0.6,-2.3 0.8,-2.3 1,-2.2 1.2,-2.1 1.5,-1.9 1.6,-1.8 1.8,-1.6 1.9,-1.4 2.1,-1.3 2.2,-1 2.3,-0.8 2.3,-0.6 2.4,-0.4 2.4,-0.1 h 295.3 z"
         id="path5044" />
      <path
         style="color:#000000;fill:#000000;fill-opacity:1;fill-rule:evenodd;stroke:none;stroke-width:19.685;stroke-miterlimit:4;stroke-dasharray:none"
         d="m 34416,32055.6 2.4,0.4 2.3,0.6 2.3,0.8 2.2,1 2.1,1.3 1.9,1.4 1.8,1.6 1.6,1.8 1.4,1.9 1.3,2.1 1,2.2 0.8,2.3 0.6,2.3 0.4,2.4 0.1,2.4 v 49.2 l -0.1,2.4 -0.4,2.4 -0.6,2.4 -0.8,2.2 -1,2.2 -1.3,2.1 -1.4,1.9 -1.6,1.8 -1.8,1.7 -1.9,1.4 -2.1,1.2 -2.2,1.1 -2.3,0.8 -2.3,0.6 -2.4,0.3 -2.4,0.1 h -295.3 l -2.4,-0.1 -2.4,-0.3 -2.3,-0.6 -2.3,-0.8 -2.2,-1.1 -2.1,-1.2 -1.9,-1.4 -1.8,-1.7 -1.6,-1.8 -1.5,-1.9 -1.2,-2.1 -1,-2.2 -0.8,-2.2 -0.6,-2.4 -0.4,-2.4 -0.1,-2.4 v -49.2 l 0.1,-2.4 0.4,-2.4 0.6,-2.3 0.8,-2.3 1,-2.2 1.2,-2.1 1.5,-1.9 1.6,-1.8 1.8,-1.6 1.9,-1.4 2.1,-1.3 2.2,-1 2.3,-0.8 2.3,-0.6 2.4,-0.4 2.4,-0.1 h 295.3 z"
         id="path5046" />
    </g>
    <g
       id="path2912"
       style="fill:#000000;fill-opacity:1;stroke-width:19.685;stroke-miterlimit:4;stroke-dasharray:none">
      <path
         style="color:#000000;fill:#000000;fill-opacity:1;fill-rule:evenodd;stroke:none;stroke-width:19.685;stroke-miterlimit:4;stroke-dasharray:none"
         d="m 34416,32252.5 2.4,0.3 2.3,0.6 2.3,0.8 2.2,1.1 2.1,1.2 1.9,1.4 1.8,1.7 1.6,1.8 1.4,1.9 1.3,2.1 1,2.2 0.8,2.2 0.6,2.4 0.4,2.4 0.1,2.4 v 49.2 l -0.1,2.4 -0.4,2.4 -0.6,2.3 -0.8,2.3 -1,2.2 -1.3,2.1 -1.4,1.9 -1.6,1.8 -1.8,1.6 -1.9,1.4 -2.1,1.3 -2.2,1 -2.3,0.8 -2.3,0.6 -2.4,0.4 -2.4,0.1 h -295.3 l -2.4,-0.1 -2.4,-0.4 -2.3,-0.6 -2.3,-0.8 -2.2,-1 -2.1,-1.3 -1.9,-1.4 -1.8,-1.6 -1.6,-1.8 -1.5,-1.9 -1.2,-2.1 -1,-2.2 -0.8,-2.3 -0.6,-2.3 -0.4,-2.4 -0.1,-2.4 v -49.2 l 0.1,-2.4 0.4,-2.4 0.6,-2.4 0.8,-2.2 1,-2.2 1.2,-2.1 1.5,-1.9 1.6,-1.8 1.8,-1.7 1.9,-1.4 2.1,-1.2 2.2,-1.1 2.3,-0.8 2.3,-0.6 2.4,-0.3 2.4,-0.1 h 295.3 z"
         id="path5052" />
      <path
         style="color:#000000;fill:#000000;fill-opacity:1;fill-rule:evenodd;stroke:none;stroke-width:19.685;stroke-miterlimit:4;stroke-dasharray:none"
         d="m 34416,32252.5 2.4,0.3 2.3,0.6 2.3,0.8 2.2,1.1 2.1,1.2 1.9,1.4 1.8,1.7 1.6,1.8 1.4,1.9 1.3,2.1 1,2.2 0.8,2.2 0.6,2.4 0.4,2.4 0.1,2.4 v 49.2 l -0.1,2.4 -0.4,2.4 -0.6,2.3 -0.8,2.3 -1,2.2 -1.3,2.1 -1.4,1.9 -1.6,1.8 -1.8,1.6 -1.9,1.4 -2.1,1.3 -2.2,1 -2.3,0.8 -2.3,0.6 -2.4,0.4 -2.4,0.1 h -295.3 l -2.4,-0.1 -2.4,-0.4 -2.3,-0.6 -2.3,-0.8 -2.2,-1 -2.1,-1.3 -1.9,-1.4 -1.8,-1.6 -1.6,-1.8 -1.5,-1.9 -1.2,-2.1 -1,-2.2 -0.8,-2.3 -0.6,-2.3 -0.4,-2.4 -0.1,-2.4 v -49.2 l 0.1,-2.4 0.4,-2.4 0.6,-2.4 0.8,-2.2 1,-2.2 1.2,-2.1 1.5,-1.9 1.6,-1.8 1.8,-1.7 1.9,-1.4 2.1,-1.2 2.2,-1.1 2.3,-0.8 2.3,-0.6 2.4,-0.3 2.4,-0.1 h 295.3 z"
         id="path5054" />
    </g>
    <g
       id="path2914"
       style="fill:#000000;fill-opacity:1;stroke-width:19.685;stroke-miterlimit:4;stroke-dasharray:none">
      <path
         style="color:#000000;fill:#000000;fill-opacity:1;fill-rule:evenodd;stroke:none;stroke-width:19.685;stroke-miterlimit:4;stroke-dasharray:none"
         d="m 34416,32449.3 2.4,0.4 2.3,0.6 2.3,0.8 2.2,1 2.1,1.3 1.9,1.4 1.8,1.6 1.6,1.8 1.4,1.9 1.3,2.1 1,2.2 0.8,2.3 0.6,2.3 0.4,2.4 0.1,2.4 v 49.2 l -0.1,2.4 -0.4,2.4 -0.6,2.4 -0.8,2.2 -1,2.2 -1.3,2.1 -1.4,1.9 -1.6,1.8 -1.8,1.7 -1.9,1.4 -2.1,1.2 -2.2,1.1 -2.3,0.8 -2.3,0.6 -2.4,0.3 -2.4,0.1 h -295.3 l -2.4,-0.1 -2.4,-0.3 -2.3,-0.6 -2.3,-0.8 -2.2,-1.1 -2.1,-1.2 -1.9,-1.4 -1.8,-1.7 -1.6,-1.8 -1.5,-1.9 -1.2,-2.1 -1,-2.2 -0.8,-2.2 -0.6,-2.4 -0.4,-2.4 -0.1,-2.4 v -49.2 l 0.1,-2.4 0.4,-2.4 0.6,-2.3 0.8,-2.3 1,-2.2 1.2,-2.1 1.5,-1.9 1.6,-1.8 1.8,-1.6 1.9,-1.4 2.1,-1.3 2.2,-1 2.3,-0.8 2.3,-0.6 2.4,-0.4 2.4,-0.1 h 295.3 z"
         id="path5060" />
      <path
         style="color:#000000;fill:#000000;fill-opacity:1;fill-rule:evenodd;stroke:none;stroke-width:19.685;stroke-miterlimit:4;stroke-dasharray:none"
         d="m 34416,32449.3 2.4,0.4 2.3,0.6 2.3,0.8 2.2,1 2.1,1.3 1.9,1.4 1.8,1.6 1.6,1.8 1.4,1.9 1.3,2.1 1,2.2 0.8,2.3 0.6,2.3 0.4,2.4 0.1,2.4 v 49.2 l -0.1,2.4 -0.4,2.4 -0.6,2.4 -0.8,2.2 -1,2.2 -1.3,2.1 -1.4,1.9 -1.6,1.8 -1.8,1.7 -1.9,1.4 -2.1,1.2 -2.2,1.1 -2.3,0.8 -2.3,0.6 -2.4,0.3 -2.4,0.1 h -295.3 l -2.4,-0.1 -2.4,-0.3 -2.3,-0.6 -2.3,-0.8 -2.2,-1.1 -2.1,-1.2 -1.9,-1.4 -1.8,-1.7 -1.6,-1.8 -1.5,-1.9 -1.2,-2.1 -1,-2.2 -0.8,-2.2 -0.6,-2.4 -0.4,-2.4 -0.1,-2.4 v -49.2 l 0.1,-2.4 0.4,-2.4 0.6,-2.3 0.8,-2.3 1,-2.2 1.2,-2.1 1.5,-1.9 1.6,-1.8 1.8,-1.6 1.9,-1.4 2.1,-1.3 2.2,-1 2.3,-0.8 2.3,-0.6 2.4,-0.4 2.4,-0.1 h 295.3 z"
         id="path5062" />
    </g>
    <g
       id="path2916"
       style="fill:#000000;fill-opacity:1;stroke-width:19.685;stroke-miterlimit:4;stroke-dasharray:none">
      <path
         style="color:#000000;fill:#000000;fill-opacity:1;fill-rule:evenodd;stroke:none;stroke-width:19.685;stroke-miterlimit:4;stroke-dasharray:none"
         d="m 34416,32646.2 2.4,0.3 2.3,0.6 2.3,0.8 2.2,1.1 2.1,1.2 1.9,1.4 1.8,1.7 1.6,1.8 1.4,1.9 1.3,2.1 1,2.2 0.8,2.2 0.6,2.4 0.4,2.4 0.1,2.4 v 49.2 l -0.1,2.4 -0.4,2.4 -0.6,2.3 -0.8,2.3 -1,2.2 -1.3,2.1 -1.4,1.9 -1.6,1.8 -1.8,1.6 -1.9,1.4 -2.1,1.3 -2.2,1 -2.3,0.8 -2.3,0.6 -2.4,0.4 -2.4,0.1 h -295.3 l -2.4,-0.1 -2.4,-0.4 -2.3,-0.6 -2.3,-0.8 -2.2,-1 -2.1,-1.3 -1.9,-1.4 -1.8,-1.6 -1.6,-1.8 -1.5,-1.9 -1.2,-2.1 -1,-2.2 -0.8,-2.3 -0.6,-2.3 -0.4,-2.4 -0.1,-2.4 v -49.2 l 0.1,-2.4 0.4,-2.4 0.6,-2.4 0.8,-2.2 1,-2.2 1.2,-2.1 1.5,-1.9 1.6,-1.8 1.8,-1.7 1.9,-1.4 2.1,-1.2 2.2,-1.1 2.3,-0.8 2.3,-0.6 2.4,-0.3 2.4,-0.1 h 295.3 z"
         id="path5068" />
      <path
         style="color:#000000;fill:#000000;fill-opacity:1;fill-rule:evenodd;stroke:none;stroke-width:19.685;stroke-miterlimit:4;stroke-dasharray:none"
         d="m 34416,32646.2 2.4,0.3 2.3,0.6 2.3,0.8 2.2,1.1 2.1,1.2 1.9,1.4 1.8,1.7 1.6,1.8 1.4,1.9 1.3,2.1 1,2.2 0.8,2.2 0.6,2.4 0.4,2.4 0.1,2.4 v 49.2 l -0.1,2.4 -0.4,2.4 -0.6,2.3 -0.8,2.3 -1,2.2 -1.3,2.1 -1.4,1.9 -1.6,1.8 -1.8,1.6 -1.9,1.4 -2.1,1.3 -2.2,1 -2.3,0.8 -2.3,0.6 -2.4,0.4 -2.4,0.1 h -295.3 l -2.4,-0.1 -2.4,-0.4 -2.3,-0.6 -2.3,-0.8 -2.2,-1 -2.1,-1.3 -1.9,-1.4 -1.8,-1.6 -1.6,-1.8 -1.5,-1.9 -1.2,-2.1 -1,-2.2 -0.8,-2.3 -0.6,-2.3 -0.4,-2.4 -0.1,-2.4 v -49.2 l 0.1,-2.4 0.4,-2.4 0.6,-2.4 0.8,-2.2 1,-2.2 1.2,-2.1 1.5,-1.9 1.6,-1.8 1.8,-1.7 1.9,-1.4 2.1,-1.2 2.2,-1.1 2.3,-0.8 2.3,-0.6 2.4,-0.3 2.4,-0.1 h 295.3 z"
         id="path5070" />
    </g>
    <g
       id="path2918"
       style="fill:#000000;fill-opacity:1;stroke-width:19.685;stroke-miterlimit:4;stroke-dasharray:none">
      <path
         style="color:#000000;fill:#000000;fill-opacity:1;fill-rule:evenodd;stroke:none;stroke-width:19.685;stroke-miterlimit:4;stroke-dasharray:none"
         d="m 34022.3,32793.8 2.4,0.4 2.3,0.6 2.3,0.8 2.2,1 2.1,1.2 1.9,1.5 1.8,1.6 1.6,1.8 1.4,1.9 1.3,2.1 1,2.2 0.8,2.3 0.6,2.3 0.4,2.4 0.1,2.4 v 295.3 l -0.1,2.4 -0.4,2.4 -0.6,2.3 -0.8,2.3 -1,2.2 -1.3,2.1 -1.4,1.9 -1.6,1.8 -1.8,1.6 -1.9,1.4 -2.1,1.3 -2.2,1 -2.3,0.8 -2.3,0.6 -2.4,0.4 -2.4,0.1 h -49.2 l -2.4,-0.1 -2.4,-0.4 -2.4,-0.6 -2.2,-0.8 -2.2,-1 -2.1,-1.3 -1.9,-1.4 -1.8,-1.6 -1.7,-1.8 -1.4,-1.9 -1.2,-2.1 -1.1,-2.2 -0.8,-2.3 -0.6,-2.3 -0.3,-2.4 -0.1,-2.4 v -295.3 l 0.1,-2.4 0.3,-2.4 0.6,-2.3 0.8,-2.3 1.1,-2.2 1.2,-2.1 1.4,-1.9 1.7,-1.8 1.8,-1.6 1.9,-1.5 2.1,-1.2 2.2,-1 2.2,-0.8 2.4,-0.6 2.4,-0.4 2.4,-0.1 h 49.2 z"
         id="path5076" />
      <path
         style="color:#000000;fill:#000000;fill-opacity:1;fill-rule:evenodd;stroke:none;stroke-width:19.685;stroke-miterlimit:4;stroke-dasharray:none"
         d="m 34022.3,32793.8 2.4,0.4 2.3,0.6 2.3,0.8 2.2,1 2.1,1.2 1.9,1.5 1.8,1.6 1.6,1.8 1.4,1.9 1.3,2.1 1,2.2 0.8,2.3 0.6,2.3 0.4,2.4 0.1,2.4 v 295.3 l -0.1,2.4 -0.4,2.4 -0.6,2.3 -0.8,2.3 -1,2.2 -1.3,2.1 -1.4,1.9 -1.6,1.8 -1.8,1.6 -1.9,1.4 -2.1,1.3 -2.2,1 -2.3,0.8 -2.3,0.6 -2.4,0.4 -2.4,0.1 h -49.2 l -2.4,-0.1 -2.4,-0.4 -2.4,-0.6 -2.2,-0.8 -2.2,-1 -2.1,-1.3 -1.9,-1.4 -1.8,-1.6 -1.7,-1.8 -1.4,-1.9 -1.2,-2.1 -1.1,-2.2 -0.8,-2.3 -0.6,-2.3 -0.3,-2.4 -0.1,-2.4 v -295.3 l 0.1,-2.4 0.3,-2.4 0.6,-2.3 0.8,-2.3 1.1,-2.2 1.2,-2.1 1.4,-1.9 1.7,-1.8 1.8,-1.6 1.9,-1.5 2.1,-1.2 2.2,-1 2.2,-0.8 2.4,-0.6 2.4,-0.4 2.4,-0.1 h 49.2 z"
         id="path5078" />
    </g>
    <g
       id="path2920"
       style="fill:#000000;fill-opacity:1;stroke-width:19.685;stroke-miterlimit:4;stroke-dasharray:none">
      <path
         style="color:#000000;fill:#000000;fill-opacity:1;fill-rule:evenodd;stroke:none;stroke-width:19.685;stroke-miterlimit:4;stroke-dasharray:none"
         d="m 33825.4,32793.8 2.4,0.4 2.4,0.6 2.2,0.8 2.2,1 2.1,1.2 1.9,1.5 1.8,1.6 1.7,1.8 1.4,1.9 1.2,2.1 1.1,2.2 0.8,2.3 0.6,2.3 0.3,2.4 0.1,2.4 v 295.3 l -0.1,2.4 -0.3,2.4 -0.6,2.3 -0.8,2.3 -1.1,2.2 -1.2,2.1 -1.4,1.9 -1.7,1.8 -1.8,1.6 -1.9,1.4 -2.1,1.3 -2.2,1 -2.2,0.8 -2.4,0.6 -2.4,0.4 -2.4,0.1 h -49.2 l -2.4,-0.1 -2.4,-0.4 -2.3,-0.6 -2.3,-0.8 -2.2,-1 -2.1,-1.3 -1.9,-1.4 -1.8,-1.6 -1.6,-1.8 -1.4,-1.9 -1.3,-2.1 -1,-2.2 -0.8,-2.3 -0.6,-2.3 -0.4,-2.4 -0.1,-2.4 v -295.3 l 0.1,-2.4 0.4,-2.4 0.6,-2.3 0.8,-2.3 1,-2.2 1.3,-2.1 1.4,-1.9 1.6,-1.8 1.8,-1.6 1.9,-1.5 2.1,-1.2 2.2,-1 2.3,-0.8 2.3,-0.6 2.4,-0.4 2.4,-0.1 h 49.2 z"
         id="path5084" />
      <path
         style="color:#000000;fill:#000000;fill-opacity:1;fill-rule:evenodd;stroke:none;stroke-width:19.685;stroke-miterlimit:4;stroke-dasharray:none"
         d="m 33825.4,32793.8 2.4,0.4 2.4,0.6 2.2,0.8 2.2,1 2.1,1.2 1.9,1.5 1.8,1.6 1.7,1.8 1.4,1.9 1.2,2.1 1.1,2.2 0.8,2.3 0.6,2.3 0.3,2.4 0.1,2.4 v 295.3 l -0.1,2.4 -0.3,2.4 -0.6,2.3 -0.8,2.3 -1.1,2.2 -1.2,2.1 -1.4,1.9 -1.7,1.8 -1.8,1.6 -1.9,1.4 -2.1,1.3 -2.2,1 -2.2,0.8 -2.4,0.6 -2.4,0.4 -2.4,0.1 h -49.2 l -2.4,-0.1 -2.4,-0.4 -2.3,-0.6 -2.3,-0.8 -2.2,-1 -2.1,-1.3 -1.9,-1.4 -1.8,-1.6 -1.6,-1.8 -1.4,-1.9 -1.3,-2.1 -1,-2.2 -0.8,-2.3 -0.6,-2.3 -0.4,-2.4 -0.1,-2.4 v -295.3 l 0.1,-2.4 0.4,-2.4 0.6,-2.3 0.8,-2.3 1,-2.2 1.3,-2.1 1.4,-1.9 1.6,-1.8 1.8,-1.6 1.9,-1.5 2.1,-1.2 2.2,-1 2.3,-0.8 2.3,-0.6 2.4,-0.4 2.4,-0.1 h 49.2 z"
         id="path5086" />
    </g>
    <g
       id="path2922"
       style="fill:#000000;fill-opacity:1;stroke-width:19.685;stroke-miterlimit:4;stroke-dasharray:none">
      <path
         style="color:#000000;fill:#000000;fill-opacity:1;fill-rule:evenodd;stroke:none;stroke-width:19.685;stroke-miterlimit:4;stroke-dasharray:none"
         d="m 33628.6,32793.8 2.4,0.4 2.3,0.6 2.3,0.8 2.2,1 2.1,1.2 1.9,1.5 1.8,1.6 1.6,1.8 1.4,1.9 1.3,2.1 1,2.2 0.8,2.3 0.6,2.3 0.4,2.4 0.1,2.4 v 295.3 l -0.1,2.4 -0.4,2.4 -0.6,2.3 -0.8,2.3 -1,2.2 -1.3,2.1 -1.4,1.9 -1.6,1.8 -1.8,1.6 -1.9,1.4 -2.1,1.3 -2.2,1 -2.3,0.8 -2.3,0.6 -2.4,0.4 -2.4,0.1 h -49.2 l -2.4,-0.1 -2.4,-0.4 -2.4,-0.6 -2.2,-0.8 -2.2,-1 -2.1,-1.3 -1.9,-1.4 -1.8,-1.6 -1.7,-1.8 -1.4,-1.9 -1.2,-2.1 -1.1,-2.2 -0.8,-2.3 -0.6,-2.3 -0.3,-2.4 -0.1,-2.4 v -295.3 l 0.1,-2.4 0.3,-2.4 0.6,-2.3 0.8,-2.3 1.1,-2.2 1.2,-2.1 1.4,-1.9 1.7,-1.8 1.8,-1.6 1.9,-1.5 2.1,-1.2 2.2,-1 2.2,-0.8 2.4,-0.6 2.4,-0.4 2.4,-0.1 h 49.2 z"
         id="path5092" />
      <path
         style="color:#000000;fill:#000000;fill-opacity:1;fill-rule:evenodd;stroke:none;stroke-width:19.685;stroke-miterlimit:4;stroke-dasharray:none"
         d="m 33628.6,32793.8 2.4,0.4 2.3,0.6 2.3,0.8 2.2,1 2.1,1.2 1.9,1.5 1.8,1.6 1.6,1.8 1.4,1.9 1.3,2.1 1,2.2 0.8,2.3 0.6,2.3 0.4,2.4 0.1,2.4 v 295.3 l -0.1,2.4 -0.4,2.4 -0.6,2.3 -0.8,2.3 -1,2.2 -1.3,2.1 -1.4,1.9 -1.6,1.8 -1.8,1.6 -1.9,1.4 -2.1,1.3 -2.2,1 -2.3,0.8 -2.3,0.6 -2.4,0.4 -2.4,0.1 h -49.2 l -2.4,-0.1 -2.4,-0.4 -2.4,-0.6 -2.2,-0.8 -2.2,-1 -2.1,-1.3 -1.9,-1.4 -1.8,-1.6 -1.7,-1.8 -1.4,-1.9 -1.2,-2.1 -1.1,-2.2 -0.8,-2.3 -0.6,-2.3 -0.3,-2.4 -0.1,-2.4 v -295.3 l 0.1,-2.4 0.3,-2.4 0.6,-2.3 0.8,-2.3 1.1,-2.2 1.2,-2.1 1.4,-1.9 1.7,-1.8 1.8,-1.6 1.9,-1.5 2.1,-1.2 2.2,-1 2.2,-0.8 2.4,-0.6 2.4,-0.4 2.4,-0.1 h 49.2 z"
         id="path5094" />
    </g>
    <g
       id="path2924"
       style="fill:#000000;fill-opacity:1;stroke-width:19.685;stroke-miterlimit:4;stroke-dasharray:none">
      <path
         style="color:#000000;fill:#000000;fill-opacity:1;fill-rule:evenodd;stroke:none;stroke-width:19.685;stroke-miterlimit:4;stroke-dasharray:none"
         d="m 33431.7,32793.8 2.4,0.4 2.4,0.6 2.2,0.8 2.2,1 2.1,1.2 1.9,1.5 1.8,1.6 1.7,1.8 1.4,1.9 1.2,2.1 1.1,2.2 0.8,2.3 0.6,2.3 0.3,2.4 0.1,2.4 v 295.3 l -0.1,2.4 -0.3,2.4 -0.6,2.3 -0.8,2.3 -1.1,2.2 -1.2,2.1 -1.4,1.9 -1.7,1.8 -1.8,1.6 -1.9,1.4 -2.1,1.3 -2.2,1 -2.2,0.8 -2.4,0.6 -2.4,0.4 -2.4,0.1 h -49.2 l -2.4,-0.1 -2.4,-0.4 -2.3,-0.6 -2.3,-0.8 -2.2,-1 -2.1,-1.3 -1.9,-1.4 -1.8,-1.6 -1.6,-1.8 -1.4,-1.9 -1.3,-2.1 -1,-2.2 -0.8,-2.3 -0.6,-2.3 -0.4,-2.4 -0.1,-2.4 v -295.3 l 0.1,-2.4 0.4,-2.4 0.6,-2.3 0.8,-2.3 1,-2.2 1.3,-2.1 1.4,-1.9 1.6,-1.8 1.8,-1.6 1.9,-1.5 2.1,-1.2 2.2,-1 2.3,-0.8 2.3,-0.6 2.4,-0.4 2.4,-0.1 h 49.2 z"
         id="path5100" />
      <path
         style="color:#000000;fill:#000000;fill-opacity:1;fill-rule:evenodd;stroke:none;stroke-width:19.685;stroke-miterlimit:4;stroke-dasharray:none"
         d="m 33431.7,32793.8 2.4,0.4 2.4,0.6 2.2,0.8 2.2,1 2.1,1.2 1.9,1.5 1.8,1.6 1.7,1.8 1.4,1.9 1.2,2.1 1.1,2.2 0.8,2.3 0.6,2.3 0.3,2.4 0.1,2.4 v 295.3 l -0.1,2.4 -0.3,2.4 -0.6,2.3 -0.8,2.3 -1.1,2.2 -1.2,2.1 -1.4,1.9 -1.7,1.8 -1.8,1.6 -1.9,1.4 -2.1,1.3 -2.2,1 -2.2,0.8 -2.4,0.6 -2.4,0.4 -2.4,0.1 h -49.2 l -2.4,-0.1 -2.4,-0.4 -2.3,-0.6 -2.3,-0.8 -2.2,-1 -2.1,-1.3 -1.9,-1.4 -1.8,-1.6 -1.6,-1.8 -1.4,-1.9 -1.3,-2.1 -1,-2.2 -0.8,-2.3 -0.6,-2.3 -0.4,-2.4 -0.1,-2.4 v -295.3 l 0.1,-2.4 0.4,-2.4 0.6,-2.3 0.8,-2.3 1,-2.2 1.3,-2.1 1.4,-1.9 1.6,-1.8 1.8,-1.6 1.9,-1.5 2.1,-1.2 2.2,-1 2.3,-0.8 2.3,-0.6 2.4,-0.4 2.4,-0.1 h 49.2 z"
         id="path5102" />
    </g>
  </g>
  <g
     id="g2928"
     style="fill:#000000;fill-opacity:1;stroke:#000000;stroke-width:19.685;stroke-linecap:round;stroke-linejoin:round;stroke-miterlimit:4;stroke-dasharray:none" />
  <g
     id="g2930"
     style="fill:#000000;fill-opacity:1;stroke:#000000;stroke-width:19.685;stroke-linecap:round;stroke-linejoin:round;stroke-miterlimit:4;stroke-dasharray:none" />
  <g
     id="g2932"
     style="fill:#000000;fill-opacity:1;stroke:#000000;stroke-width:19.685;stroke-linecap:round;stroke-linejoin:round;stroke-miterlimit:4;stroke-dasharray:none" />
  <g
     id="g2934"
     style="fill:#000000;fill-opacity:1;stroke:#000000;stroke-width:19.685;stroke-linecap:round;stroke-linejoin:round;stroke-miterlimit:4;stroke-dasharray:none" />
  <g
     id="g2936"
     style="fill:#000000;fill-opacity:1;stroke:#000000;stroke-width:19.685;stroke-linecap:round;stroke-linejoin:round;stroke-miterlimit:4;stroke-dasharray:none" />
  <g
     id="g2938"
     style="fill:#000000;fill-opacity:1;stroke:#000000;stroke-width:19.685;stroke-linecap:round;stroke-linejoin:round;stroke-miterlimit:4;stroke-dasharray:none" />
  <g
     id="g2940"
     style="fill:#000000;fill-opacity:1;stroke:#000000;stroke-width:19.685;stroke-linecap:round;stroke-linejoin:round;stroke-miterlimit:4;stroke-dasharray:none" />
  <g
     id="g2942"
     style="fill:#000000;fill-opacity:1;stroke:#000000;stroke-width:19.685;stroke-linecap:round;stroke-linejoin:round;stroke-miterlimit:4;stroke-dasharray:none" />
  <g
     id="g2944"
     style="fill:#000000;fill-opacity:1;stroke:#000000;stroke-width:19.685;stroke-linecap:round;stroke-linejoin:round;stroke-miterlimit:4;stroke-dasharray:none" />
  <g
     id="g2946"
     style="fill:#000000;fill-opacity:1;stroke:#000000;stroke-width:19.685;stroke-linecap:round;stroke-linejoin:round;stroke-miterlimit:4;stroke-dasharray:none" />
  <g
     id="g2948"
     style="fill:#000000;fill-opacity:1;stroke:#000000;stroke-width:19.685;stroke-linecap:round;stroke-linejoin:round;stroke-miterlimit:4;stroke-dasharray:none" />
  <g
     id="g2950"
     style="fill:#000000;fill-opacity:1;stroke:#000000;stroke-width:19.685;stroke-linecap:round;stroke-linejoin:round;stroke-miterlimit:4;stroke-dasharray:none" />
  <g
     id="g2952"
     style="fill:#000000;fill-opacity:1;stroke:#000000;stroke-width:19.685;stroke-linecap:round;stroke-linejoin:round;stroke-miterlimit:4;stroke-dasharray:none" />
  <g
     id="g2954"
     style="fill:#000000;fill-opacity:1;stroke:#000000;stroke-width:19.685;stroke-linecap:round;stroke-linejoin:round;stroke-miterlimit:4;stroke-dasharray:none" />
  <g
     id="g2956"
     style="fill:#000000;fill-opacity:1;stroke:#000000;stroke-width:19.685;stroke-linecap:round;stroke-linejoin:round;stroke-miterlimit:4;stroke-dasharray:none" />
  <g
     id="g2958"
     style="fill:#000000;fill-opacity:1;stroke:#000000;stroke-width:19.685;stroke-linecap:round;stroke-linejoin:round;stroke-miterlimit:4;stroke-dasharray:none" />
  <g
     style="fill:#000000;fill-opacity:1;stroke:#000000;stroke-width:19.685;stroke-linecap:round;stroke-linejoin:round;stroke-miterlimit:4;stroke-dasharray:none"
     id="g2968">
    <g
       id="path2960"
       style="fill:#000000;fill-opacity:1;stroke-width:19.685;stroke-miterlimit:4;stroke-dasharray:none">
      <path
         style="color:#000000;fill:#000000;fill-opacity:1;fill-rule:evenodd;stroke:none;stroke-width:19.685;stroke-miterlimit:4;stroke-dasharray:none"
         d="m 40133.9,42110.2 v 590.6 h -787.4 v -590.6 z"
         id="path5108" />
      <path
         style="color:#000000;fill:#000000;fill-opacity:1;fill-rule:evenodd;stroke:none;stroke-width:19.685;stroke-miterlimit:4;stroke-dasharray:none"
         d="m 40133.9,42110.2 v 590.6 h -787.4 v -590.6 z"
         id="path5110" />
    </g>
    <g
       id="path2962"
       style="fill:#000000;fill-opacity:1;stroke-width:19.685;stroke-miterlimit:4;stroke-dasharray:none">
      <path
         style="color:#000000;fill:#000000;fill-opacity:1;fill-rule:evenodd;stroke:none;stroke-width:19.685;stroke-miterlimit:4;stroke-dasharray:none"
         d="m 40133.9,40299.2 v 590.6 h -787.4 v -590.6 z"
         id="path5116" />
      <path
         style="color:#000000;fill:#000000;fill-opacity:1;fill-rule:evenodd;stroke:none;stroke-width:19.685;stroke-miterlimit:4;stroke-dasharray:none"
         d="m 40133.9,40299.2 v 590.6 h -787.4 v -590.6 z"
         id="path5118" />
    </g>
    <g
       id="path2964"
       style="fill:#000000;fill-opacity:1;stroke-width:19.685;stroke-miterlimit:4;stroke-dasharray:none">
      <path
         style="color:#000000;fill:#000000;fill-opacity:1;fill-rule:evenodd;stroke:none;stroke-width:19.685;stroke-miterlimit:4;stroke-dasharray:none"
         d="m 40133.9,41204.7 v 590.6 h -787.4 v -590.6 z"
         id="path5124" />
      <path
         style="color:#000000;fill:#000000;fill-opacity:1;fill-rule:evenodd;stroke:none;stroke-width:19.685;stroke-miterlimit:4;stroke-dasharray:none"
         d="m 40133.9,41204.7 v 590.6 h -787.4 v -590.6 z"
         id="path5126" />
    </g>
    <g
       id="path2966"
       style="fill:#000000;fill-opacity:1;stroke-width:19.685;stroke-miterlimit:4;stroke-dasharray:none">
      <path
         style="color:#000000;fill:#000000;fill-opacity:1;fill-rule:evenodd;stroke:none;stroke-width:19.685;stroke-miterlimit:4;stroke-dasharray:none"
         d="m 37653.5,40752 v 1496 h -787.4 v -1496 z"
         id="path5132" />
      <path
         style="color:#000000;fill:#000000;fill-opacity:1;fill-rule:evenodd;stroke:none;stroke-width:19.685;stroke-miterlimit:4;stroke-dasharray:none"
         d="m 37653.5,40752 v 1496 h -787.4 v -1496 z"
         id="path5134" />
    </g>
  </g>
  <g
     id="g2970"
     style="fill:#000000;fill-opacity:1;stroke:#000000;stroke-width:19.685;stroke-linecap:round;stroke-linejoin:round;stroke-miterlimit:4;stroke-dasharray:none" />
  <g
     id="g2972"
     style="fill:#000000;fill-opacity:1;stroke:#000000;stroke-width:19.685;stroke-linecap:round;stroke-linejoin:round;stroke-miterlimit:4;stroke-dasharray:none" />
  <g
     id="g2974"
     style="fill:#000000;fill-opacity:1;stroke:#000000;stroke-width:19.685;stroke-linecap:round;stroke-linejoin:round;stroke-miterlimit:4;stroke-dasharray:none" />
  <g
     id="g2976"
     style="fill:#000000;fill-opacity:1;stroke:#000000;stroke-width:19.685;stroke-linecap:round;stroke-linejoin:round;stroke-miterlimit:4;stroke-dasharray:none" />
  <g
     id="g2978"
     style="fill:#000000;fill-opacity:1;stroke:#000000;stroke-width:19.685;stroke-linecap:round;stroke-linejoin:round;stroke-miterlimit:4;stroke-dasharray:none" />
  <g
     id="g2980"
     style="fill:#000000;fill-opacity:1;stroke:#000000;stroke-width:19.685;stroke-linecap:round;stroke-linejoin:round;stroke-miterlimit:4;stroke-dasharray:none" />
  <g
     id="g2982"
     style="fill:#000000;fill-opacity:1;stroke:#000000;stroke-width:19.685;stroke-linecap:round;stroke-linejoin:round;stroke-miterlimit:4;stroke-dasharray:none" />
  <g
     id="g2984"
     style="fill:#000000;fill-opacity:1;stroke:#000000;stroke-width:19.685;stroke-linecap:round;stroke-linejoin:round;stroke-miterlimit:4;stroke-dasharray:none" />
  <g
     id="g2986"
     style="fill:#000000;fill-opacity:1;stroke:#000000;stroke-width:19.685;stroke-linecap:round;stroke-linejoin:round;stroke-miterlimit:4;stroke-dasharray:none" />
  <g
     id="g2988"
     style="fill:#000000;fill-opacity:1;stroke:#000000;stroke-width:19.685;stroke-linecap:round;stroke-linejoin:round;stroke-miterlimit:4;stroke-dasharray:none" />
  <g
     id="g2990"
     style="fill:#000000;fill-opacity:1;stroke:#000000;stroke-width:19.685;stroke-linecap:round;stroke-linejoin:round;stroke-miterlimit:4;stroke-dasharray:none" />
  <g
     id="g2992"
     style="fill:#000000;fill-opacity:1;stroke:#000000;stroke-width:19.685;stroke-linecap:round;stroke-linejoin:round;stroke-miterlimit:4;stroke-dasharray:none" />
  <g
     id="g2994"
     style="fill:#000000;fill-opacity:1;stroke:#000000;stroke-width:19.685;stroke-linecap:round;stroke-linejoin:round;stroke-miterlimit:4;stroke-dasharray:none" />
  <g
     id="g2996"
     style="fill:#000000;fill-opacity:1;stroke:#000000;stroke-width:19.685;stroke-linecap:round;stroke-linejoin:round;stroke-miterlimit:4;stroke-dasharray:none" />
  <g
     id="g2998"
     style="fill:#000000;fill-opacity:1;stroke:#000000;stroke-width:19.685;stroke-linecap:round;stroke-linejoin:round;stroke-miterlimit:4;stroke-dasharray:none" />
  <g
     id="g3000"
     style="fill:#000000;fill-opacity:1;stroke:#000000;stroke-width:19.685;stroke-linecap:round;stroke-linejoin:round;stroke-miterlimit:4;stroke-dasharray:none" />
  <g
     id="g3002"
     style="fill:#000000;fill-opacity:1;stroke:#000000;stroke-width:19.685;stroke-linecap:round;stroke-linejoin:round;stroke-miterlimit:4;stroke-dasharray:none" />
  <g
     id="g3004"
     style="fill:#000000;fill-opacity:1;stroke:#000000;stroke-width:19.685;stroke-linecap:round;stroke-linejoin:round;stroke-miterlimit:4;stroke-dasharray:none" />
  <g
     id="g3006"
     style="fill:#000000;fill-opacity:1;stroke:#000000;stroke-width:19.685;stroke-linecap:round;stroke-linejoin:round;stroke-miterlimit:4;stroke-dasharray:none" />
  <g
     id="g3008"
     style="fill:#000000;fill-opacity:1;stroke:#000000;stroke-width:19.685;stroke-linecap:round;stroke-linejoin:round;stroke-miterlimit:4;stroke-dasharray:none" />
  <g
     style="fill:#000000;fill-opacity:1;stroke:#000000;stroke-width:19.685;stroke-linecap:round;stroke-linejoin:round;stroke-miterlimit:4;stroke-dasharray:none"
     id="g3016">
    <g
       id="path3010"
       style="fill:#000000;fill-opacity:1;stroke-width:19.685;stroke-miterlimit:4;stroke-dasharray:none">
      <path
         style="color:#000000;fill:#000000;fill-opacity:1;fill-rule:evenodd;stroke:none;stroke-width:19.685;stroke-miterlimit:4;stroke-dasharray:none"
         d="m 38242.5,47716.5 h 315 v 354.4 h -315 z"
         id="path5140" />
      <path
         style="color:#000000;fill:#000000;fill-opacity:1;fill-rule:evenodd;stroke:none;stroke-width:19.685;stroke-miterlimit:4;stroke-dasharray:none"
         d="m 38242.5,47716.5 h 315 v 354.4 h -315 z"
         id="path5142" />
    </g>
    <g
       id="path3012"
       style="fill:#000000;fill-opacity:1;stroke-width:19.685;stroke-miterlimit:4;stroke-dasharray:none">
      <path
         style="color:#000000;fill:#000000;fill-opacity:1;fill-rule:evenodd;stroke:none;stroke-width:19.685;stroke-miterlimit:4;stroke-dasharray:none"
         d="m 37868.5,46929.1 h 315 v 354.4 h -315 z"
         id="path5148" />
      <path
         style="color:#000000;fill:#000000;fill-opacity:1;fill-rule:evenodd;stroke:none;stroke-width:19.685;stroke-miterlimit:4;stroke-dasharray:none"
         d="m 37868.5,46929.1 h 315 v 354.4 h -315 z"
         id="path5150" />
    </g>
    <g
       id="path3014"
       style="fill:#000000;fill-opacity:1;stroke-width:19.685;stroke-miterlimit:4;stroke-dasharray:none">
      <path
         style="color:#000000;fill:#000000;fill-opacity:1;fill-rule:evenodd;stroke:none;stroke-width:19.685;stroke-miterlimit:4;stroke-dasharray:none"
         d="m 38616.5,46929.1 h 315 v 354.4 h -315 z"
         id="path5156" />
      <path
         style="color:#000000;fill:#000000;fill-opacity:1;fill-rule:evenodd;stroke:none;stroke-width:19.685;stroke-miterlimit:4;stroke-dasharray:none"
         d="m 38616.5,46929.1 h 315 v 354.4 h -315 z"
         id="path5158" />
    </g>
  </g>
  <g
     id="g3018"
     style="fill:#000000;fill-opacity:1;stroke:#000000;stroke-width:19.685;stroke-linecap:round;stroke-linejoin:round;stroke-miterlimit:4;stroke-dasharray:none" />
  <g
     id="g3020"
     style="fill:#000000;fill-opacity:1;stroke:#000000;stroke-width:19.685;stroke-linecap:round;stroke-linejoin:round;stroke-miterlimit:4;stroke-dasharray:none" />
  <g
     id="g3022"
     style="fill:#000000;fill-opacity:1;stroke:#000000;stroke-width:19.685;stroke-linecap:round;stroke-linejoin:round;stroke-miterlimit:4;stroke-dasharray:none" />
  <g
     id="g3024"
     style="fill:#000000;fill-opacity:1;stroke:#000000;stroke-width:19.685;stroke-linecap:round;stroke-linejoin:round;stroke-miterlimit:4;stroke-dasharray:none" />
  <g
     id="g3026"
     style="fill:#000000;fill-opacity:1;stroke:#000000;stroke-width:19.685;stroke-linecap:round;stroke-linejoin:round;stroke-miterlimit:4;stroke-dasharray:none" />
  <g
     id="g3028"
     style="fill:#000000;fill-opacity:1;stroke:#000000;stroke-width:19.685;stroke-linecap:round;stroke-linejoin:round;stroke-miterlimit:4;stroke-dasharray:none" />
  <g
     id="g3030"
     style="fill:#000000;fill-opacity:1;stroke:#000000;stroke-width:19.685;stroke-linecap:round;stroke-linejoin:round;stroke-miterlimit:4;stroke-dasharray:none" />
  <g
     id="g3032"
     style="fill:#000000;fill-opacity:1;stroke:#000000;stroke-width:19.685;stroke-linecap:round;stroke-linejoin:round;stroke-miterlimit:4;stroke-dasharray:none" />
  <g
     id="g3034"
     style="fill:#000000;fill-opacity:1;stroke:#000000;stroke-width:19.685;stroke-linecap:round;stroke-linejoin:round;stroke-miterlimit:4;stroke-dasharray:none" />
  <g
     id="g3036"
     style="fill:#000000;fill-opacity:1;stroke:#000000;stroke-width:19.685;stroke-linecap:round;stroke-linejoin:round;stroke-miterlimit:4;stroke-dasharray:none" />
  <g
     id="g3038"
     style="fill:#000000;fill-opacity:1;stroke:#000000;stroke-width:19.685;stroke-linecap:round;stroke-linejoin:round;stroke-miterlimit:4;stroke-dasharray:none" />
  <g
     id="g3040"
     style="fill:#000000;fill-opacity:1;stroke:#000000;stroke-width:19.685;stroke-linecap:round;stroke-linejoin:round;stroke-miterlimit:4;stroke-dasharray:none" />
  <g
     id="g3042"
     style="fill:#000000;fill-opacity:1;stroke:#000000;stroke-width:19.685;stroke-linecap:round;stroke-linejoin:round;stroke-miterlimit:4;stroke-dasharray:none" />
  <g
     id="g3044"
     style="fill:#000000;fill-opacity:1;stroke:#000000;stroke-width:19.685;stroke-linecap:round;stroke-linejoin:round;stroke-miterlimit:4;stroke-dasharray:none" />
  <g
     id="g3046"
     style="fill:#000000;fill-opacity:1;stroke:#000000;stroke-width:19.685;stroke-linecap:round;stroke-linejoin:round;stroke-miterlimit:4;stroke-dasharray:none" />
  <g
     id="g3048"
     style="fill:#000000;fill-opacity:1;stroke:#000000;stroke-width:19.685;stroke-linecap:round;stroke-linejoin:round;stroke-miterlimit:4;stroke-dasharray:none" />
  <g
     id="g3050"
     style="fill:#000000;fill-opacity:1;stroke:#000000;stroke-width:19.685;stroke-linecap:round;stroke-linejoin:round;stroke-miterlimit:4;stroke-dasharray:none" />
  <g
     id="g3052"
     style="fill:#000000;fill-opacity:1;stroke:#000000;stroke-width:19.685;stroke-linecap:round;stroke-linejoin:round;stroke-miterlimit:4;stroke-dasharray:none" />
  <g
     id="g3054"
     style="fill:#000000;fill-opacity:1;stroke:#000000;stroke-width:19.685;stroke-linecap:round;stroke-linejoin:round;stroke-miterlimit:4;stroke-dasharray:none" />
  <g
     id="g3056"
     style="fill:#000000;fill-opacity:1;stroke:#000000;stroke-width:19.685;stroke-linecap:round;stroke-linejoin:round;stroke-miterlimit:4;stroke-dasharray:none" />
  <g
     id="g3058"
     style="fill:#000000;fill-opacity:1;stroke:#000000;stroke-width:19.685;stroke-linecap:round;stroke-linejoin:round;stroke-miterlimit:4;stroke-dasharray:none" />
  <g
     id="g3060"
     style="fill:#000000;fill-opacity:1;stroke:#000000;stroke-width:19.685;stroke-linecap:round;stroke-linejoin:round;stroke-miterlimit:4;stroke-dasharray:none" />
  <g
     id="g3062"
     style="fill:#000000;fill-opacity:1;stroke:#000000;stroke-width:19.685;stroke-linecap:round;stroke-linejoin:round;stroke-miterlimit:4;stroke-dasharray:none" />
  <g
     id="g3064"
     style="fill:#000000;fill-opacity:1;stroke:#000000;stroke-width:19.685;stroke-linecap:round;stroke-linejoin:round;stroke-miterlimit:4;stroke-dasharray:none" />
  <g
     id="g3066"
     style="fill:#000000;fill-opacity:1;stroke:#000000;stroke-width:19.685;stroke-linecap:round;stroke-linejoin:round;stroke-miterlimit:4;stroke-dasharray:none" />
  <g
     id="g3068"
     style="fill:#000000;fill-opacity:1;stroke:#000000;stroke-width:19.685;stroke-linecap:round;stroke-linejoin:round;stroke-miterlimit:4;stroke-dasharray:none" />
  <g
     id="g3070"
     style="fill:#000000;fill-opacity:1;stroke:#000000;stroke-width:19.685;stroke-linecap:round;stroke-linejoin:round;stroke-miterlimit:4;stroke-dasharray:none" />
  <g
     style="fill:#000000;fill-opacity:1;stroke:#000000;stroke-width:19.685;stroke-linecap:round;stroke-linejoin:round;stroke-miterlimit:4;stroke-dasharray:none"
     id="g3076">
    <g
       id="path3072"
       style="fill:#000000;fill-opacity:1;stroke-width:19.685;stroke-miterlimit:4;stroke-dasharray:none">
      <path
         style="color:#000000;fill:#000000;fill-opacity:1;fill-rule:evenodd;stroke:none;stroke-width:19.685;stroke-miterlimit:4;stroke-dasharray:none"
         d="m 36196.7,41677.6 9.5,1.5 9.4,2.3 9.1,3.3 8.7,4.1 8.3,5 7.7,5.7 7.2,6.5 6.5,7.2 5.7,7.7 5,8.3 4.1,8.7 3.3,9.1 2.3,9.4 1.5,9.5 0.4,9.7 v 265.7 l -0.4,9.7 -1.5,9.5 -2.3,9.4 -3.3,9.1 -4.1,8.7 -5,8.3 -5.7,7.8 -6.5,7.1 -7.2,6.5 -7.7,5.8 -8.3,4.9 -8.7,4.2 -9.1,3.2 -9.4,2.4 -9.5,1.4 -9.7,0.5 h -374 l -9.7,-0.5 -9.5,-1.4 -9.4,-2.4 -9.1,-3.2 -8.7,-4.2 -8.3,-4.9 -7.7,-5.8 -7.2,-6.5 -6.5,-7.1 -5.7,-7.8 -5,-8.3 -4.1,-8.7 -3.3,-9.1 -2.3,-9.4 -1.5,-9.5 -0.4,-9.7 v -265.7 l 0.4,-9.7 1.5,-9.5 2.3,-9.4 3.3,-9.1 4.1,-8.7 5,-8.3 5.7,-7.7 6.5,-7.2 7.2,-6.5 7.7,-5.7 8.3,-5 8.7,-4.1 9.1,-3.3 9.4,-2.3 9.5,-1.5 9.7,-0.4 h 374 z"
         id="path5164" />
      <path
         style="color:#000000;fill:#000000;fill-opacity:1;fill-rule:evenodd;stroke:none;stroke-width:19.685;stroke-miterlimit:4;stroke-dasharray:none"
         d="m 36196.7,41677.6 9.5,1.5 9.4,2.3 9.1,3.3 8.7,4.1 8.3,5 7.7,5.7 7.2,6.5 6.5,7.2 5.7,7.7 5,8.3 4.1,8.7 3.3,9.1 2.3,9.4 1.5,9.5 0.4,9.7 v 265.7 l -0.4,9.7 -1.5,9.5 -2.3,9.4 -3.3,9.1 -4.1,8.7 -5,8.3 -5.7,7.8 -6.5,7.1 -7.2,6.5 -7.7,5.8 -8.3,4.9 -8.7,4.2 -9.1,3.2 -9.4,2.4 -9.5,1.4 -9.7,0.5 h -374 l -9.7,-0.5 -9.5,-1.4 -9.4,-2.4 -9.1,-3.2 -8.7,-4.2 -8.3,-4.9 -7.7,-5.8 -7.2,-6.5 -6.5,-7.1 -5.7,-7.8 -5,-8.3 -4.1,-8.7 -3.3,-9.1 -2.3,-9.4 -1.5,-9.5 -0.4,-9.7 v -265.7 l 0.4,-9.7 1.5,-9.5 2.3,-9.4 3.3,-9.1 4.1,-8.7 5,-8.3 5.7,-7.7 6.5,-7.2 7.2,-6.5 7.7,-5.7 8.3,-5 8.7,-4.1 9.1,-3.3 9.4,-2.3 9.5,-1.5 9.7,-0.4 h 374 z"
         id="path5166" />
    </g>
    <g
       id="path3074"
       style="fill:#000000;fill-opacity:1;stroke-width:19.685;stroke-miterlimit:4;stroke-dasharray:none">
      <path
         style="color:#000000;fill:#000000;fill-opacity:1;fill-rule:evenodd;stroke:none;stroke-width:19.685;stroke-miterlimit:4;stroke-dasharray:none"
         d="m 36196.7,40860.7 9.5,1.4 9.4,2.4 9.1,3.2 8.7,4.2 8.3,4.9 7.7,5.8 7.2,6.5 6.5,7.1 5.7,7.8 5,8.3 4.1,8.7 3.3,9.1 2.3,9.4 1.5,9.5 0.4,9.7 v 265.7 l -0.4,9.7 -1.5,9.5 -2.3,9.4 -3.3,9.1 -4.1,8.7 -5,8.3 -5.7,7.7 -6.5,7.2 -7.2,6.5 -7.7,5.7 -8.3,5 -8.7,4.1 -9.1,3.3 -9.4,2.3 -9.5,1.5 -9.7,0.4 h -374 l -9.7,-0.4 -9.5,-1.5 -9.4,-2.3 -9.1,-3.3 -8.7,-4.1 -8.3,-5 -7.7,-5.7 -7.2,-6.5 -6.5,-7.2 -5.7,-7.7 -5,-8.3 -4.1,-8.7 -3.3,-9.1 -2.3,-9.4 -1.5,-9.5 -0.4,-9.7 v -265.7 l 0.4,-9.7 1.5,-9.5 2.3,-9.4 3.3,-9.1 4.1,-8.7 5,-8.3 5.7,-7.8 6.5,-7.1 7.2,-6.5 7.7,-5.8 8.3,-4.9 8.7,-4.2 9.1,-3.2 9.4,-2.4 9.5,-1.4 9.7,-0.5 h 374 z"
         id="path5172" />
      <path
         style="color:#000000;fill:#000000;fill-opacity:1;fill-rule:evenodd;stroke:none;stroke-width:19.685;stroke-miterlimit:4;stroke-dasharray:none"
         d="m 36196.7,40860.7 9.5,1.4 9.4,2.4 9.1,3.2 8.7,4.2 8.3,4.9 7.7,5.8 7.2,6.5 6.5,7.1 5.7,7.8 5,8.3 4.1,8.7 3.3,9.1 2.3,9.4 1.5,9.5 0.4,9.7 v 265.7 l -0.4,9.7 -1.5,9.5 -2.3,9.4 -3.3,9.1 -4.1,8.7 -5,8.3 -5.7,7.7 -6.5,7.2 -7.2,6.5 -7.7,5.7 -8.3,5 -8.7,4.1 -9.1,3.3 -9.4,2.3 -9.5,1.5 -9.7,0.4 h -374 l -9.7,-0.4 -9.5,-1.5 -9.4,-2.3 -9.1,-3.3 -8.7,-4.1 -8.3,-5 -7.7,-5.7 -7.2,-6.5 -6.5,-7.2 -5.7,-7.7 -5,-8.3 -4.1,-8.7 -3.3,-9.1 -2.3,-9.4 -1.5,-9.5 -0.4,-9.7 v -265.7 l 0.4,-9.7 1.5,-9.5 2.3,-9.4 3.3,-9.1 4.1,-8.7 5,-8.3 5.7,-7.8 6.5,-7.1 7.2,-6.5 7.7,-5.8 8.3,-4.9 8.7,-4.2 9.1,-3.2 9.4,-2.4 9.5,-1.4 9.7,-0.5 h 374 z"
         id="path5174" />
    </g>
  </g>
  <g
     id="g3078"
     style="fill:#000000;fill-opacity:1;stroke:#000000;stroke-width:19.685;stroke-linecap:round;stroke-linejoin:round;stroke-miterlimit:4;stroke-dasharray:none" />
  <g
     style="fill:#000000;fill-opacity:1;stroke:#000000;stroke-width:19.685;stroke-linecap:round;stroke-linejoin:round;stroke-miterlimit:4;stroke-dasharray:none"
     id="g3084">
    <g
       id="path3080"
       style="fill:#000000;fill-opacity:1;stroke-width:19.685;stroke-miterlimit:4;stroke-dasharray:none">
      <path
         style="color:#000000;fill:#000000;fill-opacity:1;fill-rule:evenodd;stroke:none;stroke-width:19.685;stroke-miterlimit:4;stroke-dasharray:none"
         d="m 41542.7,41954.8 9.6,1.4 9.3,2.4 9.1,3.2 8.8,4.2 8.3,4.9 7.7,5.8 7.2,6.5 6.5,7.1 5.7,7.8 5,8.3 4.1,8.7 3.3,9.1 2.3,9.4 1.4,9.5 0.5,9.7 v 324.8 l -0.5,9.6 -1.4,9.6 -2.3,9.3 -3.3,9.1 -4.1,8.8 -5,8.2 -5.7,7.8 -6.5,7.2 -7.2,6.4 -7.7,5.8 -8.3,5 -8.8,4.1 -9.1,3.2 -9.3,2.4 -9.6,1.4 -9.6,0.5 h -866.2 l -9.6,-0.5 -9.6,-1.4 -9.3,-2.4 -9.1,-3.2 -8.8,-4.1 -8.3,-5 -7.7,-5.8 -7.2,-6.4 -6.5,-7.2 -5.7,-7.8 -5,-8.2 -4.1,-8.8 -3.3,-9.1 -2.3,-9.3 -1.4,-9.6 -0.5,-9.6 v -324.8 l 0.5,-9.7 1.4,-9.5 2.3,-9.4 3.3,-9.1 4.1,-8.7 5,-8.3 5.7,-7.8 6.5,-7.1 7.2,-6.5 7.7,-5.8 8.3,-4.9 8.8,-4.2 9.1,-3.2 9.3,-2.4 9.6,-1.4 9.6,-0.5 h 866.2 z"
         id="path5180" />
      <path
         style="color:#000000;fill:#000000;fill-opacity:1;fill-rule:evenodd;stroke:none;stroke-width:19.685;stroke-miterlimit:4;stroke-dasharray:none"
         d="m 41542.7,41954.8 9.6,1.4 9.3,2.4 9.1,3.2 8.8,4.2 8.3,4.9 7.7,5.8 7.2,6.5 6.5,7.1 5.7,7.8 5,8.3 4.1,8.7 3.3,9.1 2.3,9.4 1.4,9.5 0.5,9.7 v 324.8 l -0.5,9.6 -1.4,9.6 -2.3,9.3 -3.3,9.1 -4.1,8.8 -5,8.2 -5.7,7.8 -6.5,7.2 -7.2,6.4 -7.7,5.8 -8.3,5 -8.8,4.1 -9.1,3.2 -9.3,2.4 -9.6,1.4 -9.6,0.5 h -866.2 l -9.6,-0.5 -9.6,-1.4 -9.3,-2.4 -9.1,-3.2 -8.8,-4.1 -8.3,-5 -7.7,-5.8 -7.2,-6.4 -6.5,-7.2 -5.7,-7.8 -5,-8.2 -4.1,-8.8 -3.3,-9.1 -2.3,-9.3 -1.4,-9.6 -0.5,-9.6 v -324.8 l 0.5,-9.7 1.4,-9.5 2.3,-9.4 3.3,-9.1 4.1,-8.7 5,-8.3 5.7,-7.8 6.5,-7.1 7.2,-6.5 7.7,-5.8 8.3,-4.9 8.8,-4.2 9.1,-3.2 9.3,-2.4 9.6,-1.4 9.6,-0.5 h 866.2 z"
         id="path5182" />
    </g>
    <g
       id="path3082"
       style="fill:#000000;fill-opacity:1;stroke-width:19.685;stroke-miterlimit:4;stroke-dasharray:none">
      <path
         style="color:#000000;fill:#000000;fill-opacity:1;fill-rule:evenodd;stroke:none;stroke-width:19.685;stroke-miterlimit:4;stroke-dasharray:none"
         d="m 41542.7,40724.5 9.6,1.4 9.3,2.4 9.1,3.2 8.8,4.1 8.3,5 7.7,5.8 7.2,6.4 6.5,7.2 5.7,7.8 5,8.2 4.1,8.8 3.3,9.1 2.3,9.3 1.4,9.6 0.5,9.6 v 324.8 l -0.5,9.7 -1.4,9.5 -2.3,9.4 -3.3,9.1 -4.1,8.7 -5,8.3 -5.7,7.8 -6.5,7.1 -7.2,6.5 -7.7,5.8 -8.3,4.9 -8.8,4.2 -9.1,3.2 -9.3,2.4 -9.6,1.4 -9.6,0.5 h -866.2 l -9.6,-0.5 -9.6,-1.4 -9.3,-2.4 -9.1,-3.2 -8.8,-4.2 -8.3,-4.9 -7.7,-5.8 -7.2,-6.5 -6.5,-7.1 -5.7,-7.8 -5,-8.3 -4.1,-8.7 -3.3,-9.1 -2.3,-9.4 -1.4,-9.5 -0.5,-9.7 v -324.8 l 0.5,-9.6 1.4,-9.6 2.3,-9.3 3.3,-9.1 4.1,-8.8 5,-8.2 5.7,-7.8 6.5,-7.2 7.2,-6.4 7.7,-5.8 8.3,-5 8.8,-4.1 9.1,-3.2 9.3,-2.4 9.6,-1.4 9.6,-0.5 h 866.2 z"
         id="path5188" />
      <path
         style="color:#000000;fill:#000000;fill-opacity:1;fill-rule:evenodd;stroke:none;stroke-width:19.685;stroke-miterlimit:4;stroke-dasharray:none"
         d="m 41542.7,40724.5 9.6,1.4 9.3,2.4 9.1,3.2 8.8,4.1 8.3,5 7.7,5.8 7.2,6.4 6.5,7.2 5.7,7.8 5,8.2 4.1,8.8 3.3,9.1 2.3,9.3 1.4,9.6 0.5,9.6 v 324.8 l -0.5,9.7 -1.4,9.5 -2.3,9.4 -3.3,9.1 -4.1,8.7 -5,8.3 -5.7,7.8 -6.5,7.1 -7.2,6.5 -7.7,5.8 -8.3,4.9 -8.8,4.2 -9.1,3.2 -9.3,2.4 -9.6,1.4 -9.6,0.5 h -866.2 l -9.6,-0.5 -9.6,-1.4 -9.3,-2.4 -9.1,-3.2 -8.8,-4.2 -8.3,-4.9 -7.7,-5.8 -7.2,-6.5 -6.5,-7.1 -5.7,-7.8 -5,-8.3 -4.1,-8.7 -3.3,-9.1 -2.3,-9.4 -1.4,-9.5 -0.5,-9.7 v -324.8 l 0.5,-9.6 1.4,-9.6 2.3,-9.3 3.3,-9.1 4.1,-8.8 5,-8.2 5.7,-7.8 6.5,-7.2 7.2,-6.4 7.7,-5.8 8.3,-5 8.8,-4.1 9.1,-3.2 9.3,-2.4 9.6,-1.4 9.6,-0.5 h 866.2 z"
         id="path5190" />
    </g>
  </g>
  <g
     id="g3086"
     style="fill:#000000;fill-opacity:1;stroke:#000000;stroke-width:19.685;stroke-linecap:round;stroke-linejoin:round;stroke-miterlimit:4;stroke-dasharray:none" />
  <g
     id="g3088"
     style="fill:#000000;fill-opacity:1;stroke:#000000;stroke-width:19.685;stroke-linecap:round;stroke-linejoin:round;stroke-miterlimit:4;stroke-dasharray:none" />
  <g
     id="g3090"
     style="fill:#000000;fill-opacity:1;stroke:#000000;stroke-width:19.685;stroke-linecap:round;stroke-linejoin:round;stroke-miterlimit:4;stroke-dasharray:none" />
  <g
     id="g3092"
     style="fill:#000000;fill-opacity:1;stroke:#000000;stroke-width:19.685;stroke-linecap:round;stroke-linejoin:round;stroke-miterlimit:4;stroke-dasharray:none" />
  <g
     id="g3094"
     style="fill:#000000;fill-opacity:1;stroke:#000000;stroke-width:19.685;stroke-linecap:round;stroke-linejoin:round;stroke-miterlimit:4;stroke-dasharray:none" />
  <g
     id="g3096"
     style="fill:#000000;fill-opacity:1;stroke:#000000;stroke-width:19.685;stroke-linecap:round;stroke-linejoin:round;stroke-miterlimit:4;stroke-dasharray:none" />
  <g
     style="fill:#000000;fill-opacity:1;stroke:#000000;stroke-width:19.685;stroke-linecap:round;stroke-linejoin:round;stroke-miterlimit:4;stroke-dasharray:none"
     id="g3102">
    <g
       id="path3098"
       style="fill:#000000;fill-opacity:1;stroke-width:19.685;stroke-miterlimit:4;stroke-dasharray:none">
      <path
         style="color:#000000;fill:#000000;fill-opacity:1;fill-rule:evenodd;stroke:none;stroke-width:19.685;stroke-miterlimit:4;stroke-dasharray:none"
         d="m 33796.7,33569.2 9.5,1.4 9.4,2.3 9.1,3.3 8.7,4.1 8.3,5 7.7,5.7 7.2,6.5 6.5,7.2 5.7,7.7 5,8.3 4.1,8.8 3.3,9.1 2.3,9.3 1.5,9.6 0.4,9.6 v 265.8 l -0.4,9.6 -1.5,9.6 -2.3,9.3 -3.3,9.1 -4.1,8.8 -5,8.3 -5.7,7.7 -6.5,7.2 -7.2,6.5 -7.7,5.7 -8.3,5 -8.7,4.1 -9.1,3.3 -9.4,2.3 -9.5,1.4 -9.7,0.5 h -374 l -9.7,-0.5 -9.5,-1.4 -9.4,-2.3 -9.1,-3.3 -8.7,-4.1 -8.3,-5 -7.7,-5.7 -7.2,-6.5 -6.5,-7.2 -5.7,-7.7 -5,-8.3 -4.1,-8.8 -3.3,-9.1 -2.3,-9.3 -1.5,-9.6 -0.4,-9.6 v -265.8 l 0.4,-9.6 1.5,-9.6 2.3,-9.3 3.3,-9.1 4.1,-8.8 5,-8.3 5.7,-7.7 6.5,-7.2 7.2,-6.5 7.7,-5.7 8.3,-5 8.7,-4.1 9.1,-3.3 9.4,-2.3 9.5,-1.4 9.7,-0.5 h 374 z"
         id="path5196" />
      <path
         style="color:#000000;fill:#000000;fill-opacity:1;fill-rule:evenodd;stroke:none;stroke-width:19.685;stroke-miterlimit:4;stroke-dasharray:none"
         d="m 33796.7,33569.2 9.5,1.4 9.4,2.3 9.1,3.3 8.7,4.1 8.3,5 7.7,5.7 7.2,6.5 6.5,7.2 5.7,7.7 5,8.3 4.1,8.8 3.3,9.1 2.3,9.3 1.5,9.6 0.4,9.6 v 265.8 l -0.4,9.6 -1.5,9.6 -2.3,9.3 -3.3,9.1 -4.1,8.8 -5,8.3 -5.7,7.7 -6.5,7.2 -7.2,6.5 -7.7,5.7 -8.3,5 -8.7,4.1 -9.1,3.3 -9.4,2.3 -9.5,1.4 -9.7,0.5 h -374 l -9.7,-0.5 -9.5,-1.4 -9.4,-2.3 -9.1,-3.3 -8.7,-4.1 -8.3,-5 -7.7,-5.7 -7.2,-6.5 -6.5,-7.2 -5.7,-7.7 -5,-8.3 -4.1,-8.8 -3.3,-9.1 -2.3,-9.3 -1.5,-9.6 -0.4,-9.6 v -265.8 l 0.4,-9.6 1.5,-9.6 2.3,-9.3 3.3,-9.1 4.1,-8.8 5,-8.3 5.7,-7.7 6.5,-7.2 7.2,-6.5 7.7,-5.7 8.3,-5 8.7,-4.1 9.1,-3.3 9.4,-2.3 9.5,-1.4 9.7,-0.5 h 374 z"
         id="path5198" />
    </g>
    <g
       id="path3100"
       style="fill:#000000;fill-opacity:1;stroke-width:19.685;stroke-miterlimit:4;stroke-dasharray:none">
      <path
         style="color:#000000;fill:#000000;fill-opacity:1;fill-rule:evenodd;stroke:none;stroke-width:19.685;stroke-miterlimit:4;stroke-dasharray:none"
         d="m 33796.7,34386.1 9.5,1.4 9.4,2.4 9.1,3.2 8.7,4.2 8.3,4.9 7.7,5.8 7.2,6.5 6.5,7.1 5.7,7.8 5,8.3 4.1,8.7 3.3,9.1 2.3,9.4 1.5,9.5 0.4,9.7 v 265.7 l -0.4,9.7 -1.5,9.5 -2.3,9.4 -3.3,9.1 -4.1,8.7 -5,8.3 -5.7,7.7 -6.5,7.2 -7.2,6.5 -7.7,5.7 -8.3,5 -8.7,4.1 -9.1,3.3 -9.4,2.3 -9.5,1.5 -9.7,0.4 h -374 l -9.7,-0.4 -9.5,-1.5 -9.4,-2.3 -9.1,-3.3 -8.7,-4.1 -8.3,-5 -7.7,-5.7 -7.2,-6.5 -6.5,-7.2 -5.7,-7.7 -5,-8.3 -4.1,-8.7 -3.3,-9.1 -2.3,-9.4 -1.5,-9.5 -0.4,-9.7 v -265.7 l 0.4,-9.7 1.5,-9.5 2.3,-9.4 3.3,-9.1 4.1,-8.7 5,-8.3 5.7,-7.8 6.5,-7.1 7.2,-6.5 7.7,-5.8 8.3,-4.9 8.7,-4.2 9.1,-3.2 9.4,-2.4 9.5,-1.4 9.7,-0.5 h 374 z"
         id="path5204" />
      <path
         style="color:#000000;fill:#000000;fill-opacity:1;fill-rule:evenodd;stroke:none;stroke-width:19.685;stroke-miterlimit:4;stroke-dasharray:none"
         d="m 33796.7,34386.1 9.5,1.4 9.4,2.4 9.1,3.2 8.7,4.2 8.3,4.9 7.7,5.8 7.2,6.5 6.5,7.1 5.7,7.8 5,8.3 4.1,8.7 3.3,9.1 2.3,9.4 1.5,9.5 0.4,9.7 v 265.7 l -0.4,9.7 -1.5,9.5 -2.3,9.4 -3.3,9.1 -4.1,8.7 -5,8.3 -5.7,7.7 -6.5,7.2 -7.2,6.5 -7.7,5.7 -8.3,5 -8.7,4.1 -9.1,3.3 -9.4,2.3 -9.5,1.5 -9.7,0.4 h -374 l -9.7,-0.4 -9.5,-1.5 -9.4,-2.3 -9.1,-3.3 -8.7,-4.1 -8.3,-5 -7.7,-5.7 -7.2,-6.5 -6.5,-7.2 -5.7,-7.7 -5,-8.3 -4.1,-8.7 -3.3,-9.1 -2.3,-9.4 -1.5,-9.5 -0.4,-9.7 v -265.7 l 0.4,-9.7 1.5,-9.5 2.3,-9.4 3.3,-9.1 4.1,-8.7 5,-8.3 5.7,-7.8 6.5,-7.1 7.2,-6.5 7.7,-5.8 8.3,-4.9 8.7,-4.2 9.1,-3.2 9.4,-2.4 9.5,-1.4 9.7,-0.5 h 374 z"
         id="path5206" />
    </g>
  </g>
  <g
     id="g3104"
     style="fill:#000000;fill-opacity:1;stroke:#000000;stroke-width:19.685;stroke-linecap:round;stroke-linejoin:round;stroke-miterlimit:4;stroke-dasharray:none" />
  <g
     id="g3106"
     style="fill:#000000;fill-opacity:1;stroke:#000000;stroke-width:19.685;stroke-linecap:round;stroke-linejoin:round;stroke-miterlimit:4;stroke-dasharray:none" />
  <g
     id="g3108"
     style="fill:#000000;fill-opacity:1;stroke:#000000;stroke-width:19.685;stroke-linecap:round;stroke-linejoin:round;stroke-miterlimit:4;stroke-dasharray:none" />
</svg>
