<?xml version="1.0" encoding="UTF-8" standalone="no"?>
<svg
   version="1.1"
   width="29.700220cm"
   height="21.000720cm"
   viewBox="0 0 116930 82680"
   id="svg2874"
   sodipodi:docname="osculati_amperemetre_sensor-B_Paste.svg"
   inkscape:version="1.1 (c68e22c387, 2021-05-23)"
   xmlns:inkscape="http://www.inkscape.org/namespaces/inkscape"
   xmlns:sodipodi="http://sodipodi.sourceforge.net/DTD/sodipodi-0.dtd"
   xmlns="http://www.w3.org/2000/svg"
   xmlns:svg="http://www.w3.org/2000/svg">
  <defs
     id="defs2878" />
  <sodipodi:namedview
     id="namedview2876"
     pagecolor="#ffffff"
     bordercolor="#666666"
     borderopacity="1.0"
     inkscape:pageshadow="2"
     inkscape:pageopacity="0.0"
     inkscape:pagecheckerboard="0"
     inkscape:document-units="cm"
     showgrid="false"
     showguides="false"
     inkscape:zoom="1.5518919"
     inkscape:cx="492.94671"
     inkscape:cy="385.65831"
     inkscape:window-width="1461"
     inkscape:window-height="754"
     inkscape:window-x="268"
     inkscape:window-y="219"
     inkscape:window-maximized="0"
     inkscape:current-layer="svg2874">
    <sodipodi:guide
       position="55531.343,60372.537"
       orientation="0,-1"
       id="guide3498" />
  </sodipodi:namedview>
  <title
     id="title2640">SVG Picture created as osculati_amperemetre_sensor-B_Paste.svg date 2021/12/20 11:09:50 </title>
  <desc
     id="desc2642">Picture generated by PCBNEW </desc>
  <g
     style="fill:#000000;fill-opacity:1;stroke:#000000;stroke-opacity:1;stroke-linecap:round;stroke-linejoin:round"
     transform="translate(0 0) scale(1 1)"
     id="g2644" />
  <g
     style="fill:#000000;fill-opacity:1;stroke:#000000;stroke-width:-0.000393701;stroke-opacity:1;stroke-linecap:round;stroke-linejoin:round"
     id="g2646" />
  <g
     id="path2648"
     style="fill:none;fill-opacity:1;stroke:#ff0000;stroke-opacity:1;stroke-width:10.4166671;stroke-miterlimit:4;stroke-dasharray:none">
    <path
       style="color:#000000;fill:none;fill-opacity:1;stroke-width:10.4166671;stroke-linecap:round;stroke-linejoin:round;stroke:#ff0000;stroke-opacity:1;stroke-miterlimit:4;stroke-dasharray:none"
       d="M 75985,55511 V 35039"
       id="path3492" />
    <path
       style="color:#000000;fill:none;stroke-linecap:round;stroke-linejoin:round;fill-opacity:1;stroke:#ff0000;stroke-opacity:1;stroke-width:10.4166671;stroke-miterlimit:4;stroke-dasharray:none"
       d="m 75985,35029.158 a 9.8424997,9.8424997 0 0 0 -9.842,9.842 v 20472 a 9.8424997,9.8424997 0 0 0 9.842,9.842 9.8424997,9.8424997 0 0 0 9.842,-9.842 V 35039 a 9.8424997,9.8424997 0 0 0 -9.842,-9.842 z"
       id="path3494" />
  </g>
  <g
     id="path2650"
     style="fill:none;fill-opacity:1;stroke:#ff0000;stroke-opacity:1;stroke-width:10.4166671;stroke-miterlimit:4;stroke-dasharray:none">
    <path
       style="color:#000000;fill:none;fill-opacity:1;stroke-width:10.4166671;stroke-linecap:round;stroke-linejoin:round;stroke:#ff0000;stroke-opacity:1;stroke-miterlimit:4;stroke-dasharray:none"
       d="M 51575,55511 H 75985"
       id="path3484" />
    <path
       style="color:#000000;fill:none;stroke-linecap:round;stroke-linejoin:round;fill-opacity:1;stroke:#ff0000;stroke-opacity:1;stroke-width:10.4166671;stroke-miterlimit:4;stroke-dasharray:none"
       d="m 51575,55501.158 a 9.8424997,9.8424997 0 0 0 -9.842,9.842 9.8424997,9.8424997 0 0 0 9.842,9.842 h 24410 a 9.8424997,9.8424997 0 0 0 9.842,-9.842 9.8424997,9.8424997 0 0 0 -9.842,-9.842 z"
       id="path3486" />
  </g>
  <g
     id="path2652"
     style="fill:none;fill-opacity:1;stroke:#ff0000;stroke-opacity:1;stroke-width:10.4166671;stroke-miterlimit:4;stroke-dasharray:none">
    <path
       style="color:#000000;fill:none;fill-opacity:1;stroke-width:10.4166671;stroke-linecap:round;stroke-linejoin:round;stroke:#ff0000;stroke-opacity:1;stroke-miterlimit:4;stroke-dasharray:none"
       d="M 51575,35039 V 55511"
       id="path3476" />
    <path
       style="color:#000000;fill:none;stroke-linecap:round;stroke-linejoin:round;fill-opacity:1;stroke:#ff0000;stroke-opacity:1;stroke-width:10.4166671;stroke-miterlimit:4;stroke-dasharray:none"
       d="m 51575,35029.158 a 9.8424997,9.8424997 0 0 0 -9.842,9.842 v 20472 a 9.8424997,9.8424997 0 0 0 9.842,9.842 9.8424997,9.8424997 0 0 0 9.842,-9.842 V 35039 a 9.8424997,9.8424997 0 0 0 -9.842,-9.842 z"
       id="path3478" />
  </g>
  <g
     id="path2654"
     style="fill:none;fill-opacity:1;stroke:#ff0000;stroke-opacity:1;stroke-width:10.4166671;stroke-miterlimit:4;stroke-dasharray:none">
    <path
       style="color:#000000;fill:none;fill-opacity:1;stroke-width:10.4166671;stroke-linecap:round;stroke-linejoin:round;stroke:#ff0000;stroke-opacity:1;stroke-miterlimit:4;stroke-dasharray:none"
       d="M 75985,35039 H 51575"
       id="path3468" />
    <path
       style="color:#000000;fill:none;stroke-linecap:round;stroke-linejoin:round;fill-opacity:1;stroke:#ff0000;stroke-opacity:1;stroke-width:10.4166671;stroke-miterlimit:4;stroke-dasharray:none"
       d="m 51575,35029.158 a 9.8424997,9.8424997 0 0 0 -9.842,9.842 9.8424997,9.8424997 0 0 0 9.842,9.842 h 24410 a 9.8424997,9.8424997 0 0 0 9.842,-9.842 9.8424997,9.8424997 0 0 0 -9.842,-9.842 z"
       id="path3470" />
  </g>
  <g
     id="path2656"
     style="fill:none;fill-opacity:1;stroke:#00ffff;stroke-opacity:1;stroke-width:10.4166671;stroke-miterlimit:4;stroke-dasharray:none">
    <path
       style="color:#000000;fill:none;fill-opacity:1;stroke-width:10.4166671;stroke-linecap:round;stroke-linejoin:round;stroke:#00ffff;stroke-opacity:1;stroke-miterlimit:4;stroke-dasharray:none"
       d="M 53937,37401 H 73622"
       id="path3460" />
    <path
       style="color:#000000;fill:none;stroke-linecap:round;stroke-linejoin:round;fill-opacity:1;stroke:#00ffff;stroke-opacity:1;stroke-width:10.4166671;stroke-miterlimit:4;stroke-dasharray:none"
       d="m 53937,37391.158 a 9.8424997,9.8424997 0 0 0 -9.842,9.842 9.8424997,9.8424997 0 0 0 9.842,9.842 h 19685 a 9.8424997,9.8424997 0 0 0 9.842,-9.842 9.8424997,9.8424997 0 0 0 -9.842,-9.842 z"
       id="path3462" />
  </g>
  <g
     id="path2658"
     style="fill:none;fill-opacity:1;stroke:#00ffff;stroke-opacity:1;stroke-width:10.4166671;stroke-miterlimit:4;stroke-dasharray:none">
    <path
       style="color:#000000;fill:none;fill-opacity:1;stroke-width:10.4166671;stroke-linecap:round;stroke-linejoin:round;stroke:#00ffff;stroke-opacity:1;stroke-miterlimit:4;stroke-dasharray:none"
       d="M 53937,53149 V 37401"
       id="path3452" />
    <path
       style="color:#000000;fill:none;stroke-linecap:round;stroke-linejoin:round;fill-opacity:1;stroke:#00ffff;stroke-opacity:1;stroke-width:10.4166671;stroke-miterlimit:4;stroke-dasharray:none"
       d="m 53937,37391.158 a 9.8424997,9.8424997 0 0 0 -9.842,9.842 v 15748 a 9.8424997,9.8424997 0 0 0 9.842,9.842 9.8424997,9.8424997 0 0 0 9.842,-9.842 V 37401 a 9.8424997,9.8424997 0 0 0 -9.842,-9.842 z"
       id="path3454" />
  </g>
  <g
     id="path2660"
     style="fill:none;fill-opacity:1;stroke:#00ffff;stroke-opacity:1;stroke-width:10.4166671;stroke-miterlimit:4;stroke-dasharray:none">
    <path
       style="color:#000000;fill:none;fill-opacity:1;stroke-width:10.4166671;stroke-linecap:round;stroke-linejoin:round;stroke:#00ffff;stroke-opacity:1;stroke-miterlimit:4;stroke-dasharray:none"
       d="M 73622,53149 H 53937"
       id="path3444" />
    <path
       style="color:#000000;fill:none;stroke-linecap:round;stroke-linejoin:round;fill-opacity:1;stroke:#00ffff;stroke-opacity:1;stroke-width:10.4166671;stroke-miterlimit:4;stroke-dasharray:none"
       d="m 53937,53139.158 a 9.8424997,9.8424997 0 0 0 -9.842,9.842 9.8424997,9.8424997 0 0 0 9.842,9.842 h 19685 a 9.8424997,9.8424997 0 0 0 9.842,-9.842 9.8424997,9.8424997 0 0 0 -9.842,-9.842 z"
       id="path3446" />
  </g>
  <g
     id="path2662"
     style="fill:none;fill-opacity:1;stroke:#00ffff;stroke-opacity:1;stroke-width:10.4166671;stroke-miterlimit:4;stroke-dasharray:none">
    <path
       style="color:#000000;fill:none;fill-opacity:1;stroke-width:10.4166671;stroke-linecap:round;stroke-linejoin:round;stroke:#00ffff;stroke-opacity:1;stroke-miterlimit:4;stroke-dasharray:none"
       d="M 73622,37401 V 53149"
       id="path3436" />
    <path
       style="color:#000000;fill:none;stroke-linecap:round;stroke-linejoin:round;fill-opacity:1;stroke:#00ffff;stroke-opacity:1;stroke-width:10.4166671;stroke-miterlimit:4;stroke-dasharray:none"
       d="m 73622,37391.158 a 9.8424997,9.8424997 0 0 0 -9.842,9.842 v 15748 a 9.8424997,9.8424997 0 0 0 9.842,9.842 9.8424997,9.8424997 0 0 0 9.842,-9.842 V 37401 a 9.8424997,9.8424997 0 0 0 -9.842,-9.842 z"
       id="path3438" />
  </g>
  <g
     id="g2664"
     style="fill:#000000;fill-opacity:1;stroke:#000000;stroke-width:19.685;stroke-linecap:round;stroke-linejoin:round;stroke-opacity:1" />
  <g
     style="fill:#000000;fill-opacity:1;stroke:#000000;stroke-width:0;stroke-linecap:round;stroke-linejoin:round;stroke-opacity:1"
     id="g2666" />
  <g
     style="fill:#000000;stroke:none;stroke-width:0;stroke-linecap:round;stroke-linejoin:round;fill-opacity:1;stroke-opacity:1"
     id="g2672">
    <g
       id="path2668"
       style="fill:#000000;fill-opacity:1;stroke:none;stroke-opacity:1">
      <path
         style="color:#000000;fill-rule:evenodd;stroke:none;-inkscape-stroke:none;fill:#000000;fill-opacity:1;stroke-opacity:1"
         d="m 68988.9,45724.9 -9.6,1.4 -9.4,2.3 -9.1,3.3 -8.7,4.1 -8.3,5 -7.7,5.8 -7.2,6.4 -6.5,7.2 -5.7,7.8 -5,8.2 -4.1,8.8 -3.3,9.1 -2.3,9.3 -1.4,9.6 -0.5,9.6 v 354.4 l 0.5,9.6 1.4,9.6 2.3,9.3 3.3,9.1 4.1,8.8 5,8.2 5.7,7.8 6.5,7.2 7.2,6.4 7.7,5.8 8.3,5 8.7,4.1 9.1,3.3 9.4,2.3 9.6,1.4 9.6,0.5 h 275.6 l 9.6,-0.5 9.6,-1.4 9.4,-2.3 9.1,-3.3 8.7,-4.1 8.3,-5 7.7,-5.8 7.2,-6.4 6.5,-7.2 5.7,-7.8 5,-8.2 4.1,-8.8 3.3,-9.1 2.3,-9.3 1.4,-9.6 0.5,-9.6 v -354.4 l -0.5,-9.6 -1.4,-9.6 -2.3,-9.3 -3.3,-9.1 -4.1,-8.8 -5,-8.2 -5.7,-7.8 -6.5,-7.2 -7.2,-6.4 -7.7,-5.8 -8.3,-5 -8.7,-4.1 -9.1,-3.3 -9.4,-2.3 -9.6,-1.4 -9.6,-0.5 h -275.6 z"
         id="path3420" />
      <path
         style="color:#000000;fill-rule:evenodd;stroke:none;-inkscape-stroke:none;fill:#000000;fill-opacity:1;stroke-opacity:1"
         d="m 68988.9,45724.9 -9.6,1.4 -9.4,2.3 -9.1,3.3 -8.7,4.1 -8.3,5 -7.7,5.8 -7.2,6.4 -6.5,7.2 -5.7,7.8 -5,8.2 -4.1,8.8 -3.3,9.1 -2.3,9.3 -1.4,9.6 -0.5,9.6 v 354.4 l 0.5,9.6 1.4,9.6 2.3,9.3 3.3,9.1 4.1,8.8 5,8.2 5.7,7.8 6.5,7.2 7.2,6.4 7.7,5.8 8.3,5 8.7,4.1 9.1,3.3 9.4,2.3 9.6,1.4 9.6,0.5 h 275.6 l 9.6,-0.5 9.6,-1.4 9.4,-2.3 9.1,-3.3 8.7,-4.1 8.3,-5 7.7,-5.8 7.2,-6.4 6.5,-7.2 5.7,-7.8 5,-8.2 4.1,-8.8 3.3,-9.1 2.3,-9.3 1.4,-9.6 0.5,-9.6 v -354.4 l -0.5,-9.6 -1.4,-9.6 -2.3,-9.3 -3.3,-9.1 -4.1,-8.8 -5,-8.2 -5.7,-7.8 -6.5,-7.2 -7.2,-6.4 -7.7,-5.8 -8.3,-5 -8.7,-4.1 -9.1,-3.3 -9.4,-2.3 -9.6,-1.4 -9.6,-0.5 h -275.6 z"
         id="path3422" />
    </g>
    <g
       id="path2670"
       style="fill:#000000;fill-opacity:1;stroke:none;stroke-opacity:1">
      <path
         style="color:#000000;fill-rule:evenodd;stroke:none;-inkscape-stroke:none;fill:#000000;fill-opacity:1;stroke-opacity:1"
         d="m 69776.3,45724.9 -9.6,1.4 -9.4,2.3 -9.1,3.3 -8.7,4.1 -8.3,5 -7.7,5.8 -7.2,6.4 -6.5,7.2 -5.7,7.8 -5,8.2 -4.1,8.8 -3.3,9.1 -2.3,9.3 -1.4,9.6 -0.5,9.6 v 354.4 l 0.5,9.6 1.4,9.6 2.3,9.3 3.3,9.1 4.1,8.8 5,8.2 5.7,7.8 6.5,7.2 7.2,6.4 7.7,5.8 8.3,5 8.7,4.1 9.1,3.3 9.4,2.3 9.6,1.4 9.6,0.5 h 275.6 l 9.6,-0.5 9.6,-1.4 9.4,-2.3 9.1,-3.3 8.7,-4.1 8.3,-5 7.7,-5.8 7.2,-6.4 6.5,-7.2 5.7,-7.8 5,-8.2 4.1,-8.8 3.3,-9.1 2.3,-9.3 1.4,-9.6 0.5,-9.6 v -354.4 l -0.5,-9.6 -1.4,-9.6 -2.3,-9.3 -3.3,-9.1 -4.1,-8.8 -5,-8.2 -5.7,-7.8 -6.5,-7.2 -7.2,-6.4 -7.7,-5.8 -8.3,-5 -8.7,-4.1 -9.1,-3.3 -9.4,-2.3 -9.6,-1.4 -9.6,-0.5 h -275.6 z"
         id="path3428" />
      <path
         style="color:#000000;fill-rule:evenodd;stroke:none;-inkscape-stroke:none;fill:#000000;fill-opacity:1;stroke-opacity:1"
         d="m 69776.3,45724.9 -9.6,1.4 -9.4,2.3 -9.1,3.3 -8.7,4.1 -8.3,5 -7.7,5.8 -7.2,6.4 -6.5,7.2 -5.7,7.8 -5,8.2 -4.1,8.8 -3.3,9.1 -2.3,9.3 -1.4,9.6 -0.5,9.6 v 354.4 l 0.5,9.6 1.4,9.6 2.3,9.3 3.3,9.1 4.1,8.8 5,8.2 5.7,7.8 6.5,7.2 7.2,6.4 7.7,5.8 8.3,5 8.7,4.1 9.1,3.3 9.4,2.3 9.6,1.4 9.6,0.5 h 275.6 l 9.6,-0.5 9.6,-1.4 9.4,-2.3 9.1,-3.3 8.7,-4.1 8.3,-5 7.7,-5.8 7.2,-6.4 6.5,-7.2 5.7,-7.8 5,-8.2 4.1,-8.8 3.3,-9.1 2.3,-9.3 1.4,-9.6 0.5,-9.6 v -354.4 l -0.5,-9.6 -1.4,-9.6 -2.3,-9.3 -3.3,-9.1 -4.1,-8.8 -5,-8.2 -5.7,-7.8 -6.5,-7.2 -7.2,-6.4 -7.7,-5.8 -8.3,-5 -8.7,-4.1 -9.1,-3.3 -9.4,-2.3 -9.6,-1.4 -9.6,-0.5 h -275.6 z"
         id="path3430" />
    </g>
  </g>
  <g
     id="g2674"
     style="fill:#000000;fill-opacity:1;stroke:#000000;stroke-width:19.685;stroke-linecap:round;stroke-linejoin:round;stroke-opacity:1" />
  <g
     style="fill:#000000;stroke:none;stroke-width:0;stroke-linecap:round;stroke-linejoin:round;fill-opacity:1;stroke-opacity:1"
     id="g2680">
    <g
       id="path2676"
       style="fill:#000000;fill-opacity:1;stroke:none;stroke-opacity:1">
      <path
         style="color:#000000;fill-rule:evenodd;stroke:none;-inkscape-stroke:none;fill:#000000;fill-opacity:1;stroke-opacity:1"
         d="m 62779,43315 -9.5,1.5 -9.4,2.3 -9.1,3.3 -8.7,4.1 -8.3,5 -7.8,5.7 -7.1,6.5 -6.5,7.2 -5.8,7.7 -4.9,8.3 -4.2,8.7 -3.2,9.1 -2.4,9.4 -1.4,9.5 -0.5,9.7 v 374 l 0.5,9.7 1.4,9.5 2.4,9.4 3.2,9.1 4.2,8.7 4.9,8.3 5.8,7.7 6.5,7.2 7.1,6.5 7.8,5.7 8.3,5 8.7,4.1 9.1,3.3 9.4,2.3 9.5,1.5 9.7,0.4 h 265.7 l 9.7,-0.4 9.5,-1.5 9.4,-2.3 9.1,-3.3 8.7,-4.1 8.3,-5 7.7,-5.7 7.2,-6.5 6.5,-7.2 5.7,-7.7 5,-8.3 4.1,-8.7 3.3,-9.1 2.3,-9.4 1.5,-9.5 0.4,-9.7 v -374 l -0.4,-9.7 -1.5,-9.5 -2.3,-9.4 -3.3,-9.1 -4.1,-8.7 -5,-8.3 -5.7,-7.7 -6.5,-7.2 -7.2,-6.5 -7.7,-5.7 -8.3,-5 -8.7,-4.1 -9.1,-3.3 -9.4,-2.3 -9.5,-1.5 -9.7,-0.4 h -265.7 z"
         id="path3404" />
      <path
         style="color:#000000;fill-rule:evenodd;stroke:none;-inkscape-stroke:none;fill:#000000;fill-opacity:1;stroke-opacity:1"
         d="m 62779,43315 -9.5,1.5 -9.4,2.3 -9.1,3.3 -8.7,4.1 -8.3,5 -7.8,5.7 -7.1,6.5 -6.5,7.2 -5.8,7.7 -4.9,8.3 -4.2,8.7 -3.2,9.1 -2.4,9.4 -1.4,9.5 -0.5,9.7 v 374 l 0.5,9.7 1.4,9.5 2.4,9.4 3.2,9.1 4.2,8.7 4.9,8.3 5.8,7.7 6.5,7.2 7.1,6.5 7.8,5.7 8.3,5 8.7,4.1 9.1,3.3 9.4,2.3 9.5,1.5 9.7,0.4 h 265.7 l 9.7,-0.4 9.5,-1.5 9.4,-2.3 9.1,-3.3 8.7,-4.1 8.3,-5 7.7,-5.7 7.2,-6.5 6.5,-7.2 5.7,-7.7 5,-8.3 4.1,-8.7 3.3,-9.1 2.3,-9.4 1.5,-9.5 0.4,-9.7 v -374 l -0.4,-9.7 -1.5,-9.5 -2.3,-9.4 -3.3,-9.1 -4.1,-8.7 -5,-8.3 -5.7,-7.7 -6.5,-7.2 -7.2,-6.5 -7.7,-5.7 -8.3,-5 -8.7,-4.1 -9.1,-3.3 -9.4,-2.3 -9.5,-1.5 -9.7,-0.4 h -265.7 z"
         id="path3406" />
    </g>
    <g
       id="path2678"
       style="fill:#000000;fill-opacity:1;stroke:none;stroke-opacity:1">
      <path
         style="color:#000000;fill-rule:evenodd;stroke:none;-inkscape-stroke:none;fill:#000000;fill-opacity:1;stroke-opacity:1"
         d="m 63595.9,43315 -9.5,1.5 -9.4,2.3 -9.1,3.3 -8.7,4.1 -8.3,5 -7.7,5.7 -7.2,6.5 -6.5,7.2 -5.7,7.7 -5,8.3 -4.1,8.7 -3.3,9.1 -2.3,9.4 -1.5,9.5 -0.4,9.7 v 374 l 0.4,9.7 1.5,9.5 2.3,9.4 3.3,9.1 4.1,8.7 5,8.3 5.7,7.7 6.5,7.2 7.2,6.5 7.7,5.7 8.3,5 8.7,4.1 9.1,3.3 9.4,2.3 9.5,1.5 9.7,0.4 h 265.7 l 9.7,-0.4 9.5,-1.5 9.4,-2.3 9.1,-3.3 8.7,-4.1 8.3,-5 7.8,-5.7 7.1,-6.5 6.5,-7.2 5.8,-7.7 4.9,-8.3 4.2,-8.7 3.2,-9.1 2.4,-9.4 1.4,-9.5 0.5,-9.7 v -374 l -0.5,-9.7 -1.4,-9.5 -2.4,-9.4 -3.2,-9.1 -4.2,-8.7 -4.9,-8.3 -5.8,-7.7 -6.5,-7.2 -7.1,-6.5 -7.8,-5.7 -8.3,-5 -8.7,-4.1 -9.1,-3.3 -9.4,-2.3 -9.5,-1.5 -9.7,-0.4 h -265.7 z"
         id="path3412" />
      <path
         style="color:#000000;fill-rule:evenodd;stroke:none;-inkscape-stroke:none;fill:#000000;fill-opacity:1;stroke-opacity:1"
         d="m 63595.9,43315 -9.5,1.5 -9.4,2.3 -9.1,3.3 -8.7,4.1 -8.3,5 -7.7,5.7 -7.2,6.5 -6.5,7.2 -5.7,7.7 -5,8.3 -4.1,8.7 -3.3,9.1 -2.3,9.4 -1.5,9.5 -0.4,9.7 v 374 l 0.4,9.7 1.5,9.5 2.3,9.4 3.3,9.1 4.1,8.7 5,8.3 5.7,7.7 6.5,7.2 7.2,6.5 7.7,5.7 8.3,5 8.7,4.1 9.1,3.3 9.4,2.3 9.5,1.5 9.7,0.4 h 265.7 l 9.7,-0.4 9.5,-1.5 9.4,-2.3 9.1,-3.3 8.7,-4.1 8.3,-5 7.8,-5.7 7.1,-6.5 6.5,-7.2 5.8,-7.7 4.9,-8.3 4.2,-8.7 3.2,-9.1 2.4,-9.4 1.4,-9.5 0.5,-9.7 v -374 l -0.5,-9.7 -1.4,-9.5 -2.4,-9.4 -3.2,-9.1 -4.2,-8.7 -4.9,-8.3 -5.8,-7.7 -6.5,-7.2 -7.1,-6.5 -7.8,-5.7 -8.3,-5 -8.7,-4.1 -9.1,-3.3 -9.4,-2.3 -9.5,-1.5 -9.7,-0.4 h -265.7 z"
         id="path3414" />
    </g>
  </g>
  <g
     id="g2682"
     style="fill:#000000;fill-opacity:1;stroke:#000000;stroke-width:19.685;stroke-linecap:round;stroke-linejoin:round;stroke-opacity:1" />
  <g
     id="g2684"
     style="fill:#000000;fill-opacity:1;stroke:#000000;stroke-width:19.685;stroke-linecap:round;stroke-linejoin:round;stroke-opacity:1" />
  <g
     style="fill:#000000;stroke:none;stroke-width:0;stroke-linecap:round;stroke-linejoin:round;fill-opacity:1;stroke-opacity:1"
     id="g2690">
    <g
       id="path2686"
       style="fill:#000000;fill-opacity:1;stroke:none;stroke-opacity:1">
      <path
         style="color:#000000;fill-rule:evenodd;stroke:none;-inkscape-stroke:none;fill:#000000;fill-opacity:1;stroke-opacity:1"
         d="m 62882.8,49054.3 h -905.6 v 984.3 h 905.6 z"
         id="path3388" />
      <path
         style="color:#000000;fill-rule:evenodd;stroke:none;-inkscape-stroke:none;fill:#000000;fill-opacity:1;stroke-opacity:1"
         d="m 62882.8,49054.3 h -905.6 v 984.3 h 905.6 z"
         id="path3390" />
    </g>
    <g
       id="path2688"
       style="fill:#000000;fill-opacity:1;stroke:none;stroke-opacity:1">
      <path
         style="color:#000000;fill-rule:evenodd;stroke:none;-inkscape-stroke:none;fill:#000000;fill-opacity:1;stroke-opacity:1"
         d="m 62882.8,47361.4 h -905.6 v 984.3 h 905.6 z"
         id="path3396" />
      <path
         style="color:#000000;fill-rule:evenodd;stroke:none;-inkscape-stroke:none;fill:#000000;fill-opacity:1;stroke-opacity:1"
         d="m 62882.8,47361.4 h -905.6 v 984.3 h 905.6 z"
         id="path3398" />
    </g>
  </g>
  <g
     id="g2692"
     style="fill:#000000;fill-opacity:1;stroke:#000000;stroke-width:19.685;stroke-linecap:round;stroke-linejoin:round;stroke-opacity:1" />
  <g
     style="fill:#000000;stroke:none;stroke-width:0;stroke-linecap:round;stroke-linejoin:round;fill-opacity:1;stroke-opacity:1"
     id="g2698">
    <g
       id="path2694"
       style="fill:#000000;fill-opacity:1;stroke:none;stroke-opacity:1">
      <path
         style="color:#000000;fill-rule:evenodd;stroke:none;-inkscape-stroke:none;fill:#000000;fill-opacity:1;stroke-opacity:1"
         d="m 60000.1,43197.2 v 905.6 h 984.2 v -905.6 z"
         id="path3372" />
      <path
         style="color:#000000;fill-rule:evenodd;stroke:none;-inkscape-stroke:none;fill:#000000;fill-opacity:1;stroke-opacity:1"
         d="m 60000.1,43197.2 v 905.6 h 984.2 v -905.6 z"
         id="path3374" />
    </g>
    <g
       id="path2696"
       style="fill:#000000;fill-opacity:1;stroke:none;stroke-opacity:1">
      <path
         style="color:#000000;fill-rule:evenodd;stroke:none;-inkscape-stroke:none;fill:#000000;fill-opacity:1;stroke-opacity:1"
         d="m 58307.2,43197.2 v 905.6 h 984.2 v -905.6 z"
         id="path3380" />
      <path
         style="color:#000000;fill-rule:evenodd;stroke:none;-inkscape-stroke:none;fill:#000000;fill-opacity:1;stroke-opacity:1"
         d="m 58307.2,43197.2 v 905.6 h 984.2 v -905.6 z"
         id="path3382" />
    </g>
  </g>
  <g
     id="g2700"
     style="fill:#000000;fill-opacity:1;stroke:#000000;stroke-width:19.685;stroke-linecap:round;stroke-linejoin:round;stroke-opacity:1" />
  <g
     id="g2702"
     style="fill:#000000;fill-opacity:1;stroke:#000000;stroke-width:19.685;stroke-linecap:round;stroke-linejoin:round;stroke-opacity:1" />
  <g
     style="fill:#000000;stroke:none;stroke-width:0;stroke-linecap:round;stroke-linejoin:round;fill-opacity:1;stroke-opacity:1"
     id="g2720">
    <g
       id="path2704"
       style="fill:#000000;fill-opacity:1;stroke:none;stroke-opacity:1">
      <path
         style="color:#000000;fill-rule:evenodd;stroke:none;-inkscape-stroke:none;fill:#000000;fill-opacity:1;stroke-opacity:1"
         d="m 58105.6,42264.6 v -157.5 h -614.2 v 157.5 z"
         id="path3308" />
      <path
         style="color:#000000;fill-rule:evenodd;stroke:none;-inkscape-stroke:none;fill:#000000;fill-opacity:1;stroke-opacity:1"
         d="m 58105.6,42264.6 v -157.5 h -614.2 v 157.5 z"
         id="path3310" />
    </g>
    <g
       id="path2706"
       style="fill:#000000;fill-opacity:1;stroke:none;stroke-opacity:1">
      <path
         style="color:#000000;fill-rule:evenodd;stroke:none;-inkscape-stroke:none;fill:#000000;fill-opacity:1;stroke-opacity:1"
         d="m 58105.6,42008.7 v -157.5 h -614.2 v 157.5 z"
         id="path3316" />
      <path
         style="color:#000000;fill-rule:evenodd;stroke:none;-inkscape-stroke:none;fill:#000000;fill-opacity:1;stroke-opacity:1"
         d="m 58105.6,42008.7 v -157.5 h -614.2 v 157.5 z"
         id="path3318" />
    </g>
    <g
       id="path2708"
       style="fill:#000000;fill-opacity:1;stroke:none;stroke-opacity:1">
      <path
         style="color:#000000;fill-rule:evenodd;stroke:none;-inkscape-stroke:none;fill:#000000;fill-opacity:1;stroke-opacity:1"
         d="m 58105.6,41748.8 v -157.5 h -614.2 v 157.5 z"
         id="path3324" />
      <path
         style="color:#000000;fill-rule:evenodd;stroke:none;-inkscape-stroke:none;fill:#000000;fill-opacity:1;stroke-opacity:1"
         d="m 58105.6,41748.8 v -157.5 h -614.2 v 157.5 z"
         id="path3326" />
    </g>
    <g
       id="path2710"
       style="fill:#000000;fill-opacity:1;stroke:none;stroke-opacity:1">
      <path
         style="color:#000000;fill-rule:evenodd;stroke:none;-inkscape-stroke:none;fill:#000000;fill-opacity:1;stroke-opacity:1"
         d="m 58105.6,41492.9 v -157.5 h -614.2 v 157.5 z"
         id="path3332" />
      <path
         style="color:#000000;fill-rule:evenodd;stroke:none;-inkscape-stroke:none;fill:#000000;fill-opacity:1;stroke-opacity:1"
         d="m 58105.6,41492.9 v -157.5 h -614.2 v 157.5 z"
         id="path3334" />
    </g>
    <g
       id="path2712"
       style="fill:#000000;fill-opacity:1;stroke:none;stroke-opacity:1">
      <path
         style="color:#000000;fill-rule:evenodd;stroke:none;-inkscape-stroke:none;fill:#000000;fill-opacity:1;stroke-opacity:1"
         d="m 59168.6,41492.9 v -157.5 h -614.2 v 157.5 z"
         id="path3340" />
      <path
         style="color:#000000;fill-rule:evenodd;stroke:none;-inkscape-stroke:none;fill:#000000;fill-opacity:1;stroke-opacity:1"
         d="m 59168.6,41492.9 v -157.5 h -614.2 v 157.5 z"
         id="path3342" />
    </g>
    <g
       id="path2714"
       style="fill:#000000;fill-opacity:1;stroke:none;stroke-opacity:1">
      <path
         style="color:#000000;fill-rule:evenodd;stroke:none;-inkscape-stroke:none;fill:#000000;fill-opacity:1;stroke-opacity:1"
         d="m 59168.6,41748.8 v -157.5 h -614.2 v 157.5 z"
         id="path3348" />
      <path
         style="color:#000000;fill-rule:evenodd;stroke:none;-inkscape-stroke:none;fill:#000000;fill-opacity:1;stroke-opacity:1"
         d="m 59168.6,41748.8 v -157.5 h -614.2 v 157.5 z"
         id="path3350" />
    </g>
    <g
       id="path2716"
       style="fill:#000000;fill-opacity:1;stroke:none;stroke-opacity:1">
      <path
         style="color:#000000;fill-rule:evenodd;stroke:none;-inkscape-stroke:none;fill:#000000;fill-opacity:1;stroke-opacity:1"
         d="m 59168.6,42008.7 v -157.5 h -614.2 v 157.5 z"
         id="path3356" />
      <path
         style="color:#000000;fill-rule:evenodd;stroke:none;-inkscape-stroke:none;fill:#000000;fill-opacity:1;stroke-opacity:1"
         d="m 59168.6,42008.7 v -157.5 h -614.2 v 157.5 z"
         id="path3358" />
    </g>
    <g
       id="path2718"
       style="fill:#000000;fill-opacity:1;stroke:none;stroke-opacity:1">
      <path
         style="color:#000000;fill-rule:evenodd;stroke:none;-inkscape-stroke:none;fill:#000000;fill-opacity:1;stroke-opacity:1"
         d="m 59168.6,42264.6 v -157.5 h -614.2 v 157.5 z"
         id="path3364" />
      <path
         style="color:#000000;fill-rule:evenodd;stroke:none;-inkscape-stroke:none;fill:#000000;fill-opacity:1;stroke-opacity:1"
         d="m 59168.6,42264.6 v -157.5 h -614.2 v 157.5 z"
         id="path3366" />
    </g>
  </g>
  <g
     id="g2722"
     style="fill:#000000;fill-opacity:1;stroke:#000000;stroke-width:19.685;stroke-linecap:round;stroke-linejoin:round;stroke-opacity:1" />
  <g
     style="fill:#000000;stroke:none;stroke-width:0;stroke-linecap:round;stroke-linejoin:round;fill-opacity:1;stroke-opacity:1"
     id="g2728">
    <g
       id="path2724"
       style="fill:#000000;fill-opacity:1;stroke:none;stroke-opacity:1">
      <path
         style="color:#000000;fill-rule:evenodd;stroke:none;-inkscape-stroke:none;fill:#000000;fill-opacity:1;stroke-opacity:1"
         d="m 59733.3,41160.7 -9.5,1.4 -9.4,2.4 -9.1,3.2 -8.7,4.2 -8.3,4.9 -7.7,5.8 -7.2,6.5 -6.5,7.1 -5.7,7.8 -5,8.3 -4.1,8.7 -3.3,9.1 -2.3,9.4 -1.5,9.5 -0.4,9.7 v 265.7 l 0.4,9.7 1.5,9.5 2.3,9.4 3.3,9.1 4.1,8.7 5,8.3 5.7,7.7 6.5,7.2 7.2,6.5 7.7,5.7 8.3,5 8.7,4.1 9.1,3.3 9.4,2.3 9.5,1.5 9.7,0.4 h 374 l 9.7,-0.4 9.5,-1.5 9.4,-2.3 9.1,-3.3 8.7,-4.1 8.3,-5 7.7,-5.7 7.2,-6.5 6.5,-7.2 5.7,-7.7 5,-8.3 4.1,-8.7 3.3,-9.1 2.3,-9.4 1.5,-9.5 0.4,-9.7 v -265.7 l -0.4,-9.7 -1.5,-9.5 -2.3,-9.4 -3.3,-9.1 -4.1,-8.7 -5,-8.3 -5.7,-7.8 -6.5,-7.1 -7.2,-6.5 -7.7,-5.8 -8.3,-4.9 -8.7,-4.2 -9.1,-3.2 -9.4,-2.4 -9.5,-1.4 -9.7,-0.5 h -374 z"
         id="path3292" />
      <path
         style="color:#000000;fill-rule:evenodd;stroke:none;-inkscape-stroke:none;fill:#000000;fill-opacity:1;stroke-opacity:1"
         d="m 59733.3,41160.7 -9.5,1.4 -9.4,2.4 -9.1,3.2 -8.7,4.2 -8.3,4.9 -7.7,5.8 -7.2,6.5 -6.5,7.1 -5.7,7.8 -5,8.3 -4.1,8.7 -3.3,9.1 -2.3,9.4 -1.5,9.5 -0.4,9.7 v 265.7 l 0.4,9.7 1.5,9.5 2.3,9.4 3.3,9.1 4.1,8.7 5,8.3 5.7,7.7 6.5,7.2 7.2,6.5 7.7,5.7 8.3,5 8.7,4.1 9.1,3.3 9.4,2.3 9.5,1.5 9.7,0.4 h 374 l 9.7,-0.4 9.5,-1.5 9.4,-2.3 9.1,-3.3 8.7,-4.1 8.3,-5 7.7,-5.7 7.2,-6.5 6.5,-7.2 5.7,-7.7 5,-8.3 4.1,-8.7 3.3,-9.1 2.3,-9.4 1.5,-9.5 0.4,-9.7 v -265.7 l -0.4,-9.7 -1.5,-9.5 -2.3,-9.4 -3.3,-9.1 -4.1,-8.7 -5,-8.3 -5.7,-7.8 -6.5,-7.1 -7.2,-6.5 -7.7,-5.8 -8.3,-4.9 -8.7,-4.2 -9.1,-3.2 -9.4,-2.4 -9.5,-1.4 -9.7,-0.5 h -374 z"
         id="path3294" />
    </g>
    <g
       id="path2726"
       style="fill:#000000;fill-opacity:1;stroke:none;stroke-opacity:1">
      <path
         style="color:#000000;fill-rule:evenodd;stroke:none;-inkscape-stroke:none;fill:#000000;fill-opacity:1;stroke-opacity:1"
         d="m 59733.3,41977.6 -9.5,1.5 -9.4,2.3 -9.1,3.3 -8.7,4.1 -8.3,5 -7.7,5.7 -7.2,6.5 -6.5,7.2 -5.7,7.7 -5,8.3 -4.1,8.7 -3.3,9.1 -2.3,9.4 -1.5,9.5 -0.4,9.7 v 265.7 l 0.4,9.7 1.5,9.5 2.3,9.4 3.3,9.1 4.1,8.7 5,8.3 5.7,7.8 6.5,7.1 7.2,6.5 7.7,5.8 8.3,4.9 8.7,4.2 9.1,3.2 9.4,2.4 9.5,1.4 9.7,0.5 h 374 l 9.7,-0.5 9.5,-1.4 9.4,-2.4 9.1,-3.2 8.7,-4.2 8.3,-4.9 7.7,-5.8 7.2,-6.5 6.5,-7.1 5.7,-7.8 5,-8.3 4.1,-8.7 3.3,-9.1 2.3,-9.4 1.5,-9.5 0.4,-9.7 v -265.7 l -0.4,-9.7 -1.5,-9.5 -2.3,-9.4 -3.3,-9.1 -4.1,-8.7 -5,-8.3 -5.7,-7.7 -6.5,-7.2 -7.2,-6.5 -7.7,-5.7 -8.3,-5 -8.7,-4.1 -9.1,-3.3 -9.4,-2.3 -9.5,-1.5 -9.7,-0.4 h -374 z"
         id="path3300" />
      <path
         style="color:#000000;fill-rule:evenodd;stroke:none;-inkscape-stroke:none;fill:#000000;fill-opacity:1;stroke-opacity:1"
         d="m 59733.3,41977.6 -9.5,1.5 -9.4,2.3 -9.1,3.3 -8.7,4.1 -8.3,5 -7.7,5.7 -7.2,6.5 -6.5,7.2 -5.7,7.7 -5,8.3 -4.1,8.7 -3.3,9.1 -2.3,9.4 -1.5,9.5 -0.4,9.7 v 265.7 l 0.4,9.7 1.5,9.5 2.3,9.4 3.3,9.1 4.1,8.7 5,8.3 5.7,7.8 6.5,7.1 7.2,6.5 7.7,5.8 8.3,4.9 8.7,4.2 9.1,3.2 9.4,2.4 9.5,1.4 9.7,0.5 h 374 l 9.7,-0.5 9.5,-1.4 9.4,-2.4 9.1,-3.2 8.7,-4.2 8.3,-4.9 7.7,-5.8 7.2,-6.5 6.5,-7.1 5.7,-7.8 5,-8.3 4.1,-8.7 3.3,-9.1 2.3,-9.4 1.5,-9.5 0.4,-9.7 v -265.7 l -0.4,-9.7 -1.5,-9.5 -2.3,-9.4 -3.3,-9.1 -4.1,-8.7 -5,-8.3 -5.7,-7.7 -6.5,-7.2 -7.2,-6.5 -7.7,-5.7 -8.3,-5 -8.7,-4.1 -9.1,-3.3 -9.4,-2.3 -9.5,-1.5 -9.7,-0.4 h -374 z"
         id="path3302" />
    </g>
  </g>
  <g
     id="g2730"
     style="fill:#000000;fill-opacity:1;stroke:#000000;stroke-width:19.685;stroke-linecap:round;stroke-linejoin:round;stroke-opacity:1" />
  <g
     id="g2732"
     style="fill:#000000;fill-opacity:1;stroke:#000000;stroke-width:19.685;stroke-linecap:round;stroke-linejoin:round;stroke-opacity:1" />
  <g
     style="fill:#000000;stroke:none;stroke-width:0;stroke-linecap:round;stroke-linejoin:round;fill-opacity:1;stroke-opacity:1"
     id="g2738">
    <g
       id="path2734"
       style="fill:#000000;fill-opacity:1;stroke:none;stroke-opacity:1">
      <path
         style="color:#000000;fill-rule:evenodd;stroke:none;-inkscape-stroke:none;fill:#000000;fill-opacity:1;stroke-opacity:1"
         d="m 65274.3,38818.6 -9.6,1.4 -9.3,2.3 -9.1,3.3 -8.8,4.1 -8.2,5 -7.8,5.8 -7.2,6.4 -6.4,7.2 -5.8,7.8 -5,8.2 -4.1,8.8 -3.2,9.1 -2.4,9.3 -1.4,9.6 -0.5,9.6 v 315 l 0.5,9.6 1.4,9.6 2.4,9.4 3.2,9.1 4.1,8.7 5,8.3 5.8,7.7 6.4,7.2 7.2,6.5 7.8,5.7 8.2,5 8.8,4.1 9.1,3.3 9.3,2.3 9.6,1.4 9.6,0.5 h 492.2 l 9.6,-0.5 9.6,-1.4 9.3,-2.3 9.1,-3.3 8.8,-4.1 8.2,-5 7.8,-5.7 7.2,-6.5 6.4,-7.2 5.8,-7.7 5,-8.3 4.1,-8.7 3.2,-9.1 2.4,-9.4 1.4,-9.6 0.5,-9.6 v -315 l -0.5,-9.6 -1.4,-9.6 -2.4,-9.3 -3.2,-9.1 -4.1,-8.8 -5,-8.2 -5.8,-7.8 -6.4,-7.2 -7.2,-6.4 -7.8,-5.8 -8.2,-5 -8.8,-4.1 -9.1,-3.3 -9.3,-2.3 -9.6,-1.4 -9.6,-0.5 h -492.2 z"
         id="path3276" />
      <path
         style="color:#000000;fill-rule:evenodd;stroke:none;-inkscape-stroke:none;fill:#000000;fill-opacity:1;stroke-opacity:1"
         d="m 65274.3,38818.6 -9.6,1.4 -9.3,2.3 -9.1,3.3 -8.8,4.1 -8.2,5 -7.8,5.8 -7.2,6.4 -6.4,7.2 -5.8,7.8 -5,8.2 -4.1,8.8 -3.2,9.1 -2.4,9.3 -1.4,9.6 -0.5,9.6 v 315 l 0.5,9.6 1.4,9.6 2.4,9.4 3.2,9.1 4.1,8.7 5,8.3 5.8,7.7 6.4,7.2 7.2,6.5 7.8,5.7 8.2,5 8.8,4.1 9.1,3.3 9.3,2.3 9.6,1.4 9.6,0.5 h 492.2 l 9.6,-0.5 9.6,-1.4 9.3,-2.3 9.1,-3.3 8.8,-4.1 8.2,-5 7.8,-5.7 7.2,-6.5 6.4,-7.2 5.8,-7.7 5,-8.3 4.1,-8.7 3.2,-9.1 2.4,-9.4 1.4,-9.6 0.5,-9.6 v -315 l -0.5,-9.6 -1.4,-9.6 -2.4,-9.3 -3.2,-9.1 -4.1,-8.8 -5,-8.2 -5.8,-7.8 -6.4,-7.2 -7.2,-6.4 -7.8,-5.8 -8.2,-5 -8.8,-4.1 -9.1,-3.3 -9.3,-2.3 -9.6,-1.4 -9.6,-0.5 h -492.2 z"
         id="path3278" />
    </g>
    <g
       id="path2736"
       style="fill:#000000;fill-opacity:1;stroke:none;stroke-opacity:1">
      <path
         style="color:#000000;fill-rule:evenodd;stroke:none;-inkscape-stroke:none;fill:#000000;fill-opacity:1;stroke-opacity:1"
         d="m 65274.3,40039.1 -9.6,1.4 -9.3,2.3 -9.1,3.3 -8.8,4.1 -8.2,5 -7.8,5.7 -7.2,6.5 -6.4,7.2 -5.8,7.7 -5,8.3 -4.1,8.7 -3.2,9.1 -2.4,9.4 -1.4,9.6 -0.5,9.6 v 315 l 0.5,9.6 1.4,9.6 2.4,9.3 3.2,9.1 4.1,8.8 5,8.3 5.8,7.7 6.4,7.2 7.2,6.5 7.8,5.7 8.2,5 8.8,4.1 9.1,3.3 9.3,2.3 9.6,1.4 9.6,0.5 h 492.2 l 9.6,-0.5 9.6,-1.4 9.3,-2.3 9.1,-3.3 8.8,-4.1 8.2,-5 7.8,-5.7 7.2,-6.5 6.4,-7.2 5.8,-7.7 5,-8.3 4.1,-8.8 3.2,-9.1 2.4,-9.3 1.4,-9.6 0.5,-9.6 v -315 l -0.5,-9.6 -1.4,-9.6 -2.4,-9.4 -3.2,-9.1 -4.1,-8.7 -5,-8.3 -5.8,-7.7 -6.4,-7.2 -7.2,-6.5 -7.8,-5.7 -8.2,-5 -8.8,-4.1 -9.1,-3.3 -9.3,-2.3 -9.6,-1.4 -9.6,-0.5 h -492.2 z"
         id="path3284" />
      <path
         style="color:#000000;fill-rule:evenodd;stroke:none;-inkscape-stroke:none;fill:#000000;fill-opacity:1;stroke-opacity:1"
         d="m 65274.3,40039.1 -9.6,1.4 -9.3,2.3 -9.1,3.3 -8.8,4.1 -8.2,5 -7.8,5.7 -7.2,6.5 -6.4,7.2 -5.8,7.7 -5,8.3 -4.1,8.7 -3.2,9.1 -2.4,9.4 -1.4,9.6 -0.5,9.6 v 315 l 0.5,9.6 1.4,9.6 2.4,9.3 3.2,9.1 4.1,8.8 5,8.3 5.8,7.7 6.4,7.2 7.2,6.5 7.8,5.7 8.2,5 8.8,4.1 9.1,3.3 9.3,2.3 9.6,1.4 9.6,0.5 h 492.2 l 9.6,-0.5 9.6,-1.4 9.3,-2.3 9.1,-3.3 8.8,-4.1 8.2,-5 7.8,-5.7 7.2,-6.5 6.4,-7.2 5.8,-7.7 5,-8.3 4.1,-8.8 3.2,-9.1 2.4,-9.3 1.4,-9.6 0.5,-9.6 v -315 l -0.5,-9.6 -1.4,-9.6 -2.4,-9.4 -3.2,-9.1 -4.1,-8.7 -5,-8.3 -5.8,-7.7 -6.4,-7.2 -7.2,-6.5 -7.8,-5.7 -8.2,-5 -8.8,-4.1 -9.1,-3.3 -9.3,-2.3 -9.6,-1.4 -9.6,-0.5 h -492.2 z"
         id="path3286" />
    </g>
  </g>
  <g
     id="g2740"
     style="fill:#000000;fill-opacity:1;stroke:#000000;stroke-width:19.685;stroke-linecap:round;stroke-linejoin:round;stroke-opacity:1" />
  <g
     id="g2742"
     style="fill:#000000;fill-opacity:1;stroke:#000000;stroke-width:19.685;stroke-linecap:round;stroke-linejoin:round;stroke-opacity:1" />
  <g
     style="fill:#000000;stroke:none;stroke-width:0;stroke-linecap:round;stroke-linejoin:round;fill-opacity:1;stroke-opacity:1"
     id="g2752">
    <g
       id="path2744"
       style="fill:#000000;fill-opacity:1;stroke:none;stroke-opacity:1">
      <path
         style="color:#000000;fill-rule:evenodd;stroke:none;-inkscape-stroke:none;fill:#000000;fill-opacity:1;stroke-opacity:1"
         d="m 63596.1,44499.2 v 590.6 h 787.4 v -590.6 z"
         id="path3244" />
      <path
         style="color:#000000;fill-rule:evenodd;stroke:none;-inkscape-stroke:none;fill:#000000;fill-opacity:1;stroke-opacity:1"
         d="m 63596.1,44499.2 v 590.6 h 787.4 v -590.6 z"
         id="path3246" />
    </g>
    <g
       id="path2746"
       style="fill:#000000;fill-opacity:1;stroke:none;stroke-opacity:1">
      <path
         style="color:#000000;fill-rule:evenodd;stroke:none;-inkscape-stroke:none;fill:#000000;fill-opacity:1;stroke-opacity:1"
         d="m 63596.1,46310.2 v 590.6 h 787.4 v -590.6 z"
         id="path3252" />
      <path
         style="color:#000000;fill-rule:evenodd;stroke:none;-inkscape-stroke:none;fill:#000000;fill-opacity:1;stroke-opacity:1"
         d="m 63596.1,46310.2 v 590.6 h 787.4 v -590.6 z"
         id="path3254" />
    </g>
    <g
       id="path2748"
       style="fill:#000000;fill-opacity:1;stroke:none;stroke-opacity:1">
      <path
         style="color:#000000;fill-rule:evenodd;stroke:none;-inkscape-stroke:none;fill:#000000;fill-opacity:1;stroke-opacity:1"
         d="m 63596.1,45404.7 v 590.6 h 787.4 v -590.6 z"
         id="path3260" />
      <path
         style="color:#000000;fill-rule:evenodd;stroke:none;-inkscape-stroke:none;fill:#000000;fill-opacity:1;stroke-opacity:1"
         d="m 63596.1,45404.7 v 590.6 h 787.4 v -590.6 z"
         id="path3262" />
    </g>
    <g
       id="path2750"
       style="fill:#000000;fill-opacity:1;stroke:none;stroke-opacity:1">
      <path
         style="color:#000000;fill-rule:evenodd;stroke:none;-inkscape-stroke:none;fill:#000000;fill-opacity:1;stroke-opacity:1"
         d="m 66076.5,44952 v 1496 h 787.4 v -1496 z"
         id="path3268" />
      <path
         style="color:#000000;fill-rule:evenodd;stroke:none;-inkscape-stroke:none;fill:#000000;fill-opacity:1;stroke-opacity:1"
         d="m 66076.5,44952 v 1496 h 787.4 v -1496 z"
         id="path3270" />
    </g>
  </g>
  <g
     id="g2754"
     style="fill:#000000;fill-opacity:1;stroke:#000000;stroke-width:19.685;stroke-linecap:round;stroke-linejoin:round;stroke-opacity:1" />
  <g
     style="fill:#000000;stroke:none;stroke-width:0;stroke-linecap:round;stroke-linejoin:round;fill-opacity:1;stroke-opacity:1"
     id="g2772">
    <g
       id="path2756"
       style="fill:#000000;fill-opacity:1;stroke:none;stroke-opacity:1">
      <path
         style="color:#000000;fill-rule:evenodd;stroke:none;-inkscape-stroke:none;fill:#000000;fill-opacity:1;stroke-opacity:1"
         d="m 64625,42616.4 -5.7,0.9 -5.7,1.4 -5.4,1.9 -5.3,2.5 -4.9,3 -4.7,3.4 -4.3,3.9 -3.9,4.3 -3.4,4.7 -3,5 -2.5,5.2 -1.9,5.5 -1.4,5.6 -0.9,5.7 -0.3,5.8 v 118.1 l 0.3,5.8 0.9,5.7 1.4,5.6 1.9,5.5 2.5,5.2 3,5 3.4,4.7 3.9,4.3 4.3,3.9 4.7,3.4 4.9,3 5.3,2.5 5.4,1.9 5.7,1.4 5.7,0.9 5.8,0.3 h 649.6 l 5.8,-0.3 5.7,-0.9 5.6,-1.4 5.5,-1.9 5.2,-2.5 5,-3 4.7,-3.4 4.3,-3.9 3.8,-4.3 3.5,-4.7 3,-5 2.5,-5.2 1.9,-5.5 1.4,-5.6 0.9,-5.7 0.2,-5.8 v -118.1 l -0.2,-5.8 -0.9,-5.7 -1.4,-5.6 -1.9,-5.5 -2.5,-5.2 -3,-5 -3.5,-4.7 -3.8,-4.3 -4.3,-3.9 -4.7,-3.4 -5,-3 -5.2,-2.5 -5.5,-1.9 -5.6,-1.4 -5.7,-0.9 -5.8,-0.3 h -649.6 z"
         id="path3180" />
      <path
         style="color:#000000;fill-rule:evenodd;stroke:none;-inkscape-stroke:none;fill:#000000;fill-opacity:1;stroke-opacity:1"
         d="m 64625,42616.4 -5.7,0.9 -5.7,1.4 -5.4,1.9 -5.3,2.5 -4.9,3 -4.7,3.4 -4.3,3.9 -3.9,4.3 -3.4,4.7 -3,5 -2.5,5.2 -1.9,5.5 -1.4,5.6 -0.9,5.7 -0.3,5.8 v 118.1 l 0.3,5.8 0.9,5.7 1.4,5.6 1.9,5.5 2.5,5.2 3,5 3.4,4.7 3.9,4.3 4.3,3.9 4.7,3.4 4.9,3 5.3,2.5 5.4,1.9 5.7,1.4 5.7,0.9 5.8,0.3 h 649.6 l 5.8,-0.3 5.7,-0.9 5.6,-1.4 5.5,-1.9 5.2,-2.5 5,-3 4.7,-3.4 4.3,-3.9 3.8,-4.3 3.5,-4.7 3,-5 2.5,-5.2 1.9,-5.5 1.4,-5.6 0.9,-5.7 0.2,-5.8 v -118.1 l -0.2,-5.8 -0.9,-5.7 -1.4,-5.6 -1.9,-5.5 -2.5,-5.2 -3,-5 -3.5,-4.7 -3.8,-4.3 -4.3,-3.9 -4.7,-3.4 -5,-3 -5.2,-2.5 -5.5,-1.9 -5.6,-1.4 -5.7,-0.9 -5.8,-0.3 h -649.6 z"
         id="path3182" />
    </g>
    <g
       id="path2758"
       style="fill:#000000;fill-opacity:1;stroke:none;stroke-opacity:1">
      <path
         style="color:#000000;fill-rule:evenodd;stroke:none;-inkscape-stroke:none;fill:#000000;fill-opacity:1;stroke-opacity:1"
         d="m 64625,42116.4 -5.7,0.9 -5.7,1.4 -5.4,1.9 -5.3,2.5 -4.9,3 -4.7,3.4 -4.3,3.9 -3.9,4.3 -3.4,4.7 -3,5 -2.5,5.2 -1.9,5.5 -1.4,5.6 -0.9,5.7 -0.3,5.8 v 118.1 l 0.3,5.8 0.9,5.7 1.4,5.6 1.9,5.5 2.5,5.2 3,5 3.4,4.7 3.9,4.3 4.3,3.9 4.7,3.4 4.9,3 5.3,2.5 5.4,1.9 5.7,1.4 5.7,0.9 5.8,0.3 h 649.6 l 5.8,-0.3 5.7,-0.9 5.6,-1.4 5.5,-1.9 5.2,-2.5 5,-3 4.7,-3.4 4.3,-3.9 3.8,-4.3 3.5,-4.7 3,-5 2.5,-5.2 1.9,-5.5 1.4,-5.6 0.9,-5.7 0.2,-5.8 v -118.1 l -0.2,-5.8 -0.9,-5.7 -1.4,-5.6 -1.9,-5.5 -2.5,-5.2 -3,-5 -3.5,-4.7 -3.8,-4.3 -4.3,-3.9 -4.7,-3.4 -5,-3 -5.2,-2.5 -5.5,-1.9 -5.6,-1.4 -5.7,-0.9 -5.8,-0.3 h -649.6 z"
         id="path3188" />
      <path
         style="color:#000000;fill-rule:evenodd;stroke:none;-inkscape-stroke:none;fill:#000000;fill-opacity:1;stroke-opacity:1"
         d="m 64625,42116.4 -5.7,0.9 -5.7,1.4 -5.4,1.9 -5.3,2.5 -4.9,3 -4.7,3.4 -4.3,3.9 -3.9,4.3 -3.4,4.7 -3,5 -2.5,5.2 -1.9,5.5 -1.4,5.6 -0.9,5.7 -0.3,5.8 v 118.1 l 0.3,5.8 0.9,5.7 1.4,5.6 1.9,5.5 2.5,5.2 3,5 3.4,4.7 3.9,4.3 4.3,3.9 4.7,3.4 4.9,3 5.3,2.5 5.4,1.9 5.7,1.4 5.7,0.9 5.8,0.3 h 649.6 l 5.8,-0.3 5.7,-0.9 5.6,-1.4 5.5,-1.9 5.2,-2.5 5,-3 4.7,-3.4 4.3,-3.9 3.8,-4.3 3.5,-4.7 3,-5 2.5,-5.2 1.9,-5.5 1.4,-5.6 0.9,-5.7 0.2,-5.8 v -118.1 l -0.2,-5.8 -0.9,-5.7 -1.4,-5.6 -1.9,-5.5 -2.5,-5.2 -3,-5 -3.5,-4.7 -3.8,-4.3 -4.3,-3.9 -4.7,-3.4 -5,-3 -5.2,-2.5 -5.5,-1.9 -5.6,-1.4 -5.7,-0.9 -5.8,-0.3 h -649.6 z"
         id="path3190" />
    </g>
    <g
       id="path2760"
       style="fill:#000000;fill-opacity:1;stroke:none;stroke-opacity:1">
      <path
         style="color:#000000;fill-rule:evenodd;stroke:none;-inkscape-stroke:none;fill:#000000;fill-opacity:1;stroke-opacity:1"
         d="m 64625,41616.4 -5.7,0.9 -5.7,1.4 -5.4,1.9 -5.3,2.5 -4.9,3 -4.7,3.4 -4.3,3.9 -3.9,4.3 -3.4,4.7 -3,5 -2.5,5.2 -1.9,5.5 -1.4,5.6 -0.9,5.7 -0.3,5.8 v 118.1 l 0.3,5.8 0.9,5.7 1.4,5.6 1.9,5.5 2.5,5.2 3,5 3.4,4.7 3.9,4.3 4.3,3.9 4.7,3.4 4.9,3 5.3,2.5 5.4,1.9 5.7,1.4 5.7,0.9 5.8,0.3 h 649.6 l 5.8,-0.3 5.7,-0.9 5.6,-1.4 5.5,-1.9 5.2,-2.5 5,-3 4.7,-3.4 4.3,-3.9 3.8,-4.3 3.5,-4.7 3,-5 2.5,-5.2 1.9,-5.5 1.4,-5.6 0.9,-5.7 0.2,-5.8 v -118.1 l -0.2,-5.8 -0.9,-5.7 -1.4,-5.6 -1.9,-5.5 -2.5,-5.2 -3,-5 -3.5,-4.7 -3.8,-4.3 -4.3,-3.9 -4.7,-3.4 -5,-3 -5.2,-2.5 -5.5,-1.9 -5.6,-1.4 -5.7,-0.9 -5.8,-0.3 h -649.6 z"
         id="path3196" />
      <path
         style="color:#000000;fill-rule:evenodd;stroke:none;-inkscape-stroke:none;fill:#000000;fill-opacity:1;stroke-opacity:1"
         d="m 64625,41616.4 -5.7,0.9 -5.7,1.4 -5.4,1.9 -5.3,2.5 -4.9,3 -4.7,3.4 -4.3,3.9 -3.9,4.3 -3.4,4.7 -3,5 -2.5,5.2 -1.9,5.5 -1.4,5.6 -0.9,5.7 -0.3,5.8 v 118.1 l 0.3,5.8 0.9,5.7 1.4,5.6 1.9,5.5 2.5,5.2 3,5 3.4,4.7 3.9,4.3 4.3,3.9 4.7,3.4 4.9,3 5.3,2.5 5.4,1.9 5.7,1.4 5.7,0.9 5.8,0.3 h 649.6 l 5.8,-0.3 5.7,-0.9 5.6,-1.4 5.5,-1.9 5.2,-2.5 5,-3 4.7,-3.4 4.3,-3.9 3.8,-4.3 3.5,-4.7 3,-5 2.5,-5.2 1.9,-5.5 1.4,-5.6 0.9,-5.7 0.2,-5.8 v -118.1 l -0.2,-5.8 -0.9,-5.7 -1.4,-5.6 -1.9,-5.5 -2.5,-5.2 -3,-5 -3.5,-4.7 -3.8,-4.3 -4.3,-3.9 -4.7,-3.4 -5,-3 -5.2,-2.5 -5.5,-1.9 -5.6,-1.4 -5.7,-0.9 -5.8,-0.3 h -649.6 z"
         id="path3198" />
    </g>
    <g
       id="path2762"
       style="fill:#000000;fill-opacity:1;stroke:none;stroke-opacity:1">
      <path
         style="color:#000000;fill-rule:evenodd;stroke:none;-inkscape-stroke:none;fill:#000000;fill-opacity:1;stroke-opacity:1"
         d="m 64625,41116.4 -5.7,0.9 -5.7,1.4 -5.4,1.9 -5.3,2.5 -4.9,3 -4.7,3.4 -4.3,3.9 -3.9,4.3 -3.4,4.7 -3,5 -2.5,5.2 -1.9,5.5 -1.4,5.6 -0.9,5.7 -0.3,5.8 v 118.1 l 0.3,5.8 0.9,5.7 1.4,5.6 1.9,5.5 2.5,5.2 3,5 3.4,4.7 3.9,4.3 4.3,3.9 4.7,3.4 4.9,3 5.3,2.5 5.4,1.9 5.7,1.4 5.7,0.9 5.8,0.3 h 649.6 l 5.8,-0.3 5.7,-0.9 5.6,-1.4 5.5,-1.9 5.2,-2.5 5,-3 4.7,-3.4 4.3,-3.9 3.8,-4.3 3.5,-4.7 3,-5 2.5,-5.2 1.9,-5.5 1.4,-5.6 0.9,-5.7 0.2,-5.8 v -118.1 l -0.2,-5.8 -0.9,-5.7 -1.4,-5.6 -1.9,-5.5 -2.5,-5.2 -3,-5 -3.5,-4.7 -3.8,-4.3 -4.3,-3.9 -4.7,-3.4 -5,-3 -5.2,-2.5 -5.5,-1.9 -5.6,-1.4 -5.7,-0.9 -5.8,-0.3 h -649.6 z"
         id="path3204" />
      <path
         style="color:#000000;fill-rule:evenodd;stroke:none;-inkscape-stroke:none;fill:#000000;fill-opacity:1;stroke-opacity:1"
         d="m 64625,41116.4 -5.7,0.9 -5.7,1.4 -5.4,1.9 -5.3,2.5 -4.9,3 -4.7,3.4 -4.3,3.9 -3.9,4.3 -3.4,4.7 -3,5 -2.5,5.2 -1.9,5.5 -1.4,5.6 -0.9,5.7 -0.3,5.8 v 118.1 l 0.3,5.8 0.9,5.7 1.4,5.6 1.9,5.5 2.5,5.2 3,5 3.4,4.7 3.9,4.3 4.3,3.9 4.7,3.4 4.9,3 5.3,2.5 5.4,1.9 5.7,1.4 5.7,0.9 5.8,0.3 h 649.6 l 5.8,-0.3 5.7,-0.9 5.6,-1.4 5.5,-1.9 5.2,-2.5 5,-3 4.7,-3.4 4.3,-3.9 3.8,-4.3 3.5,-4.7 3,-5 2.5,-5.2 1.9,-5.5 1.4,-5.6 0.9,-5.7 0.2,-5.8 v -118.1 l -0.2,-5.8 -0.9,-5.7 -1.4,-5.6 -1.9,-5.5 -2.5,-5.2 -3,-5 -3.5,-4.7 -3.8,-4.3 -4.3,-3.9 -4.7,-3.4 -5,-3 -5.2,-2.5 -5.5,-1.9 -5.6,-1.4 -5.7,-0.9 -5.8,-0.3 h -649.6 z"
         id="path3206" />
    </g>
    <g
       id="path2764"
       style="fill:#000000;fill-opacity:1;stroke:none;stroke-opacity:1">
      <path
         style="color:#000000;fill-rule:evenodd;stroke:none;-inkscape-stroke:none;fill:#000000;fill-opacity:1;stroke-opacity:1"
         d="m 66573.8,41116.4 -5.7,0.9 -5.6,1.4 -5.5,1.9 -5.2,2.5 -5,3 -4.7,3.4 -4.3,3.9 -3.8,4.3 -3.5,4.7 -3,5 -2.5,5.2 -1.9,5.5 -1.4,5.6 -0.9,5.7 -0.2,5.8 v 118.1 l 0.2,5.8 0.9,5.7 1.4,5.6 1.9,5.5 2.5,5.2 3,5 3.5,4.7 3.8,4.3 4.3,3.9 4.7,3.4 5,3 5.2,2.5 5.5,1.9 5.6,1.4 5.7,0.9 5.8,0.3 h 649.6 l 5.8,-0.3 5.7,-0.9 5.7,-1.4 5.4,-1.9 5.3,-2.5 4.9,-3 4.7,-3.4 4.3,-3.9 3.9,-4.3 3.4,-4.7 3,-5 2.5,-5.2 1.9,-5.5 1.4,-5.6 0.9,-5.7 0.3,-5.8 v -118.1 l -0.3,-5.8 -0.9,-5.7 -1.4,-5.6 -1.9,-5.5 -2.5,-5.2 -3,-5 -3.4,-4.7 -3.9,-4.3 -4.3,-3.9 -4.7,-3.4 -4.9,-3 -5.3,-2.5 -5.4,-1.9 -5.7,-1.4 -5.7,-0.9 -5.8,-0.3 h -649.6 z"
         id="path3212" />
      <path
         style="color:#000000;fill-rule:evenodd;stroke:none;-inkscape-stroke:none;fill:#000000;fill-opacity:1;stroke-opacity:1"
         d="m 66573.8,41116.4 -5.7,0.9 -5.6,1.4 -5.5,1.9 -5.2,2.5 -5,3 -4.7,3.4 -4.3,3.9 -3.8,4.3 -3.5,4.7 -3,5 -2.5,5.2 -1.9,5.5 -1.4,5.6 -0.9,5.7 -0.2,5.8 v 118.1 l 0.2,5.8 0.9,5.7 1.4,5.6 1.9,5.5 2.5,5.2 3,5 3.5,4.7 3.8,4.3 4.3,3.9 4.7,3.4 5,3 5.2,2.5 5.5,1.9 5.6,1.4 5.7,0.9 5.8,0.3 h 649.6 l 5.8,-0.3 5.7,-0.9 5.7,-1.4 5.4,-1.9 5.3,-2.5 4.9,-3 4.7,-3.4 4.3,-3.9 3.9,-4.3 3.4,-4.7 3,-5 2.5,-5.2 1.9,-5.5 1.4,-5.6 0.9,-5.7 0.3,-5.8 v -118.1 l -0.3,-5.8 -0.9,-5.7 -1.4,-5.6 -1.9,-5.5 -2.5,-5.2 -3,-5 -3.4,-4.7 -3.9,-4.3 -4.3,-3.9 -4.7,-3.4 -4.9,-3 -5.3,-2.5 -5.4,-1.9 -5.7,-1.4 -5.7,-0.9 -5.8,-0.3 h -649.6 z"
         id="path3214" />
    </g>
    <g
       id="path2766"
       style="fill:#000000;fill-opacity:1;stroke:none;stroke-opacity:1">
      <path
         style="color:#000000;fill-rule:evenodd;stroke:none;-inkscape-stroke:none;fill:#000000;fill-opacity:1;stroke-opacity:1"
         d="m 66573.8,41616.4 -5.7,0.9 -5.6,1.4 -5.5,1.9 -5.2,2.5 -5,3 -4.7,3.4 -4.3,3.9 -3.8,4.3 -3.5,4.7 -3,5 -2.5,5.2 -1.9,5.5 -1.4,5.6 -0.9,5.7 -0.2,5.8 v 118.1 l 0.2,5.8 0.9,5.7 1.4,5.6 1.9,5.5 2.5,5.2 3,5 3.5,4.7 3.8,4.3 4.3,3.9 4.7,3.4 5,3 5.2,2.5 5.5,1.9 5.6,1.4 5.7,0.9 5.8,0.3 h 649.6 l 5.8,-0.3 5.7,-0.9 5.7,-1.4 5.4,-1.9 5.3,-2.5 4.9,-3 4.7,-3.4 4.3,-3.9 3.9,-4.3 3.4,-4.7 3,-5 2.5,-5.2 1.9,-5.5 1.4,-5.6 0.9,-5.7 0.3,-5.8 v -118.1 l -0.3,-5.8 -0.9,-5.7 -1.4,-5.6 -1.9,-5.5 -2.5,-5.2 -3,-5 -3.4,-4.7 -3.9,-4.3 -4.3,-3.9 -4.7,-3.4 -4.9,-3 -5.3,-2.5 -5.4,-1.9 -5.7,-1.4 -5.7,-0.9 -5.8,-0.3 h -649.6 z"
         id="path3220" />
      <path
         style="color:#000000;fill-rule:evenodd;stroke:none;-inkscape-stroke:none;fill:#000000;fill-opacity:1;stroke-opacity:1"
         d="m 66573.8,41616.4 -5.7,0.9 -5.6,1.4 -5.5,1.9 -5.2,2.5 -5,3 -4.7,3.4 -4.3,3.9 -3.8,4.3 -3.5,4.7 -3,5 -2.5,5.2 -1.9,5.5 -1.4,5.6 -0.9,5.7 -0.2,5.8 v 118.1 l 0.2,5.8 0.9,5.7 1.4,5.6 1.9,5.5 2.5,5.2 3,5 3.5,4.7 3.8,4.3 4.3,3.9 4.7,3.4 5,3 5.2,2.5 5.5,1.9 5.6,1.4 5.7,0.9 5.8,0.3 h 649.6 l 5.8,-0.3 5.7,-0.9 5.7,-1.4 5.4,-1.9 5.3,-2.5 4.9,-3 4.7,-3.4 4.3,-3.9 3.9,-4.3 3.4,-4.7 3,-5 2.5,-5.2 1.9,-5.5 1.4,-5.6 0.9,-5.7 0.3,-5.8 v -118.1 l -0.3,-5.8 -0.9,-5.7 -1.4,-5.6 -1.9,-5.5 -2.5,-5.2 -3,-5 -3.4,-4.7 -3.9,-4.3 -4.3,-3.9 -4.7,-3.4 -4.9,-3 -5.3,-2.5 -5.4,-1.9 -5.7,-1.4 -5.7,-0.9 -5.8,-0.3 h -649.6 z"
         id="path3222" />
    </g>
    <g
       id="path2768"
       style="fill:#000000;fill-opacity:1;stroke:none;stroke-opacity:1">
      <path
         style="color:#000000;fill-rule:evenodd;stroke:none;-inkscape-stroke:none;fill:#000000;fill-opacity:1;stroke-opacity:1"
         d="m 66573.8,42116.4 -5.7,0.9 -5.6,1.4 -5.5,1.9 -5.2,2.5 -5,3 -4.7,3.4 -4.3,3.9 -3.8,4.3 -3.5,4.7 -3,5 -2.5,5.2 -1.9,5.5 -1.4,5.6 -0.9,5.7 -0.2,5.8 v 118.1 l 0.2,5.8 0.9,5.7 1.4,5.6 1.9,5.5 2.5,5.2 3,5 3.5,4.7 3.8,4.3 4.3,3.9 4.7,3.4 5,3 5.2,2.5 5.5,1.9 5.6,1.4 5.7,0.9 5.8,0.3 h 649.6 l 5.8,-0.3 5.7,-0.9 5.7,-1.4 5.4,-1.9 5.3,-2.5 4.9,-3 4.7,-3.4 4.3,-3.9 3.9,-4.3 3.4,-4.7 3,-5 2.5,-5.2 1.9,-5.5 1.4,-5.6 0.9,-5.7 0.3,-5.8 v -118.1 l -0.3,-5.8 -0.9,-5.7 -1.4,-5.6 -1.9,-5.5 -2.5,-5.2 -3,-5 -3.4,-4.7 -3.9,-4.3 -4.3,-3.9 -4.7,-3.4 -4.9,-3 -5.3,-2.5 -5.4,-1.9 -5.7,-1.4 -5.7,-0.9 -5.8,-0.3 h -649.6 z"
         id="path3228" />
      <path
         style="color:#000000;fill-rule:evenodd;stroke:none;-inkscape-stroke:none;fill:#000000;fill-opacity:1;stroke-opacity:1"
         d="m 66573.8,42116.4 -5.7,0.9 -5.6,1.4 -5.5,1.9 -5.2,2.5 -5,3 -4.7,3.4 -4.3,3.9 -3.8,4.3 -3.5,4.7 -3,5 -2.5,5.2 -1.9,5.5 -1.4,5.6 -0.9,5.7 -0.2,5.8 v 118.1 l 0.2,5.8 0.9,5.7 1.4,5.6 1.9,5.5 2.5,5.2 3,5 3.5,4.7 3.8,4.3 4.3,3.9 4.7,3.4 5,3 5.2,2.5 5.5,1.9 5.6,1.4 5.7,0.9 5.8,0.3 h 649.6 l 5.8,-0.3 5.7,-0.9 5.7,-1.4 5.4,-1.9 5.3,-2.5 4.9,-3 4.7,-3.4 4.3,-3.9 3.9,-4.3 3.4,-4.7 3,-5 2.5,-5.2 1.9,-5.5 1.4,-5.6 0.9,-5.7 0.3,-5.8 v -118.1 l -0.3,-5.8 -0.9,-5.7 -1.4,-5.6 -1.9,-5.5 -2.5,-5.2 -3,-5 -3.4,-4.7 -3.9,-4.3 -4.3,-3.9 -4.7,-3.4 -4.9,-3 -5.3,-2.5 -5.4,-1.9 -5.7,-1.4 -5.7,-0.9 -5.8,-0.3 h -649.6 z"
         id="path3230" />
    </g>
    <g
       id="path2770"
       style="fill:#000000;fill-opacity:1;stroke:none;stroke-opacity:1">
      <path
         style="color:#000000;fill-rule:evenodd;stroke:none;-inkscape-stroke:none;fill:#000000;fill-opacity:1;stroke-opacity:1"
         d="m 66573.8,42616.4 -5.7,0.9 -5.6,1.4 -5.5,1.9 -5.2,2.5 -5,3 -4.7,3.4 -4.3,3.9 -3.8,4.3 -3.5,4.7 -3,5 -2.5,5.2 -1.9,5.5 -1.4,5.6 -0.9,5.7 -0.2,5.8 v 118.1 l 0.2,5.8 0.9,5.7 1.4,5.6 1.9,5.5 2.5,5.2 3,5 3.5,4.7 3.8,4.3 4.3,3.9 4.7,3.4 5,3 5.2,2.5 5.5,1.9 5.6,1.4 5.7,0.9 5.8,0.3 h 649.6 l 5.8,-0.3 5.7,-0.9 5.7,-1.4 5.4,-1.9 5.3,-2.5 4.9,-3 4.7,-3.4 4.3,-3.9 3.9,-4.3 3.4,-4.7 3,-5 2.5,-5.2 1.9,-5.5 1.4,-5.6 0.9,-5.7 0.3,-5.8 v -118.1 l -0.3,-5.8 -0.9,-5.7 -1.4,-5.6 -1.9,-5.5 -2.5,-5.2 -3,-5 -3.4,-4.7 -3.9,-4.3 -4.3,-3.9 -4.7,-3.4 -4.9,-3 -5.3,-2.5 -5.4,-1.9 -5.7,-1.4 -5.7,-0.9 -5.8,-0.3 h -649.6 z"
         id="path3236" />
      <path
         style="color:#000000;fill-rule:evenodd;stroke:none;-inkscape-stroke:none;fill:#000000;fill-opacity:1;stroke-opacity:1"
         d="m 66573.8,42616.4 -5.7,0.9 -5.6,1.4 -5.5,1.9 -5.2,2.5 -5,3 -4.7,3.4 -4.3,3.9 -3.8,4.3 -3.5,4.7 -3,5 -2.5,5.2 -1.9,5.5 -1.4,5.6 -0.9,5.7 -0.2,5.8 v 118.1 l 0.2,5.8 0.9,5.7 1.4,5.6 1.9,5.5 2.5,5.2 3,5 3.5,4.7 3.8,4.3 4.3,3.9 4.7,3.4 5,3 5.2,2.5 5.5,1.9 5.6,1.4 5.7,0.9 5.8,0.3 h 649.6 l 5.8,-0.3 5.7,-0.9 5.7,-1.4 5.4,-1.9 5.3,-2.5 4.9,-3 4.7,-3.4 4.3,-3.9 3.9,-4.3 3.4,-4.7 3,-5 2.5,-5.2 1.9,-5.5 1.4,-5.6 0.9,-5.7 0.3,-5.8 v -118.1 l -0.3,-5.8 -0.9,-5.7 -1.4,-5.6 -1.9,-5.5 -2.5,-5.2 -3,-5 -3.4,-4.7 -3.9,-4.3 -4.3,-3.9 -4.7,-3.4 -4.9,-3 -5.3,-2.5 -5.4,-1.9 -5.7,-1.4 -5.7,-0.9 -5.8,-0.3 h -649.6 z"
         id="path3238" />
    </g>
  </g>
  <g
     id="g2774"
     style="fill:#000000;fill-opacity:1;stroke:#000000;stroke-width:19.685;stroke-linecap:round;stroke-linejoin:round;stroke-opacity:1" />
  <g
     style="fill:#000000;stroke:none;stroke-width:0;stroke-linecap:round;stroke-linejoin:round;fill-opacity:1;stroke-opacity:1"
     id="g2782">
    <g
       id="path2776"
       style="fill:#000000;fill-opacity:1;stroke:none;stroke-opacity:1">
      <path
         style="color:#000000;fill-rule:evenodd;stroke:none;-inkscape-stroke:none;fill:#000000;fill-opacity:1;stroke-opacity:1"
         d="m 68146.5,39526.8 v 314.9 h 354.4 v -314.9 z"
         id="path3156" />
      <path
         style="color:#000000;fill-rule:evenodd;stroke:none;-inkscape-stroke:none;fill:#000000;fill-opacity:1;stroke-opacity:1"
         d="m 68146.5,39526.8 v 314.9 h 354.4 v -314.9 z"
         id="path3158" />
    </g>
    <g
       id="path2778"
       style="fill:#000000;fill-opacity:1;stroke:none;stroke-opacity:1">
      <path
         style="color:#000000;fill-rule:evenodd;stroke:none;-inkscape-stroke:none;fill:#000000;fill-opacity:1;stroke-opacity:1"
         d="m 67359.1,39900.8 v 314.9 h 354.4 v -314.9 z"
         id="path3164" />
      <path
         style="color:#000000;fill-rule:evenodd;stroke:none;-inkscape-stroke:none;fill:#000000;fill-opacity:1;stroke-opacity:1"
         d="m 67359.1,39900.8 v 314.9 h 354.4 v -314.9 z"
         id="path3166" />
    </g>
    <g
       id="path2780"
       style="fill:#000000;fill-opacity:1;stroke:none;stroke-opacity:1">
      <path
         style="color:#000000;fill-rule:evenodd;stroke:none;-inkscape-stroke:none;fill:#000000;fill-opacity:1;stroke-opacity:1"
         d="m 67359.1,39152.8 v 314.9 h 354.4 v -314.9 z"
         id="path3172" />
      <path
         style="color:#000000;fill-rule:evenodd;stroke:none;-inkscape-stroke:none;fill:#000000;fill-opacity:1;stroke-opacity:1"
         d="m 67359.1,39152.8 v 314.9 h 354.4 v -314.9 z"
         id="path3174" />
    </g>
  </g>
  <g
     id="g2784"
     style="fill:#000000;fill-opacity:1;stroke:#000000;stroke-width:19.685;stroke-linecap:round;stroke-linejoin:round;stroke-opacity:1" />
  <g
     style="fill:#000000;stroke:none;stroke-width:0;stroke-linecap:round;stroke-linejoin:round;fill-opacity:1;stroke-opacity:1"
     id="g2790">
    <g
       id="path2786"
       style="fill:#000000;fill-opacity:1;stroke:none;stroke-opacity:1">
      <path
         style="color:#000000;fill-rule:evenodd;stroke:none;-inkscape-stroke:none;fill:#000000;fill-opacity:1;stroke-opacity:1"
         d="m 70943.2,41470.6 -9.6,1.4 -9.3,2.3 -9.1,3.3 -8.8,4.1 -8.2,5 -7.8,5.7 -7.2,6.5 -6.4,7.2 -5.8,7.7 -5,8.3 -4.1,8.7 -3.3,9.1 -2.3,9.4 -1.4,9.6 -0.5,9.6 v 275.6 l 0.5,9.6 1.4,9.6 2.3,9.4 3.3,9.1 4.1,8.7 5,8.3 5.8,7.7 6.4,7.2 7.2,6.5 7.8,5.7 8.2,5 8.8,4.1 9.1,3.3 9.3,2.3 9.6,1.4 9.6,0.5 h 354.4 l 9.6,-0.5 9.6,-1.4 9.3,-2.3 9.1,-3.3 8.8,-4.1 8.2,-5 7.8,-5.7 7.2,-6.5 6.4,-7.2 5.8,-7.7 5,-8.3 4.1,-8.7 3.3,-9.1 2.3,-9.4 1.4,-9.6 0.5,-9.6 v -275.6 l -0.5,-9.6 -1.4,-9.6 -2.3,-9.4 -3.3,-9.1 -4.1,-8.7 -5,-8.3 -5.8,-7.7 -6.4,-7.2 -7.2,-6.5 -7.8,-5.7 -8.2,-5 -8.8,-4.1 -9.1,-3.3 -9.3,-2.3 -9.6,-1.4 -9.6,-0.5 h -354.4 z"
         id="path3140" />
      <path
         style="color:#000000;fill-rule:evenodd;stroke:none;-inkscape-stroke:none;fill:#000000;fill-opacity:1;stroke-opacity:1"
         d="m 70943.2,41470.6 -9.6,1.4 -9.3,2.3 -9.1,3.3 -8.8,4.1 -8.2,5 -7.8,5.7 -7.2,6.5 -6.4,7.2 -5.8,7.7 -5,8.3 -4.1,8.7 -3.3,9.1 -2.3,9.4 -1.4,9.6 -0.5,9.6 v 275.6 l 0.5,9.6 1.4,9.6 2.3,9.4 3.3,9.1 4.1,8.7 5,8.3 5.8,7.7 6.4,7.2 7.2,6.5 7.8,5.7 8.2,5 8.8,4.1 9.1,3.3 9.3,2.3 9.6,1.4 9.6,0.5 h 354.4 l 9.6,-0.5 9.6,-1.4 9.3,-2.3 9.1,-3.3 8.8,-4.1 8.2,-5 7.8,-5.7 7.2,-6.5 6.4,-7.2 5.8,-7.7 5,-8.3 4.1,-8.7 3.3,-9.1 2.3,-9.4 1.4,-9.6 0.5,-9.6 v -275.6 l -0.5,-9.6 -1.4,-9.6 -2.3,-9.4 -3.3,-9.1 -4.1,-8.7 -5,-8.3 -5.8,-7.7 -6.4,-7.2 -7.2,-6.5 -7.8,-5.7 -8.2,-5 -8.8,-4.1 -9.1,-3.3 -9.3,-2.3 -9.6,-1.4 -9.6,-0.5 h -354.4 z"
         id="path3142" />
    </g>
    <g
       id="path2788"
       style="fill:#000000;fill-opacity:1;stroke:none;stroke-opacity:1">
      <path
         style="color:#000000;fill-rule:evenodd;stroke:none;-inkscape-stroke:none;fill:#000000;fill-opacity:1;stroke-opacity:1"
         d="m 70943.2,42258 -9.6,1.4 -9.3,2.3 -9.1,3.3 -8.8,4.1 -8.2,5 -7.8,5.7 -7.2,6.5 -6.4,7.2 -5.8,7.7 -5,8.3 -4.1,8.7 -3.3,9.1 -2.3,9.4 -1.4,9.6 -0.5,9.6 v 275.6 l 0.5,9.6 1.4,9.6 2.3,9.4 3.3,9.1 4.1,8.7 5,8.3 5.8,7.7 6.4,7.2 7.2,6.5 7.8,5.7 8.2,5 8.8,4.1 9.1,3.3 9.3,2.3 9.6,1.4 9.6,0.5 h 354.4 l 9.6,-0.5 9.6,-1.4 9.3,-2.3 9.1,-3.3 8.8,-4.1 8.2,-5 7.8,-5.7 7.2,-6.5 6.4,-7.2 5.8,-7.7 5,-8.3 4.1,-8.7 3.3,-9.1 2.3,-9.4 1.4,-9.6 0.5,-9.6 v -275.6 l -0.5,-9.6 -1.4,-9.6 -2.3,-9.4 -3.3,-9.1 -4.1,-8.7 -5,-8.3 -5.8,-7.7 -6.4,-7.2 -7.2,-6.5 -7.8,-5.7 -8.2,-5 -8.8,-4.1 -9.1,-3.3 -9.3,-2.3 -9.6,-1.4 -9.6,-0.5 h -354.4 z"
         id="path3148" />
      <path
         style="color:#000000;fill-rule:evenodd;stroke:none;-inkscape-stroke:none;fill:#000000;fill-opacity:1;stroke-opacity:1"
         d="m 70943.2,42258 -9.6,1.4 -9.3,2.3 -9.1,3.3 -8.8,4.1 -8.2,5 -7.8,5.7 -7.2,6.5 -6.4,7.2 -5.8,7.7 -5,8.3 -4.1,8.7 -3.3,9.1 -2.3,9.4 -1.4,9.6 -0.5,9.6 v 275.6 l 0.5,9.6 1.4,9.6 2.3,9.4 3.3,9.1 4.1,8.7 5,8.3 5.8,7.7 6.4,7.2 7.2,6.5 7.8,5.7 8.2,5 8.8,4.1 9.1,3.3 9.3,2.3 9.6,1.4 9.6,0.5 h 354.4 l 9.6,-0.5 9.6,-1.4 9.3,-2.3 9.1,-3.3 8.8,-4.1 8.2,-5 7.8,-5.7 7.2,-6.5 6.4,-7.2 5.8,-7.7 5,-8.3 4.1,-8.7 3.3,-9.1 2.3,-9.4 1.4,-9.6 0.5,-9.6 v -275.6 l -0.5,-9.6 -1.4,-9.6 -2.3,-9.4 -3.3,-9.1 -4.1,-8.7 -5,-8.3 -5.8,-7.7 -6.4,-7.2 -7.2,-6.5 -7.8,-5.7 -8.2,-5 -8.8,-4.1 -9.1,-3.3 -9.3,-2.3 -9.6,-1.4 -9.6,-0.5 h -354.4 z"
         id="path3150" />
    </g>
  </g>
  <g
     id="g2792"
     style="fill:#000000;fill-opacity:1;stroke:#000000;stroke-width:19.685;stroke-linecap:round;stroke-linejoin:round;stroke-opacity:1" />
  <g
     style="fill:#000000;stroke:none;stroke-width:0;stroke-linecap:round;stroke-linejoin:round;fill-opacity:1;stroke-opacity:1"
     id="g2798">
    <g
       id="path2794"
       style="fill:#000000;fill-opacity:1;stroke:none;stroke-opacity:1">
      <path
         style="color:#000000;fill-rule:evenodd;stroke:none;-inkscape-stroke:none;fill:#000000;fill-opacity:1;stroke-opacity:1"
         d="m 63374.3,40118.6 -9.6,1.4 -9.3,2.3 -9.1,3.3 -8.8,4.1 -8.2,5 -7.8,5.8 -7.2,6.4 -6.4,7.2 -5.8,7.8 -5,8.2 -4.1,8.8 -3.2,9.1 -2.4,9.3 -1.4,9.6 -0.5,9.6 v 315 l 0.5,9.6 1.4,9.6 2.4,9.4 3.2,9.1 4.1,8.7 5,8.3 5.8,7.7 6.4,7.2 7.2,6.5 7.8,5.7 8.2,5 8.8,4.1 9.1,3.3 9.3,2.3 9.6,1.4 9.6,0.5 h 492.2 l 9.6,-0.5 9.6,-1.4 9.3,-2.3 9.1,-3.3 8.8,-4.1 8.2,-5 7.8,-5.7 7.2,-6.5 6.4,-7.2 5.8,-7.7 5,-8.3 4.1,-8.7 3.2,-9.1 2.4,-9.4 1.4,-9.6 0.5,-9.6 v -315 l -0.5,-9.6 -1.4,-9.6 -2.4,-9.3 -3.2,-9.1 -4.1,-8.8 -5,-8.2 -5.8,-7.8 -6.4,-7.2 -7.2,-6.4 -7.8,-5.8 -8.2,-5 -8.8,-4.1 -9.1,-3.3 -9.3,-2.3 -9.6,-1.4 -9.6,-0.5 h -492.2 z"
         id="path3124" />
      <path
         style="color:#000000;fill-rule:evenodd;stroke:none;-inkscape-stroke:none;fill:#000000;fill-opacity:1;stroke-opacity:1"
         d="m 63374.3,40118.6 -9.6,1.4 -9.3,2.3 -9.1,3.3 -8.8,4.1 -8.2,5 -7.8,5.8 -7.2,6.4 -6.4,7.2 -5.8,7.8 -5,8.2 -4.1,8.8 -3.2,9.1 -2.4,9.3 -1.4,9.6 -0.5,9.6 v 315 l 0.5,9.6 1.4,9.6 2.4,9.4 3.2,9.1 4.1,8.7 5,8.3 5.8,7.7 6.4,7.2 7.2,6.5 7.8,5.7 8.2,5 8.8,4.1 9.1,3.3 9.3,2.3 9.6,1.4 9.6,0.5 h 492.2 l 9.6,-0.5 9.6,-1.4 9.3,-2.3 9.1,-3.3 8.8,-4.1 8.2,-5 7.8,-5.7 7.2,-6.5 6.4,-7.2 5.8,-7.7 5,-8.3 4.1,-8.7 3.2,-9.1 2.4,-9.4 1.4,-9.6 0.5,-9.6 v -315 l -0.5,-9.6 -1.4,-9.6 -2.4,-9.3 -3.2,-9.1 -4.1,-8.8 -5,-8.2 -5.8,-7.8 -6.4,-7.2 -7.2,-6.4 -7.8,-5.8 -8.2,-5 -8.8,-4.1 -9.1,-3.3 -9.3,-2.3 -9.6,-1.4 -9.6,-0.5 h -492.2 z"
         id="path3126" />
    </g>
    <g
       id="path2796"
       style="fill:#000000;fill-opacity:1;stroke:none;stroke-opacity:1">
      <path
         style="color:#000000;fill-rule:evenodd;stroke:none;-inkscape-stroke:none;fill:#000000;fill-opacity:1;stroke-opacity:1"
         d="m 63374.3,41339.1 -9.6,1.4 -9.3,2.3 -9.1,3.3 -8.8,4.1 -8.2,5 -7.8,5.7 -7.2,6.5 -6.4,7.2 -5.8,7.7 -5,8.3 -4.1,8.7 -3.2,9.1 -2.4,9.4 -1.4,9.6 -0.5,9.6 v 315 l 0.5,9.6 1.4,9.6 2.4,9.3 3.2,9.1 4.1,8.8 5,8.3 5.8,7.7 6.4,7.2 7.2,6.5 7.8,5.7 8.2,5 8.8,4.1 9.1,3.3 9.3,2.3 9.6,1.4 9.6,0.5 h 492.2 l 9.6,-0.5 9.6,-1.4 9.3,-2.3 9.1,-3.3 8.8,-4.1 8.2,-5 7.8,-5.7 7.2,-6.5 6.4,-7.2 5.8,-7.7 5,-8.3 4.1,-8.8 3.2,-9.1 2.4,-9.3 1.4,-9.6 0.5,-9.6 v -315 l -0.5,-9.6 -1.4,-9.6 -2.4,-9.4 -3.2,-9.1 -4.1,-8.7 -5,-8.3 -5.8,-7.7 -6.4,-7.2 -7.2,-6.5 -7.8,-5.7 -8.2,-5 -8.8,-4.1 -9.1,-3.3 -9.3,-2.3 -9.6,-1.4 -9.6,-0.5 h -492.2 z"
         id="path3132" />
      <path
         style="color:#000000;fill-rule:evenodd;stroke:none;-inkscape-stroke:none;fill:#000000;fill-opacity:1;stroke-opacity:1"
         d="m 63374.3,41339.1 -9.6,1.4 -9.3,2.3 -9.1,3.3 -8.8,4.1 -8.2,5 -7.8,5.7 -7.2,6.5 -6.4,7.2 -5.8,7.7 -5,8.3 -4.1,8.7 -3.2,9.1 -2.4,9.4 -1.4,9.6 -0.5,9.6 v 315 l 0.5,9.6 1.4,9.6 2.4,9.3 3.2,9.1 4.1,8.8 5,8.3 5.8,7.7 6.4,7.2 7.2,6.5 7.8,5.7 8.2,5 8.8,4.1 9.1,3.3 9.3,2.3 9.6,1.4 9.6,0.5 h 492.2 l 9.6,-0.5 9.6,-1.4 9.3,-2.3 9.1,-3.3 8.8,-4.1 8.2,-5 7.8,-5.7 7.2,-6.5 6.4,-7.2 5.8,-7.7 5,-8.3 4.1,-8.8 3.2,-9.1 2.4,-9.3 1.4,-9.6 0.5,-9.6 v -315 l -0.5,-9.6 -1.4,-9.6 -2.4,-9.4 -3.2,-9.1 -4.1,-8.7 -5,-8.3 -5.8,-7.7 -6.4,-7.2 -7.2,-6.5 -7.8,-5.7 -8.2,-5 -8.8,-4.1 -9.1,-3.3 -9.3,-2.3 -9.6,-1.4 -9.6,-0.5 h -492.2 z"
         id="path3134" />
    </g>
  </g>
  <g
     id="g2800"
     style="fill:#000000;fill-opacity:1;stroke:#000000;stroke-width:19.685;stroke-linecap:round;stroke-linejoin:round;stroke-opacity:1" />
  <g
     id="g2802"
     style="fill:#000000;fill-opacity:1;stroke:#000000;stroke-width:19.685;stroke-linecap:round;stroke-linejoin:round;stroke-opacity:1" />
  <g
     id="g2804"
     style="fill:#000000;fill-opacity:1;stroke:#000000;stroke-width:19.685;stroke-linecap:round;stroke-linejoin:round;stroke-opacity:1" />
  <g
     id="g2806"
     style="fill:#000000;fill-opacity:1;stroke:#000000;stroke-width:19.685;stroke-linecap:round;stroke-linejoin:round;stroke-opacity:1" />
  <g
     id="g2808"
     style="fill:#000000;fill-opacity:1;stroke:#000000;stroke-width:19.685;stroke-linecap:round;stroke-linejoin:round;stroke-opacity:1" />
  <g
     id="g2810"
     style="fill:#000000;fill-opacity:1;stroke:#000000;stroke-width:19.685;stroke-linecap:round;stroke-linejoin:round;stroke-opacity:1" />
  <g
     style="fill:#000000;stroke:none;stroke-width:0;stroke-linecap:round;stroke-linejoin:round;fill-opacity:1;stroke-opacity:1"
     id="g2816">
    <g
       id="path2812"
       style="fill:#000000;fill-opacity:1;stroke:none;stroke-opacity:1">
      <path
         style="color:#000000;fill-rule:evenodd;stroke:none;-inkscape-stroke:none;fill:#000000;fill-opacity:1;stroke-opacity:1"
         d="m 56953.9,46813.4 -9.1,1.4 -8.9,2.2 -8.6,3.1 -8.3,3.9 -7.9,4.8 -7.3,5.4 -6.8,6.2 -6.2,6.8 -5.5,7.3 -4.7,7.9 -3.9,8.3 -3.1,8.7 -2.2,8.9 -1.4,9 -0.4,9.2 v 187 l 0.4,9.2 1.4,9 2.2,8.9 3.1,8.7 3.9,8.3 4.7,7.9 5.5,7.3 6.2,6.8 6.8,6.2 7.3,5.4 7.9,4.8 8.3,3.9 8.6,3.1 8.9,2.2 9.1,1.4 9.2,0.4 h 196.8 l 9.2,-0.4 9.1,-1.4 8.9,-2.2 8.6,-3.1 8.3,-3.9 7.9,-4.8 7.3,-5.4 6.8,-6.2 6.2,-6.8 5.5,-7.3 4.7,-7.9 3.9,-8.3 3.1,-8.7 2.2,-8.9 1.4,-9 0.4,-9.2 v -187 l -0.4,-9.2 -1.4,-9 -2.2,-8.9 -3.1,-8.7 -3.9,-8.3 -4.7,-7.9 -5.5,-7.3 -6.2,-6.8 -6.8,-6.2 -7.3,-5.4 -7.9,-4.8 -8.3,-3.9 -8.6,-3.1 -8.9,-2.2 -9.1,-1.4 -9.2,-0.4 h -196.8 z"
         id="path3108" />
      <path
         style="color:#000000;fill-rule:evenodd;stroke:none;-inkscape-stroke:none;fill:#000000;fill-opacity:1;stroke-opacity:1"
         d="m 56953.9,46813.4 -9.1,1.4 -8.9,2.2 -8.6,3.1 -8.3,3.9 -7.9,4.8 -7.3,5.4 -6.8,6.2 -6.2,6.8 -5.5,7.3 -4.7,7.9 -3.9,8.3 -3.1,8.7 -2.2,8.9 -1.4,9 -0.4,9.2 v 187 l 0.4,9.2 1.4,9 2.2,8.9 3.1,8.7 3.9,8.3 4.7,7.9 5.5,7.3 6.2,6.8 6.8,6.2 7.3,5.4 7.9,4.8 8.3,3.9 8.6,3.1 8.9,2.2 9.1,1.4 9.2,0.4 h 196.8 l 9.2,-0.4 9.1,-1.4 8.9,-2.2 8.6,-3.1 8.3,-3.9 7.9,-4.8 7.3,-5.4 6.8,-6.2 6.2,-6.8 5.5,-7.3 4.7,-7.9 3.9,-8.3 3.1,-8.7 2.2,-8.9 1.4,-9 0.4,-9.2 v -187 l -0.4,-9.2 -1.4,-9 -2.2,-8.9 -3.1,-8.7 -3.9,-8.3 -4.7,-7.9 -5.5,-7.3 -6.2,-6.8 -6.8,-6.2 -7.3,-5.4 -7.9,-4.8 -8.3,-3.9 -8.6,-3.1 -8.9,-2.2 -9.1,-1.4 -9.2,-0.4 h -196.8 z"
         id="path3110" />
    </g>
    <g
       id="path2814"
       style="fill:#000000;fill-opacity:1;stroke:none;stroke-opacity:1">
      <path
         style="color:#000000;fill-rule:evenodd;stroke:none;-inkscape-stroke:none;fill:#000000;fill-opacity:1;stroke-opacity:1"
         d="m 57672.4,46813.4 -9.1,1.4 -8.9,2.2 -8.6,3.1 -8.3,3.9 -7.9,4.8 -7.3,5.4 -6.8,6.2 -6.2,6.8 -5.5,7.3 -4.7,7.9 -3.9,8.3 -3.1,8.7 -2.2,8.9 -1.4,9 -0.4,9.2 v 187 l 0.4,9.2 1.4,9 2.2,8.9 3.1,8.7 3.9,8.3 4.7,7.9 5.5,7.3 6.2,6.8 6.8,6.2 7.3,5.4 7.9,4.8 8.3,3.9 8.6,3.1 8.9,2.2 9.1,1.4 9.2,0.4 h 196.8 l 9.2,-0.4 9.1,-1.4 8.9,-2.2 8.6,-3.1 8.3,-3.9 7.9,-4.8 7.3,-5.4 6.8,-6.2 6.2,-6.8 5.5,-7.3 4.7,-7.9 3.9,-8.3 3.1,-8.7 2.2,-8.9 1.4,-9 0.4,-9.2 v -187 l -0.4,-9.2 -1.4,-9 -2.2,-8.9 -3.1,-8.7 -3.9,-8.3 -4.7,-7.9 -5.5,-7.3 -6.2,-6.8 -6.8,-6.2 -7.3,-5.4 -7.9,-4.8 -8.3,-3.9 -8.6,-3.1 -8.9,-2.2 -9.1,-1.4 -9.2,-0.4 h -196.8 z"
         id="path3116" />
      <path
         style="color:#000000;fill-rule:evenodd;stroke:none;-inkscape-stroke:none;fill:#000000;fill-opacity:1;stroke-opacity:1"
         d="m 57672.4,46813.4 -9.1,1.4 -8.9,2.2 -8.6,3.1 -8.3,3.9 -7.9,4.8 -7.3,5.4 -6.8,6.2 -6.2,6.8 -5.5,7.3 -4.7,7.9 -3.9,8.3 -3.1,8.7 -2.2,8.9 -1.4,9 -0.4,9.2 v 187 l 0.4,9.2 1.4,9 2.2,8.9 3.1,8.7 3.9,8.3 4.7,7.9 5.5,7.3 6.2,6.8 6.8,6.2 7.3,5.4 7.9,4.8 8.3,3.9 8.6,3.1 8.9,2.2 9.1,1.4 9.2,0.4 h 196.8 l 9.2,-0.4 9.1,-1.4 8.9,-2.2 8.6,-3.1 8.3,-3.9 7.9,-4.8 7.3,-5.4 6.8,-6.2 6.2,-6.8 5.5,-7.3 4.7,-7.9 3.9,-8.3 3.1,-8.7 2.2,-8.9 1.4,-9 0.4,-9.2 v -187 l -0.4,-9.2 -1.4,-9 -2.2,-8.9 -3.1,-8.7 -3.9,-8.3 -4.7,-7.9 -5.5,-7.3 -6.2,-6.8 -6.8,-6.2 -7.3,-5.4 -7.9,-4.8 -8.3,-3.9 -8.6,-3.1 -8.9,-2.2 -9.1,-1.4 -9.2,-0.4 h -196.8 z"
         id="path3118" />
    </g>
  </g>
  <g
     id="g2818"
     style="fill:#000000;fill-opacity:1;stroke:#000000;stroke-width:19.685;stroke-linecap:round;stroke-linejoin:round;stroke-opacity:1" />
  <g
     style="fill:#000000;stroke:none;stroke-width:0;stroke-linecap:round;stroke-linejoin:round;fill-opacity:1;stroke-opacity:1"
     id="g2824">
    <g
       id="path2820"
       style="fill:#000000;fill-opacity:1;stroke:none;stroke-opacity:1">
      <path
         style="color:#000000;fill-rule:evenodd;stroke:none;-inkscape-stroke:none;fill:#000000;fill-opacity:1;stroke-opacity:1"
         d="m 56653.9,45063.4 -9.1,1.4 -8.9,2.2 -8.6,3.1 -8.3,3.9 -7.9,4.8 -7.3,5.4 -6.8,6.2 -6.2,6.8 -5.5,7.3 -4.7,7.9 -3.9,8.3 -3.1,8.7 -2.2,8.9 -1.4,9 -0.4,9.2 v 187 l 0.4,9.2 1.4,9 2.2,8.9 3.1,8.7 3.9,8.3 4.7,7.9 5.5,7.3 6.2,6.8 6.8,6.2 7.3,5.4 7.9,4.8 8.3,3.9 8.6,3.1 8.9,2.2 9.1,1.4 9.2,0.4 h 196.8 l 9.2,-0.4 9.1,-1.4 8.9,-2.2 8.6,-3.1 8.3,-3.9 7.9,-4.8 7.3,-5.4 6.8,-6.2 6.2,-6.8 5.5,-7.3 4.7,-7.9 3.9,-8.3 3.1,-8.7 2.2,-8.9 1.4,-9 0.4,-9.2 v -187 l -0.4,-9.2 -1.4,-9 -2.2,-8.9 -3.1,-8.7 -3.9,-8.3 -4.7,-7.9 -5.5,-7.3 -6.2,-6.8 -6.8,-6.2 -7.3,-5.4 -7.9,-4.8 -8.3,-3.9 -8.6,-3.1 -8.9,-2.2 -9.1,-1.4 -9.2,-0.4 h -196.8 z"
         id="path3092" />
      <path
         style="color:#000000;fill-rule:evenodd;stroke:none;-inkscape-stroke:none;fill:#000000;fill-opacity:1;stroke-opacity:1"
         d="m 56653.9,45063.4 -9.1,1.4 -8.9,2.2 -8.6,3.1 -8.3,3.9 -7.9,4.8 -7.3,5.4 -6.8,6.2 -6.2,6.8 -5.5,7.3 -4.7,7.9 -3.9,8.3 -3.1,8.7 -2.2,8.9 -1.4,9 -0.4,9.2 v 187 l 0.4,9.2 1.4,9 2.2,8.9 3.1,8.7 3.9,8.3 4.7,7.9 5.5,7.3 6.2,6.8 6.8,6.2 7.3,5.4 7.9,4.8 8.3,3.9 8.6,3.1 8.9,2.2 9.1,1.4 9.2,0.4 h 196.8 l 9.2,-0.4 9.1,-1.4 8.9,-2.2 8.6,-3.1 8.3,-3.9 7.9,-4.8 7.3,-5.4 6.8,-6.2 6.2,-6.8 5.5,-7.3 4.7,-7.9 3.9,-8.3 3.1,-8.7 2.2,-8.9 1.4,-9 0.4,-9.2 v -187 l -0.4,-9.2 -1.4,-9 -2.2,-8.9 -3.1,-8.7 -3.9,-8.3 -4.7,-7.9 -5.5,-7.3 -6.2,-6.8 -6.8,-6.2 -7.3,-5.4 -7.9,-4.8 -8.3,-3.9 -8.6,-3.1 -8.9,-2.2 -9.1,-1.4 -9.2,-0.4 h -196.8 z"
         id="path3094" />
    </g>
    <g
       id="path2822"
       style="fill:#000000;fill-opacity:1;stroke:none;stroke-opacity:1">
      <path
         style="color:#000000;fill-rule:evenodd;stroke:none;-inkscape-stroke:none;fill:#000000;fill-opacity:1;stroke-opacity:1"
         d="m 57372.4,45063.4 -9.1,1.4 -8.9,2.2 -8.6,3.1 -8.3,3.9 -7.9,4.8 -7.3,5.4 -6.8,6.2 -6.2,6.8 -5.5,7.3 -4.7,7.9 -3.9,8.3 -3.1,8.7 -2.2,8.9 -1.4,9 -0.4,9.2 v 187 l 0.4,9.2 1.4,9 2.2,8.9 3.1,8.7 3.9,8.3 4.7,7.9 5.5,7.3 6.2,6.8 6.8,6.2 7.3,5.4 7.9,4.8 8.3,3.9 8.6,3.1 8.9,2.2 9.1,1.4 9.2,0.4 h 196.8 l 9.2,-0.4 9.1,-1.4 8.9,-2.2 8.6,-3.1 8.3,-3.9 7.9,-4.8 7.3,-5.4 6.8,-6.2 6.2,-6.8 5.5,-7.3 4.7,-7.9 3.9,-8.3 3.1,-8.7 2.2,-8.9 1.4,-9 0.4,-9.2 v -187 l -0.4,-9.2 -1.4,-9 -2.2,-8.9 -3.1,-8.7 -3.9,-8.3 -4.7,-7.9 -5.5,-7.3 -6.2,-6.8 -6.8,-6.2 -7.3,-5.4 -7.9,-4.8 -8.3,-3.9 -8.6,-3.1 -8.9,-2.2 -9.1,-1.4 -9.2,-0.4 h -196.8 z"
         id="path3100" />
      <path
         style="color:#000000;fill-rule:evenodd;stroke:none;-inkscape-stroke:none;fill:#000000;fill-opacity:1;stroke-opacity:1"
         d="m 57372.4,45063.4 -9.1,1.4 -8.9,2.2 -8.6,3.1 -8.3,3.9 -7.9,4.8 -7.3,5.4 -6.8,6.2 -6.2,6.8 -5.5,7.3 -4.7,7.9 -3.9,8.3 -3.1,8.7 -2.2,8.9 -1.4,9 -0.4,9.2 v 187 l 0.4,9.2 1.4,9 2.2,8.9 3.1,8.7 3.9,8.3 4.7,7.9 5.5,7.3 6.2,6.8 6.8,6.2 7.3,5.4 7.9,4.8 8.3,3.9 8.6,3.1 8.9,2.2 9.1,1.4 9.2,0.4 h 196.8 l 9.2,-0.4 9.1,-1.4 8.9,-2.2 8.6,-3.1 8.3,-3.9 7.9,-4.8 7.3,-5.4 6.8,-6.2 6.2,-6.8 5.5,-7.3 4.7,-7.9 3.9,-8.3 3.1,-8.7 2.2,-8.9 1.4,-9 0.4,-9.2 v -187 l -0.4,-9.2 -1.4,-9 -2.2,-8.9 -3.1,-8.7 -3.9,-8.3 -4.7,-7.9 -5.5,-7.3 -6.2,-6.8 -6.8,-6.2 -7.3,-5.4 -7.9,-4.8 -8.3,-3.9 -8.6,-3.1 -8.9,-2.2 -9.1,-1.4 -9.2,-0.4 h -196.8 z"
         id="path3102" />
    </g>
  </g>
  <g
     id="g2826"
     style="fill:#000000;fill-opacity:1;stroke:#000000;stroke-width:19.685;stroke-linecap:round;stroke-linejoin:round;stroke-opacity:1" />
  <g
     style="fill:#000000;stroke:none;stroke-width:0;stroke-linecap:round;stroke-linejoin:round;fill-opacity:1;stroke-opacity:1"
     id="g2832">
    <g
       id="path2828"
       style="fill:#000000;fill-opacity:1;stroke:none;stroke-opacity:1">
      <path
         style="color:#000000;fill-rule:evenodd;stroke:none;-inkscape-stroke:none;fill:#000000;fill-opacity:1;stroke-opacity:1"
         d="m 60000.1,45147.2 v 905.6 h 984.2 v -905.6 z"
         id="path3076" />
      <path
         style="color:#000000;fill-rule:evenodd;stroke:none;-inkscape-stroke:none;fill:#000000;fill-opacity:1;stroke-opacity:1"
         d="m 60000.1,45147.2 v 905.6 h 984.2 v -905.6 z"
         id="path3078" />
    </g>
    <g
       id="path2830"
       style="fill:#000000;fill-opacity:1;stroke:none;stroke-opacity:1">
      <path
         style="color:#000000;fill-rule:evenodd;stroke:none;-inkscape-stroke:none;fill:#000000;fill-opacity:1;stroke-opacity:1"
         d="m 58307.2,45147.2 v 905.6 h 984.2 v -905.6 z"
         id="path3084" />
      <path
         style="color:#000000;fill-rule:evenodd;stroke:none;-inkscape-stroke:none;fill:#000000;fill-opacity:1;stroke-opacity:1"
         d="m 58307.2,45147.2 v 905.6 h 984.2 v -905.6 z"
         id="path3086" />
    </g>
  </g>
  <g
     id="g2834"
     style="fill:#000000;fill-opacity:1;stroke:#000000;stroke-width:19.685;stroke-linecap:round;stroke-linejoin:round;stroke-opacity:1" />
  <g
     style="fill:#000000;stroke:none;stroke-width:0;stroke-linecap:round;stroke-linejoin:round;fill-opacity:1;stroke-opacity:1"
     id="g2840">
    <g
       id="path2836"
       style="fill:#000000;fill-opacity:1;stroke:none;stroke-opacity:1">
      <path
         style="color:#000000;fill-rule:evenodd;stroke:none;-inkscape-stroke:none;fill:#000000;fill-opacity:1;stroke-opacity:1"
         d="m 65795.9,43499.3 -9.5,1.4 -9.4,2.4 -9.1,3.2 -8.7,4.1 -8.3,5 -7.7,5.8 -7.2,6.4 -6.5,7.2 -5.7,7.8 -5,8.2 -4.1,8.8 -3.3,9.1 -2.3,9.3 -1.5,9.6 -0.4,9.6 v 374.1 l 0.4,9.6 1.5,9.6 2.3,9.3 3.3,9.1 4.1,8.8 5,8.2 5.7,7.8 6.5,7.2 7.2,6.4 7.7,5.8 8.3,5 8.7,4.1 9.1,3.2 9.4,2.4 9.5,1.4 9.7,0.5 h 265.7 l 9.7,-0.5 9.5,-1.4 9.4,-2.4 9.1,-3.2 8.7,-4.1 8.3,-5 7.8,-5.8 7.1,-6.4 6.5,-7.2 5.8,-7.8 4.9,-8.2 4.2,-8.8 3.2,-9.1 2.4,-9.3 1.4,-9.6 0.5,-9.6 v -374.1 l -0.5,-9.6 -1.4,-9.6 -2.4,-9.3 -3.2,-9.1 -4.2,-8.8 -4.9,-8.2 -5.8,-7.8 -6.5,-7.2 -7.1,-6.4 -7.8,-5.8 -8.3,-5 -8.7,-4.1 -9.1,-3.2 -9.4,-2.4 -9.5,-1.4 -9.7,-0.5 h -265.7 z"
         id="path3060" />
      <path
         style="color:#000000;fill-rule:evenodd;stroke:none;-inkscape-stroke:none;fill:#000000;fill-opacity:1;stroke-opacity:1"
         d="m 65795.9,43499.3 -9.5,1.4 -9.4,2.4 -9.1,3.2 -8.7,4.1 -8.3,5 -7.7,5.8 -7.2,6.4 -6.5,7.2 -5.7,7.8 -5,8.2 -4.1,8.8 -3.3,9.1 -2.3,9.3 -1.5,9.6 -0.4,9.6 v 374.1 l 0.4,9.6 1.5,9.6 2.3,9.3 3.3,9.1 4.1,8.8 5,8.2 5.7,7.8 6.5,7.2 7.2,6.4 7.7,5.8 8.3,5 8.7,4.1 9.1,3.2 9.4,2.4 9.5,1.4 9.7,0.5 h 265.7 l 9.7,-0.5 9.5,-1.4 9.4,-2.4 9.1,-3.2 8.7,-4.1 8.3,-5 7.8,-5.8 7.1,-6.4 6.5,-7.2 5.8,-7.8 4.9,-8.2 4.2,-8.8 3.2,-9.1 2.4,-9.3 1.4,-9.6 0.5,-9.6 v -374.1 l -0.5,-9.6 -1.4,-9.6 -2.4,-9.3 -3.2,-9.1 -4.2,-8.8 -4.9,-8.2 -5.8,-7.8 -6.5,-7.2 -7.1,-6.4 -7.8,-5.8 -8.3,-5 -8.7,-4.1 -9.1,-3.2 -9.4,-2.4 -9.5,-1.4 -9.7,-0.5 h -265.7 z"
         id="path3062" />
    </g>
    <g
       id="path2838"
       style="fill:#000000;fill-opacity:1;stroke:none;stroke-opacity:1">
      <path
         style="color:#000000;fill-rule:evenodd;stroke:none;-inkscape-stroke:none;fill:#000000;fill-opacity:1;stroke-opacity:1"
         d="m 64979,43499.3 -9.5,1.4 -9.4,2.4 -9.1,3.2 -8.7,4.1 -8.3,5 -7.8,5.8 -7.1,6.4 -6.5,7.2 -5.8,7.8 -4.9,8.2 -4.2,8.8 -3.2,9.1 -2.4,9.3 -1.4,9.6 -0.5,9.6 v 374.1 l 0.5,9.6 1.4,9.6 2.4,9.3 3.2,9.1 4.2,8.8 4.9,8.2 5.8,7.8 6.5,7.2 7.1,6.4 7.8,5.8 8.3,5 8.7,4.1 9.1,3.2 9.4,2.4 9.5,1.4 9.7,0.5 h 265.7 l 9.7,-0.5 9.5,-1.4 9.4,-2.4 9.1,-3.2 8.7,-4.1 8.3,-5 7.7,-5.8 7.2,-6.4 6.5,-7.2 5.7,-7.8 5,-8.2 4.1,-8.8 3.3,-9.1 2.3,-9.3 1.5,-9.6 0.4,-9.6 v -374.1 l -0.4,-9.6 -1.5,-9.6 -2.3,-9.3 -3.3,-9.1 -4.1,-8.8 -5,-8.2 -5.7,-7.8 -6.5,-7.2 -7.2,-6.4 -7.7,-5.8 -8.3,-5 -8.7,-4.1 -9.1,-3.2 -9.4,-2.4 -9.5,-1.4 -9.7,-0.5 h -265.7 z"
         id="path3068" />
      <path
         style="color:#000000;fill-rule:evenodd;stroke:none;-inkscape-stroke:none;fill:#000000;fill-opacity:1;stroke-opacity:1"
         d="m 64979,43499.3 -9.5,1.4 -9.4,2.4 -9.1,3.2 -8.7,4.1 -8.3,5 -7.8,5.8 -7.1,6.4 -6.5,7.2 -5.8,7.8 -4.9,8.2 -4.2,8.8 -3.2,9.1 -2.4,9.3 -1.4,9.6 -0.5,9.6 v 374.1 l 0.5,9.6 1.4,9.6 2.4,9.3 3.2,9.1 4.2,8.8 4.9,8.2 5.8,7.8 6.5,7.2 7.1,6.4 7.8,5.8 8.3,5 8.7,4.1 9.1,3.2 9.4,2.4 9.5,1.4 9.7,0.5 h 265.7 l 9.7,-0.5 9.5,-1.4 9.4,-2.4 9.1,-3.2 8.7,-4.1 8.3,-5 7.7,-5.8 7.2,-6.4 6.5,-7.2 5.7,-7.8 5,-8.2 4.1,-8.8 3.3,-9.1 2.3,-9.3 1.5,-9.6 0.4,-9.6 v -374.1 l -0.4,-9.6 -1.5,-9.6 -2.3,-9.3 -3.3,-9.1 -4.1,-8.8 -5,-8.2 -5.7,-7.8 -6.5,-7.2 -7.2,-6.4 -7.7,-5.8 -8.3,-5 -8.7,-4.1 -9.1,-3.2 -9.4,-2.4 -9.5,-1.4 -9.7,-0.5 h -265.7 z"
         id="path3070" />
    </g>
  </g>
  <g
     id="g2842"
     style="fill:#000000;fill-opacity:1;stroke:#000000;stroke-width:19.685;stroke-linecap:round;stroke-linejoin:round;stroke-opacity:1" />
  <g
     style="fill:#000000;stroke:none;stroke-width:0;stroke-linecap:round;stroke-linejoin:round;fill-opacity:1;stroke-opacity:1"
     id="g2848">
    <g
       id="path2844"
       style="fill:#000000;fill-opacity:1;stroke:none;stroke-opacity:1">
      <path
         style="color:#000000;fill-rule:evenodd;stroke:none;-inkscape-stroke:none;fill:#000000;fill-opacity:1;stroke-opacity:1"
         d="m 68133.3,40945 -9.5,1.4 -9.4,2.3 -9.1,3.3 -8.7,4.1 -8.3,5 -7.7,5.7 -7.2,6.5 -6.5,7.2 -5.7,7.7 -5,8.3 -4.1,8.7 -3.3,9.1 -2.3,9.4 -1.5,9.6 -0.4,9.6 v 265.8 l 0.4,9.6 1.5,9.6 2.3,9.3 3.3,9.1 4.1,8.8 5,8.2 5.7,7.8 6.5,7.2 7.2,6.4 7.7,5.8 8.3,5 8.7,4.1 9.1,3.2 9.4,2.4 9.5,1.4 9.7,0.5 h 374 l 9.7,-0.5 9.5,-1.4 9.4,-2.4 9.1,-3.2 8.7,-4.1 8.3,-5 7.7,-5.8 7.2,-6.4 6.5,-7.2 5.7,-7.8 5,-8.2 4.1,-8.8 3.3,-9.1 2.3,-9.3 1.5,-9.6 0.4,-9.6 v -265.8 l -0.4,-9.6 -1.5,-9.6 -2.3,-9.4 -3.3,-9.1 -4.1,-8.7 -5,-8.3 -5.7,-7.7 -6.5,-7.2 -7.2,-6.5 -7.7,-5.7 -8.3,-5 -8.7,-4.1 -9.1,-3.3 -9.4,-2.3 -9.5,-1.4 -9.7,-0.5 h -374 z"
         id="path3044" />
      <path
         style="color:#000000;fill-rule:evenodd;stroke:none;-inkscape-stroke:none;fill:#000000;fill-opacity:1;stroke-opacity:1"
         d="m 68133.3,40945 -9.5,1.4 -9.4,2.3 -9.1,3.3 -8.7,4.1 -8.3,5 -7.7,5.7 -7.2,6.5 -6.5,7.2 -5.7,7.7 -5,8.3 -4.1,8.7 -3.3,9.1 -2.3,9.4 -1.5,9.6 -0.4,9.6 v 265.8 l 0.4,9.6 1.5,9.6 2.3,9.3 3.3,9.1 4.1,8.8 5,8.2 5.7,7.8 6.5,7.2 7.2,6.4 7.7,5.8 8.3,5 8.7,4.1 9.1,3.2 9.4,2.4 9.5,1.4 9.7,0.5 h 374 l 9.7,-0.5 9.5,-1.4 9.4,-2.4 9.1,-3.2 8.7,-4.1 8.3,-5 7.7,-5.8 7.2,-6.4 6.5,-7.2 5.7,-7.8 5,-8.2 4.1,-8.8 3.3,-9.1 2.3,-9.3 1.5,-9.6 0.4,-9.6 v -265.8 l -0.4,-9.6 -1.5,-9.6 -2.3,-9.4 -3.3,-9.1 -4.1,-8.7 -5,-8.3 -5.7,-7.7 -6.5,-7.2 -7.2,-6.5 -7.7,-5.7 -8.3,-5 -8.7,-4.1 -9.1,-3.3 -9.4,-2.3 -9.5,-1.4 -9.7,-0.5 h -374 z"
         id="path3046" />
    </g>
    <g
       id="path2846"
       style="fill:#000000;fill-opacity:1;stroke:none;stroke-opacity:1">
      <path
         style="color:#000000;fill-rule:evenodd;stroke:none;-inkscape-stroke:none;fill:#000000;fill-opacity:1;stroke-opacity:1"
         d="m 68133.3,41761.9 -9.5,1.4 -9.4,2.4 -9.1,3.2 -8.7,4.1 -8.3,5 -7.7,5.8 -7.2,6.4 -6.5,7.2 -5.7,7.8 -5,8.2 -4.1,8.8 -3.3,9.1 -2.3,9.3 -1.5,9.6 -0.4,9.6 v 265.8 l 0.4,9.6 1.5,9.6 2.3,9.4 3.3,9.1 4.1,8.7 5,8.3 5.7,7.7 6.5,7.2 7.2,6.5 7.7,5.7 8.3,5 8.7,4.1 9.1,3.3 9.4,2.3 9.5,1.4 9.7,0.5 h 374 l 9.7,-0.5 9.5,-1.4 9.4,-2.3 9.1,-3.3 8.7,-4.1 8.3,-5 7.7,-5.7 7.2,-6.5 6.5,-7.2 5.7,-7.7 5,-8.3 4.1,-8.7 3.3,-9.1 2.3,-9.4 1.5,-9.6 0.4,-9.6 v -265.8 l -0.4,-9.6 -1.5,-9.6 -2.3,-9.3 -3.3,-9.1 -4.1,-8.8 -5,-8.2 -5.7,-7.8 -6.5,-7.2 -7.2,-6.4 -7.7,-5.8 -8.3,-5 -8.7,-4.1 -9.1,-3.2 -9.4,-2.4 -9.5,-1.4 -9.7,-0.5 h -374 z"
         id="path3052" />
      <path
         style="color:#000000;fill-rule:evenodd;stroke:none;-inkscape-stroke:none;fill:#000000;fill-opacity:1;stroke-opacity:1"
         d="m 68133.3,41761.9 -9.5,1.4 -9.4,2.4 -9.1,3.2 -8.7,4.1 -8.3,5 -7.7,5.8 -7.2,6.4 -6.5,7.2 -5.7,7.8 -5,8.2 -4.1,8.8 -3.3,9.1 -2.3,9.3 -1.5,9.6 -0.4,9.6 v 265.8 l 0.4,9.6 1.5,9.6 2.3,9.4 3.3,9.1 4.1,8.7 5,8.3 5.7,7.7 6.5,7.2 7.2,6.5 7.7,5.7 8.3,5 8.7,4.1 9.1,3.3 9.4,2.3 9.5,1.4 9.7,0.5 h 374 l 9.7,-0.5 9.5,-1.4 9.4,-2.3 9.1,-3.3 8.7,-4.1 8.3,-5 7.7,-5.7 7.2,-6.5 6.5,-7.2 5.7,-7.7 5,-8.3 4.1,-8.7 3.3,-9.1 2.3,-9.4 1.5,-9.6 0.4,-9.6 v -265.8 l -0.4,-9.6 -1.5,-9.6 -2.3,-9.3 -3.3,-9.1 -4.1,-8.8 -5,-8.2 -5.7,-7.8 -6.5,-7.2 -7.2,-6.4 -7.7,-5.8 -8.3,-5 -8.7,-4.1 -9.1,-3.2 -9.4,-2.4 -9.5,-1.4 -9.7,-0.5 h -374 z"
         id="path3054" />
    </g>
  </g>
  <g
     id="g2850"
     style="fill:#000000;fill-opacity:1;stroke:#000000;stroke-width:19.685;stroke-linecap:round;stroke-linejoin:round;stroke-opacity:1" />
  <g
     style="fill:#000000;stroke:none;stroke-width:0;stroke-linecap:round;stroke-linejoin:round;fill-opacity:1;stroke-opacity:1"
     id="g2856">
    <g
       id="path2852"
       style="fill:#000000;fill-opacity:1;stroke:none;stroke-opacity:1">
      <path
         style="color:#000000;fill-rule:evenodd;stroke:none;-inkscape-stroke:none;fill:#000000;fill-opacity:1;stroke-opacity:1"
         d="m 61387.3,44724.5 -9.6,1.4 -9.3,2.4 -9.1,3.2 -8.8,4.1 -8.3,5 -7.7,5.8 -7.2,6.4 -6.5,7.2 -5.7,7.8 -5,8.2 -4.1,8.8 -3.3,9.1 -2.3,9.3 -1.4,9.6 -0.5,9.6 v 324.8 l 0.5,9.7 1.4,9.5 2.3,9.4 3.3,9.1 4.1,8.7 5,8.3 5.7,7.8 6.5,7.1 7.2,6.5 7.7,5.8 8.3,4.9 8.8,4.2 9.1,3.2 9.3,2.4 9.6,1.4 9.6,0.5 h 866.2 l 9.6,-0.5 9.6,-1.4 9.3,-2.4 9.1,-3.2 8.8,-4.2 8.3,-4.9 7.7,-5.8 7.2,-6.5 6.5,-7.1 5.7,-7.8 5,-8.3 4.1,-8.7 3.3,-9.1 2.3,-9.4 1.4,-9.5 0.5,-9.7 v -324.8 l -0.5,-9.6 -1.4,-9.6 -2.3,-9.3 -3.3,-9.1 -4.1,-8.8 -5,-8.2 -5.7,-7.8 -6.5,-7.2 -7.2,-6.4 -7.7,-5.8 -8.3,-5 -8.8,-4.1 -9.1,-3.2 -9.3,-2.4 -9.6,-1.4 -9.6,-0.5 h -866.2 z"
         id="path3028" />
      <path
         style="color:#000000;fill-rule:evenodd;stroke:none;-inkscape-stroke:none;fill:#000000;fill-opacity:1;stroke-opacity:1"
         d="m 61387.3,44724.5 -9.6,1.4 -9.3,2.4 -9.1,3.2 -8.8,4.1 -8.3,5 -7.7,5.8 -7.2,6.4 -6.5,7.2 -5.7,7.8 -5,8.2 -4.1,8.8 -3.3,9.1 -2.3,9.3 -1.4,9.6 -0.5,9.6 v 324.8 l 0.5,9.7 1.4,9.5 2.3,9.4 3.3,9.1 4.1,8.7 5,8.3 5.7,7.8 6.5,7.1 7.2,6.5 7.7,5.8 8.3,4.9 8.8,4.2 9.1,3.2 9.3,2.4 9.6,1.4 9.6,0.5 h 866.2 l 9.6,-0.5 9.6,-1.4 9.3,-2.4 9.1,-3.2 8.8,-4.2 8.3,-4.9 7.7,-5.8 7.2,-6.5 6.5,-7.1 5.7,-7.8 5,-8.3 4.1,-8.7 3.3,-9.1 2.3,-9.4 1.4,-9.5 0.5,-9.7 v -324.8 l -0.5,-9.6 -1.4,-9.6 -2.3,-9.3 -3.3,-9.1 -4.1,-8.8 -5,-8.2 -5.7,-7.8 -6.5,-7.2 -7.2,-6.4 -7.7,-5.8 -8.3,-5 -8.8,-4.1 -9.1,-3.2 -9.3,-2.4 -9.6,-1.4 -9.6,-0.5 h -866.2 z"
         id="path3030" />
    </g>
    <g
       id="path2854"
       style="fill:#000000;fill-opacity:1;stroke:none;stroke-opacity:1">
      <path
         style="color:#000000;fill-rule:evenodd;stroke:none;-inkscape-stroke:none;fill:#000000;fill-opacity:1;stroke-opacity:1"
         d="m 61387.3,45954.8 -9.6,1.4 -9.3,2.4 -9.1,3.2 -8.8,4.2 -8.3,4.9 -7.7,5.8 -7.2,6.5 -6.5,7.1 -5.7,7.8 -5,8.3 -4.1,8.7 -3.3,9.1 -2.3,9.4 -1.4,9.5 -0.5,9.7 v 324.8 l 0.5,9.6 1.4,9.6 2.3,9.3 3.3,9.1 4.1,8.8 5,8.2 5.7,7.8 6.5,7.2 7.2,6.4 7.7,5.8 8.3,5 8.8,4.1 9.1,3.2 9.3,2.4 9.6,1.4 9.6,0.5 h 866.2 l 9.6,-0.5 9.6,-1.4 9.3,-2.4 9.1,-3.2 8.8,-4.1 8.3,-5 7.7,-5.8 7.2,-6.4 6.5,-7.2 5.7,-7.8 5,-8.2 4.1,-8.8 3.3,-9.1 2.3,-9.3 1.4,-9.6 0.5,-9.6 v -324.8 l -0.5,-9.7 -1.4,-9.5 -2.3,-9.4 -3.3,-9.1 -4.1,-8.7 -5,-8.3 -5.7,-7.8 -6.5,-7.1 -7.2,-6.5 -7.7,-5.8 -8.3,-4.9 -8.8,-4.2 -9.1,-3.2 -9.3,-2.4 -9.6,-1.4 -9.6,-0.5 h -866.2 z"
         id="path3036" />
      <path
         style="color:#000000;fill-rule:evenodd;stroke:none;-inkscape-stroke:none;fill:#000000;fill-opacity:1;stroke-opacity:1"
         d="m 61387.3,45954.8 -9.6,1.4 -9.3,2.4 -9.1,3.2 -8.8,4.2 -8.3,4.9 -7.7,5.8 -7.2,6.5 -6.5,7.1 -5.7,7.8 -5,8.3 -4.1,8.7 -3.3,9.1 -2.3,9.4 -1.4,9.5 -0.5,9.7 v 324.8 l 0.5,9.6 1.4,9.6 2.3,9.3 3.3,9.1 4.1,8.8 5,8.2 5.7,7.8 6.5,7.2 7.2,6.4 7.7,5.8 8.3,5 8.8,4.1 9.1,3.2 9.3,2.4 9.6,1.4 9.6,0.5 h 866.2 l 9.6,-0.5 9.6,-1.4 9.3,-2.4 9.1,-3.2 8.8,-4.1 8.3,-5 7.7,-5.8 7.2,-6.4 6.5,-7.2 5.7,-7.8 5,-8.2 4.1,-8.8 3.3,-9.1 2.3,-9.3 1.4,-9.6 0.5,-9.6 v -324.8 l -0.5,-9.7 -1.4,-9.5 -2.3,-9.4 -3.3,-9.1 -4.1,-8.7 -5,-8.3 -5.7,-7.8 -6.5,-7.1 -7.2,-6.5 -7.7,-5.8 -8.3,-4.9 -8.8,-4.2 -9.1,-3.2 -9.3,-2.4 -9.6,-1.4 -9.6,-0.5 h -866.2 z"
         id="path3038" />
    </g>
  </g>
  <g
     id="g2858"
     style="fill:#000000;fill-opacity:1;stroke:#000000;stroke-width:19.685;stroke-linecap:round;stroke-linejoin:round;stroke-opacity:1" />
  <g
     style="fill:#000000;stroke:none;stroke-width:0;stroke-linecap:round;stroke-linejoin:round;fill-opacity:1;stroke-opacity:1"
     id="g2864">
    <g
       id="path2860"
       style="fill:#000000;fill-opacity:1;stroke:none;stroke-opacity:1">
      <path
         style="color:#000000;fill-rule:evenodd;stroke:none;-inkscape-stroke:none;fill:#000000;fill-opacity:1;stroke-opacity:1"
         d="m 66333.3,39861.9 -9.5,1.4 -9.4,2.4 -9.1,3.2 -8.7,4.1 -8.3,5 -7.7,5.8 -7.2,6.4 -6.5,7.2 -5.7,7.8 -5,8.2 -4.1,8.8 -3.3,9.1 -2.3,9.3 -1.5,9.6 -0.4,9.6 v 265.8 l 0.4,9.6 1.5,9.6 2.3,9.4 3.3,9.1 4.1,8.7 5,8.3 5.7,7.7 6.5,7.2 7.2,6.5 7.7,5.7 8.3,5 8.7,4.1 9.1,3.3 9.4,2.3 9.5,1.4 9.7,0.5 h 374 l 9.7,-0.5 9.5,-1.4 9.4,-2.3 9.1,-3.3 8.7,-4.1 8.3,-5 7.7,-5.7 7.2,-6.5 6.5,-7.2 5.7,-7.7 5,-8.3 4.1,-8.7 3.3,-9.1 2.3,-9.4 1.5,-9.6 0.4,-9.6 v -265.8 l -0.4,-9.6 -1.5,-9.6 -2.3,-9.3 -3.3,-9.1 -4.1,-8.8 -5,-8.2 -5.7,-7.8 -6.5,-7.2 -7.2,-6.4 -7.7,-5.8 -8.3,-5 -8.7,-4.1 -9.1,-3.2 -9.4,-2.4 -9.5,-1.4 -9.7,-0.5 h -374 z"
         id="path3012" />
      <path
         style="color:#000000;fill-rule:evenodd;stroke:none;-inkscape-stroke:none;fill:#000000;fill-opacity:1;stroke-opacity:1"
         d="m 66333.3,39861.9 -9.5,1.4 -9.4,2.4 -9.1,3.2 -8.7,4.1 -8.3,5 -7.7,5.8 -7.2,6.4 -6.5,7.2 -5.7,7.8 -5,8.2 -4.1,8.8 -3.3,9.1 -2.3,9.3 -1.5,9.6 -0.4,9.6 v 265.8 l 0.4,9.6 1.5,9.6 2.3,9.4 3.3,9.1 4.1,8.7 5,8.3 5.7,7.7 6.5,7.2 7.2,6.5 7.7,5.7 8.3,5 8.7,4.1 9.1,3.3 9.4,2.3 9.5,1.4 9.7,0.5 h 374 l 9.7,-0.5 9.5,-1.4 9.4,-2.3 9.1,-3.3 8.7,-4.1 8.3,-5 7.7,-5.7 7.2,-6.5 6.5,-7.2 5.7,-7.7 5,-8.3 4.1,-8.7 3.3,-9.1 2.3,-9.4 1.5,-9.6 0.4,-9.6 v -265.8 l -0.4,-9.6 -1.5,-9.6 -2.3,-9.3 -3.3,-9.1 -4.1,-8.8 -5,-8.2 -5.7,-7.8 -6.5,-7.2 -7.2,-6.4 -7.7,-5.8 -8.3,-5 -8.7,-4.1 -9.1,-3.2 -9.4,-2.4 -9.5,-1.4 -9.7,-0.5 h -374 z"
         id="path3014" />
    </g>
    <g
       id="path2862"
       style="fill:#000000;fill-opacity:1;stroke:none;stroke-opacity:1">
      <path
         style="color:#000000;fill-rule:evenodd;stroke:none;-inkscape-stroke:none;fill:#000000;fill-opacity:1;stroke-opacity:1"
         d="m 66333.3,39045 -9.5,1.4 -9.4,2.3 -9.1,3.3 -8.7,4.1 -8.3,5 -7.7,5.7 -7.2,6.5 -6.5,7.2 -5.7,7.7 -5,8.3 -4.1,8.7 -3.3,9.1 -2.3,9.4 -1.5,9.6 -0.4,9.6 v 265.8 l 0.4,9.6 1.5,9.6 2.3,9.3 3.3,9.1 4.1,8.8 5,8.2 5.7,7.8 6.5,7.2 7.2,6.4 7.7,5.8 8.3,5 8.7,4.1 9.1,3.2 9.4,2.4 9.5,1.4 9.7,0.5 h 374 l 9.7,-0.5 9.5,-1.4 9.4,-2.4 9.1,-3.2 8.7,-4.1 8.3,-5 7.7,-5.8 7.2,-6.4 6.5,-7.2 5.7,-7.8 5,-8.2 4.1,-8.8 3.3,-9.1 2.3,-9.3 1.5,-9.6 0.4,-9.6 v -265.8 l -0.4,-9.6 -1.5,-9.6 -2.3,-9.4 -3.3,-9.1 -4.1,-8.7 -5,-8.3 -5.7,-7.7 -6.5,-7.2 -7.2,-6.5 -7.7,-5.7 -8.3,-5 -8.7,-4.1 -9.1,-3.3 -9.4,-2.3 -9.5,-1.4 -9.7,-0.5 h -374 z"
         id="path3020" />
      <path
         style="color:#000000;fill-rule:evenodd;stroke:none;-inkscape-stroke:none;fill:#000000;fill-opacity:1;stroke-opacity:1"
         d="m 66333.3,39045 -9.5,1.4 -9.4,2.3 -9.1,3.3 -8.7,4.1 -8.3,5 -7.7,5.7 -7.2,6.5 -6.5,7.2 -5.7,7.7 -5,8.3 -4.1,8.7 -3.3,9.1 -2.3,9.4 -1.5,9.6 -0.4,9.6 v 265.8 l 0.4,9.6 1.5,9.6 2.3,9.3 3.3,9.1 4.1,8.8 5,8.2 5.7,7.8 6.5,7.2 7.2,6.4 7.7,5.8 8.3,5 8.7,4.1 9.1,3.2 9.4,2.4 9.5,1.4 9.7,0.5 h 374 l 9.7,-0.5 9.5,-1.4 9.4,-2.4 9.1,-3.2 8.7,-4.1 8.3,-5 7.7,-5.8 7.2,-6.4 6.5,-7.2 5.7,-7.8 5,-8.2 4.1,-8.8 3.3,-9.1 2.3,-9.3 1.5,-9.6 0.4,-9.6 v -265.8 l -0.4,-9.6 -1.5,-9.6 -2.3,-9.4 -3.3,-9.1 -4.1,-8.7 -5,-8.3 -5.7,-7.7 -6.5,-7.2 -7.2,-6.5 -7.7,-5.7 -8.3,-5 -8.7,-4.1 -9.1,-3.3 -9.4,-2.3 -9.5,-1.4 -9.7,-0.5 h -374 z"
         id="path3022" />
    </g>
  </g>
  <g
     id="g2866"
     style="fill:#000000;fill-opacity:1;stroke:#000000;stroke-width:19.685;stroke-linecap:round;stroke-linejoin:round;stroke-opacity:1" />
  <g
     id="g2868"
     style="fill:#000000;fill-opacity:1;stroke:#000000;stroke-width:19.685;stroke-linecap:round;stroke-linejoin:round;stroke-opacity:1" />
  <g
     id="g2870"
     style="fill:#000000;fill-opacity:1;stroke:#000000;stroke-width:19.685;stroke-linecap:round;stroke-linejoin:round;stroke-opacity:1" />
</svg>
