<?xml version="1.0" encoding="UTF-8" standalone="no"?>
<svg
   version="1.1"
   width="29.700220cm"
   height="21.000720cm"
   viewBox="0 0 116930 82680"
   id="svg2634"
   sodipodi:docname="osculati_amperemetre_sensor-B_Mask.svg"
   inkscape:version="1.1 (c68e22c387, 2021-05-23)"
   xmlns:inkscape="http://www.inkscape.org/namespaces/inkscape"
   xmlns:sodipodi="http://sodipodi.sourceforge.net/DTD/sodipodi-0.dtd"
   xmlns="http://www.w3.org/2000/svg"
   xmlns:svg="http://www.w3.org/2000/svg">
  <defs
     id="defs2638" />
  <sodipodi:namedview
     id="namedview2636"
     pagecolor="#ffffff"
     bordercolor="#666666"
     borderopacity="1.0"
     inkscape:pageshadow="2"
     inkscape:pageopacity="0.0"
     inkscape:pagecheckerboard="0"
     inkscape:document-units="cm"
     showgrid="false"
     inkscape:zoom="1.6498874"
     inkscape:cx="607.31418"
     inkscape:cy="388.81442"
     inkscape:window-width="1459"
     inkscape:window-height="672"
     inkscape:window-x="357"
     inkscape:window-y="270"
     inkscape:window-maximized="0"
     inkscape:current-layer="svg2634" />
  <title
     id="title2302">SVG Picture created as osculati_amperemetre_sensor-B_Mask.svg date 2021/12/20 11:09:50 </title>
  <desc
     id="desc2304">Picture generated by PCBNEW </desc>
  <g
     style="fill:#00ff00;fill-opacity:1;stroke:#000000;stroke-opacity:1;stroke-linecap:round;stroke-linejoin:round"
     transform="translate(0 0) scale(1 1)"
     id="g2306" />
  <g
     style="fill:#00ff00;fill-opacity:1;stroke:#000000;stroke-width:-0.000393701;stroke-opacity:1;stroke-linecap:round;stroke-linejoin:round"
     id="g2308" />
  <g
     id="path2310"
     style="fill:none;fill-opacity:1;stroke:#ff0000;stroke-width:19.6850404;stroke-linecap:round;stroke-linejoin:round;stroke-opacity:1;stroke-miterlimit:4;stroke-dasharray:none">
    <path
       style="color:#000000;fill:none;fill-opacity:1;stroke:#ff0000;stroke-linecap:butt;stroke-linejoin:miter;stroke-opacity:1;stroke-width:19.6850404;stroke-miterlimit:4;stroke-dasharray:none"
       d="M 75985,55511 V 35039"
       id="path4725" />
    <path
       style="color:#000000;fill:none;fill-opacity:1;stroke:#ff0000;stroke-linecap:butt;stroke-linejoin:miter;stroke-opacity:1;stroke-width:19.6850404;stroke-miterlimit:4;stroke-dasharray:none"
       d="m 75985,35029.158 a 9.8424997,9.8424997 0 0 0 -9.842,9.842 v 20472 a 9.8424997,9.8424997 0 0 0 9.842,9.842 9.8424997,9.8424997 0 0 0 9.842,-9.842 V 35039 a 9.8424997,9.8424997 0 0 0 -9.842,-9.842 z"
       id="path4727" />
  </g>
  <g
     id="path2312"
     style="fill:none;fill-opacity:1;stroke:#ff0000;stroke-width:19.6850404;stroke-linecap:round;stroke-linejoin:round;stroke-opacity:1;stroke-miterlimit:4;stroke-dasharray:none">
    <path
       style="color:#000000;fill:none;fill-opacity:1;stroke:#ff0000;stroke-linecap:butt;stroke-linejoin:miter;stroke-opacity:1;stroke-width:19.6850404;stroke-miterlimit:4;stroke-dasharray:none"
       d="M 51575,55511 H 75985"
       id="path4733" />
    <path
       style="color:#000000;fill:none;fill-opacity:1;stroke:#ff0000;stroke-linecap:butt;stroke-linejoin:miter;stroke-opacity:1;stroke-width:19.6850404;stroke-miterlimit:4;stroke-dasharray:none"
       d="m 51575,55501.158 a 9.8424997,9.8424997 0 0 0 -9.842,9.842 9.8424997,9.8424997 0 0 0 9.842,9.842 h 24410 a 9.8424997,9.8424997 0 0 0 9.842,-9.842 9.8424997,9.8424997 0 0 0 -9.842,-9.842 z"
       id="path4735" />
  </g>
  <g
     id="path2314"
     style="fill:none;fill-opacity:1;stroke:#ff0000;stroke-width:19.6850404;stroke-linecap:round;stroke-linejoin:round;stroke-opacity:1;stroke-miterlimit:4;stroke-dasharray:none">
    <path
       style="color:#000000;fill:none;fill-opacity:1;stroke:#ff0000;stroke-linecap:butt;stroke-linejoin:miter;stroke-opacity:1;stroke-width:19.6850404;stroke-miterlimit:4;stroke-dasharray:none"
       d="M 51575,35039 V 55511"
       id="path4741" />
    <path
       style="color:#000000;fill:none;fill-opacity:1;stroke:#ff0000;stroke-linecap:butt;stroke-linejoin:miter;stroke-opacity:1;stroke-width:19.6850404;stroke-miterlimit:4;stroke-dasharray:none"
       d="m 51575,35029.158 a 9.8424997,9.8424997 0 0 0 -9.842,9.842 v 20472 a 9.8424997,9.8424997 0 0 0 9.842,9.842 9.8424997,9.8424997 0 0 0 9.842,-9.842 V 35039 a 9.8424997,9.8424997 0 0 0 -9.842,-9.842 z"
       id="path4743" />
  </g>
  <g
     id="path2316"
     style="fill:none;fill-opacity:1;stroke:#ff0000;stroke-width:19.6850404;stroke-linecap:round;stroke-linejoin:round;stroke-opacity:1;stroke-miterlimit:4;stroke-dasharray:none">
    <path
       style="color:#000000;fill:none;fill-opacity:1;stroke:#ff0000;stroke-linecap:butt;stroke-linejoin:miter;stroke-opacity:1;stroke-width:19.6850404;stroke-miterlimit:4;stroke-dasharray:none"
       d="M 75985,35039 H 51575"
       id="path4749" />
    <path
       style="color:#000000;fill:none;fill-opacity:1;stroke:#ff0000;stroke-linecap:butt;stroke-linejoin:miter;stroke-opacity:1;stroke-width:19.6850404;stroke-miterlimit:4;stroke-dasharray:none"
       d="m 51575,35029.158 a 9.8424997,9.8424997 0 0 0 -9.842,9.842 9.8424997,9.8424997 0 0 0 9.842,9.842 h 24410 a 9.8424997,9.8424997 0 0 0 9.842,-9.842 9.8424997,9.8424997 0 0 0 -9.842,-9.842 z"
       id="path4751" />
  </g>
  <g
     id="path2318"
     style="fill:none;fill-opacity:1;stroke:#00ffff;stroke-width:19.685;stroke-linecap:round;stroke-linejoin:round;stroke-opacity:1">
    <path
       style="color:#000000;fill:none;fill-opacity:1;stroke:#00ffff;stroke-linecap:butt;stroke-linejoin:miter;-inkscape-stroke:none;stroke-opacity:1"
       d="M 53937,37401 H 73622"
       id="path4757" />
    <path
       style="color:#000000;fill:none;fill-opacity:1;stroke:#00ffff;stroke-linecap:butt;stroke-linejoin:miter;-inkscape-stroke:none;stroke-opacity:1"
       d="m 53937,37391.158 a 9.8424997,9.8424997 0 0 0 -9.842,9.842 9.8424997,9.8424997 0 0 0 9.842,9.842 h 19685 a 9.8424997,9.8424997 0 0 0 9.842,-9.842 9.8424997,9.8424997 0 0 0 -9.842,-9.842 z"
       id="path4759" />
  </g>
  <g
     id="path2320"
     style="fill:none;fill-opacity:1;stroke:#00ffff;stroke-width:19.685;stroke-linecap:round;stroke-linejoin:round;stroke-opacity:1">
    <path
       style="color:#000000;fill:none;fill-opacity:1;stroke:#00ffff;stroke-linecap:butt;stroke-linejoin:miter;-inkscape-stroke:none;stroke-opacity:1"
       d="M 53937,53149 V 37401"
       id="path4765" />
    <path
       style="color:#000000;fill:none;fill-opacity:1;stroke:#00ffff;stroke-linecap:butt;stroke-linejoin:miter;-inkscape-stroke:none;stroke-opacity:1"
       d="m 53937,37391.158 a 9.8424997,9.8424997 0 0 0 -9.842,9.842 v 15748 a 9.8424997,9.8424997 0 0 0 9.842,9.842 9.8424997,9.8424997 0 0 0 9.842,-9.842 V 37401 a 9.8424997,9.8424997 0 0 0 -9.842,-9.842 z"
       id="path4767" />
  </g>
  <g
     id="path2322"
     style="fill:none;fill-opacity:1;stroke:#00ffff;stroke-width:19.685;stroke-linecap:round;stroke-linejoin:round;stroke-opacity:1">
    <path
       style="color:#000000;fill:none;fill-opacity:1;stroke:#00ffff;stroke-linecap:butt;stroke-linejoin:miter;-inkscape-stroke:none;stroke-opacity:1"
       d="M 73622,53149 H 53937"
       id="path4773" />
    <path
       style="color:#000000;fill:none;fill-opacity:1;stroke:#00ffff;stroke-linecap:butt;stroke-linejoin:miter;-inkscape-stroke:none;stroke-opacity:1"
       d="m 53937,53139.158 a 9.8424997,9.8424997 0 0 0 -9.842,9.842 9.8424997,9.8424997 0 0 0 9.842,9.842 h 19685 a 9.8424997,9.8424997 0 0 0 9.842,-9.842 9.8424997,9.8424997 0 0 0 -9.842,-9.842 z"
       id="path4775" />
  </g>
  <g
     id="path2324"
     style="fill:none;fill-opacity:1;stroke:#00ffff;stroke-width:19.685;stroke-linecap:round;stroke-linejoin:round;stroke-opacity:1">
    <path
       style="color:#000000;fill:none;fill-opacity:1;stroke:#00ffff;stroke-linecap:butt;stroke-linejoin:miter;-inkscape-stroke:none;stroke-opacity:1"
       d="M 73622,37401 V 53149"
       id="path4781" />
    <path
       style="color:#000000;fill:none;fill-opacity:1;stroke:#00ffff;stroke-linecap:butt;stroke-linejoin:miter;-inkscape-stroke:none;stroke-opacity:1"
       d="m 73622,37391.158 a 9.8424997,9.8424997 0 0 0 -9.842,9.842 v 15748 a 9.8424997,9.8424997 0 0 0 9.842,9.842 9.8424997,9.8424997 0 0 0 9.842,-9.842 V 37401 a 9.8424997,9.8424997 0 0 0 -9.842,-9.842 z"
       id="path4783" />
  </g>
  <g
     id="g2326"
     style="fill:#00ff00;fill-opacity:1;stroke:#000000;stroke-width:19.685;stroke-linecap:round;stroke-linejoin:round" />
  <g
     style="fill:#00ff00;fill-opacity:1;stroke:#000000;stroke-width:0;stroke-linecap:round;stroke-linejoin:round"
     id="g2328" />
  <g
     style="fill:#00ff00;fill-opacity:1;stroke:#000000;stroke-width:0;stroke-linecap:round;stroke-linejoin:round"
     id="g2334">
    <g
       id="path2330"
       style="fill:#00ff00;fill-opacity:1">
      <path
         style="color:#000000;fill:#00ff00;fill-opacity:1;fill-rule:evenodd;stroke:none;-inkscape-stroke:none"
         d="m 68988.9,45724.9 -9.6,1.4 -9.4,2.3 -9.1,3.3 -8.7,4.1 -8.3,5 -7.7,5.8 -7.2,6.4 -6.5,7.2 -5.7,7.8 -5,8.2 -4.1,8.8 -3.3,9.1 -2.3,9.3 -1.4,9.6 -0.5,9.6 v 354.4 l 0.5,9.6 1.4,9.6 2.3,9.3 3.3,9.1 4.1,8.8 5,8.2 5.7,7.8 6.5,7.2 7.2,6.4 7.7,5.8 8.3,5 8.7,4.1 9.1,3.3 9.4,2.3 9.6,1.4 9.6,0.5 h 275.6 l 9.6,-0.5 9.6,-1.4 9.4,-2.3 9.1,-3.3 8.7,-4.1 8.3,-5 7.7,-5.8 7.2,-6.4 6.5,-7.2 5.7,-7.8 5,-8.2 4.1,-8.8 3.3,-9.1 2.3,-9.3 1.4,-9.6 0.5,-9.6 v -354.4 l -0.5,-9.6 -1.4,-9.6 -2.3,-9.3 -3.3,-9.1 -4.1,-8.8 -5,-8.2 -5.7,-7.8 -6.5,-7.2 -7.2,-6.4 -7.7,-5.8 -8.3,-5 -8.7,-4.1 -9.1,-3.3 -9.4,-2.3 -9.6,-1.4 -9.6,-0.5 h -275.6 z"
         id="path4789" />
      <path
         style="color:#000000;fill:#00ff00;fill-opacity:1;fill-rule:evenodd;stroke:none;-inkscape-stroke:none"
         d="m 68988.9,45724.9 -9.6,1.4 -9.4,2.3 -9.1,3.3 -8.7,4.1 -8.3,5 -7.7,5.8 -7.2,6.4 -6.5,7.2 -5.7,7.8 -5,8.2 -4.1,8.8 -3.3,9.1 -2.3,9.3 -1.4,9.6 -0.5,9.6 v 354.4 l 0.5,9.6 1.4,9.6 2.3,9.3 3.3,9.1 4.1,8.8 5,8.2 5.7,7.8 6.5,7.2 7.2,6.4 7.7,5.8 8.3,5 8.7,4.1 9.1,3.3 9.4,2.3 9.6,1.4 9.6,0.5 h 275.6 l 9.6,-0.5 9.6,-1.4 9.4,-2.3 9.1,-3.3 8.7,-4.1 8.3,-5 7.7,-5.8 7.2,-6.4 6.5,-7.2 5.7,-7.8 5,-8.2 4.1,-8.8 3.3,-9.1 2.3,-9.3 1.4,-9.6 0.5,-9.6 v -354.4 l -0.5,-9.6 -1.4,-9.6 -2.3,-9.3 -3.3,-9.1 -4.1,-8.8 -5,-8.2 -5.7,-7.8 -6.5,-7.2 -7.2,-6.4 -7.7,-5.8 -8.3,-5 -8.7,-4.1 -9.1,-3.3 -9.4,-2.3 -9.6,-1.4 -9.6,-0.5 h -275.6 z"
         id="path4791" />
    </g>
    <g
       id="path2332"
       style="fill:#00ff00;fill-opacity:1">
      <path
         style="color:#000000;fill:#00ff00;fill-opacity:1;fill-rule:evenodd;stroke:none;-inkscape-stroke:none"
         d="m 69776.3,45724.9 -9.6,1.4 -9.4,2.3 -9.1,3.3 -8.7,4.1 -8.3,5 -7.7,5.8 -7.2,6.4 -6.5,7.2 -5.7,7.8 -5,8.2 -4.1,8.8 -3.3,9.1 -2.3,9.3 -1.4,9.6 -0.5,9.6 v 354.4 l 0.5,9.6 1.4,9.6 2.3,9.3 3.3,9.1 4.1,8.8 5,8.2 5.7,7.8 6.5,7.2 7.2,6.4 7.7,5.8 8.3,5 8.7,4.1 9.1,3.3 9.4,2.3 9.6,1.4 9.6,0.5 h 275.6 l 9.6,-0.5 9.6,-1.4 9.4,-2.3 9.1,-3.3 8.7,-4.1 8.3,-5 7.7,-5.8 7.2,-6.4 6.5,-7.2 5.7,-7.8 5,-8.2 4.1,-8.8 3.3,-9.1 2.3,-9.3 1.4,-9.6 0.5,-9.6 v -354.4 l -0.5,-9.6 -1.4,-9.6 -2.3,-9.3 -3.3,-9.1 -4.1,-8.8 -5,-8.2 -5.7,-7.8 -6.5,-7.2 -7.2,-6.4 -7.7,-5.8 -8.3,-5 -8.7,-4.1 -9.1,-3.3 -9.4,-2.3 -9.6,-1.4 -9.6,-0.5 h -275.6 z"
         id="path4797" />
      <path
         style="color:#000000;fill:#00ff00;fill-opacity:1;fill-rule:evenodd;stroke:none;-inkscape-stroke:none"
         d="m 69776.3,45724.9 -9.6,1.4 -9.4,2.3 -9.1,3.3 -8.7,4.1 -8.3,5 -7.7,5.8 -7.2,6.4 -6.5,7.2 -5.7,7.8 -5,8.2 -4.1,8.8 -3.3,9.1 -2.3,9.3 -1.4,9.6 -0.5,9.6 v 354.4 l 0.5,9.6 1.4,9.6 2.3,9.3 3.3,9.1 4.1,8.8 5,8.2 5.7,7.8 6.5,7.2 7.2,6.4 7.7,5.8 8.3,5 8.7,4.1 9.1,3.3 9.4,2.3 9.6,1.4 9.6,0.5 h 275.6 l 9.6,-0.5 9.6,-1.4 9.4,-2.3 9.1,-3.3 8.7,-4.1 8.3,-5 7.7,-5.8 7.2,-6.4 6.5,-7.2 5.7,-7.8 5,-8.2 4.1,-8.8 3.3,-9.1 2.3,-9.3 1.4,-9.6 0.5,-9.6 v -354.4 l -0.5,-9.6 -1.4,-9.6 -2.3,-9.3 -3.3,-9.1 -4.1,-8.8 -5,-8.2 -5.7,-7.8 -6.5,-7.2 -7.2,-6.4 -7.7,-5.8 -8.3,-5 -8.7,-4.1 -9.1,-3.3 -9.4,-2.3 -9.6,-1.4 -9.6,-0.5 h -275.6 z"
         id="path4799" />
    </g>
  </g>
  <g
     id="g2336"
     style="fill:#00ff00;fill-opacity:1;stroke:#000000;stroke-width:19.685;stroke-linecap:round;stroke-linejoin:round" />
  <g
     style="fill:#00ff00;fill-opacity:1;stroke:#000000;stroke-width:0;stroke-linecap:round;stroke-linejoin:round"
     id="g2342">
    <g
       id="path2338"
       style="fill:#00ff00;fill-opacity:1">
      <path
         style="color:#000000;fill:#00ff00;fill-opacity:1;fill-rule:evenodd;stroke:none;-inkscape-stroke:none"
         d="m 62779,43315 -9.5,1.5 -9.4,2.3 -9.1,3.3 -8.7,4.1 -8.3,5 -7.8,5.7 -7.1,6.5 -6.5,7.2 -5.8,7.7 -4.9,8.3 -4.2,8.7 -3.2,9.1 -2.4,9.4 -1.4,9.5 -0.5,9.7 v 374 l 0.5,9.7 1.4,9.5 2.4,9.4 3.2,9.1 4.2,8.7 4.9,8.3 5.8,7.7 6.5,7.2 7.1,6.5 7.8,5.7 8.3,5 8.7,4.1 9.1,3.3 9.4,2.3 9.5,1.5 9.7,0.4 h 265.7 l 9.7,-0.4 9.5,-1.5 9.4,-2.3 9.1,-3.3 8.7,-4.1 8.3,-5 7.7,-5.7 7.2,-6.5 6.5,-7.2 5.7,-7.7 5,-8.3 4.1,-8.7 3.3,-9.1 2.3,-9.4 1.5,-9.5 0.4,-9.7 v -374 l -0.4,-9.7 -1.5,-9.5 -2.3,-9.4 -3.3,-9.1 -4.1,-8.7 -5,-8.3 -5.7,-7.7 -6.5,-7.2 -7.2,-6.5 -7.7,-5.7 -8.3,-5 -8.7,-4.1 -9.1,-3.3 -9.4,-2.3 -9.5,-1.5 -9.7,-0.4 h -265.7 z"
         id="path4805" />
      <path
         style="color:#000000;fill:#00ff00;fill-opacity:1;fill-rule:evenodd;stroke:none;-inkscape-stroke:none"
         d="m 62779,43315 -9.5,1.5 -9.4,2.3 -9.1,3.3 -8.7,4.1 -8.3,5 -7.8,5.7 -7.1,6.5 -6.5,7.2 -5.8,7.7 -4.9,8.3 -4.2,8.7 -3.2,9.1 -2.4,9.4 -1.4,9.5 -0.5,9.7 v 374 l 0.5,9.7 1.4,9.5 2.4,9.4 3.2,9.1 4.2,8.7 4.9,8.3 5.8,7.7 6.5,7.2 7.1,6.5 7.8,5.7 8.3,5 8.7,4.1 9.1,3.3 9.4,2.3 9.5,1.5 9.7,0.4 h 265.7 l 9.7,-0.4 9.5,-1.5 9.4,-2.3 9.1,-3.3 8.7,-4.1 8.3,-5 7.7,-5.7 7.2,-6.5 6.5,-7.2 5.7,-7.7 5,-8.3 4.1,-8.7 3.3,-9.1 2.3,-9.4 1.5,-9.5 0.4,-9.7 v -374 l -0.4,-9.7 -1.5,-9.5 -2.3,-9.4 -3.3,-9.1 -4.1,-8.7 -5,-8.3 -5.7,-7.7 -6.5,-7.2 -7.2,-6.5 -7.7,-5.7 -8.3,-5 -8.7,-4.1 -9.1,-3.3 -9.4,-2.3 -9.5,-1.5 -9.7,-0.4 h -265.7 z"
         id="path4807" />
    </g>
    <g
       id="path2340"
       style="fill:#00ff00;fill-opacity:1">
      <path
         style="color:#000000;fill:#00ff00;fill-opacity:1;fill-rule:evenodd;stroke:none;-inkscape-stroke:none"
         d="m 63595.9,43315 -9.5,1.5 -9.4,2.3 -9.1,3.3 -8.7,4.1 -8.3,5 -7.7,5.7 -7.2,6.5 -6.5,7.2 -5.7,7.7 -5,8.3 -4.1,8.7 -3.3,9.1 -2.3,9.4 -1.5,9.5 -0.4,9.7 v 374 l 0.4,9.7 1.5,9.5 2.3,9.4 3.3,9.1 4.1,8.7 5,8.3 5.7,7.7 6.5,7.2 7.2,6.5 7.7,5.7 8.3,5 8.7,4.1 9.1,3.3 9.4,2.3 9.5,1.5 9.7,0.4 h 265.7 l 9.7,-0.4 9.5,-1.5 9.4,-2.3 9.1,-3.3 8.7,-4.1 8.3,-5 7.8,-5.7 7.1,-6.5 6.5,-7.2 5.8,-7.7 4.9,-8.3 4.2,-8.7 3.2,-9.1 2.4,-9.4 1.4,-9.5 0.5,-9.7 v -374 l -0.5,-9.7 -1.4,-9.5 -2.4,-9.4 -3.2,-9.1 -4.2,-8.7 -4.9,-8.3 -5.8,-7.7 -6.5,-7.2 -7.1,-6.5 -7.8,-5.7 -8.3,-5 -8.7,-4.1 -9.1,-3.3 -9.4,-2.3 -9.5,-1.5 -9.7,-0.4 h -265.7 z"
         id="path4813" />
      <path
         style="color:#000000;fill:#00ff00;fill-opacity:1;fill-rule:evenodd;stroke:none;-inkscape-stroke:none"
         d="m 63595.9,43315 -9.5,1.5 -9.4,2.3 -9.1,3.3 -8.7,4.1 -8.3,5 -7.7,5.7 -7.2,6.5 -6.5,7.2 -5.7,7.7 -5,8.3 -4.1,8.7 -3.3,9.1 -2.3,9.4 -1.5,9.5 -0.4,9.7 v 374 l 0.4,9.7 1.5,9.5 2.3,9.4 3.3,9.1 4.1,8.7 5,8.3 5.7,7.7 6.5,7.2 7.2,6.5 7.7,5.7 8.3,5 8.7,4.1 9.1,3.3 9.4,2.3 9.5,1.5 9.7,0.4 h 265.7 l 9.7,-0.4 9.5,-1.5 9.4,-2.3 9.1,-3.3 8.7,-4.1 8.3,-5 7.8,-5.7 7.1,-6.5 6.5,-7.2 5.8,-7.7 4.9,-8.3 4.2,-8.7 3.2,-9.1 2.4,-9.4 1.4,-9.5 0.5,-9.7 v -374 l -0.5,-9.7 -1.4,-9.5 -2.4,-9.4 -3.2,-9.1 -4.2,-8.7 -4.9,-8.3 -5.8,-7.7 -6.5,-7.2 -7.1,-6.5 -7.8,-5.7 -8.3,-5 -8.7,-4.1 -9.1,-3.3 -9.4,-2.3 -9.5,-1.5 -9.7,-0.4 h -265.7 z"
         id="path4815" />
    </g>
  </g>
  <g
     id="g2344"
     style="fill:#00ff00;fill-opacity:1;stroke:#000000;stroke-width:19.685;stroke-linecap:round;stroke-linejoin:round" />
  <g
     style="fill:#00ff00;fill-opacity:1;stroke:#000000;stroke-width:0;stroke-linecap:round;stroke-linejoin:round"
     id="g2346" />
  <g
     style="fill:#00ff00;fill-opacity:1;stroke:#000000;stroke-width:1377.95;stroke-linecap:round;stroke-linejoin:round"
     id="g2348" />
  <g
     style="fill:#00ff00;fill-opacity:1;stroke:#000000;stroke-width:1377.95;stroke-linecap:round;stroke-linejoin:round"
     id="g2356">
    <g
       id="path2350"
       style="fill:#00ff00;fill-opacity:1">
      <path
         style="color:#000000;fill:#00ff00;fill-opacity:1;stroke:none;stroke-linecap:butt;stroke-linejoin:miter;-inkscape-stroke:none"
         d="m 67683,51501 v -591"
         id="path4821" />
      <path
         style="color:#000000;fill:#00ff00;fill-opacity:1;stroke:none;stroke-linecap:butt;stroke-linejoin:miter;-inkscape-stroke:none"
         d="M 67683,50221.025 A 688.97498,688.97498 0 0 0 66994.025,50910 v 591 A 688.97498,688.97498 0 0 0 67683,52189.975 688.97498,688.97498 0 0 0 68371.975,51501 v -591 A 688.97498,688.97498 0 0 0 67683,50221.025 Z"
         id="path4823" />
    </g>
    <g
       id="path2352"
       style="fill:#00ff00;fill-opacity:1">
      <path
         style="color:#000000;fill:#00ff00;fill-opacity:1;stroke:none;stroke-linecap:butt;stroke-linejoin:miter;-inkscape-stroke:none"
         d="m 65683,51501 v -591"
         id="path4829" />
      <path
         style="color:#000000;fill:#00ff00;fill-opacity:1;stroke:none;stroke-linecap:butt;stroke-linejoin:miter;-inkscape-stroke:none"
         d="M 65683,50221.025 A 688.97498,688.97498 0 0 0 64994.025,50910 v 591 A 688.97498,688.97498 0 0 0 65683,52189.975 688.97498,688.97498 0 0 0 66371.975,51501 v -591 A 688.97498,688.97498 0 0 0 65683,50221.025 Z"
         id="path4831" />
    </g>
    <g
       id="path2354"
       style="fill:#00ff00;fill-opacity:1">
      <path
         style="color:#000000;fill:#00ff00;fill-opacity:1;stroke:none;stroke-linecap:butt;stroke-linejoin:miter;-inkscape-stroke:none"
         d="m 63683,51501 v -591"
         id="path4837" />
      <path
         style="color:#000000;fill:#00ff00;fill-opacity:1;stroke:none;stroke-linecap:butt;stroke-linejoin:miter;-inkscape-stroke:none"
         d="M 63683,50221.025 A 688.97498,688.97498 0 0 0 62994.025,50910 v 591 A 688.97498,688.97498 0 0 0 63683,52189.975 688.97498,688.97498 0 0 0 64371.975,51501 v -591 A 688.97498,688.97498 0 0 0 63683,50221.025 Z"
         id="path4839" />
    </g>
  </g>
  <g
     id="g2358"
     style="fill:#00ff00;fill-opacity:1;stroke:#000000;stroke-width:19.685;stroke-linecap:round;stroke-linejoin:round" />
  <g
     style="fill:#00ff00;fill-opacity:1;stroke:#000000;stroke-width:1377.95;stroke-linecap:round;stroke-linejoin:round"
     id="g2360" />
  <g
     style="fill:#00ff00;fill-opacity:1;stroke:#000000;stroke-width:0;stroke-linecap:round;stroke-linejoin:round"
     id="g2362" />
  <g
     style="fill:#00ff00;fill-opacity:1;stroke:#000000;stroke-width:0;stroke-linecap:round;stroke-linejoin:round"
     id="g2368">
    <g
       id="path2364"
       style="fill:#00ff00;fill-opacity:1">
      <path
         style="color:#000000;fill:#00ff00;fill-opacity:1;fill-rule:evenodd;stroke:none;-inkscape-stroke:none"
         d="m 62882.8,49054.3 h -905.6 v 984.3 h 905.6 z"
         id="path4845" />
      <path
         style="color:#000000;fill:#00ff00;fill-opacity:1;fill-rule:evenodd;stroke:none;-inkscape-stroke:none"
         d="m 62882.8,49054.3 h -905.6 v 984.3 h 905.6 z"
         id="path4847" />
    </g>
    <g
       id="path2366"
       style="fill:#00ff00;fill-opacity:1">
      <path
         style="color:#000000;fill:#00ff00;fill-opacity:1;fill-rule:evenodd;stroke:none;-inkscape-stroke:none"
         d="m 62882.8,47361.4 h -905.6 v 984.3 h 905.6 z"
         id="path4853" />
      <path
         style="color:#000000;fill:#00ff00;fill-opacity:1;fill-rule:evenodd;stroke:none;-inkscape-stroke:none"
         d="m 62882.8,47361.4 h -905.6 v 984.3 h 905.6 z"
         id="path4855" />
    </g>
  </g>
  <g
     id="g2370"
     style="fill:#00ff00;fill-opacity:1;stroke:#000000;stroke-width:19.685;stroke-linecap:round;stroke-linejoin:round" />
  <g
     style="fill:#00ff00;fill-opacity:1;stroke:#000000;stroke-width:0;stroke-linecap:round;stroke-linejoin:round"
     id="g2376">
    <g
       id="path2372"
       style="fill:#00ff00;fill-opacity:1">
      <path
         style="color:#000000;fill:#00ff00;fill-opacity:1;fill-rule:evenodd;stroke:none;-inkscape-stroke:none"
         d="m 60000.1,43197.2 v 905.6 h 984.2 v -905.6 z"
         id="path4861" />
      <path
         style="color:#000000;fill:#00ff00;fill-opacity:1;fill-rule:evenodd;stroke:none;-inkscape-stroke:none"
         d="m 60000.1,43197.2 v 905.6 h 984.2 v -905.6 z"
         id="path4863" />
    </g>
    <g
       id="path2374"
       style="fill:#00ff00;fill-opacity:1">
      <path
         style="color:#000000;fill:#00ff00;fill-opacity:1;fill-rule:evenodd;stroke:none;-inkscape-stroke:none"
         d="m 58307.2,43197.2 v 905.6 h 984.2 v -905.6 z"
         id="path4869" />
      <path
         style="color:#000000;fill:#00ff00;fill-opacity:1;fill-rule:evenodd;stroke:none;-inkscape-stroke:none"
         d="m 58307.2,43197.2 v 905.6 h 984.2 v -905.6 z"
         id="path4871" />
    </g>
  </g>
  <g
     id="g2378"
     style="fill:#00ff00;fill-opacity:1;stroke:#000000;stroke-width:19.685;stroke-linecap:round;stroke-linejoin:round" />
  <g
     style="fill:#00ff00;fill-opacity:1;stroke:#000000;stroke-width:0;stroke-linecap:round;stroke-linejoin:round"
     id="g2380" />
  <g
     style="fill:#00ff00;fill-opacity:1;stroke:#000000;stroke-width:787.402;stroke-linecap:round;stroke-linejoin:round"
     id="g2382" />
  <g
     style="fill:#00ff00;fill-opacity:1;stroke:#000000;stroke-width:787.402;stroke-linecap:round;stroke-linejoin:round"
     id="g2390">
    <g
       id="path2384"
       style="fill:#00ff00;fill-opacity:1">
      <path
         style="color:#000000;fill:#00ff00;fill-opacity:1;stroke:none;stroke-linecap:butt;stroke-linejoin:miter;-inkscape-stroke:none"
         d="m 61336,41840 h 787"
         id="path4877" />
      <path
         style="color:#000000;fill:#00ff00;fill-opacity:1;stroke:none;stroke-linecap:butt;stroke-linejoin:miter;-inkscape-stroke:none"
         d="M 61336,41446.299 A 393.70099,393.70099 0 0 0 60942.299,41840 393.70099,393.70099 0 0 0 61336,42233.701 h 787 A 393.70099,393.70099 0 0 0 62516.701,41840 393.70099,393.70099 0 0 0 62123,41446.299 Z"
         id="path4879" />
    </g>
    <g
       id="path2386"
       style="fill:#00ff00;fill-opacity:1">
      <path
         style="color:#000000;fill:#00ff00;fill-opacity:1;stroke:none;stroke-linecap:butt;stroke-linejoin:miter;-inkscape-stroke:none"
         d="m 61336,40840 h 787"
         id="path4885" />
      <path
         style="color:#000000;fill:#00ff00;fill-opacity:1;stroke:none;stroke-linecap:butt;stroke-linejoin:miter;-inkscape-stroke:none"
         d="M 61336,40446.299 A 393.70099,393.70099 0 0 0 60942.299,40840 393.70099,393.70099 0 0 0 61336,41233.701 h 787 A 393.70099,393.70099 0 0 0 62516.701,40840 393.70099,393.70099 0 0 0 62123,40446.299 Z"
         id="path4887" />
    </g>
    <g
       id="path2388"
       style="fill:#00ff00;fill-opacity:1">
      <path
         style="color:#000000;fill:#00ff00;fill-opacity:1;stroke:none;stroke-linecap:butt;stroke-linejoin:miter;-inkscape-stroke:none"
         d="m 61336,39840 h 787"
         id="path4893" />
      <path
         style="color:#000000;fill:#00ff00;fill-opacity:1;stroke:none;stroke-linecap:butt;stroke-linejoin:miter;-inkscape-stroke:none"
         d="M 61336,39446.299 A 393.70099,393.70099 0 0 0 60942.299,39840 393.70099,393.70099 0 0 0 61336,40233.701 h 787 A 393.70099,393.70099 0 0 0 62516.701,39840 393.70099,393.70099 0 0 0 62123,39446.299 Z"
         id="path4895" />
    </g>
  </g>
  <g
     id="g2392"
     style="fill:#00ff00;fill-opacity:1;stroke:#000000;stroke-width:19.685;stroke-linecap:round;stroke-linejoin:round" />
  <g
     style="fill:#00ff00;fill-opacity:1;stroke:#000000;stroke-width:787.402;stroke-linecap:round;stroke-linejoin:round"
     id="g2394" />
  <g
     style="fill:#00ff00;fill-opacity:1;stroke:#000000;stroke-width:0;stroke-linecap:round;stroke-linejoin:round"
     id="g2396" />
  <g
     style="fill:#00ff00;fill-opacity:1;stroke:#000000;stroke-width:0;stroke-linecap:round;stroke-linejoin:round"
     id="g2414">
    <g
       id="path2398"
       style="fill:#00ff00;fill-opacity:1">
      <path
         style="color:#000000;fill:#00ff00;fill-opacity:1;fill-rule:evenodd;stroke:none;-inkscape-stroke:none"
         d="m 58105.6,42264.6 v -157.5 h -614.2 v 157.5 z"
         id="path4901" />
      <path
         style="color:#000000;fill:#00ff00;fill-opacity:1;fill-rule:evenodd;stroke:none;-inkscape-stroke:none"
         d="m 58105.6,42264.6 v -157.5 h -614.2 v 157.5 z"
         id="path4903" />
    </g>
    <g
       id="path2400"
       style="fill:#00ff00;fill-opacity:1">
      <path
         style="color:#000000;fill:#00ff00;fill-opacity:1;fill-rule:evenodd;stroke:none;-inkscape-stroke:none"
         d="m 58105.6,42008.7 v -157.5 h -614.2 v 157.5 z"
         id="path4909" />
      <path
         style="color:#000000;fill:#00ff00;fill-opacity:1;fill-rule:evenodd;stroke:none;-inkscape-stroke:none"
         d="m 58105.6,42008.7 v -157.5 h -614.2 v 157.5 z"
         id="path4911" />
    </g>
    <g
       id="path2402"
       style="fill:#00ff00;fill-opacity:1">
      <path
         style="color:#000000;fill:#00ff00;fill-opacity:1;fill-rule:evenodd;stroke:none;-inkscape-stroke:none"
         d="m 58105.6,41748.8 v -157.5 h -614.2 v 157.5 z"
         id="path4917" />
      <path
         style="color:#000000;fill:#00ff00;fill-opacity:1;fill-rule:evenodd;stroke:none;-inkscape-stroke:none"
         d="m 58105.6,41748.8 v -157.5 h -614.2 v 157.5 z"
         id="path4919" />
    </g>
    <g
       id="path2404"
       style="fill:#00ff00;fill-opacity:1">
      <path
         style="color:#000000;fill:#00ff00;fill-opacity:1;fill-rule:evenodd;stroke:none;-inkscape-stroke:none"
         d="m 58105.6,41492.9 v -157.5 h -614.2 v 157.5 z"
         id="path4925" />
      <path
         style="color:#000000;fill:#00ff00;fill-opacity:1;fill-rule:evenodd;stroke:none;-inkscape-stroke:none"
         d="m 58105.6,41492.9 v -157.5 h -614.2 v 157.5 z"
         id="path4927" />
    </g>
    <g
       id="path2406"
       style="fill:#00ff00;fill-opacity:1">
      <path
         style="color:#000000;fill:#00ff00;fill-opacity:1;fill-rule:evenodd;stroke:none;-inkscape-stroke:none"
         d="m 59168.6,41492.9 v -157.5 h -614.2 v 157.5 z"
         id="path4933" />
      <path
         style="color:#000000;fill:#00ff00;fill-opacity:1;fill-rule:evenodd;stroke:none;-inkscape-stroke:none"
         d="m 59168.6,41492.9 v -157.5 h -614.2 v 157.5 z"
         id="path4935" />
    </g>
    <g
       id="path2408"
       style="fill:#00ff00;fill-opacity:1">
      <path
         style="color:#000000;fill:#00ff00;fill-opacity:1;fill-rule:evenodd;stroke:none;-inkscape-stroke:none"
         d="m 59168.6,41748.8 v -157.5 h -614.2 v 157.5 z"
         id="path4941" />
      <path
         style="color:#000000;fill:#00ff00;fill-opacity:1;fill-rule:evenodd;stroke:none;-inkscape-stroke:none"
         d="m 59168.6,41748.8 v -157.5 h -614.2 v 157.5 z"
         id="path4943" />
    </g>
    <g
       id="path2410"
       style="fill:#00ff00;fill-opacity:1">
      <path
         style="color:#000000;fill:#00ff00;fill-opacity:1;fill-rule:evenodd;stroke:none;-inkscape-stroke:none"
         d="m 59168.6,42008.7 v -157.5 h -614.2 v 157.5 z"
         id="path4949" />
      <path
         style="color:#000000;fill:#00ff00;fill-opacity:1;fill-rule:evenodd;stroke:none;-inkscape-stroke:none"
         d="m 59168.6,42008.7 v -157.5 h -614.2 v 157.5 z"
         id="path4951" />
    </g>
    <g
       id="path2412"
       style="fill:#00ff00;fill-opacity:1">
      <path
         style="color:#000000;fill:#00ff00;fill-opacity:1;fill-rule:evenodd;stroke:none;-inkscape-stroke:none"
         d="m 59168.6,42264.6 v -157.5 h -614.2 v 157.5 z"
         id="path4957" />
      <path
         style="color:#000000;fill:#00ff00;fill-opacity:1;fill-rule:evenodd;stroke:none;-inkscape-stroke:none"
         d="m 59168.6,42264.6 v -157.5 h -614.2 v 157.5 z"
         id="path4959" />
    </g>
  </g>
  <g
     id="g2416"
     style="fill:#00ff00;fill-opacity:1;stroke:#000000;stroke-width:19.685;stroke-linecap:round;stroke-linejoin:round" />
  <g
     style="fill:#00ff00;fill-opacity:1;stroke:#000000;stroke-width:0;stroke-linecap:round;stroke-linejoin:round"
     id="g2422">
    <g
       id="path2418"
       style="fill:#00ff00;fill-opacity:1">
      <path
         style="color:#000000;fill:#00ff00;fill-opacity:1;fill-rule:evenodd;stroke:none;-inkscape-stroke:none"
         d="m 59733.3,41160.7 -9.5,1.4 -9.4,2.4 -9.1,3.2 -8.7,4.2 -8.3,4.9 -7.7,5.8 -7.2,6.5 -6.5,7.1 -5.7,7.8 -5,8.3 -4.1,8.7 -3.3,9.1 -2.3,9.4 -1.5,9.5 -0.4,9.7 v 265.7 l 0.4,9.7 1.5,9.5 2.3,9.4 3.3,9.1 4.1,8.7 5,8.3 5.7,7.7 6.5,7.2 7.2,6.5 7.7,5.7 8.3,5 8.7,4.1 9.1,3.3 9.4,2.3 9.5,1.5 9.7,0.4 h 374 l 9.7,-0.4 9.5,-1.5 9.4,-2.3 9.1,-3.3 8.7,-4.1 8.3,-5 7.7,-5.7 7.2,-6.5 6.5,-7.2 5.7,-7.7 5,-8.3 4.1,-8.7 3.3,-9.1 2.3,-9.4 1.5,-9.5 0.4,-9.7 v -265.7 l -0.4,-9.7 -1.5,-9.5 -2.3,-9.4 -3.3,-9.1 -4.1,-8.7 -5,-8.3 -5.7,-7.8 -6.5,-7.1 -7.2,-6.5 -7.7,-5.8 -8.3,-4.9 -8.7,-4.2 -9.1,-3.2 -9.4,-2.4 -9.5,-1.4 -9.7,-0.5 h -374 z"
         id="path4965" />
      <path
         style="color:#000000;fill:#00ff00;fill-opacity:1;fill-rule:evenodd;stroke:none;-inkscape-stroke:none"
         d="m 59733.3,41160.7 -9.5,1.4 -9.4,2.4 -9.1,3.2 -8.7,4.2 -8.3,4.9 -7.7,5.8 -7.2,6.5 -6.5,7.1 -5.7,7.8 -5,8.3 -4.1,8.7 -3.3,9.1 -2.3,9.4 -1.5,9.5 -0.4,9.7 v 265.7 l 0.4,9.7 1.5,9.5 2.3,9.4 3.3,9.1 4.1,8.7 5,8.3 5.7,7.7 6.5,7.2 7.2,6.5 7.7,5.7 8.3,5 8.7,4.1 9.1,3.3 9.4,2.3 9.5,1.5 9.7,0.4 h 374 l 9.7,-0.4 9.5,-1.5 9.4,-2.3 9.1,-3.3 8.7,-4.1 8.3,-5 7.7,-5.7 7.2,-6.5 6.5,-7.2 5.7,-7.7 5,-8.3 4.1,-8.7 3.3,-9.1 2.3,-9.4 1.5,-9.5 0.4,-9.7 v -265.7 l -0.4,-9.7 -1.5,-9.5 -2.3,-9.4 -3.3,-9.1 -4.1,-8.7 -5,-8.3 -5.7,-7.8 -6.5,-7.1 -7.2,-6.5 -7.7,-5.8 -8.3,-4.9 -8.7,-4.2 -9.1,-3.2 -9.4,-2.4 -9.5,-1.4 -9.7,-0.5 h -374 z"
         id="path4967" />
    </g>
    <g
       id="path2420"
       style="fill:#00ff00;fill-opacity:1">
      <path
         style="color:#000000;fill:#00ff00;fill-opacity:1;fill-rule:evenodd;stroke:none;-inkscape-stroke:none"
         d="m 59733.3,41977.6 -9.5,1.5 -9.4,2.3 -9.1,3.3 -8.7,4.1 -8.3,5 -7.7,5.7 -7.2,6.5 -6.5,7.2 -5.7,7.7 -5,8.3 -4.1,8.7 -3.3,9.1 -2.3,9.4 -1.5,9.5 -0.4,9.7 v 265.7 l 0.4,9.7 1.5,9.5 2.3,9.4 3.3,9.1 4.1,8.7 5,8.3 5.7,7.8 6.5,7.1 7.2,6.5 7.7,5.8 8.3,4.9 8.7,4.2 9.1,3.2 9.4,2.4 9.5,1.4 9.7,0.5 h 374 l 9.7,-0.5 9.5,-1.4 9.4,-2.4 9.1,-3.2 8.7,-4.2 8.3,-4.9 7.7,-5.8 7.2,-6.5 6.5,-7.1 5.7,-7.8 5,-8.3 4.1,-8.7 3.3,-9.1 2.3,-9.4 1.5,-9.5 0.4,-9.7 v -265.7 l -0.4,-9.7 -1.5,-9.5 -2.3,-9.4 -3.3,-9.1 -4.1,-8.7 -5,-8.3 -5.7,-7.7 -6.5,-7.2 -7.2,-6.5 -7.7,-5.7 -8.3,-5 -8.7,-4.1 -9.1,-3.3 -9.4,-2.3 -9.5,-1.5 -9.7,-0.4 h -374 z"
         id="path4973" />
      <path
         style="color:#000000;fill:#00ff00;fill-opacity:1;fill-rule:evenodd;stroke:none;-inkscape-stroke:none"
         d="m 59733.3,41977.6 -9.5,1.5 -9.4,2.3 -9.1,3.3 -8.7,4.1 -8.3,5 -7.7,5.7 -7.2,6.5 -6.5,7.2 -5.7,7.7 -5,8.3 -4.1,8.7 -3.3,9.1 -2.3,9.4 -1.5,9.5 -0.4,9.7 v 265.7 l 0.4,9.7 1.5,9.5 2.3,9.4 3.3,9.1 4.1,8.7 5,8.3 5.7,7.8 6.5,7.1 7.2,6.5 7.7,5.8 8.3,4.9 8.7,4.2 9.1,3.2 9.4,2.4 9.5,1.4 9.7,0.5 h 374 l 9.7,-0.5 9.5,-1.4 9.4,-2.4 9.1,-3.2 8.7,-4.2 8.3,-4.9 7.7,-5.8 7.2,-6.5 6.5,-7.1 5.7,-7.8 5,-8.3 4.1,-8.7 3.3,-9.1 2.3,-9.4 1.5,-9.5 0.4,-9.7 v -265.7 l -0.4,-9.7 -1.5,-9.5 -2.3,-9.4 -3.3,-9.1 -4.1,-8.7 -5,-8.3 -5.7,-7.7 -6.5,-7.2 -7.2,-6.5 -7.7,-5.7 -8.3,-5 -8.7,-4.1 -9.1,-3.3 -9.4,-2.3 -9.5,-1.5 -9.7,-0.4 h -374 z"
         id="path4975" />
    </g>
  </g>
  <g
     id="g2424"
     style="fill:#00ff00;fill-opacity:1;stroke:#000000;stroke-width:19.685;stroke-linecap:round;stroke-linejoin:round" />
  <g
     style="fill:#00ff00;fill-opacity:1;stroke:#000000;stroke-width:0;stroke-linecap:round;stroke-linejoin:round"
     id="g2428">
    <g
       id="circle2426"
       style="fill:#00ff00;fill-opacity:1">
      <path
         style="color:#000000;fill:#00ff00;fill-opacity:1;stroke:none;stroke-linecap:butt;stroke-linejoin:miter;-inkscape-stroke:none"
         d="m 71890.624,39370.102 a 629.92102,629.92102 0 0 1 -629.921,629.921 629.92102,629.92102 0 0 1 -629.921,-629.921 629.92102,629.92102 0 0 1 629.921,-629.921 629.92102,629.92102 0 0 1 629.921,629.921 z"
         id="path4981" />
      <path
         style="color:#000000;fill:#00ff00;fill-opacity:1;stroke:none;stroke-linecap:butt;stroke-linejoin:miter;-inkscape-stroke:none"
         d="m 71890.624,39370.102 c 0,167.065 -66.367,327.288 -184.5,445.421 -118.133,118.133 -278.356,184.5 -445.421,184.5 -167.065,0 -327.288,-66.367 -445.421,-184.5 -118.133,-118.133 -184.5,-278.356 -184.5,-445.421 0,-167.065 66.367,-327.288 184.5,-445.421 118.133,-118.133 278.356,-184.5 445.421,-184.5 167.065,0 327.288,66.367 445.421,184.5 118.133,118.133 184.5,278.356 184.5,445.421 z"
         id="path4983" />
    </g>
  </g>
  <g
     style="fill:#00ff00;fill-opacity:1;stroke:#000000;stroke-width:39.3701;stroke-linecap:round;stroke-linejoin:round"
     id="g2430" />
  <g
     id="g2432"
     style="fill:#00ff00;fill-opacity:1;stroke:#000000;stroke-width:19.685;stroke-linecap:round;stroke-linejoin:round" />
  <g
     style="fill:#00ff00;fill-opacity:1;stroke:#000000;stroke-width:39.3701;stroke-linecap:round;stroke-linejoin:round"
     id="g2434" />
  <g
     style="fill:#00ff00;fill-opacity:1;stroke:#000000;stroke-width:0;stroke-linecap:round;stroke-linejoin:round"
     id="g2440">
    <g
       id="path2436"
       style="fill:#00ff00;fill-opacity:1">
      <path
         style="color:#000000;fill:#00ff00;fill-opacity:1;fill-rule:evenodd;stroke:none;-inkscape-stroke:none"
         d="m 65274.3,38818.6 -9.6,1.4 -9.3,2.3 -9.1,3.3 -8.8,4.1 -8.2,5 -7.8,5.8 -7.2,6.4 -6.4,7.2 -5.8,7.8 -5,8.2 -4.1,8.8 -3.2,9.1 -2.4,9.3 -1.4,9.6 -0.5,9.6 v 315 l 0.5,9.6 1.4,9.6 2.4,9.4 3.2,9.1 4.1,8.7 5,8.3 5.8,7.7 6.4,7.2 7.2,6.5 7.8,5.7 8.2,5 8.8,4.1 9.1,3.3 9.3,2.3 9.6,1.4 9.6,0.5 h 492.2 l 9.6,-0.5 9.6,-1.4 9.3,-2.3 9.1,-3.3 8.8,-4.1 8.2,-5 7.8,-5.7 7.2,-6.5 6.4,-7.2 5.8,-7.7 5,-8.3 4.1,-8.7 3.2,-9.1 2.4,-9.4 1.4,-9.6 0.5,-9.6 v -315 l -0.5,-9.6 -1.4,-9.6 -2.4,-9.3 -3.2,-9.1 -4.1,-8.8 -5,-8.2 -5.8,-7.8 -6.4,-7.2 -7.2,-6.4 -7.8,-5.8 -8.2,-5 -8.8,-4.1 -9.1,-3.3 -9.3,-2.3 -9.6,-1.4 -9.6,-0.5 h -492.2 z"
         id="path4989" />
      <path
         style="color:#000000;fill:#00ff00;fill-opacity:1;fill-rule:evenodd;stroke:none;-inkscape-stroke:none"
         d="m 65274.3,38818.6 -9.6,1.4 -9.3,2.3 -9.1,3.3 -8.8,4.1 -8.2,5 -7.8,5.8 -7.2,6.4 -6.4,7.2 -5.8,7.8 -5,8.2 -4.1,8.8 -3.2,9.1 -2.4,9.3 -1.4,9.6 -0.5,9.6 v 315 l 0.5,9.6 1.4,9.6 2.4,9.4 3.2,9.1 4.1,8.7 5,8.3 5.8,7.7 6.4,7.2 7.2,6.5 7.8,5.7 8.2,5 8.8,4.1 9.1,3.3 9.3,2.3 9.6,1.4 9.6,0.5 h 492.2 l 9.6,-0.5 9.6,-1.4 9.3,-2.3 9.1,-3.3 8.8,-4.1 8.2,-5 7.8,-5.7 7.2,-6.5 6.4,-7.2 5.8,-7.7 5,-8.3 4.1,-8.7 3.2,-9.1 2.4,-9.4 1.4,-9.6 0.5,-9.6 v -315 l -0.5,-9.6 -1.4,-9.6 -2.4,-9.3 -3.2,-9.1 -4.1,-8.8 -5,-8.2 -5.8,-7.8 -6.4,-7.2 -7.2,-6.4 -7.8,-5.8 -8.2,-5 -8.8,-4.1 -9.1,-3.3 -9.3,-2.3 -9.6,-1.4 -9.6,-0.5 h -492.2 z"
         id="path4991" />
    </g>
    <g
       id="path2438"
       style="fill:#00ff00;fill-opacity:1">
      <path
         style="color:#000000;fill:#00ff00;fill-opacity:1;fill-rule:evenodd;stroke:none;-inkscape-stroke:none"
         d="m 65274.3,40039.1 -9.6,1.4 -9.3,2.3 -9.1,3.3 -8.8,4.1 -8.2,5 -7.8,5.7 -7.2,6.5 -6.4,7.2 -5.8,7.7 -5,8.3 -4.1,8.7 -3.2,9.1 -2.4,9.4 -1.4,9.6 -0.5,9.6 v 315 l 0.5,9.6 1.4,9.6 2.4,9.3 3.2,9.1 4.1,8.8 5,8.3 5.8,7.7 6.4,7.2 7.2,6.5 7.8,5.7 8.2,5 8.8,4.1 9.1,3.3 9.3,2.3 9.6,1.4 9.6,0.5 h 492.2 l 9.6,-0.5 9.6,-1.4 9.3,-2.3 9.1,-3.3 8.8,-4.1 8.2,-5 7.8,-5.7 7.2,-6.5 6.4,-7.2 5.8,-7.7 5,-8.3 4.1,-8.8 3.2,-9.1 2.4,-9.3 1.4,-9.6 0.5,-9.6 v -315 l -0.5,-9.6 -1.4,-9.6 -2.4,-9.4 -3.2,-9.1 -4.1,-8.7 -5,-8.3 -5.8,-7.7 -6.4,-7.2 -7.2,-6.5 -7.8,-5.7 -8.2,-5 -8.8,-4.1 -9.1,-3.3 -9.3,-2.3 -9.6,-1.4 -9.6,-0.5 h -492.2 z"
         id="path4997" />
      <path
         style="color:#000000;fill:#00ff00;fill-opacity:1;fill-rule:evenodd;stroke:none;-inkscape-stroke:none"
         d="m 65274.3,40039.1 -9.6,1.4 -9.3,2.3 -9.1,3.3 -8.8,4.1 -8.2,5 -7.8,5.7 -7.2,6.5 -6.4,7.2 -5.8,7.7 -5,8.3 -4.1,8.7 -3.2,9.1 -2.4,9.4 -1.4,9.6 -0.5,9.6 v 315 l 0.5,9.6 1.4,9.6 2.4,9.3 3.2,9.1 4.1,8.8 5,8.3 5.8,7.7 6.4,7.2 7.2,6.5 7.8,5.7 8.2,5 8.8,4.1 9.1,3.3 9.3,2.3 9.6,1.4 9.6,0.5 h 492.2 l 9.6,-0.5 9.6,-1.4 9.3,-2.3 9.1,-3.3 8.8,-4.1 8.2,-5 7.8,-5.7 7.2,-6.5 6.4,-7.2 5.8,-7.7 5,-8.3 4.1,-8.8 3.2,-9.1 2.4,-9.3 1.4,-9.6 0.5,-9.6 v -315 l -0.5,-9.6 -1.4,-9.6 -2.4,-9.4 -3.2,-9.1 -4.1,-8.7 -5,-8.3 -5.8,-7.7 -6.4,-7.2 -7.2,-6.5 -7.8,-5.7 -8.2,-5 -8.8,-4.1 -9.1,-3.3 -9.3,-2.3 -9.6,-1.4 -9.6,-0.5 h -492.2 z"
         id="path4999" />
    </g>
  </g>
  <g
     id="g2442"
     style="fill:#00ff00;fill-opacity:1;stroke:#000000;stroke-width:19.685;stroke-linecap:round;stroke-linejoin:round" />
  <g
     style="fill:#00ff00;fill-opacity:1;stroke:#000000;stroke-width:0;stroke-linecap:round;stroke-linejoin:round"
     id="g2444" />
  <g
     style="fill:#00ff00;fill-opacity:1;stroke:#000000;stroke-width:787.402;stroke-linecap:round;stroke-linejoin:round"
     id="g2446" />
  <g
     style="fill:#00ff00;fill-opacity:1;stroke:#000000;stroke-width:787.402;stroke-linecap:round;stroke-linejoin:round"
     id="g2454">
    <g
       id="path2448"
       style="fill:#00ff00;fill-opacity:1">
      <path
         style="color:#000000;fill:#00ff00;fill-opacity:1;stroke:none;stroke-linecap:butt;stroke-linejoin:miter;-inkscape-stroke:none"
         d="m 71260,46002 h 788"
         id="path5005" />
      <path
         style="color:#000000;fill:#00ff00;fill-opacity:1;stroke:none;stroke-linecap:butt;stroke-linejoin:miter;-inkscape-stroke:none"
         d="M 71260,45608.299 A 393.70099,393.70099 0 0 0 70866.299,46002 393.70099,393.70099 0 0 0 71260,46395.701 h 788 A 393.70099,393.70099 0 0 0 72441.701,46002 393.70099,393.70099 0 0 0 72048,45608.299 Z"
         id="path5007" />
    </g>
    <g
       id="path2450"
       style="fill:#00ff00;fill-opacity:1">
      <path
         style="color:#000000;fill:#00ff00;fill-opacity:1;stroke:none;stroke-linecap:butt;stroke-linejoin:miter;-inkscape-stroke:none"
         d="m 71260,45002 h 788"
         id="path5013" />
      <path
         style="color:#000000;fill:#00ff00;fill-opacity:1;stroke:none;stroke-linecap:butt;stroke-linejoin:miter;-inkscape-stroke:none"
         d="M 71260,44608.299 A 393.70099,393.70099 0 0 0 70866.299,45002 393.70099,393.70099 0 0 0 71260,45395.701 h 788 A 393.70099,393.70099 0 0 0 72441.701,45002 393.70099,393.70099 0 0 0 72048,44608.299 Z"
         id="path5015" />
    </g>
    <g
       id="path2452"
       style="fill:#00ff00;fill-opacity:1">
      <path
         style="color:#000000;fill:#00ff00;fill-opacity:1;stroke:none;stroke-linecap:butt;stroke-linejoin:miter;-inkscape-stroke:none"
         d="m 71260,44002 h 788"
         id="path5021" />
      <path
         style="color:#000000;fill:#00ff00;fill-opacity:1;stroke:none;stroke-linecap:butt;stroke-linejoin:miter;-inkscape-stroke:none"
         d="M 71260,43608.299 A 393.70099,393.70099 0 0 0 70866.299,44002 393.70099,393.70099 0 0 0 71260,44395.701 h 788 A 393.70099,393.70099 0 0 0 72441.701,44002 393.70099,393.70099 0 0 0 72048,43608.299 Z"
         id="path5023" />
    </g>
  </g>
  <g
     id="g2456"
     style="fill:#00ff00;fill-opacity:1;stroke:#000000;stroke-width:19.685;stroke-linecap:round;stroke-linejoin:round" />
  <g
     style="fill:#00ff00;fill-opacity:1;stroke:#000000;stroke-width:787.402;stroke-linecap:round;stroke-linejoin:round"
     id="g2458" />
  <g
     style="fill:#00ff00;fill-opacity:1;stroke:#000000;stroke-width:0;stroke-linecap:round;stroke-linejoin:round"
     id="g2460" />
  <g
     style="fill:#00ff00;fill-opacity:1;stroke:#000000;stroke-width:0;stroke-linecap:round;stroke-linejoin:round"
     id="g2470">
    <g
       id="path2462"
       style="fill:#00ff00;fill-opacity:1">
      <path
         style="color:#000000;fill:#00ff00;fill-opacity:1;fill-rule:evenodd;stroke:none;-inkscape-stroke:none"
         d="m 63596.1,44499.2 v 590.6 h 787.4 v -590.6 z"
         id="path5029" />
      <path
         style="color:#000000;fill:#00ff00;fill-opacity:1;fill-rule:evenodd;stroke:none;-inkscape-stroke:none"
         d="m 63596.1,44499.2 v 590.6 h 787.4 v -590.6 z"
         id="path5031" />
    </g>
    <g
       id="path2464"
       style="fill:#00ff00;fill-opacity:1">
      <path
         style="color:#000000;fill:#00ff00;fill-opacity:1;fill-rule:evenodd;stroke:none;-inkscape-stroke:none"
         d="m 63596.1,46310.2 v 590.6 h 787.4 v -590.6 z"
         id="path5037" />
      <path
         style="color:#000000;fill:#00ff00;fill-opacity:1;fill-rule:evenodd;stroke:none;-inkscape-stroke:none"
         d="m 63596.1,46310.2 v 590.6 h 787.4 v -590.6 z"
         id="path5039" />
    </g>
    <g
       id="path2466"
       style="fill:#00ff00;fill-opacity:1">
      <path
         style="color:#000000;fill:#00ff00;fill-opacity:1;fill-rule:evenodd;stroke:none;-inkscape-stroke:none"
         d="m 63596.1,45404.7 v 590.6 h 787.4 v -590.6 z"
         id="path5045" />
      <path
         style="color:#000000;fill:#00ff00;fill-opacity:1;fill-rule:evenodd;stroke:none;-inkscape-stroke:none"
         d="m 63596.1,45404.7 v 590.6 h 787.4 v -590.6 z"
         id="path5047" />
    </g>
    <g
       id="path2468"
       style="fill:#00ff00;fill-opacity:1">
      <path
         style="color:#000000;fill:#00ff00;fill-opacity:1;fill-rule:evenodd;stroke:none;-inkscape-stroke:none"
         d="m 66076.5,44952 v 1496 h 787.4 v -1496 z"
         id="path5053" />
      <path
         style="color:#000000;fill:#00ff00;fill-opacity:1;fill-rule:evenodd;stroke:none;-inkscape-stroke:none"
         d="m 66076.5,44952 v 1496 h 787.4 v -1496 z"
         id="path5055" />
    </g>
  </g>
  <g
     id="g2472"
     style="fill:#00ff00;fill-opacity:1;stroke:#000000;stroke-width:19.685;stroke-linecap:round;stroke-linejoin:round" />
  <g
     style="fill:#00ff00;fill-opacity:1;stroke:#000000;stroke-width:0;stroke-linecap:round;stroke-linejoin:round"
     id="g2490">
    <g
       id="path2474"
       style="fill:#00ff00;fill-opacity:1">
      <path
         style="color:#000000;fill:#00ff00;fill-opacity:1;fill-rule:evenodd;stroke:none;-inkscape-stroke:none"
         d="m 64625,42616.4 -5.7,0.9 -5.7,1.4 -5.4,1.9 -5.3,2.5 -4.9,3 -4.7,3.4 -4.3,3.9 -3.9,4.3 -3.4,4.7 -3,5 -2.5,5.2 -1.9,5.5 -1.4,5.6 -0.9,5.7 -0.3,5.8 v 118.1 l 0.3,5.8 0.9,5.7 1.4,5.6 1.9,5.5 2.5,5.2 3,5 3.4,4.7 3.9,4.3 4.3,3.9 4.7,3.4 4.9,3 5.3,2.5 5.4,1.9 5.7,1.4 5.7,0.9 5.8,0.3 h 649.6 l 5.8,-0.3 5.7,-0.9 5.6,-1.4 5.5,-1.9 5.2,-2.5 5,-3 4.7,-3.4 4.3,-3.9 3.8,-4.3 3.5,-4.7 3,-5 2.5,-5.2 1.9,-5.5 1.4,-5.6 0.9,-5.7 0.2,-5.8 v -118.1 l -0.2,-5.8 -0.9,-5.7 -1.4,-5.6 -1.9,-5.5 -2.5,-5.2 -3,-5 -3.5,-4.7 -3.8,-4.3 -4.3,-3.9 -4.7,-3.4 -5,-3 -5.2,-2.5 -5.5,-1.9 -5.6,-1.4 -5.7,-0.9 -5.8,-0.3 h -649.6 z"
         id="path5061" />
      <path
         style="color:#000000;fill:#00ff00;fill-opacity:1;fill-rule:evenodd;stroke:none;-inkscape-stroke:none"
         d="m 64625,42616.4 -5.7,0.9 -5.7,1.4 -5.4,1.9 -5.3,2.5 -4.9,3 -4.7,3.4 -4.3,3.9 -3.9,4.3 -3.4,4.7 -3,5 -2.5,5.2 -1.9,5.5 -1.4,5.6 -0.9,5.7 -0.3,5.8 v 118.1 l 0.3,5.8 0.9,5.7 1.4,5.6 1.9,5.5 2.5,5.2 3,5 3.4,4.7 3.9,4.3 4.3,3.9 4.7,3.4 4.9,3 5.3,2.5 5.4,1.9 5.7,1.4 5.7,0.9 5.8,0.3 h 649.6 l 5.8,-0.3 5.7,-0.9 5.6,-1.4 5.5,-1.9 5.2,-2.5 5,-3 4.7,-3.4 4.3,-3.9 3.8,-4.3 3.5,-4.7 3,-5 2.5,-5.2 1.9,-5.5 1.4,-5.6 0.9,-5.7 0.2,-5.8 v -118.1 l -0.2,-5.8 -0.9,-5.7 -1.4,-5.6 -1.9,-5.5 -2.5,-5.2 -3,-5 -3.5,-4.7 -3.8,-4.3 -4.3,-3.9 -4.7,-3.4 -5,-3 -5.2,-2.5 -5.5,-1.9 -5.6,-1.4 -5.7,-0.9 -5.8,-0.3 h -649.6 z"
         id="path5063" />
    </g>
    <g
       id="path2476"
       style="fill:#00ff00;fill-opacity:1">
      <path
         style="color:#000000;fill:#00ff00;fill-opacity:1;fill-rule:evenodd;stroke:none;-inkscape-stroke:none"
         d="m 64625,42116.4 -5.7,0.9 -5.7,1.4 -5.4,1.9 -5.3,2.5 -4.9,3 -4.7,3.4 -4.3,3.9 -3.9,4.3 -3.4,4.7 -3,5 -2.5,5.2 -1.9,5.5 -1.4,5.6 -0.9,5.7 -0.3,5.8 v 118.1 l 0.3,5.8 0.9,5.7 1.4,5.6 1.9,5.5 2.5,5.2 3,5 3.4,4.7 3.9,4.3 4.3,3.9 4.7,3.4 4.9,3 5.3,2.5 5.4,1.9 5.7,1.4 5.7,0.9 5.8,0.3 h 649.6 l 5.8,-0.3 5.7,-0.9 5.6,-1.4 5.5,-1.9 5.2,-2.5 5,-3 4.7,-3.4 4.3,-3.9 3.8,-4.3 3.5,-4.7 3,-5 2.5,-5.2 1.9,-5.5 1.4,-5.6 0.9,-5.7 0.2,-5.8 v -118.1 l -0.2,-5.8 -0.9,-5.7 -1.4,-5.6 -1.9,-5.5 -2.5,-5.2 -3,-5 -3.5,-4.7 -3.8,-4.3 -4.3,-3.9 -4.7,-3.4 -5,-3 -5.2,-2.5 -5.5,-1.9 -5.6,-1.4 -5.7,-0.9 -5.8,-0.3 h -649.6 z"
         id="path5069" />
      <path
         style="color:#000000;fill:#00ff00;fill-opacity:1;fill-rule:evenodd;stroke:none;-inkscape-stroke:none"
         d="m 64625,42116.4 -5.7,0.9 -5.7,1.4 -5.4,1.9 -5.3,2.5 -4.9,3 -4.7,3.4 -4.3,3.9 -3.9,4.3 -3.4,4.7 -3,5 -2.5,5.2 -1.9,5.5 -1.4,5.6 -0.9,5.7 -0.3,5.8 v 118.1 l 0.3,5.8 0.9,5.7 1.4,5.6 1.9,5.5 2.5,5.2 3,5 3.4,4.7 3.9,4.3 4.3,3.9 4.7,3.4 4.9,3 5.3,2.5 5.4,1.9 5.7,1.4 5.7,0.9 5.8,0.3 h 649.6 l 5.8,-0.3 5.7,-0.9 5.6,-1.4 5.5,-1.9 5.2,-2.5 5,-3 4.7,-3.4 4.3,-3.9 3.8,-4.3 3.5,-4.7 3,-5 2.5,-5.2 1.9,-5.5 1.4,-5.6 0.9,-5.7 0.2,-5.8 v -118.1 l -0.2,-5.8 -0.9,-5.7 -1.4,-5.6 -1.9,-5.5 -2.5,-5.2 -3,-5 -3.5,-4.7 -3.8,-4.3 -4.3,-3.9 -4.7,-3.4 -5,-3 -5.2,-2.5 -5.5,-1.9 -5.6,-1.4 -5.7,-0.9 -5.8,-0.3 h -649.6 z"
         id="path5071" />
    </g>
    <g
       id="path2478"
       style="fill:#00ff00;fill-opacity:1">
      <path
         style="color:#000000;fill:#00ff00;fill-opacity:1;fill-rule:evenodd;stroke:none;-inkscape-stroke:none"
         d="m 64625,41616.4 -5.7,0.9 -5.7,1.4 -5.4,1.9 -5.3,2.5 -4.9,3 -4.7,3.4 -4.3,3.9 -3.9,4.3 -3.4,4.7 -3,5 -2.5,5.2 -1.9,5.5 -1.4,5.6 -0.9,5.7 -0.3,5.8 v 118.1 l 0.3,5.8 0.9,5.7 1.4,5.6 1.9,5.5 2.5,5.2 3,5 3.4,4.7 3.9,4.3 4.3,3.9 4.7,3.4 4.9,3 5.3,2.5 5.4,1.9 5.7,1.4 5.7,0.9 5.8,0.3 h 649.6 l 5.8,-0.3 5.7,-0.9 5.6,-1.4 5.5,-1.9 5.2,-2.5 5,-3 4.7,-3.4 4.3,-3.9 3.8,-4.3 3.5,-4.7 3,-5 2.5,-5.2 1.9,-5.5 1.4,-5.6 0.9,-5.7 0.2,-5.8 v -118.1 l -0.2,-5.8 -0.9,-5.7 -1.4,-5.6 -1.9,-5.5 -2.5,-5.2 -3,-5 -3.5,-4.7 -3.8,-4.3 -4.3,-3.9 -4.7,-3.4 -5,-3 -5.2,-2.5 -5.5,-1.9 -5.6,-1.4 -5.7,-0.9 -5.8,-0.3 h -649.6 z"
         id="path5077" />
      <path
         style="color:#000000;fill:#00ff00;fill-opacity:1;fill-rule:evenodd;stroke:none;-inkscape-stroke:none"
         d="m 64625,41616.4 -5.7,0.9 -5.7,1.4 -5.4,1.9 -5.3,2.5 -4.9,3 -4.7,3.4 -4.3,3.9 -3.9,4.3 -3.4,4.7 -3,5 -2.5,5.2 -1.9,5.5 -1.4,5.6 -0.9,5.7 -0.3,5.8 v 118.1 l 0.3,5.8 0.9,5.7 1.4,5.6 1.9,5.5 2.5,5.2 3,5 3.4,4.7 3.9,4.3 4.3,3.9 4.7,3.4 4.9,3 5.3,2.5 5.4,1.9 5.7,1.4 5.7,0.9 5.8,0.3 h 649.6 l 5.8,-0.3 5.7,-0.9 5.6,-1.4 5.5,-1.9 5.2,-2.5 5,-3 4.7,-3.4 4.3,-3.9 3.8,-4.3 3.5,-4.7 3,-5 2.5,-5.2 1.9,-5.5 1.4,-5.6 0.9,-5.7 0.2,-5.8 v -118.1 l -0.2,-5.8 -0.9,-5.7 -1.4,-5.6 -1.9,-5.5 -2.5,-5.2 -3,-5 -3.5,-4.7 -3.8,-4.3 -4.3,-3.9 -4.7,-3.4 -5,-3 -5.2,-2.5 -5.5,-1.9 -5.6,-1.4 -5.7,-0.9 -5.8,-0.3 h -649.6 z"
         id="path5079" />
    </g>
    <g
       id="path2480"
       style="fill:#00ff00;fill-opacity:1">
      <path
         style="color:#000000;fill:#00ff00;fill-opacity:1;fill-rule:evenodd;stroke:none;-inkscape-stroke:none"
         d="m 64625,41116.4 -5.7,0.9 -5.7,1.4 -5.4,1.9 -5.3,2.5 -4.9,3 -4.7,3.4 -4.3,3.9 -3.9,4.3 -3.4,4.7 -3,5 -2.5,5.2 -1.9,5.5 -1.4,5.6 -0.9,5.7 -0.3,5.8 v 118.1 l 0.3,5.8 0.9,5.7 1.4,5.6 1.9,5.5 2.5,5.2 3,5 3.4,4.7 3.9,4.3 4.3,3.9 4.7,3.4 4.9,3 5.3,2.5 5.4,1.9 5.7,1.4 5.7,0.9 5.8,0.3 h 649.6 l 5.8,-0.3 5.7,-0.9 5.6,-1.4 5.5,-1.9 5.2,-2.5 5,-3 4.7,-3.4 4.3,-3.9 3.8,-4.3 3.5,-4.7 3,-5 2.5,-5.2 1.9,-5.5 1.4,-5.6 0.9,-5.7 0.2,-5.8 v -118.1 l -0.2,-5.8 -0.9,-5.7 -1.4,-5.6 -1.9,-5.5 -2.5,-5.2 -3,-5 -3.5,-4.7 -3.8,-4.3 -4.3,-3.9 -4.7,-3.4 -5,-3 -5.2,-2.5 -5.5,-1.9 -5.6,-1.4 -5.7,-0.9 -5.8,-0.3 h -649.6 z"
         id="path5085" />
      <path
         style="color:#000000;fill:#00ff00;fill-opacity:1;fill-rule:evenodd;stroke:none;-inkscape-stroke:none"
         d="m 64625,41116.4 -5.7,0.9 -5.7,1.4 -5.4,1.9 -5.3,2.5 -4.9,3 -4.7,3.4 -4.3,3.9 -3.9,4.3 -3.4,4.7 -3,5 -2.5,5.2 -1.9,5.5 -1.4,5.6 -0.9,5.7 -0.3,5.8 v 118.1 l 0.3,5.8 0.9,5.7 1.4,5.6 1.9,5.5 2.5,5.2 3,5 3.4,4.7 3.9,4.3 4.3,3.9 4.7,3.4 4.9,3 5.3,2.5 5.4,1.9 5.7,1.4 5.7,0.9 5.8,0.3 h 649.6 l 5.8,-0.3 5.7,-0.9 5.6,-1.4 5.5,-1.9 5.2,-2.5 5,-3 4.7,-3.4 4.3,-3.9 3.8,-4.3 3.5,-4.7 3,-5 2.5,-5.2 1.9,-5.5 1.4,-5.6 0.9,-5.7 0.2,-5.8 v -118.1 l -0.2,-5.8 -0.9,-5.7 -1.4,-5.6 -1.9,-5.5 -2.5,-5.2 -3,-5 -3.5,-4.7 -3.8,-4.3 -4.3,-3.9 -4.7,-3.4 -5,-3 -5.2,-2.5 -5.5,-1.9 -5.6,-1.4 -5.7,-0.9 -5.8,-0.3 h -649.6 z"
         id="path5087" />
    </g>
    <g
       id="path2482"
       style="fill:#00ff00;fill-opacity:1">
      <path
         style="color:#000000;fill:#00ff00;fill-opacity:1;fill-rule:evenodd;stroke:none;-inkscape-stroke:none"
         d="m 66573.8,41116.4 -5.7,0.9 -5.6,1.4 -5.5,1.9 -5.2,2.5 -5,3 -4.7,3.4 -4.3,3.9 -3.8,4.3 -3.5,4.7 -3,5 -2.5,5.2 -1.9,5.5 -1.4,5.6 -0.9,5.7 -0.2,5.8 v 118.1 l 0.2,5.8 0.9,5.7 1.4,5.6 1.9,5.5 2.5,5.2 3,5 3.5,4.7 3.8,4.3 4.3,3.9 4.7,3.4 5,3 5.2,2.5 5.5,1.9 5.6,1.4 5.7,0.9 5.8,0.3 h 649.6 l 5.8,-0.3 5.7,-0.9 5.7,-1.4 5.4,-1.9 5.3,-2.5 4.9,-3 4.7,-3.4 4.3,-3.9 3.9,-4.3 3.4,-4.7 3,-5 2.5,-5.2 1.9,-5.5 1.4,-5.6 0.9,-5.7 0.3,-5.8 v -118.1 l -0.3,-5.8 -0.9,-5.7 -1.4,-5.6 -1.9,-5.5 -2.5,-5.2 -3,-5 -3.4,-4.7 -3.9,-4.3 -4.3,-3.9 -4.7,-3.4 -4.9,-3 -5.3,-2.5 -5.4,-1.9 -5.7,-1.4 -5.7,-0.9 -5.8,-0.3 h -649.6 z"
         id="path5093" />
      <path
         style="color:#000000;fill:#00ff00;fill-opacity:1;fill-rule:evenodd;stroke:none;-inkscape-stroke:none"
         d="m 66573.8,41116.4 -5.7,0.9 -5.6,1.4 -5.5,1.9 -5.2,2.5 -5,3 -4.7,3.4 -4.3,3.9 -3.8,4.3 -3.5,4.7 -3,5 -2.5,5.2 -1.9,5.5 -1.4,5.6 -0.9,5.7 -0.2,5.8 v 118.1 l 0.2,5.8 0.9,5.7 1.4,5.6 1.9,5.5 2.5,5.2 3,5 3.5,4.7 3.8,4.3 4.3,3.9 4.7,3.4 5,3 5.2,2.5 5.5,1.9 5.6,1.4 5.7,0.9 5.8,0.3 h 649.6 l 5.8,-0.3 5.7,-0.9 5.7,-1.4 5.4,-1.9 5.3,-2.5 4.9,-3 4.7,-3.4 4.3,-3.9 3.9,-4.3 3.4,-4.7 3,-5 2.5,-5.2 1.9,-5.5 1.4,-5.6 0.9,-5.7 0.3,-5.8 v -118.1 l -0.3,-5.8 -0.9,-5.7 -1.4,-5.6 -1.9,-5.5 -2.5,-5.2 -3,-5 -3.4,-4.7 -3.9,-4.3 -4.3,-3.9 -4.7,-3.4 -4.9,-3 -5.3,-2.5 -5.4,-1.9 -5.7,-1.4 -5.7,-0.9 -5.8,-0.3 h -649.6 z"
         id="path5095" />
    </g>
    <g
       id="path2484"
       style="fill:#00ff00;fill-opacity:1">
      <path
         style="color:#000000;fill:#00ff00;fill-opacity:1;fill-rule:evenodd;stroke:none;-inkscape-stroke:none"
         d="m 66573.8,41616.4 -5.7,0.9 -5.6,1.4 -5.5,1.9 -5.2,2.5 -5,3 -4.7,3.4 -4.3,3.9 -3.8,4.3 -3.5,4.7 -3,5 -2.5,5.2 -1.9,5.5 -1.4,5.6 -0.9,5.7 -0.2,5.8 v 118.1 l 0.2,5.8 0.9,5.7 1.4,5.6 1.9,5.5 2.5,5.2 3,5 3.5,4.7 3.8,4.3 4.3,3.9 4.7,3.4 5,3 5.2,2.5 5.5,1.9 5.6,1.4 5.7,0.9 5.8,0.3 h 649.6 l 5.8,-0.3 5.7,-0.9 5.7,-1.4 5.4,-1.9 5.3,-2.5 4.9,-3 4.7,-3.4 4.3,-3.9 3.9,-4.3 3.4,-4.7 3,-5 2.5,-5.2 1.9,-5.5 1.4,-5.6 0.9,-5.7 0.3,-5.8 v -118.1 l -0.3,-5.8 -0.9,-5.7 -1.4,-5.6 -1.9,-5.5 -2.5,-5.2 -3,-5 -3.4,-4.7 -3.9,-4.3 -4.3,-3.9 -4.7,-3.4 -4.9,-3 -5.3,-2.5 -5.4,-1.9 -5.7,-1.4 -5.7,-0.9 -5.8,-0.3 h -649.6 z"
         id="path5101" />
      <path
         style="color:#000000;fill:#00ff00;fill-opacity:1;fill-rule:evenodd;stroke:none;-inkscape-stroke:none"
         d="m 66573.8,41616.4 -5.7,0.9 -5.6,1.4 -5.5,1.9 -5.2,2.5 -5,3 -4.7,3.4 -4.3,3.9 -3.8,4.3 -3.5,4.7 -3,5 -2.5,5.2 -1.9,5.5 -1.4,5.6 -0.9,5.7 -0.2,5.8 v 118.1 l 0.2,5.8 0.9,5.7 1.4,5.6 1.9,5.5 2.5,5.2 3,5 3.5,4.7 3.8,4.3 4.3,3.9 4.7,3.4 5,3 5.2,2.5 5.5,1.9 5.6,1.4 5.7,0.9 5.8,0.3 h 649.6 l 5.8,-0.3 5.7,-0.9 5.7,-1.4 5.4,-1.9 5.3,-2.5 4.9,-3 4.7,-3.4 4.3,-3.9 3.9,-4.3 3.4,-4.7 3,-5 2.5,-5.2 1.9,-5.5 1.4,-5.6 0.9,-5.7 0.3,-5.8 v -118.1 l -0.3,-5.8 -0.9,-5.7 -1.4,-5.6 -1.9,-5.5 -2.5,-5.2 -3,-5 -3.4,-4.7 -3.9,-4.3 -4.3,-3.9 -4.7,-3.4 -4.9,-3 -5.3,-2.5 -5.4,-1.9 -5.7,-1.4 -5.7,-0.9 -5.8,-0.3 h -649.6 z"
         id="path5103" />
    </g>
    <g
       id="path2486"
       style="fill:#00ff00;fill-opacity:1">
      <path
         style="color:#000000;fill:#00ff00;fill-opacity:1;fill-rule:evenodd;stroke:none;-inkscape-stroke:none"
         d="m 66573.8,42116.4 -5.7,0.9 -5.6,1.4 -5.5,1.9 -5.2,2.5 -5,3 -4.7,3.4 -4.3,3.9 -3.8,4.3 -3.5,4.7 -3,5 -2.5,5.2 -1.9,5.5 -1.4,5.6 -0.9,5.7 -0.2,5.8 v 118.1 l 0.2,5.8 0.9,5.7 1.4,5.6 1.9,5.5 2.5,5.2 3,5 3.5,4.7 3.8,4.3 4.3,3.9 4.7,3.4 5,3 5.2,2.5 5.5,1.9 5.6,1.4 5.7,0.9 5.8,0.3 h 649.6 l 5.8,-0.3 5.7,-0.9 5.7,-1.4 5.4,-1.9 5.3,-2.5 4.9,-3 4.7,-3.4 4.3,-3.9 3.9,-4.3 3.4,-4.7 3,-5 2.5,-5.2 1.9,-5.5 1.4,-5.6 0.9,-5.7 0.3,-5.8 v -118.1 l -0.3,-5.8 -0.9,-5.7 -1.4,-5.6 -1.9,-5.5 -2.5,-5.2 -3,-5 -3.4,-4.7 -3.9,-4.3 -4.3,-3.9 -4.7,-3.4 -4.9,-3 -5.3,-2.5 -5.4,-1.9 -5.7,-1.4 -5.7,-0.9 -5.8,-0.3 h -649.6 z"
         id="path5109" />
      <path
         style="color:#000000;fill:#00ff00;fill-opacity:1;fill-rule:evenodd;stroke:none;-inkscape-stroke:none"
         d="m 66573.8,42116.4 -5.7,0.9 -5.6,1.4 -5.5,1.9 -5.2,2.5 -5,3 -4.7,3.4 -4.3,3.9 -3.8,4.3 -3.5,4.7 -3,5 -2.5,5.2 -1.9,5.5 -1.4,5.6 -0.9,5.7 -0.2,5.8 v 118.1 l 0.2,5.8 0.9,5.7 1.4,5.6 1.9,5.5 2.5,5.2 3,5 3.5,4.7 3.8,4.3 4.3,3.9 4.7,3.4 5,3 5.2,2.5 5.5,1.9 5.6,1.4 5.7,0.9 5.8,0.3 h 649.6 l 5.8,-0.3 5.7,-0.9 5.7,-1.4 5.4,-1.9 5.3,-2.5 4.9,-3 4.7,-3.4 4.3,-3.9 3.9,-4.3 3.4,-4.7 3,-5 2.5,-5.2 1.9,-5.5 1.4,-5.6 0.9,-5.7 0.3,-5.8 v -118.1 l -0.3,-5.8 -0.9,-5.7 -1.4,-5.6 -1.9,-5.5 -2.5,-5.2 -3,-5 -3.4,-4.7 -3.9,-4.3 -4.3,-3.9 -4.7,-3.4 -4.9,-3 -5.3,-2.5 -5.4,-1.9 -5.7,-1.4 -5.7,-0.9 -5.8,-0.3 h -649.6 z"
         id="path5111" />
    </g>
    <g
       id="path2488"
       style="fill:#00ff00;fill-opacity:1">
      <path
         style="color:#000000;fill:#00ff00;fill-opacity:1;fill-rule:evenodd;stroke:none;-inkscape-stroke:none"
         d="m 66573.8,42616.4 -5.7,0.9 -5.6,1.4 -5.5,1.9 -5.2,2.5 -5,3 -4.7,3.4 -4.3,3.9 -3.8,4.3 -3.5,4.7 -3,5 -2.5,5.2 -1.9,5.5 -1.4,5.6 -0.9,5.7 -0.2,5.8 v 118.1 l 0.2,5.8 0.9,5.7 1.4,5.6 1.9,5.5 2.5,5.2 3,5 3.5,4.7 3.8,4.3 4.3,3.9 4.7,3.4 5,3 5.2,2.5 5.5,1.9 5.6,1.4 5.7,0.9 5.8,0.3 h 649.6 l 5.8,-0.3 5.7,-0.9 5.7,-1.4 5.4,-1.9 5.3,-2.5 4.9,-3 4.7,-3.4 4.3,-3.9 3.9,-4.3 3.4,-4.7 3,-5 2.5,-5.2 1.9,-5.5 1.4,-5.6 0.9,-5.7 0.3,-5.8 v -118.1 l -0.3,-5.8 -0.9,-5.7 -1.4,-5.6 -1.9,-5.5 -2.5,-5.2 -3,-5 -3.4,-4.7 -3.9,-4.3 -4.3,-3.9 -4.7,-3.4 -4.9,-3 -5.3,-2.5 -5.4,-1.9 -5.7,-1.4 -5.7,-0.9 -5.8,-0.3 h -649.6 z"
         id="path5117" />
      <path
         style="color:#000000;fill:#00ff00;fill-opacity:1;fill-rule:evenodd;stroke:none;-inkscape-stroke:none"
         d="m 66573.8,42616.4 -5.7,0.9 -5.6,1.4 -5.5,1.9 -5.2,2.5 -5,3 -4.7,3.4 -4.3,3.9 -3.8,4.3 -3.5,4.7 -3,5 -2.5,5.2 -1.9,5.5 -1.4,5.6 -0.9,5.7 -0.2,5.8 v 118.1 l 0.2,5.8 0.9,5.7 1.4,5.6 1.9,5.5 2.5,5.2 3,5 3.5,4.7 3.8,4.3 4.3,3.9 4.7,3.4 5,3 5.2,2.5 5.5,1.9 5.6,1.4 5.7,0.9 5.8,0.3 h 649.6 l 5.8,-0.3 5.7,-0.9 5.7,-1.4 5.4,-1.9 5.3,-2.5 4.9,-3 4.7,-3.4 4.3,-3.9 3.9,-4.3 3.4,-4.7 3,-5 2.5,-5.2 1.9,-5.5 1.4,-5.6 0.9,-5.7 0.3,-5.8 v -118.1 l -0.3,-5.8 -0.9,-5.7 -1.4,-5.6 -1.9,-5.5 -2.5,-5.2 -3,-5 -3.4,-4.7 -3.9,-4.3 -4.3,-3.9 -4.7,-3.4 -4.9,-3 -5.3,-2.5 -5.4,-1.9 -5.7,-1.4 -5.7,-0.9 -5.8,-0.3 h -649.6 z"
         id="path5119" />
    </g>
  </g>
  <g
     id="g2492"
     style="fill:#00ff00;fill-opacity:1;stroke:#000000;stroke-width:19.685;stroke-linecap:round;stroke-linejoin:round" />
  <g
     style="fill:#00ff00;fill-opacity:1;stroke:#000000;stroke-width:0;stroke-linecap:round;stroke-linejoin:round"
     id="g2500">
    <g
       id="path2494"
       style="fill:#00ff00;fill-opacity:1">
      <path
         style="color:#000000;fill:#00ff00;fill-opacity:1;fill-rule:evenodd;stroke:none;-inkscape-stroke:none"
         d="m 68146.5,39526.8 v 314.9 h 354.4 v -314.9 z"
         id="path5125" />
      <path
         style="color:#000000;fill:#00ff00;fill-opacity:1;fill-rule:evenodd;stroke:none;-inkscape-stroke:none"
         d="m 68146.5,39526.8 v 314.9 h 354.4 v -314.9 z"
         id="path5127" />
    </g>
    <g
       id="path2496"
       style="fill:#00ff00;fill-opacity:1">
      <path
         style="color:#000000;fill:#00ff00;fill-opacity:1;fill-rule:evenodd;stroke:none;-inkscape-stroke:none"
         d="m 67359.1,39900.8 v 314.9 h 354.4 v -314.9 z"
         id="path5133" />
      <path
         style="color:#000000;fill:#00ff00;fill-opacity:1;fill-rule:evenodd;stroke:none;-inkscape-stroke:none"
         d="m 67359.1,39900.8 v 314.9 h 354.4 v -314.9 z"
         id="path5135" />
    </g>
    <g
       id="path2498"
       style="fill:#00ff00;fill-opacity:1">
      <path
         style="color:#000000;fill:#00ff00;fill-opacity:1;fill-rule:evenodd;stroke:none;-inkscape-stroke:none"
         d="m 67359.1,39152.8 v 314.9 h 354.4 v -314.9 z"
         id="path5141" />
      <path
         style="color:#000000;fill:#00ff00;fill-opacity:1;fill-rule:evenodd;stroke:none;-inkscape-stroke:none"
         d="m 67359.1,39152.8 v 314.9 h 354.4 v -314.9 z"
         id="path5143" />
    </g>
  </g>
  <g
     id="g2502"
     style="fill:#00ff00;fill-opacity:1;stroke:#000000;stroke-width:19.685;stroke-linecap:round;stroke-linejoin:round" />
  <g
     style="fill:#00ff00;fill-opacity:1;stroke:#000000;stroke-width:0;stroke-linecap:round;stroke-linejoin:round"
     id="g2508">
    <g
       id="path2504"
       style="fill:#00ff00;fill-opacity:1">
      <path
         style="color:#000000;fill:#00ff00;fill-opacity:1;fill-rule:evenodd;stroke:none;-inkscape-stroke:none"
         d="m 70943.2,41470.6 -9.6,1.4 -9.3,2.3 -9.1,3.3 -8.8,4.1 -8.2,5 -7.8,5.7 -7.2,6.5 -6.4,7.2 -5.8,7.7 -5,8.3 -4.1,8.7 -3.3,9.1 -2.3,9.4 -1.4,9.6 -0.5,9.6 v 275.6 l 0.5,9.6 1.4,9.6 2.3,9.4 3.3,9.1 4.1,8.7 5,8.3 5.8,7.7 6.4,7.2 7.2,6.5 7.8,5.7 8.2,5 8.8,4.1 9.1,3.3 9.3,2.3 9.6,1.4 9.6,0.5 h 354.4 l 9.6,-0.5 9.6,-1.4 9.3,-2.3 9.1,-3.3 8.8,-4.1 8.2,-5 7.8,-5.7 7.2,-6.5 6.4,-7.2 5.8,-7.7 5,-8.3 4.1,-8.7 3.3,-9.1 2.3,-9.4 1.4,-9.6 0.5,-9.6 v -275.6 l -0.5,-9.6 -1.4,-9.6 -2.3,-9.4 -3.3,-9.1 -4.1,-8.7 -5,-8.3 -5.8,-7.7 -6.4,-7.2 -7.2,-6.5 -7.8,-5.7 -8.2,-5 -8.8,-4.1 -9.1,-3.3 -9.3,-2.3 -9.6,-1.4 -9.6,-0.5 h -354.4 z"
         id="path5149" />
      <path
         style="color:#000000;fill:#00ff00;fill-opacity:1;fill-rule:evenodd;stroke:none;-inkscape-stroke:none"
         d="m 70943.2,41470.6 -9.6,1.4 -9.3,2.3 -9.1,3.3 -8.8,4.1 -8.2,5 -7.8,5.7 -7.2,6.5 -6.4,7.2 -5.8,7.7 -5,8.3 -4.1,8.7 -3.3,9.1 -2.3,9.4 -1.4,9.6 -0.5,9.6 v 275.6 l 0.5,9.6 1.4,9.6 2.3,9.4 3.3,9.1 4.1,8.7 5,8.3 5.8,7.7 6.4,7.2 7.2,6.5 7.8,5.7 8.2,5 8.8,4.1 9.1,3.3 9.3,2.3 9.6,1.4 9.6,0.5 h 354.4 l 9.6,-0.5 9.6,-1.4 9.3,-2.3 9.1,-3.3 8.8,-4.1 8.2,-5 7.8,-5.7 7.2,-6.5 6.4,-7.2 5.8,-7.7 5,-8.3 4.1,-8.7 3.3,-9.1 2.3,-9.4 1.4,-9.6 0.5,-9.6 v -275.6 l -0.5,-9.6 -1.4,-9.6 -2.3,-9.4 -3.3,-9.1 -4.1,-8.7 -5,-8.3 -5.8,-7.7 -6.4,-7.2 -7.2,-6.5 -7.8,-5.7 -8.2,-5 -8.8,-4.1 -9.1,-3.3 -9.3,-2.3 -9.6,-1.4 -9.6,-0.5 h -354.4 z"
         id="path5151" />
    </g>
    <g
       id="path2506"
       style="fill:#00ff00;fill-opacity:1">
      <path
         style="color:#000000;fill:#00ff00;fill-opacity:1;fill-rule:evenodd;stroke:none;-inkscape-stroke:none"
         d="m 70943.2,42258 -9.6,1.4 -9.3,2.3 -9.1,3.3 -8.8,4.1 -8.2,5 -7.8,5.7 -7.2,6.5 -6.4,7.2 -5.8,7.7 -5,8.3 -4.1,8.7 -3.3,9.1 -2.3,9.4 -1.4,9.6 -0.5,9.6 v 275.6 l 0.5,9.6 1.4,9.6 2.3,9.4 3.3,9.1 4.1,8.7 5,8.3 5.8,7.7 6.4,7.2 7.2,6.5 7.8,5.7 8.2,5 8.8,4.1 9.1,3.3 9.3,2.3 9.6,1.4 9.6,0.5 h 354.4 l 9.6,-0.5 9.6,-1.4 9.3,-2.3 9.1,-3.3 8.8,-4.1 8.2,-5 7.8,-5.7 7.2,-6.5 6.4,-7.2 5.8,-7.7 5,-8.3 4.1,-8.7 3.3,-9.1 2.3,-9.4 1.4,-9.6 0.5,-9.6 v -275.6 l -0.5,-9.6 -1.4,-9.6 -2.3,-9.4 -3.3,-9.1 -4.1,-8.7 -5,-8.3 -5.8,-7.7 -6.4,-7.2 -7.2,-6.5 -7.8,-5.7 -8.2,-5 -8.8,-4.1 -9.1,-3.3 -9.3,-2.3 -9.6,-1.4 -9.6,-0.5 h -354.4 z"
         id="path5157" />
      <path
         style="color:#000000;fill:#00ff00;fill-opacity:1;fill-rule:evenodd;stroke:none;-inkscape-stroke:none"
         d="m 70943.2,42258 -9.6,1.4 -9.3,2.3 -9.1,3.3 -8.8,4.1 -8.2,5 -7.8,5.7 -7.2,6.5 -6.4,7.2 -5.8,7.7 -5,8.3 -4.1,8.7 -3.3,9.1 -2.3,9.4 -1.4,9.6 -0.5,9.6 v 275.6 l 0.5,9.6 1.4,9.6 2.3,9.4 3.3,9.1 4.1,8.7 5,8.3 5.8,7.7 6.4,7.2 7.2,6.5 7.8,5.7 8.2,5 8.8,4.1 9.1,3.3 9.3,2.3 9.6,1.4 9.6,0.5 h 354.4 l 9.6,-0.5 9.6,-1.4 9.3,-2.3 9.1,-3.3 8.8,-4.1 8.2,-5 7.8,-5.7 7.2,-6.5 6.4,-7.2 5.8,-7.7 5,-8.3 4.1,-8.7 3.3,-9.1 2.3,-9.4 1.4,-9.6 0.5,-9.6 v -275.6 l -0.5,-9.6 -1.4,-9.6 -2.3,-9.4 -3.3,-9.1 -4.1,-8.7 -5,-8.3 -5.8,-7.7 -6.4,-7.2 -7.2,-6.5 -7.8,-5.7 -8.2,-5 -8.8,-4.1 -9.1,-3.3 -9.3,-2.3 -9.6,-1.4 -9.6,-0.5 h -354.4 z"
         id="path5159" />
    </g>
  </g>
  <g
     id="g2510"
     style="fill:#00ff00;fill-opacity:1;stroke:#000000;stroke-width:19.685;stroke-linecap:round;stroke-linejoin:round" />
  <g
     style="fill:#00ff00;fill-opacity:1;stroke:#000000;stroke-width:0;stroke-linecap:round;stroke-linejoin:round"
     id="g2516">
    <g
       id="path2512"
       style="fill:#00ff00;fill-opacity:1">
      <path
         style="color:#000000;fill:#00ff00;fill-opacity:1;fill-rule:evenodd;stroke:none;-inkscape-stroke:none"
         d="m 63374.3,40118.6 -9.6,1.4 -9.3,2.3 -9.1,3.3 -8.8,4.1 -8.2,5 -7.8,5.8 -7.2,6.4 -6.4,7.2 -5.8,7.8 -5,8.2 -4.1,8.8 -3.2,9.1 -2.4,9.3 -1.4,9.6 -0.5,9.6 v 315 l 0.5,9.6 1.4,9.6 2.4,9.4 3.2,9.1 4.1,8.7 5,8.3 5.8,7.7 6.4,7.2 7.2,6.5 7.8,5.7 8.2,5 8.8,4.1 9.1,3.3 9.3,2.3 9.6,1.4 9.6,0.5 h 492.2 l 9.6,-0.5 9.6,-1.4 9.3,-2.3 9.1,-3.3 8.8,-4.1 8.2,-5 7.8,-5.7 7.2,-6.5 6.4,-7.2 5.8,-7.7 5,-8.3 4.1,-8.7 3.2,-9.1 2.4,-9.4 1.4,-9.6 0.5,-9.6 v -315 l -0.5,-9.6 -1.4,-9.6 -2.4,-9.3 -3.2,-9.1 -4.1,-8.8 -5,-8.2 -5.8,-7.8 -6.4,-7.2 -7.2,-6.4 -7.8,-5.8 -8.2,-5 -8.8,-4.1 -9.1,-3.3 -9.3,-2.3 -9.6,-1.4 -9.6,-0.5 h -492.2 z"
         id="path5165" />
      <path
         style="color:#000000;fill:#00ff00;fill-opacity:1;fill-rule:evenodd;stroke:none;-inkscape-stroke:none"
         d="m 63374.3,40118.6 -9.6,1.4 -9.3,2.3 -9.1,3.3 -8.8,4.1 -8.2,5 -7.8,5.8 -7.2,6.4 -6.4,7.2 -5.8,7.8 -5,8.2 -4.1,8.8 -3.2,9.1 -2.4,9.3 -1.4,9.6 -0.5,9.6 v 315 l 0.5,9.6 1.4,9.6 2.4,9.4 3.2,9.1 4.1,8.7 5,8.3 5.8,7.7 6.4,7.2 7.2,6.5 7.8,5.7 8.2,5 8.8,4.1 9.1,3.3 9.3,2.3 9.6,1.4 9.6,0.5 h 492.2 l 9.6,-0.5 9.6,-1.4 9.3,-2.3 9.1,-3.3 8.8,-4.1 8.2,-5 7.8,-5.7 7.2,-6.5 6.4,-7.2 5.8,-7.7 5,-8.3 4.1,-8.7 3.2,-9.1 2.4,-9.4 1.4,-9.6 0.5,-9.6 v -315 l -0.5,-9.6 -1.4,-9.6 -2.4,-9.3 -3.2,-9.1 -4.1,-8.8 -5,-8.2 -5.8,-7.8 -6.4,-7.2 -7.2,-6.4 -7.8,-5.8 -8.2,-5 -8.8,-4.1 -9.1,-3.3 -9.3,-2.3 -9.6,-1.4 -9.6,-0.5 h -492.2 z"
         id="path5167" />
    </g>
    <g
       id="path2514"
       style="fill:#00ff00;fill-opacity:1">
      <path
         style="color:#000000;fill:#00ff00;fill-opacity:1;fill-rule:evenodd;stroke:none;-inkscape-stroke:none"
         d="m 63374.3,41339.1 -9.6,1.4 -9.3,2.3 -9.1,3.3 -8.8,4.1 -8.2,5 -7.8,5.7 -7.2,6.5 -6.4,7.2 -5.8,7.7 -5,8.3 -4.1,8.7 -3.2,9.1 -2.4,9.4 -1.4,9.6 -0.5,9.6 v 315 l 0.5,9.6 1.4,9.6 2.4,9.3 3.2,9.1 4.1,8.8 5,8.3 5.8,7.7 6.4,7.2 7.2,6.5 7.8,5.7 8.2,5 8.8,4.1 9.1,3.3 9.3,2.3 9.6,1.4 9.6,0.5 h 492.2 l 9.6,-0.5 9.6,-1.4 9.3,-2.3 9.1,-3.3 8.8,-4.1 8.2,-5 7.8,-5.7 7.2,-6.5 6.4,-7.2 5.8,-7.7 5,-8.3 4.1,-8.8 3.2,-9.1 2.4,-9.3 1.4,-9.6 0.5,-9.6 v -315 l -0.5,-9.6 -1.4,-9.6 -2.4,-9.4 -3.2,-9.1 -4.1,-8.7 -5,-8.3 -5.8,-7.7 -6.4,-7.2 -7.2,-6.5 -7.8,-5.7 -8.2,-5 -8.8,-4.1 -9.1,-3.3 -9.3,-2.3 -9.6,-1.4 -9.6,-0.5 h -492.2 z"
         id="path5173" />
      <path
         style="color:#000000;fill:#00ff00;fill-opacity:1;fill-rule:evenodd;stroke:none;-inkscape-stroke:none"
         d="m 63374.3,41339.1 -9.6,1.4 -9.3,2.3 -9.1,3.3 -8.8,4.1 -8.2,5 -7.8,5.7 -7.2,6.5 -6.4,7.2 -5.8,7.7 -5,8.3 -4.1,8.7 -3.2,9.1 -2.4,9.4 -1.4,9.6 -0.5,9.6 v 315 l 0.5,9.6 1.4,9.6 2.4,9.3 3.2,9.1 4.1,8.8 5,8.3 5.8,7.7 6.4,7.2 7.2,6.5 7.8,5.7 8.2,5 8.8,4.1 9.1,3.3 9.3,2.3 9.6,1.4 9.6,0.5 h 492.2 l 9.6,-0.5 9.6,-1.4 9.3,-2.3 9.1,-3.3 8.8,-4.1 8.2,-5 7.8,-5.7 7.2,-6.5 6.4,-7.2 5.8,-7.7 5,-8.3 4.1,-8.8 3.2,-9.1 2.4,-9.3 1.4,-9.6 0.5,-9.6 v -315 l -0.5,-9.6 -1.4,-9.6 -2.4,-9.4 -3.2,-9.1 -4.1,-8.7 -5,-8.3 -5.8,-7.7 -6.4,-7.2 -7.2,-6.5 -7.8,-5.7 -8.2,-5 -8.8,-4.1 -9.1,-3.3 -9.3,-2.3 -9.6,-1.4 -9.6,-0.5 h -492.2 z"
         id="path5175" />
    </g>
  </g>
  <g
     id="g2518"
     style="fill:#00ff00;fill-opacity:1;stroke:#000000;stroke-width:19.685;stroke-linecap:round;stroke-linejoin:round" />
  <g
     style="fill:#00ff00;fill-opacity:1;stroke:#000000;stroke-width:0;stroke-linecap:round;stroke-linejoin:round"
     id="g2520" />
  <g
     style="fill:#00ff00;fill-opacity:1;stroke:#000000;stroke-width:1338.58;stroke-linecap:round;stroke-linejoin:round"
     id="g2522" />
  <g
     style="fill:#00ff00;fill-opacity:1;stroke:#000000;stroke-width:1338.58;stroke-linecap:round;stroke-linejoin:round"
     id="g2528">
    <g
       id="path2524"
       style="fill:#00ff00;fill-opacity:1">
      <path
         style="color:#000000;fill:#00ff00;fill-opacity:1;stroke:none;stroke-linecap:butt;stroke-linejoin:miter;-inkscape-stroke:none"
         d="m 55015,46234 h 629"
         id="path5181" />
      <path
         style="color:#000000;fill:#00ff00;fill-opacity:1;stroke:none;stroke-linecap:butt;stroke-linejoin:miter;-inkscape-stroke:none"
         d="M 55015,45564.711 A 669.28998,669.28998 0 0 0 54345.711,46234 669.28998,669.28998 0 0 0 55015,46903.289 h 629 A 669.28998,669.28998 0 0 0 56313.289,46234 669.28998,669.28998 0 0 0 55644,45564.711 Z"
         id="path5183" />
    </g>
    <g
       id="path2526"
       style="fill:#00ff00;fill-opacity:1">
      <path
         style="color:#000000;fill:#00ff00;fill-opacity:1;stroke:none;stroke-linecap:butt;stroke-linejoin:miter;-inkscape-stroke:none"
         d="m 55015,44265 h 629"
         id="path5189" />
      <path
         style="color:#000000;fill:#00ff00;fill-opacity:1;stroke:none;stroke-linecap:butt;stroke-linejoin:miter;-inkscape-stroke:none"
         d="M 55015,43595.711 A 669.28998,669.28998 0 0 0 54345.711,44265 669.28998,669.28998 0 0 0 55015,44934.289 h 629 A 669.28998,669.28998 0 0 0 56313.289,44265 669.28998,669.28998 0 0 0 55644,43595.711 Z"
         id="path5191" />
    </g>
  </g>
  <g
     id="g2530"
     style="fill:#00ff00;fill-opacity:1;stroke:#000000;stroke-width:19.685;stroke-linecap:round;stroke-linejoin:round" />
  <g
     style="fill:#00ff00;fill-opacity:1;stroke:#000000;stroke-width:1338.58;stroke-linecap:round;stroke-linejoin:round"
     id="g2536">
    <g
       id="path2532"
       style="fill:#00ff00;fill-opacity:1">
      <path
         style="color:#000000;fill:#00ff00;fill-opacity:1;stroke:none;stroke-linecap:butt;stroke-linejoin:miter;-inkscape-stroke:none"
         d="m 61320,51520 v -630"
         id="path5197" />
      <path
         style="color:#000000;fill:#00ff00;fill-opacity:1;stroke:none;stroke-linecap:butt;stroke-linejoin:miter;-inkscape-stroke:none"
         d="M 61320,50220.711 A 669.28998,669.28998 0 0 0 60650.711,50890 v 630 A 669.28998,669.28998 0 0 0 61320,52189.289 669.28998,669.28998 0 0 0 61989.289,51520 v -630 A 669.28998,669.28998 0 0 0 61320,50220.711 Z"
         id="path5199" />
    </g>
    <g
       id="path2534"
       style="fill:#00ff00;fill-opacity:1">
      <path
         style="color:#000000;fill:#00ff00;fill-opacity:1;stroke:none;stroke-linecap:butt;stroke-linejoin:miter;-inkscape-stroke:none"
         d="m 59352,51520 v -630"
         id="path5205" />
      <path
         style="color:#000000;fill:#00ff00;fill-opacity:1;stroke:none;stroke-linecap:butt;stroke-linejoin:miter;-inkscape-stroke:none"
         d="M 59352,50220.711 A 669.28998,669.28998 0 0 0 58682.711,50890 v 630 A 669.28998,669.28998 0 0 0 59352,52189.289 669.28998,669.28998 0 0 0 60021.289,51520 v -630 A 669.28998,669.28998 0 0 0 59352,50220.711 Z"
         id="path5207" />
    </g>
  </g>
  <g
     id="g2538"
     style="fill:#00ff00;fill-opacity:1;stroke:#000000;stroke-width:19.685;stroke-linecap:round;stroke-linejoin:round" />
  <g
     style="fill:#00ff00;fill-opacity:1;stroke:#000000;stroke-width:1338.58;stroke-linecap:round;stroke-linejoin:round"
     id="g2540" />
  <g
     style="fill:#00ff00;fill-opacity:1;stroke:#000000;stroke-width:0;stroke-linecap:round;stroke-linejoin:round"
     id="g2544">
    <g
       id="circle2542"
       style="fill:#00ff00;fill-opacity:1">
      <path
         style="color:#000000;fill:#00ff00;fill-opacity:1;stroke:none;stroke-linecap:butt;stroke-linejoin:miter;-inkscape-stroke:none"
         d="m 71890.624,51181.102 a 629.92102,629.92102 0 0 1 -629.921,629.921 629.92102,629.92102 0 0 1 -629.921,-629.921 629.92102,629.92102 0 0 1 629.921,-629.921 629.92102,629.92102 0 0 1 629.921,629.921 z"
         id="path5213" />
      <path
         style="color:#000000;fill:#00ff00;fill-opacity:1;stroke:none;stroke-linecap:butt;stroke-linejoin:miter;-inkscape-stroke:none"
         d="m 71890.624,51181.102 c 0,167.065 -66.367,327.288 -184.5,445.421 -118.133,118.133 -278.356,184.5 -445.421,184.5 -167.065,0 -327.288,-66.367 -445.421,-184.5 -118.133,-118.133 -184.5,-278.356 -184.5,-445.421 0,-167.065 66.367,-327.288 184.5,-445.421 118.133,-118.133 278.356,-184.5 445.421,-184.5 167.065,0 327.288,66.367 445.421,184.5 118.133,118.133 184.5,278.356 184.5,445.421 z"
         id="path5215" />
    </g>
  </g>
  <g
     style="fill:#00ff00;fill-opacity:1;stroke:#000000;stroke-width:39.3701;stroke-linecap:round;stroke-linejoin:round"
     id="g2546" />
  <g
     id="g2548"
     style="fill:#00ff00;fill-opacity:1;stroke:#000000;stroke-width:19.685;stroke-linecap:round;stroke-linejoin:round" />
  <g
     style="fill:#00ff00;fill-opacity:1;stroke:#000000;stroke-width:39.3701;stroke-linecap:round;stroke-linejoin:round"
     id="g2550" />
  <g
     style="fill:#00ff00;fill-opacity:1;stroke:#000000;stroke-width:0;stroke-linecap:round;stroke-linejoin:round"
     id="g2554">
    <g
       id="circle2552"
       style="fill:#00ff00;fill-opacity:1">
      <path
         style="color:#000000;fill:#00ff00;fill-opacity:1;stroke:none;stroke-linecap:butt;stroke-linejoin:miter;-inkscape-stroke:none"
         d="m 56930.023,39370.102 a 629.92102,629.92102 0 0 1 -629.921,629.921 629.92102,629.92102 0 0 1 -629.921,-629.921 629.92102,629.92102 0 0 1 629.921,-629.921 629.92102,629.92102 0 0 1 629.921,629.921 z"
         id="path5221" />
      <path
         style="color:#000000;fill:#00ff00;fill-opacity:1;stroke:none;stroke-linecap:butt;stroke-linejoin:miter;-inkscape-stroke:none"
         d="m 56930.023,39370.102 c 0,167.065 -66.367,327.288 -184.5,445.421 -118.133,118.133 -278.356,184.5 -445.421,184.5 -167.065,0 -327.288,-66.367 -445.421,-184.5 -118.133,-118.133 -184.5,-278.356 -184.5,-445.421 0,-167.065 66.367,-327.288 184.5,-445.421 118.133,-118.133 278.356,-184.5 445.421,-184.5 167.065,0 327.288,66.367 445.421,184.5 118.133,118.133 184.5,278.356 184.5,445.421 z"
         id="path5223" />
    </g>
  </g>
  <g
     style="fill:#00ff00;fill-opacity:1;stroke:#000000;stroke-width:39.3701;stroke-linecap:round;stroke-linejoin:round"
     id="g2556" />
  <g
     id="g2558"
     style="fill:#00ff00;fill-opacity:1;stroke:#000000;stroke-width:19.685;stroke-linecap:round;stroke-linejoin:round" />
  <g
     style="fill:#00ff00;fill-opacity:1;stroke:#000000;stroke-width:39.3701;stroke-linecap:round;stroke-linejoin:round"
     id="g2560" />
  <g
     style="fill:#00ff00;fill-opacity:1;stroke:#000000;stroke-width:0;stroke-linecap:round;stroke-linejoin:round"
     id="g2564">
    <g
       id="circle2562"
       style="fill:#00ff00;fill-opacity:1">
      <path
         style="color:#000000;fill:#00ff00;fill-opacity:1;stroke:none;stroke-linecap:butt;stroke-linejoin:miter;-inkscape-stroke:none"
         d="m 56930.023,51181.102 a 629.92102,629.92102 0 0 1 -629.921,629.921 629.92102,629.92102 0 0 1 -629.921,-629.921 629.92102,629.92102 0 0 1 629.921,-629.921 629.92102,629.92102 0 0 1 629.921,629.921 z"
         id="path5229" />
      <path
         style="color:#000000;fill:#00ff00;fill-opacity:1;stroke:none;stroke-linecap:butt;stroke-linejoin:miter;-inkscape-stroke:none"
         d="m 56930.023,51181.102 c 0,167.065 -66.367,327.288 -184.5,445.421 -118.133,118.133 -278.356,184.5 -445.421,184.5 -167.065,0 -327.288,-66.367 -445.421,-184.5 -118.133,-118.133 -184.5,-278.356 -184.5,-445.421 0,-167.065 66.367,-327.288 184.5,-445.421 118.133,-118.133 278.356,-184.5 445.421,-184.5 167.065,0 327.288,66.367 445.421,184.5 118.133,118.133 184.5,278.356 184.5,445.421 z"
         id="path5231" />
    </g>
  </g>
  <g
     style="fill:#00ff00;fill-opacity:1;stroke:#000000;stroke-width:39.3701;stroke-linecap:round;stroke-linejoin:round"
     id="g2566" />
  <g
     id="g2568"
     style="fill:#00ff00;fill-opacity:1;stroke:#000000;stroke-width:19.685;stroke-linecap:round;stroke-linejoin:round" />
  <g
     style="fill:#00ff00;fill-opacity:1;stroke:#000000;stroke-width:39.3701;stroke-linecap:round;stroke-linejoin:round"
     id="g2570" />
  <g
     style="fill:#00ff00;fill-opacity:1;stroke:#000000;stroke-width:0;stroke-linecap:round;stroke-linejoin:round"
     id="g2576">
    <g
       id="path2572"
       style="fill:#00ff00;fill-opacity:1">
      <path
         style="color:#000000;fill:#00ff00;fill-opacity:1;fill-rule:evenodd;stroke:none;-inkscape-stroke:none"
         d="m 56953.9,46813.4 -9.1,1.4 -8.9,2.2 -8.6,3.1 -8.3,3.9 -7.9,4.8 -7.3,5.4 -6.8,6.2 -6.2,6.8 -5.5,7.3 -4.7,7.9 -3.9,8.3 -3.1,8.7 -2.2,8.9 -1.4,9 -0.4,9.2 v 187 l 0.4,9.2 1.4,9 2.2,8.9 3.1,8.7 3.9,8.3 4.7,7.9 5.5,7.3 6.2,6.8 6.8,6.2 7.3,5.4 7.9,4.8 8.3,3.9 8.6,3.1 8.9,2.2 9.1,1.4 9.2,0.4 h 196.8 l 9.2,-0.4 9.1,-1.4 8.9,-2.2 8.6,-3.1 8.3,-3.9 7.9,-4.8 7.3,-5.4 6.8,-6.2 6.2,-6.8 5.5,-7.3 4.7,-7.9 3.9,-8.3 3.1,-8.7 2.2,-8.9 1.4,-9 0.4,-9.2 v -187 l -0.4,-9.2 -1.4,-9 -2.2,-8.9 -3.1,-8.7 -3.9,-8.3 -4.7,-7.9 -5.5,-7.3 -6.2,-6.8 -6.8,-6.2 -7.3,-5.4 -7.9,-4.8 -8.3,-3.9 -8.6,-3.1 -8.9,-2.2 -9.1,-1.4 -9.2,-0.4 h -196.8 z"
         id="path5237" />
      <path
         style="color:#000000;fill:#00ff00;fill-opacity:1;fill-rule:evenodd;stroke:none;-inkscape-stroke:none"
         d="m 56953.9,46813.4 -9.1,1.4 -8.9,2.2 -8.6,3.1 -8.3,3.9 -7.9,4.8 -7.3,5.4 -6.8,6.2 -6.2,6.8 -5.5,7.3 -4.7,7.9 -3.9,8.3 -3.1,8.7 -2.2,8.9 -1.4,9 -0.4,9.2 v 187 l 0.4,9.2 1.4,9 2.2,8.9 3.1,8.7 3.9,8.3 4.7,7.9 5.5,7.3 6.2,6.8 6.8,6.2 7.3,5.4 7.9,4.8 8.3,3.9 8.6,3.1 8.9,2.2 9.1,1.4 9.2,0.4 h 196.8 l 9.2,-0.4 9.1,-1.4 8.9,-2.2 8.6,-3.1 8.3,-3.9 7.9,-4.8 7.3,-5.4 6.8,-6.2 6.2,-6.8 5.5,-7.3 4.7,-7.9 3.9,-8.3 3.1,-8.7 2.2,-8.9 1.4,-9 0.4,-9.2 v -187 l -0.4,-9.2 -1.4,-9 -2.2,-8.9 -3.1,-8.7 -3.9,-8.3 -4.7,-7.9 -5.5,-7.3 -6.2,-6.8 -6.8,-6.2 -7.3,-5.4 -7.9,-4.8 -8.3,-3.9 -8.6,-3.1 -8.9,-2.2 -9.1,-1.4 -9.2,-0.4 h -196.8 z"
         id="path5239" />
    </g>
    <g
       id="path2574"
       style="fill:#00ff00;fill-opacity:1">
      <path
         style="color:#000000;fill:#00ff00;fill-opacity:1;fill-rule:evenodd;stroke:none;-inkscape-stroke:none"
         d="m 57672.4,46813.4 -9.1,1.4 -8.9,2.2 -8.6,3.1 -8.3,3.9 -7.9,4.8 -7.3,5.4 -6.8,6.2 -6.2,6.8 -5.5,7.3 -4.7,7.9 -3.9,8.3 -3.1,8.7 -2.2,8.9 -1.4,9 -0.4,9.2 v 187 l 0.4,9.2 1.4,9 2.2,8.9 3.1,8.7 3.9,8.3 4.7,7.9 5.5,7.3 6.2,6.8 6.8,6.2 7.3,5.4 7.9,4.8 8.3,3.9 8.6,3.1 8.9,2.2 9.1,1.4 9.2,0.4 h 196.8 l 9.2,-0.4 9.1,-1.4 8.9,-2.2 8.6,-3.1 8.3,-3.9 7.9,-4.8 7.3,-5.4 6.8,-6.2 6.2,-6.8 5.5,-7.3 4.7,-7.9 3.9,-8.3 3.1,-8.7 2.2,-8.9 1.4,-9 0.4,-9.2 v -187 l -0.4,-9.2 -1.4,-9 -2.2,-8.9 -3.1,-8.7 -3.9,-8.3 -4.7,-7.9 -5.5,-7.3 -6.2,-6.8 -6.8,-6.2 -7.3,-5.4 -7.9,-4.8 -8.3,-3.9 -8.6,-3.1 -8.9,-2.2 -9.1,-1.4 -9.2,-0.4 h -196.8 z"
         id="path5245" />
      <path
         style="color:#000000;fill:#00ff00;fill-opacity:1;fill-rule:evenodd;stroke:none;-inkscape-stroke:none"
         d="m 57672.4,46813.4 -9.1,1.4 -8.9,2.2 -8.6,3.1 -8.3,3.9 -7.9,4.8 -7.3,5.4 -6.8,6.2 -6.2,6.8 -5.5,7.3 -4.7,7.9 -3.9,8.3 -3.1,8.7 -2.2,8.9 -1.4,9 -0.4,9.2 v 187 l 0.4,9.2 1.4,9 2.2,8.9 3.1,8.7 3.9,8.3 4.7,7.9 5.5,7.3 6.2,6.8 6.8,6.2 7.3,5.4 7.9,4.8 8.3,3.9 8.6,3.1 8.9,2.2 9.1,1.4 9.2,0.4 h 196.8 l 9.2,-0.4 9.1,-1.4 8.9,-2.2 8.6,-3.1 8.3,-3.9 7.9,-4.8 7.3,-5.4 6.8,-6.2 6.2,-6.8 5.5,-7.3 4.7,-7.9 3.9,-8.3 3.1,-8.7 2.2,-8.9 1.4,-9 0.4,-9.2 v -187 l -0.4,-9.2 -1.4,-9 -2.2,-8.9 -3.1,-8.7 -3.9,-8.3 -4.7,-7.9 -5.5,-7.3 -6.2,-6.8 -6.8,-6.2 -7.3,-5.4 -7.9,-4.8 -8.3,-3.9 -8.6,-3.1 -8.9,-2.2 -9.1,-1.4 -9.2,-0.4 h -196.8 z"
         id="path5247" />
    </g>
  </g>
  <g
     id="g2578"
     style="fill:#00ff00;fill-opacity:1;stroke:#000000;stroke-width:19.685;stroke-linecap:round;stroke-linejoin:round" />
  <g
     style="fill:#00ff00;fill-opacity:1;stroke:#000000;stroke-width:0;stroke-linecap:round;stroke-linejoin:round"
     id="g2584">
    <g
       id="path2580"
       style="fill:#00ff00;fill-opacity:1">
      <path
         style="color:#000000;fill:#00ff00;fill-opacity:1;fill-rule:evenodd;stroke:none;-inkscape-stroke:none"
         d="m 56653.9,45063.4 -9.1,1.4 -8.9,2.2 -8.6,3.1 -8.3,3.9 -7.9,4.8 -7.3,5.4 -6.8,6.2 -6.2,6.8 -5.5,7.3 -4.7,7.9 -3.9,8.3 -3.1,8.7 -2.2,8.9 -1.4,9 -0.4,9.2 v 187 l 0.4,9.2 1.4,9 2.2,8.9 3.1,8.7 3.9,8.3 4.7,7.9 5.5,7.3 6.2,6.8 6.8,6.2 7.3,5.4 7.9,4.8 8.3,3.9 8.6,3.1 8.9,2.2 9.1,1.4 9.2,0.4 h 196.8 l 9.2,-0.4 9.1,-1.4 8.9,-2.2 8.6,-3.1 8.3,-3.9 7.9,-4.8 7.3,-5.4 6.8,-6.2 6.2,-6.8 5.5,-7.3 4.7,-7.9 3.9,-8.3 3.1,-8.7 2.2,-8.9 1.4,-9 0.4,-9.2 v -187 l -0.4,-9.2 -1.4,-9 -2.2,-8.9 -3.1,-8.7 -3.9,-8.3 -4.7,-7.9 -5.5,-7.3 -6.2,-6.8 -6.8,-6.2 -7.3,-5.4 -7.9,-4.8 -8.3,-3.9 -8.6,-3.1 -8.9,-2.2 -9.1,-1.4 -9.2,-0.4 h -196.8 z"
         id="path5253" />
      <path
         style="color:#000000;fill:#00ff00;fill-opacity:1;fill-rule:evenodd;stroke:none;-inkscape-stroke:none"
         d="m 56653.9,45063.4 -9.1,1.4 -8.9,2.2 -8.6,3.1 -8.3,3.9 -7.9,4.8 -7.3,5.4 -6.8,6.2 -6.2,6.8 -5.5,7.3 -4.7,7.9 -3.9,8.3 -3.1,8.7 -2.2,8.9 -1.4,9 -0.4,9.2 v 187 l 0.4,9.2 1.4,9 2.2,8.9 3.1,8.7 3.9,8.3 4.7,7.9 5.5,7.3 6.2,6.8 6.8,6.2 7.3,5.4 7.9,4.8 8.3,3.9 8.6,3.1 8.9,2.2 9.1,1.4 9.2,0.4 h 196.8 l 9.2,-0.4 9.1,-1.4 8.9,-2.2 8.6,-3.1 8.3,-3.9 7.9,-4.8 7.3,-5.4 6.8,-6.2 6.2,-6.8 5.5,-7.3 4.7,-7.9 3.9,-8.3 3.1,-8.7 2.2,-8.9 1.4,-9 0.4,-9.2 v -187 l -0.4,-9.2 -1.4,-9 -2.2,-8.9 -3.1,-8.7 -3.9,-8.3 -4.7,-7.9 -5.5,-7.3 -6.2,-6.8 -6.8,-6.2 -7.3,-5.4 -7.9,-4.8 -8.3,-3.9 -8.6,-3.1 -8.9,-2.2 -9.1,-1.4 -9.2,-0.4 h -196.8 z"
         id="path5255" />
    </g>
    <g
       id="path2582"
       style="fill:#00ff00;fill-opacity:1">
      <path
         style="color:#000000;fill:#00ff00;fill-opacity:1;fill-rule:evenodd;stroke:none;-inkscape-stroke:none"
         d="m 57372.4,45063.4 -9.1,1.4 -8.9,2.2 -8.6,3.1 -8.3,3.9 -7.9,4.8 -7.3,5.4 -6.8,6.2 -6.2,6.8 -5.5,7.3 -4.7,7.9 -3.9,8.3 -3.1,8.7 -2.2,8.9 -1.4,9 -0.4,9.2 v 187 l 0.4,9.2 1.4,9 2.2,8.9 3.1,8.7 3.9,8.3 4.7,7.9 5.5,7.3 6.2,6.8 6.8,6.2 7.3,5.4 7.9,4.8 8.3,3.9 8.6,3.1 8.9,2.2 9.1,1.4 9.2,0.4 h 196.8 l 9.2,-0.4 9.1,-1.4 8.9,-2.2 8.6,-3.1 8.3,-3.9 7.9,-4.8 7.3,-5.4 6.8,-6.2 6.2,-6.8 5.5,-7.3 4.7,-7.9 3.9,-8.3 3.1,-8.7 2.2,-8.9 1.4,-9 0.4,-9.2 v -187 l -0.4,-9.2 -1.4,-9 -2.2,-8.9 -3.1,-8.7 -3.9,-8.3 -4.7,-7.9 -5.5,-7.3 -6.2,-6.8 -6.8,-6.2 -7.3,-5.4 -7.9,-4.8 -8.3,-3.9 -8.6,-3.1 -8.9,-2.2 -9.1,-1.4 -9.2,-0.4 h -196.8 z"
         id="path5261" />
      <path
         style="color:#000000;fill:#00ff00;fill-opacity:1;fill-rule:evenodd;stroke:none;-inkscape-stroke:none"
         d="m 57372.4,45063.4 -9.1,1.4 -8.9,2.2 -8.6,3.1 -8.3,3.9 -7.9,4.8 -7.3,5.4 -6.8,6.2 -6.2,6.8 -5.5,7.3 -4.7,7.9 -3.9,8.3 -3.1,8.7 -2.2,8.9 -1.4,9 -0.4,9.2 v 187 l 0.4,9.2 1.4,9 2.2,8.9 3.1,8.7 3.9,8.3 4.7,7.9 5.5,7.3 6.2,6.8 6.8,6.2 7.3,5.4 7.9,4.8 8.3,3.9 8.6,3.1 8.9,2.2 9.1,1.4 9.2,0.4 h 196.8 l 9.2,-0.4 9.1,-1.4 8.9,-2.2 8.6,-3.1 8.3,-3.9 7.9,-4.8 7.3,-5.4 6.8,-6.2 6.2,-6.8 5.5,-7.3 4.7,-7.9 3.9,-8.3 3.1,-8.7 2.2,-8.9 1.4,-9 0.4,-9.2 v -187 l -0.4,-9.2 -1.4,-9 -2.2,-8.9 -3.1,-8.7 -3.9,-8.3 -4.7,-7.9 -5.5,-7.3 -6.2,-6.8 -6.8,-6.2 -7.3,-5.4 -7.9,-4.8 -8.3,-3.9 -8.6,-3.1 -8.9,-2.2 -9.1,-1.4 -9.2,-0.4 h -196.8 z"
         id="path5263" />
    </g>
  </g>
  <g
     id="g2586"
     style="fill:#00ff00;fill-opacity:1;stroke:#000000;stroke-width:19.685;stroke-linecap:round;stroke-linejoin:round" />
  <g
     style="fill:#00ff00;fill-opacity:1;stroke:#000000;stroke-width:0;stroke-linecap:round;stroke-linejoin:round"
     id="g2592">
    <g
       id="path2588"
       style="fill:#00ff00;fill-opacity:1">
      <path
         style="color:#000000;fill:#00ff00;fill-opacity:1;fill-rule:evenodd;stroke:none;-inkscape-stroke:none"
         d="m 60000.1,45147.2 v 905.6 h 984.2 v -905.6 z"
         id="path5269" />
      <path
         style="color:#000000;fill:#00ff00;fill-opacity:1;fill-rule:evenodd;stroke:none;-inkscape-stroke:none"
         d="m 60000.1,45147.2 v 905.6 h 984.2 v -905.6 z"
         id="path5271" />
    </g>
    <g
       id="path2590"
       style="fill:#00ff00;fill-opacity:1">
      <path
         style="color:#000000;fill:#00ff00;fill-opacity:1;fill-rule:evenodd;stroke:none;-inkscape-stroke:none"
         d="m 58307.2,45147.2 v 905.6 h 984.2 v -905.6 z"
         id="path5277" />
      <path
         style="color:#000000;fill:#00ff00;fill-opacity:1;fill-rule:evenodd;stroke:none;-inkscape-stroke:none"
         d="m 58307.2,45147.2 v 905.6 h 984.2 v -905.6 z"
         id="path5279" />
    </g>
  </g>
  <g
     id="g2594"
     style="fill:#00ff00;fill-opacity:1;stroke:#000000;stroke-width:19.685;stroke-linecap:round;stroke-linejoin:round" />
  <g
     style="fill:#00ff00;fill-opacity:1;stroke:#000000;stroke-width:0;stroke-linecap:round;stroke-linejoin:round"
     id="g2600">
    <g
       id="path2596"
       style="fill:#00ff00;fill-opacity:1">
      <path
         style="color:#000000;fill:#00ff00;fill-opacity:1;fill-rule:evenodd;stroke:none;-inkscape-stroke:none"
         d="m 65795.9,43499.3 -9.5,1.4 -9.4,2.4 -9.1,3.2 -8.7,4.1 -8.3,5 -7.7,5.8 -7.2,6.4 -6.5,7.2 -5.7,7.8 -5,8.2 -4.1,8.8 -3.3,9.1 -2.3,9.3 -1.5,9.6 -0.4,9.6 v 374.1 l 0.4,9.6 1.5,9.6 2.3,9.3 3.3,9.1 4.1,8.8 5,8.2 5.7,7.8 6.5,7.2 7.2,6.4 7.7,5.8 8.3,5 8.7,4.1 9.1,3.2 9.4,2.4 9.5,1.4 9.7,0.5 h 265.7 l 9.7,-0.5 9.5,-1.4 9.4,-2.4 9.1,-3.2 8.7,-4.1 8.3,-5 7.8,-5.8 7.1,-6.4 6.5,-7.2 5.8,-7.8 4.9,-8.2 4.2,-8.8 3.2,-9.1 2.4,-9.3 1.4,-9.6 0.5,-9.6 v -374.1 l -0.5,-9.6 -1.4,-9.6 -2.4,-9.3 -3.2,-9.1 -4.2,-8.8 -4.9,-8.2 -5.8,-7.8 -6.5,-7.2 -7.1,-6.4 -7.8,-5.8 -8.3,-5 -8.7,-4.1 -9.1,-3.2 -9.4,-2.4 -9.5,-1.4 -9.7,-0.5 h -265.7 z"
         id="path5285" />
      <path
         style="color:#000000;fill:#00ff00;fill-opacity:1;fill-rule:evenodd;stroke:none;-inkscape-stroke:none"
         d="m 65795.9,43499.3 -9.5,1.4 -9.4,2.4 -9.1,3.2 -8.7,4.1 -8.3,5 -7.7,5.8 -7.2,6.4 -6.5,7.2 -5.7,7.8 -5,8.2 -4.1,8.8 -3.3,9.1 -2.3,9.3 -1.5,9.6 -0.4,9.6 v 374.1 l 0.4,9.6 1.5,9.6 2.3,9.3 3.3,9.1 4.1,8.8 5,8.2 5.7,7.8 6.5,7.2 7.2,6.4 7.7,5.8 8.3,5 8.7,4.1 9.1,3.2 9.4,2.4 9.5,1.4 9.7,0.5 h 265.7 l 9.7,-0.5 9.5,-1.4 9.4,-2.4 9.1,-3.2 8.7,-4.1 8.3,-5 7.8,-5.8 7.1,-6.4 6.5,-7.2 5.8,-7.8 4.9,-8.2 4.2,-8.8 3.2,-9.1 2.4,-9.3 1.4,-9.6 0.5,-9.6 v -374.1 l -0.5,-9.6 -1.4,-9.6 -2.4,-9.3 -3.2,-9.1 -4.2,-8.8 -4.9,-8.2 -5.8,-7.8 -6.5,-7.2 -7.1,-6.4 -7.8,-5.8 -8.3,-5 -8.7,-4.1 -9.1,-3.2 -9.4,-2.4 -9.5,-1.4 -9.7,-0.5 h -265.7 z"
         id="path5287" />
    </g>
    <g
       id="path2598"
       style="fill:#00ff00;fill-opacity:1">
      <path
         style="color:#000000;fill:#00ff00;fill-opacity:1;fill-rule:evenodd;stroke:none;-inkscape-stroke:none"
         d="m 64979,43499.3 -9.5,1.4 -9.4,2.4 -9.1,3.2 -8.7,4.1 -8.3,5 -7.8,5.8 -7.1,6.4 -6.5,7.2 -5.8,7.8 -4.9,8.2 -4.2,8.8 -3.2,9.1 -2.4,9.3 -1.4,9.6 -0.5,9.6 v 374.1 l 0.5,9.6 1.4,9.6 2.4,9.3 3.2,9.1 4.2,8.8 4.9,8.2 5.8,7.8 6.5,7.2 7.1,6.4 7.8,5.8 8.3,5 8.7,4.1 9.1,3.2 9.4,2.4 9.5,1.4 9.7,0.5 h 265.7 l 9.7,-0.5 9.5,-1.4 9.4,-2.4 9.1,-3.2 8.7,-4.1 8.3,-5 7.7,-5.8 7.2,-6.4 6.5,-7.2 5.7,-7.8 5,-8.2 4.1,-8.8 3.3,-9.1 2.3,-9.3 1.5,-9.6 0.4,-9.6 v -374.1 l -0.4,-9.6 -1.5,-9.6 -2.3,-9.3 -3.3,-9.1 -4.1,-8.8 -5,-8.2 -5.7,-7.8 -6.5,-7.2 -7.2,-6.4 -7.7,-5.8 -8.3,-5 -8.7,-4.1 -9.1,-3.2 -9.4,-2.4 -9.5,-1.4 -9.7,-0.5 h -265.7 z"
         id="path5293" />
      <path
         style="color:#000000;fill:#00ff00;fill-opacity:1;fill-rule:evenodd;stroke:none;-inkscape-stroke:none"
         d="m 64979,43499.3 -9.5,1.4 -9.4,2.4 -9.1,3.2 -8.7,4.1 -8.3,5 -7.8,5.8 -7.1,6.4 -6.5,7.2 -5.8,7.8 -4.9,8.2 -4.2,8.8 -3.2,9.1 -2.4,9.3 -1.4,9.6 -0.5,9.6 v 374.1 l 0.5,9.6 1.4,9.6 2.4,9.3 3.2,9.1 4.2,8.8 4.9,8.2 5.8,7.8 6.5,7.2 7.1,6.4 7.8,5.8 8.3,5 8.7,4.1 9.1,3.2 9.4,2.4 9.5,1.4 9.7,0.5 h 265.7 l 9.7,-0.5 9.5,-1.4 9.4,-2.4 9.1,-3.2 8.7,-4.1 8.3,-5 7.7,-5.8 7.2,-6.4 6.5,-7.2 5.7,-7.8 5,-8.2 4.1,-8.8 3.3,-9.1 2.3,-9.3 1.5,-9.6 0.4,-9.6 v -374.1 l -0.4,-9.6 -1.5,-9.6 -2.3,-9.3 -3.3,-9.1 -4.1,-8.8 -5,-8.2 -5.7,-7.8 -6.5,-7.2 -7.2,-6.4 -7.7,-5.8 -8.3,-5 -8.7,-4.1 -9.1,-3.2 -9.4,-2.4 -9.5,-1.4 -9.7,-0.5 h -265.7 z"
         id="path5295" />
    </g>
  </g>
  <g
     id="g2602"
     style="fill:#00ff00;fill-opacity:1;stroke:#000000;stroke-width:19.685;stroke-linecap:round;stroke-linejoin:round" />
  <g
     style="fill:#00ff00;fill-opacity:1;stroke:#000000;stroke-width:0;stroke-linecap:round;stroke-linejoin:round"
     id="g2608">
    <g
       id="path2604"
       style="fill:#00ff00;fill-opacity:1">
      <path
         style="color:#000000;fill:#00ff00;fill-opacity:1;fill-rule:evenodd;stroke:none;-inkscape-stroke:none"
         d="m 68133.3,40945 -9.5,1.4 -9.4,2.3 -9.1,3.3 -8.7,4.1 -8.3,5 -7.7,5.7 -7.2,6.5 -6.5,7.2 -5.7,7.7 -5,8.3 -4.1,8.7 -3.3,9.1 -2.3,9.4 -1.5,9.6 -0.4,9.6 v 265.8 l 0.4,9.6 1.5,9.6 2.3,9.3 3.3,9.1 4.1,8.8 5,8.2 5.7,7.8 6.5,7.2 7.2,6.4 7.7,5.8 8.3,5 8.7,4.1 9.1,3.2 9.4,2.4 9.5,1.4 9.7,0.5 h 374 l 9.7,-0.5 9.5,-1.4 9.4,-2.4 9.1,-3.2 8.7,-4.1 8.3,-5 7.7,-5.8 7.2,-6.4 6.5,-7.2 5.7,-7.8 5,-8.2 4.1,-8.8 3.3,-9.1 2.3,-9.3 1.5,-9.6 0.4,-9.6 v -265.8 l -0.4,-9.6 -1.5,-9.6 -2.3,-9.4 -3.3,-9.1 -4.1,-8.7 -5,-8.3 -5.7,-7.7 -6.5,-7.2 -7.2,-6.5 -7.7,-5.7 -8.3,-5 -8.7,-4.1 -9.1,-3.3 -9.4,-2.3 -9.5,-1.4 -9.7,-0.5 h -374 z"
         id="path5301" />
      <path
         style="color:#000000;fill:#00ff00;fill-opacity:1;fill-rule:evenodd;stroke:none;-inkscape-stroke:none"
         d="m 68133.3,40945 -9.5,1.4 -9.4,2.3 -9.1,3.3 -8.7,4.1 -8.3,5 -7.7,5.7 -7.2,6.5 -6.5,7.2 -5.7,7.7 -5,8.3 -4.1,8.7 -3.3,9.1 -2.3,9.4 -1.5,9.6 -0.4,9.6 v 265.8 l 0.4,9.6 1.5,9.6 2.3,9.3 3.3,9.1 4.1,8.8 5,8.2 5.7,7.8 6.5,7.2 7.2,6.4 7.7,5.8 8.3,5 8.7,4.1 9.1,3.2 9.4,2.4 9.5,1.4 9.7,0.5 h 374 l 9.7,-0.5 9.5,-1.4 9.4,-2.4 9.1,-3.2 8.7,-4.1 8.3,-5 7.7,-5.8 7.2,-6.4 6.5,-7.2 5.7,-7.8 5,-8.2 4.1,-8.8 3.3,-9.1 2.3,-9.3 1.5,-9.6 0.4,-9.6 v -265.8 l -0.4,-9.6 -1.5,-9.6 -2.3,-9.4 -3.3,-9.1 -4.1,-8.7 -5,-8.3 -5.7,-7.7 -6.5,-7.2 -7.2,-6.5 -7.7,-5.7 -8.3,-5 -8.7,-4.1 -9.1,-3.3 -9.4,-2.3 -9.5,-1.4 -9.7,-0.5 h -374 z"
         id="path5303" />
    </g>
    <g
       id="path2606"
       style="fill:#00ff00;fill-opacity:1">
      <path
         style="color:#000000;fill:#00ff00;fill-opacity:1;fill-rule:evenodd;stroke:none;-inkscape-stroke:none"
         d="m 68133.3,41761.9 -9.5,1.4 -9.4,2.4 -9.1,3.2 -8.7,4.1 -8.3,5 -7.7,5.8 -7.2,6.4 -6.5,7.2 -5.7,7.8 -5,8.2 -4.1,8.8 -3.3,9.1 -2.3,9.3 -1.5,9.6 -0.4,9.6 v 265.8 l 0.4,9.6 1.5,9.6 2.3,9.4 3.3,9.1 4.1,8.7 5,8.3 5.7,7.7 6.5,7.2 7.2,6.5 7.7,5.7 8.3,5 8.7,4.1 9.1,3.3 9.4,2.3 9.5,1.4 9.7,0.5 h 374 l 9.7,-0.5 9.5,-1.4 9.4,-2.3 9.1,-3.3 8.7,-4.1 8.3,-5 7.7,-5.7 7.2,-6.5 6.5,-7.2 5.7,-7.7 5,-8.3 4.1,-8.7 3.3,-9.1 2.3,-9.4 1.5,-9.6 0.4,-9.6 v -265.8 l -0.4,-9.6 -1.5,-9.6 -2.3,-9.3 -3.3,-9.1 -4.1,-8.8 -5,-8.2 -5.7,-7.8 -6.5,-7.2 -7.2,-6.4 -7.7,-5.8 -8.3,-5 -8.7,-4.1 -9.1,-3.2 -9.4,-2.4 -9.5,-1.4 -9.7,-0.5 h -374 z"
         id="path5309" />
      <path
         style="color:#000000;fill:#00ff00;fill-opacity:1;fill-rule:evenodd;stroke:none;-inkscape-stroke:none"
         d="m 68133.3,41761.9 -9.5,1.4 -9.4,2.4 -9.1,3.2 -8.7,4.1 -8.3,5 -7.7,5.8 -7.2,6.4 -6.5,7.2 -5.7,7.8 -5,8.2 -4.1,8.8 -3.3,9.1 -2.3,9.3 -1.5,9.6 -0.4,9.6 v 265.8 l 0.4,9.6 1.5,9.6 2.3,9.4 3.3,9.1 4.1,8.7 5,8.3 5.7,7.7 6.5,7.2 7.2,6.5 7.7,5.7 8.3,5 8.7,4.1 9.1,3.3 9.4,2.3 9.5,1.4 9.7,0.5 h 374 l 9.7,-0.5 9.5,-1.4 9.4,-2.3 9.1,-3.3 8.7,-4.1 8.3,-5 7.7,-5.7 7.2,-6.5 6.5,-7.2 5.7,-7.7 5,-8.3 4.1,-8.7 3.3,-9.1 2.3,-9.4 1.5,-9.6 0.4,-9.6 v -265.8 l -0.4,-9.6 -1.5,-9.6 -2.3,-9.3 -3.3,-9.1 -4.1,-8.8 -5,-8.2 -5.7,-7.8 -6.5,-7.2 -7.2,-6.4 -7.7,-5.8 -8.3,-5 -8.7,-4.1 -9.1,-3.2 -9.4,-2.4 -9.5,-1.4 -9.7,-0.5 h -374 z"
         id="path5311" />
    </g>
  </g>
  <g
     id="g2610"
     style="fill:#00ff00;fill-opacity:1;stroke:#000000;stroke-width:19.685;stroke-linecap:round;stroke-linejoin:round" />
  <g
     style="fill:#00ff00;fill-opacity:1;stroke:#000000;stroke-width:0;stroke-linecap:round;stroke-linejoin:round"
     id="g2616">
    <g
       id="path2612"
       style="fill:#00ff00;fill-opacity:1">
      <path
         style="color:#000000;fill:#00ff00;fill-opacity:1;fill-rule:evenodd;stroke:none;-inkscape-stroke:none"
         d="m 61387.3,44724.5 -9.6,1.4 -9.3,2.4 -9.1,3.2 -8.8,4.1 -8.3,5 -7.7,5.8 -7.2,6.4 -6.5,7.2 -5.7,7.8 -5,8.2 -4.1,8.8 -3.3,9.1 -2.3,9.3 -1.4,9.6 -0.5,9.6 v 324.8 l 0.5,9.7 1.4,9.5 2.3,9.4 3.3,9.1 4.1,8.7 5,8.3 5.7,7.8 6.5,7.1 7.2,6.5 7.7,5.8 8.3,4.9 8.8,4.2 9.1,3.2 9.3,2.4 9.6,1.4 9.6,0.5 h 866.2 l 9.6,-0.5 9.6,-1.4 9.3,-2.4 9.1,-3.2 8.8,-4.2 8.3,-4.9 7.7,-5.8 7.2,-6.5 6.5,-7.1 5.7,-7.8 5,-8.3 4.1,-8.7 3.3,-9.1 2.3,-9.4 1.4,-9.5 0.5,-9.7 v -324.8 l -0.5,-9.6 -1.4,-9.6 -2.3,-9.3 -3.3,-9.1 -4.1,-8.8 -5,-8.2 -5.7,-7.8 -6.5,-7.2 -7.2,-6.4 -7.7,-5.8 -8.3,-5 -8.8,-4.1 -9.1,-3.2 -9.3,-2.4 -9.6,-1.4 -9.6,-0.5 h -866.2 z"
         id="path5317" />
      <path
         style="color:#000000;fill:#00ff00;fill-opacity:1;fill-rule:evenodd;stroke:none;-inkscape-stroke:none"
         d="m 61387.3,44724.5 -9.6,1.4 -9.3,2.4 -9.1,3.2 -8.8,4.1 -8.3,5 -7.7,5.8 -7.2,6.4 -6.5,7.2 -5.7,7.8 -5,8.2 -4.1,8.8 -3.3,9.1 -2.3,9.3 -1.4,9.6 -0.5,9.6 v 324.8 l 0.5,9.7 1.4,9.5 2.3,9.4 3.3,9.1 4.1,8.7 5,8.3 5.7,7.8 6.5,7.1 7.2,6.5 7.7,5.8 8.3,4.9 8.8,4.2 9.1,3.2 9.3,2.4 9.6,1.4 9.6,0.5 h 866.2 l 9.6,-0.5 9.6,-1.4 9.3,-2.4 9.1,-3.2 8.8,-4.2 8.3,-4.9 7.7,-5.8 7.2,-6.5 6.5,-7.1 5.7,-7.8 5,-8.3 4.1,-8.7 3.3,-9.1 2.3,-9.4 1.4,-9.5 0.5,-9.7 v -324.8 l -0.5,-9.6 -1.4,-9.6 -2.3,-9.3 -3.3,-9.1 -4.1,-8.8 -5,-8.2 -5.7,-7.8 -6.5,-7.2 -7.2,-6.4 -7.7,-5.8 -8.3,-5 -8.8,-4.1 -9.1,-3.2 -9.3,-2.4 -9.6,-1.4 -9.6,-0.5 h -866.2 z"
         id="path5319" />
    </g>
    <g
       id="path2614"
       style="fill:#00ff00;fill-opacity:1">
      <path
         style="color:#000000;fill:#00ff00;fill-opacity:1;fill-rule:evenodd;stroke:none;-inkscape-stroke:none"
         d="m 61387.3,45954.8 -9.6,1.4 -9.3,2.4 -9.1,3.2 -8.8,4.2 -8.3,4.9 -7.7,5.8 -7.2,6.5 -6.5,7.1 -5.7,7.8 -5,8.3 -4.1,8.7 -3.3,9.1 -2.3,9.4 -1.4,9.5 -0.5,9.7 v 324.8 l 0.5,9.6 1.4,9.6 2.3,9.3 3.3,9.1 4.1,8.8 5,8.2 5.7,7.8 6.5,7.2 7.2,6.4 7.7,5.8 8.3,5 8.8,4.1 9.1,3.2 9.3,2.4 9.6,1.4 9.6,0.5 h 866.2 l 9.6,-0.5 9.6,-1.4 9.3,-2.4 9.1,-3.2 8.8,-4.1 8.3,-5 7.7,-5.8 7.2,-6.4 6.5,-7.2 5.7,-7.8 5,-8.2 4.1,-8.8 3.3,-9.1 2.3,-9.3 1.4,-9.6 0.5,-9.6 v -324.8 l -0.5,-9.7 -1.4,-9.5 -2.3,-9.4 -3.3,-9.1 -4.1,-8.7 -5,-8.3 -5.7,-7.8 -6.5,-7.1 -7.2,-6.5 -7.7,-5.8 -8.3,-4.9 -8.8,-4.2 -9.1,-3.2 -9.3,-2.4 -9.6,-1.4 -9.6,-0.5 h -866.2 z"
         id="path5325" />
      <path
         style="color:#000000;fill:#00ff00;fill-opacity:1;fill-rule:evenodd;stroke:none;-inkscape-stroke:none"
         d="m 61387.3,45954.8 -9.6,1.4 -9.3,2.4 -9.1,3.2 -8.8,4.2 -8.3,4.9 -7.7,5.8 -7.2,6.5 -6.5,7.1 -5.7,7.8 -5,8.3 -4.1,8.7 -3.3,9.1 -2.3,9.4 -1.4,9.5 -0.5,9.7 v 324.8 l 0.5,9.6 1.4,9.6 2.3,9.3 3.3,9.1 4.1,8.8 5,8.2 5.7,7.8 6.5,7.2 7.2,6.4 7.7,5.8 8.3,5 8.8,4.1 9.1,3.2 9.3,2.4 9.6,1.4 9.6,0.5 h 866.2 l 9.6,-0.5 9.6,-1.4 9.3,-2.4 9.1,-3.2 8.8,-4.1 8.3,-5 7.7,-5.8 7.2,-6.4 6.5,-7.2 5.7,-7.8 5,-8.2 4.1,-8.8 3.3,-9.1 2.3,-9.3 1.4,-9.6 0.5,-9.6 v -324.8 l -0.5,-9.7 -1.4,-9.5 -2.3,-9.4 -3.3,-9.1 -4.1,-8.7 -5,-8.3 -5.7,-7.8 -6.5,-7.1 -7.2,-6.5 -7.7,-5.8 -8.3,-4.9 -8.8,-4.2 -9.1,-3.2 -9.3,-2.4 -9.6,-1.4 -9.6,-0.5 h -866.2 z"
         id="path5327" />
    </g>
  </g>
  <g
     id="g2618"
     style="fill:#00ff00;fill-opacity:1;stroke:#000000;stroke-width:19.685;stroke-linecap:round;stroke-linejoin:round" />
  <g
     style="fill:#00ff00;fill-opacity:1;stroke:#000000;stroke-width:0;stroke-linecap:round;stroke-linejoin:round"
     id="g2624">
    <g
       id="path2620"
       style="fill:#00ff00;fill-opacity:1">
      <path
         style="color:#000000;fill:#00ff00;fill-opacity:1;fill-rule:evenodd;stroke:none;-inkscape-stroke:none"
         d="m 66333.3,39861.9 -9.5,1.4 -9.4,2.4 -9.1,3.2 -8.7,4.1 -8.3,5 -7.7,5.8 -7.2,6.4 -6.5,7.2 -5.7,7.8 -5,8.2 -4.1,8.8 -3.3,9.1 -2.3,9.3 -1.5,9.6 -0.4,9.6 v 265.8 l 0.4,9.6 1.5,9.6 2.3,9.4 3.3,9.1 4.1,8.7 5,8.3 5.7,7.7 6.5,7.2 7.2,6.5 7.7,5.7 8.3,5 8.7,4.1 9.1,3.3 9.4,2.3 9.5,1.4 9.7,0.5 h 374 l 9.7,-0.5 9.5,-1.4 9.4,-2.3 9.1,-3.3 8.7,-4.1 8.3,-5 7.7,-5.7 7.2,-6.5 6.5,-7.2 5.7,-7.7 5,-8.3 4.1,-8.7 3.3,-9.1 2.3,-9.4 1.5,-9.6 0.4,-9.6 v -265.8 l -0.4,-9.6 -1.5,-9.6 -2.3,-9.3 -3.3,-9.1 -4.1,-8.8 -5,-8.2 -5.7,-7.8 -6.5,-7.2 -7.2,-6.4 -7.7,-5.8 -8.3,-5 -8.7,-4.1 -9.1,-3.2 -9.4,-2.4 -9.5,-1.4 -9.7,-0.5 h -374 z"
         id="path5333" />
      <path
         style="color:#000000;fill:#00ff00;fill-opacity:1;fill-rule:evenodd;stroke:none;-inkscape-stroke:none"
         d="m 66333.3,39861.9 -9.5,1.4 -9.4,2.4 -9.1,3.2 -8.7,4.1 -8.3,5 -7.7,5.8 -7.2,6.4 -6.5,7.2 -5.7,7.8 -5,8.2 -4.1,8.8 -3.3,9.1 -2.3,9.3 -1.5,9.6 -0.4,9.6 v 265.8 l 0.4,9.6 1.5,9.6 2.3,9.4 3.3,9.1 4.1,8.7 5,8.3 5.7,7.7 6.5,7.2 7.2,6.5 7.7,5.7 8.3,5 8.7,4.1 9.1,3.3 9.4,2.3 9.5,1.4 9.7,0.5 h 374 l 9.7,-0.5 9.5,-1.4 9.4,-2.3 9.1,-3.3 8.7,-4.1 8.3,-5 7.7,-5.7 7.2,-6.5 6.5,-7.2 5.7,-7.7 5,-8.3 4.1,-8.7 3.3,-9.1 2.3,-9.4 1.5,-9.6 0.4,-9.6 v -265.8 l -0.4,-9.6 -1.5,-9.6 -2.3,-9.3 -3.3,-9.1 -4.1,-8.8 -5,-8.2 -5.7,-7.8 -6.5,-7.2 -7.2,-6.4 -7.7,-5.8 -8.3,-5 -8.7,-4.1 -9.1,-3.2 -9.4,-2.4 -9.5,-1.4 -9.7,-0.5 h -374 z"
         id="path5335" />
    </g>
    <g
       id="path2622"
       style="fill:#00ff00;fill-opacity:1">
      <path
         style="color:#000000;fill:#00ff00;fill-opacity:1;fill-rule:evenodd;stroke:none;-inkscape-stroke:none"
         d="m 66333.3,39045 -9.5,1.4 -9.4,2.3 -9.1,3.3 -8.7,4.1 -8.3,5 -7.7,5.7 -7.2,6.5 -6.5,7.2 -5.7,7.7 -5,8.3 -4.1,8.7 -3.3,9.1 -2.3,9.4 -1.5,9.6 -0.4,9.6 v 265.8 l 0.4,9.6 1.5,9.6 2.3,9.3 3.3,9.1 4.1,8.8 5,8.2 5.7,7.8 6.5,7.2 7.2,6.4 7.7,5.8 8.3,5 8.7,4.1 9.1,3.2 9.4,2.4 9.5,1.4 9.7,0.5 h 374 l 9.7,-0.5 9.5,-1.4 9.4,-2.4 9.1,-3.2 8.7,-4.1 8.3,-5 7.7,-5.8 7.2,-6.4 6.5,-7.2 5.7,-7.8 5,-8.2 4.1,-8.8 3.3,-9.1 2.3,-9.3 1.5,-9.6 0.4,-9.6 v -265.8 l -0.4,-9.6 -1.5,-9.6 -2.3,-9.4 -3.3,-9.1 -4.1,-8.7 -5,-8.3 -5.7,-7.7 -6.5,-7.2 -7.2,-6.5 -7.7,-5.7 -8.3,-5 -8.7,-4.1 -9.1,-3.3 -9.4,-2.3 -9.5,-1.4 -9.7,-0.5 h -374 z"
         id="path5341" />
      <path
         style="color:#000000;fill:#00ff00;fill-opacity:1;fill-rule:evenodd;stroke:none;-inkscape-stroke:none"
         d="m 66333.3,39045 -9.5,1.4 -9.4,2.3 -9.1,3.3 -8.7,4.1 -8.3,5 -7.7,5.7 -7.2,6.5 -6.5,7.2 -5.7,7.7 -5,8.3 -4.1,8.7 -3.3,9.1 -2.3,9.4 -1.5,9.6 -0.4,9.6 v 265.8 l 0.4,9.6 1.5,9.6 2.3,9.3 3.3,9.1 4.1,8.8 5,8.2 5.7,7.8 6.5,7.2 7.2,6.4 7.7,5.8 8.3,5 8.7,4.1 9.1,3.2 9.4,2.4 9.5,1.4 9.7,0.5 h 374 l 9.7,-0.5 9.5,-1.4 9.4,-2.4 9.1,-3.2 8.7,-4.1 8.3,-5 7.7,-5.8 7.2,-6.4 6.5,-7.2 5.7,-7.8 5,-8.2 4.1,-8.8 3.3,-9.1 2.3,-9.3 1.5,-9.6 0.4,-9.6 v -265.8 l -0.4,-9.6 -1.5,-9.6 -2.3,-9.4 -3.3,-9.1 -4.1,-8.7 -5,-8.3 -5.7,-7.7 -6.5,-7.2 -7.2,-6.5 -7.7,-5.7 -8.3,-5 -8.7,-4.1 -9.1,-3.3 -9.4,-2.3 -9.5,-1.4 -9.7,-0.5 h -374 z"
         id="path5343" />
    </g>
  </g>
  <g
     id="g2626"
     style="fill:#00ff00;fill-opacity:1;stroke:#000000;stroke-width:19.685;stroke-linecap:round;stroke-linejoin:round" />
  <g
     id="g2628"
     style="fill:#00ff00;fill-opacity:1;stroke:#000000;stroke-width:19.685;stroke-linecap:round;stroke-linejoin:round" />
  <g
     id="g2630"
     style="fill:#00ff00;fill-opacity:1;stroke:#000000;stroke-width:19.685;stroke-linecap:round;stroke-linejoin:round" />
</svg>
