<?xml version="1.0" encoding="UTF-8" standalone="no"?>
<svg
   version="1.1"
   width="29.700220cm"
   height="21.000720cm"
   viewBox="0 0 116930 82680"
   id="svg1373"
   sodipodi:docname="osculati_amperemetre_sensor-B_Paste.svg"
   inkscape:version="1.1 (c68e22c387, 2021-05-23)"
   xmlns:inkscape="http://www.inkscape.org/namespaces/inkscape"
   xmlns:sodipodi="http://sodipodi.sourceforge.net/DTD/sodipodi-0.dtd"
   xmlns="http://www.w3.org/2000/svg"
   xmlns:svg="http://www.w3.org/2000/svg">
  <defs
     id="defs1377" />
  <sodipodi:namedview
     id="namedview1375"
     pagecolor="#ffffff"
     bordercolor="#666666"
     borderopacity="1.0"
     inkscape:pageshadow="2"
     inkscape:pageopacity="0.0"
     inkscape:pagecheckerboard="0"
     inkscape:document-units="cm"
     showgrid="false"
     inkscape:zoom="1.0973533"
     inkscape:cx="381.37216"
     inkscape:cy="397.31962"
     inkscape:window-width="1456"
     inkscape:window-height="853"
     inkscape:window-x="323"
     inkscape:window-y="71"
     inkscape:window-maximized="0"
     inkscape:current-layer="svg1373" />
  <title
     id="title1147">SVG Picture created as osculati_amperemetre_sensor-B_Paste.svg date 2021/12/13 11:19:36 </title>
  <desc
     id="desc1149">Picture generated by PCBNEW </desc>
  <g
     style="fill:#000000; fill-opacity:1;stroke:#000000; stroke-opacity:1; stroke-linecap:round; stroke-linejoin:round;"
     transform="translate(0 0) scale(1 1)"
     id="g1151" />
  <g
     style="fill:#000000; fill-opacity:0.0;  stroke:#000000; stroke-width:-0.000393701; stroke-opacity:1;  stroke-linecap:round; stroke-linejoin:round;"
     id="g1153" />
  <g
     id="path1155"
     style="fill:#ff0000;fill-opacity:1;stroke:#000000;stroke-width:19.685;stroke-linecap:round;stroke-linejoin:round;stroke-miterlimit:4;stroke-dasharray:none">
    <path
       style="color:#000000;fill:#ff0000;fill-opacity:1;stroke:none;stroke-width:19.685;stroke-linecap:butt;stroke-linejoin:miter;stroke-miterlimit:4;stroke-dasharray:none"
       d="M 62992,37401 H 43307"
       id="path2903" />
    <path
       style="color:#000000;fill:#ff0000;fill-opacity:1;stroke:none;stroke-width:19.685;stroke-linecap:butt;stroke-linejoin:miter;stroke-miterlimit:4;stroke-dasharray:none"
       d="m 43307,37391.158 a 9.8424997,9.8424997 0 0 0 -9.842,9.842 9.8424997,9.8424997 0 0 0 9.842,9.842 h 19685 a 9.8424997,9.8424997 0 0 0 9.842,-9.842 9.8424997,9.8424997 0 0 0 -9.842,-9.842 z"
       id="path2905" />
  </g>
  <g
     id="path1157"
     style="fill:#ff0000;fill-opacity:1;stroke:#000000;stroke-width:19.685;stroke-linecap:round;stroke-linejoin:round;stroke-miterlimit:4;stroke-dasharray:none">
    <path
       style="color:#000000;fill:#ff0000;fill-opacity:1;stroke:none;stroke-width:19.685;stroke-linecap:butt;stroke-linejoin:miter;stroke-miterlimit:4;stroke-dasharray:none"
       d="M 62992,53149 V 37401"
       id="path2911" />
    <path
       style="color:#000000;fill:#ff0000;fill-opacity:1;stroke:none;stroke-width:19.685;stroke-linecap:butt;stroke-linejoin:miter;stroke-miterlimit:4;stroke-dasharray:none"
       d="m 62992,37391.158 a 9.8424997,9.8424997 0 0 0 -9.842,9.842 v 15748 a 9.8424997,9.8424997 0 0 0 9.842,9.842 9.8424997,9.8424997 0 0 0 9.842,-9.842 V 37401 a 9.8424997,9.8424997 0 0 0 -9.842,-9.842 z"
       id="path2913" />
  </g>
  <g
     id="path1159"
     style="fill:#ff0000;fill-opacity:1;stroke:#000000;stroke-width:19.685;stroke-linecap:round;stroke-linejoin:round;stroke-miterlimit:4;stroke-dasharray:none">
    <path
       style="color:#000000;fill:#ff0000;fill-opacity:1;stroke:none;stroke-width:19.685;stroke-linecap:butt;stroke-linejoin:miter;stroke-miterlimit:4;stroke-dasharray:none"
       d="M 43307,53149 H 62992"
       id="path2919" />
    <path
       style="color:#000000;fill:#ff0000;fill-opacity:1;stroke:none;stroke-width:19.685;stroke-linecap:butt;stroke-linejoin:miter;stroke-miterlimit:4;stroke-dasharray:none"
       d="m 43307,53139.158 a 9.8424997,9.8424997 0 0 0 -9.842,9.842 9.8424997,9.8424997 0 0 0 9.842,9.842 h 19685 a 9.8424997,9.8424997 0 0 0 9.842,-9.842 9.8424997,9.8424997 0 0 0 -9.842,-9.842 z"
       id="path2921" />
  </g>
  <g
     id="path1161"
     style="fill:#ff0000;fill-opacity:1;stroke:#000000;stroke-width:19.685;stroke-linecap:round;stroke-linejoin:round;stroke-miterlimit:4;stroke-dasharray:none">
    <path
       style="color:#000000;fill:#ff0000;fill-opacity:1;stroke:none;stroke-width:19.685;stroke-linecap:butt;stroke-linejoin:miter;stroke-miterlimit:4;stroke-dasharray:none"
       d="M 43307,37401 V 53149"
       id="path2927" />
    <path
       style="color:#000000;fill:#ff0000;fill-opacity:1;stroke:none;stroke-width:19.685;stroke-linecap:butt;stroke-linejoin:miter;stroke-miterlimit:4;stroke-dasharray:none"
       d="m 43307,37391.158 a 9.8424997,9.8424997 0 0 0 -9.842,9.842 v 15748 a 9.8424997,9.8424997 0 0 0 9.842,9.842 9.8424997,9.8424997 0 0 0 9.842,-9.842 V 37401 a 9.8424997,9.8424997 0 0 0 -9.842,-9.842 z"
       id="path2929" />
  </g>
  <g
     id="g1163"
     style="fill:#000000;fill-opacity:1;stroke:#000000;stroke-width:19.685;stroke-linecap:round;stroke-linejoin:round;stroke-miterlimit:4;stroke-dasharray:none" />
  <g
     style="fill:#000000;fill-opacity:1;stroke:#000000;stroke-width:19.685;stroke-linecap:round;stroke-linejoin:round;stroke-miterlimit:4;stroke-dasharray:none"
     id="g1165" />
  <g
     style="fill:#000000;fill-opacity:1;stroke:#000000;stroke-width:19.685;stroke-linecap:round;stroke-linejoin:round;stroke-miterlimit:4;stroke-dasharray:none"
     id="g1171">
    <g
       id="path1167"
       style="fill:#000000;fill-opacity:1;stroke-width:19.685;stroke-miterlimit:4;stroke-dasharray:none">
      <path
         style="color:#000000;fill:#000000;fill-opacity:1;fill-rule:evenodd;stroke:none;stroke-width:19.685;stroke-miterlimit:4;stroke-dasharray:none"
         d="m 47941.1,45724.9 9.6,1.4 9.4,2.3 9.1,3.3 8.7,4.1 8.3,5 7.7,5.8 7.2,6.4 6.5,7.2 5.7,7.8 5,8.2 4.1,8.8 3.3,9.1 2.3,9.3 1.4,9.6 0.5,9.6 v 354.4 l -0.5,9.6 -1.4,9.6 -2.3,9.3 -3.3,9.1 -4.1,8.8 -5,8.2 -5.7,7.8 -6.5,7.2 -7.2,6.4 -7.7,5.8 -8.3,5 -8.7,4.1 -9.1,3.3 -9.4,2.3 -9.6,1.4 -9.6,0.5 h -275.6 l -9.6,-0.5 -9.6,-1.4 -9.4,-2.3 -9.1,-3.3 -8.7,-4.1 -8.3,-5 -7.7,-5.8 -7.2,-6.4 -6.5,-7.2 -5.7,-7.8 -5,-8.2 -4.1,-8.8 -3.3,-9.1 -2.3,-9.3 -1.4,-9.6 -0.5,-9.6 v -354.4 l 0.5,-9.6 1.4,-9.6 2.3,-9.3 3.3,-9.1 4.1,-8.8 5,-8.2 5.7,-7.8 6.5,-7.2 7.2,-6.4 7.7,-5.8 8.3,-5 8.7,-4.1 9.1,-3.3 9.4,-2.3 9.6,-1.4 9.6,-0.5 h 275.6 z"
         id="path2935" />
      <path
         style="color:#000000;fill:#000000;fill-opacity:1;fill-rule:evenodd;stroke:none;stroke-width:19.685;stroke-miterlimit:4;stroke-dasharray:none"
         d="m 47941.1,45724.9 9.6,1.4 9.4,2.3 9.1,3.3 8.7,4.1 8.3,5 7.7,5.8 7.2,6.4 6.5,7.2 5.7,7.8 5,8.2 4.1,8.8 3.3,9.1 2.3,9.3 1.4,9.6 0.5,9.6 v 354.4 l -0.5,9.6 -1.4,9.6 -2.3,9.3 -3.3,9.1 -4.1,8.8 -5,8.2 -5.7,7.8 -6.5,7.2 -7.2,6.4 -7.7,5.8 -8.3,5 -8.7,4.1 -9.1,3.3 -9.4,2.3 -9.6,1.4 -9.6,0.5 h -275.6 l -9.6,-0.5 -9.6,-1.4 -9.4,-2.3 -9.1,-3.3 -8.7,-4.1 -8.3,-5 -7.7,-5.8 -7.2,-6.4 -6.5,-7.2 -5.7,-7.8 -5,-8.2 -4.1,-8.8 -3.3,-9.1 -2.3,-9.3 -1.4,-9.6 -0.5,-9.6 v -354.4 l 0.5,-9.6 1.4,-9.6 2.3,-9.3 3.3,-9.1 4.1,-8.8 5,-8.2 5.7,-7.8 6.5,-7.2 7.2,-6.4 7.7,-5.8 8.3,-5 8.7,-4.1 9.1,-3.3 9.4,-2.3 9.6,-1.4 9.6,-0.5 h 275.6 z"
         id="path2937" />
    </g>
    <g
       id="path1169"
       style="fill:#000000;fill-opacity:1;stroke-width:19.685;stroke-miterlimit:4;stroke-dasharray:none">
      <path
         style="color:#000000;fill:#000000;fill-opacity:1;fill-rule:evenodd;stroke:none;stroke-width:19.685;stroke-miterlimit:4;stroke-dasharray:none"
         d="m 47153.7,45724.9 9.6,1.4 9.4,2.3 9.1,3.3 8.7,4.1 8.3,5 7.7,5.8 7.2,6.4 6.5,7.2 5.7,7.8 5,8.2 4.1,8.8 3.3,9.1 2.3,9.3 1.4,9.6 0.5,9.6 v 354.4 l -0.5,9.6 -1.4,9.6 -2.3,9.3 -3.3,9.1 -4.1,8.8 -5,8.2 -5.7,7.8 -6.5,7.2 -7.2,6.4 -7.7,5.8 -8.3,5 -8.7,4.1 -9.1,3.3 -9.4,2.3 -9.6,1.4 -9.6,0.5 h -275.6 l -9.6,-0.5 -9.6,-1.4 -9.4,-2.3 -9.1,-3.3 -8.7,-4.1 -8.3,-5 -7.7,-5.8 -7.2,-6.4 -6.5,-7.2 -5.7,-7.8 -5,-8.2 -4.1,-8.8 -3.3,-9.1 -2.3,-9.3 -1.4,-9.6 -0.5,-9.6 v -354.4 l 0.5,-9.6 1.4,-9.6 2.3,-9.3 3.3,-9.1 4.1,-8.8 5,-8.2 5.7,-7.8 6.5,-7.2 7.2,-6.4 7.7,-5.8 8.3,-5 8.7,-4.1 9.1,-3.3 9.4,-2.3 9.6,-1.4 9.6,-0.5 h 275.6 z"
         id="path2943" />
      <path
         style="color:#000000;fill:#000000;fill-opacity:1;fill-rule:evenodd;stroke:none;stroke-width:19.685;stroke-miterlimit:4;stroke-dasharray:none"
         d="m 47153.7,45724.9 9.6,1.4 9.4,2.3 9.1,3.3 8.7,4.1 8.3,5 7.7,5.8 7.2,6.4 6.5,7.2 5.7,7.8 5,8.2 4.1,8.8 3.3,9.1 2.3,9.3 1.4,9.6 0.5,9.6 v 354.4 l -0.5,9.6 -1.4,9.6 -2.3,9.3 -3.3,9.1 -4.1,8.8 -5,8.2 -5.7,7.8 -6.5,7.2 -7.2,6.4 -7.7,5.8 -8.3,5 -8.7,4.1 -9.1,3.3 -9.4,2.3 -9.6,1.4 -9.6,0.5 h -275.6 l -9.6,-0.5 -9.6,-1.4 -9.4,-2.3 -9.1,-3.3 -8.7,-4.1 -8.3,-5 -7.7,-5.8 -7.2,-6.4 -6.5,-7.2 -5.7,-7.8 -5,-8.2 -4.1,-8.8 -3.3,-9.1 -2.3,-9.3 -1.4,-9.6 -0.5,-9.6 v -354.4 l 0.5,-9.6 1.4,-9.6 2.3,-9.3 3.3,-9.1 4.1,-8.8 5,-8.2 5.7,-7.8 6.5,-7.2 7.2,-6.4 7.7,-5.8 8.3,-5 8.7,-4.1 9.1,-3.3 9.4,-2.3 9.6,-1.4 9.6,-0.5 h 275.6 z"
         id="path2945" />
    </g>
  </g>
  <g
     id="g1173"
     style="fill:#000000;fill-opacity:1;stroke:#000000;stroke-width:19.685;stroke-linecap:round;stroke-linejoin:round;stroke-miterlimit:4;stroke-dasharray:none" />
  <g
     style="fill:#000000;fill-opacity:1;stroke:#000000;stroke-width:19.685;stroke-linecap:round;stroke-linejoin:round;stroke-miterlimit:4;stroke-dasharray:none"
     id="g1179">
    <g
       id="path1175"
       style="fill:#000000;fill-opacity:1;stroke-width:19.685;stroke-miterlimit:4;stroke-dasharray:none">
      <path
         style="color:#000000;fill:#000000;fill-opacity:1;fill-rule:evenodd;stroke:none;stroke-width:19.685;stroke-miterlimit:4;stroke-dasharray:none"
         d="m 54151,43315 9.5,1.5 9.4,2.3 9.1,3.3 8.7,4.1 8.3,5 7.8,5.7 7.1,6.5 6.5,7.2 5.8,7.7 4.9,8.3 4.2,8.7 3.2,9.1 2.4,9.4 1.4,9.5 0.5,9.7 v 374 l -0.5,9.7 -1.4,9.5 -2.4,9.4 -3.2,9.1 -4.2,8.7 -4.9,8.3 -5.8,7.7 -6.5,7.2 -7.1,6.5 -7.8,5.7 -8.3,5 -8.7,4.1 -9.1,3.3 -9.4,2.3 -9.5,1.5 -9.7,0.4 h -265.7 l -9.7,-0.4 -9.5,-1.5 -9.4,-2.3 -9.1,-3.3 -8.7,-4.1 -8.3,-5 -7.7,-5.7 -7.2,-6.5 -6.5,-7.2 -5.7,-7.7 -5,-8.3 -4.1,-8.7 -3.3,-9.1 -2.3,-9.4 -1.5,-9.5 -0.4,-9.7 v -374 l 0.4,-9.7 1.5,-9.5 2.3,-9.4 3.3,-9.1 4.1,-8.7 5,-8.3 5.7,-7.7 6.5,-7.2 7.2,-6.5 7.7,-5.7 8.3,-5 8.7,-4.1 9.1,-3.3 9.4,-2.3 9.5,-1.5 9.7,-0.4 h 265.7 z"
         id="path2951" />
      <path
         style="color:#000000;fill:#000000;fill-opacity:1;fill-rule:evenodd;stroke:none;stroke-width:19.685;stroke-miterlimit:4;stroke-dasharray:none"
         d="m 54151,43315 9.5,1.5 9.4,2.3 9.1,3.3 8.7,4.1 8.3,5 7.8,5.7 7.1,6.5 6.5,7.2 5.8,7.7 4.9,8.3 4.2,8.7 3.2,9.1 2.4,9.4 1.4,9.5 0.5,9.7 v 374 l -0.5,9.7 -1.4,9.5 -2.4,9.4 -3.2,9.1 -4.2,8.7 -4.9,8.3 -5.8,7.7 -6.5,7.2 -7.1,6.5 -7.8,5.7 -8.3,5 -8.7,4.1 -9.1,3.3 -9.4,2.3 -9.5,1.5 -9.7,0.4 h -265.7 l -9.7,-0.4 -9.5,-1.5 -9.4,-2.3 -9.1,-3.3 -8.7,-4.1 -8.3,-5 -7.7,-5.7 -7.2,-6.5 -6.5,-7.2 -5.7,-7.7 -5,-8.3 -4.1,-8.7 -3.3,-9.1 -2.3,-9.4 -1.5,-9.5 -0.4,-9.7 v -374 l 0.4,-9.7 1.5,-9.5 2.3,-9.4 3.3,-9.1 4.1,-8.7 5,-8.3 5.7,-7.7 6.5,-7.2 7.2,-6.5 7.7,-5.7 8.3,-5 8.7,-4.1 9.1,-3.3 9.4,-2.3 9.5,-1.5 9.7,-0.4 h 265.7 z"
         id="path2953" />
    </g>
    <g
       id="path1177"
       style="fill:#000000;fill-opacity:1;stroke-width:19.685;stroke-miterlimit:4;stroke-dasharray:none">
      <path
         style="color:#000000;fill:#000000;fill-opacity:1;fill-rule:evenodd;stroke:none;stroke-width:19.685;stroke-miterlimit:4;stroke-dasharray:none"
         d="m 53334.1,43315 9.5,1.5 9.4,2.3 9.1,3.3 8.7,4.1 8.3,5 7.7,5.7 7.2,6.5 6.5,7.2 5.7,7.7 5,8.3 4.1,8.7 3.3,9.1 2.3,9.4 1.5,9.5 0.4,9.7 v 374 l -0.4,9.7 -1.5,9.5 -2.3,9.4 -3.3,9.1 -4.1,8.7 -5,8.3 -5.7,7.7 -6.5,7.2 -7.2,6.5 -7.7,5.7 -8.3,5 -8.7,4.1 -9.1,3.3 -9.4,2.3 -9.5,1.5 -9.7,0.4 h -265.7 l -9.7,-0.4 -9.5,-1.5 -9.4,-2.3 -9.1,-3.3 -8.7,-4.1 -8.3,-5 -7.8,-5.7 -7.1,-6.5 -6.5,-7.2 -5.8,-7.7 -4.9,-8.3 -4.2,-8.7 -3.2,-9.1 -2.4,-9.4 -1.4,-9.5 -0.5,-9.7 v -374 l 0.5,-9.7 1.4,-9.5 2.4,-9.4 3.2,-9.1 4.2,-8.7 4.9,-8.3 5.8,-7.7 6.5,-7.2 7.1,-6.5 7.8,-5.7 8.3,-5 8.7,-4.1 9.1,-3.3 9.4,-2.3 9.5,-1.5 9.7,-0.4 h 265.7 z"
         id="path2959" />
      <path
         style="color:#000000;fill:#000000;fill-opacity:1;fill-rule:evenodd;stroke:none;stroke-width:19.685;stroke-miterlimit:4;stroke-dasharray:none"
         d="m 53334.1,43315 9.5,1.5 9.4,2.3 9.1,3.3 8.7,4.1 8.3,5 7.7,5.7 7.2,6.5 6.5,7.2 5.7,7.7 5,8.3 4.1,8.7 3.3,9.1 2.3,9.4 1.5,9.5 0.4,9.7 v 374 l -0.4,9.7 -1.5,9.5 -2.3,9.4 -3.3,9.1 -4.1,8.7 -5,8.3 -5.7,7.7 -6.5,7.2 -7.2,6.5 -7.7,5.7 -8.3,5 -8.7,4.1 -9.1,3.3 -9.4,2.3 -9.5,1.5 -9.7,0.4 h -265.7 l -9.7,-0.4 -9.5,-1.5 -9.4,-2.3 -9.1,-3.3 -8.7,-4.1 -8.3,-5 -7.8,-5.7 -7.1,-6.5 -6.5,-7.2 -5.8,-7.7 -4.9,-8.3 -4.2,-8.7 -3.2,-9.1 -2.4,-9.4 -1.4,-9.5 -0.5,-9.7 v -374 l 0.5,-9.7 1.4,-9.5 2.4,-9.4 3.2,-9.1 4.2,-8.7 4.9,-8.3 5.8,-7.7 6.5,-7.2 7.1,-6.5 7.8,-5.7 8.3,-5 8.7,-4.1 9.1,-3.3 9.4,-2.3 9.5,-1.5 9.7,-0.4 h 265.7 z"
         id="path2961" />
    </g>
  </g>
  <g
     id="g1181"
     style="fill:#000000;fill-opacity:1;stroke:#000000;stroke-width:19.685;stroke-linecap:round;stroke-linejoin:round;stroke-miterlimit:4;stroke-dasharray:none" />
  <g
     id="g1183"
     style="fill:#000000;fill-opacity:1;stroke:#000000;stroke-width:19.685;stroke-linecap:round;stroke-linejoin:round;stroke-miterlimit:4;stroke-dasharray:none" />
  <g
     style="fill:#000000;fill-opacity:1;stroke:#000000;stroke-width:19.685;stroke-linecap:round;stroke-linejoin:round;stroke-miterlimit:4;stroke-dasharray:none"
     id="g1189">
    <g
       id="path1185"
       style="fill:#000000;fill-opacity:1;stroke-width:19.685;stroke-miterlimit:4;stroke-dasharray:none">
      <path
         style="color:#000000;fill:#000000;fill-opacity:1;fill-rule:evenodd;stroke:none;stroke-width:19.685;stroke-miterlimit:4;stroke-dasharray:none"
         d="m 54047.2,49054.3 h 905.6 v 984.3 h -905.6 z"
         id="path2967" />
      <path
         style="color:#000000;fill:#000000;fill-opacity:1;fill-rule:evenodd;stroke:none;stroke-width:19.685;stroke-miterlimit:4;stroke-dasharray:none"
         d="m 54047.2,49054.3 h 905.6 v 984.3 h -905.6 z"
         id="path2969" />
    </g>
    <g
       id="path1187"
       style="fill:#000000;fill-opacity:1;stroke-width:19.685;stroke-miterlimit:4;stroke-dasharray:none">
      <path
         style="color:#000000;fill:#000000;fill-opacity:1;fill-rule:evenodd;stroke:none;stroke-width:19.685;stroke-miterlimit:4;stroke-dasharray:none"
         d="m 54047.2,47361.4 h 905.6 v 984.3 h -905.6 z"
         id="path2975" />
      <path
         style="color:#000000;fill:#000000;fill-opacity:1;fill-rule:evenodd;stroke:none;stroke-width:19.685;stroke-miterlimit:4;stroke-dasharray:none"
         d="m 54047.2,47361.4 h 905.6 v 984.3 h -905.6 z"
         id="path2977" />
    </g>
  </g>
  <g
     id="g1191"
     style="fill:#000000;fill-opacity:1;stroke:#000000;stroke-width:19.685;stroke-linecap:round;stroke-linejoin:round;stroke-miterlimit:4;stroke-dasharray:none" />
  <g
     style="fill:#000000;fill-opacity:1;stroke:#000000;stroke-width:19.685;stroke-linecap:round;stroke-linejoin:round;stroke-miterlimit:4;stroke-dasharray:none"
     id="g1197">
    <g
       id="path1193"
       style="fill:#000000;fill-opacity:1;stroke-width:19.685;stroke-miterlimit:4;stroke-dasharray:none">
      <path
         style="color:#000000;fill:#000000;fill-opacity:1;fill-rule:evenodd;stroke:none;stroke-width:19.685;stroke-miterlimit:4;stroke-dasharray:none"
         d="m 56929.9,43197.2 v 905.6 h -984.2 v -905.6 z"
         id="path2983" />
      <path
         style="color:#000000;fill:#000000;fill-opacity:1;fill-rule:evenodd;stroke:none;stroke-width:19.685;stroke-miterlimit:4;stroke-dasharray:none"
         d="m 56929.9,43197.2 v 905.6 h -984.2 v -905.6 z"
         id="path2985" />
    </g>
    <g
       id="path1195"
       style="fill:#000000;fill-opacity:1;stroke-width:19.685;stroke-miterlimit:4;stroke-dasharray:none">
      <path
         style="color:#000000;fill:#000000;fill-opacity:1;fill-rule:evenodd;stroke:none;stroke-width:19.685;stroke-miterlimit:4;stroke-dasharray:none"
         d="m 58622.8,43197.2 v 905.6 h -984.2 v -905.6 z"
         id="path2991" />
      <path
         style="color:#000000;fill:#000000;fill-opacity:1;fill-rule:evenodd;stroke:none;stroke-width:19.685;stroke-miterlimit:4;stroke-dasharray:none"
         d="m 58622.8,43197.2 v 905.6 h -984.2 v -905.6 z"
         id="path2993" />
    </g>
  </g>
  <g
     id="g1199"
     style="fill:#000000;fill-opacity:1;stroke:#000000;stroke-width:19.685;stroke-linecap:round;stroke-linejoin:round;stroke-miterlimit:4;stroke-dasharray:none" />
  <g
     id="g1201"
     style="fill:#000000;fill-opacity:1;stroke:#000000;stroke-width:19.685;stroke-linecap:round;stroke-linejoin:round;stroke-miterlimit:4;stroke-dasharray:none" />
  <g
     style="fill:#000000;fill-opacity:1;stroke:#000000;stroke-width:19.685;stroke-linecap:round;stroke-linejoin:round;stroke-miterlimit:4;stroke-dasharray:none"
     id="g1219">
    <g
       id="path1203"
       style="fill:#000000;fill-opacity:1;stroke-width:19.685;stroke-miterlimit:4;stroke-dasharray:none">
      <path
         style="color:#000000;fill:#000000;fill-opacity:1;fill-rule:evenodd;stroke:none;stroke-width:19.685;stroke-miterlimit:4;stroke-dasharray:none"
         d="m 58824.4,42264.6 v -157.5 h 614.2 v 157.5 z"
         id="path2999" />
      <path
         style="color:#000000;fill:#000000;fill-opacity:1;fill-rule:evenodd;stroke:none;stroke-width:19.685;stroke-miterlimit:4;stroke-dasharray:none"
         d="m 58824.4,42264.6 v -157.5 h 614.2 v 157.5 z"
         id="path3001" />
    </g>
    <g
       id="path1205"
       style="fill:#000000;fill-opacity:1;stroke-width:19.685;stroke-miterlimit:4;stroke-dasharray:none">
      <path
         style="color:#000000;fill:#000000;fill-opacity:1;fill-rule:evenodd;stroke:none;stroke-width:19.685;stroke-miterlimit:4;stroke-dasharray:none"
         d="m 58824.4,42008.7 v -157.5 h 614.2 v 157.5 z"
         id="path3007" />
      <path
         style="color:#000000;fill:#000000;fill-opacity:1;fill-rule:evenodd;stroke:none;stroke-width:19.685;stroke-miterlimit:4;stroke-dasharray:none"
         d="m 58824.4,42008.7 v -157.5 h 614.2 v 157.5 z"
         id="path3009" />
    </g>
    <g
       id="path1207"
       style="fill:#000000;fill-opacity:1;stroke-width:19.685;stroke-miterlimit:4;stroke-dasharray:none">
      <path
         style="color:#000000;fill:#000000;fill-opacity:1;fill-rule:evenodd;stroke:none;stroke-width:19.685;stroke-miterlimit:4;stroke-dasharray:none"
         d="m 58824.4,41748.8 v -157.5 h 614.2 v 157.5 z"
         id="path3015" />
      <path
         style="color:#000000;fill:#000000;fill-opacity:1;fill-rule:evenodd;stroke:none;stroke-width:19.685;stroke-miterlimit:4;stroke-dasharray:none"
         d="m 58824.4,41748.8 v -157.5 h 614.2 v 157.5 z"
         id="path3017" />
    </g>
    <g
       id="path1209"
       style="fill:#000000;fill-opacity:1;stroke-width:19.685;stroke-miterlimit:4;stroke-dasharray:none">
      <path
         style="color:#000000;fill:#000000;fill-opacity:1;fill-rule:evenodd;stroke:none;stroke-width:19.685;stroke-miterlimit:4;stroke-dasharray:none"
         d="m 58824.4,41492.9 v -157.5 h 614.2 v 157.5 z"
         id="path3023" />
      <path
         style="color:#000000;fill:#000000;fill-opacity:1;fill-rule:evenodd;stroke:none;stroke-width:19.685;stroke-miterlimit:4;stroke-dasharray:none"
         d="m 58824.4,41492.9 v -157.5 h 614.2 v 157.5 z"
         id="path3025" />
    </g>
    <g
       id="path1211"
       style="fill:#000000;fill-opacity:1;stroke-width:19.685;stroke-miterlimit:4;stroke-dasharray:none">
      <path
         style="color:#000000;fill:#000000;fill-opacity:1;fill-rule:evenodd;stroke:none;stroke-width:19.685;stroke-miterlimit:4;stroke-dasharray:none"
         d="m 57761.4,41492.9 v -157.5 h 614.2 v 157.5 z"
         id="path3031" />
      <path
         style="color:#000000;fill:#000000;fill-opacity:1;fill-rule:evenodd;stroke:none;stroke-width:19.685;stroke-miterlimit:4;stroke-dasharray:none"
         d="m 57761.4,41492.9 v -157.5 h 614.2 v 157.5 z"
         id="path3033" />
    </g>
    <g
       id="path1213"
       style="fill:#000000;fill-opacity:1;stroke-width:19.685;stroke-miterlimit:4;stroke-dasharray:none">
      <path
         style="color:#000000;fill:#000000;fill-opacity:1;fill-rule:evenodd;stroke:none;stroke-width:19.685;stroke-miterlimit:4;stroke-dasharray:none"
         d="m 57761.4,41748.8 v -157.5 h 614.2 v 157.5 z"
         id="path3039" />
      <path
         style="color:#000000;fill:#000000;fill-opacity:1;fill-rule:evenodd;stroke:none;stroke-width:19.685;stroke-miterlimit:4;stroke-dasharray:none"
         d="m 57761.4,41748.8 v -157.5 h 614.2 v 157.5 z"
         id="path3041" />
    </g>
    <g
       id="path1215"
       style="fill:#000000;fill-opacity:1;stroke-width:19.685;stroke-miterlimit:4;stroke-dasharray:none">
      <path
         style="color:#000000;fill:#000000;fill-opacity:1;fill-rule:evenodd;stroke:none;stroke-width:19.685;stroke-miterlimit:4;stroke-dasharray:none"
         d="m 57761.4,42008.7 v -157.5 h 614.2 v 157.5 z"
         id="path3047" />
      <path
         style="color:#000000;fill:#000000;fill-opacity:1;fill-rule:evenodd;stroke:none;stroke-width:19.685;stroke-miterlimit:4;stroke-dasharray:none"
         d="m 57761.4,42008.7 v -157.5 h 614.2 v 157.5 z"
         id="path3049" />
    </g>
    <g
       id="path1217"
       style="fill:#000000;fill-opacity:1;stroke-width:19.685;stroke-miterlimit:4;stroke-dasharray:none">
      <path
         style="color:#000000;fill:#000000;fill-opacity:1;fill-rule:evenodd;stroke:none;stroke-width:19.685;stroke-miterlimit:4;stroke-dasharray:none"
         d="m 57761.4,42264.6 v -157.5 h 614.2 v 157.5 z"
         id="path3055" />
      <path
         style="color:#000000;fill:#000000;fill-opacity:1;fill-rule:evenodd;stroke:none;stroke-width:19.685;stroke-miterlimit:4;stroke-dasharray:none"
         d="m 57761.4,42264.6 v -157.5 h 614.2 v 157.5 z"
         id="path3057" />
    </g>
  </g>
  <g
     id="g1221"
     style="fill:#000000;fill-opacity:1;stroke:#000000;stroke-width:19.685;stroke-linecap:round;stroke-linejoin:round;stroke-miterlimit:4;stroke-dasharray:none" />
  <g
     style="fill:#000000;fill-opacity:1;stroke:#000000;stroke-width:19.685;stroke-linecap:round;stroke-linejoin:round;stroke-miterlimit:4;stroke-dasharray:none"
     id="g1227">
    <g
       id="path1223"
       style="fill:#000000;fill-opacity:1;stroke-width:19.685;stroke-miterlimit:4;stroke-dasharray:none">
      <path
         style="color:#000000;fill:#000000;fill-opacity:1;fill-rule:evenodd;stroke:none;stroke-width:19.685;stroke-miterlimit:4;stroke-dasharray:none"
         d="m 57196.7,41160.7 9.5,1.4 9.4,2.4 9.1,3.2 8.7,4.2 8.3,4.9 7.7,5.8 7.2,6.5 6.5,7.1 5.7,7.8 5,8.3 4.1,8.7 3.3,9.1 2.3,9.4 1.5,9.5 0.4,9.7 v 265.7 l -0.4,9.7 -1.5,9.5 -2.3,9.4 -3.3,9.1 -4.1,8.7 -5,8.3 -5.7,7.7 -6.5,7.2 -7.2,6.5 -7.7,5.7 -8.3,5 -8.7,4.1 -9.1,3.3 -9.4,2.3 -9.5,1.5 -9.7,0.4 h -374 l -9.7,-0.4 -9.5,-1.5 -9.4,-2.3 -9.1,-3.3 -8.7,-4.1 -8.3,-5 -7.7,-5.7 -7.2,-6.5 -6.5,-7.2 -5.7,-7.7 -5,-8.3 -4.1,-8.7 -3.3,-9.1 -2.3,-9.4 -1.5,-9.5 -0.4,-9.7 v -265.7 l 0.4,-9.7 1.5,-9.5 2.3,-9.4 3.3,-9.1 4.1,-8.7 5,-8.3 5.7,-7.8 6.5,-7.1 7.2,-6.5 7.7,-5.8 8.3,-4.9 8.7,-4.2 9.1,-3.2 9.4,-2.4 9.5,-1.4 9.7,-0.5 h 374 z"
         id="path3063" />
      <path
         style="color:#000000;fill:#000000;fill-opacity:1;fill-rule:evenodd;stroke:none;stroke-width:19.685;stroke-miterlimit:4;stroke-dasharray:none"
         d="m 57196.7,41160.7 9.5,1.4 9.4,2.4 9.1,3.2 8.7,4.2 8.3,4.9 7.7,5.8 7.2,6.5 6.5,7.1 5.7,7.8 5,8.3 4.1,8.7 3.3,9.1 2.3,9.4 1.5,9.5 0.4,9.7 v 265.7 l -0.4,9.7 -1.5,9.5 -2.3,9.4 -3.3,9.1 -4.1,8.7 -5,8.3 -5.7,7.7 -6.5,7.2 -7.2,6.5 -7.7,5.7 -8.3,5 -8.7,4.1 -9.1,3.3 -9.4,2.3 -9.5,1.5 -9.7,0.4 h -374 l -9.7,-0.4 -9.5,-1.5 -9.4,-2.3 -9.1,-3.3 -8.7,-4.1 -8.3,-5 -7.7,-5.7 -7.2,-6.5 -6.5,-7.2 -5.7,-7.7 -5,-8.3 -4.1,-8.7 -3.3,-9.1 -2.3,-9.4 -1.5,-9.5 -0.4,-9.7 v -265.7 l 0.4,-9.7 1.5,-9.5 2.3,-9.4 3.3,-9.1 4.1,-8.7 5,-8.3 5.7,-7.8 6.5,-7.1 7.2,-6.5 7.7,-5.8 8.3,-4.9 8.7,-4.2 9.1,-3.2 9.4,-2.4 9.5,-1.4 9.7,-0.5 h 374 z"
         id="path3065" />
    </g>
    <g
       id="path1225"
       style="fill:#000000;fill-opacity:1;stroke-width:19.685;stroke-miterlimit:4;stroke-dasharray:none">
      <path
         style="color:#000000;fill:#000000;fill-opacity:1;fill-rule:evenodd;stroke:none;stroke-width:19.685;stroke-miterlimit:4;stroke-dasharray:none"
         d="m 57196.7,41977.6 9.5,1.5 9.4,2.3 9.1,3.3 8.7,4.1 8.3,5 7.7,5.7 7.2,6.5 6.5,7.2 5.7,7.7 5,8.3 4.1,8.7 3.3,9.1 2.3,9.4 1.5,9.5 0.4,9.7 v 265.7 l -0.4,9.7 -1.5,9.5 -2.3,9.4 -3.3,9.1 -4.1,8.7 -5,8.3 -5.7,7.8 -6.5,7.1 -7.2,6.5 -7.7,5.8 -8.3,4.9 -8.7,4.2 -9.1,3.2 -9.4,2.4 -9.5,1.4 -9.7,0.5 h -374 l -9.7,-0.5 -9.5,-1.4 -9.4,-2.4 -9.1,-3.2 -8.7,-4.2 -8.3,-4.9 -7.7,-5.8 -7.2,-6.5 -6.5,-7.1 -5.7,-7.8 -5,-8.3 -4.1,-8.7 -3.3,-9.1 -2.3,-9.4 -1.5,-9.5 -0.4,-9.7 v -265.7 l 0.4,-9.7 1.5,-9.5 2.3,-9.4 3.3,-9.1 4.1,-8.7 5,-8.3 5.7,-7.7 6.5,-7.2 7.2,-6.5 7.7,-5.7 8.3,-5 8.7,-4.1 9.1,-3.3 9.4,-2.3 9.5,-1.5 9.7,-0.4 h 374 z"
         id="path3071" />
      <path
         style="color:#000000;fill:#000000;fill-opacity:1;fill-rule:evenodd;stroke:none;stroke-width:19.685;stroke-miterlimit:4;stroke-dasharray:none"
         d="m 57196.7,41977.6 9.5,1.5 9.4,2.3 9.1,3.3 8.7,4.1 8.3,5 7.7,5.7 7.2,6.5 6.5,7.2 5.7,7.7 5,8.3 4.1,8.7 3.3,9.1 2.3,9.4 1.5,9.5 0.4,9.7 v 265.7 l -0.4,9.7 -1.5,9.5 -2.3,9.4 -3.3,9.1 -4.1,8.7 -5,8.3 -5.7,7.8 -6.5,7.1 -7.2,6.5 -7.7,5.8 -8.3,4.9 -8.7,4.2 -9.1,3.2 -9.4,2.4 -9.5,1.4 -9.7,0.5 h -374 l -9.7,-0.5 -9.5,-1.4 -9.4,-2.4 -9.1,-3.2 -8.7,-4.2 -8.3,-4.9 -7.7,-5.8 -7.2,-6.5 -6.5,-7.1 -5.7,-7.8 -5,-8.3 -4.1,-8.7 -3.3,-9.1 -2.3,-9.4 -1.5,-9.5 -0.4,-9.7 v -265.7 l 0.4,-9.7 1.5,-9.5 2.3,-9.4 3.3,-9.1 4.1,-8.7 5,-8.3 5.7,-7.7 6.5,-7.2 7.2,-6.5 7.7,-5.7 8.3,-5 8.7,-4.1 9.1,-3.3 9.4,-2.3 9.5,-1.5 9.7,-0.4 h 374 z"
         id="path3073" />
    </g>
  </g>
  <g
     id="g1229"
     style="fill:#000000;fill-opacity:1;stroke:#000000;stroke-width:19.685;stroke-linecap:round;stroke-linejoin:round;stroke-miterlimit:4;stroke-dasharray:none" />
  <g
     id="g1231"
     style="fill:#000000;fill-opacity:1;stroke:#000000;stroke-width:19.685;stroke-linecap:round;stroke-linejoin:round;stroke-miterlimit:4;stroke-dasharray:none" />
  <g
     style="fill:#000000;fill-opacity:1;stroke:#000000;stroke-width:19.685;stroke-linecap:round;stroke-linejoin:round;stroke-miterlimit:4;stroke-dasharray:none"
     id="g1237">
    <g
       id="path1233"
       style="fill:#000000;fill-opacity:1;stroke-width:19.685;stroke-miterlimit:4;stroke-dasharray:none">
      <path
         style="color:#000000;fill:#000000;fill-opacity:1;fill-rule:evenodd;stroke:none;stroke-width:19.685;stroke-miterlimit:4;stroke-dasharray:none"
         d="m 51655.7,38818.6 9.6,1.4 9.3,2.3 9.1,3.3 8.8,4.1 8.2,5 7.8,5.8 7.2,6.4 6.4,7.2 5.8,7.8 5,8.2 4.1,8.8 3.2,9.1 2.4,9.3 1.4,9.6 0.5,9.6 v 315 l -0.5,9.6 -1.4,9.6 -2.4,9.4 -3.2,9.1 -4.1,8.7 -5,8.3 -5.8,7.7 -6.4,7.2 -7.2,6.5 -7.8,5.7 -8.2,5 -8.8,4.1 -9.1,3.3 -9.3,2.3 -9.6,1.4 -9.6,0.5 h -492.2 l -9.6,-0.5 -9.6,-1.4 -9.3,-2.3 -9.1,-3.3 -8.8,-4.1 -8.2,-5 -7.8,-5.7 -7.2,-6.5 -6.4,-7.2 -5.8,-7.7 -5,-8.3 -4.1,-8.7 -3.2,-9.1 -2.4,-9.4 -1.4,-9.6 -0.5,-9.6 v -315 l 0.5,-9.6 1.4,-9.6 2.4,-9.3 3.2,-9.1 4.1,-8.8 5,-8.2 5.8,-7.8 6.4,-7.2 7.2,-6.4 7.8,-5.8 8.2,-5 8.8,-4.1 9.1,-3.3 9.3,-2.3 9.6,-1.4 9.6,-0.5 h 492.2 z"
         id="path3079" />
      <path
         style="color:#000000;fill:#000000;fill-opacity:1;fill-rule:evenodd;stroke:none;stroke-width:19.685;stroke-miterlimit:4;stroke-dasharray:none"
         d="m 51655.7,38818.6 9.6,1.4 9.3,2.3 9.1,3.3 8.8,4.1 8.2,5 7.8,5.8 7.2,6.4 6.4,7.2 5.8,7.8 5,8.2 4.1,8.8 3.2,9.1 2.4,9.3 1.4,9.6 0.5,9.6 v 315 l -0.5,9.6 -1.4,9.6 -2.4,9.4 -3.2,9.1 -4.1,8.7 -5,8.3 -5.8,7.7 -6.4,7.2 -7.2,6.5 -7.8,5.7 -8.2,5 -8.8,4.1 -9.1,3.3 -9.3,2.3 -9.6,1.4 -9.6,0.5 h -492.2 l -9.6,-0.5 -9.6,-1.4 -9.3,-2.3 -9.1,-3.3 -8.8,-4.1 -8.2,-5 -7.8,-5.7 -7.2,-6.5 -6.4,-7.2 -5.8,-7.7 -5,-8.3 -4.1,-8.7 -3.2,-9.1 -2.4,-9.4 -1.4,-9.6 -0.5,-9.6 v -315 l 0.5,-9.6 1.4,-9.6 2.4,-9.3 3.2,-9.1 4.1,-8.8 5,-8.2 5.8,-7.8 6.4,-7.2 7.2,-6.4 7.8,-5.8 8.2,-5 8.8,-4.1 9.1,-3.3 9.3,-2.3 9.6,-1.4 9.6,-0.5 h 492.2 z"
         id="path3081" />
    </g>
    <g
       id="path1235"
       style="fill:#000000;fill-opacity:1;stroke-width:19.685;stroke-miterlimit:4;stroke-dasharray:none">
      <path
         style="color:#000000;fill:#000000;fill-opacity:1;fill-rule:evenodd;stroke:none;stroke-width:19.685;stroke-miterlimit:4;stroke-dasharray:none"
         d="m 51655.7,40039.1 9.6,1.4 9.3,2.3 9.1,3.3 8.8,4.1 8.2,5 7.8,5.7 7.2,6.5 6.4,7.2 5.8,7.7 5,8.3 4.1,8.7 3.2,9.1 2.4,9.4 1.4,9.6 0.5,9.6 v 315 l -0.5,9.6 -1.4,9.6 -2.4,9.3 -3.2,9.1 -4.1,8.8 -5,8.3 -5.8,7.7 -6.4,7.2 -7.2,6.5 -7.8,5.7 -8.2,5 -8.8,4.1 -9.1,3.3 -9.3,2.3 -9.6,1.4 -9.6,0.5 h -492.2 l -9.6,-0.5 -9.6,-1.4 -9.3,-2.3 -9.1,-3.3 -8.8,-4.1 -8.2,-5 -7.8,-5.7 -7.2,-6.5 -6.4,-7.2 -5.8,-7.7 -5,-8.3 -4.1,-8.8 -3.2,-9.1 -2.4,-9.3 -1.4,-9.6 -0.5,-9.6 v -315 l 0.5,-9.6 1.4,-9.6 2.4,-9.4 3.2,-9.1 4.1,-8.7 5,-8.3 5.8,-7.7 6.4,-7.2 7.2,-6.5 7.8,-5.7 8.2,-5 8.8,-4.1 9.1,-3.3 9.3,-2.3 9.6,-1.4 9.6,-0.5 h 492.2 z"
         id="path3087" />
      <path
         style="color:#000000;fill:#000000;fill-opacity:1;fill-rule:evenodd;stroke:none;stroke-width:19.685;stroke-miterlimit:4;stroke-dasharray:none"
         d="m 51655.7,40039.1 9.6,1.4 9.3,2.3 9.1,3.3 8.8,4.1 8.2,5 7.8,5.7 7.2,6.5 6.4,7.2 5.8,7.7 5,8.3 4.1,8.7 3.2,9.1 2.4,9.4 1.4,9.6 0.5,9.6 v 315 l -0.5,9.6 -1.4,9.6 -2.4,9.3 -3.2,9.1 -4.1,8.8 -5,8.3 -5.8,7.7 -6.4,7.2 -7.2,6.5 -7.8,5.7 -8.2,5 -8.8,4.1 -9.1,3.3 -9.3,2.3 -9.6,1.4 -9.6,0.5 h -492.2 l -9.6,-0.5 -9.6,-1.4 -9.3,-2.3 -9.1,-3.3 -8.8,-4.1 -8.2,-5 -7.8,-5.7 -7.2,-6.5 -6.4,-7.2 -5.8,-7.7 -5,-8.3 -4.1,-8.8 -3.2,-9.1 -2.4,-9.3 -1.4,-9.6 -0.5,-9.6 v -315 l 0.5,-9.6 1.4,-9.6 2.4,-9.4 3.2,-9.1 4.1,-8.7 5,-8.3 5.8,-7.7 6.4,-7.2 7.2,-6.5 7.8,-5.7 8.2,-5 8.8,-4.1 9.1,-3.3 9.3,-2.3 9.6,-1.4 9.6,-0.5 h 492.2 z"
         id="path3089" />
    </g>
  </g>
  <g
     id="g1239"
     style="fill:#000000;fill-opacity:1;stroke:#000000;stroke-width:19.685;stroke-linecap:round;stroke-linejoin:round;stroke-miterlimit:4;stroke-dasharray:none" />
  <g
     id="g1241"
     style="fill:#000000;fill-opacity:1;stroke:#000000;stroke-width:19.685;stroke-linecap:round;stroke-linejoin:round;stroke-miterlimit:4;stroke-dasharray:none" />
  <g
     style="fill:#000000;fill-opacity:1;stroke:#000000;stroke-width:19.685;stroke-linecap:round;stroke-linejoin:round;stroke-miterlimit:4;stroke-dasharray:none"
     id="g1251">
    <g
       id="path1243"
       style="fill:#000000;fill-opacity:1;stroke-width:19.685;stroke-miterlimit:4;stroke-dasharray:none">
      <path
         style="color:#000000;fill:#000000;fill-opacity:1;fill-rule:evenodd;stroke:none;stroke-width:19.685;stroke-miterlimit:4;stroke-dasharray:none"
         d="m 53333.9,44499.2 v 590.6 h -787.4 v -590.6 z"
         id="path3095" />
      <path
         style="color:#000000;fill:#000000;fill-opacity:1;fill-rule:evenodd;stroke:none;stroke-width:19.685;stroke-miterlimit:4;stroke-dasharray:none"
         d="m 53333.9,44499.2 v 590.6 h -787.4 v -590.6 z"
         id="path3097" />
    </g>
    <g
       id="path1245"
       style="fill:#000000;fill-opacity:1;stroke-width:19.685;stroke-miterlimit:4;stroke-dasharray:none">
      <path
         style="color:#000000;fill:#000000;fill-opacity:1;fill-rule:evenodd;stroke:none;stroke-width:19.685;stroke-miterlimit:4;stroke-dasharray:none"
         d="m 53333.9,46310.2 v 590.6 h -787.4 v -590.6 z"
         id="path3103" />
      <path
         style="color:#000000;fill:#000000;fill-opacity:1;fill-rule:evenodd;stroke:none;stroke-width:19.685;stroke-miterlimit:4;stroke-dasharray:none"
         d="m 53333.9,46310.2 v 590.6 h -787.4 v -590.6 z"
         id="path3105" />
    </g>
    <g
       id="path1247"
       style="fill:#000000;fill-opacity:1;stroke-width:19.685;stroke-miterlimit:4;stroke-dasharray:none">
      <path
         style="color:#000000;fill:#000000;fill-opacity:1;fill-rule:evenodd;stroke:none;stroke-width:19.685;stroke-miterlimit:4;stroke-dasharray:none"
         d="m 53333.9,45404.7 v 590.6 h -787.4 v -590.6 z"
         id="path3111" />
      <path
         style="color:#000000;fill:#000000;fill-opacity:1;fill-rule:evenodd;stroke:none;stroke-width:19.685;stroke-miterlimit:4;stroke-dasharray:none"
         d="m 53333.9,45404.7 v 590.6 h -787.4 v -590.6 z"
         id="path3113" />
    </g>
    <g
       id="path1249"
       style="fill:#000000;fill-opacity:1;stroke-width:19.685;stroke-miterlimit:4;stroke-dasharray:none">
      <path
         style="color:#000000;fill:#000000;fill-opacity:1;fill-rule:evenodd;stroke:none;stroke-width:19.685;stroke-miterlimit:4;stroke-dasharray:none"
         d="m 50853.5,44952 v 1496 h -787.4 v -1496 z"
         id="path3119" />
      <path
         style="color:#000000;fill:#000000;fill-opacity:1;fill-rule:evenodd;stroke:none;stroke-width:19.685;stroke-miterlimit:4;stroke-dasharray:none"
         d="m 50853.5,44952 v 1496 h -787.4 v -1496 z"
         id="path3121" />
    </g>
  </g>
  <g
     id="g1253"
     style="fill:#000000;fill-opacity:1;stroke:#000000;stroke-width:19.685;stroke-linecap:round;stroke-linejoin:round;stroke-miterlimit:4;stroke-dasharray:none" />
  <g
     style="fill:#000000;fill-opacity:1;stroke:#000000;stroke-width:19.685;stroke-linecap:round;stroke-linejoin:round;stroke-miterlimit:4;stroke-dasharray:none"
     id="g1271">
    <g
       id="path1255"
       style="fill:#000000;fill-opacity:1;stroke-width:19.685;stroke-miterlimit:4;stroke-dasharray:none">
      <path
         style="color:#000000;fill:#000000;fill-opacity:1;fill-rule:evenodd;stroke:none;stroke-width:19.685;stroke-miterlimit:4;stroke-dasharray:none"
         d="m 52305,42616.4 5.7,0.9 5.7,1.4 5.4,1.9 5.3,2.5 4.9,3 4.7,3.4 4.3,3.9 3.9,4.3 3.4,4.7 3,5 2.5,5.2 1.9,5.5 1.4,5.6 0.9,5.7 0.3,5.8 v 118.1 l -0.3,5.8 -0.9,5.7 -1.4,5.6 -1.9,5.5 -2.5,5.2 -3,5 -3.4,4.7 -3.9,4.3 -4.3,3.9 -4.7,3.4 -4.9,3 -5.3,2.5 -5.4,1.9 -5.7,1.4 -5.7,0.9 -5.8,0.3 h -649.6 l -5.8,-0.3 -5.7,-0.9 -5.6,-1.4 -5.5,-1.9 -5.2,-2.5 -5,-3 -4.7,-3.4 -4.3,-3.9 -3.8,-4.3 -3.5,-4.7 -3,-5 -2.5,-5.2 -1.9,-5.5 -1.4,-5.6 -0.9,-5.7 -0.2,-5.8 v -118.1 l 0.2,-5.8 0.9,-5.7 1.4,-5.6 1.9,-5.5 2.5,-5.2 3,-5 3.5,-4.7 3.8,-4.3 4.3,-3.9 4.7,-3.4 5,-3 5.2,-2.5 5.5,-1.9 5.6,-1.4 5.7,-0.9 5.8,-0.3 h 649.6 z"
         id="path3127" />
      <path
         style="color:#000000;fill:#000000;fill-opacity:1;fill-rule:evenodd;stroke:none;stroke-width:19.685;stroke-miterlimit:4;stroke-dasharray:none"
         d="m 52305,42616.4 5.7,0.9 5.7,1.4 5.4,1.9 5.3,2.5 4.9,3 4.7,3.4 4.3,3.9 3.9,4.3 3.4,4.7 3,5 2.5,5.2 1.9,5.5 1.4,5.6 0.9,5.7 0.3,5.8 v 118.1 l -0.3,5.8 -0.9,5.7 -1.4,5.6 -1.9,5.5 -2.5,5.2 -3,5 -3.4,4.7 -3.9,4.3 -4.3,3.9 -4.7,3.4 -4.9,3 -5.3,2.5 -5.4,1.9 -5.7,1.4 -5.7,0.9 -5.8,0.3 h -649.6 l -5.8,-0.3 -5.7,-0.9 -5.6,-1.4 -5.5,-1.9 -5.2,-2.5 -5,-3 -4.7,-3.4 -4.3,-3.9 -3.8,-4.3 -3.5,-4.7 -3,-5 -2.5,-5.2 -1.9,-5.5 -1.4,-5.6 -0.9,-5.7 -0.2,-5.8 v -118.1 l 0.2,-5.8 0.9,-5.7 1.4,-5.6 1.9,-5.5 2.5,-5.2 3,-5 3.5,-4.7 3.8,-4.3 4.3,-3.9 4.7,-3.4 5,-3 5.2,-2.5 5.5,-1.9 5.6,-1.4 5.7,-0.9 5.8,-0.3 h 649.6 z"
         id="path3129" />
    </g>
    <g
       id="path1257"
       style="fill:#000000;fill-opacity:1;stroke-width:19.685;stroke-miterlimit:4;stroke-dasharray:none">
      <path
         style="color:#000000;fill:#000000;fill-opacity:1;fill-rule:evenodd;stroke:none;stroke-width:19.685;stroke-miterlimit:4;stroke-dasharray:none"
         d="m 52305,42116.4 5.7,0.9 5.7,1.4 5.4,1.9 5.3,2.5 4.9,3 4.7,3.4 4.3,3.9 3.9,4.3 3.4,4.7 3,5 2.5,5.2 1.9,5.5 1.4,5.6 0.9,5.7 0.3,5.8 v 118.1 l -0.3,5.8 -0.9,5.7 -1.4,5.6 -1.9,5.5 -2.5,5.2 -3,5 -3.4,4.7 -3.9,4.3 -4.3,3.9 -4.7,3.4 -4.9,3 -5.3,2.5 -5.4,1.9 -5.7,1.4 -5.7,0.9 -5.8,0.3 h -649.6 l -5.8,-0.3 -5.7,-0.9 -5.6,-1.4 -5.5,-1.9 -5.2,-2.5 -5,-3 -4.7,-3.4 -4.3,-3.9 -3.8,-4.3 -3.5,-4.7 -3,-5 -2.5,-5.2 -1.9,-5.5 -1.4,-5.6 -0.9,-5.7 -0.2,-5.8 v -118.1 l 0.2,-5.8 0.9,-5.7 1.4,-5.6 1.9,-5.5 2.5,-5.2 3,-5 3.5,-4.7 3.8,-4.3 4.3,-3.9 4.7,-3.4 5,-3 5.2,-2.5 5.5,-1.9 5.6,-1.4 5.7,-0.9 5.8,-0.3 h 649.6 z"
         id="path3135" />
      <path
         style="color:#000000;fill:#000000;fill-opacity:1;fill-rule:evenodd;stroke:none;stroke-width:19.685;stroke-miterlimit:4;stroke-dasharray:none"
         d="m 52305,42116.4 5.7,0.9 5.7,1.4 5.4,1.9 5.3,2.5 4.9,3 4.7,3.4 4.3,3.9 3.9,4.3 3.4,4.7 3,5 2.5,5.2 1.9,5.5 1.4,5.6 0.9,5.7 0.3,5.8 v 118.1 l -0.3,5.8 -0.9,5.7 -1.4,5.6 -1.9,5.5 -2.5,5.2 -3,5 -3.4,4.7 -3.9,4.3 -4.3,3.9 -4.7,3.4 -4.9,3 -5.3,2.5 -5.4,1.9 -5.7,1.4 -5.7,0.9 -5.8,0.3 h -649.6 l -5.8,-0.3 -5.7,-0.9 -5.6,-1.4 -5.5,-1.9 -5.2,-2.5 -5,-3 -4.7,-3.4 -4.3,-3.9 -3.8,-4.3 -3.5,-4.7 -3,-5 -2.5,-5.2 -1.9,-5.5 -1.4,-5.6 -0.9,-5.7 -0.2,-5.8 v -118.1 l 0.2,-5.8 0.9,-5.7 1.4,-5.6 1.9,-5.5 2.5,-5.2 3,-5 3.5,-4.7 3.8,-4.3 4.3,-3.9 4.7,-3.4 5,-3 5.2,-2.5 5.5,-1.9 5.6,-1.4 5.7,-0.9 5.8,-0.3 h 649.6 z"
         id="path3137" />
    </g>
    <g
       id="path1259"
       style="fill:#000000;fill-opacity:1;stroke-width:19.685;stroke-miterlimit:4;stroke-dasharray:none">
      <path
         style="color:#000000;fill:#000000;fill-opacity:1;fill-rule:evenodd;stroke:none;stroke-width:19.685;stroke-miterlimit:4;stroke-dasharray:none"
         d="m 52305,41616.4 5.7,0.9 5.7,1.4 5.4,1.9 5.3,2.5 4.9,3 4.7,3.4 4.3,3.9 3.9,4.3 3.4,4.7 3,5 2.5,5.2 1.9,5.5 1.4,5.6 0.9,5.7 0.3,5.8 v 118.1 l -0.3,5.8 -0.9,5.7 -1.4,5.6 -1.9,5.5 -2.5,5.2 -3,5 -3.4,4.7 -3.9,4.3 -4.3,3.9 -4.7,3.4 -4.9,3 -5.3,2.5 -5.4,1.9 -5.7,1.4 -5.7,0.9 -5.8,0.3 h -649.6 l -5.8,-0.3 -5.7,-0.9 -5.6,-1.4 -5.5,-1.9 -5.2,-2.5 -5,-3 -4.7,-3.4 -4.3,-3.9 -3.8,-4.3 -3.5,-4.7 -3,-5 -2.5,-5.2 -1.9,-5.5 -1.4,-5.6 -0.9,-5.7 -0.2,-5.8 v -118.1 l 0.2,-5.8 0.9,-5.7 1.4,-5.6 1.9,-5.5 2.5,-5.2 3,-5 3.5,-4.7 3.8,-4.3 4.3,-3.9 4.7,-3.4 5,-3 5.2,-2.5 5.5,-1.9 5.6,-1.4 5.7,-0.9 5.8,-0.3 h 649.6 z"
         id="path3143" />
      <path
         style="color:#000000;fill:#000000;fill-opacity:1;fill-rule:evenodd;stroke:none;stroke-width:19.685;stroke-miterlimit:4;stroke-dasharray:none"
         d="m 52305,41616.4 5.7,0.9 5.7,1.4 5.4,1.9 5.3,2.5 4.9,3 4.7,3.4 4.3,3.9 3.9,4.3 3.4,4.7 3,5 2.5,5.2 1.9,5.5 1.4,5.6 0.9,5.7 0.3,5.8 v 118.1 l -0.3,5.8 -0.9,5.7 -1.4,5.6 -1.9,5.5 -2.5,5.2 -3,5 -3.4,4.7 -3.9,4.3 -4.3,3.9 -4.7,3.4 -4.9,3 -5.3,2.5 -5.4,1.9 -5.7,1.4 -5.7,0.9 -5.8,0.3 h -649.6 l -5.8,-0.3 -5.7,-0.9 -5.6,-1.4 -5.5,-1.9 -5.2,-2.5 -5,-3 -4.7,-3.4 -4.3,-3.9 -3.8,-4.3 -3.5,-4.7 -3,-5 -2.5,-5.2 -1.9,-5.5 -1.4,-5.6 -0.9,-5.7 -0.2,-5.8 v -118.1 l 0.2,-5.8 0.9,-5.7 1.4,-5.6 1.9,-5.5 2.5,-5.2 3,-5 3.5,-4.7 3.8,-4.3 4.3,-3.9 4.7,-3.4 5,-3 5.2,-2.5 5.5,-1.9 5.6,-1.4 5.7,-0.9 5.8,-0.3 h 649.6 z"
         id="path3145" />
    </g>
    <g
       id="path1261"
       style="fill:#000000;fill-opacity:1;stroke-width:19.685;stroke-miterlimit:4;stroke-dasharray:none">
      <path
         style="color:#000000;fill:#000000;fill-opacity:1;fill-rule:evenodd;stroke:none;stroke-width:19.685;stroke-miterlimit:4;stroke-dasharray:none"
         d="m 52305,41116.4 5.7,0.9 5.7,1.4 5.4,1.9 5.3,2.5 4.9,3 4.7,3.4 4.3,3.9 3.9,4.3 3.4,4.7 3,5 2.5,5.2 1.9,5.5 1.4,5.6 0.9,5.7 0.3,5.8 v 118.1 l -0.3,5.8 -0.9,5.7 -1.4,5.6 -1.9,5.5 -2.5,5.2 -3,5 -3.4,4.7 -3.9,4.3 -4.3,3.9 -4.7,3.4 -4.9,3 -5.3,2.5 -5.4,1.9 -5.7,1.4 -5.7,0.9 -5.8,0.3 h -649.6 l -5.8,-0.3 -5.7,-0.9 -5.6,-1.4 -5.5,-1.9 -5.2,-2.5 -5,-3 -4.7,-3.4 -4.3,-3.9 -3.8,-4.3 -3.5,-4.7 -3,-5 -2.5,-5.2 -1.9,-5.5 -1.4,-5.6 -0.9,-5.7 -0.2,-5.8 v -118.1 l 0.2,-5.8 0.9,-5.7 1.4,-5.6 1.9,-5.5 2.5,-5.2 3,-5 3.5,-4.7 3.8,-4.3 4.3,-3.9 4.7,-3.4 5,-3 5.2,-2.5 5.5,-1.9 5.6,-1.4 5.7,-0.9 5.8,-0.3 h 649.6 z"
         id="path3151" />
      <path
         style="color:#000000;fill:#000000;fill-opacity:1;fill-rule:evenodd;stroke:none;stroke-width:19.685;stroke-miterlimit:4;stroke-dasharray:none"
         d="m 52305,41116.4 5.7,0.9 5.7,1.4 5.4,1.9 5.3,2.5 4.9,3 4.7,3.4 4.3,3.9 3.9,4.3 3.4,4.7 3,5 2.5,5.2 1.9,5.5 1.4,5.6 0.9,5.7 0.3,5.8 v 118.1 l -0.3,5.8 -0.9,5.7 -1.4,5.6 -1.9,5.5 -2.5,5.2 -3,5 -3.4,4.7 -3.9,4.3 -4.3,3.9 -4.7,3.4 -4.9,3 -5.3,2.5 -5.4,1.9 -5.7,1.4 -5.7,0.9 -5.8,0.3 h -649.6 l -5.8,-0.3 -5.7,-0.9 -5.6,-1.4 -5.5,-1.9 -5.2,-2.5 -5,-3 -4.7,-3.4 -4.3,-3.9 -3.8,-4.3 -3.5,-4.7 -3,-5 -2.5,-5.2 -1.9,-5.5 -1.4,-5.6 -0.9,-5.7 -0.2,-5.8 v -118.1 l 0.2,-5.8 0.9,-5.7 1.4,-5.6 1.9,-5.5 2.5,-5.2 3,-5 3.5,-4.7 3.8,-4.3 4.3,-3.9 4.7,-3.4 5,-3 5.2,-2.5 5.5,-1.9 5.6,-1.4 5.7,-0.9 5.8,-0.3 h 649.6 z"
         id="path3153" />
    </g>
    <g
       id="path1263"
       style="fill:#000000;fill-opacity:1;stroke-width:19.685;stroke-miterlimit:4;stroke-dasharray:none">
      <path
         style="color:#000000;fill:#000000;fill-opacity:1;fill-rule:evenodd;stroke:none;stroke-width:19.685;stroke-miterlimit:4;stroke-dasharray:none"
         d="m 50356.2,41116.4 5.7,0.9 5.6,1.4 5.5,1.9 5.2,2.5 5,3 4.7,3.4 4.3,3.9 3.8,4.3 3.5,4.7 3,5 2.5,5.2 1.9,5.5 1.4,5.6 0.9,5.7 0.2,5.8 v 118.1 l -0.2,5.8 -0.9,5.7 -1.4,5.6 -1.9,5.5 -2.5,5.2 -3,5 -3.5,4.7 -3.8,4.3 -4.3,3.9 -4.7,3.4 -5,3 -5.2,2.5 -5.5,1.9 -5.6,1.4 -5.7,0.9 -5.8,0.3 h -649.6 l -5.8,-0.3 -5.7,-0.9 -5.7,-1.4 -5.4,-1.9 -5.3,-2.5 -4.9,-3 -4.7,-3.4 -4.3,-3.9 -3.9,-4.3 -3.4,-4.7 -3,-5 -2.5,-5.2 -1.9,-5.5 -1.4,-5.6 -0.9,-5.7 -0.3,-5.8 v -118.1 l 0.3,-5.8 0.9,-5.7 1.4,-5.6 1.9,-5.5 2.5,-5.2 3,-5 3.4,-4.7 3.9,-4.3 4.3,-3.9 4.7,-3.4 4.9,-3 5.3,-2.5 5.4,-1.9 5.7,-1.4 5.7,-0.9 5.8,-0.3 h 649.6 z"
         id="path3159" />
      <path
         style="color:#000000;fill:#000000;fill-opacity:1;fill-rule:evenodd;stroke:none;stroke-width:19.685;stroke-miterlimit:4;stroke-dasharray:none"
         d="m 50356.2,41116.4 5.7,0.9 5.6,1.4 5.5,1.9 5.2,2.5 5,3 4.7,3.4 4.3,3.9 3.8,4.3 3.5,4.7 3,5 2.5,5.2 1.9,5.5 1.4,5.6 0.9,5.7 0.2,5.8 v 118.1 l -0.2,5.8 -0.9,5.7 -1.4,5.6 -1.9,5.5 -2.5,5.2 -3,5 -3.5,4.7 -3.8,4.3 -4.3,3.9 -4.7,3.4 -5,3 -5.2,2.5 -5.5,1.9 -5.6,1.4 -5.7,0.9 -5.8,0.3 h -649.6 l -5.8,-0.3 -5.7,-0.9 -5.7,-1.4 -5.4,-1.9 -5.3,-2.5 -4.9,-3 -4.7,-3.4 -4.3,-3.9 -3.9,-4.3 -3.4,-4.7 -3,-5 -2.5,-5.2 -1.9,-5.5 -1.4,-5.6 -0.9,-5.7 -0.3,-5.8 v -118.1 l 0.3,-5.8 0.9,-5.7 1.4,-5.6 1.9,-5.5 2.5,-5.2 3,-5 3.4,-4.7 3.9,-4.3 4.3,-3.9 4.7,-3.4 4.9,-3 5.3,-2.5 5.4,-1.9 5.7,-1.4 5.7,-0.9 5.8,-0.3 h 649.6 z"
         id="path3161" />
    </g>
    <g
       id="path1265"
       style="fill:#000000;fill-opacity:1;stroke-width:19.685;stroke-miterlimit:4;stroke-dasharray:none">
      <path
         style="color:#000000;fill:#000000;fill-opacity:1;fill-rule:evenodd;stroke:none;stroke-width:19.685;stroke-miterlimit:4;stroke-dasharray:none"
         d="m 50356.2,41616.4 5.7,0.9 5.6,1.4 5.5,1.9 5.2,2.5 5,3 4.7,3.4 4.3,3.9 3.8,4.3 3.5,4.7 3,5 2.5,5.2 1.9,5.5 1.4,5.6 0.9,5.7 0.2,5.8 v 118.1 l -0.2,5.8 -0.9,5.7 -1.4,5.6 -1.9,5.5 -2.5,5.2 -3,5 -3.5,4.7 -3.8,4.3 -4.3,3.9 -4.7,3.4 -5,3 -5.2,2.5 -5.5,1.9 -5.6,1.4 -5.7,0.9 -5.8,0.3 h -649.6 l -5.8,-0.3 -5.7,-0.9 -5.7,-1.4 -5.4,-1.9 -5.3,-2.5 -4.9,-3 -4.7,-3.4 -4.3,-3.9 -3.9,-4.3 -3.4,-4.7 -3,-5 -2.5,-5.2 -1.9,-5.5 -1.4,-5.6 -0.9,-5.7 -0.3,-5.8 v -118.1 l 0.3,-5.8 0.9,-5.7 1.4,-5.6 1.9,-5.5 2.5,-5.2 3,-5 3.4,-4.7 3.9,-4.3 4.3,-3.9 4.7,-3.4 4.9,-3 5.3,-2.5 5.4,-1.9 5.7,-1.4 5.7,-0.9 5.8,-0.3 h 649.6 z"
         id="path3167" />
      <path
         style="color:#000000;fill:#000000;fill-opacity:1;fill-rule:evenodd;stroke:none;stroke-width:19.685;stroke-miterlimit:4;stroke-dasharray:none"
         d="m 50356.2,41616.4 5.7,0.9 5.6,1.4 5.5,1.9 5.2,2.5 5,3 4.7,3.4 4.3,3.9 3.8,4.3 3.5,4.7 3,5 2.5,5.2 1.9,5.5 1.4,5.6 0.9,5.7 0.2,5.8 v 118.1 l -0.2,5.8 -0.9,5.7 -1.4,5.6 -1.9,5.5 -2.5,5.2 -3,5 -3.5,4.7 -3.8,4.3 -4.3,3.9 -4.7,3.4 -5,3 -5.2,2.5 -5.5,1.9 -5.6,1.4 -5.7,0.9 -5.8,0.3 h -649.6 l -5.8,-0.3 -5.7,-0.9 -5.7,-1.4 -5.4,-1.9 -5.3,-2.5 -4.9,-3 -4.7,-3.4 -4.3,-3.9 -3.9,-4.3 -3.4,-4.7 -3,-5 -2.5,-5.2 -1.9,-5.5 -1.4,-5.6 -0.9,-5.7 -0.3,-5.8 v -118.1 l 0.3,-5.8 0.9,-5.7 1.4,-5.6 1.9,-5.5 2.5,-5.2 3,-5 3.4,-4.7 3.9,-4.3 4.3,-3.9 4.7,-3.4 4.9,-3 5.3,-2.5 5.4,-1.9 5.7,-1.4 5.7,-0.9 5.8,-0.3 h 649.6 z"
         id="path3169" />
    </g>
    <g
       id="path1267"
       style="fill:#000000;fill-opacity:1;stroke-width:19.685;stroke-miterlimit:4;stroke-dasharray:none">
      <path
         style="color:#000000;fill:#000000;fill-opacity:1;fill-rule:evenodd;stroke:none;stroke-width:19.685;stroke-miterlimit:4;stroke-dasharray:none"
         d="m 50356.2,42116.4 5.7,0.9 5.6,1.4 5.5,1.9 5.2,2.5 5,3 4.7,3.4 4.3,3.9 3.8,4.3 3.5,4.7 3,5 2.5,5.2 1.9,5.5 1.4,5.6 0.9,5.7 0.2,5.8 v 118.1 l -0.2,5.8 -0.9,5.7 -1.4,5.6 -1.9,5.5 -2.5,5.2 -3,5 -3.5,4.7 -3.8,4.3 -4.3,3.9 -4.7,3.4 -5,3 -5.2,2.5 -5.5,1.9 -5.6,1.4 -5.7,0.9 -5.8,0.3 h -649.6 l -5.8,-0.3 -5.7,-0.9 -5.7,-1.4 -5.4,-1.9 -5.3,-2.5 -4.9,-3 -4.7,-3.4 -4.3,-3.9 -3.9,-4.3 -3.4,-4.7 -3,-5 -2.5,-5.2 -1.9,-5.5 -1.4,-5.6 -0.9,-5.7 -0.3,-5.8 v -118.1 l 0.3,-5.8 0.9,-5.7 1.4,-5.6 1.9,-5.5 2.5,-5.2 3,-5 3.4,-4.7 3.9,-4.3 4.3,-3.9 4.7,-3.4 4.9,-3 5.3,-2.5 5.4,-1.9 5.7,-1.4 5.7,-0.9 5.8,-0.3 h 649.6 z"
         id="path3175" />
      <path
         style="color:#000000;fill:#000000;fill-opacity:1;fill-rule:evenodd;stroke:none;stroke-width:19.685;stroke-miterlimit:4;stroke-dasharray:none"
         d="m 50356.2,42116.4 5.7,0.9 5.6,1.4 5.5,1.9 5.2,2.5 5,3 4.7,3.4 4.3,3.9 3.8,4.3 3.5,4.7 3,5 2.5,5.2 1.9,5.5 1.4,5.6 0.9,5.7 0.2,5.8 v 118.1 l -0.2,5.8 -0.9,5.7 -1.4,5.6 -1.9,5.5 -2.5,5.2 -3,5 -3.5,4.7 -3.8,4.3 -4.3,3.9 -4.7,3.4 -5,3 -5.2,2.5 -5.5,1.9 -5.6,1.4 -5.7,0.9 -5.8,0.3 h -649.6 l -5.8,-0.3 -5.7,-0.9 -5.7,-1.4 -5.4,-1.9 -5.3,-2.5 -4.9,-3 -4.7,-3.4 -4.3,-3.9 -3.9,-4.3 -3.4,-4.7 -3,-5 -2.5,-5.2 -1.9,-5.5 -1.4,-5.6 -0.9,-5.7 -0.3,-5.8 v -118.1 l 0.3,-5.8 0.9,-5.7 1.4,-5.6 1.9,-5.5 2.5,-5.2 3,-5 3.4,-4.7 3.9,-4.3 4.3,-3.9 4.7,-3.4 4.9,-3 5.3,-2.5 5.4,-1.9 5.7,-1.4 5.7,-0.9 5.8,-0.3 h 649.6 z"
         id="path3177" />
    </g>
    <g
       id="path1269"
       style="fill:#000000;fill-opacity:1;stroke-width:19.685;stroke-miterlimit:4;stroke-dasharray:none">
      <path
         style="color:#000000;fill:#000000;fill-opacity:1;fill-rule:evenodd;stroke:none;stroke-width:19.685;stroke-miterlimit:4;stroke-dasharray:none"
         d="m 50356.2,42616.4 5.7,0.9 5.6,1.4 5.5,1.9 5.2,2.5 5,3 4.7,3.4 4.3,3.9 3.8,4.3 3.5,4.7 3,5 2.5,5.2 1.9,5.5 1.4,5.6 0.9,5.7 0.2,5.8 v 118.1 l -0.2,5.8 -0.9,5.7 -1.4,5.6 -1.9,5.5 -2.5,5.2 -3,5 -3.5,4.7 -3.8,4.3 -4.3,3.9 -4.7,3.4 -5,3 -5.2,2.5 -5.5,1.9 -5.6,1.4 -5.7,0.9 -5.8,0.3 h -649.6 l -5.8,-0.3 -5.7,-0.9 -5.7,-1.4 -5.4,-1.9 -5.3,-2.5 -4.9,-3 -4.7,-3.4 -4.3,-3.9 -3.9,-4.3 -3.4,-4.7 -3,-5 -2.5,-5.2 -1.9,-5.5 -1.4,-5.6 -0.9,-5.7 -0.3,-5.8 v -118.1 l 0.3,-5.8 0.9,-5.7 1.4,-5.6 1.9,-5.5 2.5,-5.2 3,-5 3.4,-4.7 3.9,-4.3 4.3,-3.9 4.7,-3.4 4.9,-3 5.3,-2.5 5.4,-1.9 5.7,-1.4 5.7,-0.9 5.8,-0.3 h 649.6 z"
         id="path3183" />
      <path
         style="color:#000000;fill:#000000;fill-opacity:1;fill-rule:evenodd;stroke:none;stroke-width:19.685;stroke-miterlimit:4;stroke-dasharray:none"
         d="m 50356.2,42616.4 5.7,0.9 5.6,1.4 5.5,1.9 5.2,2.5 5,3 4.7,3.4 4.3,3.9 3.8,4.3 3.5,4.7 3,5 2.5,5.2 1.9,5.5 1.4,5.6 0.9,5.7 0.2,5.8 v 118.1 l -0.2,5.8 -0.9,5.7 -1.4,5.6 -1.9,5.5 -2.5,5.2 -3,5 -3.5,4.7 -3.8,4.3 -4.3,3.9 -4.7,3.4 -5,3 -5.2,2.5 -5.5,1.9 -5.6,1.4 -5.7,0.9 -5.8,0.3 h -649.6 l -5.8,-0.3 -5.7,-0.9 -5.7,-1.4 -5.4,-1.9 -5.3,-2.5 -4.9,-3 -4.7,-3.4 -4.3,-3.9 -3.9,-4.3 -3.4,-4.7 -3,-5 -2.5,-5.2 -1.9,-5.5 -1.4,-5.6 -0.9,-5.7 -0.3,-5.8 v -118.1 l 0.3,-5.8 0.9,-5.7 1.4,-5.6 1.9,-5.5 2.5,-5.2 3,-5 3.4,-4.7 3.9,-4.3 4.3,-3.9 4.7,-3.4 4.9,-3 5.3,-2.5 5.4,-1.9 5.7,-1.4 5.7,-0.9 5.8,-0.3 h 649.6 z"
         id="path3185" />
    </g>
  </g>
  <g
     id="g1273"
     style="fill:#000000;fill-opacity:1;stroke:#000000;stroke-width:19.685;stroke-linecap:round;stroke-linejoin:round;stroke-miterlimit:4;stroke-dasharray:none" />
  <g
     style="fill:#000000;fill-opacity:1;stroke:#000000;stroke-width:19.685;stroke-linecap:round;stroke-linejoin:round;stroke-miterlimit:4;stroke-dasharray:none"
     id="g1281">
    <g
       id="path1275"
       style="fill:#000000;fill-opacity:1;stroke-width:19.685;stroke-miterlimit:4;stroke-dasharray:none">
      <path
         style="color:#000000;fill:#000000;fill-opacity:1;fill-rule:evenodd;stroke:none;stroke-width:19.685;stroke-miterlimit:4;stroke-dasharray:none"
         d="m 48783.5,39526.8 v 314.9 h -354.4 v -314.9 z"
         id="path3191" />
      <path
         style="color:#000000;fill:#000000;fill-opacity:1;fill-rule:evenodd;stroke:none;stroke-width:19.685;stroke-miterlimit:4;stroke-dasharray:none"
         d="m 48783.5,39526.8 v 314.9 h -354.4 v -314.9 z"
         id="path3193" />
    </g>
    <g
       id="path1277"
       style="fill:#000000;fill-opacity:1;stroke-width:19.685;stroke-miterlimit:4;stroke-dasharray:none">
      <path
         style="color:#000000;fill:#000000;fill-opacity:1;fill-rule:evenodd;stroke:none;stroke-width:19.685;stroke-miterlimit:4;stroke-dasharray:none"
         d="m 49570.9,39900.8 v 314.9 h -354.4 v -314.9 z"
         id="path3199" />
      <path
         style="color:#000000;fill:#000000;fill-opacity:1;fill-rule:evenodd;stroke:none;stroke-width:19.685;stroke-miterlimit:4;stroke-dasharray:none"
         d="m 49570.9,39900.8 v 314.9 h -354.4 v -314.9 z"
         id="path3201" />
    </g>
    <g
       id="path1279"
       style="fill:#000000;fill-opacity:1;stroke-width:19.685;stroke-miterlimit:4;stroke-dasharray:none">
      <path
         style="color:#000000;fill:#000000;fill-opacity:1;fill-rule:evenodd;stroke:none;stroke-width:19.685;stroke-miterlimit:4;stroke-dasharray:none"
         d="m 49570.9,39152.8 v 314.9 h -354.4 v -314.9 z"
         id="path3207" />
      <path
         style="color:#000000;fill:#000000;fill-opacity:1;fill-rule:evenodd;stroke:none;stroke-width:19.685;stroke-miterlimit:4;stroke-dasharray:none"
         d="m 49570.9,39152.8 v 314.9 h -354.4 v -314.9 z"
         id="path3209" />
    </g>
  </g>
  <g
     id="g1283"
     style="fill:#000000;fill-opacity:1;stroke:#000000;stroke-width:19.685;stroke-linecap:round;stroke-linejoin:round;stroke-miterlimit:4;stroke-dasharray:none" />
  <g
     style="fill:#000000;fill-opacity:1;stroke:#000000;stroke-width:19.685;stroke-linecap:round;stroke-linejoin:round;stroke-miterlimit:4;stroke-dasharray:none"
     id="g1289">
    <g
       id="path1285"
       style="fill:#000000;fill-opacity:1;stroke-width:19.685;stroke-miterlimit:4;stroke-dasharray:none">
      <path
         style="color:#000000;fill:#000000;fill-opacity:1;fill-rule:evenodd;stroke:none;stroke-width:19.685;stroke-miterlimit:4;stroke-dasharray:none"
         d="m 45986.8,41470.6 9.6,1.4 9.3,2.3 9.1,3.3 8.8,4.1 8.2,5 7.8,5.7 7.2,6.5 6.4,7.2 5.8,7.7 5,8.3 4.1,8.7 3.3,9.1 2.3,9.4 1.4,9.6 0.5,9.6 v 275.6 l -0.5,9.6 -1.4,9.6 -2.3,9.4 -3.3,9.1 -4.1,8.7 -5,8.3 -5.8,7.7 -6.4,7.2 -7.2,6.5 -7.8,5.7 -8.2,5 -8.8,4.1 -9.1,3.3 -9.3,2.3 -9.6,1.4 -9.6,0.5 h -354.4 l -9.6,-0.5 -9.6,-1.4 -9.3,-2.3 -9.1,-3.3 -8.8,-4.1 -8.2,-5 -7.8,-5.7 -7.2,-6.5 -6.4,-7.2 -5.8,-7.7 -5,-8.3 -4.1,-8.7 -3.3,-9.1 -2.3,-9.4 -1.4,-9.6 -0.5,-9.6 v -275.6 l 0.5,-9.6 1.4,-9.6 2.3,-9.4 3.3,-9.1 4.1,-8.7 5,-8.3 5.8,-7.7 6.4,-7.2 7.2,-6.5 7.8,-5.7 8.2,-5 8.8,-4.1 9.1,-3.3 9.3,-2.3 9.6,-1.4 9.6,-0.5 h 354.4 z"
         id="path3215" />
      <path
         style="color:#000000;fill:#000000;fill-opacity:1;fill-rule:evenodd;stroke:none;stroke-width:19.685;stroke-miterlimit:4;stroke-dasharray:none"
         d="m 45986.8,41470.6 9.6,1.4 9.3,2.3 9.1,3.3 8.8,4.1 8.2,5 7.8,5.7 7.2,6.5 6.4,7.2 5.8,7.7 5,8.3 4.1,8.7 3.3,9.1 2.3,9.4 1.4,9.6 0.5,9.6 v 275.6 l -0.5,9.6 -1.4,9.6 -2.3,9.4 -3.3,9.1 -4.1,8.7 -5,8.3 -5.8,7.7 -6.4,7.2 -7.2,6.5 -7.8,5.7 -8.2,5 -8.8,4.1 -9.1,3.3 -9.3,2.3 -9.6,1.4 -9.6,0.5 h -354.4 l -9.6,-0.5 -9.6,-1.4 -9.3,-2.3 -9.1,-3.3 -8.8,-4.1 -8.2,-5 -7.8,-5.7 -7.2,-6.5 -6.4,-7.2 -5.8,-7.7 -5,-8.3 -4.1,-8.7 -3.3,-9.1 -2.3,-9.4 -1.4,-9.6 -0.5,-9.6 v -275.6 l 0.5,-9.6 1.4,-9.6 2.3,-9.4 3.3,-9.1 4.1,-8.7 5,-8.3 5.8,-7.7 6.4,-7.2 7.2,-6.5 7.8,-5.7 8.2,-5 8.8,-4.1 9.1,-3.3 9.3,-2.3 9.6,-1.4 9.6,-0.5 h 354.4 z"
         id="path3217" />
    </g>
    <g
       id="path1287"
       style="fill:#000000;fill-opacity:1;stroke-width:19.685;stroke-miterlimit:4;stroke-dasharray:none">
      <path
         style="color:#000000;fill:#000000;fill-opacity:1;fill-rule:evenodd;stroke:none;stroke-width:19.685;stroke-miterlimit:4;stroke-dasharray:none"
         d="m 45986.8,42258 9.6,1.4 9.3,2.3 9.1,3.3 8.8,4.1 8.2,5 7.8,5.7 7.2,6.5 6.4,7.2 5.8,7.7 5,8.3 4.1,8.7 3.3,9.1 2.3,9.4 1.4,9.6 0.5,9.6 v 275.6 l -0.5,9.6 -1.4,9.6 -2.3,9.4 -3.3,9.1 -4.1,8.7 -5,8.3 -5.8,7.7 -6.4,7.2 -7.2,6.5 -7.8,5.7 -8.2,5 -8.8,4.1 -9.1,3.3 -9.3,2.3 -9.6,1.4 -9.6,0.5 h -354.4 l -9.6,-0.5 -9.6,-1.4 -9.3,-2.3 -9.1,-3.3 -8.8,-4.1 -8.2,-5 -7.8,-5.7 -7.2,-6.5 -6.4,-7.2 -5.8,-7.7 -5,-8.3 -4.1,-8.7 -3.3,-9.1 -2.3,-9.4 -1.4,-9.6 -0.5,-9.6 v -275.6 l 0.5,-9.6 1.4,-9.6 2.3,-9.4 3.3,-9.1 4.1,-8.7 5,-8.3 5.8,-7.7 6.4,-7.2 7.2,-6.5 7.8,-5.7 8.2,-5 8.8,-4.1 9.1,-3.3 9.3,-2.3 9.6,-1.4 9.6,-0.5 h 354.4 z"
         id="path3223" />
      <path
         style="color:#000000;fill:#000000;fill-opacity:1;fill-rule:evenodd;stroke:none;stroke-width:19.685;stroke-miterlimit:4;stroke-dasharray:none"
         d="m 45986.8,42258 9.6,1.4 9.3,2.3 9.1,3.3 8.8,4.1 8.2,5 7.8,5.7 7.2,6.5 6.4,7.2 5.8,7.7 5,8.3 4.1,8.7 3.3,9.1 2.3,9.4 1.4,9.6 0.5,9.6 v 275.6 l -0.5,9.6 -1.4,9.6 -2.3,9.4 -3.3,9.1 -4.1,8.7 -5,8.3 -5.8,7.7 -6.4,7.2 -7.2,6.5 -7.8,5.7 -8.2,5 -8.8,4.1 -9.1,3.3 -9.3,2.3 -9.6,1.4 -9.6,0.5 h -354.4 l -9.6,-0.5 -9.6,-1.4 -9.3,-2.3 -9.1,-3.3 -8.8,-4.1 -8.2,-5 -7.8,-5.7 -7.2,-6.5 -6.4,-7.2 -5.8,-7.7 -5,-8.3 -4.1,-8.7 -3.3,-9.1 -2.3,-9.4 -1.4,-9.6 -0.5,-9.6 v -275.6 l 0.5,-9.6 1.4,-9.6 2.3,-9.4 3.3,-9.1 4.1,-8.7 5,-8.3 5.8,-7.7 6.4,-7.2 7.2,-6.5 7.8,-5.7 8.2,-5 8.8,-4.1 9.1,-3.3 9.3,-2.3 9.6,-1.4 9.6,-0.5 h 354.4 z"
         id="path3225" />
    </g>
  </g>
  <g
     id="g1291"
     style="fill:#000000;fill-opacity:1;stroke:#000000;stroke-width:19.685;stroke-linecap:round;stroke-linejoin:round;stroke-miterlimit:4;stroke-dasharray:none" />
  <g
     style="fill:#000000;fill-opacity:1;stroke:#000000;stroke-width:19.685;stroke-linecap:round;stroke-linejoin:round;stroke-miterlimit:4;stroke-dasharray:none"
     id="g1297">
    <g
       id="path1293"
       style="fill:#000000;fill-opacity:1;stroke-width:19.685;stroke-miterlimit:4;stroke-dasharray:none">
      <path
         style="color:#000000;fill:#000000;fill-opacity:1;fill-rule:evenodd;stroke:none;stroke-width:19.685;stroke-miterlimit:4;stroke-dasharray:none"
         d="m 53555.7,40118.6 9.6,1.4 9.3,2.3 9.1,3.3 8.8,4.1 8.2,5 7.8,5.8 7.2,6.4 6.4,7.2 5.8,7.8 5,8.2 4.1,8.8 3.2,9.1 2.4,9.3 1.4,9.6 0.5,9.6 v 315 l -0.5,9.6 -1.4,9.6 -2.4,9.4 -3.2,9.1 -4.1,8.7 -5,8.3 -5.8,7.7 -6.4,7.2 -7.2,6.5 -7.8,5.7 -8.2,5 -8.8,4.1 -9.1,3.3 -9.3,2.3 -9.6,1.4 -9.6,0.5 h -492.2 l -9.6,-0.5 -9.6,-1.4 -9.3,-2.3 -9.1,-3.3 -8.8,-4.1 -8.2,-5 -7.8,-5.7 -7.2,-6.5 -6.4,-7.2 -5.8,-7.7 -5,-8.3 -4.1,-8.7 -3.2,-9.1 -2.4,-9.4 -1.4,-9.6 -0.5,-9.6 v -315 l 0.5,-9.6 1.4,-9.6 2.4,-9.3 3.2,-9.1 4.1,-8.8 5,-8.2 5.8,-7.8 6.4,-7.2 7.2,-6.4 7.8,-5.8 8.2,-5 8.8,-4.1 9.1,-3.3 9.3,-2.3 9.6,-1.4 9.6,-0.5 h 492.2 z"
         id="path3231" />
      <path
         style="color:#000000;fill:#000000;fill-opacity:1;fill-rule:evenodd;stroke:none;stroke-width:19.685;stroke-miterlimit:4;stroke-dasharray:none"
         d="m 53555.7,40118.6 9.6,1.4 9.3,2.3 9.1,3.3 8.8,4.1 8.2,5 7.8,5.8 7.2,6.4 6.4,7.2 5.8,7.8 5,8.2 4.1,8.8 3.2,9.1 2.4,9.3 1.4,9.6 0.5,9.6 v 315 l -0.5,9.6 -1.4,9.6 -2.4,9.4 -3.2,9.1 -4.1,8.7 -5,8.3 -5.8,7.7 -6.4,7.2 -7.2,6.5 -7.8,5.7 -8.2,5 -8.8,4.1 -9.1,3.3 -9.3,2.3 -9.6,1.4 -9.6,0.5 h -492.2 l -9.6,-0.5 -9.6,-1.4 -9.3,-2.3 -9.1,-3.3 -8.8,-4.1 -8.2,-5 -7.8,-5.7 -7.2,-6.5 -6.4,-7.2 -5.8,-7.7 -5,-8.3 -4.1,-8.7 -3.2,-9.1 -2.4,-9.4 -1.4,-9.6 -0.5,-9.6 v -315 l 0.5,-9.6 1.4,-9.6 2.4,-9.3 3.2,-9.1 4.1,-8.8 5,-8.2 5.8,-7.8 6.4,-7.2 7.2,-6.4 7.8,-5.8 8.2,-5 8.8,-4.1 9.1,-3.3 9.3,-2.3 9.6,-1.4 9.6,-0.5 h 492.2 z"
         id="path3233" />
    </g>
    <g
       id="path1295"
       style="fill:#000000;fill-opacity:1;stroke-width:19.685;stroke-miterlimit:4;stroke-dasharray:none">
      <path
         style="color:#000000;fill:#000000;fill-opacity:1;fill-rule:evenodd;stroke:none;stroke-width:19.685;stroke-miterlimit:4;stroke-dasharray:none"
         d="m 53555.7,41339.1 9.6,1.4 9.3,2.3 9.1,3.3 8.8,4.1 8.2,5 7.8,5.7 7.2,6.5 6.4,7.2 5.8,7.7 5,8.3 4.1,8.7 3.2,9.1 2.4,9.4 1.4,9.6 0.5,9.6 v 315 l -0.5,9.6 -1.4,9.6 -2.4,9.3 -3.2,9.1 -4.1,8.8 -5,8.3 -5.8,7.7 -6.4,7.2 -7.2,6.5 -7.8,5.7 -8.2,5 -8.8,4.1 -9.1,3.3 -9.3,2.3 -9.6,1.4 -9.6,0.5 h -492.2 l -9.6,-0.5 -9.6,-1.4 -9.3,-2.3 -9.1,-3.3 -8.8,-4.1 -8.2,-5 -7.8,-5.7 -7.2,-6.5 -6.4,-7.2 -5.8,-7.7 -5,-8.3 -4.1,-8.8 -3.2,-9.1 -2.4,-9.3 -1.4,-9.6 -0.5,-9.6 v -315 l 0.5,-9.6 1.4,-9.6 2.4,-9.4 3.2,-9.1 4.1,-8.7 5,-8.3 5.8,-7.7 6.4,-7.2 7.2,-6.5 7.8,-5.7 8.2,-5 8.8,-4.1 9.1,-3.3 9.3,-2.3 9.6,-1.4 9.6,-0.5 h 492.2 z"
         id="path3239" />
      <path
         style="color:#000000;fill:#000000;fill-opacity:1;fill-rule:evenodd;stroke:none;stroke-width:19.685;stroke-miterlimit:4;stroke-dasharray:none"
         d="m 53555.7,41339.1 9.6,1.4 9.3,2.3 9.1,3.3 8.8,4.1 8.2,5 7.8,5.7 7.2,6.5 6.4,7.2 5.8,7.7 5,8.3 4.1,8.7 3.2,9.1 2.4,9.4 1.4,9.6 0.5,9.6 v 315 l -0.5,9.6 -1.4,9.6 -2.4,9.3 -3.2,9.1 -4.1,8.8 -5,8.3 -5.8,7.7 -6.4,7.2 -7.2,6.5 -7.8,5.7 -8.2,5 -8.8,4.1 -9.1,3.3 -9.3,2.3 -9.6,1.4 -9.6,0.5 h -492.2 l -9.6,-0.5 -9.6,-1.4 -9.3,-2.3 -9.1,-3.3 -8.8,-4.1 -8.2,-5 -7.8,-5.7 -7.2,-6.5 -6.4,-7.2 -5.8,-7.7 -5,-8.3 -4.1,-8.8 -3.2,-9.1 -2.4,-9.3 -1.4,-9.6 -0.5,-9.6 v -315 l 0.5,-9.6 1.4,-9.6 2.4,-9.4 3.2,-9.1 4.1,-8.7 5,-8.3 5.8,-7.7 6.4,-7.2 7.2,-6.5 7.8,-5.7 8.2,-5 8.8,-4.1 9.1,-3.3 9.3,-2.3 9.6,-1.4 9.6,-0.5 h 492.2 z"
         id="path3241" />
    </g>
  </g>
  <g
     id="g1299"
     style="fill:#000000;fill-opacity:1;stroke:#000000;stroke-width:19.685;stroke-linecap:round;stroke-linejoin:round;stroke-miterlimit:4;stroke-dasharray:none" />
  <g
     id="g1301"
     style="fill:#000000;fill-opacity:1;stroke:#000000;stroke-width:19.685;stroke-linecap:round;stroke-linejoin:round;stroke-miterlimit:4;stroke-dasharray:none" />
  <g
     id="g1303"
     style="fill:#000000;fill-opacity:1;stroke:#000000;stroke-width:19.685;stroke-linecap:round;stroke-linejoin:round;stroke-miterlimit:4;stroke-dasharray:none" />
  <g
     id="g1305"
     style="fill:#000000;fill-opacity:1;stroke:#000000;stroke-width:19.685;stroke-linecap:round;stroke-linejoin:round;stroke-miterlimit:4;stroke-dasharray:none" />
  <g
     id="g1307"
     style="fill:#000000;fill-opacity:1;stroke:#000000;stroke-width:19.685;stroke-linecap:round;stroke-linejoin:round;stroke-miterlimit:4;stroke-dasharray:none" />
  <g
     id="g1309"
     style="fill:#000000;fill-opacity:1;stroke:#000000;stroke-width:19.685;stroke-linecap:round;stroke-linejoin:round;stroke-miterlimit:4;stroke-dasharray:none" />
  <g
     style="fill:#000000;fill-opacity:1;stroke:#000000;stroke-width:19.685;stroke-linecap:round;stroke-linejoin:round;stroke-miterlimit:4;stroke-dasharray:none"
     id="g1315">
    <g
       id="path1311"
       style="fill:#000000;fill-opacity:1;stroke-width:19.685;stroke-miterlimit:4;stroke-dasharray:none">
      <path
         style="color:#000000;fill:#000000;fill-opacity:1;fill-rule:evenodd;stroke:none;stroke-width:19.685;stroke-miterlimit:4;stroke-dasharray:none"
         d="m 59976.1,46813.4 9.1,1.4 8.9,2.2 8.6,3.1 8.3,3.9 7.9,4.8 7.3,5.4 6.8,6.2 6.2,6.8 5.5,7.3 4.7,7.9 3.9,8.3 3.1,8.7 2.2,8.9 1.4,9 0.4,9.2 v 187 l -0.4,9.2 -1.4,9 -2.2,8.9 -3.1,8.7 -3.9,8.3 -4.7,7.9 -5.5,7.3 -6.2,6.8 -6.8,6.2 -7.3,5.4 -7.9,4.8 -8.3,3.9 -8.6,3.1 -8.9,2.2 -9.1,1.4 -9.2,0.4 h -196.8 l -9.2,-0.4 -9.1,-1.4 -8.9,-2.2 -8.6,-3.1 -8.3,-3.9 -7.9,-4.8 -7.3,-5.4 -6.8,-6.2 -6.2,-6.8 -5.5,-7.3 -4.7,-7.9 -3.9,-8.3 -3.1,-8.7 -2.2,-8.9 -1.4,-9 -0.4,-9.2 v -187 l 0.4,-9.2 1.4,-9 2.2,-8.9 3.1,-8.7 3.9,-8.3 4.7,-7.9 5.5,-7.3 6.2,-6.8 6.8,-6.2 7.3,-5.4 7.9,-4.8 8.3,-3.9 8.6,-3.1 8.9,-2.2 9.1,-1.4 9.2,-0.4 h 196.8 z"
         id="path3247" />
      <path
         style="color:#000000;fill:#000000;fill-opacity:1;fill-rule:evenodd;stroke:none;stroke-width:19.685;stroke-miterlimit:4;stroke-dasharray:none"
         d="m 59976.1,46813.4 9.1,1.4 8.9,2.2 8.6,3.1 8.3,3.9 7.9,4.8 7.3,5.4 6.8,6.2 6.2,6.8 5.5,7.3 4.7,7.9 3.9,8.3 3.1,8.7 2.2,8.9 1.4,9 0.4,9.2 v 187 l -0.4,9.2 -1.4,9 -2.2,8.9 -3.1,8.7 -3.9,8.3 -4.7,7.9 -5.5,7.3 -6.2,6.8 -6.8,6.2 -7.3,5.4 -7.9,4.8 -8.3,3.9 -8.6,3.1 -8.9,2.2 -9.1,1.4 -9.2,0.4 h -196.8 l -9.2,-0.4 -9.1,-1.4 -8.9,-2.2 -8.6,-3.1 -8.3,-3.9 -7.9,-4.8 -7.3,-5.4 -6.8,-6.2 -6.2,-6.8 -5.5,-7.3 -4.7,-7.9 -3.9,-8.3 -3.1,-8.7 -2.2,-8.9 -1.4,-9 -0.4,-9.2 v -187 l 0.4,-9.2 1.4,-9 2.2,-8.9 3.1,-8.7 3.9,-8.3 4.7,-7.9 5.5,-7.3 6.2,-6.8 6.8,-6.2 7.3,-5.4 7.9,-4.8 8.3,-3.9 8.6,-3.1 8.9,-2.2 9.1,-1.4 9.2,-0.4 h 196.8 z"
         id="path3249" />
    </g>
    <g
       id="path1313"
       style="fill:#000000;fill-opacity:1;stroke-width:19.685;stroke-miterlimit:4;stroke-dasharray:none">
      <path
         style="color:#000000;fill:#000000;fill-opacity:1;fill-rule:evenodd;stroke:none;stroke-width:19.685;stroke-miterlimit:4;stroke-dasharray:none"
         d="m 59257.6,46813.4 9.1,1.4 8.9,2.2 8.6,3.1 8.3,3.9 7.9,4.8 7.3,5.4 6.8,6.2 6.2,6.8 5.5,7.3 4.7,7.9 3.9,8.3 3.1,8.7 2.2,8.9 1.4,9 0.4,9.2 v 187 l -0.4,9.2 -1.4,9 -2.2,8.9 -3.1,8.7 -3.9,8.3 -4.7,7.9 -5.5,7.3 -6.2,6.8 -6.8,6.2 -7.3,5.4 -7.9,4.8 -8.3,3.9 -8.6,3.1 -8.9,2.2 -9.1,1.4 -9.2,0.4 h -196.8 l -9.2,-0.4 -9.1,-1.4 -8.9,-2.2 -8.6,-3.1 -8.3,-3.9 -7.9,-4.8 -7.3,-5.4 -6.8,-6.2 -6.2,-6.8 -5.5,-7.3 -4.7,-7.9 -3.9,-8.3 -3.1,-8.7 -2.2,-8.9 -1.4,-9 -0.4,-9.2 v -187 l 0.4,-9.2 1.4,-9 2.2,-8.9 3.1,-8.7 3.9,-8.3 4.7,-7.9 5.5,-7.3 6.2,-6.8 6.8,-6.2 7.3,-5.4 7.9,-4.8 8.3,-3.9 8.6,-3.1 8.9,-2.2 9.1,-1.4 9.2,-0.4 h 196.8 z"
         id="path3255" />
      <path
         style="color:#000000;fill:#000000;fill-opacity:1;fill-rule:evenodd;stroke:none;stroke-width:19.685;stroke-miterlimit:4;stroke-dasharray:none"
         d="m 59257.6,46813.4 9.1,1.4 8.9,2.2 8.6,3.1 8.3,3.9 7.9,4.8 7.3,5.4 6.8,6.2 6.2,6.8 5.5,7.3 4.7,7.9 3.9,8.3 3.1,8.7 2.2,8.9 1.4,9 0.4,9.2 v 187 l -0.4,9.2 -1.4,9 -2.2,8.9 -3.1,8.7 -3.9,8.3 -4.7,7.9 -5.5,7.3 -6.2,6.8 -6.8,6.2 -7.3,5.4 -7.9,4.8 -8.3,3.9 -8.6,3.1 -8.9,2.2 -9.1,1.4 -9.2,0.4 h -196.8 l -9.2,-0.4 -9.1,-1.4 -8.9,-2.2 -8.6,-3.1 -8.3,-3.9 -7.9,-4.8 -7.3,-5.4 -6.8,-6.2 -6.2,-6.8 -5.5,-7.3 -4.7,-7.9 -3.9,-8.3 -3.1,-8.7 -2.2,-8.9 -1.4,-9 -0.4,-9.2 v -187 l 0.4,-9.2 1.4,-9 2.2,-8.9 3.1,-8.7 3.9,-8.3 4.7,-7.9 5.5,-7.3 6.2,-6.8 6.8,-6.2 7.3,-5.4 7.9,-4.8 8.3,-3.9 8.6,-3.1 8.9,-2.2 9.1,-1.4 9.2,-0.4 h 196.8 z"
         id="path3257" />
    </g>
  </g>
  <g
     id="g1317"
     style="fill:#000000;fill-opacity:1;stroke:#000000;stroke-width:19.685;stroke-linecap:round;stroke-linejoin:round;stroke-miterlimit:4;stroke-dasharray:none" />
  <g
     style="fill:#000000;fill-opacity:1;stroke:#000000;stroke-width:19.685;stroke-linecap:round;stroke-linejoin:round;stroke-miterlimit:4;stroke-dasharray:none"
     id="g1323">
    <g
       id="path1319"
       style="fill:#000000;fill-opacity:1;stroke-width:19.685;stroke-miterlimit:4;stroke-dasharray:none">
      <path
         style="color:#000000;fill:#000000;fill-opacity:1;fill-rule:evenodd;stroke:none;stroke-width:19.685;stroke-miterlimit:4;stroke-dasharray:none"
         d="m 60276.1,45063.4 9.1,1.4 8.9,2.2 8.6,3.1 8.3,3.9 7.9,4.8 7.3,5.4 6.8,6.2 6.2,6.8 5.5,7.3 4.7,7.9 3.9,8.3 3.1,8.7 2.2,8.9 1.4,9 0.4,9.2 v 187 l -0.4,9.2 -1.4,9 -2.2,8.9 -3.1,8.7 -3.9,8.3 -4.7,7.9 -5.5,7.3 -6.2,6.8 -6.8,6.2 -7.3,5.4 -7.9,4.8 -8.3,3.9 -8.6,3.1 -8.9,2.2 -9.1,1.4 -9.2,0.4 h -196.8 l -9.2,-0.4 -9.1,-1.4 -8.9,-2.2 -8.6,-3.1 -8.3,-3.9 -7.9,-4.8 -7.3,-5.4 -6.8,-6.2 -6.2,-6.8 -5.5,-7.3 -4.7,-7.9 -3.9,-8.3 -3.1,-8.7 -2.2,-8.9 -1.4,-9 -0.4,-9.2 v -187 l 0.4,-9.2 1.4,-9 2.2,-8.9 3.1,-8.7 3.9,-8.3 4.7,-7.9 5.5,-7.3 6.2,-6.8 6.8,-6.2 7.3,-5.4 7.9,-4.8 8.3,-3.9 8.6,-3.1 8.9,-2.2 9.1,-1.4 9.2,-0.4 h 196.8 z"
         id="path3263" />
      <path
         style="color:#000000;fill:#000000;fill-opacity:1;fill-rule:evenodd;stroke:none;stroke-width:19.685;stroke-miterlimit:4;stroke-dasharray:none"
         d="m 60276.1,45063.4 9.1,1.4 8.9,2.2 8.6,3.1 8.3,3.9 7.9,4.8 7.3,5.4 6.8,6.2 6.2,6.8 5.5,7.3 4.7,7.9 3.9,8.3 3.1,8.7 2.2,8.9 1.4,9 0.4,9.2 v 187 l -0.4,9.2 -1.4,9 -2.2,8.9 -3.1,8.7 -3.9,8.3 -4.7,7.9 -5.5,7.3 -6.2,6.8 -6.8,6.2 -7.3,5.4 -7.9,4.8 -8.3,3.9 -8.6,3.1 -8.9,2.2 -9.1,1.4 -9.2,0.4 h -196.8 l -9.2,-0.4 -9.1,-1.4 -8.9,-2.2 -8.6,-3.1 -8.3,-3.9 -7.9,-4.8 -7.3,-5.4 -6.8,-6.2 -6.2,-6.8 -5.5,-7.3 -4.7,-7.9 -3.9,-8.3 -3.1,-8.7 -2.2,-8.9 -1.4,-9 -0.4,-9.2 v -187 l 0.4,-9.2 1.4,-9 2.2,-8.9 3.1,-8.7 3.9,-8.3 4.7,-7.9 5.5,-7.3 6.2,-6.8 6.8,-6.2 7.3,-5.4 7.9,-4.8 8.3,-3.9 8.6,-3.1 8.9,-2.2 9.1,-1.4 9.2,-0.4 h 196.8 z"
         id="path3265" />
    </g>
    <g
       id="path1321"
       style="fill:#000000;fill-opacity:1;stroke-width:19.685;stroke-miterlimit:4;stroke-dasharray:none">
      <path
         style="color:#000000;fill:#000000;fill-opacity:1;fill-rule:evenodd;stroke:none;stroke-width:19.685;stroke-miterlimit:4;stroke-dasharray:none"
         d="m 59557.6,45063.4 9.1,1.4 8.9,2.2 8.6,3.1 8.3,3.9 7.9,4.8 7.3,5.4 6.8,6.2 6.2,6.8 5.5,7.3 4.7,7.9 3.9,8.3 3.1,8.7 2.2,8.9 1.4,9 0.4,9.2 v 187 l -0.4,9.2 -1.4,9 -2.2,8.9 -3.1,8.7 -3.9,8.3 -4.7,7.9 -5.5,7.3 -6.2,6.8 -6.8,6.2 -7.3,5.4 -7.9,4.8 -8.3,3.9 -8.6,3.1 -8.9,2.2 -9.1,1.4 -9.2,0.4 h -196.8 l -9.2,-0.4 -9.1,-1.4 -8.9,-2.2 -8.6,-3.1 -8.3,-3.9 -7.9,-4.8 -7.3,-5.4 -6.8,-6.2 -6.2,-6.8 -5.5,-7.3 -4.7,-7.9 -3.9,-8.3 -3.1,-8.7 -2.2,-8.9 -1.4,-9 -0.4,-9.2 v -187 l 0.4,-9.2 1.4,-9 2.2,-8.9 3.1,-8.7 3.9,-8.3 4.7,-7.9 5.5,-7.3 6.2,-6.8 6.8,-6.2 7.3,-5.4 7.9,-4.8 8.3,-3.9 8.6,-3.1 8.9,-2.2 9.1,-1.4 9.2,-0.4 h 196.8 z"
         id="path3271" />
      <path
         style="color:#000000;fill:#000000;fill-opacity:1;fill-rule:evenodd;stroke:none;stroke-width:19.685;stroke-miterlimit:4;stroke-dasharray:none"
         d="m 59557.6,45063.4 9.1,1.4 8.9,2.2 8.6,3.1 8.3,3.9 7.9,4.8 7.3,5.4 6.8,6.2 6.2,6.8 5.5,7.3 4.7,7.9 3.9,8.3 3.1,8.7 2.2,8.9 1.4,9 0.4,9.2 v 187 l -0.4,9.2 -1.4,9 -2.2,8.9 -3.1,8.7 -3.9,8.3 -4.7,7.9 -5.5,7.3 -6.2,6.8 -6.8,6.2 -7.3,5.4 -7.9,4.8 -8.3,3.9 -8.6,3.1 -8.9,2.2 -9.1,1.4 -9.2,0.4 h -196.8 l -9.2,-0.4 -9.1,-1.4 -8.9,-2.2 -8.6,-3.1 -8.3,-3.9 -7.9,-4.8 -7.3,-5.4 -6.8,-6.2 -6.2,-6.8 -5.5,-7.3 -4.7,-7.9 -3.9,-8.3 -3.1,-8.7 -2.2,-8.9 -1.4,-9 -0.4,-9.2 v -187 l 0.4,-9.2 1.4,-9 2.2,-8.9 3.1,-8.7 3.9,-8.3 4.7,-7.9 5.5,-7.3 6.2,-6.8 6.8,-6.2 7.3,-5.4 7.9,-4.8 8.3,-3.9 8.6,-3.1 8.9,-2.2 9.1,-1.4 9.2,-0.4 h 196.8 z"
         id="path3273" />
    </g>
  </g>
  <g
     id="g1325"
     style="fill:#000000;fill-opacity:1;stroke:#000000;stroke-width:19.685;stroke-linecap:round;stroke-linejoin:round;stroke-miterlimit:4;stroke-dasharray:none" />
  <g
     style="fill:#000000;fill-opacity:1;stroke:#000000;stroke-width:19.685;stroke-linecap:round;stroke-linejoin:round;stroke-miterlimit:4;stroke-dasharray:none"
     id="g1331">
    <g
       id="path1327"
       style="fill:#000000;fill-opacity:1;stroke-width:19.685;stroke-miterlimit:4;stroke-dasharray:none">
      <path
         style="color:#000000;fill:#000000;fill-opacity:1;fill-rule:evenodd;stroke:none;stroke-width:19.685;stroke-miterlimit:4;stroke-dasharray:none"
         d="m 56929.9,45147.2 v 905.6 h -984.2 v -905.6 z"
         id="path3279" />
      <path
         style="color:#000000;fill:#000000;fill-opacity:1;fill-rule:evenodd;stroke:none;stroke-width:19.685;stroke-miterlimit:4;stroke-dasharray:none"
         d="m 56929.9,45147.2 v 905.6 h -984.2 v -905.6 z"
         id="path3281" />
    </g>
    <g
       id="path1329"
       style="fill:#000000;fill-opacity:1;stroke-width:19.685;stroke-miterlimit:4;stroke-dasharray:none">
      <path
         style="color:#000000;fill:#000000;fill-opacity:1;fill-rule:evenodd;stroke:none;stroke-width:19.685;stroke-miterlimit:4;stroke-dasharray:none"
         d="m 58622.8,45147.2 v 905.6 h -984.2 v -905.6 z"
         id="path3287" />
      <path
         style="color:#000000;fill:#000000;fill-opacity:1;fill-rule:evenodd;stroke:none;stroke-width:19.685;stroke-miterlimit:4;stroke-dasharray:none"
         d="m 58622.8,45147.2 v 905.6 h -984.2 v -905.6 z"
         id="path3289" />
    </g>
  </g>
  <g
     id="g1333"
     style="fill:#000000;fill-opacity:1;stroke:#000000;stroke-width:19.685;stroke-linecap:round;stroke-linejoin:round;stroke-miterlimit:4;stroke-dasharray:none" />
  <g
     style="fill:#000000;fill-opacity:1;stroke:#000000;stroke-width:19.685;stroke-linecap:round;stroke-linejoin:round;stroke-miterlimit:4;stroke-dasharray:none"
     id="g1339">
    <g
       id="path1335"
       style="fill:#000000;fill-opacity:1;stroke-width:19.685;stroke-miterlimit:4;stroke-dasharray:none">
      <path
         style="color:#000000;fill:#000000;fill-opacity:1;fill-rule:evenodd;stroke:none;stroke-width:19.685;stroke-miterlimit:4;stroke-dasharray:none"
         d="m 51134.1,43499.3 9.5,1.4 9.4,2.4 9.1,3.2 8.7,4.1 8.3,5 7.7,5.8 7.2,6.4 6.5,7.2 5.7,7.8 5,8.2 4.1,8.8 3.3,9.1 2.3,9.3 1.5,9.6 0.4,9.6 v 374.1 l -0.4,9.6 -1.5,9.6 -2.3,9.3 -3.3,9.1 -4.1,8.8 -5,8.2 -5.7,7.8 -6.5,7.2 -7.2,6.4 -7.7,5.8 -8.3,5 -8.7,4.1 -9.1,3.2 -9.4,2.4 -9.5,1.4 -9.7,0.5 h -265.7 l -9.7,-0.5 -9.5,-1.4 -9.4,-2.4 -9.1,-3.2 -8.7,-4.1 -8.3,-5 -7.8,-5.8 -7.1,-6.4 -6.5,-7.2 -5.8,-7.8 -4.9,-8.2 -4.2,-8.8 -3.2,-9.1 -2.4,-9.3 -1.4,-9.6 -0.5,-9.6 v -374.1 l 0.5,-9.6 1.4,-9.6 2.4,-9.3 3.2,-9.1 4.2,-8.8 4.9,-8.2 5.8,-7.8 6.5,-7.2 7.1,-6.4 7.8,-5.8 8.3,-5 8.7,-4.1 9.1,-3.2 9.4,-2.4 9.5,-1.4 9.7,-0.5 h 265.7 z"
         id="path3295" />
      <path
         style="color:#000000;fill:#000000;fill-opacity:1;fill-rule:evenodd;stroke:none;stroke-width:19.685;stroke-miterlimit:4;stroke-dasharray:none"
         d="m 51134.1,43499.3 9.5,1.4 9.4,2.4 9.1,3.2 8.7,4.1 8.3,5 7.7,5.8 7.2,6.4 6.5,7.2 5.7,7.8 5,8.2 4.1,8.8 3.3,9.1 2.3,9.3 1.5,9.6 0.4,9.6 v 374.1 l -0.4,9.6 -1.5,9.6 -2.3,9.3 -3.3,9.1 -4.1,8.8 -5,8.2 -5.7,7.8 -6.5,7.2 -7.2,6.4 -7.7,5.8 -8.3,5 -8.7,4.1 -9.1,3.2 -9.4,2.4 -9.5,1.4 -9.7,0.5 h -265.7 l -9.7,-0.5 -9.5,-1.4 -9.4,-2.4 -9.1,-3.2 -8.7,-4.1 -8.3,-5 -7.8,-5.8 -7.1,-6.4 -6.5,-7.2 -5.8,-7.8 -4.9,-8.2 -4.2,-8.8 -3.2,-9.1 -2.4,-9.3 -1.4,-9.6 -0.5,-9.6 v -374.1 l 0.5,-9.6 1.4,-9.6 2.4,-9.3 3.2,-9.1 4.2,-8.8 4.9,-8.2 5.8,-7.8 6.5,-7.2 7.1,-6.4 7.8,-5.8 8.3,-5 8.7,-4.1 9.1,-3.2 9.4,-2.4 9.5,-1.4 9.7,-0.5 h 265.7 z"
         id="path3297" />
    </g>
    <g
       id="path1337"
       style="fill:#000000;fill-opacity:1;stroke-width:19.685;stroke-miterlimit:4;stroke-dasharray:none">
      <path
         style="color:#000000;fill:#000000;fill-opacity:1;fill-rule:evenodd;stroke:none;stroke-width:19.685;stroke-miterlimit:4;stroke-dasharray:none"
         d="m 51951,43499.3 9.5,1.4 9.4,2.4 9.1,3.2 8.7,4.1 8.3,5 7.8,5.8 7.1,6.4 6.5,7.2 5.8,7.8 4.9,8.2 4.2,8.8 3.2,9.1 2.4,9.3 1.4,9.6 0.5,9.6 v 374.1 l -0.5,9.6 -1.4,9.6 -2.4,9.3 -3.2,9.1 -4.2,8.8 -4.9,8.2 -5.8,7.8 -6.5,7.2 -7.1,6.4 -7.8,5.8 -8.3,5 -8.7,4.1 -9.1,3.2 -9.4,2.4 -9.5,1.4 -9.7,0.5 h -265.7 l -9.7,-0.5 -9.5,-1.4 -9.4,-2.4 -9.1,-3.2 -8.7,-4.1 -8.3,-5 -7.7,-5.8 -7.2,-6.4 -6.5,-7.2 -5.7,-7.8 -5,-8.2 -4.1,-8.8 -3.3,-9.1 -2.3,-9.3 -1.5,-9.6 -0.4,-9.6 v -374.1 l 0.4,-9.6 1.5,-9.6 2.3,-9.3 3.3,-9.1 4.1,-8.8 5,-8.2 5.7,-7.8 6.5,-7.2 7.2,-6.4 7.7,-5.8 8.3,-5 8.7,-4.1 9.1,-3.2 9.4,-2.4 9.5,-1.4 9.7,-0.5 h 265.7 z"
         id="path3303" />
      <path
         style="color:#000000;fill:#000000;fill-opacity:1;fill-rule:evenodd;stroke:none;stroke-width:19.685;stroke-miterlimit:4;stroke-dasharray:none"
         d="m 51951,43499.3 9.5,1.4 9.4,2.4 9.1,3.2 8.7,4.1 8.3,5 7.8,5.8 7.1,6.4 6.5,7.2 5.8,7.8 4.9,8.2 4.2,8.8 3.2,9.1 2.4,9.3 1.4,9.6 0.5,9.6 v 374.1 l -0.5,9.6 -1.4,9.6 -2.4,9.3 -3.2,9.1 -4.2,8.8 -4.9,8.2 -5.8,7.8 -6.5,7.2 -7.1,6.4 -7.8,5.8 -8.3,5 -8.7,4.1 -9.1,3.2 -9.4,2.4 -9.5,1.4 -9.7,0.5 h -265.7 l -9.7,-0.5 -9.5,-1.4 -9.4,-2.4 -9.1,-3.2 -8.7,-4.1 -8.3,-5 -7.7,-5.8 -7.2,-6.4 -6.5,-7.2 -5.7,-7.8 -5,-8.2 -4.1,-8.8 -3.3,-9.1 -2.3,-9.3 -1.5,-9.6 -0.4,-9.6 v -374.1 l 0.4,-9.6 1.5,-9.6 2.3,-9.3 3.3,-9.1 4.1,-8.8 5,-8.2 5.7,-7.8 6.5,-7.2 7.2,-6.4 7.7,-5.8 8.3,-5 8.7,-4.1 9.1,-3.2 9.4,-2.4 9.5,-1.4 9.7,-0.5 h 265.7 z"
         id="path3305" />
    </g>
  </g>
  <g
     id="g1341"
     style="fill:#000000;fill-opacity:1;stroke:#000000;stroke-width:19.685;stroke-linecap:round;stroke-linejoin:round;stroke-miterlimit:4;stroke-dasharray:none" />
  <g
     style="fill:#000000;fill-opacity:1;stroke:#000000;stroke-width:19.685;stroke-linecap:round;stroke-linejoin:round;stroke-miterlimit:4;stroke-dasharray:none"
     id="g1347">
    <g
       id="path1343"
       style="fill:#000000;fill-opacity:1;stroke-width:19.685;stroke-miterlimit:4;stroke-dasharray:none">
      <path
         style="color:#000000;fill:#000000;fill-opacity:1;fill-rule:evenodd;stroke:none;stroke-width:19.685;stroke-miterlimit:4;stroke-dasharray:none"
         d="m 48796.7,40945 9.5,1.4 9.4,2.3 9.1,3.3 8.7,4.1 8.3,5 7.7,5.7 7.2,6.5 6.5,7.2 5.7,7.7 5,8.3 4.1,8.7 3.3,9.1 2.3,9.4 1.5,9.6 0.4,9.6 v 265.8 l -0.4,9.6 -1.5,9.6 -2.3,9.3 -3.3,9.1 -4.1,8.8 -5,8.2 -5.7,7.8 -6.5,7.2 -7.2,6.4 -7.7,5.8 -8.3,5 -8.7,4.1 -9.1,3.2 -9.4,2.4 -9.5,1.4 -9.7,0.5 h -374 l -9.7,-0.5 -9.5,-1.4 -9.4,-2.4 -9.1,-3.2 -8.7,-4.1 -8.3,-5 -7.7,-5.8 -7.2,-6.4 -6.5,-7.2 -5.7,-7.8 -5,-8.2 -4.1,-8.8 -3.3,-9.1 -2.3,-9.3 -1.5,-9.6 -0.4,-9.6 v -265.8 l 0.4,-9.6 1.5,-9.6 2.3,-9.4 3.3,-9.1 4.1,-8.7 5,-8.3 5.7,-7.7 6.5,-7.2 7.2,-6.5 7.7,-5.7 8.3,-5 8.7,-4.1 9.1,-3.3 9.4,-2.3 9.5,-1.4 9.7,-0.5 h 374 z"
         id="path3311" />
      <path
         style="color:#000000;fill:#000000;fill-opacity:1;fill-rule:evenodd;stroke:none;stroke-width:19.685;stroke-miterlimit:4;stroke-dasharray:none"
         d="m 48796.7,40945 9.5,1.4 9.4,2.3 9.1,3.3 8.7,4.1 8.3,5 7.7,5.7 7.2,6.5 6.5,7.2 5.7,7.7 5,8.3 4.1,8.7 3.3,9.1 2.3,9.4 1.5,9.6 0.4,9.6 v 265.8 l -0.4,9.6 -1.5,9.6 -2.3,9.3 -3.3,9.1 -4.1,8.8 -5,8.2 -5.7,7.8 -6.5,7.2 -7.2,6.4 -7.7,5.8 -8.3,5 -8.7,4.1 -9.1,3.2 -9.4,2.4 -9.5,1.4 -9.7,0.5 h -374 l -9.7,-0.5 -9.5,-1.4 -9.4,-2.4 -9.1,-3.2 -8.7,-4.1 -8.3,-5 -7.7,-5.8 -7.2,-6.4 -6.5,-7.2 -5.7,-7.8 -5,-8.2 -4.1,-8.8 -3.3,-9.1 -2.3,-9.3 -1.5,-9.6 -0.4,-9.6 v -265.8 l 0.4,-9.6 1.5,-9.6 2.3,-9.4 3.3,-9.1 4.1,-8.7 5,-8.3 5.7,-7.7 6.5,-7.2 7.2,-6.5 7.7,-5.7 8.3,-5 8.7,-4.1 9.1,-3.3 9.4,-2.3 9.5,-1.4 9.7,-0.5 h 374 z"
         id="path3313" />
    </g>
    <g
       id="path1345"
       style="fill:#000000;fill-opacity:1;stroke-width:19.685;stroke-miterlimit:4;stroke-dasharray:none">
      <path
         style="color:#000000;fill:#000000;fill-opacity:1;fill-rule:evenodd;stroke:none;stroke-width:19.685;stroke-miterlimit:4;stroke-dasharray:none"
         d="m 48796.7,41761.9 9.5,1.4 9.4,2.4 9.1,3.2 8.7,4.1 8.3,5 7.7,5.8 7.2,6.4 6.5,7.2 5.7,7.8 5,8.2 4.1,8.8 3.3,9.1 2.3,9.3 1.5,9.6 0.4,9.6 v 265.8 l -0.4,9.6 -1.5,9.6 -2.3,9.4 -3.3,9.1 -4.1,8.7 -5,8.3 -5.7,7.7 -6.5,7.2 -7.2,6.5 -7.7,5.7 -8.3,5 -8.7,4.1 -9.1,3.3 -9.4,2.3 -9.5,1.4 -9.7,0.5 h -374 l -9.7,-0.5 -9.5,-1.4 -9.4,-2.3 -9.1,-3.3 -8.7,-4.1 -8.3,-5 -7.7,-5.7 -7.2,-6.5 -6.5,-7.2 -5.7,-7.7 -5,-8.3 -4.1,-8.7 -3.3,-9.1 -2.3,-9.4 -1.5,-9.6 -0.4,-9.6 v -265.8 l 0.4,-9.6 1.5,-9.6 2.3,-9.3 3.3,-9.1 4.1,-8.8 5,-8.2 5.7,-7.8 6.5,-7.2 7.2,-6.4 7.7,-5.8 8.3,-5 8.7,-4.1 9.1,-3.2 9.4,-2.4 9.5,-1.4 9.7,-0.5 h 374 z"
         id="path3319" />
      <path
         style="color:#000000;fill:#000000;fill-opacity:1;fill-rule:evenodd;stroke:none;stroke-width:19.685;stroke-miterlimit:4;stroke-dasharray:none"
         d="m 48796.7,41761.9 9.5,1.4 9.4,2.4 9.1,3.2 8.7,4.1 8.3,5 7.7,5.8 7.2,6.4 6.5,7.2 5.7,7.8 5,8.2 4.1,8.8 3.3,9.1 2.3,9.3 1.5,9.6 0.4,9.6 v 265.8 l -0.4,9.6 -1.5,9.6 -2.3,9.4 -3.3,9.1 -4.1,8.7 -5,8.3 -5.7,7.7 -6.5,7.2 -7.2,6.5 -7.7,5.7 -8.3,5 -8.7,4.1 -9.1,3.3 -9.4,2.3 -9.5,1.4 -9.7,0.5 h -374 l -9.7,-0.5 -9.5,-1.4 -9.4,-2.3 -9.1,-3.3 -8.7,-4.1 -8.3,-5 -7.7,-5.7 -7.2,-6.5 -6.5,-7.2 -5.7,-7.7 -5,-8.3 -4.1,-8.7 -3.3,-9.1 -2.3,-9.4 -1.5,-9.6 -0.4,-9.6 v -265.8 l 0.4,-9.6 1.5,-9.6 2.3,-9.3 3.3,-9.1 4.1,-8.8 5,-8.2 5.7,-7.8 6.5,-7.2 7.2,-6.4 7.7,-5.8 8.3,-5 8.7,-4.1 9.1,-3.2 9.4,-2.4 9.5,-1.4 9.7,-0.5 h 374 z"
         id="path3321" />
    </g>
  </g>
  <g
     id="g1349"
     style="fill:#000000;fill-opacity:1;stroke:#000000;stroke-width:19.685;stroke-linecap:round;stroke-linejoin:round;stroke-miterlimit:4;stroke-dasharray:none" />
  <g
     style="fill:#000000;fill-opacity:1;stroke:#000000;stroke-width:19.685;stroke-linecap:round;stroke-linejoin:round;stroke-miterlimit:4;stroke-dasharray:none"
     id="g1355">
    <g
       id="path1351"
       style="fill:#000000;fill-opacity:1;stroke-width:19.685;stroke-miterlimit:4;stroke-dasharray:none">
      <path
         style="color:#000000;fill:#000000;fill-opacity:1;fill-rule:evenodd;stroke:none;stroke-width:19.685;stroke-miterlimit:4;stroke-dasharray:none"
         d="m 55542.7,44724.5 9.6,1.4 9.3,2.4 9.1,3.2 8.8,4.1 8.3,5 7.7,5.8 7.2,6.4 6.5,7.2 5.7,7.8 5,8.2 4.1,8.8 3.3,9.1 2.3,9.3 1.4,9.6 0.5,9.6 v 324.8 l -0.5,9.7 -1.4,9.5 -2.3,9.4 -3.3,9.1 -4.1,8.7 -5,8.3 -5.7,7.8 -6.5,7.1 -7.2,6.5 -7.7,5.8 -8.3,4.9 -8.8,4.2 -9.1,3.2 -9.3,2.4 -9.6,1.4 -9.6,0.5 h -866.2 l -9.6,-0.5 -9.6,-1.4 -9.3,-2.4 -9.1,-3.2 -8.8,-4.2 -8.3,-4.9 -7.7,-5.8 -7.2,-6.5 -6.5,-7.1 -5.7,-7.8 -5,-8.3 -4.1,-8.7 -3.3,-9.1 -2.3,-9.4 -1.4,-9.5 -0.5,-9.7 v -324.8 l 0.5,-9.6 1.4,-9.6 2.3,-9.3 3.3,-9.1 4.1,-8.8 5,-8.2 5.7,-7.8 6.5,-7.2 7.2,-6.4 7.7,-5.8 8.3,-5 8.8,-4.1 9.1,-3.2 9.3,-2.4 9.6,-1.4 9.6,-0.5 h 866.2 z"
         id="path3327" />
      <path
         style="color:#000000;fill:#000000;fill-opacity:1;fill-rule:evenodd;stroke:none;stroke-width:19.685;stroke-miterlimit:4;stroke-dasharray:none"
         d="m 55542.7,44724.5 9.6,1.4 9.3,2.4 9.1,3.2 8.8,4.1 8.3,5 7.7,5.8 7.2,6.4 6.5,7.2 5.7,7.8 5,8.2 4.1,8.8 3.3,9.1 2.3,9.3 1.4,9.6 0.5,9.6 v 324.8 l -0.5,9.7 -1.4,9.5 -2.3,9.4 -3.3,9.1 -4.1,8.7 -5,8.3 -5.7,7.8 -6.5,7.1 -7.2,6.5 -7.7,5.8 -8.3,4.9 -8.8,4.2 -9.1,3.2 -9.3,2.4 -9.6,1.4 -9.6,0.5 h -866.2 l -9.6,-0.5 -9.6,-1.4 -9.3,-2.4 -9.1,-3.2 -8.8,-4.2 -8.3,-4.9 -7.7,-5.8 -7.2,-6.5 -6.5,-7.1 -5.7,-7.8 -5,-8.3 -4.1,-8.7 -3.3,-9.1 -2.3,-9.4 -1.4,-9.5 -0.5,-9.7 v -324.8 l 0.5,-9.6 1.4,-9.6 2.3,-9.3 3.3,-9.1 4.1,-8.8 5,-8.2 5.7,-7.8 6.5,-7.2 7.2,-6.4 7.7,-5.8 8.3,-5 8.8,-4.1 9.1,-3.2 9.3,-2.4 9.6,-1.4 9.6,-0.5 h 866.2 z"
         id="path3329" />
    </g>
    <g
       id="path1353"
       style="fill:#000000;fill-opacity:1;stroke-width:19.685;stroke-miterlimit:4;stroke-dasharray:none">
      <path
         style="color:#000000;fill:#000000;fill-opacity:1;fill-rule:evenodd;stroke:none;stroke-width:19.685;stroke-miterlimit:4;stroke-dasharray:none"
         d="m 55542.7,45954.8 9.6,1.4 9.3,2.4 9.1,3.2 8.8,4.2 8.3,4.9 7.7,5.8 7.2,6.5 6.5,7.1 5.7,7.8 5,8.3 4.1,8.7 3.3,9.1 2.3,9.4 1.4,9.5 0.5,9.7 v 324.8 l -0.5,9.6 -1.4,9.6 -2.3,9.3 -3.3,9.1 -4.1,8.8 -5,8.2 -5.7,7.8 -6.5,7.2 -7.2,6.4 -7.7,5.8 -8.3,5 -8.8,4.1 -9.1,3.2 -9.3,2.4 -9.6,1.4 -9.6,0.5 h -866.2 l -9.6,-0.5 -9.6,-1.4 -9.3,-2.4 -9.1,-3.2 -8.8,-4.1 -8.3,-5 -7.7,-5.8 -7.2,-6.4 -6.5,-7.2 -5.7,-7.8 -5,-8.2 -4.1,-8.8 -3.3,-9.1 -2.3,-9.3 -1.4,-9.6 -0.5,-9.6 v -324.8 l 0.5,-9.7 1.4,-9.5 2.3,-9.4 3.3,-9.1 4.1,-8.7 5,-8.3 5.7,-7.8 6.5,-7.1 7.2,-6.5 7.7,-5.8 8.3,-4.9 8.8,-4.2 9.1,-3.2 9.3,-2.4 9.6,-1.4 9.6,-0.5 h 866.2 z"
         id="path3335" />
      <path
         style="color:#000000;fill:#000000;fill-opacity:1;fill-rule:evenodd;stroke:none;stroke-width:19.685;stroke-miterlimit:4;stroke-dasharray:none"
         d="m 55542.7,45954.8 9.6,1.4 9.3,2.4 9.1,3.2 8.8,4.2 8.3,4.9 7.7,5.8 7.2,6.5 6.5,7.1 5.7,7.8 5,8.3 4.1,8.7 3.3,9.1 2.3,9.4 1.4,9.5 0.5,9.7 v 324.8 l -0.5,9.6 -1.4,9.6 -2.3,9.3 -3.3,9.1 -4.1,8.8 -5,8.2 -5.7,7.8 -6.5,7.2 -7.2,6.4 -7.7,5.8 -8.3,5 -8.8,4.1 -9.1,3.2 -9.3,2.4 -9.6,1.4 -9.6,0.5 h -866.2 l -9.6,-0.5 -9.6,-1.4 -9.3,-2.4 -9.1,-3.2 -8.8,-4.1 -8.3,-5 -7.7,-5.8 -7.2,-6.4 -6.5,-7.2 -5.7,-7.8 -5,-8.2 -4.1,-8.8 -3.3,-9.1 -2.3,-9.3 -1.4,-9.6 -0.5,-9.6 v -324.8 l 0.5,-9.7 1.4,-9.5 2.3,-9.4 3.3,-9.1 4.1,-8.7 5,-8.3 5.7,-7.8 6.5,-7.1 7.2,-6.5 7.7,-5.8 8.3,-4.9 8.8,-4.2 9.1,-3.2 9.3,-2.4 9.6,-1.4 9.6,-0.5 h 866.2 z"
         id="path3337" />
    </g>
  </g>
  <g
     id="g1357"
     style="fill:#000000;fill-opacity:1;stroke:#000000;stroke-width:19.685;stroke-linecap:round;stroke-linejoin:round;stroke-miterlimit:4;stroke-dasharray:none" />
  <g
     style="fill:#000000;fill-opacity:1;stroke:#000000;stroke-width:19.685;stroke-linecap:round;stroke-linejoin:round;stroke-miterlimit:4;stroke-dasharray:none"
     id="g1363">
    <g
       id="path1359"
       style="fill:#000000;fill-opacity:1;stroke-width:19.685;stroke-miterlimit:4;stroke-dasharray:none">
      <path
         style="color:#000000;fill:#000000;fill-opacity:1;fill-rule:evenodd;stroke:none;stroke-width:19.685;stroke-miterlimit:4;stroke-dasharray:none"
         d="m 50596.7,39861.9 9.5,1.4 9.4,2.4 9.1,3.2 8.7,4.1 8.3,5 7.7,5.8 7.2,6.4 6.5,7.2 5.7,7.8 5,8.2 4.1,8.8 3.3,9.1 2.3,9.3 1.5,9.6 0.4,9.6 v 265.8 l -0.4,9.6 -1.5,9.6 -2.3,9.4 -3.3,9.1 -4.1,8.7 -5,8.3 -5.7,7.7 -6.5,7.2 -7.2,6.5 -7.7,5.7 -8.3,5 -8.7,4.1 -9.1,3.3 -9.4,2.3 -9.5,1.4 -9.7,0.5 h -374 l -9.7,-0.5 -9.5,-1.4 -9.4,-2.3 -9.1,-3.3 -8.7,-4.1 -8.3,-5 -7.7,-5.7 -7.2,-6.5 -6.5,-7.2 -5.7,-7.7 -5,-8.3 -4.1,-8.7 -3.3,-9.1 -2.3,-9.4 -1.5,-9.6 -0.4,-9.6 v -265.8 l 0.4,-9.6 1.5,-9.6 2.3,-9.3 3.3,-9.1 4.1,-8.8 5,-8.2 5.7,-7.8 6.5,-7.2 7.2,-6.4 7.7,-5.8 8.3,-5 8.7,-4.1 9.1,-3.2 9.4,-2.4 9.5,-1.4 9.7,-0.5 h 374 z"
         id="path3343" />
      <path
         style="color:#000000;fill:#000000;fill-opacity:1;fill-rule:evenodd;stroke:none;stroke-width:19.685;stroke-miterlimit:4;stroke-dasharray:none"
         d="m 50596.7,39861.9 9.5,1.4 9.4,2.4 9.1,3.2 8.7,4.1 8.3,5 7.7,5.8 7.2,6.4 6.5,7.2 5.7,7.8 5,8.2 4.1,8.8 3.3,9.1 2.3,9.3 1.5,9.6 0.4,9.6 v 265.8 l -0.4,9.6 -1.5,9.6 -2.3,9.4 -3.3,9.1 -4.1,8.7 -5,8.3 -5.7,7.7 -6.5,7.2 -7.2,6.5 -7.7,5.7 -8.3,5 -8.7,4.1 -9.1,3.3 -9.4,2.3 -9.5,1.4 -9.7,0.5 h -374 l -9.7,-0.5 -9.5,-1.4 -9.4,-2.3 -9.1,-3.3 -8.7,-4.1 -8.3,-5 -7.7,-5.7 -7.2,-6.5 -6.5,-7.2 -5.7,-7.7 -5,-8.3 -4.1,-8.7 -3.3,-9.1 -2.3,-9.4 -1.5,-9.6 -0.4,-9.6 v -265.8 l 0.4,-9.6 1.5,-9.6 2.3,-9.3 3.3,-9.1 4.1,-8.8 5,-8.2 5.7,-7.8 6.5,-7.2 7.2,-6.4 7.7,-5.8 8.3,-5 8.7,-4.1 9.1,-3.2 9.4,-2.4 9.5,-1.4 9.7,-0.5 h 374 z"
         id="path3345" />
    </g>
    <g
       id="path1361"
       style="fill:#000000;fill-opacity:1;stroke-width:19.685;stroke-miterlimit:4;stroke-dasharray:none">
      <path
         style="color:#000000;fill:#000000;fill-opacity:1;fill-rule:evenodd;stroke:none;stroke-width:19.685;stroke-miterlimit:4;stroke-dasharray:none"
         d="m 50596.7,39045 9.5,1.4 9.4,2.3 9.1,3.3 8.7,4.1 8.3,5 7.7,5.7 7.2,6.5 6.5,7.2 5.7,7.7 5,8.3 4.1,8.7 3.3,9.1 2.3,9.4 1.5,9.6 0.4,9.6 v 265.8 l -0.4,9.6 -1.5,9.6 -2.3,9.3 -3.3,9.1 -4.1,8.8 -5,8.2 -5.7,7.8 -6.5,7.2 -7.2,6.4 -7.7,5.8 -8.3,5 -8.7,4.1 -9.1,3.2 -9.4,2.4 -9.5,1.4 -9.7,0.5 h -374 l -9.7,-0.5 -9.5,-1.4 -9.4,-2.4 -9.1,-3.2 -8.7,-4.1 -8.3,-5 -7.7,-5.8 -7.2,-6.4 -6.5,-7.2 -5.7,-7.8 -5,-8.2 -4.1,-8.8 -3.3,-9.1 -2.3,-9.3 -1.5,-9.6 -0.4,-9.6 v -265.8 l 0.4,-9.6 1.5,-9.6 2.3,-9.4 3.3,-9.1 4.1,-8.7 5,-8.3 5.7,-7.7 6.5,-7.2 7.2,-6.5 7.7,-5.7 8.3,-5 8.7,-4.1 9.1,-3.3 9.4,-2.3 9.5,-1.4 9.7,-0.5 h 374 z"
         id="path3351" />
      <path
         style="color:#000000;fill:#000000;fill-opacity:1;fill-rule:evenodd;stroke:none;stroke-width:19.685;stroke-miterlimit:4;stroke-dasharray:none"
         d="m 50596.7,39045 9.5,1.4 9.4,2.3 9.1,3.3 8.7,4.1 8.3,5 7.7,5.7 7.2,6.5 6.5,7.2 5.7,7.7 5,8.3 4.1,8.7 3.3,9.1 2.3,9.4 1.5,9.6 0.4,9.6 v 265.8 l -0.4,9.6 -1.5,9.6 -2.3,9.3 -3.3,9.1 -4.1,8.8 -5,8.2 -5.7,7.8 -6.5,7.2 -7.2,6.4 -7.7,5.8 -8.3,5 -8.7,4.1 -9.1,3.2 -9.4,2.4 -9.5,1.4 -9.7,0.5 h -374 l -9.7,-0.5 -9.5,-1.4 -9.4,-2.4 -9.1,-3.2 -8.7,-4.1 -8.3,-5 -7.7,-5.8 -7.2,-6.4 -6.5,-7.2 -5.7,-7.8 -5,-8.2 -4.1,-8.8 -3.3,-9.1 -2.3,-9.3 -1.5,-9.6 -0.4,-9.6 v -265.8 l 0.4,-9.6 1.5,-9.6 2.3,-9.4 3.3,-9.1 4.1,-8.7 5,-8.3 5.7,-7.7 6.5,-7.2 7.2,-6.5 7.7,-5.7 8.3,-5 8.7,-4.1 9.1,-3.3 9.4,-2.3 9.5,-1.4 9.7,-0.5 h 374 z"
         id="path3353" />
    </g>
  </g>
  <g
     id="g1365"
     style="fill:#000000;fill-opacity:1;stroke:#000000;stroke-width:19.685;stroke-linecap:round;stroke-linejoin:round;stroke-miterlimit:4;stroke-dasharray:none" />
  <g
     id="g1367"
     style="fill:#000000;fill-opacity:1;stroke:#000000;stroke-width:19.685;stroke-linecap:round;stroke-linejoin:round;stroke-miterlimit:4;stroke-dasharray:none" />
  <g
     id="g1369"
     style="fill:#000000;fill-opacity:1;stroke:#000000;stroke-width:19.685;stroke-linecap:round;stroke-linejoin:round;stroke-miterlimit:4;stroke-dasharray:none" />
</svg>
