%TF.GenerationSoftware,KiCad,Pcbnew,5.1.10*%
%TF.CreationDate,2021-12-20T11:10:17+01:00*%
%TF.ProjectId,osculati_amperemetre_sensor,6f736375-6c61-4746-995f-616d70657265,rev?*%
%TF.SameCoordinates,Original*%
%TF.FileFunction,Copper,L2,Bot*%
%TF.FilePolarity,Positive*%
%FSLAX46Y46*%
G04 Gerber Fmt 4.6, Leading zero omitted, Abs format (unit mm)*
G04 Created by KiCad (PCBNEW 5.1.10) date 2021-12-20 11:10:17*
%MOMM*%
%LPD*%
G01*
G04 APERTURE LIST*
%TA.AperFunction,Profile*%
%ADD10C,0.050000*%
%TD*%
%TA.AperFunction,ComponentPad*%
%ADD11O,3.500000X5.000000*%
%TD*%
%TA.AperFunction,SMDPad,CuDef*%
%ADD12R,2.300000X2.500000*%
%TD*%
%TA.AperFunction,SMDPad,CuDef*%
%ADD13R,2.500000X2.300000*%
%TD*%
%TA.AperFunction,ComponentPad*%
%ADD14O,4.000000X2.000000*%
%TD*%
%TA.AperFunction,SMDPad,CuDef*%
%ADD15R,1.560000X0.400000*%
%TD*%
%TA.AperFunction,SMDPad,CuDef*%
%ADD16R,2.000000X1.500000*%
%TD*%
%TA.AperFunction,SMDPad,CuDef*%
%ADD17R,2.000000X3.800000*%
%TD*%
%TA.AperFunction,SMDPad,CuDef*%
%ADD18R,0.900000X0.800000*%
%TD*%
%TA.AperFunction,ComponentPad*%
%ADD19O,5.000000X3.400000*%
%TD*%
%TA.AperFunction,ComponentPad*%
%ADD20O,3.400000X5.000000*%
%TD*%
%TA.AperFunction,Conductor*%
%ADD21C,0.400000*%
%TD*%
%TA.AperFunction,Conductor*%
%ADD22C,0.600000*%
%TD*%
%TA.AperFunction,Conductor*%
%ADD23C,1.500000*%
%TD*%
%TA.AperFunction,Conductor*%
%ADD24C,0.800000*%
%TD*%
%TA.AperFunction,Conductor*%
%ADD25C,0.254000*%
%TD*%
%TA.AperFunction,Conductor*%
%ADD26C,0.100000*%
%TD*%
G04 APERTURE END LIST*
D10*
X104000000Y-141000000D02*
X104000000Y-89000000D01*
X166000000Y-141000000D02*
X104000000Y-141000000D01*
X166000000Y-89000000D02*
X166000000Y-141000000D01*
X104000000Y-89000000D02*
X166000000Y-89000000D01*
X160000000Y-95000000D02*
X110000000Y-95000000D01*
X160000000Y-135000000D02*
X160000000Y-95000000D01*
X110000000Y-135000000D02*
X160000000Y-135000000D01*
X110000000Y-95000000D02*
X110000000Y-135000000D01*
%TO.P,R4,1*%
%TO.N,/out*%
%TA.AperFunction,SMDPad,CuDef*%
G36*
G01*
X121996000Y-116389999D02*
X121996000Y-117290001D01*
G75*
G02*
X121746001Y-117540000I-249999J0D01*
G01*
X121045999Y-117540000D01*
G75*
G02*
X120796000Y-117290001I0J249999D01*
G01*
X120796000Y-116389999D01*
G75*
G02*
X121045999Y-116140000I249999J0D01*
G01*
X121746001Y-116140000D01*
G75*
G02*
X121996000Y-116389999I0J-249999D01*
G01*
G37*
%TD.AperFunction*%
%TO.P,R4,2*%
%TO.N,Net-(R4-Pad2)*%
%TA.AperFunction,SMDPad,CuDef*%
G36*
G01*
X119996000Y-116389999D02*
X119996000Y-117290001D01*
G75*
G02*
X119746001Y-117540000I-249999J0D01*
G01*
X119045999Y-117540000D01*
G75*
G02*
X118796000Y-117290001I0J249999D01*
G01*
X118796000Y-116389999D01*
G75*
G02*
X119045999Y-116140000I249999J0D01*
G01*
X119746001Y-116140000D01*
G75*
G02*
X119996000Y-116389999I0J-249999D01*
G01*
G37*
%TD.AperFunction*%
%TD*%
%TO.P,C5,2*%
%TO.N,GND*%
%TA.AperFunction,SMDPad,CuDef*%
G36*
G01*
X136594000Y-111219000D02*
X136594000Y-110269000D01*
G75*
G02*
X136844000Y-110019000I250000J0D01*
G01*
X137519000Y-110019000D01*
G75*
G02*
X137769000Y-110269000I0J-250000D01*
G01*
X137769000Y-111219000D01*
G75*
G02*
X137519000Y-111469000I-250000J0D01*
G01*
X136844000Y-111469000D01*
G75*
G02*
X136594000Y-111219000I0J250000D01*
G01*
G37*
%TD.AperFunction*%
%TO.P,C5,1*%
%TO.N,+5V*%
%TA.AperFunction,SMDPad,CuDef*%
G36*
G01*
X134519000Y-111219000D02*
X134519000Y-110269000D01*
G75*
G02*
X134769000Y-110019000I250000J0D01*
G01*
X135444000Y-110019000D01*
G75*
G02*
X135694000Y-110269000I0J-250000D01*
G01*
X135694000Y-111219000D01*
G75*
G02*
X135444000Y-111469000I-250000J0D01*
G01*
X134769000Y-111469000D01*
G75*
G02*
X134519000Y-111219000I0J250000D01*
G01*
G37*
%TD.AperFunction*%
%TD*%
D11*
%TO.P,J3,3*%
%TO.N,/out*%
X125087000Y-130063000D03*
%TO.P,J3,2*%
%TO.N,/+12V*%
X130167000Y-130063000D03*
%TO.P,J3,1*%
%TO.N,GND*%
X135247000Y-130063000D03*
%TD*%
D12*
%TO.P,D1,2*%
%TO.N,GND*%
X138430000Y-125848000D03*
%TO.P,D1,1*%
%TO.N,/+12V*%
X138430000Y-121548000D03*
%TD*%
D13*
%TO.P,D2,2*%
%TO.N,GND*%
X143352000Y-110871000D03*
%TO.P,D2,1*%
%TO.N,Net-(D2-Pad1)*%
X147652000Y-110871000D03*
%TD*%
D14*
%TO.P,RV1,3*%
%TO.N,Net-(C4-Pad1)*%
X140208000Y-106273600D03*
%TO.P,RV1,2*%
%TO.N,Net-(R2-Pad1)*%
X140208000Y-103733600D03*
%TO.P,RV1,1*%
%TO.N,N/C*%
X140208000Y-101193600D03*
%TD*%
D15*
%TO.P,U3,8*%
%TO.N,Net-(D2-Pad1)*%
X150194000Y-107152000D03*
%TO.P,U3,7*%
%TO.N,Net-(D3-Pad1)*%
X150194000Y-106502000D03*
%TO.P,U3,6*%
%TO.N,N/C*%
X150194000Y-105842000D03*
%TO.P,U3,5*%
%TO.N,Net-(R3-Pad2)*%
X150194000Y-105192000D03*
%TO.P,U3,4*%
%TO.N,GND*%
X147494000Y-105192000D03*
%TO.P,U3,3*%
%TO.N,Net-(C4-Pad1)*%
X147494000Y-105842000D03*
%TO.P,U3,2*%
%TO.N,+5V*%
X147494000Y-106502000D03*
%TO.P,U3,1*%
X147494000Y-107152000D03*
%TD*%
%TO.P,C3,2*%
%TO.N,GND*%
%TA.AperFunction,SMDPad,CuDef*%
G36*
G01*
X145255000Y-105722000D02*
X144305000Y-105722000D01*
G75*
G02*
X144055000Y-105472000I0J250000D01*
G01*
X144055000Y-104797000D01*
G75*
G02*
X144305000Y-104547000I250000J0D01*
G01*
X145255000Y-104547000D01*
G75*
G02*
X145505000Y-104797000I0J-250000D01*
G01*
X145505000Y-105472000D01*
G75*
G02*
X145255000Y-105722000I-250000J0D01*
G01*
G37*
%TD.AperFunction*%
%TO.P,C3,1*%
%TO.N,+5V*%
%TA.AperFunction,SMDPad,CuDef*%
G36*
G01*
X145255000Y-107797000D02*
X144305000Y-107797000D01*
G75*
G02*
X144055000Y-107547000I0J250000D01*
G01*
X144055000Y-106872000D01*
G75*
G02*
X144305000Y-106622000I250000J0D01*
G01*
X145255000Y-106622000D01*
G75*
G02*
X145505000Y-106872000I0J-250000D01*
G01*
X145505000Y-107547000D01*
G75*
G02*
X145255000Y-107797000I-250000J0D01*
G01*
G37*
%TD.AperFunction*%
%TD*%
%TO.P,R1,2*%
%TO.N,Net-(C1-Pad1)*%
%TA.AperFunction,SMDPad,CuDef*%
G36*
G01*
X131181001Y-99898000D02*
X129930999Y-99898000D01*
G75*
G02*
X129681000Y-99648001I0J249999D01*
G01*
X129681000Y-98847999D01*
G75*
G02*
X129930999Y-98598000I249999J0D01*
G01*
X131181001Y-98598000D01*
G75*
G02*
X131431000Y-98847999I0J-249999D01*
G01*
X131431000Y-99648001D01*
G75*
G02*
X131181001Y-99898000I-249999J0D01*
G01*
G37*
%TD.AperFunction*%
%TO.P,R1,1*%
%TO.N,+5V*%
%TA.AperFunction,SMDPad,CuDef*%
G36*
G01*
X131181001Y-102998000D02*
X129930999Y-102998000D01*
G75*
G02*
X129681000Y-102748001I0J249999D01*
G01*
X129681000Y-101947999D01*
G75*
G02*
X129930999Y-101698000I249999J0D01*
G01*
X131181001Y-101698000D01*
G75*
G02*
X131431000Y-101947999I0J-249999D01*
G01*
X131431000Y-102748001D01*
G75*
G02*
X131181001Y-102998000I-249999J0D01*
G01*
G37*
%TD.AperFunction*%
%TD*%
D14*
%TO.P,RV2,3*%
%TO.N,Net-(R4-Pad2)*%
X115000000Y-116847600D03*
%TO.P,RV2,2*%
%TO.N,Net-(RV2-Pad2)*%
X115000000Y-114307600D03*
%TO.P,RV2,1*%
%TO.N,Net-(R3-Pad1)*%
X115000000Y-111767600D03*
%TD*%
D16*
%TO.P,U4,1*%
%TO.N,GND*%
X134468000Y-113778000D03*
%TO.P,U4,3*%
%TO.N,/+12V*%
X134468000Y-118378000D03*
%TO.P,U4,2*%
%TO.N,+5V*%
X134468000Y-116078000D03*
D17*
X128168000Y-116078000D03*
%TD*%
%TO.P,U2,8*%
%TO.N,+5V*%
%TA.AperFunction,SMDPad,CuDef*%
G36*
G01*
X131040000Y-108695000D02*
X131040000Y-108395000D01*
G75*
G02*
X131190000Y-108245000I150000J0D01*
G01*
X132840000Y-108245000D01*
G75*
G02*
X132990000Y-108395000I0J-150000D01*
G01*
X132990000Y-108695000D01*
G75*
G02*
X132840000Y-108845000I-150000J0D01*
G01*
X131190000Y-108845000D01*
G75*
G02*
X131040000Y-108695000I0J150000D01*
G01*
G37*
%TD.AperFunction*%
%TO.P,U2,7*%
%TO.N,Net-(C4-Pad1)*%
%TA.AperFunction,SMDPad,CuDef*%
G36*
G01*
X131040000Y-107425000D02*
X131040000Y-107125000D01*
G75*
G02*
X131190000Y-106975000I150000J0D01*
G01*
X132840000Y-106975000D01*
G75*
G02*
X132990000Y-107125000I0J-150000D01*
G01*
X132990000Y-107425000D01*
G75*
G02*
X132840000Y-107575000I-150000J0D01*
G01*
X131190000Y-107575000D01*
G75*
G02*
X131040000Y-107425000I0J150000D01*
G01*
G37*
%TD.AperFunction*%
%TO.P,U2,6*%
%TO.N,Net-(R2-Pad1)*%
%TA.AperFunction,SMDPad,CuDef*%
G36*
G01*
X131040000Y-106155000D02*
X131040000Y-105855000D01*
G75*
G02*
X131190000Y-105705000I150000J0D01*
G01*
X132840000Y-105705000D01*
G75*
G02*
X132990000Y-105855000I0J-150000D01*
G01*
X132990000Y-106155000D01*
G75*
G02*
X132840000Y-106305000I-150000J0D01*
G01*
X131190000Y-106305000D01*
G75*
G02*
X131040000Y-106155000I0J150000D01*
G01*
G37*
%TD.AperFunction*%
%TO.P,U2,5*%
%TO.N,Net-(C1-Pad1)*%
%TA.AperFunction,SMDPad,CuDef*%
G36*
G01*
X131040000Y-104885000D02*
X131040000Y-104585000D01*
G75*
G02*
X131190000Y-104435000I150000J0D01*
G01*
X132840000Y-104435000D01*
G75*
G02*
X132990000Y-104585000I0J-150000D01*
G01*
X132990000Y-104885000D01*
G75*
G02*
X132840000Y-105035000I-150000J0D01*
G01*
X131190000Y-105035000D01*
G75*
G02*
X131040000Y-104885000I0J150000D01*
G01*
G37*
%TD.AperFunction*%
%TO.P,U2,4*%
%TO.N,GND*%
%TA.AperFunction,SMDPad,CuDef*%
G36*
G01*
X126090000Y-104885000D02*
X126090000Y-104585000D01*
G75*
G02*
X126240000Y-104435000I150000J0D01*
G01*
X127890000Y-104435000D01*
G75*
G02*
X128040000Y-104585000I0J-150000D01*
G01*
X128040000Y-104885000D01*
G75*
G02*
X127890000Y-105035000I-150000J0D01*
G01*
X126240000Y-105035000D01*
G75*
G02*
X126090000Y-104885000I0J150000D01*
G01*
G37*
%TD.AperFunction*%
%TO.P,U2,3*%
%TO.N,Net-(C4-Pad1)*%
%TA.AperFunction,SMDPad,CuDef*%
G36*
G01*
X126090000Y-106155000D02*
X126090000Y-105855000D01*
G75*
G02*
X126240000Y-105705000I150000J0D01*
G01*
X127890000Y-105705000D01*
G75*
G02*
X128040000Y-105855000I0J-150000D01*
G01*
X128040000Y-106155000D01*
G75*
G02*
X127890000Y-106305000I-150000J0D01*
G01*
X126240000Y-106305000D01*
G75*
G02*
X126090000Y-106155000I0J150000D01*
G01*
G37*
%TD.AperFunction*%
%TO.P,U2,2*%
%TO.N,Net-(RV2-Pad2)*%
%TA.AperFunction,SMDPad,CuDef*%
G36*
G01*
X126090000Y-107425000D02*
X126090000Y-107125000D01*
G75*
G02*
X126240000Y-106975000I150000J0D01*
G01*
X127890000Y-106975000D01*
G75*
G02*
X128040000Y-107125000I0J-150000D01*
G01*
X128040000Y-107425000D01*
G75*
G02*
X127890000Y-107575000I-150000J0D01*
G01*
X126240000Y-107575000D01*
G75*
G02*
X126090000Y-107425000I0J150000D01*
G01*
G37*
%TD.AperFunction*%
%TO.P,U2,1*%
%TO.N,/out*%
%TA.AperFunction,SMDPad,CuDef*%
G36*
G01*
X126090000Y-108695000D02*
X126090000Y-108395000D01*
G75*
G02*
X126240000Y-108245000I150000J0D01*
G01*
X127890000Y-108245000D01*
G75*
G02*
X128040000Y-108395000I0J-150000D01*
G01*
X128040000Y-108695000D01*
G75*
G02*
X127890000Y-108845000I-150000J0D01*
G01*
X126240000Y-108845000D01*
G75*
G02*
X126090000Y-108695000I0J150000D01*
G01*
G37*
%TD.AperFunction*%
%TD*%
D18*
%TO.P,U1,3*%
%TO.N,N/C*%
X123460000Y-100798000D03*
%TO.P,U1,2*%
%TO.N,GND*%
X125460000Y-101748000D03*
%TO.P,U1,1*%
%TO.N,Net-(C1-Pad1)*%
X125460000Y-99848000D03*
%TD*%
%TO.P,R3,2*%
%TO.N,Net-(R3-Pad2)*%
%TA.AperFunction,SMDPad,CuDef*%
G36*
G01*
X116782001Y-106534000D02*
X115881999Y-106534000D01*
G75*
G02*
X115632000Y-106284001I0J249999D01*
G01*
X115632000Y-105583999D01*
G75*
G02*
X115881999Y-105334000I249999J0D01*
G01*
X116782001Y-105334000D01*
G75*
G02*
X117032000Y-105583999I0J-249999D01*
G01*
X117032000Y-106284001D01*
G75*
G02*
X116782001Y-106534000I-249999J0D01*
G01*
G37*
%TD.AperFunction*%
%TO.P,R3,1*%
%TO.N,Net-(R3-Pad1)*%
%TA.AperFunction,SMDPad,CuDef*%
G36*
G01*
X116782001Y-108534000D02*
X115881999Y-108534000D01*
G75*
G02*
X115632000Y-108284001I0J249999D01*
G01*
X115632000Y-107583999D01*
G75*
G02*
X115881999Y-107334000I249999J0D01*
G01*
X116782001Y-107334000D01*
G75*
G02*
X117032000Y-107583999I0J-249999D01*
G01*
X117032000Y-108284001D01*
G75*
G02*
X116782001Y-108534000I-249999J0D01*
G01*
G37*
%TD.AperFunction*%
%TD*%
%TO.P,R2,2*%
%TO.N,GND*%
%TA.AperFunction,SMDPad,CuDef*%
G36*
G01*
X136007001Y-103200000D02*
X134756999Y-103200000D01*
G75*
G02*
X134507000Y-102950001I0J249999D01*
G01*
X134507000Y-102149999D01*
G75*
G02*
X134756999Y-101900000I249999J0D01*
G01*
X136007001Y-101900000D01*
G75*
G02*
X136257000Y-102149999I0J-249999D01*
G01*
X136257000Y-102950001D01*
G75*
G02*
X136007001Y-103200000I-249999J0D01*
G01*
G37*
%TD.AperFunction*%
%TO.P,R2,1*%
%TO.N,Net-(R2-Pad1)*%
%TA.AperFunction,SMDPad,CuDef*%
G36*
G01*
X136007001Y-106300000D02*
X134756999Y-106300000D01*
G75*
G02*
X134507000Y-106050001I0J249999D01*
G01*
X134507000Y-105249999D01*
G75*
G02*
X134756999Y-105000000I249999J0D01*
G01*
X136007001Y-105000000D01*
G75*
G02*
X136257000Y-105249999I0J-249999D01*
G01*
X136257000Y-106050001D01*
G75*
G02*
X136007001Y-106300000I-249999J0D01*
G01*
G37*
%TD.AperFunction*%
%TD*%
D19*
%TO.P,J2,2*%
%TO.N,/IN+*%
X156464000Y-117435000D03*
%TO.P,J2,1*%
%TO.N,/IN-*%
X156464000Y-112435000D03*
%TD*%
D20*
%TO.P,J1,2*%
%TO.N,GND*%
X141247000Y-130063000D03*
%TO.P,J1,1*%
%TO.N,/+12V*%
X146247000Y-130063000D03*
%TD*%
%TO.P,F2,2*%
%TO.N,/IN+*%
%TA.AperFunction,SMDPad,CuDef*%
G36*
G01*
X151578500Y-119617500D02*
X151578500Y-119142500D01*
G75*
G02*
X151816000Y-118905000I237500J0D01*
G01*
X152316000Y-118905000D01*
G75*
G02*
X152553500Y-119142500I0J-237500D01*
G01*
X152553500Y-119617500D01*
G75*
G02*
X152316000Y-119855000I-237500J0D01*
G01*
X151816000Y-119855000D01*
G75*
G02*
X151578500Y-119617500I0J237500D01*
G01*
G37*
%TD.AperFunction*%
%TO.P,F2,1*%
%TO.N,Net-(D2-Pad1)*%
%TA.AperFunction,SMDPad,CuDef*%
G36*
G01*
X149753500Y-119617500D02*
X149753500Y-119142500D01*
G75*
G02*
X149991000Y-118905000I237500J0D01*
G01*
X150491000Y-118905000D01*
G75*
G02*
X150728500Y-119142500I0J-237500D01*
G01*
X150728500Y-119617500D01*
G75*
G02*
X150491000Y-119855000I-237500J0D01*
G01*
X149991000Y-119855000D01*
G75*
G02*
X149753500Y-119617500I0J237500D01*
G01*
G37*
%TD.AperFunction*%
%TD*%
%TO.P,F1,2*%
%TO.N,/IN-*%
%TA.AperFunction,SMDPad,CuDef*%
G36*
G01*
X152340500Y-115172500D02*
X152340500Y-114697500D01*
G75*
G02*
X152578000Y-114460000I237500J0D01*
G01*
X153078000Y-114460000D01*
G75*
G02*
X153315500Y-114697500I0J-237500D01*
G01*
X153315500Y-115172500D01*
G75*
G02*
X153078000Y-115410000I-237500J0D01*
G01*
X152578000Y-115410000D01*
G75*
G02*
X152340500Y-115172500I0J237500D01*
G01*
G37*
%TD.AperFunction*%
%TO.P,F1,1*%
%TO.N,Net-(D3-Pad1)*%
%TA.AperFunction,SMDPad,CuDef*%
G36*
G01*
X150515500Y-115172500D02*
X150515500Y-114697500D01*
G75*
G02*
X150753000Y-114460000I237500J0D01*
G01*
X151253000Y-114460000D01*
G75*
G02*
X151490500Y-114697500I0J-237500D01*
G01*
X151490500Y-115172500D01*
G75*
G02*
X151253000Y-115410000I-237500J0D01*
G01*
X150753000Y-115410000D01*
G75*
G02*
X150515500Y-115172500I0J237500D01*
G01*
G37*
%TD.AperFunction*%
%TD*%
D13*
%TO.P,D3,2*%
%TO.N,GND*%
X143352000Y-115824000D03*
%TO.P,D3,1*%
%TO.N,Net-(D3-Pad1)*%
X147652000Y-115824000D03*
%TD*%
%TO.P,C6,2*%
%TO.N,GND*%
%TA.AperFunction,SMDPad,CuDef*%
G36*
G01*
X130106000Y-110737000D02*
X130106000Y-111687000D01*
G75*
G02*
X129856000Y-111937000I-250000J0D01*
G01*
X129181000Y-111937000D01*
G75*
G02*
X128931000Y-111687000I0J250000D01*
G01*
X128931000Y-110737000D01*
G75*
G02*
X129181000Y-110487000I250000J0D01*
G01*
X129856000Y-110487000D01*
G75*
G02*
X130106000Y-110737000I0J-250000D01*
G01*
G37*
%TD.AperFunction*%
%TO.P,C6,1*%
%TO.N,+5V*%
%TA.AperFunction,SMDPad,CuDef*%
G36*
G01*
X132181000Y-110737000D02*
X132181000Y-111687000D01*
G75*
G02*
X131931000Y-111937000I-250000J0D01*
G01*
X131256000Y-111937000D01*
G75*
G02*
X131006000Y-111687000I0J250000D01*
G01*
X131006000Y-110737000D01*
G75*
G02*
X131256000Y-110487000I250000J0D01*
G01*
X131931000Y-110487000D01*
G75*
G02*
X132181000Y-110737000I0J-250000D01*
G01*
G37*
%TD.AperFunction*%
%TD*%
%TO.P,C4,2*%
%TO.N,GND*%
%TA.AperFunction,SMDPad,CuDef*%
G36*
G01*
X123919000Y-105174000D02*
X122969000Y-105174000D01*
G75*
G02*
X122719000Y-104924000I0J250000D01*
G01*
X122719000Y-104249000D01*
G75*
G02*
X122969000Y-103999000I250000J0D01*
G01*
X123919000Y-103999000D01*
G75*
G02*
X124169000Y-104249000I0J-250000D01*
G01*
X124169000Y-104924000D01*
G75*
G02*
X123919000Y-105174000I-250000J0D01*
G01*
G37*
%TD.AperFunction*%
%TO.P,C4,1*%
%TO.N,Net-(C4-Pad1)*%
%TA.AperFunction,SMDPad,CuDef*%
G36*
G01*
X123919000Y-107249000D02*
X122969000Y-107249000D01*
G75*
G02*
X122719000Y-106999000I0J250000D01*
G01*
X122719000Y-106324000D01*
G75*
G02*
X122969000Y-106074000I250000J0D01*
G01*
X123919000Y-106074000D01*
G75*
G02*
X124169000Y-106324000I0J-250000D01*
G01*
X124169000Y-106999000D01*
G75*
G02*
X123919000Y-107249000I-250000J0D01*
G01*
G37*
%TD.AperFunction*%
%TD*%
%TO.P,C2,2*%
%TO.N,GND*%
%TA.AperFunction,SMDPad,CuDef*%
G36*
G01*
X141054003Y-114924000D02*
X138853997Y-114924000D01*
G75*
G02*
X138604000Y-114674003I0J249997D01*
G01*
X138604000Y-113848997D01*
G75*
G02*
X138853997Y-113599000I249997J0D01*
G01*
X141054003Y-113599000D01*
G75*
G02*
X141304000Y-113848997I0J-249997D01*
G01*
X141304000Y-114674003D01*
G75*
G02*
X141054003Y-114924000I-249997J0D01*
G01*
G37*
%TD.AperFunction*%
%TO.P,C2,1*%
%TO.N,/+12V*%
%TA.AperFunction,SMDPad,CuDef*%
G36*
G01*
X141054003Y-118049000D02*
X138853997Y-118049000D01*
G75*
G02*
X138604000Y-117799003I0J249997D01*
G01*
X138604000Y-116973997D01*
G75*
G02*
X138853997Y-116724000I249997J0D01*
G01*
X141054003Y-116724000D01*
G75*
G02*
X141304000Y-116973997I0J-249997D01*
G01*
X141304000Y-117799003D01*
G75*
G02*
X141054003Y-118049000I-249997J0D01*
G01*
G37*
%TD.AperFunction*%
%TD*%
%TO.P,C1,2*%
%TO.N,GND*%
%TA.AperFunction,SMDPad,CuDef*%
G36*
G01*
X127541000Y-101248000D02*
X128491000Y-101248000D01*
G75*
G02*
X128741000Y-101498000I0J-250000D01*
G01*
X128741000Y-102173000D01*
G75*
G02*
X128491000Y-102423000I-250000J0D01*
G01*
X127541000Y-102423000D01*
G75*
G02*
X127291000Y-102173000I0J250000D01*
G01*
X127291000Y-101498000D01*
G75*
G02*
X127541000Y-101248000I250000J0D01*
G01*
G37*
%TD.AperFunction*%
%TO.P,C1,1*%
%TO.N,Net-(C1-Pad1)*%
%TA.AperFunction,SMDPad,CuDef*%
G36*
G01*
X127541000Y-99173000D02*
X128491000Y-99173000D01*
G75*
G02*
X128741000Y-99423000I0J-250000D01*
G01*
X128741000Y-100098000D01*
G75*
G02*
X128491000Y-100348000I-250000J0D01*
G01*
X127541000Y-100348000D01*
G75*
G02*
X127291000Y-100098000I0J250000D01*
G01*
X127291000Y-99423000D01*
G75*
G02*
X127541000Y-99173000I250000J0D01*
G01*
G37*
%TD.AperFunction*%
%TD*%
D21*
%TO.N,GND*%
X123592500Y-104735000D02*
X123444000Y-104586500D01*
X127065000Y-104735000D02*
X123592500Y-104735000D01*
D22*
X129418500Y-108612000D02*
X129518500Y-108712000D01*
X129418500Y-106113500D02*
X129418500Y-111112000D01*
X128040000Y-104735000D02*
X129418500Y-106113500D01*
X127065000Y-104735000D02*
X128040000Y-104735000D01*
X127928500Y-101748000D02*
X128016000Y-101835500D01*
X125460000Y-101748000D02*
X127928500Y-101748000D01*
X128016000Y-101835500D02*
X128016000Y-104608000D01*
D21*
X147494000Y-105192000D02*
X145070000Y-105192000D01*
D23*
X143352000Y-110871000D02*
X143352000Y-115824000D01*
X143352000Y-115824000D02*
X143352000Y-118596000D01*
X145660000Y-120904000D02*
X145660000Y-119060492D01*
X145195508Y-118596000D02*
X143352000Y-118596000D01*
X145660000Y-119060492D02*
X145195508Y-118596000D01*
D24*
X135509000Y-130325000D02*
X135247000Y-130063000D01*
D23*
X138430000Y-129667000D02*
X138034000Y-130063000D01*
X138430000Y-125848000D02*
X138430000Y-129667000D01*
X135247000Y-130063000D02*
X138034000Y-130063000D01*
X138034000Y-130063000D02*
X141247000Y-130063000D01*
D24*
X127974990Y-134324990D02*
X136820010Y-134324990D01*
X127487010Y-133837010D02*
X127974990Y-134324990D01*
X127487010Y-124897030D02*
X127487010Y-133837010D01*
X138430000Y-130459000D02*
X138034000Y-130063000D01*
X138430000Y-132715000D02*
X138430000Y-130459000D01*
D23*
X148947010Y-131981380D02*
X146953400Y-133974990D01*
X145660000Y-120904000D02*
X148947010Y-124191010D01*
X148947010Y-124191010D02*
X148947010Y-131981380D01*
X138927990Y-133974990D02*
X138049000Y-133096000D01*
X146953400Y-133974990D02*
X138927990Y-133974990D01*
D24*
X136820010Y-134324990D02*
X138049000Y-133096000D01*
D23*
X138430000Y-132715000D02*
X138049000Y-133096000D01*
X138430000Y-129667000D02*
X138430000Y-132715000D01*
D24*
X124357990Y-121768010D02*
X125056490Y-122466510D01*
X124357990Y-114949072D02*
X124357990Y-121768010D01*
X125056490Y-122466510D02*
X127487010Y-124897030D01*
X128095062Y-111212000D02*
X129518500Y-111212000D01*
X124357990Y-114949072D02*
X128095062Y-111212000D01*
D22*
%TO.N,Net-(C1-Pad1)*%
X127928500Y-99848000D02*
X128016000Y-99760500D01*
X125460000Y-99848000D02*
X127928500Y-99848000D01*
X130043500Y-99760500D02*
X130556000Y-99248000D01*
X128016000Y-99760500D02*
X130043500Y-99760500D01*
D21*
X132015000Y-104735000D02*
X132015000Y-100733000D01*
X132015000Y-100733000D02*
X130810000Y-99528000D01*
D22*
%TO.N,/+12V*%
X146247000Y-130563000D02*
X146747000Y-131063000D01*
D23*
X145406000Y-129222000D02*
X146247000Y-130063000D01*
D24*
X139216500Y-118124000D02*
X139954000Y-117386500D01*
X134468000Y-118124000D02*
X139216500Y-118124000D01*
D23*
X138430000Y-121548000D02*
X142630000Y-121548000D01*
X146247000Y-125165000D02*
X146247000Y-130063000D01*
X142630000Y-121548000D02*
X146247000Y-125165000D01*
X138430000Y-121548000D02*
X133087000Y-121548000D01*
X130167000Y-124468000D02*
X130167000Y-130063000D01*
X133087000Y-121548000D02*
X130167000Y-124468000D01*
D24*
X138430000Y-118910500D02*
X139954000Y-117386500D01*
X138430000Y-121548000D02*
X138430000Y-118910500D01*
%TO.N,+5V*%
X134468000Y-115824000D02*
X131826000Y-115824000D01*
X131826000Y-115824000D02*
X128168000Y-115824000D01*
D22*
X132015000Y-108545000D02*
X132015000Y-110790500D01*
X130489990Y-107994990D02*
X130489990Y-102388010D01*
X132015000Y-108545000D02*
X131040000Y-108545000D01*
X131040000Y-108545000D02*
X130489990Y-107994990D01*
D21*
X147494000Y-107152000D02*
X144816000Y-107152000D01*
X147494000Y-106502000D02*
X147494000Y-107014000D01*
D24*
X134519000Y-110744000D02*
X135106500Y-110744000D01*
X132817999Y-112445001D02*
X134519000Y-110744000D01*
X132817999Y-115048001D02*
X132817999Y-112445001D01*
X133847998Y-116078000D02*
X132817999Y-115048001D01*
X134468000Y-116078000D02*
X133847998Y-116078000D01*
D22*
X132061500Y-110744000D02*
X131593500Y-111212000D01*
X135106500Y-110744000D02*
X132061500Y-110744000D01*
X143912500Y-108077000D02*
X144780000Y-107209500D01*
X135106500Y-110744000D02*
X137773500Y-108077000D01*
X137773500Y-108077000D02*
X143912500Y-108077000D01*
D21*
%TO.N,Net-(C4-Pad1)*%
X124100500Y-106005000D02*
X123444000Y-106661500D01*
X127065000Y-106005000D02*
X124100500Y-106005000D01*
X132015000Y-107275000D02*
X139765000Y-107275000D01*
X139765000Y-107275000D02*
X140540000Y-106500000D01*
X122268990Y-100459756D02*
X122268990Y-105728990D01*
X143116000Y-106273600D02*
X143166010Y-106223590D01*
X140716000Y-106273600D02*
X143116000Y-106273600D01*
X143166010Y-100592987D02*
X140071003Y-97497980D01*
X140071003Y-97497980D02*
X125230766Y-97497980D01*
X125230766Y-97497980D02*
X122268990Y-100459756D01*
X143166010Y-106223590D02*
X143166010Y-100592987D01*
X122268990Y-105728990D02*
X123040000Y-106500000D01*
X123040000Y-106500000D02*
X123540000Y-107000000D01*
X145874966Y-105842000D02*
X145544966Y-106172000D01*
X147494000Y-105842000D02*
X145874966Y-105842000D01*
X145544966Y-106172000D02*
X138938000Y-106172000D01*
%TO.N,Net-(D2-Pad1)*%
X150194000Y-108329000D02*
X147652000Y-110871000D01*
X150194000Y-107152000D02*
X150194000Y-108329000D01*
D22*
X147817998Y-119380000D02*
X150241000Y-119380000D01*
X145851999Y-117414001D02*
X147817998Y-119380000D01*
X145851999Y-112671001D02*
X145851999Y-117414001D01*
X147652000Y-110871000D02*
X145851999Y-112671001D01*
D21*
%TO.N,Net-(D3-Pad1)*%
X151424001Y-106552001D02*
X151424001Y-110449999D01*
X150194000Y-106502000D02*
X151374000Y-106502000D01*
X151374000Y-106502000D02*
X151424001Y-106552001D01*
X147652000Y-114222000D02*
X147652000Y-115824000D01*
X151424001Y-110449999D02*
X147652000Y-114222000D01*
D22*
X151003000Y-114935000D02*
X151003000Y-115824000D01*
X151003000Y-115824000D02*
X147652000Y-115824000D01*
%TO.N,/IN-*%
X153964000Y-114935000D02*
X156464000Y-112435000D01*
X152828000Y-114935000D02*
X153964000Y-114935000D01*
%TO.N,/IN+*%
X154519000Y-119380000D02*
X156464000Y-117435000D01*
X152066000Y-119380000D02*
X154519000Y-119380000D01*
%TO.N,/out*%
X121396000Y-126372000D02*
X125087000Y-130063000D01*
X121396000Y-116840000D02*
X121396000Y-126372000D01*
D21*
X121396000Y-114214000D02*
X121396000Y-116840000D01*
X127065000Y-108545000D02*
X121396000Y-114214000D01*
%TO.N,Net-(R2-Pad1)*%
X132015000Y-106005000D02*
X135001000Y-106005000D01*
X135001000Y-106005000D02*
X135382000Y-105624000D01*
X135382000Y-105624000D02*
X135890000Y-106132000D01*
X140716000Y-103733600D02*
X137806400Y-103733600D01*
X137806400Y-103733600D02*
X136040000Y-105500000D01*
%TO.N,Net-(R3-Pad2)*%
X150194000Y-105192000D02*
X150194000Y-104194000D01*
X119618000Y-105934000D02*
X116332000Y-105934000D01*
X150194000Y-103966000D02*
X143002000Y-96774000D01*
X150194000Y-104194000D02*
X150194000Y-103966000D01*
X143002000Y-96774000D02*
X125035494Y-96774000D01*
X125035494Y-96774000D02*
X121285000Y-100524494D01*
X121285000Y-100524494D02*
X121285000Y-104267000D01*
X121285000Y-104267000D02*
X119618000Y-105934000D01*
D22*
%TO.N,Net-(R3-Pad1)*%
X116332000Y-107934000D02*
X116332000Y-110668000D01*
X116332000Y-110668000D02*
X115500000Y-111500000D01*
D21*
%TO.N,Net-(R4-Pad2)*%
X115000000Y-116847600D02*
X118879600Y-116847600D01*
X118879600Y-116847600D02*
X119126000Y-117094000D01*
D22*
X115007600Y-116840000D02*
X115000000Y-116847600D01*
X119396000Y-116840000D02*
X115007600Y-116840000D01*
D21*
%TO.N,Net-(RV2-Pad2)*%
X119057400Y-114307600D02*
X115000000Y-114307600D01*
X126090000Y-107275000D02*
X119057400Y-114307600D01*
X127065000Y-107275000D02*
X126090000Y-107275000D01*
%TD*%
D25*
%TO.N,GND*%
X159598000Y-134598000D02*
X110402000Y-134598000D01*
X110402000Y-129805282D01*
X114023000Y-129805282D01*
X114023000Y-130194718D01*
X114098975Y-130576670D01*
X114248005Y-130936461D01*
X114464364Y-131260264D01*
X114739736Y-131535636D01*
X115063539Y-131751995D01*
X115423330Y-131901025D01*
X115805282Y-131977000D01*
X116194718Y-131977000D01*
X116576670Y-131901025D01*
X116936461Y-131751995D01*
X117260264Y-131535636D01*
X117535636Y-131260264D01*
X117751995Y-130936461D01*
X117901025Y-130576670D01*
X117977000Y-130194718D01*
X117977000Y-129805282D01*
X117901025Y-129423330D01*
X117751995Y-129063539D01*
X117535636Y-128739736D01*
X117260264Y-128464364D01*
X116936461Y-128248005D01*
X116576670Y-128098975D01*
X116194718Y-128023000D01*
X115805282Y-128023000D01*
X115423330Y-128098975D01*
X115063539Y-128248005D01*
X114739736Y-128464364D01*
X114464364Y-128739736D01*
X114248005Y-129063539D01*
X114098975Y-129423330D01*
X114023000Y-129805282D01*
X110402000Y-129805282D01*
X110402000Y-111767600D01*
X112616338Y-111767600D01*
X112642925Y-112037539D01*
X112721663Y-112297105D01*
X112849527Y-112536321D01*
X113021603Y-112745997D01*
X113231279Y-112918073D01*
X113454898Y-113037600D01*
X113231279Y-113157127D01*
X113021603Y-113329203D01*
X112849527Y-113538879D01*
X112721663Y-113778095D01*
X112642925Y-114037661D01*
X112616338Y-114307600D01*
X112642925Y-114577539D01*
X112721663Y-114837105D01*
X112849527Y-115076321D01*
X113021603Y-115285997D01*
X113231279Y-115458073D01*
X113454898Y-115577600D01*
X113231279Y-115697127D01*
X113021603Y-115869203D01*
X112849527Y-116078879D01*
X112721663Y-116318095D01*
X112642925Y-116577661D01*
X112616338Y-116847600D01*
X112642925Y-117117539D01*
X112721663Y-117377105D01*
X112849527Y-117616321D01*
X113021603Y-117825997D01*
X113231279Y-117998073D01*
X113470495Y-118125937D01*
X113730061Y-118204675D01*
X113932360Y-118224600D01*
X116067640Y-118224600D01*
X116269939Y-118204675D01*
X116529505Y-118125937D01*
X116768721Y-117998073D01*
X116978397Y-117825997D01*
X117150473Y-117616321D01*
X117203561Y-117517000D01*
X118460904Y-117517000D01*
X118465042Y-117530641D01*
X118523152Y-117639356D01*
X118601354Y-117734646D01*
X118696644Y-117812848D01*
X118805359Y-117870958D01*
X118923322Y-117906741D01*
X119045999Y-117918824D01*
X119746001Y-117918824D01*
X119868678Y-117906741D01*
X119986641Y-117870958D01*
X120095356Y-117812848D01*
X120190646Y-117734646D01*
X120268848Y-117639356D01*
X120326958Y-117530641D01*
X120362741Y-117412678D01*
X120374824Y-117290001D01*
X120374824Y-116389999D01*
X120362741Y-116267322D01*
X120326958Y-116149359D01*
X120268848Y-116040644D01*
X120190646Y-115945354D01*
X120095356Y-115867152D01*
X119986641Y-115809042D01*
X119868678Y-115773259D01*
X119746001Y-115761176D01*
X119045999Y-115761176D01*
X118923322Y-115773259D01*
X118805359Y-115809042D01*
X118696644Y-115867152D01*
X118601354Y-115945354D01*
X118523152Y-116040644D01*
X118465042Y-116149359D01*
X118460904Y-116163000D01*
X117195437Y-116163000D01*
X117150473Y-116078879D01*
X116978397Y-115869203D01*
X116768721Y-115697127D01*
X116545102Y-115577600D01*
X116768721Y-115458073D01*
X116978397Y-115285997D01*
X117150473Y-115076321D01*
X117252950Y-114884600D01*
X119029069Y-114884600D01*
X119057400Y-114887390D01*
X119085731Y-114884600D01*
X119085736Y-114884600D01*
X119115445Y-114881674D01*
X119170511Y-114876251D01*
X119215170Y-114862703D01*
X119279276Y-114843257D01*
X119379515Y-114789679D01*
X119467374Y-114717574D01*
X119485439Y-114695562D01*
X125711176Y-108469825D01*
X125711176Y-108695000D01*
X125721337Y-108798168D01*
X125751430Y-108897372D01*
X125800299Y-108988799D01*
X125802508Y-108991491D01*
X121008038Y-113785961D01*
X120986026Y-113804026D01*
X120913921Y-113891886D01*
X120860343Y-113992125D01*
X120855907Y-114006750D01*
X120827349Y-114100889D01*
X120823059Y-114144450D01*
X120819090Y-114184760D01*
X120816210Y-114214000D01*
X120819000Y-114242331D01*
X120819001Y-115804904D01*
X120805359Y-115809042D01*
X120696644Y-115867152D01*
X120601354Y-115945354D01*
X120523152Y-116040644D01*
X120465042Y-116149359D01*
X120429259Y-116267322D01*
X120417176Y-116389999D01*
X120417176Y-117290001D01*
X120429259Y-117412678D01*
X120465042Y-117530641D01*
X120523152Y-117639356D01*
X120601354Y-117734646D01*
X120696644Y-117812848D01*
X120719000Y-117824798D01*
X120719001Y-126338745D01*
X120715726Y-126372000D01*
X120728796Y-126504714D01*
X120767508Y-126632329D01*
X120830372Y-126749940D01*
X120893776Y-126827198D01*
X120893779Y-126827201D01*
X120914974Y-126853027D01*
X120940800Y-126874222D01*
X122988252Y-128921674D01*
X122960000Y-129208513D01*
X122960000Y-130917486D01*
X122990776Y-131229964D01*
X123112401Y-131630905D01*
X123309907Y-132000415D01*
X123575707Y-132324293D01*
X123899585Y-132590093D01*
X124269094Y-132787599D01*
X124670035Y-132909224D01*
X125087000Y-132950291D01*
X125503964Y-132909224D01*
X125904905Y-132787599D01*
X126274415Y-132590093D01*
X126598293Y-132324293D01*
X126864093Y-132000415D01*
X127061599Y-131630906D01*
X127183224Y-131229965D01*
X127214000Y-130917487D01*
X127214000Y-129208514D01*
X127214000Y-129208513D01*
X128040000Y-129208513D01*
X128040000Y-130917486D01*
X128070776Y-131229964D01*
X128192401Y-131630905D01*
X128389907Y-132000415D01*
X128655707Y-132324293D01*
X128979585Y-132590093D01*
X129349094Y-132787599D01*
X129750035Y-132909224D01*
X130167000Y-132950291D01*
X130583964Y-132909224D01*
X130984905Y-132787599D01*
X131354415Y-132590093D01*
X131678293Y-132324293D01*
X131944093Y-132000415D01*
X132141599Y-131630906D01*
X132263224Y-131229965D01*
X132294000Y-130917487D01*
X132294000Y-130186000D01*
X132970000Y-130186000D01*
X132970000Y-130936000D01*
X133037748Y-131377857D01*
X133190396Y-131798007D01*
X133422078Y-132180304D01*
X133723891Y-132510056D01*
X134084236Y-132774591D01*
X134489266Y-132963744D01*
X134769833Y-133039441D01*
X135124000Y-132954721D01*
X135124000Y-130186000D01*
X135370000Y-130186000D01*
X135370000Y-132954721D01*
X135724167Y-133039441D01*
X136004734Y-132963744D01*
X136409764Y-132774591D01*
X136770109Y-132510056D01*
X137071922Y-132180304D01*
X137303604Y-131798007D01*
X137456252Y-131377857D01*
X137524000Y-130936000D01*
X137524000Y-130186000D01*
X139020000Y-130186000D01*
X139020000Y-130986000D01*
X139086787Y-131418103D01*
X139236590Y-131828874D01*
X139463652Y-132202527D01*
X139759247Y-132524702D01*
X140112016Y-132783019D01*
X140508402Y-132967551D01*
X140777667Y-133039983D01*
X141124000Y-132954637D01*
X141124000Y-130186000D01*
X141370000Y-130186000D01*
X141370000Y-132954637D01*
X141716333Y-133039983D01*
X141985598Y-132967551D01*
X142381984Y-132783019D01*
X142734753Y-132524702D01*
X143030348Y-132202527D01*
X143257410Y-131828874D01*
X143407213Y-131418103D01*
X143474000Y-130986000D01*
X143474000Y-130186000D01*
X141370000Y-130186000D01*
X141124000Y-130186000D01*
X139020000Y-130186000D01*
X137524000Y-130186000D01*
X135370000Y-130186000D01*
X135124000Y-130186000D01*
X132970000Y-130186000D01*
X132294000Y-130186000D01*
X132294000Y-129208514D01*
X132292177Y-129190000D01*
X132970000Y-129190000D01*
X132970000Y-129940000D01*
X135124000Y-129940000D01*
X135124000Y-127171279D01*
X135370000Y-127171279D01*
X135370000Y-129940000D01*
X137524000Y-129940000D01*
X137524000Y-129190000D01*
X137456252Y-128748143D01*
X137303604Y-128327993D01*
X137071922Y-127945696D01*
X136770109Y-127615944D01*
X136409764Y-127351409D01*
X136004734Y-127162256D01*
X135766573Y-127098000D01*
X136750450Y-127098000D01*
X136760625Y-127201310D01*
X136790760Y-127300650D01*
X136839695Y-127392202D01*
X136905552Y-127472448D01*
X136985798Y-127538305D01*
X137077350Y-127587240D01*
X137176690Y-127617375D01*
X137280000Y-127627550D01*
X138175250Y-127625000D01*
X138307000Y-127493250D01*
X138307000Y-125971000D01*
X138553000Y-125971000D01*
X138553000Y-127493250D01*
X138684750Y-127625000D01*
X139580000Y-127627550D01*
X139683310Y-127617375D01*
X139775471Y-127589418D01*
X139759247Y-127601298D01*
X139463652Y-127923473D01*
X139236590Y-128297126D01*
X139086787Y-128707897D01*
X139020000Y-129140000D01*
X139020000Y-129940000D01*
X141124000Y-129940000D01*
X141124000Y-127171363D01*
X141370000Y-127171363D01*
X141370000Y-129940000D01*
X143474000Y-129940000D01*
X143474000Y-129140000D01*
X143407213Y-128707897D01*
X143257410Y-128297126D01*
X143030348Y-127923473D01*
X142734753Y-127601298D01*
X142381984Y-127342981D01*
X141985598Y-127158449D01*
X141716333Y-127086017D01*
X141370000Y-127171363D01*
X141124000Y-127171363D01*
X140777667Y-127086017D01*
X140508402Y-127158449D01*
X140112016Y-127342981D01*
X139983420Y-127437146D01*
X140020305Y-127392202D01*
X140069240Y-127300650D01*
X140099375Y-127201310D01*
X140109550Y-127098000D01*
X140107000Y-126102750D01*
X139975250Y-125971000D01*
X138553000Y-125971000D01*
X138307000Y-125971000D01*
X136884750Y-125971000D01*
X136753000Y-126102750D01*
X136750450Y-127098000D01*
X135766573Y-127098000D01*
X135724167Y-127086559D01*
X135370000Y-127171279D01*
X135124000Y-127171279D01*
X134769833Y-127086559D01*
X134489266Y-127162256D01*
X134084236Y-127351409D01*
X133723891Y-127615944D01*
X133422078Y-127945696D01*
X133190396Y-128327993D01*
X133037748Y-128748143D01*
X132970000Y-129190000D01*
X132292177Y-129190000D01*
X132263224Y-128896036D01*
X132141599Y-128495094D01*
X131944093Y-128125585D01*
X131678293Y-127801707D01*
X131354415Y-127535907D01*
X131294000Y-127503615D01*
X131294000Y-124934818D01*
X131630818Y-124598000D01*
X136750450Y-124598000D01*
X136753000Y-125593250D01*
X136884750Y-125725000D01*
X138307000Y-125725000D01*
X138307000Y-124202750D01*
X138553000Y-124202750D01*
X138553000Y-125725000D01*
X139975250Y-125725000D01*
X140107000Y-125593250D01*
X140109550Y-124598000D01*
X140099375Y-124494690D01*
X140069240Y-124395350D01*
X140020305Y-124303798D01*
X139954448Y-124223552D01*
X139874202Y-124157695D01*
X139782650Y-124108760D01*
X139683310Y-124078625D01*
X139580000Y-124068450D01*
X138684750Y-124071000D01*
X138553000Y-124202750D01*
X138307000Y-124202750D01*
X138175250Y-124071000D01*
X137280000Y-124068450D01*
X137176690Y-124078625D01*
X137077350Y-124108760D01*
X136985798Y-124157695D01*
X136905552Y-124223552D01*
X136839695Y-124303798D01*
X136790760Y-124395350D01*
X136760625Y-124494690D01*
X136750450Y-124598000D01*
X131630818Y-124598000D01*
X133553819Y-122675000D01*
X136901176Y-122675000D01*
X136901176Y-122798000D01*
X136908455Y-122871905D01*
X136930012Y-122942970D01*
X136965019Y-123008463D01*
X137012131Y-123065869D01*
X137069537Y-123112981D01*
X137135030Y-123147988D01*
X137206095Y-123169545D01*
X137280000Y-123176824D01*
X139580000Y-123176824D01*
X139653905Y-123169545D01*
X139724970Y-123147988D01*
X139790463Y-123112981D01*
X139847869Y-123065869D01*
X139894981Y-123008463D01*
X139929988Y-122942970D01*
X139951545Y-122871905D01*
X139958824Y-122798000D01*
X139958824Y-122675000D01*
X142163182Y-122675000D01*
X145120000Y-125631818D01*
X145120000Y-127510310D01*
X145087499Y-127527682D01*
X144771234Y-127787233D01*
X144511683Y-128103498D01*
X144318819Y-128464321D01*
X144200054Y-128855837D01*
X144170000Y-129160971D01*
X144170000Y-130965028D01*
X144200053Y-131270162D01*
X144318818Y-131661678D01*
X144511682Y-132022502D01*
X144771233Y-132338767D01*
X145087498Y-132598318D01*
X145448321Y-132791182D01*
X145839837Y-132909947D01*
X146247000Y-132950049D01*
X146654162Y-132909947D01*
X147045678Y-132791182D01*
X147406502Y-132598318D01*
X147722767Y-132338767D01*
X147982318Y-132022502D01*
X148175182Y-131661679D01*
X148293947Y-131270163D01*
X148324000Y-130965029D01*
X148324000Y-129805282D01*
X152023000Y-129805282D01*
X152023000Y-130194718D01*
X152098975Y-130576670D01*
X152248005Y-130936461D01*
X152464364Y-131260264D01*
X152739736Y-131535636D01*
X153063539Y-131751995D01*
X153423330Y-131901025D01*
X153805282Y-131977000D01*
X154194718Y-131977000D01*
X154576670Y-131901025D01*
X154936461Y-131751995D01*
X155260264Y-131535636D01*
X155535636Y-131260264D01*
X155751995Y-130936461D01*
X155901025Y-130576670D01*
X155977000Y-130194718D01*
X155977000Y-129805282D01*
X155901025Y-129423330D01*
X155751995Y-129063539D01*
X155535636Y-128739736D01*
X155260264Y-128464364D01*
X154936461Y-128248005D01*
X154576670Y-128098975D01*
X154194718Y-128023000D01*
X153805282Y-128023000D01*
X153423330Y-128098975D01*
X153063539Y-128248005D01*
X152739736Y-128464364D01*
X152464364Y-128739736D01*
X152248005Y-129063539D01*
X152098975Y-129423330D01*
X152023000Y-129805282D01*
X148324000Y-129805282D01*
X148324000Y-129160972D01*
X148293947Y-128855838D01*
X148175182Y-128464321D01*
X147982318Y-128103498D01*
X147722767Y-127787233D01*
X147406502Y-127527682D01*
X147374000Y-127510309D01*
X147374000Y-125220354D01*
X147379452Y-125164999D01*
X147374000Y-125109645D01*
X147374000Y-125109635D01*
X147357693Y-124944069D01*
X147293250Y-124731629D01*
X147221824Y-124598000D01*
X147188600Y-124535842D01*
X147120925Y-124453380D01*
X147047765Y-124364235D01*
X147004758Y-124328940D01*
X143466060Y-120790242D01*
X143430765Y-120747235D01*
X143259157Y-120606400D01*
X143063371Y-120501750D01*
X142850931Y-120437307D01*
X142685365Y-120421000D01*
X142685354Y-120421000D01*
X142630000Y-120415548D01*
X142574646Y-120421000D01*
X139958824Y-120421000D01*
X139958824Y-120298000D01*
X139951545Y-120224095D01*
X139929988Y-120153030D01*
X139894981Y-120087537D01*
X139847869Y-120030131D01*
X139790463Y-119983019D01*
X139724970Y-119948012D01*
X139653905Y-119926455D01*
X139580000Y-119919176D01*
X139207000Y-119919176D01*
X139207000Y-119232343D01*
X139738933Y-118700410D01*
X139768580Y-118676080D01*
X139792910Y-118646433D01*
X140011520Y-118427824D01*
X141054003Y-118427824D01*
X141176680Y-118415741D01*
X141294642Y-118379958D01*
X141403357Y-118321849D01*
X141498647Y-118243647D01*
X141576849Y-118148357D01*
X141634958Y-118039642D01*
X141670741Y-117921680D01*
X141682824Y-117799003D01*
X141682824Y-117293947D01*
X141727552Y-117348448D01*
X141807798Y-117414305D01*
X141899350Y-117463240D01*
X141998690Y-117493375D01*
X142102000Y-117503550D01*
X143097250Y-117501000D01*
X143229000Y-117369250D01*
X143229000Y-115947000D01*
X143475000Y-115947000D01*
X143475000Y-117369250D01*
X143606750Y-117501000D01*
X144602000Y-117503550D01*
X144705310Y-117493375D01*
X144804650Y-117463240D01*
X144896202Y-117414305D01*
X144976448Y-117348448D01*
X145042305Y-117268202D01*
X145091240Y-117176650D01*
X145121375Y-117077310D01*
X145131550Y-116974000D01*
X145129000Y-116078750D01*
X144997250Y-115947000D01*
X143475000Y-115947000D01*
X143229000Y-115947000D01*
X141706750Y-115947000D01*
X141575000Y-116078750D01*
X141573457Y-116620510D01*
X141498647Y-116529353D01*
X141403357Y-116451151D01*
X141294642Y-116393042D01*
X141176680Y-116357259D01*
X141054003Y-116345176D01*
X138853997Y-116345176D01*
X138731320Y-116357259D01*
X138613358Y-116393042D01*
X138504643Y-116451151D01*
X138409353Y-116529353D01*
X138331151Y-116624643D01*
X138273042Y-116733358D01*
X138237259Y-116851320D01*
X138225176Y-116973997D01*
X138225176Y-117347000D01*
X135719869Y-117347000D01*
X135678463Y-117313019D01*
X135612970Y-117278012D01*
X135541905Y-117256455D01*
X135468000Y-117249176D01*
X133468000Y-117249176D01*
X133394095Y-117256455D01*
X133323030Y-117278012D01*
X133257537Y-117313019D01*
X133200131Y-117360131D01*
X133153019Y-117417537D01*
X133118012Y-117483030D01*
X133096455Y-117554095D01*
X133089176Y-117628000D01*
X133089176Y-119128000D01*
X133096455Y-119201905D01*
X133118012Y-119272970D01*
X133153019Y-119338463D01*
X133200131Y-119395869D01*
X133257537Y-119442981D01*
X133323030Y-119477988D01*
X133394095Y-119499545D01*
X133468000Y-119506824D01*
X135468000Y-119506824D01*
X135541905Y-119499545D01*
X135612970Y-119477988D01*
X135678463Y-119442981D01*
X135735869Y-119395869D01*
X135782981Y-119338463D01*
X135817988Y-119272970D01*
X135839545Y-119201905D01*
X135846824Y-119128000D01*
X135846824Y-118901000D01*
X137650177Y-118901000D01*
X137649241Y-118910500D01*
X137653001Y-118948673D01*
X137653001Y-119919176D01*
X137280000Y-119919176D01*
X137206095Y-119926455D01*
X137135030Y-119948012D01*
X137069537Y-119983019D01*
X137012131Y-120030131D01*
X136965019Y-120087537D01*
X136930012Y-120153030D01*
X136908455Y-120224095D01*
X136901176Y-120298000D01*
X136901176Y-120421000D01*
X133142364Y-120421000D01*
X133087000Y-120415547D01*
X132866069Y-120437307D01*
X132653629Y-120501750D01*
X132457843Y-120606400D01*
X132329239Y-120711942D01*
X132329236Y-120711945D01*
X132286235Y-120747235D01*
X132250945Y-120790236D01*
X129409241Y-123631941D01*
X129366235Y-123667235D01*
X129225400Y-123838843D01*
X129120750Y-124034630D01*
X129056307Y-124247070D01*
X129040000Y-124412636D01*
X129040000Y-124412646D01*
X129034548Y-124468000D01*
X129040000Y-124523355D01*
X129040001Y-127503615D01*
X128979586Y-127535907D01*
X128655708Y-127801707D01*
X128389908Y-128125585D01*
X128192402Y-128495094D01*
X128070777Y-128896035D01*
X128040000Y-129208513D01*
X127214000Y-129208513D01*
X127183224Y-128896036D01*
X127061599Y-128495094D01*
X126864093Y-128125585D01*
X126598293Y-127801707D01*
X126274415Y-127535907D01*
X125904906Y-127338401D01*
X125503965Y-127216776D01*
X125087000Y-127175709D01*
X124670036Y-127216776D01*
X124269095Y-127338401D01*
X123899586Y-127535907D01*
X123689633Y-127708211D01*
X122073000Y-126091578D01*
X122073000Y-117824798D01*
X122095356Y-117812848D01*
X122190646Y-117734646D01*
X122268848Y-117639356D01*
X122326958Y-117530641D01*
X122362741Y-117412678D01*
X122374824Y-117290001D01*
X122374824Y-116389999D01*
X122362741Y-116267322D01*
X122326958Y-116149359D01*
X122268848Y-116040644D01*
X122190646Y-115945354D01*
X122095356Y-115867152D01*
X121986641Y-115809042D01*
X121973000Y-115804904D01*
X121973000Y-114453001D01*
X124489001Y-111937000D01*
X128401450Y-111937000D01*
X128411625Y-112040310D01*
X128441760Y-112139650D01*
X128490695Y-112231202D01*
X128556552Y-112311448D01*
X128636798Y-112377305D01*
X128728350Y-112426240D01*
X128827690Y-112456375D01*
X128931000Y-112466550D01*
X129263750Y-112464000D01*
X129395500Y-112332250D01*
X129395500Y-111335000D01*
X128535750Y-111335000D01*
X128404000Y-111466750D01*
X128401450Y-111937000D01*
X124489001Y-111937000D01*
X125939001Y-110487000D01*
X128401450Y-110487000D01*
X128404000Y-110957250D01*
X128535750Y-111089000D01*
X129395500Y-111089000D01*
X129395500Y-110091750D01*
X129263750Y-109960000D01*
X128931000Y-109957450D01*
X128827690Y-109967625D01*
X128728350Y-109997760D01*
X128636798Y-110046695D01*
X128556552Y-110112552D01*
X128490695Y-110192798D01*
X128441760Y-110284350D01*
X128411625Y-110383690D01*
X128401450Y-110487000D01*
X125939001Y-110487000D01*
X127202177Y-109223824D01*
X127890000Y-109223824D01*
X127993168Y-109213663D01*
X128092372Y-109183570D01*
X128183799Y-109134701D01*
X128263935Y-109068935D01*
X128329701Y-108988799D01*
X128378570Y-108897372D01*
X128408663Y-108798168D01*
X128418824Y-108695000D01*
X128418824Y-108395000D01*
X128408663Y-108291832D01*
X128378570Y-108192628D01*
X128329701Y-108101201D01*
X128263935Y-108021065D01*
X128183799Y-107955299D01*
X128099051Y-107910000D01*
X128183799Y-107864701D01*
X128263935Y-107798935D01*
X128329701Y-107718799D01*
X128378570Y-107627372D01*
X128408663Y-107528168D01*
X128418824Y-107425000D01*
X128418824Y-107125000D01*
X128408663Y-107021832D01*
X128378570Y-106922628D01*
X128329701Y-106831201D01*
X128263935Y-106751065D01*
X128183799Y-106685299D01*
X128099051Y-106640000D01*
X128183799Y-106594701D01*
X128263935Y-106528935D01*
X128329701Y-106448799D01*
X128378570Y-106357372D01*
X128408663Y-106258168D01*
X128418824Y-106155000D01*
X128418824Y-105855000D01*
X128408663Y-105751832D01*
X128378570Y-105652628D01*
X128329701Y-105561201D01*
X128282074Y-105503168D01*
X128334202Y-105475305D01*
X128414448Y-105409448D01*
X128480305Y-105329202D01*
X128529240Y-105237650D01*
X128559375Y-105138310D01*
X128569550Y-105035000D01*
X128567000Y-104989750D01*
X128435250Y-104858000D01*
X127188000Y-104858000D01*
X127188000Y-104878000D01*
X126942000Y-104878000D01*
X126942000Y-104858000D01*
X125694750Y-104858000D01*
X125563000Y-104989750D01*
X125560450Y-105035000D01*
X125570625Y-105138310D01*
X125600760Y-105237650D01*
X125649695Y-105329202D01*
X125715552Y-105409448D01*
X125738157Y-105428000D01*
X124630793Y-105428000D01*
X124658240Y-105376650D01*
X124688375Y-105277310D01*
X124698550Y-105174000D01*
X124696000Y-104841250D01*
X124564250Y-104709500D01*
X123567000Y-104709500D01*
X123567000Y-104729500D01*
X123321000Y-104729500D01*
X123321000Y-104709500D01*
X123301000Y-104709500D01*
X123301000Y-104463500D01*
X123321000Y-104463500D01*
X123321000Y-103603750D01*
X123567000Y-103603750D01*
X123567000Y-104463500D01*
X124564250Y-104463500D01*
X124592750Y-104435000D01*
X125560450Y-104435000D01*
X125563000Y-104480250D01*
X125694750Y-104612000D01*
X126942000Y-104612000D01*
X126942000Y-104039750D01*
X127188000Y-104039750D01*
X127188000Y-104612000D01*
X128435250Y-104612000D01*
X128567000Y-104480250D01*
X128569550Y-104435000D01*
X128559375Y-104331690D01*
X128529240Y-104232350D01*
X128480305Y-104140798D01*
X128414448Y-104060552D01*
X128334202Y-103994695D01*
X128242650Y-103945760D01*
X128143310Y-103915625D01*
X128040000Y-103905450D01*
X127319750Y-103908000D01*
X127188000Y-104039750D01*
X126942000Y-104039750D01*
X126810250Y-103908000D01*
X126090000Y-103905450D01*
X125986690Y-103915625D01*
X125887350Y-103945760D01*
X125795798Y-103994695D01*
X125715552Y-104060552D01*
X125649695Y-104140798D01*
X125600760Y-104232350D01*
X125570625Y-104331690D01*
X125560450Y-104435000D01*
X124592750Y-104435000D01*
X124696000Y-104331750D01*
X124698550Y-103999000D01*
X124688375Y-103895690D01*
X124658240Y-103796350D01*
X124609305Y-103704798D01*
X124543448Y-103624552D01*
X124463202Y-103558695D01*
X124371650Y-103509760D01*
X124272310Y-103479625D01*
X124169000Y-103469450D01*
X123698750Y-103472000D01*
X123567000Y-103603750D01*
X123321000Y-103603750D01*
X123189250Y-103472000D01*
X122845990Y-103470139D01*
X122845990Y-102148000D01*
X124480450Y-102148000D01*
X124490625Y-102251310D01*
X124520760Y-102350650D01*
X124569695Y-102442202D01*
X124635552Y-102522448D01*
X124715798Y-102588305D01*
X124807350Y-102637240D01*
X124906690Y-102667375D01*
X125010000Y-102677550D01*
X125205250Y-102675000D01*
X125337000Y-102543250D01*
X125337000Y-101871000D01*
X125583000Y-101871000D01*
X125583000Y-102543250D01*
X125714750Y-102675000D01*
X125910000Y-102677550D01*
X126013310Y-102667375D01*
X126112650Y-102637240D01*
X126204202Y-102588305D01*
X126284448Y-102522448D01*
X126350305Y-102442202D01*
X126360568Y-102423000D01*
X126761450Y-102423000D01*
X126771625Y-102526310D01*
X126801760Y-102625650D01*
X126850695Y-102717202D01*
X126916552Y-102797448D01*
X126996798Y-102863305D01*
X127088350Y-102912240D01*
X127187690Y-102942375D01*
X127291000Y-102952550D01*
X127761250Y-102950000D01*
X127893000Y-102818250D01*
X127893000Y-101958500D01*
X128139000Y-101958500D01*
X128139000Y-102818250D01*
X128270750Y-102950000D01*
X128741000Y-102952550D01*
X128844310Y-102942375D01*
X128943650Y-102912240D01*
X129035202Y-102863305D01*
X129115448Y-102797448D01*
X129181305Y-102717202D01*
X129230240Y-102625650D01*
X129260375Y-102526310D01*
X129270550Y-102423000D01*
X129268000Y-102090250D01*
X129136250Y-101958500D01*
X128139000Y-101958500D01*
X127893000Y-101958500D01*
X126895750Y-101958500D01*
X126764000Y-102090250D01*
X126761450Y-102423000D01*
X126360568Y-102423000D01*
X126399240Y-102350650D01*
X126429375Y-102251310D01*
X126439550Y-102148000D01*
X126437000Y-102002750D01*
X126305250Y-101871000D01*
X125583000Y-101871000D01*
X125337000Y-101871000D01*
X124614750Y-101871000D01*
X124483000Y-102002750D01*
X124480450Y-102148000D01*
X122845990Y-102148000D01*
X122845990Y-101537811D01*
X122865030Y-101547988D01*
X122936095Y-101569545D01*
X123010000Y-101576824D01*
X123910000Y-101576824D01*
X123983905Y-101569545D01*
X124054970Y-101547988D01*
X124120463Y-101512981D01*
X124177869Y-101465869D01*
X124224981Y-101408463D01*
X124257299Y-101348000D01*
X124480450Y-101348000D01*
X124483000Y-101493250D01*
X124614750Y-101625000D01*
X125337000Y-101625000D01*
X125337000Y-100952750D01*
X125583000Y-100952750D01*
X125583000Y-101625000D01*
X126305250Y-101625000D01*
X126437000Y-101493250D01*
X126439550Y-101348000D01*
X126429375Y-101244690D01*
X126399240Y-101145350D01*
X126350305Y-101053798D01*
X126284448Y-100973552D01*
X126204202Y-100907695D01*
X126112650Y-100858760D01*
X126013310Y-100828625D01*
X125910000Y-100818450D01*
X125714750Y-100821000D01*
X125583000Y-100952750D01*
X125337000Y-100952750D01*
X125205250Y-100821000D01*
X125010000Y-100818450D01*
X124906690Y-100828625D01*
X124807350Y-100858760D01*
X124715798Y-100907695D01*
X124635552Y-100973552D01*
X124569695Y-101053798D01*
X124520760Y-101145350D01*
X124490625Y-101244690D01*
X124480450Y-101348000D01*
X124257299Y-101348000D01*
X124259988Y-101342970D01*
X124281545Y-101271905D01*
X124288824Y-101198000D01*
X124288824Y-100398000D01*
X124281545Y-100324095D01*
X124259988Y-100253030D01*
X124224981Y-100187537D01*
X124177869Y-100130131D01*
X124120463Y-100083019D01*
X124054970Y-100048012D01*
X123983905Y-100026455D01*
X123910000Y-100019176D01*
X123525571Y-100019176D01*
X125469767Y-98074980D01*
X139832002Y-98074980D01*
X141643886Y-99886864D01*
X141477939Y-99836525D01*
X141275640Y-99816600D01*
X139140360Y-99816600D01*
X138938061Y-99836525D01*
X138678495Y-99915263D01*
X138439279Y-100043127D01*
X138229603Y-100215203D01*
X138057527Y-100424879D01*
X137929663Y-100664095D01*
X137850925Y-100923661D01*
X137824338Y-101193600D01*
X137850925Y-101463539D01*
X137929663Y-101723105D01*
X138057527Y-101962321D01*
X138229603Y-102171997D01*
X138439279Y-102344073D01*
X138662898Y-102463600D01*
X138439279Y-102583127D01*
X138229603Y-102755203D01*
X138057527Y-102964879D01*
X137955050Y-103156600D01*
X137834731Y-103156600D01*
X137806400Y-103153810D01*
X137778069Y-103156600D01*
X137778064Y-103156600D01*
X137751286Y-103159237D01*
X137693288Y-103164949D01*
X137629182Y-103184396D01*
X137584524Y-103197943D01*
X137484285Y-103251521D01*
X137396426Y-103323626D01*
X137378361Y-103345638D01*
X136094231Y-104629768D01*
X136007001Y-104621176D01*
X134756999Y-104621176D01*
X134634322Y-104633259D01*
X134516359Y-104669042D01*
X134407644Y-104727152D01*
X134312354Y-104805354D01*
X134234152Y-104900644D01*
X134176042Y-105009359D01*
X134140259Y-105127322D01*
X134128176Y-105249999D01*
X134128176Y-105428000D01*
X133149275Y-105428000D01*
X133133799Y-105415299D01*
X133049051Y-105370000D01*
X133133799Y-105324701D01*
X133213935Y-105258935D01*
X133279701Y-105178799D01*
X133328570Y-105087372D01*
X133358663Y-104988168D01*
X133368824Y-104885000D01*
X133368824Y-104585000D01*
X133358663Y-104481832D01*
X133328570Y-104382628D01*
X133279701Y-104291201D01*
X133213935Y-104211065D01*
X133133799Y-104145299D01*
X133042372Y-104096430D01*
X132943168Y-104066337D01*
X132840000Y-104056176D01*
X132592000Y-104056176D01*
X132592000Y-103200000D01*
X133977450Y-103200000D01*
X133987625Y-103303310D01*
X134017760Y-103402650D01*
X134066695Y-103494202D01*
X134132552Y-103574448D01*
X134212798Y-103640305D01*
X134304350Y-103689240D01*
X134403690Y-103719375D01*
X134507000Y-103729550D01*
X135127250Y-103727000D01*
X135259000Y-103595250D01*
X135259000Y-102673000D01*
X135505000Y-102673000D01*
X135505000Y-103595250D01*
X135636750Y-103727000D01*
X136257000Y-103729550D01*
X136360310Y-103719375D01*
X136459650Y-103689240D01*
X136551202Y-103640305D01*
X136631448Y-103574448D01*
X136697305Y-103494202D01*
X136746240Y-103402650D01*
X136776375Y-103303310D01*
X136786550Y-103200000D01*
X136784000Y-102804750D01*
X136652250Y-102673000D01*
X135505000Y-102673000D01*
X135259000Y-102673000D01*
X134111750Y-102673000D01*
X133980000Y-102804750D01*
X133977450Y-103200000D01*
X132592000Y-103200000D01*
X132592000Y-101900000D01*
X133977450Y-101900000D01*
X133980000Y-102295250D01*
X134111750Y-102427000D01*
X135259000Y-102427000D01*
X135259000Y-101504750D01*
X135505000Y-101504750D01*
X135505000Y-102427000D01*
X136652250Y-102427000D01*
X136784000Y-102295250D01*
X136786550Y-101900000D01*
X136776375Y-101796690D01*
X136746240Y-101697350D01*
X136697305Y-101605798D01*
X136631448Y-101525552D01*
X136551202Y-101459695D01*
X136459650Y-101410760D01*
X136360310Y-101380625D01*
X136257000Y-101370450D01*
X135636750Y-101373000D01*
X135505000Y-101504750D01*
X135259000Y-101504750D01*
X135127250Y-101373000D01*
X134507000Y-101370450D01*
X134403690Y-101380625D01*
X134304350Y-101410760D01*
X134212798Y-101459695D01*
X134132552Y-101525552D01*
X134066695Y-101605798D01*
X134017760Y-101697350D01*
X133987625Y-101796690D01*
X133977450Y-101900000D01*
X132592000Y-101900000D01*
X132592000Y-100761328D01*
X132594790Y-100732999D01*
X132592000Y-100704670D01*
X132592000Y-100704664D01*
X132583650Y-100619888D01*
X132550657Y-100511124D01*
X132497079Y-100410885D01*
X132424974Y-100323026D01*
X132402962Y-100304961D01*
X131804102Y-99706101D01*
X131809824Y-99648001D01*
X131809824Y-98847999D01*
X131797741Y-98725322D01*
X131761958Y-98607359D01*
X131703848Y-98498644D01*
X131625646Y-98403354D01*
X131530356Y-98325152D01*
X131421641Y-98267042D01*
X131303678Y-98231259D01*
X131181001Y-98219176D01*
X129930999Y-98219176D01*
X129808322Y-98231259D01*
X129690359Y-98267042D01*
X129581644Y-98325152D01*
X129486354Y-98403354D01*
X129408152Y-98498644D01*
X129350042Y-98607359D01*
X129314259Y-98725322D01*
X129302176Y-98847999D01*
X129302176Y-99083500D01*
X129019116Y-99083500D01*
X129013848Y-99073644D01*
X128935646Y-98978354D01*
X128840356Y-98900152D01*
X128731641Y-98842042D01*
X128613677Y-98806259D01*
X128491000Y-98794176D01*
X127541000Y-98794176D01*
X127418323Y-98806259D01*
X127300359Y-98842042D01*
X127191644Y-98900152D01*
X127096354Y-98978354D01*
X127018152Y-99073644D01*
X126966114Y-99171000D01*
X126166743Y-99171000D01*
X126120463Y-99133019D01*
X126054970Y-99098012D01*
X125983905Y-99076455D01*
X125910000Y-99069176D01*
X125010000Y-99069176D01*
X124936095Y-99076455D01*
X124865030Y-99098012D01*
X124799537Y-99133019D01*
X124742131Y-99180131D01*
X124695019Y-99237537D01*
X124660012Y-99303030D01*
X124638455Y-99374095D01*
X124631176Y-99448000D01*
X124631176Y-100248000D01*
X124638455Y-100321905D01*
X124660012Y-100392970D01*
X124695019Y-100458463D01*
X124742131Y-100515869D01*
X124799537Y-100562981D01*
X124865030Y-100597988D01*
X124936095Y-100619545D01*
X125010000Y-100626824D01*
X125910000Y-100626824D01*
X125983905Y-100619545D01*
X126054970Y-100597988D01*
X126120463Y-100562981D01*
X126166743Y-100525000D01*
X127081872Y-100525000D01*
X127096354Y-100542646D01*
X127191644Y-100620848D01*
X127300359Y-100678958D01*
X127418323Y-100714741D01*
X127465592Y-100719397D01*
X127291000Y-100718450D01*
X127187690Y-100728625D01*
X127088350Y-100758760D01*
X126996798Y-100807695D01*
X126916552Y-100873552D01*
X126850695Y-100953798D01*
X126801760Y-101045350D01*
X126771625Y-101144690D01*
X126761450Y-101248000D01*
X126764000Y-101580750D01*
X126895750Y-101712500D01*
X127893000Y-101712500D01*
X127893000Y-101692500D01*
X128139000Y-101692500D01*
X128139000Y-101712500D01*
X129136250Y-101712500D01*
X129268000Y-101580750D01*
X129270550Y-101248000D01*
X129260375Y-101144690D01*
X129230240Y-101045350D01*
X129181305Y-100953798D01*
X129115448Y-100873552D01*
X129035202Y-100807695D01*
X128943650Y-100758760D01*
X128844310Y-100728625D01*
X128741000Y-100718450D01*
X128566408Y-100719397D01*
X128613677Y-100714741D01*
X128731641Y-100678958D01*
X128840356Y-100620848D01*
X128935646Y-100542646D01*
X129013848Y-100447356D01*
X129019116Y-100437500D01*
X130010255Y-100437500D01*
X130043500Y-100440774D01*
X130076745Y-100437500D01*
X130076752Y-100437500D01*
X130176215Y-100427704D01*
X130303830Y-100388992D01*
X130421441Y-100326128D01*
X130481518Y-100276824D01*
X130742823Y-100276824D01*
X131438001Y-100972002D01*
X131438001Y-101375787D01*
X131421641Y-101367042D01*
X131303678Y-101331259D01*
X131181001Y-101319176D01*
X129930999Y-101319176D01*
X129808322Y-101331259D01*
X129690359Y-101367042D01*
X129581644Y-101425152D01*
X129486354Y-101503354D01*
X129408152Y-101598644D01*
X129350042Y-101707359D01*
X129314259Y-101825322D01*
X129302176Y-101947999D01*
X129302176Y-102748001D01*
X129314259Y-102870678D01*
X129350042Y-102988641D01*
X129408152Y-103097356D01*
X129486354Y-103192646D01*
X129581644Y-103270848D01*
X129690359Y-103328958D01*
X129808322Y-103364741D01*
X129812991Y-103365201D01*
X129812990Y-107961745D01*
X129809716Y-107994990D01*
X129812990Y-108028235D01*
X129812990Y-108028241D01*
X129819053Y-108089801D01*
X129822786Y-108127704D01*
X129861498Y-108255319D01*
X129924362Y-108372930D01*
X129981139Y-108442112D01*
X130008963Y-108476016D01*
X130034790Y-108497212D01*
X130537778Y-109000201D01*
X130558973Y-109026027D01*
X130584799Y-109047222D01*
X130584801Y-109047224D01*
X130662059Y-109110628D01*
X130779670Y-109173492D01*
X130907285Y-109212204D01*
X131040000Y-109225275D01*
X131073252Y-109222000D01*
X131171480Y-109222000D01*
X131190000Y-109223824D01*
X131338000Y-109223824D01*
X131338001Y-110108176D01*
X131256000Y-110108176D01*
X131133323Y-110120259D01*
X131015359Y-110156042D01*
X130906644Y-110214152D01*
X130811354Y-110292354D01*
X130733152Y-110387644D01*
X130675042Y-110496359D01*
X130639259Y-110614323D01*
X130634603Y-110661592D01*
X130635550Y-110487000D01*
X130625375Y-110383690D01*
X130595240Y-110284350D01*
X130546305Y-110192798D01*
X130480448Y-110112552D01*
X130400202Y-110046695D01*
X130308650Y-109997760D01*
X130209310Y-109967625D01*
X130106000Y-109957450D01*
X129773250Y-109960000D01*
X129641500Y-110091750D01*
X129641500Y-111089000D01*
X129661500Y-111089000D01*
X129661500Y-111335000D01*
X129641500Y-111335000D01*
X129641500Y-112332250D01*
X129773250Y-112464000D01*
X130106000Y-112466550D01*
X130209310Y-112456375D01*
X130308650Y-112426240D01*
X130400202Y-112377305D01*
X130480448Y-112311448D01*
X130546305Y-112231202D01*
X130595240Y-112139650D01*
X130625375Y-112040310D01*
X130635550Y-111937000D01*
X130634603Y-111762408D01*
X130639259Y-111809677D01*
X130675042Y-111927641D01*
X130733152Y-112036356D01*
X130811354Y-112131646D01*
X130906644Y-112209848D01*
X131015359Y-112267958D01*
X131133323Y-112303741D01*
X131256000Y-112315824D01*
X131931000Y-112315824D01*
X132051129Y-112303992D01*
X132037240Y-112445001D01*
X132041000Y-112483174D01*
X132040999Y-115009837D01*
X132037339Y-115047000D01*
X129546824Y-115047000D01*
X129546824Y-114178000D01*
X129539545Y-114104095D01*
X129517988Y-114033030D01*
X129482981Y-113967537D01*
X129435869Y-113910131D01*
X129378463Y-113863019D01*
X129312970Y-113828012D01*
X129241905Y-113806455D01*
X129168000Y-113799176D01*
X127168000Y-113799176D01*
X127094095Y-113806455D01*
X127023030Y-113828012D01*
X126957537Y-113863019D01*
X126900131Y-113910131D01*
X126853019Y-113967537D01*
X126818012Y-114033030D01*
X126796455Y-114104095D01*
X126789176Y-114178000D01*
X126789176Y-117978000D01*
X126796455Y-118051905D01*
X126818012Y-118122970D01*
X126853019Y-118188463D01*
X126900131Y-118245869D01*
X126957537Y-118292981D01*
X127023030Y-118327988D01*
X127094095Y-118349545D01*
X127168000Y-118356824D01*
X129168000Y-118356824D01*
X129241905Y-118349545D01*
X129312970Y-118327988D01*
X129378463Y-118292981D01*
X129435869Y-118245869D01*
X129482981Y-118188463D01*
X129517988Y-118122970D01*
X129539545Y-118051905D01*
X129546824Y-117978000D01*
X129546824Y-116601000D01*
X133089176Y-116601000D01*
X133089176Y-116828000D01*
X133096455Y-116901905D01*
X133118012Y-116972970D01*
X133153019Y-117038463D01*
X133200131Y-117095869D01*
X133257537Y-117142981D01*
X133323030Y-117177988D01*
X133394095Y-117199545D01*
X133468000Y-117206824D01*
X135468000Y-117206824D01*
X135541905Y-117199545D01*
X135612970Y-117177988D01*
X135678463Y-117142981D01*
X135735869Y-117095869D01*
X135782981Y-117038463D01*
X135817988Y-116972970D01*
X135839545Y-116901905D01*
X135846824Y-116828000D01*
X135846824Y-115328000D01*
X135839545Y-115254095D01*
X135817988Y-115183030D01*
X135782981Y-115117537D01*
X135735869Y-115060131D01*
X135678496Y-115013046D01*
X135762202Y-114968305D01*
X135816187Y-114924000D01*
X138074450Y-114924000D01*
X138084625Y-115027310D01*
X138114760Y-115126650D01*
X138163695Y-115218202D01*
X138229552Y-115298448D01*
X138309798Y-115364305D01*
X138401350Y-115413240D01*
X138500690Y-115443375D01*
X138604000Y-115453550D01*
X139699250Y-115451000D01*
X139831000Y-115319250D01*
X139831000Y-114384500D01*
X138208750Y-114384500D01*
X138077000Y-114516250D01*
X138074450Y-114924000D01*
X135816187Y-114924000D01*
X135842448Y-114902448D01*
X135908305Y-114822202D01*
X135957240Y-114730650D01*
X135987375Y-114631310D01*
X135997550Y-114528000D01*
X135995000Y-114032750D01*
X135863250Y-113901000D01*
X134591000Y-113901000D01*
X134591000Y-113921000D01*
X134345000Y-113921000D01*
X134345000Y-113901000D01*
X134325000Y-113901000D01*
X134325000Y-113655000D01*
X134345000Y-113655000D01*
X134345000Y-112632750D01*
X134591000Y-112632750D01*
X134591000Y-113655000D01*
X135863250Y-113655000D01*
X135919250Y-113599000D01*
X138074450Y-113599000D01*
X138077000Y-114006750D01*
X138208750Y-114138500D01*
X139831000Y-114138500D01*
X139831000Y-113203750D01*
X140077000Y-113203750D01*
X140077000Y-114138500D01*
X140097000Y-114138500D01*
X140097000Y-114384500D01*
X140077000Y-114384500D01*
X140077000Y-115319250D01*
X140208750Y-115451000D01*
X141304000Y-115453550D01*
X141407310Y-115443375D01*
X141506650Y-115413240D01*
X141574452Y-115376999D01*
X141575000Y-115569250D01*
X141706750Y-115701000D01*
X143229000Y-115701000D01*
X143229000Y-114278750D01*
X143475000Y-114278750D01*
X143475000Y-115701000D01*
X144997250Y-115701000D01*
X145129000Y-115569250D01*
X145131550Y-114674000D01*
X145121375Y-114570690D01*
X145091240Y-114471350D01*
X145042305Y-114379798D01*
X144976448Y-114299552D01*
X144896202Y-114233695D01*
X144804650Y-114184760D01*
X144705310Y-114154625D01*
X144602000Y-114144450D01*
X143606750Y-114147000D01*
X143475000Y-114278750D01*
X143229000Y-114278750D01*
X143097250Y-114147000D01*
X142102000Y-114144450D01*
X141998690Y-114154625D01*
X141899350Y-114184760D01*
X141831000Y-114221293D01*
X141831000Y-114138498D01*
X141699252Y-114138498D01*
X141831000Y-114006750D01*
X141833550Y-113599000D01*
X141823375Y-113495690D01*
X141793240Y-113396350D01*
X141744305Y-113304798D01*
X141678448Y-113224552D01*
X141598202Y-113158695D01*
X141506650Y-113109760D01*
X141407310Y-113079625D01*
X141304000Y-113069450D01*
X140208750Y-113072000D01*
X140077000Y-113203750D01*
X139831000Y-113203750D01*
X139699250Y-113072000D01*
X138604000Y-113069450D01*
X138500690Y-113079625D01*
X138401350Y-113109760D01*
X138309798Y-113158695D01*
X138229552Y-113224552D01*
X138163695Y-113304798D01*
X138114760Y-113396350D01*
X138084625Y-113495690D01*
X138074450Y-113599000D01*
X135919250Y-113599000D01*
X135995000Y-113523250D01*
X135997550Y-113028000D01*
X135987375Y-112924690D01*
X135957240Y-112825350D01*
X135908305Y-112733798D01*
X135842448Y-112653552D01*
X135762202Y-112587695D01*
X135670650Y-112538760D01*
X135571310Y-112508625D01*
X135468000Y-112498450D01*
X134722750Y-112501000D01*
X134591000Y-112632750D01*
X134345000Y-112632750D01*
X134213250Y-112501000D01*
X133862045Y-112499798D01*
X134340843Y-112021000D01*
X141572450Y-112021000D01*
X141582625Y-112124310D01*
X141612760Y-112223650D01*
X141661695Y-112315202D01*
X141727552Y-112395448D01*
X141807798Y-112461305D01*
X141899350Y-112510240D01*
X141998690Y-112540375D01*
X142102000Y-112550550D01*
X143097250Y-112548000D01*
X143229000Y-112416250D01*
X143229000Y-110994000D01*
X143475000Y-110994000D01*
X143475000Y-112416250D01*
X143606750Y-112548000D01*
X144602000Y-112550550D01*
X144705310Y-112540375D01*
X144804650Y-112510240D01*
X144896202Y-112461305D01*
X144976448Y-112395448D01*
X145042305Y-112315202D01*
X145091240Y-112223650D01*
X145121375Y-112124310D01*
X145131550Y-112021000D01*
X145129000Y-111125750D01*
X144997250Y-110994000D01*
X143475000Y-110994000D01*
X143229000Y-110994000D01*
X141706750Y-110994000D01*
X141575000Y-111125750D01*
X141572450Y-112021000D01*
X134340843Y-112021000D01*
X134554083Y-111807761D01*
X134646323Y-111835741D01*
X134769000Y-111847824D01*
X135444000Y-111847824D01*
X135566677Y-111835741D01*
X135684641Y-111799958D01*
X135793356Y-111741848D01*
X135888646Y-111663646D01*
X135966848Y-111568356D01*
X136024958Y-111459641D01*
X136060741Y-111341677D01*
X136065397Y-111294408D01*
X136064450Y-111469000D01*
X136074625Y-111572310D01*
X136104760Y-111671650D01*
X136153695Y-111763202D01*
X136219552Y-111843448D01*
X136299798Y-111909305D01*
X136391350Y-111958240D01*
X136490690Y-111988375D01*
X136594000Y-111998550D01*
X136926750Y-111996000D01*
X137058500Y-111864250D01*
X137058500Y-110867000D01*
X137304500Y-110867000D01*
X137304500Y-111864250D01*
X137436250Y-111996000D01*
X137769000Y-111998550D01*
X137872310Y-111988375D01*
X137971650Y-111958240D01*
X138063202Y-111909305D01*
X138143448Y-111843448D01*
X138209305Y-111763202D01*
X138258240Y-111671650D01*
X138288375Y-111572310D01*
X138298550Y-111469000D01*
X138296000Y-110998750D01*
X138164250Y-110867000D01*
X137304500Y-110867000D01*
X137058500Y-110867000D01*
X137038500Y-110867000D01*
X137038500Y-110621000D01*
X137058500Y-110621000D01*
X137058500Y-110601000D01*
X137304500Y-110601000D01*
X137304500Y-110621000D01*
X138164250Y-110621000D01*
X138296000Y-110489250D01*
X138298550Y-110019000D01*
X138288375Y-109915690D01*
X138258240Y-109816350D01*
X138209305Y-109724798D01*
X138206189Y-109721000D01*
X141572450Y-109721000D01*
X141575000Y-110616250D01*
X141706750Y-110748000D01*
X143229000Y-110748000D01*
X143229000Y-109325750D01*
X143475000Y-109325750D01*
X143475000Y-110748000D01*
X144997250Y-110748000D01*
X145129000Y-110616250D01*
X145131550Y-109721000D01*
X145121375Y-109617690D01*
X145091240Y-109518350D01*
X145042305Y-109426798D01*
X144976448Y-109346552D01*
X144896202Y-109280695D01*
X144804650Y-109231760D01*
X144705310Y-109201625D01*
X144602000Y-109191450D01*
X143606750Y-109194000D01*
X143475000Y-109325750D01*
X143229000Y-109325750D01*
X143097250Y-109194000D01*
X142102000Y-109191450D01*
X141998690Y-109201625D01*
X141899350Y-109231760D01*
X141807798Y-109280695D01*
X141727552Y-109346552D01*
X141661695Y-109426798D01*
X141612760Y-109518350D01*
X141582625Y-109617690D01*
X141572450Y-109721000D01*
X138206189Y-109721000D01*
X138143448Y-109644552D01*
X138063202Y-109578695D01*
X137971650Y-109529760D01*
X137872310Y-109499625D01*
X137769000Y-109489450D01*
X137436250Y-109492000D01*
X137304502Y-109623748D01*
X137304502Y-109503421D01*
X138053923Y-108754000D01*
X143879255Y-108754000D01*
X143912500Y-108757274D01*
X143945745Y-108754000D01*
X143945752Y-108754000D01*
X144045215Y-108744204D01*
X144172830Y-108705492D01*
X144290441Y-108642628D01*
X144393527Y-108558027D01*
X144414726Y-108532196D01*
X144771098Y-108175824D01*
X145255000Y-108175824D01*
X145377677Y-108163741D01*
X145495641Y-108127958D01*
X145604356Y-108069848D01*
X145699646Y-107991646D01*
X145777848Y-107896356D01*
X145835958Y-107787641D01*
X145853746Y-107729000D01*
X146695481Y-107729000D01*
X146714000Y-107730824D01*
X148274000Y-107730824D01*
X148347905Y-107723545D01*
X148418970Y-107701988D01*
X148484463Y-107666981D01*
X148541869Y-107619869D01*
X148588981Y-107562463D01*
X148623988Y-107496970D01*
X148645545Y-107425905D01*
X148652824Y-107352000D01*
X148652824Y-106952000D01*
X148645545Y-106878095D01*
X148630046Y-106827000D01*
X148645545Y-106775905D01*
X148652824Y-106702000D01*
X148652824Y-106302000D01*
X148645545Y-106228095D01*
X148628529Y-106172000D01*
X148645545Y-106115905D01*
X148652824Y-106042000D01*
X148652824Y-105760958D01*
X148713634Y-105687204D01*
X148762778Y-105595763D01*
X148793138Y-105496492D01*
X148801000Y-105396750D01*
X148669250Y-105265000D01*
X148292519Y-105265000D01*
X148274000Y-105263176D01*
X146714000Y-105263176D01*
X146695481Y-105265000D01*
X145907750Y-105265000D01*
X145900250Y-105257500D01*
X144903000Y-105257500D01*
X144903000Y-105277500D01*
X144657000Y-105277500D01*
X144657000Y-105257500D01*
X144637000Y-105257500D01*
X144637000Y-105011500D01*
X144657000Y-105011500D01*
X144657000Y-104151750D01*
X144903000Y-104151750D01*
X144903000Y-105011500D01*
X145900250Y-105011500D01*
X145924500Y-104987250D01*
X146187000Y-104987250D01*
X146318750Y-105119000D01*
X147371000Y-105119000D01*
X147371000Y-104596750D01*
X147617000Y-104596750D01*
X147617000Y-105119000D01*
X148669250Y-105119000D01*
X148801000Y-104987250D01*
X148793138Y-104887508D01*
X148762778Y-104788237D01*
X148713634Y-104696796D01*
X148647595Y-104616700D01*
X148567199Y-104551027D01*
X148475536Y-104502300D01*
X148376128Y-104472391D01*
X148272795Y-104462451D01*
X147748750Y-104465000D01*
X147617000Y-104596750D01*
X147371000Y-104596750D01*
X147239250Y-104465000D01*
X146715205Y-104462451D01*
X146611872Y-104472391D01*
X146512464Y-104502300D01*
X146420801Y-104551027D01*
X146340405Y-104616700D01*
X146274366Y-104696796D01*
X146225222Y-104788237D01*
X146194862Y-104887508D01*
X146187000Y-104987250D01*
X145924500Y-104987250D01*
X146032000Y-104879750D01*
X146034550Y-104547000D01*
X146024375Y-104443690D01*
X145994240Y-104344350D01*
X145945305Y-104252798D01*
X145879448Y-104172552D01*
X145799202Y-104106695D01*
X145707650Y-104057760D01*
X145608310Y-104027625D01*
X145505000Y-104017450D01*
X145034750Y-104020000D01*
X144903000Y-104151750D01*
X144657000Y-104151750D01*
X144525250Y-104020000D01*
X144055000Y-104017450D01*
X143951690Y-104027625D01*
X143852350Y-104057760D01*
X143760798Y-104106695D01*
X143743010Y-104121293D01*
X143743010Y-100621318D01*
X143745800Y-100592987D01*
X143742846Y-100562981D01*
X143739055Y-100524494D01*
X143734661Y-100479875D01*
X143713732Y-100410885D01*
X143701667Y-100371111D01*
X143648089Y-100270872D01*
X143575984Y-100183013D01*
X143553972Y-100164948D01*
X140740024Y-97351000D01*
X142762999Y-97351000D01*
X149617000Y-104205001D01*
X149617000Y-104222335D01*
X149617001Y-104222345D01*
X149617001Y-104613176D01*
X149414000Y-104613176D01*
X149340095Y-104620455D01*
X149269030Y-104642012D01*
X149203537Y-104677019D01*
X149146131Y-104724131D01*
X149099019Y-104781537D01*
X149064012Y-104847030D01*
X149042455Y-104918095D01*
X149035176Y-104992000D01*
X149035176Y-105392000D01*
X149042455Y-105465905D01*
X149057954Y-105517000D01*
X149042455Y-105568095D01*
X149035176Y-105642000D01*
X149035176Y-106042000D01*
X149042455Y-106115905D01*
X149059471Y-106172000D01*
X149042455Y-106228095D01*
X149035176Y-106302000D01*
X149035176Y-106702000D01*
X149042455Y-106775905D01*
X149057954Y-106827000D01*
X149042455Y-106878095D01*
X149035176Y-106952000D01*
X149035176Y-107352000D01*
X149042455Y-107425905D01*
X149064012Y-107496970D01*
X149099019Y-107562463D01*
X149146131Y-107619869D01*
X149203537Y-107666981D01*
X149269030Y-107701988D01*
X149340095Y-107723545D01*
X149414000Y-107730824D01*
X149617000Y-107730824D01*
X149617001Y-108089998D01*
X148364823Y-109342176D01*
X146402000Y-109342176D01*
X146328095Y-109349455D01*
X146257030Y-109371012D01*
X146191537Y-109406019D01*
X146134131Y-109453131D01*
X146087019Y-109510537D01*
X146052012Y-109576030D01*
X146030455Y-109647095D01*
X146023176Y-109721000D01*
X146023176Y-111542402D01*
X145396799Y-112168779D01*
X145370972Y-112189975D01*
X145349777Y-112215801D01*
X145349775Y-112215803D01*
X145289811Y-112288869D01*
X145286371Y-112293061D01*
X145223507Y-112410672D01*
X145184795Y-112538287D01*
X145174999Y-112637750D01*
X145174999Y-112637756D01*
X145171725Y-112671001D01*
X145174999Y-112704246D01*
X145175000Y-117380746D01*
X145171725Y-117414001D01*
X145184795Y-117546715D01*
X145223507Y-117674330D01*
X145286371Y-117791941D01*
X145349775Y-117869199D01*
X145349778Y-117869202D01*
X145370973Y-117895028D01*
X145396799Y-117916223D01*
X147315772Y-119835196D01*
X147336971Y-119861027D01*
X147440057Y-119945628D01*
X147557668Y-120008492D01*
X147685283Y-120047204D01*
X147784746Y-120057000D01*
X147784755Y-120057000D01*
X147817997Y-120060274D01*
X147851239Y-120057000D01*
X149559693Y-120057000D01*
X149648589Y-120129955D01*
X149755143Y-120186909D01*
X149870761Y-120221982D01*
X149991000Y-120233824D01*
X150491000Y-120233824D01*
X150611239Y-120221982D01*
X150726857Y-120186909D01*
X150833411Y-120129955D01*
X150926807Y-120053307D01*
X151003455Y-119959911D01*
X151060409Y-119853357D01*
X151095482Y-119737739D01*
X151107324Y-119617500D01*
X151107324Y-119142500D01*
X151199676Y-119142500D01*
X151199676Y-119617500D01*
X151211518Y-119737739D01*
X151246591Y-119853357D01*
X151303545Y-119959911D01*
X151380193Y-120053307D01*
X151473589Y-120129955D01*
X151580143Y-120186909D01*
X151695761Y-120221982D01*
X151816000Y-120233824D01*
X152316000Y-120233824D01*
X152436239Y-120221982D01*
X152551857Y-120186909D01*
X152658411Y-120129955D01*
X152747307Y-120057000D01*
X154485755Y-120057000D01*
X154519000Y-120060274D01*
X154552245Y-120057000D01*
X154552252Y-120057000D01*
X154651715Y-120047204D01*
X154779330Y-120008492D01*
X154896941Y-119945628D01*
X155000027Y-119861027D01*
X155021226Y-119835196D01*
X155363928Y-119492494D01*
X155561971Y-119512000D01*
X157366029Y-119512000D01*
X157671163Y-119481947D01*
X158062679Y-119363182D01*
X158423502Y-119170318D01*
X158739767Y-118910767D01*
X158999318Y-118594502D01*
X159192182Y-118233679D01*
X159310947Y-117842163D01*
X159351049Y-117435000D01*
X159310947Y-117027837D01*
X159192182Y-116636321D01*
X158999318Y-116275498D01*
X158739767Y-115959233D01*
X158423502Y-115699682D01*
X158062679Y-115506818D01*
X157671163Y-115388053D01*
X157366029Y-115358000D01*
X155561971Y-115358000D01*
X155256837Y-115388053D01*
X154865321Y-115506818D01*
X154504498Y-115699682D01*
X154188233Y-115959233D01*
X153928682Y-116275498D01*
X153735818Y-116636321D01*
X153617053Y-117027837D01*
X153576951Y-117435000D01*
X153617053Y-117842163D01*
X153735818Y-118233679D01*
X153928682Y-118594502D01*
X154017724Y-118703000D01*
X152747307Y-118703000D01*
X152658411Y-118630045D01*
X152551857Y-118573091D01*
X152436239Y-118538018D01*
X152316000Y-118526176D01*
X151816000Y-118526176D01*
X151695761Y-118538018D01*
X151580143Y-118573091D01*
X151473589Y-118630045D01*
X151380193Y-118706693D01*
X151303545Y-118800089D01*
X151246591Y-118906643D01*
X151211518Y-119022261D01*
X151199676Y-119142500D01*
X151107324Y-119142500D01*
X151095482Y-119022261D01*
X151060409Y-118906643D01*
X151003455Y-118800089D01*
X150926807Y-118706693D01*
X150833411Y-118630045D01*
X150726857Y-118573091D01*
X150611239Y-118538018D01*
X150491000Y-118526176D01*
X149991000Y-118526176D01*
X149870761Y-118538018D01*
X149755143Y-118573091D01*
X149648589Y-118630045D01*
X149559693Y-118703000D01*
X148098420Y-118703000D01*
X146748244Y-117352824D01*
X148902000Y-117352824D01*
X148975905Y-117345545D01*
X149046970Y-117323988D01*
X149112463Y-117288981D01*
X149169869Y-117241869D01*
X149216981Y-117184463D01*
X149251988Y-117118970D01*
X149273545Y-117047905D01*
X149280824Y-116974000D01*
X149280824Y-116501000D01*
X150969748Y-116501000D01*
X151003000Y-116504275D01*
X151036252Y-116501000D01*
X151135715Y-116491204D01*
X151263330Y-116452492D01*
X151380941Y-116389628D01*
X151484027Y-116305027D01*
X151568628Y-116201941D01*
X151631492Y-116084330D01*
X151670204Y-115956715D01*
X151683275Y-115824000D01*
X151680000Y-115790748D01*
X151680000Y-115615535D01*
X151688807Y-115608307D01*
X151765455Y-115514911D01*
X151822409Y-115408357D01*
X151857482Y-115292739D01*
X151869324Y-115172500D01*
X151869324Y-114697500D01*
X151961676Y-114697500D01*
X151961676Y-115172500D01*
X151973518Y-115292739D01*
X152008591Y-115408357D01*
X152065545Y-115514911D01*
X152142193Y-115608307D01*
X152235589Y-115684955D01*
X152342143Y-115741909D01*
X152457761Y-115776982D01*
X152578000Y-115788824D01*
X153078000Y-115788824D01*
X153198239Y-115776982D01*
X153313857Y-115741909D01*
X153420411Y-115684955D01*
X153509307Y-115612000D01*
X153930755Y-115612000D01*
X153964000Y-115615274D01*
X153997245Y-115612000D01*
X153997252Y-115612000D01*
X154096715Y-115602204D01*
X154224330Y-115563492D01*
X154341941Y-115500628D01*
X154445027Y-115416027D01*
X154466226Y-115390196D01*
X155363928Y-114492495D01*
X155561971Y-114512000D01*
X157366029Y-114512000D01*
X157671163Y-114481947D01*
X158062679Y-114363182D01*
X158423502Y-114170318D01*
X158739767Y-113910767D01*
X158999318Y-113594502D01*
X159192182Y-113233679D01*
X159310947Y-112842163D01*
X159351049Y-112435000D01*
X159310947Y-112027837D01*
X159192182Y-111636321D01*
X158999318Y-111275498D01*
X158739767Y-110959233D01*
X158423502Y-110699682D01*
X158062679Y-110506818D01*
X157671163Y-110388053D01*
X157366029Y-110358000D01*
X155561971Y-110358000D01*
X155256837Y-110388053D01*
X154865321Y-110506818D01*
X154504498Y-110699682D01*
X154188233Y-110959233D01*
X153928682Y-111275498D01*
X153735818Y-111636321D01*
X153617053Y-112027837D01*
X153576951Y-112435000D01*
X153617053Y-112842163D01*
X153735818Y-113233679D01*
X153928682Y-113594502D01*
X154117274Y-113824303D01*
X153683578Y-114258000D01*
X153509307Y-114258000D01*
X153420411Y-114185045D01*
X153313857Y-114128091D01*
X153198239Y-114093018D01*
X153078000Y-114081176D01*
X152578000Y-114081176D01*
X152457761Y-114093018D01*
X152342143Y-114128091D01*
X152235589Y-114185045D01*
X152142193Y-114261693D01*
X152065545Y-114355089D01*
X152008591Y-114461643D01*
X151973518Y-114577261D01*
X151961676Y-114697500D01*
X151869324Y-114697500D01*
X151857482Y-114577261D01*
X151822409Y-114461643D01*
X151765455Y-114355089D01*
X151688807Y-114261693D01*
X151595411Y-114185045D01*
X151488857Y-114128091D01*
X151373239Y-114093018D01*
X151253000Y-114081176D01*
X150753000Y-114081176D01*
X150632761Y-114093018D01*
X150517143Y-114128091D01*
X150410589Y-114185045D01*
X150317193Y-114261693D01*
X150240545Y-114355089D01*
X150183591Y-114461643D01*
X150148518Y-114577261D01*
X150136676Y-114697500D01*
X150136676Y-115147000D01*
X149280824Y-115147000D01*
X149280824Y-114674000D01*
X149273545Y-114600095D01*
X149251988Y-114529030D01*
X149216981Y-114463537D01*
X149169869Y-114406131D01*
X149112463Y-114359019D01*
X149046970Y-114324012D01*
X148975905Y-114302455D01*
X148902000Y-114295176D01*
X148394825Y-114295176D01*
X151811968Y-110878034D01*
X151833975Y-110859973D01*
X151906080Y-110772114D01*
X151959658Y-110671875D01*
X151977116Y-110614323D01*
X151992652Y-110563111D01*
X151999226Y-110496359D01*
X152001001Y-110478335D01*
X152001001Y-110478330D01*
X152003791Y-110449999D01*
X152001001Y-110421668D01*
X152001001Y-106580329D01*
X152003791Y-106552000D01*
X152001001Y-106523672D01*
X152001001Y-106523665D01*
X151992651Y-106438889D01*
X151959658Y-106330125D01*
X151906080Y-106229886D01*
X151833975Y-106142027D01*
X151811964Y-106123963D01*
X151802039Y-106114038D01*
X151783974Y-106092026D01*
X151696115Y-106019921D01*
X151595876Y-105966343D01*
X151529190Y-105946114D01*
X151487111Y-105933349D01*
X151432045Y-105927926D01*
X151402336Y-105925000D01*
X151402331Y-105925000D01*
X151374000Y-105922210D01*
X151352824Y-105924295D01*
X151352824Y-105642000D01*
X151345545Y-105568095D01*
X151330046Y-105517000D01*
X151345545Y-105465905D01*
X151352824Y-105392000D01*
X151352824Y-104992000D01*
X151345545Y-104918095D01*
X151323988Y-104847030D01*
X151288981Y-104781537D01*
X151241869Y-104724131D01*
X151184463Y-104677019D01*
X151118970Y-104642012D01*
X151047905Y-104620455D01*
X150974000Y-104613176D01*
X150771000Y-104613176D01*
X150771000Y-103994331D01*
X150773790Y-103966000D01*
X150762651Y-103852888D01*
X150729656Y-103744123D01*
X150724031Y-103733600D01*
X150676079Y-103643885D01*
X150603974Y-103556026D01*
X150581962Y-103537961D01*
X146849283Y-99805282D01*
X152023000Y-99805282D01*
X152023000Y-100194718D01*
X152098975Y-100576670D01*
X152248005Y-100936461D01*
X152464364Y-101260264D01*
X152739736Y-101535636D01*
X153063539Y-101751995D01*
X153423330Y-101901025D01*
X153805282Y-101977000D01*
X154194718Y-101977000D01*
X154576670Y-101901025D01*
X154936461Y-101751995D01*
X155260264Y-101535636D01*
X155535636Y-101260264D01*
X155751995Y-100936461D01*
X155901025Y-100576670D01*
X155977000Y-100194718D01*
X155977000Y-99805282D01*
X155901025Y-99423330D01*
X155751995Y-99063539D01*
X155535636Y-98739736D01*
X155260264Y-98464364D01*
X154936461Y-98248005D01*
X154576670Y-98098975D01*
X154194718Y-98023000D01*
X153805282Y-98023000D01*
X153423330Y-98098975D01*
X153063539Y-98248005D01*
X152739736Y-98464364D01*
X152464364Y-98739736D01*
X152248005Y-99063539D01*
X152098975Y-99423330D01*
X152023000Y-99805282D01*
X146849283Y-99805282D01*
X143430039Y-96386038D01*
X143411974Y-96364026D01*
X143324115Y-96291921D01*
X143223876Y-96238343D01*
X143159770Y-96218897D01*
X143115111Y-96205349D01*
X143060045Y-96199926D01*
X143030336Y-96197000D01*
X143030331Y-96197000D01*
X143002000Y-96194210D01*
X142973669Y-96197000D01*
X125063822Y-96197000D01*
X125035493Y-96194210D01*
X125007164Y-96197000D01*
X125007158Y-96197000D01*
X124922382Y-96205350D01*
X124813618Y-96238343D01*
X124713379Y-96291921D01*
X124625520Y-96364026D01*
X124607455Y-96386038D01*
X120897038Y-100096455D01*
X120875026Y-100114520D01*
X120802921Y-100202380D01*
X120749343Y-100302619D01*
X120738416Y-100338641D01*
X120716349Y-100411383D01*
X120705210Y-100524494D01*
X120708000Y-100552825D01*
X120708001Y-104027997D01*
X119378999Y-105357000D01*
X117367096Y-105357000D01*
X117362958Y-105343359D01*
X117304848Y-105234644D01*
X117226646Y-105139354D01*
X117131356Y-105061152D01*
X117022641Y-105003042D01*
X116904678Y-104967259D01*
X116782001Y-104955176D01*
X115881999Y-104955176D01*
X115759322Y-104967259D01*
X115641359Y-105003042D01*
X115532644Y-105061152D01*
X115437354Y-105139354D01*
X115359152Y-105234644D01*
X115301042Y-105343359D01*
X115265259Y-105461322D01*
X115253176Y-105583999D01*
X115253176Y-106284001D01*
X115265259Y-106406678D01*
X115301042Y-106524641D01*
X115359152Y-106633356D01*
X115437354Y-106728646D01*
X115532644Y-106806848D01*
X115641359Y-106864958D01*
X115759322Y-106900741D01*
X115881999Y-106912824D01*
X116782001Y-106912824D01*
X116904678Y-106900741D01*
X117022641Y-106864958D01*
X117131356Y-106806848D01*
X117226646Y-106728646D01*
X117304848Y-106633356D01*
X117362958Y-106524641D01*
X117367096Y-106511000D01*
X119589669Y-106511000D01*
X119618000Y-106513790D01*
X119646331Y-106511000D01*
X119646336Y-106511000D01*
X119676045Y-106508074D01*
X119731111Y-106502651D01*
X119782446Y-106487078D01*
X119839876Y-106469657D01*
X119940115Y-106416079D01*
X120027974Y-106343974D01*
X120046039Y-106321962D01*
X121672967Y-104695035D01*
X121691991Y-104679422D01*
X121691991Y-105700649D01*
X121689200Y-105728990D01*
X121700339Y-105842101D01*
X121731893Y-105946115D01*
X121733334Y-105950866D01*
X121786912Y-106051105D01*
X121813383Y-106083359D01*
X121840953Y-106116954D01*
X121840956Y-106116957D01*
X121859017Y-106138964D01*
X121881024Y-106157025D01*
X122340176Y-106616177D01*
X122340176Y-106999000D01*
X122352259Y-107121677D01*
X122388042Y-107239641D01*
X122446152Y-107348356D01*
X122524354Y-107443646D01*
X122619644Y-107521848D01*
X122728359Y-107579958D01*
X122846323Y-107615741D01*
X122969000Y-107627824D01*
X123919000Y-107627824D01*
X124041677Y-107615741D01*
X124159641Y-107579958D01*
X124268356Y-107521848D01*
X124363646Y-107443646D01*
X124441848Y-107348356D01*
X124499958Y-107239641D01*
X124535741Y-107121677D01*
X124547824Y-106999000D01*
X124547824Y-106582000D01*
X125930725Y-106582000D01*
X125946201Y-106594701D01*
X126030949Y-106640000D01*
X125946201Y-106685299D01*
X125887516Y-106733461D01*
X125868124Y-106739343D01*
X125767885Y-106792921D01*
X125680026Y-106865026D01*
X125661963Y-106887036D01*
X118818399Y-113730600D01*
X117252950Y-113730600D01*
X117150473Y-113538879D01*
X116978397Y-113329203D01*
X116768721Y-113157127D01*
X116545102Y-113037600D01*
X116768721Y-112918073D01*
X116978397Y-112745997D01*
X117150473Y-112536321D01*
X117278337Y-112297105D01*
X117357075Y-112037539D01*
X117383662Y-111767600D01*
X117357075Y-111497661D01*
X117278337Y-111238095D01*
X117150473Y-110998879D01*
X116996138Y-110810821D01*
X116999204Y-110800715D01*
X117012275Y-110668000D01*
X117009000Y-110634748D01*
X117009000Y-108869096D01*
X117022641Y-108864958D01*
X117131356Y-108806848D01*
X117226646Y-108728646D01*
X117304848Y-108633356D01*
X117362958Y-108524641D01*
X117398741Y-108406678D01*
X117410824Y-108284001D01*
X117410824Y-107583999D01*
X117398741Y-107461322D01*
X117362958Y-107343359D01*
X117304848Y-107234644D01*
X117226646Y-107139354D01*
X117131356Y-107061152D01*
X117022641Y-107003042D01*
X116904678Y-106967259D01*
X116782001Y-106955176D01*
X115881999Y-106955176D01*
X115759322Y-106967259D01*
X115641359Y-107003042D01*
X115532644Y-107061152D01*
X115437354Y-107139354D01*
X115359152Y-107234644D01*
X115301042Y-107343359D01*
X115265259Y-107461322D01*
X115253176Y-107583999D01*
X115253176Y-108284001D01*
X115265259Y-108406678D01*
X115301042Y-108524641D01*
X115359152Y-108633356D01*
X115437354Y-108728646D01*
X115532644Y-108806848D01*
X115641359Y-108864958D01*
X115655000Y-108869096D01*
X115655001Y-110387576D01*
X115651977Y-110390600D01*
X113932360Y-110390600D01*
X113730061Y-110410525D01*
X113470495Y-110489263D01*
X113231279Y-110617127D01*
X113021603Y-110789203D01*
X112849527Y-110998879D01*
X112721663Y-111238095D01*
X112642925Y-111497661D01*
X112616338Y-111767600D01*
X110402000Y-111767600D01*
X110402000Y-99805282D01*
X114023000Y-99805282D01*
X114023000Y-100194718D01*
X114098975Y-100576670D01*
X114248005Y-100936461D01*
X114464364Y-101260264D01*
X114739736Y-101535636D01*
X115063539Y-101751995D01*
X115423330Y-101901025D01*
X115805282Y-101977000D01*
X116194718Y-101977000D01*
X116576670Y-101901025D01*
X116936461Y-101751995D01*
X117260264Y-101535636D01*
X117535636Y-101260264D01*
X117751995Y-100936461D01*
X117901025Y-100576670D01*
X117977000Y-100194718D01*
X117977000Y-99805282D01*
X117901025Y-99423330D01*
X117751995Y-99063539D01*
X117535636Y-98739736D01*
X117260264Y-98464364D01*
X116936461Y-98248005D01*
X116576670Y-98098975D01*
X116194718Y-98023000D01*
X115805282Y-98023000D01*
X115423330Y-98098975D01*
X115063539Y-98248005D01*
X114739736Y-98464364D01*
X114464364Y-98739736D01*
X114248005Y-99063539D01*
X114098975Y-99423330D01*
X114023000Y-99805282D01*
X110402000Y-99805282D01*
X110402000Y-95402000D01*
X159598001Y-95402000D01*
X159598000Y-134598000D01*
%TA.AperFunction,Conductor*%
D26*
G36*
X159598000Y-134598000D02*
G01*
X110402000Y-134598000D01*
X110402000Y-129805282D01*
X114023000Y-129805282D01*
X114023000Y-130194718D01*
X114098975Y-130576670D01*
X114248005Y-130936461D01*
X114464364Y-131260264D01*
X114739736Y-131535636D01*
X115063539Y-131751995D01*
X115423330Y-131901025D01*
X115805282Y-131977000D01*
X116194718Y-131977000D01*
X116576670Y-131901025D01*
X116936461Y-131751995D01*
X117260264Y-131535636D01*
X117535636Y-131260264D01*
X117751995Y-130936461D01*
X117901025Y-130576670D01*
X117977000Y-130194718D01*
X117977000Y-129805282D01*
X117901025Y-129423330D01*
X117751995Y-129063539D01*
X117535636Y-128739736D01*
X117260264Y-128464364D01*
X116936461Y-128248005D01*
X116576670Y-128098975D01*
X116194718Y-128023000D01*
X115805282Y-128023000D01*
X115423330Y-128098975D01*
X115063539Y-128248005D01*
X114739736Y-128464364D01*
X114464364Y-128739736D01*
X114248005Y-129063539D01*
X114098975Y-129423330D01*
X114023000Y-129805282D01*
X110402000Y-129805282D01*
X110402000Y-111767600D01*
X112616338Y-111767600D01*
X112642925Y-112037539D01*
X112721663Y-112297105D01*
X112849527Y-112536321D01*
X113021603Y-112745997D01*
X113231279Y-112918073D01*
X113454898Y-113037600D01*
X113231279Y-113157127D01*
X113021603Y-113329203D01*
X112849527Y-113538879D01*
X112721663Y-113778095D01*
X112642925Y-114037661D01*
X112616338Y-114307600D01*
X112642925Y-114577539D01*
X112721663Y-114837105D01*
X112849527Y-115076321D01*
X113021603Y-115285997D01*
X113231279Y-115458073D01*
X113454898Y-115577600D01*
X113231279Y-115697127D01*
X113021603Y-115869203D01*
X112849527Y-116078879D01*
X112721663Y-116318095D01*
X112642925Y-116577661D01*
X112616338Y-116847600D01*
X112642925Y-117117539D01*
X112721663Y-117377105D01*
X112849527Y-117616321D01*
X113021603Y-117825997D01*
X113231279Y-117998073D01*
X113470495Y-118125937D01*
X113730061Y-118204675D01*
X113932360Y-118224600D01*
X116067640Y-118224600D01*
X116269939Y-118204675D01*
X116529505Y-118125937D01*
X116768721Y-117998073D01*
X116978397Y-117825997D01*
X117150473Y-117616321D01*
X117203561Y-117517000D01*
X118460904Y-117517000D01*
X118465042Y-117530641D01*
X118523152Y-117639356D01*
X118601354Y-117734646D01*
X118696644Y-117812848D01*
X118805359Y-117870958D01*
X118923322Y-117906741D01*
X119045999Y-117918824D01*
X119746001Y-117918824D01*
X119868678Y-117906741D01*
X119986641Y-117870958D01*
X120095356Y-117812848D01*
X120190646Y-117734646D01*
X120268848Y-117639356D01*
X120326958Y-117530641D01*
X120362741Y-117412678D01*
X120374824Y-117290001D01*
X120374824Y-116389999D01*
X120362741Y-116267322D01*
X120326958Y-116149359D01*
X120268848Y-116040644D01*
X120190646Y-115945354D01*
X120095356Y-115867152D01*
X119986641Y-115809042D01*
X119868678Y-115773259D01*
X119746001Y-115761176D01*
X119045999Y-115761176D01*
X118923322Y-115773259D01*
X118805359Y-115809042D01*
X118696644Y-115867152D01*
X118601354Y-115945354D01*
X118523152Y-116040644D01*
X118465042Y-116149359D01*
X118460904Y-116163000D01*
X117195437Y-116163000D01*
X117150473Y-116078879D01*
X116978397Y-115869203D01*
X116768721Y-115697127D01*
X116545102Y-115577600D01*
X116768721Y-115458073D01*
X116978397Y-115285997D01*
X117150473Y-115076321D01*
X117252950Y-114884600D01*
X119029069Y-114884600D01*
X119057400Y-114887390D01*
X119085731Y-114884600D01*
X119085736Y-114884600D01*
X119115445Y-114881674D01*
X119170511Y-114876251D01*
X119215170Y-114862703D01*
X119279276Y-114843257D01*
X119379515Y-114789679D01*
X119467374Y-114717574D01*
X119485439Y-114695562D01*
X125711176Y-108469825D01*
X125711176Y-108695000D01*
X125721337Y-108798168D01*
X125751430Y-108897372D01*
X125800299Y-108988799D01*
X125802508Y-108991491D01*
X121008038Y-113785961D01*
X120986026Y-113804026D01*
X120913921Y-113891886D01*
X120860343Y-113992125D01*
X120855907Y-114006750D01*
X120827349Y-114100889D01*
X120823059Y-114144450D01*
X120819090Y-114184760D01*
X120816210Y-114214000D01*
X120819000Y-114242331D01*
X120819001Y-115804904D01*
X120805359Y-115809042D01*
X120696644Y-115867152D01*
X120601354Y-115945354D01*
X120523152Y-116040644D01*
X120465042Y-116149359D01*
X120429259Y-116267322D01*
X120417176Y-116389999D01*
X120417176Y-117290001D01*
X120429259Y-117412678D01*
X120465042Y-117530641D01*
X120523152Y-117639356D01*
X120601354Y-117734646D01*
X120696644Y-117812848D01*
X120719000Y-117824798D01*
X120719001Y-126338745D01*
X120715726Y-126372000D01*
X120728796Y-126504714D01*
X120767508Y-126632329D01*
X120830372Y-126749940D01*
X120893776Y-126827198D01*
X120893779Y-126827201D01*
X120914974Y-126853027D01*
X120940800Y-126874222D01*
X122988252Y-128921674D01*
X122960000Y-129208513D01*
X122960000Y-130917486D01*
X122990776Y-131229964D01*
X123112401Y-131630905D01*
X123309907Y-132000415D01*
X123575707Y-132324293D01*
X123899585Y-132590093D01*
X124269094Y-132787599D01*
X124670035Y-132909224D01*
X125087000Y-132950291D01*
X125503964Y-132909224D01*
X125904905Y-132787599D01*
X126274415Y-132590093D01*
X126598293Y-132324293D01*
X126864093Y-132000415D01*
X127061599Y-131630906D01*
X127183224Y-131229965D01*
X127214000Y-130917487D01*
X127214000Y-129208514D01*
X127214000Y-129208513D01*
X128040000Y-129208513D01*
X128040000Y-130917486D01*
X128070776Y-131229964D01*
X128192401Y-131630905D01*
X128389907Y-132000415D01*
X128655707Y-132324293D01*
X128979585Y-132590093D01*
X129349094Y-132787599D01*
X129750035Y-132909224D01*
X130167000Y-132950291D01*
X130583964Y-132909224D01*
X130984905Y-132787599D01*
X131354415Y-132590093D01*
X131678293Y-132324293D01*
X131944093Y-132000415D01*
X132141599Y-131630906D01*
X132263224Y-131229965D01*
X132294000Y-130917487D01*
X132294000Y-130186000D01*
X132970000Y-130186000D01*
X132970000Y-130936000D01*
X133037748Y-131377857D01*
X133190396Y-131798007D01*
X133422078Y-132180304D01*
X133723891Y-132510056D01*
X134084236Y-132774591D01*
X134489266Y-132963744D01*
X134769833Y-133039441D01*
X135124000Y-132954721D01*
X135124000Y-130186000D01*
X135370000Y-130186000D01*
X135370000Y-132954721D01*
X135724167Y-133039441D01*
X136004734Y-132963744D01*
X136409764Y-132774591D01*
X136770109Y-132510056D01*
X137071922Y-132180304D01*
X137303604Y-131798007D01*
X137456252Y-131377857D01*
X137524000Y-130936000D01*
X137524000Y-130186000D01*
X139020000Y-130186000D01*
X139020000Y-130986000D01*
X139086787Y-131418103D01*
X139236590Y-131828874D01*
X139463652Y-132202527D01*
X139759247Y-132524702D01*
X140112016Y-132783019D01*
X140508402Y-132967551D01*
X140777667Y-133039983D01*
X141124000Y-132954637D01*
X141124000Y-130186000D01*
X141370000Y-130186000D01*
X141370000Y-132954637D01*
X141716333Y-133039983D01*
X141985598Y-132967551D01*
X142381984Y-132783019D01*
X142734753Y-132524702D01*
X143030348Y-132202527D01*
X143257410Y-131828874D01*
X143407213Y-131418103D01*
X143474000Y-130986000D01*
X143474000Y-130186000D01*
X141370000Y-130186000D01*
X141124000Y-130186000D01*
X139020000Y-130186000D01*
X137524000Y-130186000D01*
X135370000Y-130186000D01*
X135124000Y-130186000D01*
X132970000Y-130186000D01*
X132294000Y-130186000D01*
X132294000Y-129208514D01*
X132292177Y-129190000D01*
X132970000Y-129190000D01*
X132970000Y-129940000D01*
X135124000Y-129940000D01*
X135124000Y-127171279D01*
X135370000Y-127171279D01*
X135370000Y-129940000D01*
X137524000Y-129940000D01*
X137524000Y-129190000D01*
X137456252Y-128748143D01*
X137303604Y-128327993D01*
X137071922Y-127945696D01*
X136770109Y-127615944D01*
X136409764Y-127351409D01*
X136004734Y-127162256D01*
X135766573Y-127098000D01*
X136750450Y-127098000D01*
X136760625Y-127201310D01*
X136790760Y-127300650D01*
X136839695Y-127392202D01*
X136905552Y-127472448D01*
X136985798Y-127538305D01*
X137077350Y-127587240D01*
X137176690Y-127617375D01*
X137280000Y-127627550D01*
X138175250Y-127625000D01*
X138307000Y-127493250D01*
X138307000Y-125971000D01*
X138553000Y-125971000D01*
X138553000Y-127493250D01*
X138684750Y-127625000D01*
X139580000Y-127627550D01*
X139683310Y-127617375D01*
X139775471Y-127589418D01*
X139759247Y-127601298D01*
X139463652Y-127923473D01*
X139236590Y-128297126D01*
X139086787Y-128707897D01*
X139020000Y-129140000D01*
X139020000Y-129940000D01*
X141124000Y-129940000D01*
X141124000Y-127171363D01*
X141370000Y-127171363D01*
X141370000Y-129940000D01*
X143474000Y-129940000D01*
X143474000Y-129140000D01*
X143407213Y-128707897D01*
X143257410Y-128297126D01*
X143030348Y-127923473D01*
X142734753Y-127601298D01*
X142381984Y-127342981D01*
X141985598Y-127158449D01*
X141716333Y-127086017D01*
X141370000Y-127171363D01*
X141124000Y-127171363D01*
X140777667Y-127086017D01*
X140508402Y-127158449D01*
X140112016Y-127342981D01*
X139983420Y-127437146D01*
X140020305Y-127392202D01*
X140069240Y-127300650D01*
X140099375Y-127201310D01*
X140109550Y-127098000D01*
X140107000Y-126102750D01*
X139975250Y-125971000D01*
X138553000Y-125971000D01*
X138307000Y-125971000D01*
X136884750Y-125971000D01*
X136753000Y-126102750D01*
X136750450Y-127098000D01*
X135766573Y-127098000D01*
X135724167Y-127086559D01*
X135370000Y-127171279D01*
X135124000Y-127171279D01*
X134769833Y-127086559D01*
X134489266Y-127162256D01*
X134084236Y-127351409D01*
X133723891Y-127615944D01*
X133422078Y-127945696D01*
X133190396Y-128327993D01*
X133037748Y-128748143D01*
X132970000Y-129190000D01*
X132292177Y-129190000D01*
X132263224Y-128896036D01*
X132141599Y-128495094D01*
X131944093Y-128125585D01*
X131678293Y-127801707D01*
X131354415Y-127535907D01*
X131294000Y-127503615D01*
X131294000Y-124934818D01*
X131630818Y-124598000D01*
X136750450Y-124598000D01*
X136753000Y-125593250D01*
X136884750Y-125725000D01*
X138307000Y-125725000D01*
X138307000Y-124202750D01*
X138553000Y-124202750D01*
X138553000Y-125725000D01*
X139975250Y-125725000D01*
X140107000Y-125593250D01*
X140109550Y-124598000D01*
X140099375Y-124494690D01*
X140069240Y-124395350D01*
X140020305Y-124303798D01*
X139954448Y-124223552D01*
X139874202Y-124157695D01*
X139782650Y-124108760D01*
X139683310Y-124078625D01*
X139580000Y-124068450D01*
X138684750Y-124071000D01*
X138553000Y-124202750D01*
X138307000Y-124202750D01*
X138175250Y-124071000D01*
X137280000Y-124068450D01*
X137176690Y-124078625D01*
X137077350Y-124108760D01*
X136985798Y-124157695D01*
X136905552Y-124223552D01*
X136839695Y-124303798D01*
X136790760Y-124395350D01*
X136760625Y-124494690D01*
X136750450Y-124598000D01*
X131630818Y-124598000D01*
X133553819Y-122675000D01*
X136901176Y-122675000D01*
X136901176Y-122798000D01*
X136908455Y-122871905D01*
X136930012Y-122942970D01*
X136965019Y-123008463D01*
X137012131Y-123065869D01*
X137069537Y-123112981D01*
X137135030Y-123147988D01*
X137206095Y-123169545D01*
X137280000Y-123176824D01*
X139580000Y-123176824D01*
X139653905Y-123169545D01*
X139724970Y-123147988D01*
X139790463Y-123112981D01*
X139847869Y-123065869D01*
X139894981Y-123008463D01*
X139929988Y-122942970D01*
X139951545Y-122871905D01*
X139958824Y-122798000D01*
X139958824Y-122675000D01*
X142163182Y-122675000D01*
X145120000Y-125631818D01*
X145120000Y-127510310D01*
X145087499Y-127527682D01*
X144771234Y-127787233D01*
X144511683Y-128103498D01*
X144318819Y-128464321D01*
X144200054Y-128855837D01*
X144170000Y-129160971D01*
X144170000Y-130965028D01*
X144200053Y-131270162D01*
X144318818Y-131661678D01*
X144511682Y-132022502D01*
X144771233Y-132338767D01*
X145087498Y-132598318D01*
X145448321Y-132791182D01*
X145839837Y-132909947D01*
X146247000Y-132950049D01*
X146654162Y-132909947D01*
X147045678Y-132791182D01*
X147406502Y-132598318D01*
X147722767Y-132338767D01*
X147982318Y-132022502D01*
X148175182Y-131661679D01*
X148293947Y-131270163D01*
X148324000Y-130965029D01*
X148324000Y-129805282D01*
X152023000Y-129805282D01*
X152023000Y-130194718D01*
X152098975Y-130576670D01*
X152248005Y-130936461D01*
X152464364Y-131260264D01*
X152739736Y-131535636D01*
X153063539Y-131751995D01*
X153423330Y-131901025D01*
X153805282Y-131977000D01*
X154194718Y-131977000D01*
X154576670Y-131901025D01*
X154936461Y-131751995D01*
X155260264Y-131535636D01*
X155535636Y-131260264D01*
X155751995Y-130936461D01*
X155901025Y-130576670D01*
X155977000Y-130194718D01*
X155977000Y-129805282D01*
X155901025Y-129423330D01*
X155751995Y-129063539D01*
X155535636Y-128739736D01*
X155260264Y-128464364D01*
X154936461Y-128248005D01*
X154576670Y-128098975D01*
X154194718Y-128023000D01*
X153805282Y-128023000D01*
X153423330Y-128098975D01*
X153063539Y-128248005D01*
X152739736Y-128464364D01*
X152464364Y-128739736D01*
X152248005Y-129063539D01*
X152098975Y-129423330D01*
X152023000Y-129805282D01*
X148324000Y-129805282D01*
X148324000Y-129160972D01*
X148293947Y-128855838D01*
X148175182Y-128464321D01*
X147982318Y-128103498D01*
X147722767Y-127787233D01*
X147406502Y-127527682D01*
X147374000Y-127510309D01*
X147374000Y-125220354D01*
X147379452Y-125164999D01*
X147374000Y-125109645D01*
X147374000Y-125109635D01*
X147357693Y-124944069D01*
X147293250Y-124731629D01*
X147221824Y-124598000D01*
X147188600Y-124535842D01*
X147120925Y-124453380D01*
X147047765Y-124364235D01*
X147004758Y-124328940D01*
X143466060Y-120790242D01*
X143430765Y-120747235D01*
X143259157Y-120606400D01*
X143063371Y-120501750D01*
X142850931Y-120437307D01*
X142685365Y-120421000D01*
X142685354Y-120421000D01*
X142630000Y-120415548D01*
X142574646Y-120421000D01*
X139958824Y-120421000D01*
X139958824Y-120298000D01*
X139951545Y-120224095D01*
X139929988Y-120153030D01*
X139894981Y-120087537D01*
X139847869Y-120030131D01*
X139790463Y-119983019D01*
X139724970Y-119948012D01*
X139653905Y-119926455D01*
X139580000Y-119919176D01*
X139207000Y-119919176D01*
X139207000Y-119232343D01*
X139738933Y-118700410D01*
X139768580Y-118676080D01*
X139792910Y-118646433D01*
X140011520Y-118427824D01*
X141054003Y-118427824D01*
X141176680Y-118415741D01*
X141294642Y-118379958D01*
X141403357Y-118321849D01*
X141498647Y-118243647D01*
X141576849Y-118148357D01*
X141634958Y-118039642D01*
X141670741Y-117921680D01*
X141682824Y-117799003D01*
X141682824Y-117293947D01*
X141727552Y-117348448D01*
X141807798Y-117414305D01*
X141899350Y-117463240D01*
X141998690Y-117493375D01*
X142102000Y-117503550D01*
X143097250Y-117501000D01*
X143229000Y-117369250D01*
X143229000Y-115947000D01*
X143475000Y-115947000D01*
X143475000Y-117369250D01*
X143606750Y-117501000D01*
X144602000Y-117503550D01*
X144705310Y-117493375D01*
X144804650Y-117463240D01*
X144896202Y-117414305D01*
X144976448Y-117348448D01*
X145042305Y-117268202D01*
X145091240Y-117176650D01*
X145121375Y-117077310D01*
X145131550Y-116974000D01*
X145129000Y-116078750D01*
X144997250Y-115947000D01*
X143475000Y-115947000D01*
X143229000Y-115947000D01*
X141706750Y-115947000D01*
X141575000Y-116078750D01*
X141573457Y-116620510D01*
X141498647Y-116529353D01*
X141403357Y-116451151D01*
X141294642Y-116393042D01*
X141176680Y-116357259D01*
X141054003Y-116345176D01*
X138853997Y-116345176D01*
X138731320Y-116357259D01*
X138613358Y-116393042D01*
X138504643Y-116451151D01*
X138409353Y-116529353D01*
X138331151Y-116624643D01*
X138273042Y-116733358D01*
X138237259Y-116851320D01*
X138225176Y-116973997D01*
X138225176Y-117347000D01*
X135719869Y-117347000D01*
X135678463Y-117313019D01*
X135612970Y-117278012D01*
X135541905Y-117256455D01*
X135468000Y-117249176D01*
X133468000Y-117249176D01*
X133394095Y-117256455D01*
X133323030Y-117278012D01*
X133257537Y-117313019D01*
X133200131Y-117360131D01*
X133153019Y-117417537D01*
X133118012Y-117483030D01*
X133096455Y-117554095D01*
X133089176Y-117628000D01*
X133089176Y-119128000D01*
X133096455Y-119201905D01*
X133118012Y-119272970D01*
X133153019Y-119338463D01*
X133200131Y-119395869D01*
X133257537Y-119442981D01*
X133323030Y-119477988D01*
X133394095Y-119499545D01*
X133468000Y-119506824D01*
X135468000Y-119506824D01*
X135541905Y-119499545D01*
X135612970Y-119477988D01*
X135678463Y-119442981D01*
X135735869Y-119395869D01*
X135782981Y-119338463D01*
X135817988Y-119272970D01*
X135839545Y-119201905D01*
X135846824Y-119128000D01*
X135846824Y-118901000D01*
X137650177Y-118901000D01*
X137649241Y-118910500D01*
X137653001Y-118948673D01*
X137653001Y-119919176D01*
X137280000Y-119919176D01*
X137206095Y-119926455D01*
X137135030Y-119948012D01*
X137069537Y-119983019D01*
X137012131Y-120030131D01*
X136965019Y-120087537D01*
X136930012Y-120153030D01*
X136908455Y-120224095D01*
X136901176Y-120298000D01*
X136901176Y-120421000D01*
X133142364Y-120421000D01*
X133087000Y-120415547D01*
X132866069Y-120437307D01*
X132653629Y-120501750D01*
X132457843Y-120606400D01*
X132329239Y-120711942D01*
X132329236Y-120711945D01*
X132286235Y-120747235D01*
X132250945Y-120790236D01*
X129409241Y-123631941D01*
X129366235Y-123667235D01*
X129225400Y-123838843D01*
X129120750Y-124034630D01*
X129056307Y-124247070D01*
X129040000Y-124412636D01*
X129040000Y-124412646D01*
X129034548Y-124468000D01*
X129040000Y-124523355D01*
X129040001Y-127503615D01*
X128979586Y-127535907D01*
X128655708Y-127801707D01*
X128389908Y-128125585D01*
X128192402Y-128495094D01*
X128070777Y-128896035D01*
X128040000Y-129208513D01*
X127214000Y-129208513D01*
X127183224Y-128896036D01*
X127061599Y-128495094D01*
X126864093Y-128125585D01*
X126598293Y-127801707D01*
X126274415Y-127535907D01*
X125904906Y-127338401D01*
X125503965Y-127216776D01*
X125087000Y-127175709D01*
X124670036Y-127216776D01*
X124269095Y-127338401D01*
X123899586Y-127535907D01*
X123689633Y-127708211D01*
X122073000Y-126091578D01*
X122073000Y-117824798D01*
X122095356Y-117812848D01*
X122190646Y-117734646D01*
X122268848Y-117639356D01*
X122326958Y-117530641D01*
X122362741Y-117412678D01*
X122374824Y-117290001D01*
X122374824Y-116389999D01*
X122362741Y-116267322D01*
X122326958Y-116149359D01*
X122268848Y-116040644D01*
X122190646Y-115945354D01*
X122095356Y-115867152D01*
X121986641Y-115809042D01*
X121973000Y-115804904D01*
X121973000Y-114453001D01*
X124489001Y-111937000D01*
X128401450Y-111937000D01*
X128411625Y-112040310D01*
X128441760Y-112139650D01*
X128490695Y-112231202D01*
X128556552Y-112311448D01*
X128636798Y-112377305D01*
X128728350Y-112426240D01*
X128827690Y-112456375D01*
X128931000Y-112466550D01*
X129263750Y-112464000D01*
X129395500Y-112332250D01*
X129395500Y-111335000D01*
X128535750Y-111335000D01*
X128404000Y-111466750D01*
X128401450Y-111937000D01*
X124489001Y-111937000D01*
X125939001Y-110487000D01*
X128401450Y-110487000D01*
X128404000Y-110957250D01*
X128535750Y-111089000D01*
X129395500Y-111089000D01*
X129395500Y-110091750D01*
X129263750Y-109960000D01*
X128931000Y-109957450D01*
X128827690Y-109967625D01*
X128728350Y-109997760D01*
X128636798Y-110046695D01*
X128556552Y-110112552D01*
X128490695Y-110192798D01*
X128441760Y-110284350D01*
X128411625Y-110383690D01*
X128401450Y-110487000D01*
X125939001Y-110487000D01*
X127202177Y-109223824D01*
X127890000Y-109223824D01*
X127993168Y-109213663D01*
X128092372Y-109183570D01*
X128183799Y-109134701D01*
X128263935Y-109068935D01*
X128329701Y-108988799D01*
X128378570Y-108897372D01*
X128408663Y-108798168D01*
X128418824Y-108695000D01*
X128418824Y-108395000D01*
X128408663Y-108291832D01*
X128378570Y-108192628D01*
X128329701Y-108101201D01*
X128263935Y-108021065D01*
X128183799Y-107955299D01*
X128099051Y-107910000D01*
X128183799Y-107864701D01*
X128263935Y-107798935D01*
X128329701Y-107718799D01*
X128378570Y-107627372D01*
X128408663Y-107528168D01*
X128418824Y-107425000D01*
X128418824Y-107125000D01*
X128408663Y-107021832D01*
X128378570Y-106922628D01*
X128329701Y-106831201D01*
X128263935Y-106751065D01*
X128183799Y-106685299D01*
X128099051Y-106640000D01*
X128183799Y-106594701D01*
X128263935Y-106528935D01*
X128329701Y-106448799D01*
X128378570Y-106357372D01*
X128408663Y-106258168D01*
X128418824Y-106155000D01*
X128418824Y-105855000D01*
X128408663Y-105751832D01*
X128378570Y-105652628D01*
X128329701Y-105561201D01*
X128282074Y-105503168D01*
X128334202Y-105475305D01*
X128414448Y-105409448D01*
X128480305Y-105329202D01*
X128529240Y-105237650D01*
X128559375Y-105138310D01*
X128569550Y-105035000D01*
X128567000Y-104989750D01*
X128435250Y-104858000D01*
X127188000Y-104858000D01*
X127188000Y-104878000D01*
X126942000Y-104878000D01*
X126942000Y-104858000D01*
X125694750Y-104858000D01*
X125563000Y-104989750D01*
X125560450Y-105035000D01*
X125570625Y-105138310D01*
X125600760Y-105237650D01*
X125649695Y-105329202D01*
X125715552Y-105409448D01*
X125738157Y-105428000D01*
X124630793Y-105428000D01*
X124658240Y-105376650D01*
X124688375Y-105277310D01*
X124698550Y-105174000D01*
X124696000Y-104841250D01*
X124564250Y-104709500D01*
X123567000Y-104709500D01*
X123567000Y-104729500D01*
X123321000Y-104729500D01*
X123321000Y-104709500D01*
X123301000Y-104709500D01*
X123301000Y-104463500D01*
X123321000Y-104463500D01*
X123321000Y-103603750D01*
X123567000Y-103603750D01*
X123567000Y-104463500D01*
X124564250Y-104463500D01*
X124592750Y-104435000D01*
X125560450Y-104435000D01*
X125563000Y-104480250D01*
X125694750Y-104612000D01*
X126942000Y-104612000D01*
X126942000Y-104039750D01*
X127188000Y-104039750D01*
X127188000Y-104612000D01*
X128435250Y-104612000D01*
X128567000Y-104480250D01*
X128569550Y-104435000D01*
X128559375Y-104331690D01*
X128529240Y-104232350D01*
X128480305Y-104140798D01*
X128414448Y-104060552D01*
X128334202Y-103994695D01*
X128242650Y-103945760D01*
X128143310Y-103915625D01*
X128040000Y-103905450D01*
X127319750Y-103908000D01*
X127188000Y-104039750D01*
X126942000Y-104039750D01*
X126810250Y-103908000D01*
X126090000Y-103905450D01*
X125986690Y-103915625D01*
X125887350Y-103945760D01*
X125795798Y-103994695D01*
X125715552Y-104060552D01*
X125649695Y-104140798D01*
X125600760Y-104232350D01*
X125570625Y-104331690D01*
X125560450Y-104435000D01*
X124592750Y-104435000D01*
X124696000Y-104331750D01*
X124698550Y-103999000D01*
X124688375Y-103895690D01*
X124658240Y-103796350D01*
X124609305Y-103704798D01*
X124543448Y-103624552D01*
X124463202Y-103558695D01*
X124371650Y-103509760D01*
X124272310Y-103479625D01*
X124169000Y-103469450D01*
X123698750Y-103472000D01*
X123567000Y-103603750D01*
X123321000Y-103603750D01*
X123189250Y-103472000D01*
X122845990Y-103470139D01*
X122845990Y-102148000D01*
X124480450Y-102148000D01*
X124490625Y-102251310D01*
X124520760Y-102350650D01*
X124569695Y-102442202D01*
X124635552Y-102522448D01*
X124715798Y-102588305D01*
X124807350Y-102637240D01*
X124906690Y-102667375D01*
X125010000Y-102677550D01*
X125205250Y-102675000D01*
X125337000Y-102543250D01*
X125337000Y-101871000D01*
X125583000Y-101871000D01*
X125583000Y-102543250D01*
X125714750Y-102675000D01*
X125910000Y-102677550D01*
X126013310Y-102667375D01*
X126112650Y-102637240D01*
X126204202Y-102588305D01*
X126284448Y-102522448D01*
X126350305Y-102442202D01*
X126360568Y-102423000D01*
X126761450Y-102423000D01*
X126771625Y-102526310D01*
X126801760Y-102625650D01*
X126850695Y-102717202D01*
X126916552Y-102797448D01*
X126996798Y-102863305D01*
X127088350Y-102912240D01*
X127187690Y-102942375D01*
X127291000Y-102952550D01*
X127761250Y-102950000D01*
X127893000Y-102818250D01*
X127893000Y-101958500D01*
X128139000Y-101958500D01*
X128139000Y-102818250D01*
X128270750Y-102950000D01*
X128741000Y-102952550D01*
X128844310Y-102942375D01*
X128943650Y-102912240D01*
X129035202Y-102863305D01*
X129115448Y-102797448D01*
X129181305Y-102717202D01*
X129230240Y-102625650D01*
X129260375Y-102526310D01*
X129270550Y-102423000D01*
X129268000Y-102090250D01*
X129136250Y-101958500D01*
X128139000Y-101958500D01*
X127893000Y-101958500D01*
X126895750Y-101958500D01*
X126764000Y-102090250D01*
X126761450Y-102423000D01*
X126360568Y-102423000D01*
X126399240Y-102350650D01*
X126429375Y-102251310D01*
X126439550Y-102148000D01*
X126437000Y-102002750D01*
X126305250Y-101871000D01*
X125583000Y-101871000D01*
X125337000Y-101871000D01*
X124614750Y-101871000D01*
X124483000Y-102002750D01*
X124480450Y-102148000D01*
X122845990Y-102148000D01*
X122845990Y-101537811D01*
X122865030Y-101547988D01*
X122936095Y-101569545D01*
X123010000Y-101576824D01*
X123910000Y-101576824D01*
X123983905Y-101569545D01*
X124054970Y-101547988D01*
X124120463Y-101512981D01*
X124177869Y-101465869D01*
X124224981Y-101408463D01*
X124257299Y-101348000D01*
X124480450Y-101348000D01*
X124483000Y-101493250D01*
X124614750Y-101625000D01*
X125337000Y-101625000D01*
X125337000Y-100952750D01*
X125583000Y-100952750D01*
X125583000Y-101625000D01*
X126305250Y-101625000D01*
X126437000Y-101493250D01*
X126439550Y-101348000D01*
X126429375Y-101244690D01*
X126399240Y-101145350D01*
X126350305Y-101053798D01*
X126284448Y-100973552D01*
X126204202Y-100907695D01*
X126112650Y-100858760D01*
X126013310Y-100828625D01*
X125910000Y-100818450D01*
X125714750Y-100821000D01*
X125583000Y-100952750D01*
X125337000Y-100952750D01*
X125205250Y-100821000D01*
X125010000Y-100818450D01*
X124906690Y-100828625D01*
X124807350Y-100858760D01*
X124715798Y-100907695D01*
X124635552Y-100973552D01*
X124569695Y-101053798D01*
X124520760Y-101145350D01*
X124490625Y-101244690D01*
X124480450Y-101348000D01*
X124257299Y-101348000D01*
X124259988Y-101342970D01*
X124281545Y-101271905D01*
X124288824Y-101198000D01*
X124288824Y-100398000D01*
X124281545Y-100324095D01*
X124259988Y-100253030D01*
X124224981Y-100187537D01*
X124177869Y-100130131D01*
X124120463Y-100083019D01*
X124054970Y-100048012D01*
X123983905Y-100026455D01*
X123910000Y-100019176D01*
X123525571Y-100019176D01*
X125469767Y-98074980D01*
X139832002Y-98074980D01*
X141643886Y-99886864D01*
X141477939Y-99836525D01*
X141275640Y-99816600D01*
X139140360Y-99816600D01*
X138938061Y-99836525D01*
X138678495Y-99915263D01*
X138439279Y-100043127D01*
X138229603Y-100215203D01*
X138057527Y-100424879D01*
X137929663Y-100664095D01*
X137850925Y-100923661D01*
X137824338Y-101193600D01*
X137850925Y-101463539D01*
X137929663Y-101723105D01*
X138057527Y-101962321D01*
X138229603Y-102171997D01*
X138439279Y-102344073D01*
X138662898Y-102463600D01*
X138439279Y-102583127D01*
X138229603Y-102755203D01*
X138057527Y-102964879D01*
X137955050Y-103156600D01*
X137834731Y-103156600D01*
X137806400Y-103153810D01*
X137778069Y-103156600D01*
X137778064Y-103156600D01*
X137751286Y-103159237D01*
X137693288Y-103164949D01*
X137629182Y-103184396D01*
X137584524Y-103197943D01*
X137484285Y-103251521D01*
X137396426Y-103323626D01*
X137378361Y-103345638D01*
X136094231Y-104629768D01*
X136007001Y-104621176D01*
X134756999Y-104621176D01*
X134634322Y-104633259D01*
X134516359Y-104669042D01*
X134407644Y-104727152D01*
X134312354Y-104805354D01*
X134234152Y-104900644D01*
X134176042Y-105009359D01*
X134140259Y-105127322D01*
X134128176Y-105249999D01*
X134128176Y-105428000D01*
X133149275Y-105428000D01*
X133133799Y-105415299D01*
X133049051Y-105370000D01*
X133133799Y-105324701D01*
X133213935Y-105258935D01*
X133279701Y-105178799D01*
X133328570Y-105087372D01*
X133358663Y-104988168D01*
X133368824Y-104885000D01*
X133368824Y-104585000D01*
X133358663Y-104481832D01*
X133328570Y-104382628D01*
X133279701Y-104291201D01*
X133213935Y-104211065D01*
X133133799Y-104145299D01*
X133042372Y-104096430D01*
X132943168Y-104066337D01*
X132840000Y-104056176D01*
X132592000Y-104056176D01*
X132592000Y-103200000D01*
X133977450Y-103200000D01*
X133987625Y-103303310D01*
X134017760Y-103402650D01*
X134066695Y-103494202D01*
X134132552Y-103574448D01*
X134212798Y-103640305D01*
X134304350Y-103689240D01*
X134403690Y-103719375D01*
X134507000Y-103729550D01*
X135127250Y-103727000D01*
X135259000Y-103595250D01*
X135259000Y-102673000D01*
X135505000Y-102673000D01*
X135505000Y-103595250D01*
X135636750Y-103727000D01*
X136257000Y-103729550D01*
X136360310Y-103719375D01*
X136459650Y-103689240D01*
X136551202Y-103640305D01*
X136631448Y-103574448D01*
X136697305Y-103494202D01*
X136746240Y-103402650D01*
X136776375Y-103303310D01*
X136786550Y-103200000D01*
X136784000Y-102804750D01*
X136652250Y-102673000D01*
X135505000Y-102673000D01*
X135259000Y-102673000D01*
X134111750Y-102673000D01*
X133980000Y-102804750D01*
X133977450Y-103200000D01*
X132592000Y-103200000D01*
X132592000Y-101900000D01*
X133977450Y-101900000D01*
X133980000Y-102295250D01*
X134111750Y-102427000D01*
X135259000Y-102427000D01*
X135259000Y-101504750D01*
X135505000Y-101504750D01*
X135505000Y-102427000D01*
X136652250Y-102427000D01*
X136784000Y-102295250D01*
X136786550Y-101900000D01*
X136776375Y-101796690D01*
X136746240Y-101697350D01*
X136697305Y-101605798D01*
X136631448Y-101525552D01*
X136551202Y-101459695D01*
X136459650Y-101410760D01*
X136360310Y-101380625D01*
X136257000Y-101370450D01*
X135636750Y-101373000D01*
X135505000Y-101504750D01*
X135259000Y-101504750D01*
X135127250Y-101373000D01*
X134507000Y-101370450D01*
X134403690Y-101380625D01*
X134304350Y-101410760D01*
X134212798Y-101459695D01*
X134132552Y-101525552D01*
X134066695Y-101605798D01*
X134017760Y-101697350D01*
X133987625Y-101796690D01*
X133977450Y-101900000D01*
X132592000Y-101900000D01*
X132592000Y-100761328D01*
X132594790Y-100732999D01*
X132592000Y-100704670D01*
X132592000Y-100704664D01*
X132583650Y-100619888D01*
X132550657Y-100511124D01*
X132497079Y-100410885D01*
X132424974Y-100323026D01*
X132402962Y-100304961D01*
X131804102Y-99706101D01*
X131809824Y-99648001D01*
X131809824Y-98847999D01*
X131797741Y-98725322D01*
X131761958Y-98607359D01*
X131703848Y-98498644D01*
X131625646Y-98403354D01*
X131530356Y-98325152D01*
X131421641Y-98267042D01*
X131303678Y-98231259D01*
X131181001Y-98219176D01*
X129930999Y-98219176D01*
X129808322Y-98231259D01*
X129690359Y-98267042D01*
X129581644Y-98325152D01*
X129486354Y-98403354D01*
X129408152Y-98498644D01*
X129350042Y-98607359D01*
X129314259Y-98725322D01*
X129302176Y-98847999D01*
X129302176Y-99083500D01*
X129019116Y-99083500D01*
X129013848Y-99073644D01*
X128935646Y-98978354D01*
X128840356Y-98900152D01*
X128731641Y-98842042D01*
X128613677Y-98806259D01*
X128491000Y-98794176D01*
X127541000Y-98794176D01*
X127418323Y-98806259D01*
X127300359Y-98842042D01*
X127191644Y-98900152D01*
X127096354Y-98978354D01*
X127018152Y-99073644D01*
X126966114Y-99171000D01*
X126166743Y-99171000D01*
X126120463Y-99133019D01*
X126054970Y-99098012D01*
X125983905Y-99076455D01*
X125910000Y-99069176D01*
X125010000Y-99069176D01*
X124936095Y-99076455D01*
X124865030Y-99098012D01*
X124799537Y-99133019D01*
X124742131Y-99180131D01*
X124695019Y-99237537D01*
X124660012Y-99303030D01*
X124638455Y-99374095D01*
X124631176Y-99448000D01*
X124631176Y-100248000D01*
X124638455Y-100321905D01*
X124660012Y-100392970D01*
X124695019Y-100458463D01*
X124742131Y-100515869D01*
X124799537Y-100562981D01*
X124865030Y-100597988D01*
X124936095Y-100619545D01*
X125010000Y-100626824D01*
X125910000Y-100626824D01*
X125983905Y-100619545D01*
X126054970Y-100597988D01*
X126120463Y-100562981D01*
X126166743Y-100525000D01*
X127081872Y-100525000D01*
X127096354Y-100542646D01*
X127191644Y-100620848D01*
X127300359Y-100678958D01*
X127418323Y-100714741D01*
X127465592Y-100719397D01*
X127291000Y-100718450D01*
X127187690Y-100728625D01*
X127088350Y-100758760D01*
X126996798Y-100807695D01*
X126916552Y-100873552D01*
X126850695Y-100953798D01*
X126801760Y-101045350D01*
X126771625Y-101144690D01*
X126761450Y-101248000D01*
X126764000Y-101580750D01*
X126895750Y-101712500D01*
X127893000Y-101712500D01*
X127893000Y-101692500D01*
X128139000Y-101692500D01*
X128139000Y-101712500D01*
X129136250Y-101712500D01*
X129268000Y-101580750D01*
X129270550Y-101248000D01*
X129260375Y-101144690D01*
X129230240Y-101045350D01*
X129181305Y-100953798D01*
X129115448Y-100873552D01*
X129035202Y-100807695D01*
X128943650Y-100758760D01*
X128844310Y-100728625D01*
X128741000Y-100718450D01*
X128566408Y-100719397D01*
X128613677Y-100714741D01*
X128731641Y-100678958D01*
X128840356Y-100620848D01*
X128935646Y-100542646D01*
X129013848Y-100447356D01*
X129019116Y-100437500D01*
X130010255Y-100437500D01*
X130043500Y-100440774D01*
X130076745Y-100437500D01*
X130076752Y-100437500D01*
X130176215Y-100427704D01*
X130303830Y-100388992D01*
X130421441Y-100326128D01*
X130481518Y-100276824D01*
X130742823Y-100276824D01*
X131438001Y-100972002D01*
X131438001Y-101375787D01*
X131421641Y-101367042D01*
X131303678Y-101331259D01*
X131181001Y-101319176D01*
X129930999Y-101319176D01*
X129808322Y-101331259D01*
X129690359Y-101367042D01*
X129581644Y-101425152D01*
X129486354Y-101503354D01*
X129408152Y-101598644D01*
X129350042Y-101707359D01*
X129314259Y-101825322D01*
X129302176Y-101947999D01*
X129302176Y-102748001D01*
X129314259Y-102870678D01*
X129350042Y-102988641D01*
X129408152Y-103097356D01*
X129486354Y-103192646D01*
X129581644Y-103270848D01*
X129690359Y-103328958D01*
X129808322Y-103364741D01*
X129812991Y-103365201D01*
X129812990Y-107961745D01*
X129809716Y-107994990D01*
X129812990Y-108028235D01*
X129812990Y-108028241D01*
X129819053Y-108089801D01*
X129822786Y-108127704D01*
X129861498Y-108255319D01*
X129924362Y-108372930D01*
X129981139Y-108442112D01*
X130008963Y-108476016D01*
X130034790Y-108497212D01*
X130537778Y-109000201D01*
X130558973Y-109026027D01*
X130584799Y-109047222D01*
X130584801Y-109047224D01*
X130662059Y-109110628D01*
X130779670Y-109173492D01*
X130907285Y-109212204D01*
X131040000Y-109225275D01*
X131073252Y-109222000D01*
X131171480Y-109222000D01*
X131190000Y-109223824D01*
X131338000Y-109223824D01*
X131338001Y-110108176D01*
X131256000Y-110108176D01*
X131133323Y-110120259D01*
X131015359Y-110156042D01*
X130906644Y-110214152D01*
X130811354Y-110292354D01*
X130733152Y-110387644D01*
X130675042Y-110496359D01*
X130639259Y-110614323D01*
X130634603Y-110661592D01*
X130635550Y-110487000D01*
X130625375Y-110383690D01*
X130595240Y-110284350D01*
X130546305Y-110192798D01*
X130480448Y-110112552D01*
X130400202Y-110046695D01*
X130308650Y-109997760D01*
X130209310Y-109967625D01*
X130106000Y-109957450D01*
X129773250Y-109960000D01*
X129641500Y-110091750D01*
X129641500Y-111089000D01*
X129661500Y-111089000D01*
X129661500Y-111335000D01*
X129641500Y-111335000D01*
X129641500Y-112332250D01*
X129773250Y-112464000D01*
X130106000Y-112466550D01*
X130209310Y-112456375D01*
X130308650Y-112426240D01*
X130400202Y-112377305D01*
X130480448Y-112311448D01*
X130546305Y-112231202D01*
X130595240Y-112139650D01*
X130625375Y-112040310D01*
X130635550Y-111937000D01*
X130634603Y-111762408D01*
X130639259Y-111809677D01*
X130675042Y-111927641D01*
X130733152Y-112036356D01*
X130811354Y-112131646D01*
X130906644Y-112209848D01*
X131015359Y-112267958D01*
X131133323Y-112303741D01*
X131256000Y-112315824D01*
X131931000Y-112315824D01*
X132051129Y-112303992D01*
X132037240Y-112445001D01*
X132041000Y-112483174D01*
X132040999Y-115009837D01*
X132037339Y-115047000D01*
X129546824Y-115047000D01*
X129546824Y-114178000D01*
X129539545Y-114104095D01*
X129517988Y-114033030D01*
X129482981Y-113967537D01*
X129435869Y-113910131D01*
X129378463Y-113863019D01*
X129312970Y-113828012D01*
X129241905Y-113806455D01*
X129168000Y-113799176D01*
X127168000Y-113799176D01*
X127094095Y-113806455D01*
X127023030Y-113828012D01*
X126957537Y-113863019D01*
X126900131Y-113910131D01*
X126853019Y-113967537D01*
X126818012Y-114033030D01*
X126796455Y-114104095D01*
X126789176Y-114178000D01*
X126789176Y-117978000D01*
X126796455Y-118051905D01*
X126818012Y-118122970D01*
X126853019Y-118188463D01*
X126900131Y-118245869D01*
X126957537Y-118292981D01*
X127023030Y-118327988D01*
X127094095Y-118349545D01*
X127168000Y-118356824D01*
X129168000Y-118356824D01*
X129241905Y-118349545D01*
X129312970Y-118327988D01*
X129378463Y-118292981D01*
X129435869Y-118245869D01*
X129482981Y-118188463D01*
X129517988Y-118122970D01*
X129539545Y-118051905D01*
X129546824Y-117978000D01*
X129546824Y-116601000D01*
X133089176Y-116601000D01*
X133089176Y-116828000D01*
X133096455Y-116901905D01*
X133118012Y-116972970D01*
X133153019Y-117038463D01*
X133200131Y-117095869D01*
X133257537Y-117142981D01*
X133323030Y-117177988D01*
X133394095Y-117199545D01*
X133468000Y-117206824D01*
X135468000Y-117206824D01*
X135541905Y-117199545D01*
X135612970Y-117177988D01*
X135678463Y-117142981D01*
X135735869Y-117095869D01*
X135782981Y-117038463D01*
X135817988Y-116972970D01*
X135839545Y-116901905D01*
X135846824Y-116828000D01*
X135846824Y-115328000D01*
X135839545Y-115254095D01*
X135817988Y-115183030D01*
X135782981Y-115117537D01*
X135735869Y-115060131D01*
X135678496Y-115013046D01*
X135762202Y-114968305D01*
X135816187Y-114924000D01*
X138074450Y-114924000D01*
X138084625Y-115027310D01*
X138114760Y-115126650D01*
X138163695Y-115218202D01*
X138229552Y-115298448D01*
X138309798Y-115364305D01*
X138401350Y-115413240D01*
X138500690Y-115443375D01*
X138604000Y-115453550D01*
X139699250Y-115451000D01*
X139831000Y-115319250D01*
X139831000Y-114384500D01*
X138208750Y-114384500D01*
X138077000Y-114516250D01*
X138074450Y-114924000D01*
X135816187Y-114924000D01*
X135842448Y-114902448D01*
X135908305Y-114822202D01*
X135957240Y-114730650D01*
X135987375Y-114631310D01*
X135997550Y-114528000D01*
X135995000Y-114032750D01*
X135863250Y-113901000D01*
X134591000Y-113901000D01*
X134591000Y-113921000D01*
X134345000Y-113921000D01*
X134345000Y-113901000D01*
X134325000Y-113901000D01*
X134325000Y-113655000D01*
X134345000Y-113655000D01*
X134345000Y-112632750D01*
X134591000Y-112632750D01*
X134591000Y-113655000D01*
X135863250Y-113655000D01*
X135919250Y-113599000D01*
X138074450Y-113599000D01*
X138077000Y-114006750D01*
X138208750Y-114138500D01*
X139831000Y-114138500D01*
X139831000Y-113203750D01*
X140077000Y-113203750D01*
X140077000Y-114138500D01*
X140097000Y-114138500D01*
X140097000Y-114384500D01*
X140077000Y-114384500D01*
X140077000Y-115319250D01*
X140208750Y-115451000D01*
X141304000Y-115453550D01*
X141407310Y-115443375D01*
X141506650Y-115413240D01*
X141574452Y-115376999D01*
X141575000Y-115569250D01*
X141706750Y-115701000D01*
X143229000Y-115701000D01*
X143229000Y-114278750D01*
X143475000Y-114278750D01*
X143475000Y-115701000D01*
X144997250Y-115701000D01*
X145129000Y-115569250D01*
X145131550Y-114674000D01*
X145121375Y-114570690D01*
X145091240Y-114471350D01*
X145042305Y-114379798D01*
X144976448Y-114299552D01*
X144896202Y-114233695D01*
X144804650Y-114184760D01*
X144705310Y-114154625D01*
X144602000Y-114144450D01*
X143606750Y-114147000D01*
X143475000Y-114278750D01*
X143229000Y-114278750D01*
X143097250Y-114147000D01*
X142102000Y-114144450D01*
X141998690Y-114154625D01*
X141899350Y-114184760D01*
X141831000Y-114221293D01*
X141831000Y-114138498D01*
X141699252Y-114138498D01*
X141831000Y-114006750D01*
X141833550Y-113599000D01*
X141823375Y-113495690D01*
X141793240Y-113396350D01*
X141744305Y-113304798D01*
X141678448Y-113224552D01*
X141598202Y-113158695D01*
X141506650Y-113109760D01*
X141407310Y-113079625D01*
X141304000Y-113069450D01*
X140208750Y-113072000D01*
X140077000Y-113203750D01*
X139831000Y-113203750D01*
X139699250Y-113072000D01*
X138604000Y-113069450D01*
X138500690Y-113079625D01*
X138401350Y-113109760D01*
X138309798Y-113158695D01*
X138229552Y-113224552D01*
X138163695Y-113304798D01*
X138114760Y-113396350D01*
X138084625Y-113495690D01*
X138074450Y-113599000D01*
X135919250Y-113599000D01*
X135995000Y-113523250D01*
X135997550Y-113028000D01*
X135987375Y-112924690D01*
X135957240Y-112825350D01*
X135908305Y-112733798D01*
X135842448Y-112653552D01*
X135762202Y-112587695D01*
X135670650Y-112538760D01*
X135571310Y-112508625D01*
X135468000Y-112498450D01*
X134722750Y-112501000D01*
X134591000Y-112632750D01*
X134345000Y-112632750D01*
X134213250Y-112501000D01*
X133862045Y-112499798D01*
X134340843Y-112021000D01*
X141572450Y-112021000D01*
X141582625Y-112124310D01*
X141612760Y-112223650D01*
X141661695Y-112315202D01*
X141727552Y-112395448D01*
X141807798Y-112461305D01*
X141899350Y-112510240D01*
X141998690Y-112540375D01*
X142102000Y-112550550D01*
X143097250Y-112548000D01*
X143229000Y-112416250D01*
X143229000Y-110994000D01*
X143475000Y-110994000D01*
X143475000Y-112416250D01*
X143606750Y-112548000D01*
X144602000Y-112550550D01*
X144705310Y-112540375D01*
X144804650Y-112510240D01*
X144896202Y-112461305D01*
X144976448Y-112395448D01*
X145042305Y-112315202D01*
X145091240Y-112223650D01*
X145121375Y-112124310D01*
X145131550Y-112021000D01*
X145129000Y-111125750D01*
X144997250Y-110994000D01*
X143475000Y-110994000D01*
X143229000Y-110994000D01*
X141706750Y-110994000D01*
X141575000Y-111125750D01*
X141572450Y-112021000D01*
X134340843Y-112021000D01*
X134554083Y-111807761D01*
X134646323Y-111835741D01*
X134769000Y-111847824D01*
X135444000Y-111847824D01*
X135566677Y-111835741D01*
X135684641Y-111799958D01*
X135793356Y-111741848D01*
X135888646Y-111663646D01*
X135966848Y-111568356D01*
X136024958Y-111459641D01*
X136060741Y-111341677D01*
X136065397Y-111294408D01*
X136064450Y-111469000D01*
X136074625Y-111572310D01*
X136104760Y-111671650D01*
X136153695Y-111763202D01*
X136219552Y-111843448D01*
X136299798Y-111909305D01*
X136391350Y-111958240D01*
X136490690Y-111988375D01*
X136594000Y-111998550D01*
X136926750Y-111996000D01*
X137058500Y-111864250D01*
X137058500Y-110867000D01*
X137304500Y-110867000D01*
X137304500Y-111864250D01*
X137436250Y-111996000D01*
X137769000Y-111998550D01*
X137872310Y-111988375D01*
X137971650Y-111958240D01*
X138063202Y-111909305D01*
X138143448Y-111843448D01*
X138209305Y-111763202D01*
X138258240Y-111671650D01*
X138288375Y-111572310D01*
X138298550Y-111469000D01*
X138296000Y-110998750D01*
X138164250Y-110867000D01*
X137304500Y-110867000D01*
X137058500Y-110867000D01*
X137038500Y-110867000D01*
X137038500Y-110621000D01*
X137058500Y-110621000D01*
X137058500Y-110601000D01*
X137304500Y-110601000D01*
X137304500Y-110621000D01*
X138164250Y-110621000D01*
X138296000Y-110489250D01*
X138298550Y-110019000D01*
X138288375Y-109915690D01*
X138258240Y-109816350D01*
X138209305Y-109724798D01*
X138206189Y-109721000D01*
X141572450Y-109721000D01*
X141575000Y-110616250D01*
X141706750Y-110748000D01*
X143229000Y-110748000D01*
X143229000Y-109325750D01*
X143475000Y-109325750D01*
X143475000Y-110748000D01*
X144997250Y-110748000D01*
X145129000Y-110616250D01*
X145131550Y-109721000D01*
X145121375Y-109617690D01*
X145091240Y-109518350D01*
X145042305Y-109426798D01*
X144976448Y-109346552D01*
X144896202Y-109280695D01*
X144804650Y-109231760D01*
X144705310Y-109201625D01*
X144602000Y-109191450D01*
X143606750Y-109194000D01*
X143475000Y-109325750D01*
X143229000Y-109325750D01*
X143097250Y-109194000D01*
X142102000Y-109191450D01*
X141998690Y-109201625D01*
X141899350Y-109231760D01*
X141807798Y-109280695D01*
X141727552Y-109346552D01*
X141661695Y-109426798D01*
X141612760Y-109518350D01*
X141582625Y-109617690D01*
X141572450Y-109721000D01*
X138206189Y-109721000D01*
X138143448Y-109644552D01*
X138063202Y-109578695D01*
X137971650Y-109529760D01*
X137872310Y-109499625D01*
X137769000Y-109489450D01*
X137436250Y-109492000D01*
X137304502Y-109623748D01*
X137304502Y-109503421D01*
X138053923Y-108754000D01*
X143879255Y-108754000D01*
X143912500Y-108757274D01*
X143945745Y-108754000D01*
X143945752Y-108754000D01*
X144045215Y-108744204D01*
X144172830Y-108705492D01*
X144290441Y-108642628D01*
X144393527Y-108558027D01*
X144414726Y-108532196D01*
X144771098Y-108175824D01*
X145255000Y-108175824D01*
X145377677Y-108163741D01*
X145495641Y-108127958D01*
X145604356Y-108069848D01*
X145699646Y-107991646D01*
X145777848Y-107896356D01*
X145835958Y-107787641D01*
X145853746Y-107729000D01*
X146695481Y-107729000D01*
X146714000Y-107730824D01*
X148274000Y-107730824D01*
X148347905Y-107723545D01*
X148418970Y-107701988D01*
X148484463Y-107666981D01*
X148541869Y-107619869D01*
X148588981Y-107562463D01*
X148623988Y-107496970D01*
X148645545Y-107425905D01*
X148652824Y-107352000D01*
X148652824Y-106952000D01*
X148645545Y-106878095D01*
X148630046Y-106827000D01*
X148645545Y-106775905D01*
X148652824Y-106702000D01*
X148652824Y-106302000D01*
X148645545Y-106228095D01*
X148628529Y-106172000D01*
X148645545Y-106115905D01*
X148652824Y-106042000D01*
X148652824Y-105760958D01*
X148713634Y-105687204D01*
X148762778Y-105595763D01*
X148793138Y-105496492D01*
X148801000Y-105396750D01*
X148669250Y-105265000D01*
X148292519Y-105265000D01*
X148274000Y-105263176D01*
X146714000Y-105263176D01*
X146695481Y-105265000D01*
X145907750Y-105265000D01*
X145900250Y-105257500D01*
X144903000Y-105257500D01*
X144903000Y-105277500D01*
X144657000Y-105277500D01*
X144657000Y-105257500D01*
X144637000Y-105257500D01*
X144637000Y-105011500D01*
X144657000Y-105011500D01*
X144657000Y-104151750D01*
X144903000Y-104151750D01*
X144903000Y-105011500D01*
X145900250Y-105011500D01*
X145924500Y-104987250D01*
X146187000Y-104987250D01*
X146318750Y-105119000D01*
X147371000Y-105119000D01*
X147371000Y-104596750D01*
X147617000Y-104596750D01*
X147617000Y-105119000D01*
X148669250Y-105119000D01*
X148801000Y-104987250D01*
X148793138Y-104887508D01*
X148762778Y-104788237D01*
X148713634Y-104696796D01*
X148647595Y-104616700D01*
X148567199Y-104551027D01*
X148475536Y-104502300D01*
X148376128Y-104472391D01*
X148272795Y-104462451D01*
X147748750Y-104465000D01*
X147617000Y-104596750D01*
X147371000Y-104596750D01*
X147239250Y-104465000D01*
X146715205Y-104462451D01*
X146611872Y-104472391D01*
X146512464Y-104502300D01*
X146420801Y-104551027D01*
X146340405Y-104616700D01*
X146274366Y-104696796D01*
X146225222Y-104788237D01*
X146194862Y-104887508D01*
X146187000Y-104987250D01*
X145924500Y-104987250D01*
X146032000Y-104879750D01*
X146034550Y-104547000D01*
X146024375Y-104443690D01*
X145994240Y-104344350D01*
X145945305Y-104252798D01*
X145879448Y-104172552D01*
X145799202Y-104106695D01*
X145707650Y-104057760D01*
X145608310Y-104027625D01*
X145505000Y-104017450D01*
X145034750Y-104020000D01*
X144903000Y-104151750D01*
X144657000Y-104151750D01*
X144525250Y-104020000D01*
X144055000Y-104017450D01*
X143951690Y-104027625D01*
X143852350Y-104057760D01*
X143760798Y-104106695D01*
X143743010Y-104121293D01*
X143743010Y-100621318D01*
X143745800Y-100592987D01*
X143742846Y-100562981D01*
X143739055Y-100524494D01*
X143734661Y-100479875D01*
X143713732Y-100410885D01*
X143701667Y-100371111D01*
X143648089Y-100270872D01*
X143575984Y-100183013D01*
X143553972Y-100164948D01*
X140740024Y-97351000D01*
X142762999Y-97351000D01*
X149617000Y-104205001D01*
X149617000Y-104222335D01*
X149617001Y-104222345D01*
X149617001Y-104613176D01*
X149414000Y-104613176D01*
X149340095Y-104620455D01*
X149269030Y-104642012D01*
X149203537Y-104677019D01*
X149146131Y-104724131D01*
X149099019Y-104781537D01*
X149064012Y-104847030D01*
X149042455Y-104918095D01*
X149035176Y-104992000D01*
X149035176Y-105392000D01*
X149042455Y-105465905D01*
X149057954Y-105517000D01*
X149042455Y-105568095D01*
X149035176Y-105642000D01*
X149035176Y-106042000D01*
X149042455Y-106115905D01*
X149059471Y-106172000D01*
X149042455Y-106228095D01*
X149035176Y-106302000D01*
X149035176Y-106702000D01*
X149042455Y-106775905D01*
X149057954Y-106827000D01*
X149042455Y-106878095D01*
X149035176Y-106952000D01*
X149035176Y-107352000D01*
X149042455Y-107425905D01*
X149064012Y-107496970D01*
X149099019Y-107562463D01*
X149146131Y-107619869D01*
X149203537Y-107666981D01*
X149269030Y-107701988D01*
X149340095Y-107723545D01*
X149414000Y-107730824D01*
X149617000Y-107730824D01*
X149617001Y-108089998D01*
X148364823Y-109342176D01*
X146402000Y-109342176D01*
X146328095Y-109349455D01*
X146257030Y-109371012D01*
X146191537Y-109406019D01*
X146134131Y-109453131D01*
X146087019Y-109510537D01*
X146052012Y-109576030D01*
X146030455Y-109647095D01*
X146023176Y-109721000D01*
X146023176Y-111542402D01*
X145396799Y-112168779D01*
X145370972Y-112189975D01*
X145349777Y-112215801D01*
X145349775Y-112215803D01*
X145289811Y-112288869D01*
X145286371Y-112293061D01*
X145223507Y-112410672D01*
X145184795Y-112538287D01*
X145174999Y-112637750D01*
X145174999Y-112637756D01*
X145171725Y-112671001D01*
X145174999Y-112704246D01*
X145175000Y-117380746D01*
X145171725Y-117414001D01*
X145184795Y-117546715D01*
X145223507Y-117674330D01*
X145286371Y-117791941D01*
X145349775Y-117869199D01*
X145349778Y-117869202D01*
X145370973Y-117895028D01*
X145396799Y-117916223D01*
X147315772Y-119835196D01*
X147336971Y-119861027D01*
X147440057Y-119945628D01*
X147557668Y-120008492D01*
X147685283Y-120047204D01*
X147784746Y-120057000D01*
X147784755Y-120057000D01*
X147817997Y-120060274D01*
X147851239Y-120057000D01*
X149559693Y-120057000D01*
X149648589Y-120129955D01*
X149755143Y-120186909D01*
X149870761Y-120221982D01*
X149991000Y-120233824D01*
X150491000Y-120233824D01*
X150611239Y-120221982D01*
X150726857Y-120186909D01*
X150833411Y-120129955D01*
X150926807Y-120053307D01*
X151003455Y-119959911D01*
X151060409Y-119853357D01*
X151095482Y-119737739D01*
X151107324Y-119617500D01*
X151107324Y-119142500D01*
X151199676Y-119142500D01*
X151199676Y-119617500D01*
X151211518Y-119737739D01*
X151246591Y-119853357D01*
X151303545Y-119959911D01*
X151380193Y-120053307D01*
X151473589Y-120129955D01*
X151580143Y-120186909D01*
X151695761Y-120221982D01*
X151816000Y-120233824D01*
X152316000Y-120233824D01*
X152436239Y-120221982D01*
X152551857Y-120186909D01*
X152658411Y-120129955D01*
X152747307Y-120057000D01*
X154485755Y-120057000D01*
X154519000Y-120060274D01*
X154552245Y-120057000D01*
X154552252Y-120057000D01*
X154651715Y-120047204D01*
X154779330Y-120008492D01*
X154896941Y-119945628D01*
X155000027Y-119861027D01*
X155021226Y-119835196D01*
X155363928Y-119492494D01*
X155561971Y-119512000D01*
X157366029Y-119512000D01*
X157671163Y-119481947D01*
X158062679Y-119363182D01*
X158423502Y-119170318D01*
X158739767Y-118910767D01*
X158999318Y-118594502D01*
X159192182Y-118233679D01*
X159310947Y-117842163D01*
X159351049Y-117435000D01*
X159310947Y-117027837D01*
X159192182Y-116636321D01*
X158999318Y-116275498D01*
X158739767Y-115959233D01*
X158423502Y-115699682D01*
X158062679Y-115506818D01*
X157671163Y-115388053D01*
X157366029Y-115358000D01*
X155561971Y-115358000D01*
X155256837Y-115388053D01*
X154865321Y-115506818D01*
X154504498Y-115699682D01*
X154188233Y-115959233D01*
X153928682Y-116275498D01*
X153735818Y-116636321D01*
X153617053Y-117027837D01*
X153576951Y-117435000D01*
X153617053Y-117842163D01*
X153735818Y-118233679D01*
X153928682Y-118594502D01*
X154017724Y-118703000D01*
X152747307Y-118703000D01*
X152658411Y-118630045D01*
X152551857Y-118573091D01*
X152436239Y-118538018D01*
X152316000Y-118526176D01*
X151816000Y-118526176D01*
X151695761Y-118538018D01*
X151580143Y-118573091D01*
X151473589Y-118630045D01*
X151380193Y-118706693D01*
X151303545Y-118800089D01*
X151246591Y-118906643D01*
X151211518Y-119022261D01*
X151199676Y-119142500D01*
X151107324Y-119142500D01*
X151095482Y-119022261D01*
X151060409Y-118906643D01*
X151003455Y-118800089D01*
X150926807Y-118706693D01*
X150833411Y-118630045D01*
X150726857Y-118573091D01*
X150611239Y-118538018D01*
X150491000Y-118526176D01*
X149991000Y-118526176D01*
X149870761Y-118538018D01*
X149755143Y-118573091D01*
X149648589Y-118630045D01*
X149559693Y-118703000D01*
X148098420Y-118703000D01*
X146748244Y-117352824D01*
X148902000Y-117352824D01*
X148975905Y-117345545D01*
X149046970Y-117323988D01*
X149112463Y-117288981D01*
X149169869Y-117241869D01*
X149216981Y-117184463D01*
X149251988Y-117118970D01*
X149273545Y-117047905D01*
X149280824Y-116974000D01*
X149280824Y-116501000D01*
X150969748Y-116501000D01*
X151003000Y-116504275D01*
X151036252Y-116501000D01*
X151135715Y-116491204D01*
X151263330Y-116452492D01*
X151380941Y-116389628D01*
X151484027Y-116305027D01*
X151568628Y-116201941D01*
X151631492Y-116084330D01*
X151670204Y-115956715D01*
X151683275Y-115824000D01*
X151680000Y-115790748D01*
X151680000Y-115615535D01*
X151688807Y-115608307D01*
X151765455Y-115514911D01*
X151822409Y-115408357D01*
X151857482Y-115292739D01*
X151869324Y-115172500D01*
X151869324Y-114697500D01*
X151961676Y-114697500D01*
X151961676Y-115172500D01*
X151973518Y-115292739D01*
X152008591Y-115408357D01*
X152065545Y-115514911D01*
X152142193Y-115608307D01*
X152235589Y-115684955D01*
X152342143Y-115741909D01*
X152457761Y-115776982D01*
X152578000Y-115788824D01*
X153078000Y-115788824D01*
X153198239Y-115776982D01*
X153313857Y-115741909D01*
X153420411Y-115684955D01*
X153509307Y-115612000D01*
X153930755Y-115612000D01*
X153964000Y-115615274D01*
X153997245Y-115612000D01*
X153997252Y-115612000D01*
X154096715Y-115602204D01*
X154224330Y-115563492D01*
X154341941Y-115500628D01*
X154445027Y-115416027D01*
X154466226Y-115390196D01*
X155363928Y-114492495D01*
X155561971Y-114512000D01*
X157366029Y-114512000D01*
X157671163Y-114481947D01*
X158062679Y-114363182D01*
X158423502Y-114170318D01*
X158739767Y-113910767D01*
X158999318Y-113594502D01*
X159192182Y-113233679D01*
X159310947Y-112842163D01*
X159351049Y-112435000D01*
X159310947Y-112027837D01*
X159192182Y-111636321D01*
X158999318Y-111275498D01*
X158739767Y-110959233D01*
X158423502Y-110699682D01*
X158062679Y-110506818D01*
X157671163Y-110388053D01*
X157366029Y-110358000D01*
X155561971Y-110358000D01*
X155256837Y-110388053D01*
X154865321Y-110506818D01*
X154504498Y-110699682D01*
X154188233Y-110959233D01*
X153928682Y-111275498D01*
X153735818Y-111636321D01*
X153617053Y-112027837D01*
X153576951Y-112435000D01*
X153617053Y-112842163D01*
X153735818Y-113233679D01*
X153928682Y-113594502D01*
X154117274Y-113824303D01*
X153683578Y-114258000D01*
X153509307Y-114258000D01*
X153420411Y-114185045D01*
X153313857Y-114128091D01*
X153198239Y-114093018D01*
X153078000Y-114081176D01*
X152578000Y-114081176D01*
X152457761Y-114093018D01*
X152342143Y-114128091D01*
X152235589Y-114185045D01*
X152142193Y-114261693D01*
X152065545Y-114355089D01*
X152008591Y-114461643D01*
X151973518Y-114577261D01*
X151961676Y-114697500D01*
X151869324Y-114697500D01*
X151857482Y-114577261D01*
X151822409Y-114461643D01*
X151765455Y-114355089D01*
X151688807Y-114261693D01*
X151595411Y-114185045D01*
X151488857Y-114128091D01*
X151373239Y-114093018D01*
X151253000Y-114081176D01*
X150753000Y-114081176D01*
X150632761Y-114093018D01*
X150517143Y-114128091D01*
X150410589Y-114185045D01*
X150317193Y-114261693D01*
X150240545Y-114355089D01*
X150183591Y-114461643D01*
X150148518Y-114577261D01*
X150136676Y-114697500D01*
X150136676Y-115147000D01*
X149280824Y-115147000D01*
X149280824Y-114674000D01*
X149273545Y-114600095D01*
X149251988Y-114529030D01*
X149216981Y-114463537D01*
X149169869Y-114406131D01*
X149112463Y-114359019D01*
X149046970Y-114324012D01*
X148975905Y-114302455D01*
X148902000Y-114295176D01*
X148394825Y-114295176D01*
X151811968Y-110878034D01*
X151833975Y-110859973D01*
X151906080Y-110772114D01*
X151959658Y-110671875D01*
X151977116Y-110614323D01*
X151992652Y-110563111D01*
X151999226Y-110496359D01*
X152001001Y-110478335D01*
X152001001Y-110478330D01*
X152003791Y-110449999D01*
X152001001Y-110421668D01*
X152001001Y-106580329D01*
X152003791Y-106552000D01*
X152001001Y-106523672D01*
X152001001Y-106523665D01*
X151992651Y-106438889D01*
X151959658Y-106330125D01*
X151906080Y-106229886D01*
X151833975Y-106142027D01*
X151811964Y-106123963D01*
X151802039Y-106114038D01*
X151783974Y-106092026D01*
X151696115Y-106019921D01*
X151595876Y-105966343D01*
X151529190Y-105946114D01*
X151487111Y-105933349D01*
X151432045Y-105927926D01*
X151402336Y-105925000D01*
X151402331Y-105925000D01*
X151374000Y-105922210D01*
X151352824Y-105924295D01*
X151352824Y-105642000D01*
X151345545Y-105568095D01*
X151330046Y-105517000D01*
X151345545Y-105465905D01*
X151352824Y-105392000D01*
X151352824Y-104992000D01*
X151345545Y-104918095D01*
X151323988Y-104847030D01*
X151288981Y-104781537D01*
X151241869Y-104724131D01*
X151184463Y-104677019D01*
X151118970Y-104642012D01*
X151047905Y-104620455D01*
X150974000Y-104613176D01*
X150771000Y-104613176D01*
X150771000Y-103994331D01*
X150773790Y-103966000D01*
X150762651Y-103852888D01*
X150729656Y-103744123D01*
X150724031Y-103733600D01*
X150676079Y-103643885D01*
X150603974Y-103556026D01*
X150581962Y-103537961D01*
X146849283Y-99805282D01*
X152023000Y-99805282D01*
X152023000Y-100194718D01*
X152098975Y-100576670D01*
X152248005Y-100936461D01*
X152464364Y-101260264D01*
X152739736Y-101535636D01*
X153063539Y-101751995D01*
X153423330Y-101901025D01*
X153805282Y-101977000D01*
X154194718Y-101977000D01*
X154576670Y-101901025D01*
X154936461Y-101751995D01*
X155260264Y-101535636D01*
X155535636Y-101260264D01*
X155751995Y-100936461D01*
X155901025Y-100576670D01*
X155977000Y-100194718D01*
X155977000Y-99805282D01*
X155901025Y-99423330D01*
X155751995Y-99063539D01*
X155535636Y-98739736D01*
X155260264Y-98464364D01*
X154936461Y-98248005D01*
X154576670Y-98098975D01*
X154194718Y-98023000D01*
X153805282Y-98023000D01*
X153423330Y-98098975D01*
X153063539Y-98248005D01*
X152739736Y-98464364D01*
X152464364Y-98739736D01*
X152248005Y-99063539D01*
X152098975Y-99423330D01*
X152023000Y-99805282D01*
X146849283Y-99805282D01*
X143430039Y-96386038D01*
X143411974Y-96364026D01*
X143324115Y-96291921D01*
X143223876Y-96238343D01*
X143159770Y-96218897D01*
X143115111Y-96205349D01*
X143060045Y-96199926D01*
X143030336Y-96197000D01*
X143030331Y-96197000D01*
X143002000Y-96194210D01*
X142973669Y-96197000D01*
X125063822Y-96197000D01*
X125035493Y-96194210D01*
X125007164Y-96197000D01*
X125007158Y-96197000D01*
X124922382Y-96205350D01*
X124813618Y-96238343D01*
X124713379Y-96291921D01*
X124625520Y-96364026D01*
X124607455Y-96386038D01*
X120897038Y-100096455D01*
X120875026Y-100114520D01*
X120802921Y-100202380D01*
X120749343Y-100302619D01*
X120738416Y-100338641D01*
X120716349Y-100411383D01*
X120705210Y-100524494D01*
X120708000Y-100552825D01*
X120708001Y-104027997D01*
X119378999Y-105357000D01*
X117367096Y-105357000D01*
X117362958Y-105343359D01*
X117304848Y-105234644D01*
X117226646Y-105139354D01*
X117131356Y-105061152D01*
X117022641Y-105003042D01*
X116904678Y-104967259D01*
X116782001Y-104955176D01*
X115881999Y-104955176D01*
X115759322Y-104967259D01*
X115641359Y-105003042D01*
X115532644Y-105061152D01*
X115437354Y-105139354D01*
X115359152Y-105234644D01*
X115301042Y-105343359D01*
X115265259Y-105461322D01*
X115253176Y-105583999D01*
X115253176Y-106284001D01*
X115265259Y-106406678D01*
X115301042Y-106524641D01*
X115359152Y-106633356D01*
X115437354Y-106728646D01*
X115532644Y-106806848D01*
X115641359Y-106864958D01*
X115759322Y-106900741D01*
X115881999Y-106912824D01*
X116782001Y-106912824D01*
X116904678Y-106900741D01*
X117022641Y-106864958D01*
X117131356Y-106806848D01*
X117226646Y-106728646D01*
X117304848Y-106633356D01*
X117362958Y-106524641D01*
X117367096Y-106511000D01*
X119589669Y-106511000D01*
X119618000Y-106513790D01*
X119646331Y-106511000D01*
X119646336Y-106511000D01*
X119676045Y-106508074D01*
X119731111Y-106502651D01*
X119782446Y-106487078D01*
X119839876Y-106469657D01*
X119940115Y-106416079D01*
X120027974Y-106343974D01*
X120046039Y-106321962D01*
X121672967Y-104695035D01*
X121691991Y-104679422D01*
X121691991Y-105700649D01*
X121689200Y-105728990D01*
X121700339Y-105842101D01*
X121731893Y-105946115D01*
X121733334Y-105950866D01*
X121786912Y-106051105D01*
X121813383Y-106083359D01*
X121840953Y-106116954D01*
X121840956Y-106116957D01*
X121859017Y-106138964D01*
X121881024Y-106157025D01*
X122340176Y-106616177D01*
X122340176Y-106999000D01*
X122352259Y-107121677D01*
X122388042Y-107239641D01*
X122446152Y-107348356D01*
X122524354Y-107443646D01*
X122619644Y-107521848D01*
X122728359Y-107579958D01*
X122846323Y-107615741D01*
X122969000Y-107627824D01*
X123919000Y-107627824D01*
X124041677Y-107615741D01*
X124159641Y-107579958D01*
X124268356Y-107521848D01*
X124363646Y-107443646D01*
X124441848Y-107348356D01*
X124499958Y-107239641D01*
X124535741Y-107121677D01*
X124547824Y-106999000D01*
X124547824Y-106582000D01*
X125930725Y-106582000D01*
X125946201Y-106594701D01*
X126030949Y-106640000D01*
X125946201Y-106685299D01*
X125887516Y-106733461D01*
X125868124Y-106739343D01*
X125767885Y-106792921D01*
X125680026Y-106865026D01*
X125661963Y-106887036D01*
X118818399Y-113730600D01*
X117252950Y-113730600D01*
X117150473Y-113538879D01*
X116978397Y-113329203D01*
X116768721Y-113157127D01*
X116545102Y-113037600D01*
X116768721Y-112918073D01*
X116978397Y-112745997D01*
X117150473Y-112536321D01*
X117278337Y-112297105D01*
X117357075Y-112037539D01*
X117383662Y-111767600D01*
X117357075Y-111497661D01*
X117278337Y-111238095D01*
X117150473Y-110998879D01*
X116996138Y-110810821D01*
X116999204Y-110800715D01*
X117012275Y-110668000D01*
X117009000Y-110634748D01*
X117009000Y-108869096D01*
X117022641Y-108864958D01*
X117131356Y-108806848D01*
X117226646Y-108728646D01*
X117304848Y-108633356D01*
X117362958Y-108524641D01*
X117398741Y-108406678D01*
X117410824Y-108284001D01*
X117410824Y-107583999D01*
X117398741Y-107461322D01*
X117362958Y-107343359D01*
X117304848Y-107234644D01*
X117226646Y-107139354D01*
X117131356Y-107061152D01*
X117022641Y-107003042D01*
X116904678Y-106967259D01*
X116782001Y-106955176D01*
X115881999Y-106955176D01*
X115759322Y-106967259D01*
X115641359Y-107003042D01*
X115532644Y-107061152D01*
X115437354Y-107139354D01*
X115359152Y-107234644D01*
X115301042Y-107343359D01*
X115265259Y-107461322D01*
X115253176Y-107583999D01*
X115253176Y-108284001D01*
X115265259Y-108406678D01*
X115301042Y-108524641D01*
X115359152Y-108633356D01*
X115437354Y-108728646D01*
X115532644Y-108806848D01*
X115641359Y-108864958D01*
X115655000Y-108869096D01*
X115655001Y-110387576D01*
X115651977Y-110390600D01*
X113932360Y-110390600D01*
X113730061Y-110410525D01*
X113470495Y-110489263D01*
X113231279Y-110617127D01*
X113021603Y-110789203D01*
X112849527Y-110998879D01*
X112721663Y-111238095D01*
X112642925Y-111497661D01*
X112616338Y-111767600D01*
X110402000Y-111767600D01*
X110402000Y-99805282D01*
X114023000Y-99805282D01*
X114023000Y-100194718D01*
X114098975Y-100576670D01*
X114248005Y-100936461D01*
X114464364Y-101260264D01*
X114739736Y-101535636D01*
X115063539Y-101751995D01*
X115423330Y-101901025D01*
X115805282Y-101977000D01*
X116194718Y-101977000D01*
X116576670Y-101901025D01*
X116936461Y-101751995D01*
X117260264Y-101535636D01*
X117535636Y-101260264D01*
X117751995Y-100936461D01*
X117901025Y-100576670D01*
X117977000Y-100194718D01*
X117977000Y-99805282D01*
X117901025Y-99423330D01*
X117751995Y-99063539D01*
X117535636Y-98739736D01*
X117260264Y-98464364D01*
X116936461Y-98248005D01*
X116576670Y-98098975D01*
X116194718Y-98023000D01*
X115805282Y-98023000D01*
X115423330Y-98098975D01*
X115063539Y-98248005D01*
X114739736Y-98464364D01*
X114464364Y-98739736D01*
X114248005Y-99063539D01*
X114098975Y-99423330D01*
X114023000Y-99805282D01*
X110402000Y-99805282D01*
X110402000Y-95402000D01*
X159598001Y-95402000D01*
X159598000Y-134598000D01*
G37*
%TD.AperFunction*%
%TD*%
M02*
